<?xml version="1.0" encoding="UTF-8"?>  <!DOCTYPE svg PUBLIC "-//W3C//DTD SVG 1.0//EN" "http://www.w3.org/TR/2001/REC-SVG-20010904/DTD/svg10.dtd"  <!ATTLIST g xmlns:kvg CDATA #FIXED "http://kanjivg.tagaini.net" kvg:element CDATA #IMPLIED kvg:variant CDATA #IMPLIED kvg:partial CDATA #IMPLIED kvg:original CDATA #IMPLIED kvg:part CDATA #IMPLIED kvg:number CDATA #IMPLIED kvg:tradForm CDATA #IMPLIED kvg:radicalForm CDATA #IMPLIED kvg:position CDATA #IMPLIED kvg:radical CDATA #IMPLIED kvg:phon CDATA #IMPLIED > <!ATTLIST path xmlns:kvg CDATA #FIXED "http://kanjivg.tagaini.net" kvg:type CDATA #IMPLIED >  <svg xmlns="http://www.w3.org/2000/svg" width="109" height="109" viewBox="0 0 109 109"> <g id="kvg:StrokePaths_04e9b-HzFst" style="fill:none;stroke:#000000;stroke-width:3;stroke-linecap:round;stroke-linejoin:round;"> <g id="kvg:04e9b-HzFst" kvg:element="些"> <g id="kvg:04e9b-HzFst-g1" kvg:element="此" kvg:position="top"> <g id="kvg:04e9b-HzFst-g2" kvg:element="止" kvg:position="left"> <g id="kvg:04e9b-HzFst-g3" kvg:element="卜" kvg:original="ト"> <!--<path id="kvg:04e9b-HzFst-s1" kvg:type="㇐" d="M36.65,35.49c4.5-0.52,9.32-3.06,13.74-3.58c1.1-0.13,1.38-0.17,2.06,0"/>--> <!--<path id="kvg:04e9b-HzFst-s2" kvg:type="㇑" d="M34.77,13.48c1.06,0.36,1.7,1.64,1.91,2.37c0.21,0.73-0.08,35.66-0.08,43.49"/>--> </g> <!--<path id="kvg:04e9b-HzFst-s3" kvg:type="㇑" d="M19.8,32.51c1.16,0.41,2.08,1.82,2.08,2.65c0,4.49,0.3,24.29,0.3,30.2"/>--> <!--<path id="kvg:04e9b-HzFst-s4" kvg:type="㇐" d="M15.35,66.89c0.43,0.86,2.39,0.96,3.53,0.64c6.18-1.72,24.26-11.06,33.91-15.95"/>--> </g> <g id="kvg:04e9b-HzFst-g4" kvg:element="匕" kvg:position="right"> <!--<path id="kvg:04e9b-HzFst-s5" kvg:type="㇒" d="M88.54,21.19c-0.04,1.06-0.69,2.3-1.18,2.81c-3.22,3.3-13.27,11.4-23.68,14.78"/>--> <!--<path id="kvg:04e9b-HzFst-s6" kvg:type="㇟" d="M60.46,11.75c1.06,0.78,1.13,1.31,1.48,2.35c0.35,1.05,0.11,32.11,0.11,39.24c0,7.13,8.61,7.98,15.94,7.98c14.41,0,14.16-2.49,14.16-7.48"/>--> </g> </g> <g id="kvg:04e9b-HzFst-g5" kvg:element="二" kvg:position="bottom" kvg:radical="general"> <g id="kvg:04e9b-HzFst-g6" kvg:position="top"> <!--<path id="kvg:04e9b-HzFst-s7" kvg:type="㇐" d="M31.75,76.17c0.92,0.35,2.61,0.4,3.53,0.35c9.2-0.49,28.75-3.53,39.44-3.52c1.53,0,2.46,0.17,3.22,0.34"/>--> </g> <g id="kvg:04e9b-HzFst-g7" kvg:position="bottom"> <!--<path id="kvg:04e9b-HzFst-s8" kvg:type="㇐" d="M17.75,95.29c1.43,0.47,4.05,0.47,5.47,0.47c13.62,0,52.41-4.98,66.28-4.97c2.38,0,3.81,0.22,5,0.46"/>--> </g> </g> </g> </g> <g id="kvg:StrokeNumbers_04e9b-HzFst" style="font-size:8;fill:#808080">         </g> </svg> 