<?xml version="1.0" encoding="UTF-8"?>  <!DOCTYPE svg PUBLIC "-//W3C//DTD SVG 1.0//EN" "http://www.w3.org/TR/2001/REC-SVG-20010904/DTD/svg10.dtd"  <!ATTLIST g xmlns:kvg CDATA #FIXED "http://kanjivg.tagaini.net" kvg:element CDATA #IMPLIED kvg:variant CDATA #IMPLIED kvg:partial CDATA #IMPLIED kvg:original CDATA #IMPLIED kvg:part CDATA #IMPLIED kvg:number CDATA #IMPLIED kvg:tradForm CDATA #IMPLIED kvg:radicalForm CDATA #IMPLIED kvg:position CDATA #IMPLIED kvg:radical CDATA #IMPLIED kvg:phon CDATA #IMPLIED > <!ATTLIST path xmlns:kvg CDATA #FIXED "http://kanjivg.tagaini.net" kvg:type CDATA #IMPLIED >  <svg xmlns="http://www.w3.org/2000/svg" width="109" height="109" viewBox="0 0 109 109"> <g id="kvg:StrokePaths_04ea5-Kaisho" style="fill:none;stroke:#000000;stroke-width:3;stroke-linecap:round;stroke-linejoin:round;"> <g id="kvg:04ea5-Kaisho" kvg:element="亥"> <g id="kvg:04ea5-Kaisho-g1" kvg:element="亠" kvg:position="top" kvg:radical="general"> <!--<path id="kvg:04ea5-Kaisho-s1" kvg:type="㇑a" d="M48.65,14.49c3.39,1.42,7.54,6.11,8.97,9.71"/>--> <!--<path id="kvg:04ea5-Kaisho-s2" kvg:type="㇐" d="M16,32.89c1.36,0.1,4.47,0.66,5.79,0.53c10.7-1.1,50.39-5.17,65.64-5.93c2.24-0.11,3.39,0.04,5.06,0.67"/>--> </g> <!--<path id="kvg:04ea5-Kaisho-s3" kvg:type="㇛" d="M48.98,33.12c0.48,1.23-0.08,3.27-1.24,4.47c-3.98,4.16-6.98,7.16-12.31,10.94c-0.94,0.67-0.95,2.83,0,3.07c5.06,1.23,11.6,3.27,15.93,5.52"/>--> <!--<path id="kvg:04ea5-Kaisho-s4" kvg:type="㇒" d="M66.98,39.75c0.11,0.82,0.5,2.43-0.21,3.29C57.5,54.25,46.75,64.25,27,74.54"/>--> <g id="kvg:04ea5-Kaisho-g2" kvg:element="人" kvg:position="bottom"> <!--<path id="kvg:04ea5-Kaisho-s5" kvg:type="㇒" d="M70.93,56.75c0.14,0.94,0.64,2.78-0.27,3.76c-11.86,12.82-27.4,26.99-50.9,36.03"/>--> <!--<path id="kvg:04ea5-Kaisho-s6" kvg:type="㇏" d="M57.02,76.33c10.25,3.38,26.48,13.88,29.04,19.13"/>--> </g> </g> </g> <g id="kvg:StrokeNumbers_04ea5-Kaisho" style="font-size:8;fill:#808080">       </g> </svg> 