<?xml version="1.0" encoding="UTF-8"?>  <!DOCTYPE svg PUBLIC "-//W3C//DTD SVG 1.0//EN" "http://www.w3.org/TR/2001/REC-SVG-20010904/DTD/svg10.dtd"  <!ATTLIST g xmlns:kvg CDATA #FIXED "http://kanjivg.tagaini.net" kvg:element CDATA #IMPLIED kvg:variant CDATA #IMPLIED kvg:partial CDATA #IMPLIED kvg:original CDATA #IMPLIED kvg:part CDATA #IMPLIED kvg:number CDATA #IMPLIED kvg:tradForm CDATA #IMPLIED kvg:radicalForm CDATA #IMPLIED kvg:position CDATA #IMPLIED kvg:radical CDATA #IMPLIED kvg:phon CDATA #IMPLIED > <!ATTLIST path xmlns:kvg CDATA #FIXED "http://kanjivg.tagaini.net" kvg:type CDATA #IMPLIED >  <svg xmlns="http://www.w3.org/2000/svg" width="109" height="109" viewBox="0 0 109 109"> <g id="kvg:StrokePaths_04f01-HzFst" style="fill:none;stroke:#000000;stroke-width:3;stroke-linecap:round;stroke-linejoin:round;"> <g id="kvg:04f01-HzFst" kvg:element="企"> <g id="kvg:04f01-HzFst-g1" kvg:element="人" kvg:position="top" kvg:radical="general"> <!--<path id="kvg:04f01-HzFst-s1" kvg:type="㇒" d="M51.25,11.25c0.11,1.07,0.44,2.84-0.22,4.3C46.75,25,31.5,45.75,11.5,56.75"/>--> <!--<path id="kvg:04f01-HzFst-s2" kvg:type="㇏" d="M51.5,16c6.09,6.96,32.31,29.69,39.02,34.79c2.28,1.73,5.2,2.47,7.48,2.96"/>--> </g> <g id="kvg:04f01-HzFst-g2" kvg:element="止" kvg:position="bottom"> <g id="kvg:04f01-HzFst-g3" kvg:element="卜" kvg:original="ト"> <!--<path id="kvg:04f01-HzFst-s3" kvg:type="㇐" d="M55.17,65.61c6.5-0.51,12.35-1.71,19.19-2.05c1.59-0.08,1.99-0.17,2.98,0"/>--> <!--<path id="kvg:04f01-HzFst-s4" kvg:type="㇑" d="M52.87,43.75c0.88,1.25,1.79,2.5,1.79,4.22c0,8.03-0.07,39.63-0.2,42.4"/>--> </g> <!--<path id="kvg:04f01-HzFst-s5" kvg:type="㇑" d="M30.28,65.07c0.72,0.93,1.79,2.51,1.79,3.22c0,4.46,0,18.66-0.2,22.93"/>--> <!--<path id="kvg:04f01-HzFst-s6" kvg:type="㇐" d="M18.92,92.24c0.75,0.17,2.76,0.58,4.75,0.51c10.77-0.34,43.84-3.41,57.53-3.41c2,0,5.48,0.34,6.62,0.51"/>--> </g> </g> </g> <g id="kvg:StrokeNumbers_04f01-HzFst" style="font-size:8;fill:#808080">       </g> </svg> 