<?xml version="1.0" encoding="UTF-8"?>  <!DOCTYPE svg PUBLIC "-//W3C//DTD SVG 1.0//EN" "http://www.w3.org/TR/2001/REC-SVG-20010904/DTD/svg10.dtd"  <!ATTLIST g xmlns:kvg CDATA #FIXED "http://kanjivg.tagaini.net" kvg:element CDATA #IMPLIED kvg:variant CDATA #IMPLIED kvg:partial CDATA #IMPLIED kvg:original CDATA #IMPLIED kvg:part CDATA #IMPLIED kvg:number CDATA #IMPLIED kvg:tradForm CDATA #IMPLIED kvg:radicalForm CDATA #IMPLIED kvg:position CDATA #IMPLIED kvg:radical CDATA #IMPLIED kvg:phon CDATA #IMPLIED > <!ATTLIST path xmlns:kvg CDATA #FIXED "http://kanjivg.tagaini.net" kvg:type CDATA #IMPLIED >  <svg xmlns="http://www.w3.org/2000/svg" width="109" height="109" viewBox="0 0 109 109"> <g id="kvg:StrokePaths_04f46-Kaisho" style="fill:none;stroke:#000000;stroke-width:3;stroke-linecap:round;stroke-linejoin:round;"> <g id="kvg:04f46-Kaisho" kvg:element="但"> <g id="kvg:04f46-Kaisho-g1" kvg:element="亻" kvg:variant="true" kvg:original="人" kvg:position="left" kvg:radical="general"> <!--<path id="kvg:04f46-Kaisho-s1" kvg:type="㇒" d="M32.99,15.89c0.14,1.18,0.24,2.65-0.12,4.1c-2.29,9.15-11.14,26.83-21.81,39.22"/>--> <!--<path id="kvg:04f46-Kaisho-s2" kvg:type="㇑" d="M26.53,41.5c0.59,0.61,0.76,1.97,0.76,3.23c0,13.02-0.29,40.65-0.29,49.4"/>--> </g> <g id="kvg:04f46-Kaisho-g2" kvg:element="旦" kvg:position="right"> <g id="kvg:04f46-Kaisho-g3" kvg:element="日" kvg:position="top"> <!--<path id="kvg:04f46-Kaisho-s3" kvg:type="㇑" d="M49.23,24.17c0.58,1.12,1.16,1.68,1.16,3.17s-0.19,43.98,0,45.47"/>--> <!--<path id="kvg:04f46-Kaisho-s4" kvg:type="㇕a" d="M51.35,25.36c3.26-0.19,28.09-2.39,31.06-2.61c2.48-0.19,4.07,2.06,3.88,3.17c-0.39,2.24-0.76,45.03-0.76,46.15"/>--> <!--<path id="kvg:04f46-Kaisho-s5" kvg:type="㇐a" d="M51.93,46.97c5.3,0,10.63-0.57,15.91-0.93c1.72-0.12,3.45-0.23,5.11-0.34"/>--> <!--<path id="kvg:04f46-Kaisho-s6" kvg:type="㇐a" d="M51.35,70.26c6.53,0,24-1.49,32.45-1.49"/>--> </g> <g id="kvg:04f46-Kaisho-g4" kvg:element="一" kvg:position="bottom"> <!--<path id="kvg:04f46-Kaisho-s7" kvg:type="㇐" d="M40.13,89.79c1.11,0.46,3.15,0.49,4.26,0.46c9.82-0.23,37.35-3.03,48.84-3.02c1.85,0,2.96,0.22,3.89,0.45"/>--> </g> </g> </g> </g> <g id="kvg:StrokeNumbers_04f46-Kaisho" style="font-size:8;fill:#808080">        </g> </svg> 