<?xml version="1.0" encoding="UTF-8"?>  <!DOCTYPE svg PUBLIC "-//W3C//DTD SVG 1.0//EN" "http://www.w3.org/TR/2001/REC-SVG-20010904/DTD/svg10.dtd"  <!ATTLIST g xmlns:kvg CDATA #FIXED "http://kanjivg.tagaini.net" kvg:element CDATA #IMPLIED kvg:variant CDATA #IMPLIED kvg:partial CDATA #IMPLIED kvg:original CDATA #IMPLIED kvg:part CDATA #IMPLIED kvg:number CDATA #IMPLIED kvg:tradForm CDATA #IMPLIED kvg:radicalForm CDATA #IMPLIED kvg:position CDATA #IMPLIED kvg:radical CDATA #IMPLIED kvg:phon CDATA #IMPLIED > <!ATTLIST path xmlns:kvg CDATA #FIXED "http://kanjivg.tagaini.net" kvg:type CDATA #IMPLIED >  <svg xmlns="http://www.w3.org/2000/svg" width="109" height="109" viewBox="0 0 109 109"> <g id="kvg:StrokePaths_05145-Kaisho" style="fill:none;stroke:#000000;stroke-width:3;stroke-linecap:round;stroke-linejoin:round;"> <g id="kvg:05145-Kaisho" kvg:element="充"> <g id="kvg:05145-Kaisho-g1" kvg:position="top"> <g id="kvg:05145-Kaisho-g2" kvg:element="亠" kvg:radical="nelson"> <!--<path id="kvg:05145-Kaisho-s1" kvg:type="㇑a" d="M48.01,12.75c3.83,1.6,8.36,6.46,10.12,10.96"/>--> <!--<path id="kvg:05145-Kaisho-s2" kvg:type="㇐" d="M19.85,31.68c1.23,0.09,4.05,0.6,5.25,0.48c9.69-1,45.64-4.68,59.46-5.37c2.03-0.1,3.07,0.04,4.59,0.61"/>--> </g> <g id="kvg:05145-Kaisho-g3" kvg:element="允" kvg:part="1"> <g id="kvg:05145-Kaisho-g4" kvg:element="厶"> <!--<path id="kvg:05145-Kaisho-s3" kvg:type="㇜" d="M50.95,31.95c0.05,1.05,0.15,2.6-0.31,3.19c-4.89,6.35-9.89,12.35-15.37,16.39c-2.5,1.84-2.45,3.95,1.14,3.38c8.76-1.38,23.41-4.5,35.6-6.83"/>--> <!--<path id="kvg:05145-Kaisho-s4" kvg:type="㇔" d="M63.71,39.18C69,42.01,77.37,50.83,78.69,55.24"/>--> </g> </g> </g> <g id="kvg:05145-Kaisho-g5" kvg:element="允" kvg:part="2" kvg:position="bottom"> <g id="kvg:05145-Kaisho-g6" kvg:element="儿" kvg:radical="tradit"> <g id="kvg:05145-Kaisho-g7" kvg:element="八" kvg:variant="true"> <g id="kvg:05145-Kaisho-g8" kvg:element="丿" kvg:position="left"> <!--<path id="kvg:05145-Kaisho-s5" kvg:type="㇒" d="M43.73,62.83c0.07,0.82,0.14,2.12-0.13,3.3c-1.61,6.96-10.08,23.56-23.46,31.59"/>--> </g> <g id="kvg:05145-Kaisho-g9" kvg:position="right"> <!--<path id="kvg:05145-Kaisho-s6" kvg:type="㇟" d="M60.29,57.26c0.68,1.27,1.22,2.76,1.26,4.72c0.18,8.72-0.48,17.2-0.48,23.13c0,13.85,8.12,12.29,16.12,12.29c8.44,0,14-1.79,15.18-2.8c2.51-2.13,1.83-3.2,2.05-6.92"/>--> </g> </g> </g> </g> </g> </g> <g id="kvg:StrokeNumbers_05145-Kaisho" style="font-size:8;fill:#808080">       </g> </svg> 