<?xml version="1.0" encoding="UTF-8"?>  <!DOCTYPE svg PUBLIC "-//W3C//DTD SVG 1.0//EN" "http://www.w3.org/TR/2001/REC-SVG-20010904/DTD/svg10.dtd"  <!ATTLIST g xmlns:kvg CDATA #FIXED "http://kanjivg.tagaini.net" kvg:element CDATA #IMPLIED kvg:variant CDATA #IMPLIED kvg:partial CDATA #IMPLIED kvg:original CDATA #IMPLIED kvg:part CDATA #IMPLIED kvg:number CDATA #IMPLIED kvg:tradForm CDATA #IMPLIED kvg:radicalForm CDATA #IMPLIED kvg:position CDATA #IMPLIED kvg:radical CDATA #IMPLIED kvg:phon CDATA #IMPLIED > <!ATTLIST path xmlns:kvg CDATA #FIXED "http://kanjivg.tagaini.net" kvg:type CDATA #IMPLIED >  <svg xmlns="http://www.w3.org/2000/svg" width="109" height="109" viewBox="0 0 109 109"> <g id="kvg:StrokePaths_05150-Kaisho" style="fill:none;stroke:#000000;stroke-width:3;stroke-linecap:round;stroke-linejoin:round;"> <g id="kvg:05150-Kaisho" kvg:element="児"> <g id="kvg:05150-Kaisho-g1" kvg:element="旧" kvg:position="top"> <g id="kvg:05150-Kaisho-g2" kvg:element="丨" kvg:position="left"> <!--<path id="kvg:05150-Kaisho-s1" kvg:type="㇑" d="M24.62,13.75c1.09,0.5,1.74,2.25,1.96,3.25c0.22,1,0,28.25-0.22,34.5"/>--> </g> <g id="kvg:05150-Kaisho-g3" kvg:element="日" kvg:position="right"> <!--<path id="kvg:05150-Kaisho-s2" kvg:type="㇑" d="M45.74,16.8c0.4,0.81,1.31,2.22,1.31,3.3c0,1.08-0.27,29.74-0.27,30.28"/>--> <!--<path id="kvg:05150-Kaisho-s3" kvg:type="㇕a" d="M47.72,17.94c2.27-0.14,26.26-3.28,28.33-3.44c1.73-0.14,2.79,1.49,2.7,2.3C78,23.5,77,32,76.35,47.34c-0.05,1.22-0.13,1.76-0.13,2.57"/>--> <!--<path id="kvg:05150-Kaisho-s4" kvg:type="㇐a" d="M48.12,33.08c4.62,0,9.34-0.76,13.93-1.2c1.55-0.15,3.11-0.3,4.6-0.44"/>--> <!--<path id="kvg:05150-Kaisho-s5" kvg:type="㇐a" d="M47.98,48.96c6.27-0.58,19.49-1.13,27.29-1.63"/>--> </g> </g> <g id="kvg:05150-Kaisho-g4" kvg:element="儿" kvg:original="八" kvg:position="bottom" kvg:radical="general"> <g id="kvg:05150-Kaisho-g5" kvg:element="丿" kvg:position="left"> <!--<path id="kvg:05150-Kaisho-s6" kvg:type="㇒" d="M39.25,60.25c0.06,0.82,0.14,2.12-0.13,3.3c-1.59,6.97-9.97,23.58-23.2,31.61"/>--> </g> <g id="kvg:05150-Kaisho-g6" kvg:position="right"> <!--<path id="kvg:05150-Kaisho-s7" kvg:type="㇟" d="M56.24,56.62c0.72,1.24,1.3,2.71,1.34,4.63c0.19,8.57-0.51,16.89-0.51,22.71c0,13.6,8.67,12.06,17.2,12.06c9,0,14.93-1.76,16.19-2.75c2.68-2.09,1.95-3.14,2.19-6.8"/>--> </g> </g> </g> </g> <g id="kvg:StrokeNumbers_05150-Kaisho" style="font-size:8;fill:#808080">        </g> </svg> 