<?xml version="1.0" encoding="UTF-8"?>  <!DOCTYPE svg PUBLIC "-//W3C//DTD SVG 1.0//EN" "http://www.w3.org/TR/2001/REC-SVG-20010904/DTD/svg10.dtd"  <!ATTLIST g xmlns:kvg CDATA #FIXED "http://kanjivg.tagaini.net" kvg:element CDATA #IMPLIED kvg:variant CDATA #IMPLIED kvg:partial CDATA #IMPLIED kvg:original CDATA #IMPLIED kvg:part CDATA #IMPLIED kvg:number CDATA #IMPLIED kvg:tradForm CDATA #IMPLIED kvg:radicalForm CDATA #IMPLIED kvg:position CDATA #IMPLIED kvg:radical CDATA #IMPLIED kvg:phon CDATA #IMPLIED > <!ATTLIST path xmlns:kvg CDATA #FIXED "http://kanjivg.tagaini.net" kvg:type CDATA #IMPLIED >  <svg xmlns="http://www.w3.org/2000/svg" width="109" height="109" viewBox="0 0 109 109"> <g id="kvg:StrokePaths_05190-Kaisho" style="fill:none;stroke:#000000;stroke-width:3;stroke-linecap:round;stroke-linejoin:round;"> <g id="kvg:05190-Kaisho" kvg:element="冐"> <g id="kvg:05190-Kaisho-g1" kvg:element="日" kvg:variant="true" kvg:position="top"> <g id="kvg:05190-Kaisho-g2" kvg:element="冂" kvg:variant="true"> <!--<path id="kvg:05190-Kaisho-s1" kvg:type="㇑" d="M23.75,14.25c0.75,1.25,1.89,3.12,2,4c0.85,6.58,2.42,17.98,3.5,25.25"/>--> <!--<path id="kvg:05190-Kaisho-s2" kvg:type="㇕" d="M25.75,16.34C35.94,15.37,73.5,12.5,78,12c2.78-0.31,5.25,2.91,5,4.25c-1.03,5.45-2.54,17-3.8,23.75"/>--> </g> <g id="kvg:05190-Kaisho-g3" kvg:element="二"> <g id="kvg:05190-Kaisho-g4" kvg:position="top"> <!--<path id="kvg:05190-Kaisho-s3" kvg:type="㇐" d="M34.75,26.65c0.65,0.21,3.08,0.56,3.73,0.48C44,26.5,60.5,24.5,68.22,24c1.09-0.07,3.24,0.45,3.78,0.56"/>--> </g> <g id="kvg:05190-Kaisho-g5" kvg:position="bottom"> <!--<path id="kvg:05190-Kaisho-s4" kvg:type="㇐" d="M35.5,39.56c0.65,0.24,2.74,0.37,3.39,0.38c5.47,0.04,28.15-3.03,30.59-2.86c1.08,0.07,2.48,0.42,3.02,0.54"/>--> </g> </g> </g> <g id="kvg:05190-Kaisho-g6" kvg:element="月" kvg:position="bottom" kvg:radical="tradit"> <!--<path id="kvg:05190-Kaisho-s5" kvg:type="㇒" d="M32.75,50.5c1.03,0.69,1.5,2.72,1.5,3.5c0,5.25,0.39,43.43,0.25,45"/>--> <!--<path id="kvg:05190-Kaisho-s6" kvg:type="㇆a" d="M35.28,52.33c3.04-0.21,32.44-3.41,34.7-3.62c4.05-0.39,5.08,1.94,5.08,3.05c0,2.49-0.08,25.46-0.08,38.8c0,10.69-7.01,2.52-8.03,1.71"/>--> <!--<path id="kvg:05190-Kaisho-s7" kvg:type="㇐a" d="M36.83,64.54c6.2-0.6,12.4-1.17,18.6-1.7c1.66-0.14,3.31-0.28,4.92-0.42"/>--> <!--<path id="kvg:05190-Kaisho-s8" kvg:type="㇐a" d="M35.75,76.71c6.09-0.44,12.68-1,18.76-1.51c1.79-0.15,3.58-0.3,5.34-0.44"/>--> </g> </g> </g> <g id="kvg:StrokeNumbers_05190-Kaisho" style="font-size:8;fill:#808080">         </g> </svg> 