<?xml version="1.0" encoding="UTF-8"?>  <!DOCTYPE svg PUBLIC "-//W3C//DTD SVG 1.0//EN" "http://www.w3.org/TR/2001/REC-SVG-20010904/DTD/svg10.dtd"  <!ATTLIST g xmlns:kvg CDATA #FIXED "http://kanjivg.tagaini.net" kvg:element CDATA #IMPLIED kvg:variant CDATA #IMPLIED kvg:partial CDATA #IMPLIED kvg:original CDATA #IMPLIED kvg:part CDATA #IMPLIED kvg:number CDATA #IMPLIED kvg:tradForm CDATA #IMPLIED kvg:radicalForm CDATA #IMPLIED kvg:position CDATA #IMPLIED kvg:radical CDATA #IMPLIED kvg:phon CDATA #IMPLIED > <!ATTLIST path xmlns:kvg CDATA #FIXED "http://kanjivg.tagaini.net" kvg:type CDATA #IMPLIED >  <svg xmlns="http://www.w3.org/2000/svg" width="109" height="109" viewBox="0 0 109 109"> <g id="kvg:StrokePaths_051cd-Kaisho" style="fill:none;stroke:#000000;stroke-width:3;stroke-linecap:round;stroke-linejoin:round;"> <g id="kvg:051cd-Kaisho" kvg:element="凍"> <g id="kvg:051cd-Kaisho-g1" kvg:element="冫" kvg:original="氷" kvg:position="left" kvg:radical="general"> <g id="kvg:051cd-Kaisho-g2" kvg:position="top"> <!--<path id="kvg:051cd-Kaisho-s1" kvg:type="㇔" d="M15,25.5c3.18,1.5,8.21,6.17,9,8.5"/>--> </g> <g id="kvg:051cd-Kaisho-g3" kvg:position="bottom"> <!--<path id="kvg:051cd-Kaisho-s2" kvg:type="㇀" d="M12.75,85.56c1.75,0.44,3.6,0.07,4.49-1.79c2.58-5.44,5.16-12.08,7.51-19.01"/>--> </g> </g> <g id="kvg:051cd-Kaisho-g4" kvg:element="東" kvg:position="right"> <g id="kvg:051cd-Kaisho-g5" kvg:element="木" kvg:part="1"> <!--<path id="kvg:051cd-Kaisho-s3" kvg:type="㇐" d="M37.62,26.64c0.87,0.4,2.45,0.5,3.31,0.4c11.31-1.29,27.17-5.21,38.53-5.56c1.44-0.04,2.31,0.19,3.03,0.39"/>--> </g> <g id="kvg:051cd-Kaisho-g6" kvg:element="日"> <!--<path id="kvg:051cd-Kaisho-s4" kvg:type="㇑" d="M36.78,39.03c0.36,0.38,1.46,1.55,1.46,2.46c0,0.91,4.64,22.84,4.8,23.75"/>--> <!--<path id="kvg:051cd-Kaisho-s5" kvg:type="㇕a" d="M39.51,40.08c9.99-1.58,38.53-6.23,40.91-6.36c1.99-0.11,3.2,2.77,3.11,3.45c-0.97,7.34-2.26,13.84-4.31,24.9"/>--> <!--<path id="kvg:051cd-Kaisho-s6" kvg:type="㇐a" d="M41.14,51.13c7.15-0.8,14.29-1.74,21.44-2.59c2.22-0.27,4.42-0.53,6.5-0.77"/>--> <!--<path id="kvg:051cd-Kaisho-s7" kvg:type="㇐a" d="M44.11,62.68c7.22-0.49,26.02-3.79,35.01-4.21"/>--> </g> <g id="kvg:051cd-Kaisho-g7" kvg:element="木" kvg:part="2"> <!--<path id="kvg:051cd-Kaisho-s8" kvg:type="㇑" d="M58.3,9.5c1.15,0.53,1.84,2.37,2.07,3.42c0.23,1.05-0.23,76.25-0.23,82.83c0,12.25-5.65,2.5-6.4,1.75"/>--> <!--<path id="kvg:051cd-Kaisho-s9" kvg:type="㇒" d="M58.15,60.53C53.17,71.75,42,87.25,29.91,93.48"/>--> <!--<path id="kvg:051cd-Kaisho-s10" kvg:type="㇏" d="M61.2,60.03c7.7,10.32,23.71,25.94,28.94,29.04c1.79,1.06,3.06,2.06,4.71,2.47"/>--> </g> </g> </g> </g> <g id="kvg:StrokeNumbers_051cd-Kaisho" style="font-size:8;fill:#808080">           </g> </svg> 