<?xml version="1.0" encoding="UTF-8"?>  <!DOCTYPE svg PUBLIC "-//W3C//DTD SVG 1.0//EN" "http://www.w3.org/TR/2001/REC-SVG-20010904/DTD/svg10.dtd"  <!ATTLIST g xmlns:kvg CDATA #FIXED "http://kanjivg.tagaini.net" kvg:element CDATA #IMPLIED kvg:variant CDATA #IMPLIED kvg:partial CDATA #IMPLIED kvg:original CDATA #IMPLIED kvg:part CDATA #IMPLIED kvg:number CDATA #IMPLIED kvg:tradForm CDATA #IMPLIED kvg:radicalForm CDATA #IMPLIED kvg:position CDATA #IMPLIED kvg:radical CDATA #IMPLIED kvg:phon CDATA #IMPLIED > <!ATTLIST path xmlns:kvg CDATA #FIXED "http://kanjivg.tagaini.net" kvg:type CDATA #IMPLIED >  <svg xmlns="http://www.w3.org/2000/svg" width="109" height="109" viewBox="0 0 109 109"> <g id="kvg:StrokePaths_051ea-HzFst" style="fill:none;stroke:#000000;stroke-width:3;stroke-linecap:round;stroke-linejoin:round;"> <g id="kvg:051ea-HzFst" kvg:element="凪"> <g id="kvg:051ea-HzFst-g1" kvg:element="几" kvg:variant="true" kvg:radical="general"> <g id="kvg:051ea-HzFst-g2" kvg:element="丿"> <!--<path id="kvg:051ea-HzFst-s1" kvg:type="㇒" d="M26.3,17.25c0.36,1.85,0.87,3.3,0.87,5.61c0,21.1,0.34,55.64-15.16,71.39"/>--> </g> <!--<path id="kvg:051ea-HzFst-s2" kvg:type="㇈" d="M28,18.25C40,17.75,71.75,15,75.75,15s5.72,0.93,5.5,4.75c-1.5,25.75-1.25,55,10.5,70.75c6.13,8.22,5.75,3.5,6-3"/>--> </g> <g id="kvg:051ea-HzFst-g3" kvg:element="止"> <g id="kvg:051ea-HzFst-g4" kvg:element="卜" kvg:original="ト"> <!--<path id="kvg:051ea-HzFst-s3" kvg:type="㇐" d="M56.74,55.73c6-0.63,9.56-0.9,15.45-1.53c1.46-0.16,1.83-0.21,2.75,0"/>--> <!--<path id="kvg:051ea-HzFst-s4" kvg:type="㇑" d="M54.62,29c0.92,0.42,1.47,1.9,1.65,2.74c0.18,0.84,0,52.04-0.18,57.31"/>--> </g> <!--<path id="kvg:051ea-HzFst-s5" kvg:type="㇑" d="M38.08,52.84c0.92,0.42,1.47,1.9,1.65,2.74c0.18,0.84,0,29.26-0.18,34.53"/>--> <!--<path id="kvg:051ea-HzFst-s6" kvg:type="㇐" d="M25.44,90.37c0.69,0.21,2.54,0.71,4.39,0.63c9.94-0.42,34.73-2.71,47.38-2.71c1.85,0,5.06,0.42,6.11,0.63"/>--> </g> </g> </g> <g id="kvg:StrokeNumbers_051ea-HzFst" style="font-size:8;fill:#808080">       </g> </svg> 