<?xml version="1.0" encoding="UTF-8"?>  <!DOCTYPE svg PUBLIC "-//W3C//DTD SVG 1.0//EN" "http://www.w3.org/TR/2001/REC-SVG-20010904/DTD/svg10.dtd"  <!ATTLIST g xmlns:kvg CDATA #FIXED "http://kanjivg.tagaini.net" kvg:element CDATA #IMPLIED kvg:variant CDATA #IMPLIED kvg:partial CDATA #IMPLIED kvg:original CDATA #IMPLIED kvg:part CDATA #IMPLIED kvg:number CDATA #IMPLIED kvg:tradForm CDATA #IMPLIED kvg:radicalForm CDATA #IMPLIED kvg:position CDATA #IMPLIED kvg:radical CDATA #IMPLIED kvg:phon CDATA #IMPLIED > <!ATTLIST path xmlns:kvg CDATA #FIXED "http://kanjivg.tagaini.net" kvg:type CDATA #IMPLIED >  <svg xmlns="http://www.w3.org/2000/svg" width="109" height="109" viewBox="0 0 109 109"> <g id="kvg:StrokePaths_05224-Kaisho" style="fill:none;stroke:#000000;stroke-width:3;stroke-linecap:round;stroke-linejoin:round;"> <g id="kvg:05224-Kaisho" kvg:element="判"> <g id="kvg:05224-Kaisho-g1" kvg:element="半" kvg:position="left"> <!--<path id="kvg:05224-Kaisho-s1" kvg:type="㇔" d="M18.67,24.33c2.58,2.41,6.67,9.89,7.32,13.63"/>--> <!--<path id="kvg:05224-Kaisho-s2" kvg:type="㇒" d="M56.78,19c0.03,0.39,0.05,1-0.05,1.56c-0.64,3.29-4.8,10.02-9.82,14.44"/>--> <g id="kvg:05224-Kaisho-g2" kvg:element="二" kvg:part="1"> <!--<path id="kvg:05224-Kaisho-s3" kvg:type="㇐" d="M18.58,48.83c1.53,0.68,3.83,0.35,5.42,0.05c7.35-1.38,19.6-3.54,26.76-4.21c1.57-0.15,2.95-0.26,4.47,0.15"/>--> </g> <g id="kvg:05224-Kaisho-g3" kvg:element="十"> <g id="kvg:05224-Kaisho-g4" kvg:element="二" kvg:part="2"> <!--<path id="kvg:05224-Kaisho-s4" kvg:type="㇐" d="M14,67.84c1.93,0.75,4.01,0.46,5.98,0.16c8.59-1.35,26.11-4.49,34.03-5.4c2.14-0.25,4.12-0.3,6.24,0.19"/>--> </g> <!--<path id="kvg:05224-Kaisho-s5" kvg:type="㇒/㇑" d="M37.37,14.25c1.06,1.06,1.21,2.38,1.21,4c0,39.5,1.3,63-8.22,80.75"/>--> </g> </g> <g id="kvg:05224-Kaisho-g5" kvg:element="刂" kvg:variant="true" kvg:original="刀" kvg:position="right" kvg:radical="general"> <!--<path id="kvg:05224-Kaisho-s6" kvg:type="㇑" d="M69.27,25.83c0.98,0.92,1.76,2.54,1.76,5.02c0,11.84-0.01,23.75-0.02,31.27c0,2.82,0,5.02,0,6.38"/>--> <!--<path id="kvg:05224-Kaisho-s7" kvg:type="㇚" d="M90.27,11.83c0.98,0.92,1.76,2.79,1.76,5.02c0,16.65-0.01,67.66-0.01,72.62c0,12.53-7.21,1.5-8.71,0.25"/>--> </g> </g> </g> <g id="kvg:StrokeNumbers_05224-Kaisho" style="font-size:8;fill:#808080">        </g> </svg> 