<?xml version="1.0" encoding="UTF-8"?>  <!DOCTYPE svg PUBLIC "-//W3C//DTD SVG 1.0//EN" "http://www.w3.org/TR/2001/REC-SVG-20010904/DTD/svg10.dtd"  <!ATTLIST g xmlns:kvg CDATA #FIXED "http://kanjivg.tagaini.net" kvg:element CDATA #IMPLIED kvg:variant CDATA #IMPLIED kvg:partial CDATA #IMPLIED kvg:original CDATA #IMPLIED kvg:part CDATA #IMPLIED kvg:number CDATA #IMPLIED kvg:tradForm CDATA #IMPLIED kvg:radicalForm CDATA #IMPLIED kvg:position CDATA #IMPLIED kvg:radical CDATA #IMPLIED kvg:phon CDATA #IMPLIED > <!ATTLIST path xmlns:kvg CDATA #FIXED "http://kanjivg.tagaini.net" kvg:type CDATA #IMPLIED >  <svg xmlns="http://www.w3.org/2000/svg" width="109" height="109" viewBox="0 0 109 109"> <g id="kvg:StrokePaths_05264-KaishoVt6" style="fill:none;stroke:#000000;stroke-width:3;stroke-linecap:round;stroke-linejoin:round;"> <g id="kvg:05264-KaishoVt6" kvg:element="剤"> <g id="kvg:05264-KaishoVt6-g1" kvg:element="斉" kvg:variant="true" kvg:original="齊" kvg:position="left" kvg:radical="nelson"> <g id="kvg:05264-KaishoVt6-g2" kvg:element="文" kvg:variant="true" kvg:position="top"> <g id="kvg:05264-KaishoVt6-g3" kvg:element="亠" kvg:position="top"> <!--<path id="kvg:05264-KaishoVt6-s1" kvg:type="㇑a" d="M35.59,13.5c1.81,0.95,3.75,3.85,4.78,6.48"/>--> <!--<path id="kvg:05264-KaishoVt6-s2" kvg:type="㇐" d="M14.8,27.07c0.89,0.09,2.92,0.56,3.79,0.5c7.25-0.47,32.86-3.96,42.37-4.24c1.47-0.04,2.22,0.04,3.31,0.64"/>--> </g> <g id="kvg:05264-KaishoVt6-g4" kvg:position="bottom"> <!--<path id="kvg:05264-KaishoVt6-s3" kvg:type="㇒" d="M48.56,28.08c-0.06,1.06-0.1,1.94-0.8,2.93c-6.51,9.28-18.74,19.32-33.57,23.59"/>--> <!--<path id="kvg:05264-KaishoVt6-s4" kvg:type="㇔/㇏" d="M25.15,34.49c15.35,1.76,28.12,10.09,36.88,17.08"/>--> </g> </g> <g id="kvg:05264-KaishoVt6-g5" kvg:position="bottom"> <!--<path id="kvg:05264-KaishoVt6-s5" kvg:type="㇒" d="M26.08,52.97c0.51,0.54,1.03,1.56,1.03,2.13c0,3.41-0.26,13.81-0.33,15.04c-0.34,5.83-2.53,18.37-10.2,24.95"/>--> <!--<path id="kvg:05264-KaishoVt6-s6" kvg:type="㇑" d="M52.78,51.81c0.44,0.39,1.17,1.9,1.17,2.68c0,3.08-0.01,38.39-0.06,40.6"/>--> <g id="kvg:05264-KaishoVt6-g6" kvg:element="二"> <g id="kvg:05264-KaishoVt6-g7" kvg:position="top"> <!--<path id="kvg:05264-KaishoVt6-s7" kvg:type="㇐" d="M32.79,61.74c0.75-0.06,1.41-0.11,2-0.17c3.88-0.39,4.99-0.88,9.87-1.3c0.58-0.05,1.15-0.1,1.71-0.14"/>--> </g> <g id="kvg:05264-KaishoVt6-g8" kvg:position="bottom"> <!--<path id="kvg:05264-KaishoVt6-s8" kvg:type="㇐" d="M32.96,73.7c1.25-0.07,2.23-0.15,3.06-0.23c2.71-0.26,3.86-0.57,7.93-1.04c0.59-0.07,1.18-0.13,1.76-0.2"/>--> </g> </g> </g> </g> <g id="kvg:05264-KaishoVt6-g9" kvg:element="刂" kvg:variant="true" kvg:original="刀" kvg:position="right" kvg:radical="tradit"> <!--<path id="kvg:05264-KaishoVt6-s9" kvg:type="㇑" d="M72.27,27.33c0.98,0.92,1.67,1.99,1.76,5.02C74.42,46.91,74,65.04,74,70"/>--> <!--<path id="kvg:05264-KaishoVt6-s10" kvg:type="㇚" d="M88.77,14.33c0.98,0.92,1.67,1.99,1.76,5.02c0.4,14.55-0.26,63.66-0.26,68.62c0,13.14-7.21,1.5-8.71,0.25"/>--> </g> </g> </g> <g id="kvg:StrokeNumbers_05264-KaishoVt6" style="font-size:8;fill:#808080">           </g> </svg> 