<?xml version="1.0" encoding="UTF-8"?>  <!DOCTYPE svg PUBLIC "-//W3C//DTD SVG 1.0//EN" "http://www.w3.org/TR/2001/REC-SVG-20010904/DTD/svg10.dtd"  <!ATTLIST g xmlns:kvg CDATA #FIXED "http://kanjivg.tagaini.net" kvg:element CDATA #IMPLIED kvg:variant CDATA #IMPLIED kvg:partial CDATA #IMPLIED kvg:original CDATA #IMPLIED kvg:part CDATA #IMPLIED kvg:number CDATA #IMPLIED kvg:tradForm CDATA #IMPLIED kvg:radicalForm CDATA #IMPLIED kvg:position CDATA #IMPLIED kvg:radical CDATA #IMPLIED kvg:phon CDATA #IMPLIED > <!ATTLIST path xmlns:kvg CDATA #FIXED "http://kanjivg.tagaini.net" kvg:type CDATA #IMPLIED >  <svg xmlns="http://www.w3.org/2000/svg" width="109" height="109" viewBox="0 0 109 109"> <g id="kvg:StrokePaths_052e4-VtLst" style="fill:none;stroke:#000000;stroke-width:3;stroke-linecap:round;stroke-linejoin:round;"> <g id="kvg:052e4-VtLst" kvg:element="勤"> <g id="kvg:052e4-VtLst-g1" kvg:position="left"> <g id="kvg:052e4-VtLst-g2" kvg:element="艹" kvg:variant="true" kvg:original="艸" kvg:position="top"> <!--<path id="kvg:052e4-VtLst-s1" kvg:type="㇐" d="M13.25,26.27c0.81,0.5,1.76,0.6,2.57,0.5c7.48-0.92,29.46-3.72,38.08-3.79c1.36-0.01,2.17,0.24,2.85,0.49"/>--> <!--<path id="kvg:052e4-VtLst-s2" kvg:type="㇑a" d="M24.06,14.27c0.69,0.48,1.74,1.52,1.84,2.24c0.94,6.73,1.74,15.17,2,17.61"/>--> <!--<path id="kvg:052e4-VtLst-s3" kvg:type="㇑a" d="M44.63,12.62c0.12,0.88,0.52,2.68,0.27,3.86c-1.47,6.94-2.14,10.4-3.74,16.93"/>--> </g> <g id="kvg:052e4-VtLst-g3" kvg:position="bottom"> <!--<path id="kvg:052e4-VtLst-s4" kvg:type="㇑" d="M15.75,39.77c0.38,0.3,0.77,0.54,0.94,0.91c1.32,2.93,2.4,11.02,3.3,16.28"/>--> <!--<path id="kvg:052e4-VtLst-s5" kvg:type="㇕" d="M18.12,41.27c9.31-1.23,26.88-2.84,31.67-3.26c1.76-0.15,2.81,1.53,2.56,2.42c-1.04,3.69-1.73,6.37-3.96,11.69"/>--> <!--<path id="kvg:052e4-VtLst-s6" kvg:type="㇐" d="M20.36,55.02c5.64-0.47,22.63-2.47,29.79-2.94"/>--> <g id="kvg:052e4-VtLst-g4" kvg:element="三"> <g id="kvg:052e4-VtLst-g5" kvg:element="一" kvg:position="top"> <!--<path id="kvg:052e4-VtLst-s7" kvg:type="㇐" d="M20,65.56c0.53,0.19,2.15,0.22,2.69,0.19c4.9-0.34,16.06-1.99,23.45-2.96c0.88-0.12,2.42,0.09,2.87,0.18"/>--> </g> <g id="kvg:052e4-VtLst-g6" kvg:position="bottom"> <g id="kvg:052e4-VtLst-g7" kvg:element="一"> <!--<path id="kvg:052e4-VtLst-s8" kvg:type="㇐" d="M19.25,75.81c0.53,0.19,3.15,0.2,3.69,0.19C30,75.75,36.75,74,44.88,72.53c0.87-0.16,2.42,0.09,2.87,0.18"/>--> </g> <g id="kvg:052e4-VtLst-g8" kvg:element="一"> <!--<path id="kvg:052e4-VtLst-s9" kvg:type="㇐" d="M16.5,89.2c0.5,1.05,1.97,1.34,4.44,0.62c6.86-2,19.2-5.57,26.06-7.57"/>--> </g> <!--<path id="kvg:052e4-VtLst-s10" kvg:type="㇑" d="M32.87,42.25c1.09,0.5,1.74,2.25,1.96,3.25c0.22,1,0,33.75-0.22,40"/>--> </g> </g> </g> </g> <g id="kvg:052e4-VtLst-g9" kvg:element="力" kvg:position="right" kvg:radical="general"> <!--<path id="kvg:052e4-VtLst-s11" kvg:type="㇆" d="M59.75,40.35c1.07,0.68,2.41,0.49,3.36,0.37c9.39-1.22,22.03-2.93,26.28-3.63c2.76-0.45,4.61,1.41,4.37,5.22c-0.52,8.38-8.51,41.95-13.57,47.86c-4.89,5.71-6.24,0.31-7.36-0.68"/>--> <!--<path id="kvg:052e4-VtLst-s12" kvg:type="㇒" d="M75.93,17.18c0.08,1.75,0.19,4.54-0.16,7.04c-2.57,18.59-9.52,49.53-27.38,67.43"/>--> </g> </g> </g> <g id="kvg:StrokeNumbers_052e4-VtLst" style="font-size:8;fill:#808080">             </g> </svg> 