<?xml version="1.0" encoding="UTF-8"?>  <!DOCTYPE svg PUBLIC "-//W3C//DTD SVG 1.0//EN" "http://www.w3.org/TR/2001/REC-SVG-20010904/DTD/svg10.dtd"  <!ATTLIST g xmlns:kvg CDATA #FIXED "http://kanjivg.tagaini.net" kvg:element CDATA #IMPLIED kvg:variant CDATA #IMPLIED kvg:partial CDATA #IMPLIED kvg:original CDATA #IMPLIED kvg:part CDATA #IMPLIED kvg:number CDATA #IMPLIED kvg:tradForm CDATA #IMPLIED kvg:radicalForm CDATA #IMPLIED kvg:position CDATA #IMPLIED kvg:radical CDATA #IMPLIED kvg:phon CDATA #IMPLIED > <!ATTLIST path xmlns:kvg CDATA #FIXED "http://kanjivg.tagaini.net" kvg:type CDATA #IMPLIED >  <svg xmlns="http://www.w3.org/2000/svg" width="109" height="109" viewBox="0 0 109 109"> <g id="kvg:StrokePaths_05351-Kaisho" style="fill:none;stroke:#000000;stroke-width:3;stroke-linecap:round;stroke-linejoin:round;"> <g id="kvg:05351-Kaisho" kvg:element="卑"> <g id="kvg:05351-Kaisho-g1" kvg:position="top"> <g id="kvg:05351-Kaisho-g2" kvg:element="丿" kvg:radical="nelson"> <!--<path id="kvg:05351-Kaisho-s1" kvg:type="㇒" d="M51.28,10.64c0.02,0.26,0.05,0.67-0.05,1.05c-0.56,2.21-3.78,7.06-8.18,10.03"/>--> </g> <g id="kvg:05351-Kaisho-g3" kvg:element="田"> <!--<path id="kvg:05351-Kaisho-s2" kvg:type="㇑" d="M28.74,23.98c0.36,0.5,0.37,0.85,0.57,1.48c1.65,5.19,3.2,19.81,4.22,29.5"/>--> <!--<path id="kvg:05351-Kaisho-s3" kvg:type="㇕a" d="M30.45,24.67c12.77-1.31,35.65-4.03,45.19-5.12c3.5-0.4,4.86,0.7,4.61,3.45c-0.48,5.26-2.79,19-4.39,27.75"/>--> <!--<path id="kvg:05351-Kaisho-s4" kvg:type="㇑a" d="M51.95,23.25c1.05,1.25,1.58,1.42,1.62,2.24c0.3,7.35,0.11,19.71,0.11,23.76"/>--> <!--<path id="kvg:05351-Kaisho-s5" kvg:type="㇐a" d="M32.83,38.11c9.89-1.21,19.84-2.1,29.75-3.1c1.19-0.12,2.35-0.23,3.46-0.34"/>--> <!--<path id="kvg:05351-Kaisho-s6" kvg:type="㇐a" d="M34.2,52.04c9.19-0.56,28.97-2.88,41.67-3.79"/>--> </g> </g> <g id="kvg:05351-Kaisho-g4" kvg:position="bottom"> <g id="kvg:05351-Kaisho-g5" kvg:element="丿"> <!--<path id="kvg:05351-Kaisho-s7" kvg:type="㇒" d="M45.97,53.93c0.03,0.46,0.2,1.23-0.06,1.85C44,60.25,40,67,34.76,73.5"/>--> </g> <g id="kvg:05351-Kaisho-g6" kvg:element="十" kvg:radical="tradit"> <!--<path id="kvg:05351-Kaisho-s8" kvg:type="㇐" d="M15.25,75.5c1.01,0.39,3.71,1.44,6.39,1.16c18.11-1.91,50.61-5.91,67.81-6.28c2.69-0.06,4.86,0.11,6.55,0.5"/>--> <!--<path id="kvg:05351-Kaisho-s9" kvg:type="㇑" d="M62.37,54.25c1.09,0.5,1.74,2.25,1.96,3.25c0.22,1,0,36.25-0.22,42.5"/>--> </g> </g> </g> </g> <g id="kvg:StrokeNumbers_05351-Kaisho" style="font-size:8;fill:#808080">          </g> </svg> 