<?xml version="1.0" encoding="UTF-8"?>  <!DOCTYPE svg PUBLIC "-//W3C//DTD SVG 1.0//EN" "http://www.w3.org/TR/2001/REC-SVG-20010904/DTD/svg10.dtd"  <!ATTLIST g xmlns:kvg CDATA #FIXED "http://kanjivg.tagaini.net" kvg:element CDATA #IMPLIED kvg:variant CDATA #IMPLIED kvg:partial CDATA #IMPLIED kvg:original CDATA #IMPLIED kvg:part CDATA #IMPLIED kvg:number CDATA #IMPLIED kvg:tradForm CDATA #IMPLIED kvg:radicalForm CDATA #IMPLIED kvg:position CDATA #IMPLIED kvg:radical CDATA #IMPLIED kvg:phon CDATA #IMPLIED > <!ATTLIST path xmlns:kvg CDATA #FIXED "http://kanjivg.tagaini.net" kvg:type CDATA #IMPLIED >  <svg xmlns="http://www.w3.org/2000/svg" width="109" height="109" viewBox="0 0 109 109"> <g id="kvg:StrokePaths_05353-KaishoHzFst" style="fill:none;stroke:#000000;stroke-width:3;stroke-linecap:round;stroke-linejoin:round;"> <g id="kvg:05353-KaishoHzFst" kvg:element="卓"> <g id="kvg:05353-KaishoHzFst-g1" kvg:element="卜" kvg:original="ト" kvg:position="top" kvg:radical="nelson"> <!--<path id="kvg:05353-KaishoHzFst-s1" kvg:type="㇐" d="M55.25,24.5c2,0,11.67-1.86,17.5-2.77c2.09-0.33,3.01-0.15,4.25-0.23"/>--> <!--<path id="kvg:05353-KaishoHzFst-s2" kvg:type="㇑" d="M51.81,10.88c0.76,0.33,2.36,2.46,2.51,3.12c0.15,0.66,0.4,16.03,0.25,20.13"/>--> </g> <g id="kvg:05353-KaishoHzFst-g2" kvg:element="早" kvg:position="bottom"> <g id="kvg:05353-KaishoHzFst-g3" kvg:element="日" kvg:position="top"> <!--<path id="kvg:05353-KaishoHzFst-s3" kvg:type="㇑" d="M33.66,35.53c0.73,1.22,1.72,1.61,1.95,3.25c0.64,4.47,2.89,19.97,2.92,23.72"/>--> <!--<path id="kvg:05353-KaishoHzFst-s4" kvg:type="㇕a" d="M36.55,37.03c4.17-0.2,35.93-4.55,39.7-4.04c1.49,0.2,2.93,1.8,2.35,3.86c-1.08,3.85-2.25,15.72-4.2,22.61"/>--> <!--<path id="kvg:05353-KaishoHzFst-s5" kvg:type="㇐a" d="M37.39,48.2c6.62-0.42,13.22-1.06,19.83-1.59c2.02-0.16,4.04-0.32,5.98-0.47"/>--> <!--<path id="kvg:05353-KaishoHzFst-s6" kvg:type="㇐a" d="M39.26,60.27c10.24-0.77,29.51-2.44,34.72-2.44"/>--> </g> <g id="kvg:05353-KaishoHzFst-g4" kvg:element="十" kvg:position="bottom" kvg:radical="tradit"> <!--<path id="kvg:05353-KaishoHzFst-s7" kvg:type="㇐" d="M16.13,76.41c1.47,0.48,4.18,0.61,5.64,0.48c12.73-1.13,55.98-4.63,67.96-4.59c2.45,0.01,3.92,0.23,5.15,0.47"/>--> <!--<path id="kvg:05353-KaishoHzFst-s8" kvg:type="㇑" d="M54.73,60.25c0.44,0.55,1.38,4.13,1.47,5.24c0.09,1.1-0.06,27.12-0.15,34.01"/>--> </g> </g> </g> </g> <g id="kvg:StrokeNumbers_05353-KaishoHzFst" style="font-size:8;fill:#808080">         </g> </svg> 