<?xml version="1.0" encoding="UTF-8"?>  <!DOCTYPE svg PUBLIC "-//W3C//DTD SVG 1.0//EN" "http://www.w3.org/TR/2001/REC-SVG-20010904/DTD/svg10.dtd"  <!ATTLIST g xmlns:kvg CDATA #FIXED "http://kanjivg.tagaini.net" kvg:element CDATA #IMPLIED kvg:variant CDATA #IMPLIED kvg:partial CDATA #IMPLIED kvg:original CDATA #IMPLIED kvg:part CDATA #IMPLIED kvg:number CDATA #IMPLIED kvg:tradForm CDATA #IMPLIED kvg:radicalForm CDATA #IMPLIED kvg:position CDATA #IMPLIED kvg:radical CDATA #IMPLIED kvg:phon CDATA #IMPLIED > <!ATTLIST path xmlns:kvg CDATA #FIXED "http://kanjivg.tagaini.net" kvg:type CDATA #IMPLIED >  <svg xmlns="http://www.w3.org/2000/svg" width="109" height="109" viewBox="0 0 109 109"> <g id="kvg:StrokePaths_05360-HzFst" style="fill:none;stroke:#000000;stroke-width:3;stroke-linecap:round;stroke-linejoin:round;"> <g id="kvg:05360-HzFst" kvg:element="占"> <g id="kvg:05360-HzFst-g1" kvg:element="卜" kvg:variant="true" kvg:original="ト" kvg:position="top" kvg:radical="general"> <!--<path id="kvg:05360-HzFst-s1" kvg:type="㇑" d="M55.25,34.5c9-0.75,19-2.75,20.25-2.75s3.5,0,4.5,0.25"/>--> <!--<path id="kvg:05360-HzFst-s2" kvg:type="㇐" d="M51.81,14.13c0.76,0.45,2.36,3.35,2.51,4.25c0.15,0.9-0.1,36.15-0.25,41.75"/>--> </g> <g id="kvg:05360-HzFst-g2" kvg:element="口" kvg:position="bottom"> <!--<path id="kvg:05360-HzFst-s3" kvg:type="㇑" d="M29.16,62.76c0.56,0.55,1.13,1.01,1.37,1.69c1.93,5.44,4.23,20.44,5.55,30.21"/>--> <!--<path id="kvg:05360-HzFst-s4" kvg:type="㇕b" d="M31.62,64.12c13.61-2.28,39.29-4.28,46.31-5.05c2.57-0.28,4.11,2.83,3.74,4.49c-1.52,6.85-3.42,14.43-5.51,23.12"/>--> <!--<path id="kvg:05360-HzFst-s5" kvg:type="㇐b" d="M36.63,91.06c8.24-0.87,31.63-2.65,42.09-3.52"/>--> </g> </g> </g> <g id="kvg:StrokeNumbers_05360-HzFst" style="font-size:8;fill:#808080">      </g> </svg> 