<?xml version="1.0" encoding="UTF-8"?>  <!DOCTYPE svg PUBLIC "-//W3C//DTD SVG 1.0//EN" "http://www.w3.org/TR/2001/REC-SVG-20010904/DTD/svg10.dtd"  <!ATTLIST g xmlns:kvg CDATA #FIXED "http://kanjivg.tagaini.net" kvg:element CDATA #IMPLIED kvg:variant CDATA #IMPLIED kvg:partial CDATA #IMPLIED kvg:original CDATA #IMPLIED kvg:part CDATA #IMPLIED kvg:number CDATA #IMPLIED kvg:tradForm CDATA #IMPLIED kvg:radicalForm CDATA #IMPLIED kvg:position CDATA #IMPLIED kvg:radical CDATA #IMPLIED kvg:phon CDATA #IMPLIED > <!ATTLIST path xmlns:kvg CDATA #FIXED "http://kanjivg.tagaini.net" kvg:type CDATA #IMPLIED >  <svg xmlns="http://www.w3.org/2000/svg" width="109" height="109" viewBox="0 0 109 109"> <g id="kvg:StrokePaths_053e1-Kaisho" style="fill:none;stroke:#000000;stroke-width:3;stroke-linecap:round;stroke-linejoin:round;"> <g id="kvg:053e1-Kaisho" kvg:element="叡"> <g id="kvg:053e1-Kaisho-g1" kvg:element="睿" kvg:position="left"> <g id="kvg:053e1-Kaisho-g2" kvg:position="top"> <g id="kvg:053e1-Kaisho-g3" kvg:element="卜" kvg:original="ト"> <!--<path id="kvg:053e1-Kaisho-s1" kvg:type="㇑" d="M30.8,13.25c0.75,0.44,1.36,1.96,1.36,2.87c0,4.63,0.2,10.6,0.2,13.03"/>--> <!--<path id="kvg:053e1-Kaisho-s2" kvg:type="㇔" d="M32.54,21.26c5.79-0.44,9.21-2.1,14.39-2.32c1.21-0.05,1.51-0.22,2.26,0"/>--> </g> <g id="kvg:053e1-Kaisho-g4" kvg:element="冖"> <!--<path id="kvg:053e1-Kaisho-s3" kvg:type="㇔" d="M16.3,29.62c-0.08,3.13-1.94,11.32-2.61,13.19"/>--> <!--<path id="kvg:053e1-Kaisho-s4" kvg:type="㇖b" d="M16.78,30.8c1.73,0,23.9-2.87,32.58-2.87c5.91,0,1.87,4.4-0.34,7.26"/>--> </g> <!--<path id="kvg:053e1-Kaisho-s5" kvg:type="㇐" d="M21.52,37.63c0.59,0.21,1.68,0.18,2.28,0.21c3.78,0.18,12.64-2.94,16.31-2.7c0.99,0.07,1.59,0.1,2.08,0.21"/>--> <!--<path id="kvg:053e1-Kaisho-s6" kvg:type="㇒" d="M24.53,42.77c0.03,0.32,0.06,0.84-0.06,1.3c-0.71,2.75-4.81,8.77-10.43,12.47"/>--> <!--<path id="kvg:053e1-Kaisho-s7" kvg:type="㇏" d="M40.26,40.73c3.53,1.13,9.11,4.64,9.99,6.4"/>--> <!--<path id="kvg:053e1-Kaisho-s8" kvg:type="㇒" d="M33.02,45.83c0.06,0.58,0.31,1.57-0.12,2.33c-3.65,6.34-9.65,15.09-21.03,22.26"/>--> <!--<path id="kvg:053e1-Kaisho-s9" kvg:type="㇔/㇏" d="M35.21,49c5.29,2.25,11.54,5.75,15.48,10.55"/>--> </g> <g id="kvg:053e1-Kaisho-g5" kvg:element="目" kvg:position="bottom"> <!--<path id="kvg:053e1-Kaisho-s10" kvg:type="㇑" d="M23.25,63.39c0.36,0.66,0.88,1.99,0.88,2.87s-0.24,26.65-0.24,27.09"/>--> <!--<path id="kvg:053e1-Kaisho-s11" kvg:type="㇕a" d="M24.02,64.6c2.03-0.11,17.38-2.42,19.24-2.55c1.54-0.11,2.63,0.53,2.63,2.48c0,1.06,0.06,26.26-0.06,26.91"/>--> <!--<path id="kvg:053e1-Kaisho-s12" kvg:type="㇐a" d="M24.69,73.1c3.53-0.31,7.06-0.6,10.6-0.86c0.99-0.07,1.97-0.15,2.91-0.21"/>--> <!--<path id="kvg:053e1-Kaisho-s13" kvg:type="㇐a" d="M24.53,81.51c3.56-0.17,7.11-0.44,10.66-0.7c0.96-0.07,1.92-0.14,2.87-0.2"/>--> <!--<path id="kvg:053e1-Kaisho-s14" kvg:type="㇐a" d="M24.19,91.1c4.75-0.26,16.19-1.41,21.41-1.41"/>--> </g> </g> <g id="kvg:053e1-Kaisho-g6" kvg:element="又" kvg:position="right" kvg:radical="general"> <!--<path id="kvg:053e1-Kaisho-s15" kvg:type="㇇" d="M58.29,25.75c1.33,0.5,1.44,1.03,4.14,0.5c3.82-0.75,18.06-4.23,20.01-4.5c1.81-0.25,3.64,1.25,2.98,4c-7.78,32.5-15.17,54-33.42,67.5"/>--> <!--<path id="kvg:053e1-Kaisho-s16" kvg:type="㇏" d="M58.98,36.75c3.45,1.36,8.02,24.75,31.8,51.84c1.97,2.24,4.23,4.38,5.97,5.16"/>--> </g> </g> </g> <g id="kvg:StrokeNumbers_053e1-Kaisho" style="font-size:8;fill:#808080">                 </g> </svg> 