<?xml version="1.0" encoding="UTF-8"?>  <!DOCTYPE svg PUBLIC "-//W3C//DTD SVG 1.0//EN" "http://www.w3.org/TR/2001/REC-SVG-20010904/DTD/svg10.dtd"  <!ATTLIST g xmlns:kvg CDATA #FIXED "http://kanjivg.tagaini.net" kvg:element CDATA #IMPLIED kvg:variant CDATA #IMPLIED kvg:partial CDATA #IMPLIED kvg:original CDATA #IMPLIED kvg:part CDATA #IMPLIED kvg:number CDATA #IMPLIED kvg:tradForm CDATA #IMPLIED kvg:radicalForm CDATA #IMPLIED kvg:position CDATA #IMPLIED kvg:radical CDATA #IMPLIED kvg:phon CDATA #IMPLIED > <!ATTLIST path xmlns:kvg CDATA #FIXED "http://kanjivg.tagaini.net" kvg:type CDATA #IMPLIED >  <svg xmlns="http://www.w3.org/2000/svg" width="109" height="109" viewBox="0 0 109 109"> <g id="kvg:StrokePaths_05473-Kaisho" style="fill:none;stroke:#000000;stroke-width:3;stroke-linecap:round;stroke-linejoin:round;"> <g id="kvg:05473-Kaisho" kvg:element="味"> <g id="kvg:05473-Kaisho-g1" kvg:element="口" kvg:position="left" kvg:radical="general"> <!--<path id="kvg:05473-Kaisho-s1" kvg:type="㇑" d="M11.21,35.83c0.28,0.85,0.61,1.43,0.71,2.08c0.7,4.69,1.55,16.25,2.53,25.13"/>--> <!--<path id="kvg:05473-Kaisho-s2" kvg:type="㇕b" d="M12.64,37.62c5.39-0.85,17.34-3.03,21.01-3.16c1.52-0.06,2.5,1.28,2.21,2.5c-1.04,4.34-2.69,12.89-3.28,19.62"/>--> <!--<path id="kvg:05473-Kaisho-s3" kvg:type="㇐b" d="M14.17,58.88c3.98,0,14.59-1.54,20.09-1.66"/>--> </g> <g id="kvg:05473-Kaisho-g2" kvg:element="未" kvg:position="right"> <!--<path id="kvg:05473-Kaisho-s4" kvg:type="㇐" d="M45.56,33.52c0.8,0.28,2.27,0.31,3.07,0.28c8.34-0.32,20.61-3.05,30.03-3.73c1.33-0.1,2.14,0.13,2.81,0.27"/>--> <g id="kvg:05473-Kaisho-g3" kvg:element="木"> <!--<path id="kvg:05473-Kaisho-s5" kvg:type="㇐" d="M40.13,51.5c0.81,0.25,2.7,0.5,4.87,0.5c6.5,0,27.45-3.5,42.33-4.75c2.16-0.18,2.71-0.25,4.06,0"/>--> <!--<path id="kvg:05473-Kaisho-s6" kvg:type="㇑" d="M61.18,11.25c1.35,0.5,2.16,2.25,2.43,3.25s-0.27,78.72-0.27,80c0,10.75-5.72,1.88-6.84,0.75"/>--> <!--<path id="kvg:05473-Kaisho-s7" kvg:type="㇒" d="M60.72,52.25c-6.08,11.07-21.07,26.73-33.72,33"/>--> <!--<path id="kvg:05473-Kaisho-s8" kvg:type="㇏" d="M65.28,51.25c4.55,6.64,21.25,23.94,28.03,29.49c1.69,1.39,3.05,2.09,4.69,2.51"/>--> </g> </g> </g> </g> <g id="kvg:StrokeNumbers_05473-Kaisho" style="font-size:8;fill:#808080">         </g> </svg> 