<?xml version="1.0" encoding="UTF-8"?>  <!DOCTYPE svg PUBLIC "-//W3C//DTD SVG 1.0//EN" "http://www.w3.org/TR/2001/REC-SVG-20010904/DTD/svg10.dtd"  <!ATTLIST g xmlns:kvg CDATA #FIXED "http://kanjivg.tagaini.net" kvg:element CDATA #IMPLIED kvg:variant CDATA #IMPLIED kvg:partial CDATA #IMPLIED kvg:original CDATA #IMPLIED kvg:part CDATA #IMPLIED kvg:number CDATA #IMPLIED kvg:tradForm CDATA #IMPLIED kvg:radicalForm CDATA #IMPLIED kvg:position CDATA #IMPLIED kvg:radical CDATA #IMPLIED kvg:phon CDATA #IMPLIED > <!ATTLIST path xmlns:kvg CDATA #FIXED "http://kanjivg.tagaini.net" kvg:type CDATA #IMPLIED >  <svg xmlns="http://www.w3.org/2000/svg" width="109" height="109" viewBox="0 0 109 109"> <g id="kvg:StrokePaths_054e8-HyougaiKaisho" style="fill:none;stroke:#000000;stroke-width:3;stroke-linecap:round;stroke-linejoin:round;"> <g id="kvg:054e8-HyougaiKaisho" kvg:element="哨"> <g id="kvg:054e8-HyougaiKaisho-g1" kvg:element="口" kvg:position="left" kvg:radical="general"> <!--<path id="kvg:054e8-HyougaiKaisho-s1" kvg:type="㇑" d="M14.25,34.06c0.37,0.45,0.76,0.82,0.92,1.38c1.29,4.42,2.84,16.62,3.73,24.56"/>--> <!--<path id="kvg:054e8-HyougaiKaisho-s2" kvg:type="㇕b" d="M16.08,36.68c9.42-1.94,15.55-3.11,19.92-3.69c1.6-0.21,2.56,1.26,2.33,2.51c-0.95,5.17-2.05,13.15-3.46,20.3"/>--> <!--<path id="kvg:054e8-HyougaiKaisho-s3" kvg:type="㇐b" d="M19.07,57.86c5.14-0.66,11.33-0.42,18.39-1.43"/>--> </g> <g id="kvg:054e8-HyougaiKaisho-g2" kvg:element="肖" kvg:position="right"> <g id="kvg:054e8-HyougaiKaisho-g3" kvg:element="⺌" kvg:variant="true" kvg:original="小" kvg:position="top"> <!--<path id="kvg:054e8-HyougaiKaisho-s4" kvg:type="㇑a" d="M68.91,12c0.12,0.38,1.81,1.95,1.81,4.34c0,8.16,0.1,22.51,0.1,26.41"/>--> <!--<path id="kvg:054e8-HyougaiKaisho-s5" kvg:type="㇔" d="M46.31,20.83c4.28,3.32,9.67,11.32,10.74,16.49"/>--> <!--<path id="kvg:054e8-HyougaiKaisho-s6" kvg:type="㇒" d="M92.95,15.85c0.04,0.6,0.08,1.55-0.08,2.42c-0.95,5.1-5.54,13.12-10.72,18.75"/>--> </g> <g id="kvg:054e8-HyougaiKaisho-g4" kvg:element="月" kvg:position="bottom"> <!--<path id="kvg:054e8-HyougaiKaisho-s7" kvg:type="㇑/㇒" d="M52.07,44.44c0.68,0.93,1.12,1.85,1.35,2.78c0.22,0.93,0.32,49.02,0.22,51.1"/>--> <!--<path id="kvg:054e8-HyougaiKaisho-s8" kvg:type="㇆a" d="M54.77,45.37c2.7-0.23,30.02-3.18,32.03-3.44c3.6-0.46,4.5,2.94,4.5,4.4c0,9.99-0.67,27.9-0.67,46.67c0,11.25-5.57,1.58-7.6-0.04"/>--> <!--<path id="kvg:054e8-HyougaiKaisho-s9" kvg:type="㇐a" d="M53.77,59.19c6.24-0.94,12.58-1.26,18.87-1.65c1.76-0.11,3.52-0.21,5.23-0.31"/>--> <!--<path id="kvg:054e8-HyougaiKaisho-s10" kvg:type="㇐a" d="M54.09,73.36c5.96-0.58,11.95-0.88,17.92-1.23c1.81-0.11,3.62-0.21,5.4-0.31"/>--> </g> </g> </g> </g> <g id="kvg:StrokeNumbers_054e8-HyougaiKaisho" style="font-size:8;fill:#808080">           </g> </svg> 