<?xml version="1.0" encoding="UTF-8"?>  <!DOCTYPE svg PUBLIC "-//W3C//DTD SVG 1.0//EN" "http://www.w3.org/TR/2001/REC-SVG-20010904/DTD/svg10.dtd"  <!ATTLIST g xmlns:kvg CDATA #FIXED "http://kanjivg.tagaini.net" kvg:element CDATA #IMPLIED kvg:variant CDATA #IMPLIED kvg:partial CDATA #IMPLIED kvg:original CDATA #IMPLIED kvg:part CDATA #IMPLIED kvg:number CDATA #IMPLIED kvg:tradForm CDATA #IMPLIED kvg:radicalForm CDATA #IMPLIED kvg:position CDATA #IMPLIED kvg:radical CDATA #IMPLIED kvg:phon CDATA #IMPLIED > <!ATTLIST path xmlns:kvg CDATA #FIXED "http://kanjivg.tagaini.net" kvg:type CDATA #IMPLIED >  <svg xmlns="http://www.w3.org/2000/svg" width="109" height="109" viewBox="0 0 109 109"> <g id="kvg:StrokePaths_056f0-Kaisho" style="fill:none;stroke:#000000;stroke-width:3;stroke-linecap:round;stroke-linejoin:round;"> <g id="kvg:056f0-Kaisho" kvg:element="困"> <g id="kvg:056f0-Kaisho-g1" kvg:element="囗" kvg:part="1" kvg:radical="general"> <!--<path id="kvg:056f0-Kaisho-s1" kvg:type="㇑" d="M18.75,16.32c0.75,1.43,1.84,2.51,1.86,4.41C20.75,35,20.75,68.75,20.3,96"/>--> <!--<path id="kvg:056f0-Kaisho-s2" kvg:type="㇕a" d="M22.23,18.65C40.25,17,74.18,13.5,86.25,13.5c2.75,0,3.55,2.49,3.5,5.5c-0.25,15.75-1,52.25-0.5,74.5"/>--> </g> <g id="kvg:056f0-Kaisho-g2" kvg:element="木" kvg:variant="true"> <!--<path id="kvg:056f0-Kaisho-s3" kvg:type="㇐" d="M30.73,41.17c1.31,0.43,2.8,0.49,4.32,0.43c8.21-0.35,28.71-2.85,39.54-3.96c1.5-0.15,2.06-0.11,3.19,0"/>--> <!--<path id="kvg:056f0-Kaisho-s4" kvg:type="㇚/㇑" d="M52.87,22c0.94,0.38,1.5,1.69,1.69,2.44c0.19,0.75-0.19,56.17-0.19,55.81c0,10-4.75,1.88-5.87,0.75"/>--> <!--<path id="kvg:056f0-Kaisho-s5" kvg:type="㇒" d="M53.25,41.52c-4.04,10.67-14.87,26.99-23.28,33.03"/>--> <!--<path id="kvg:056f0-Kaisho-s6" kvg:type="㇔/㇏" d="M58.81,49.83c6.69,4.81,15.68,16.58,18.8,21.86"/>--> </g> <g id="kvg:056f0-Kaisho-g3" kvg:element="囗" kvg:part="2" kvg:radical="general"> <!--<path id="kvg:056f0-Kaisho-s7" kvg:type="㇐a" d="M21.25,93.01c13.07,0,49.96-2.1,68-2.51"/>--> </g> </g> </g> <g id="kvg:StrokeNumbers_056f0-Kaisho" style="font-size:8;fill:#808080">        </g> </svg> 