<?xml version="1.0" encoding="UTF-8"?>  <!DOCTYPE svg PUBLIC "-//W3C//DTD SVG 1.0//EN" "http://www.w3.org/TR/2001/REC-SVG-20010904/DTD/svg10.dtd"  <!ATTLIST g xmlns:kvg CDATA #FIXED "http://kanjivg.tagaini.net" kvg:element CDATA #IMPLIED kvg:variant CDATA #IMPLIED kvg:partial CDATA #IMPLIED kvg:original CDATA #IMPLIED kvg:part CDATA #IMPLIED kvg:number CDATA #IMPLIED kvg:tradForm CDATA #IMPLIED kvg:radicalForm CDATA #IMPLIED kvg:position CDATA #IMPLIED kvg:radical CDATA #IMPLIED kvg:phon CDATA #IMPLIED > <!ATTLIST path xmlns:kvg CDATA #FIXED "http://kanjivg.tagaini.net" kvg:type CDATA #IMPLIED >  <svg xmlns="http://www.w3.org/2000/svg" width="109" height="109" viewBox="0 0 109 109"> <g id="kvg:StrokePaths_05764-Kaisho" style="fill:none;stroke:#000000;stroke-width:3;stroke-linecap:round;stroke-linejoin:round;"> <g id="kvg:05764-Kaisho" kvg:element="坤"> <g id="kvg:05764-Kaisho-g1" kvg:element="土" kvg:variant="true" kvg:position="left" kvg:radical="general"> <!--<path id="kvg:05764-Kaisho-s1" kvg:type="㇐" d="M13.5,48.14c0.76,0.38,2.24,0.4,3,0.36c5.25-0.25,17.65-2.89,23-3.5c1.25-0.14,2.62-0.18,3.25,0.01"/>--> <!--<path id="kvg:05764-Kaisho-s2" kvg:type="㇑a" d="M27.12,20.5c1.09,0.5,1.74,2.25,1.96,3.25c0.22,1,0.5,43.25,0.28,49.5"/>--> <!--<path id="kvg:05764-Kaisho-s3" kvg:type="㇀/㇐" d="M13.25,80.27c1.5,0.73,3.04,1,5.57-0.29c7.05-3.58,14.38-6.9,21.43-10.48"/>--> </g> <g id="kvg:05764-Kaisho-g2" kvg:element="申" kvg:position="right"> <g id="kvg:05764-Kaisho-g3" kvg:element="田" kvg:partial="true"> <!--<path id="kvg:05764-Kaisho-s4" kvg:type="㇑" d="M48.75,32.99c0.31,0.61,1.31,3.01,1.48,3.76c1.36,6.16,2.43,21.29,3.22,32.63"/>--> <!--<path id="kvg:05764-Kaisho-s5" kvg:type="㇕a" d="M50.69,34.92c15.06-2.17,31.01-3.48,39.06-4.08c2.96-0.22,4.47,1.56,4.31,3.21c-0.59,6.05-1.81,19.2-3.94,33.29"/>--> <!--<path id="kvg:05764-Kaisho-s6" kvg:type="㇐a" d="M52.46,50.22c8.96-0.76,17.93-1.44,26.9-2.11c1.08-0.08,2.13-0.16,3.14-0.23"/>--> <!--<path id="kvg:05764-Kaisho-s7" kvg:type="㇐a" d="M54.01,67.03c9.99-0.78,23.74-2.28,35.54-2.85"/>--> </g> <g id="kvg:05764-Kaisho-g4" kvg:element="丨"> <!--<path id="kvg:05764-Kaisho-s8" kvg:type="㇑" d="M68.37,11.75c1.09,0.5,1.74,2.25,1.96,3.25c0.22,1-0.22,69.5-0.22,84"/>--> </g> </g> </g> </g> <g id="kvg:StrokeNumbers_05764-Kaisho" style="font-size:8;fill:#808080">         </g> </svg> 