<?xml version="1.0" encoding="UTF-8"?>  <!DOCTYPE svg PUBLIC "-//W3C//DTD SVG 1.0//EN" "http://www.w3.org/TR/2001/REC-SVG-20010904/DTD/svg10.dtd"  <!ATTLIST g xmlns:kvg CDATA #FIXED "http://kanjivg.tagaini.net" kvg:element CDATA #IMPLIED kvg:variant CDATA #IMPLIED kvg:partial CDATA #IMPLIED kvg:original CDATA #IMPLIED kvg:part CDATA #IMPLIED kvg:number CDATA #IMPLIED kvg:tradForm CDATA #IMPLIED kvg:radicalForm CDATA #IMPLIED kvg:position CDATA #IMPLIED kvg:radical CDATA #IMPLIED kvg:phon CDATA #IMPLIED > <!ATTLIST path xmlns:kvg CDATA #FIXED "http://kanjivg.tagaini.net" kvg:type CDATA #IMPLIED >  <svg xmlns="http://www.w3.org/2000/svg" width="109" height="109" viewBox="0 0 109 109"> <g id="kvg:StrokePaths_05830-Kaisho" style="fill:none;stroke:#000000;stroke-width:3;stroke-linecap:round;stroke-linejoin:round;"> <g id="kvg:05830-Kaisho" kvg:element="堰"> <g id="kvg:05830-Kaisho-g1" kvg:element="土" kvg:variant="true" kvg:position="left" kvg:radical="general"> <!--<path id="kvg:05830-Kaisho-s1" kvg:type="㇐" d="M11.25,42.39c0.76,0.38,2.24,0.46,3,0.36c4.82-0.66,18.15-3.39,23.5-4c1.25-0.14,2.62-0.18,3.25,0.01"/>--> <!--<path id="kvg:05830-Kaisho-s2" kvg:type="㇑a" d="M25.37,16.25c1.09,0.5,1.74,2.25,1.96,3.25c0.22,1,0,43.25-0.22,49.5"/>--> <!--<path id="kvg:05830-Kaisho-s3" kvg:type="㇀/㇐" d="M12.5,75.54c0.75,0.96,2.25,1.46,4.5,0.21c6.25-3.5,12.75-6.75,19-10.25"/>--> </g> <g id="kvg:05830-Kaisho-g2" kvg:position="right"> <g id="kvg:05830-Kaisho-g3" kvg:element="囗" kvg:part="1"> <g id="kvg:05830-Kaisho-g4" kvg:element="匚" kvg:part="1"> <!--<path id="kvg:05830-Kaisho-s4" kvg:type="㇐" d="M44.13,19.28c1.11,0.47,3.14,0.55,4.25,0.47c11.52-0.79,29.75-3.7,42.38-3.7c1.84,0,2.95,0.23,3.88,0.46"/>--> </g> </g> <g id="kvg:05830-Kaisho-g5" kvg:element="日"> <!--<path id="kvg:05830-Kaisho-s5" kvg:type="㇑" d="M58.99,28.54c0.22,0.32,0.22,0.54,0.34,0.95c0.99,3.33,1.91,11.75,2.52,17.97"/>--> <!--<path id="kvg:05830-Kaisho-s6" kvg:type="㇕a" d="M60.02,28.99c7.64-0.84,20.73-2.26,26.43-2.97c2.1-0.26,3.17,0.66,3.06,1.57c-0.39,3.36-1.37,12.51-2.33,18.12"/>--> <!--<path id="kvg:05830-Kaisho-s7" kvg:type="㇐a" d="M61.44,37.61c4.44-0.58,8.91-1.02,13.36-1.5c1.51-0.16,3.01-0.33,4.44-0.48"/>--> <!--<path id="kvg:05830-Kaisho-s8" kvg:type="㇐a" d="M62.26,46.55c5.5-0.36,17.33-1.85,24.92-2.44"/>--> </g> <g id="kvg:05830-Kaisho-g6" kvg:element="女"> <!--<path id="kvg:05830-Kaisho-s9" kvg:type="㇛" d="M71.76,49.37c0.28,0.71,0.08,1.61-0.14,2.5c-1.08,4.34-6.35,14.32-9.81,19.31c-0.75,1.08-0.16,1.3,0.42,1.31C70.26,72.6,83.25,77,88.57,85.03"/>--> <!--<path id="kvg:05830-Kaisho-s10" kvg:type="㇒" d="M82.49,56.8c0.07,0.7,0.12,2.41-0.15,3.43c-2.21,8.23-8.58,19.9-24.36,26.02"/>--> <!--<path id="kvg:05830-Kaisho-s11" kvg:type="㇐" d="M52.96,61.48c1.18,0.27,2.43,0.46,2.99,0.41c11.9-0.86,26.77-3.4,38.13-3.52c0.94-0.01,2.56,0.17,3.32,0.47"/>--> </g> <g id="kvg:05830-Kaisho-g7" kvg:element="匚" kvg:part="2" kvg:position="kamae"> <!--<path id="kvg:05830-Kaisho-s12" kvg:type="㇗" d="M48.25,21c0,4,0,65,0,68.75c0,3.5,0.7,3.63,1.94,3.5c7.07-0.75,39.35-2.75,41.65-2.75c2.3,0,4.24,0.25,5.66,0.75"/>--> </g> </g> </g> </g> <g id="kvg:StrokeNumbers_05830-Kaisho" style="font-size:8;fill:#808080">             </g> </svg> 