<?xml version="1.0" encoding="UTF-8"?>  <!DOCTYPE svg PUBLIC "-//W3C//DTD SVG 1.0//EN" "http://www.w3.org/TR/2001/REC-SVG-20010904/DTD/svg10.dtd"  <!ATTLIST g xmlns:kvg CDATA #FIXED "http://kanjivg.tagaini.net" kvg:element CDATA #IMPLIED kvg:variant CDATA #IMPLIED kvg:partial CDATA #IMPLIED kvg:original CDATA #IMPLIED kvg:part CDATA #IMPLIED kvg:number CDATA #IMPLIED kvg:tradForm CDATA #IMPLIED kvg:radicalForm CDATA #IMPLIED kvg:position CDATA #IMPLIED kvg:radical CDATA #IMPLIED kvg:phon CDATA #IMPLIED > <!ATTLIST path xmlns:kvg CDATA #FIXED "http://kanjivg.tagaini.net" kvg:type CDATA #IMPLIED >  <svg xmlns="http://www.w3.org/2000/svg" width="109" height="109" viewBox="0 0 109 109"> <g id="kvg:StrokePaths_05841-Kaisho" style="fill:none;stroke:#000000;stroke-width:3;stroke-linecap:round;stroke-linejoin:round;"> <g id="kvg:05841-Kaisho" kvg:element="塁"> <g id="kvg:05841-Kaisho-g1" kvg:position="top"> <g id="kvg:05841-Kaisho-g2" kvg:element="田" kvg:radical="nelson"> <!--<path id="kvg:05841-Kaisho-s1" kvg:type="㇑" d="M30.33,16.32c0.33,0.42,0.84,1.21,1.02,1.74c1.51,4.34,3.42,15.31,4.35,23.4"/>--> <!--<path id="kvg:05841-Kaisho-s2" kvg:type="㇕a" d="M32.38,17.4c11.66-1.09,33.66-2.95,42.36-3.87c3.2-0.34,4.84,0.85,4.67,2.05c-0.6,4.38-4.17,16.41-7.05,23.61"/>--> <!--<path id="kvg:05841-Kaisho-s3" kvg:type="㇑a" d="M51.89,16.21c0.61,0.79,1.6,2.09,1.63,3.03c0.23,6.2,0.08,15.43,0.08,18.7"/>--> <!--<path id="kvg:05841-Kaisho-s4" kvg:type="㇐a" d="M34.56,28.13c9.36-1.06,18.82-1.54,28.21-2.25c1.13-0.08,2.23-0.17,3.28-0.25"/>--> <!--<path id="kvg:05841-Kaisho-s5" kvg:type="㇐a" d="M36.31,40.28c8.4-0.47,24.47-2.41,36.06-3.17"/>--> </g> <g id="kvg:05841-Kaisho-g3" kvg:element="冫"> <g id="kvg:05841-Kaisho-g4" kvg:position="top"> <!--<path id="kvg:05841-Kaisho-s6" kvg:type="㇔" d="M26,44c4.15,1.5,10.71,6.17,11.75,8.5"/>--> </g> <g id="kvg:05841-Kaisho-g5" kvg:position="bottom"> <!--<path id="kvg:05841-Kaisho-s7" kvg:type="㇀" d="M19.75,67.24c1.5,0.76,2.7,1.32,4.71,0.23c1.19-0.64,11.75-5.87,16.79-8.97"/>--> </g> </g> <!--<path id="kvg:05841-Kaisho-s8" kvg:type="㇒" d="M81.01,39.89c0.05,0.28,0.1,0.72-0.09,1.12c-1.1,2.36-7.44,7.54-16.11,10.71"/>--> <!--<path id="kvg:05841-Kaisho-s9" kvg:type="㇔" d="M69,58c6.79,1.76,17.55,7.26,19.25,10"/>--> </g> <g id="kvg:05841-Kaisho-g6" kvg:element="土" kvg:position="bottom" kvg:radical="tradit"> <!--<path id="kvg:05841-Kaisho-s10" kvg:type="㇐" d="M31.86,76.8c1.64,0.2,3.99,0.43,4.87,0.34c11.31-1.16,25.24-3.13,36.62-3.43c1.47-0.04,2.35,0.16,3.08,0.33"/>--> <!--<path id="kvg:05841-Kaisho-s11" kvg:type="㇑a" d="M52.59,64.12c0.11,0.26,1.59,1.37,1.59,3.04c0,4.1,0.18,17.35,0.18,21.92"/>--> <!--<path id="kvg:05841-Kaisho-s12" kvg:type="㇐" d="M20.77,92.54c1.36,0.49,3.86,0.59,5.22,0.49c16.86-1.36,45.9-3.05,60.98-3.69c2.27-0.09,3.63,0.23,4.77,0.48"/>--> </g> </g> </g> <g id="kvg:StrokeNumbers_05841-Kaisho" style="font-size:8;fill:#808080">             </g> </svg> 