<?xml version="1.0" encoding="UTF-8"?>  <!DOCTYPE svg PUBLIC "-//W3C//DTD SVG 1.0//EN" "http://www.w3.org/TR/2001/REC-SVG-20010904/DTD/svg10.dtd"  <!ATTLIST g xmlns:kvg CDATA #FIXED "http://kanjivg.tagaini.net" kvg:element CDATA #IMPLIED kvg:variant CDATA #IMPLIED kvg:partial CDATA #IMPLIED kvg:original CDATA #IMPLIED kvg:part CDATA #IMPLIED kvg:number CDATA #IMPLIED kvg:tradForm CDATA #IMPLIED kvg:radicalForm CDATA #IMPLIED kvg:position CDATA #IMPLIED kvg:radical CDATA #IMPLIED kvg:phon CDATA #IMPLIED > <!ATTLIST path xmlns:kvg CDATA #FIXED "http://kanjivg.tagaini.net" kvg:type CDATA #IMPLIED >  <svg xmlns="http://www.w3.org/2000/svg" width="109" height="109" viewBox="0 0 109 109"> <g id="kvg:StrokePaths_05951-VtLst" style="fill:none;stroke:#000000;stroke-width:3;stroke-linecap:round;stroke-linejoin:round;"> <g id="kvg:05951-VtLst" kvg:element="契"> <g id="kvg:05951-VtLst-g1" kvg:position="top"> <g id="kvg:05951-VtLst-g2" kvg:position="left"> <!--<path id="kvg:05951-VtLst-s1" kvg:type="㇐" d="M15.5,25.25c1.5,0,1.56,0.12,3.05,0c9.7-0.75,23.95-3.75,29.15-4.5c1.48-0.21,1.87-0.25,2.8,0"/>--> <!--<path id="kvg:05951-VtLst-s2" kvg:type="㇑" d="M19.5,39.25c1.5,0,1.56,0.12,3.05,0c9.7-0.75,19.45-3.75,24.65-4.5c1.48-0.21,1.87-0.25,2.8,0"/>--> <!--<path id="kvg:05951-VtLst-s3" kvg:type="㇐" d="M13.75,57.25c1.5,1.5,2.4,2.19,5.25,1c7.75-3.25,17.5-7,28.75-11.25"/>--> <!--<path id="kvg:05951-VtLst-s4" kvg:type="㇐" d="M33.87,9.25c1.09,0.5,1.74,2.25,1.96,3.25c0.22,1-0.33,27.75-0.33,38.25"/>--> </g> <g id="kvg:05951-VtLst-g3" kvg:element="刀" kvg:position="right"> <!--<path id="kvg:05951-VtLst-s5" kvg:type="㇆" d="M58.99,21.53c1.2,0.42,2.71,0.37,3.76,0.22c8.57-1.16,22.96-4.62,27.71-5.04c3.09-0.28,4.46,0.83,4.29,2.77c-0.45,5.12-3.51,19.01-8.08,27.66c-1.06,2-2.37,3.28-5.15,1.38c-1.93-1.32-2.23-1.45-3.09-1.8"/>--> <!--<path id="kvg:05951-VtLst-s6" kvg:type="㇒" d="M73.75,21.99c0.04,0.64,0.14,1.67-0.09,2.58C71.25,34,68,41.5,58.77,50.83"/>--> </g> </g> <g id="kvg:05951-VtLst-g4" kvg:element="大" kvg:position="bottom" kvg:radical="general"> <!--<path id="kvg:05951-VtLst-s7" kvg:type="㇐" d="M18.15,73.11c1.52,0.39,3.23,0.27,4.22,0.11C36.25,71,68.5,67,84.25,66.08c1.25-0.07,3.5-0.08,4.9-0.08"/>--> <!--<path id="kvg:05951-VtLst-s8" kvg:type="㇒" d="M51.19,52.25c0.47,0.66,0.71,1.43,0.69,2.87C51.66,79.99,40.45,93.11,22,100.75"/>--> <!--<path id="kvg:05951-VtLst-s9" kvg:type="㇏" d="M53.58,68.93c8.56,6.8,27.12,22.84,35.67,27.39c2.91,1.55,3.92,1.78,5.25,1.93"/>--> </g> </g> </g> <g id="kvg:StrokeNumbers_05951-VtLst" style="font-size:8;fill:#808080">          </g> </svg> 