<?xml version="1.0" encoding="UTF-8"?>  <!DOCTYPE svg PUBLIC "-//W3C//DTD SVG 1.0//EN" "http://www.w3.org/TR/2001/REC-SVG-20010904/DTD/svg10.dtd"  <!ATTLIST g xmlns:kvg CDATA #FIXED "http://kanjivg.tagaini.net" kvg:element CDATA #IMPLIED kvg:variant CDATA #IMPLIED kvg:partial CDATA #IMPLIED kvg:original CDATA #IMPLIED kvg:part CDATA #IMPLIED kvg:number CDATA #IMPLIED kvg:tradForm CDATA #IMPLIED kvg:radicalForm CDATA #IMPLIED kvg:position CDATA #IMPLIED kvg:radical CDATA #IMPLIED kvg:phon CDATA #IMPLIED > <!ATTLIST path xmlns:kvg CDATA #FIXED "http://kanjivg.tagaini.net" kvg:type CDATA #IMPLIED >  <svg xmlns="http://www.w3.org/2000/svg" width="109" height="109" viewBox="0 0 109 109"> <g id="kvg:StrokePaths_05984-Kaisho" style="fill:none;stroke:#000000;stroke-width:3;stroke-linecap:round;stroke-linejoin:round;"> <g id="kvg:05984-Kaisho" kvg:element="妄"> <g id="kvg:05984-Kaisho-g1" kvg:element="亡" kvg:position="top"> <g id="kvg:05984-Kaisho-g2" kvg:element="亠" kvg:radical="nelson"> <!--<path id="kvg:05984-Kaisho-s1" kvg:type="㇑a" d="M48,9.49c3.35,1.81,6.96,5.68,8.5,8.33"/>--> <g id="kvg:05984-Kaisho-g3" kvg:element="匸" kvg:part="1" kvg:variant="true" kvg:original="匚"> <!--<path id="kvg:05984-Kaisho-s2" kvg:type="㇐" d="M15.95,26.35c1.39,0.09,4.55,0.61,5.9,0.49c10.89-1.02,48.72-4.91,62.55-5.18c2.29-0.04,3.45,0.04,5.16,0.62"/>--> </g> </g> <g id="kvg:05984-Kaisho-g4" kvg:element="匸" kvg:part="2" kvg:variant="true" kvg:original="匚"> <!--<path id="kvg:05984-Kaisho-s3" kvg:type="㇄" d="M32.38,29.17c0.83,0.71,1.24,2.74,1.24,3.73c0,8.77,0,1.61,0,4.93c0,3.69,0.52,7.31,9.79,7.85c10.04,0.58,26.75-0.12,29.03-0.2c3.93-0.13,7.28-0.52,9.28-0.97"/>--> </g> </g> <g id="kvg:05984-Kaisho-g5" kvg:element="女" kvg:position="bottom" kvg:radical="tradit"> <!--<path id="kvg:05984-Kaisho-s4" kvg:type="㇛" d="M46.71,52.62c0.5,1.5,0.15,3.39-0.25,5.25C44.5,67,43,68,36.75,78.5c-1.36,2.28-0.28,2.73,0.75,2.75C52,81.5,69,87.5,80.75,98.5"/>--> <!--<path id="kvg:05984-Kaisho-s5" kvg:type="㇒" d="M67.87,59.18c0.13,0.97,0.23,3.34-0.27,4.75C63.6,75.33,52.5,92.5,23.5,100"/>--> <!--<path id="kvg:05984-Kaisho-s6" kvg:type="㇐" d="M12.38,66.43c2.12,0.57,4.39,0.96,5.41,0.87C39.25,65.5,68.5,63.25,89,63c1.7-0.02,4.62,0.35,6,1"/>--> </g> </g> </g> <g id="kvg:StrokeNumbers_05984-Kaisho" style="font-size:8;fill:#808080">       </g> </svg> 