<?xml version="1.0" encoding="UTF-8"?>  <!DOCTYPE svg PUBLIC "-//W3C//DTD SVG 1.0//EN" "http://www.w3.org/TR/2001/REC-SVG-20010904/DTD/svg10.dtd"  <!ATTLIST g xmlns:kvg CDATA #FIXED "http://kanjivg.tagaini.net" kvg:element CDATA #IMPLIED kvg:variant CDATA #IMPLIED kvg:partial CDATA #IMPLIED kvg:original CDATA #IMPLIED kvg:part CDATA #IMPLIED kvg:number CDATA #IMPLIED kvg:tradForm CDATA #IMPLIED kvg:radicalForm CDATA #IMPLIED kvg:position CDATA #IMPLIED kvg:radical CDATA #IMPLIED kvg:phon CDATA #IMPLIED > <!ATTLIST path xmlns:kvg CDATA #FIXED "http://kanjivg.tagaini.net" kvg:type CDATA #IMPLIED >  <svg xmlns="http://www.w3.org/2000/svg" width="109" height="109" viewBox="0 0 109 109"> <g id="kvg:StrokePaths_059ff-Kaisho" style="fill:none;stroke:#000000;stroke-width:3;stroke-linecap:round;stroke-linejoin:round;"> <g id="kvg:059ff-Kaisho" kvg:element="姿"> <g id="kvg:059ff-Kaisho-g1" kvg:element="次" kvg:position="top"> <g id="kvg:059ff-Kaisho-g2" kvg:element="冫" kvg:original="二" kvg:position="left"> <g id="kvg:059ff-Kaisho-g3" kvg:position="top"> <!--<path id="kvg:059ff-Kaisho-s1" kvg:type="㇔" d="M20.5,16.75c3.88,1.76,10.03,7.25,11,10"/>--> </g> <g id="kvg:059ff-Kaisho-g4" kvg:position="bottom"> <!--<path id="kvg:059ff-Kaisho-s2" kvg:type="㇀" d="M19.25,47.03c1.75,1.72,3.7,1.68,5.28,1c1.54-0.66,11.34-6.41,17.22-9.78"/>--> </g> </g> <g id="kvg:059ff-Kaisho-g5" kvg:element="欠" kvg:position="right"> <!--<path id="kvg:059ff-Kaisho-s3" kvg:type="㇒" d="M53.64,11c0.04,0.54,0.07,1.4-0.07,2.18C52.7,17.77,47.71,27.84,40.87,34"/>--> <!--<path id="kvg:059ff-Kaisho-s4" kvg:type="㇖" d="M53.11,21.62c0.94,0.24,2.72,0.62,4.13,0.41c1.73-0.26,23.15-4.53,24.8-4.53s3.43,2.05,1.78,3.5c-1.64,1.44-2.37,2.47-5.87,5.63"/>--> <!--<path id="kvg:059ff-Kaisho-s5" kvg:type="㇒" d="M60.53,26.45c0.07,0.69,0.04,1.77-0.13,2.78c-1.1,6.29-7.24,19.24-21.14,25.27"/>--> <!--<path id="kvg:059ff-Kaisho-s6" kvg:type="㇔/㇏" d="M66.17,37.22c4.92,2.72,14.64,11.19,17.04,15.05"/>--> </g> </g> <g id="kvg:059ff-Kaisho-g6" kvg:element="女" kvg:position="bottom" kvg:radical="general"> <!--<path id="kvg:059ff-Kaisho-s7" kvg:type="㇛" d="M49.7,54.37c0.45,1.18,0.25,2.7-0.22,4.13c-1.73,5.25-4.77,12.82-10.34,21.08c-1.21,1.8-1.14,2.54-0.22,2.56c9.14,0.2,32.83,8.36,40.33,17.11"/>--> <!--<path id="kvg:059ff-Kaisho-s8" kvg:type="㇒" d="M67.13,62.18c0.12,0.92,0.21,3.15-0.25,4.49c-3.75,10.78-14.57,26.06-41.38,34.09"/>--> <!--<path id="kvg:059ff-Kaisho-s9" kvg:type="㇐" d="M16.38,69.68c1.02,0.37,2.9,0.53,3.91,0.37c5.22-0.8,49.22-4.8,68.72-5.8c1.7-0.09,4.62,0.35,6,1"/>--> </g> </g> </g> <g id="kvg:StrokeNumbers_059ff-Kaisho" style="font-size:8;fill:#808080">          </g> </svg> 