<?xml version="1.0" encoding="UTF-8"?>  <!DOCTYPE svg PUBLIC "-//W3C//DTD SVG 1.0//EN" "http://www.w3.org/TR/2001/REC-SVG-20010904/DTD/svg10.dtd"  <!ATTLIST g xmlns:kvg CDATA #FIXED "http://kanjivg.tagaini.net" kvg:element CDATA #IMPLIED kvg:variant CDATA #IMPLIED kvg:partial CDATA #IMPLIED kvg:original CDATA #IMPLIED kvg:part CDATA #IMPLIED kvg:number CDATA #IMPLIED kvg:tradForm CDATA #IMPLIED kvg:radicalForm CDATA #IMPLIED kvg:position CDATA #IMPLIED kvg:radical CDATA #IMPLIED kvg:phon CDATA #IMPLIED > <!ATTLIST path xmlns:kvg CDATA #FIXED "http://kanjivg.tagaini.net" kvg:type CDATA #IMPLIED >  <svg xmlns="http://www.w3.org/2000/svg" width="109" height="109" viewBox="0 0 109 109"> <g id="kvg:StrokePaths_05a66-Kaisho" style="fill:none;stroke:#000000;stroke-width:3;stroke-linecap:round;stroke-linejoin:round;"> <g id="kvg:05a66-Kaisho" kvg:element="婦"> <g id="kvg:05a66-Kaisho-g1" kvg:element="女" kvg:variant="true" kvg:position="left" kvg:radical="general"> <!--<path id="kvg:05a66-Kaisho-s1" kvg:type="㇛" d="M24.28,20.87c0.38,1.11,1.06,2.92,0.87,4.52c-0.96,7.87-4.19,28.32-8.42,37.52c-0.87,1.89,0.37,2.7,0.87,2.8C25.25,67.25,32.25,71.5,38.75,81"/>--> <!--<path id="kvg:05a66-Kaisho-s2" kvg:type="㇒" d="M37.51,39.25c0.07,1.19,0.13,4.09-0.15,5.82C35.1,59.04,28.6,78.85,12.5,89.25"/>--> <!--<path id="kvg:05a66-Kaisho-s3" kvg:type="㇀/㇐" d="M9,48.96C9.75,50,11.25,50.25,13.25,50c2.15-0.27,21.84-4.88,30.75-7.53"/>--> </g> <g id="kvg:05a66-Kaisho-g2" kvg:element="帚" kvg:position="right"> <g id="kvg:05a66-Kaisho-g3" kvg:element="⺕" kvg:variant="true" kvg:original="彑" kvg:position="top"> <!--<path id="kvg:05a66-Kaisho-s4" kvg:type="㇕" d="M50.91,15.51c1.19,0.48,2.67,0.95,3.66,0.95c0.99,0,28.58-2.62,30.16-2.86c1.58-0.24,3.55,0.73,3.16,2.38c-1.38,5.95-4.07,14.52-4.66,18.33"/>--> <!--<path id="kvg:05a66-Kaisho-s5" kvg:type="㇐c" d="M50.54,26.84c1.12,0.52,3.17,0.62,4.29,0.52c6.68-0.61,13.18-1.11,18.43-1.81c2.03-0.27,3.24-0.2,5.67-0.23"/>--> <!--<path id="kvg:05a66-Kaisho-s6" kvg:type="㇐c" d="M51.5,38.87c0.65,0.2,2.33,0.22,2.97,0.2c8.53-0.24,21.02-2.82,30.8-3.31"/>--> </g> <g id="kvg:05a66-Kaisho-g4" kvg:position="bottom"> <g id="kvg:05a66-Kaisho-g5" kvg:element="冖"> <!--<path id="kvg:05a66-Kaisho-s7" kvg:type="㇔" d="M45.87,47.33c-0.12,3.36-3,12.14-4.03,14.14"/>--> <!--<path id="kvg:05a66-Kaisho-s8" kvg:type="㇖b" d="M47.58,49.78c2.62,0,30.29-3.12,43.44-4.2c13.23-1.08,2.22,6.22,0.98,7.36"/>--> </g> <g id="kvg:05a66-Kaisho-g6" kvg:element="巾"> <!--<path id="kvg:05a66-Kaisho-s9" kvg:type="㇑" d="M53.16,60.86c0.46,0.26,1.43,1.98,1.52,2.51c0.09,0.53-0.06,19.14-0.15,22.44"/>--> <!--<path id="kvg:05a66-Kaisho-s10" kvg:type="㇆a" d="M54.59,62.77c5.66-0.77,27.77-3.92,29.92-4.03c2.52-0.13,3.47,2.32,3.48,3.53c0.02,5.98-0.48,14.98-1.33,19.81c-1.01,5.75-4.04,0.04-5-0.88"/>--> <!--<path id="kvg:05a66-Kaisho-s11" kvg:type="㇑" d="M69.05,50.85c0.38,0.26,1.17,1.98,1.25,2.51c0.08,0.53-0.05,41.83-0.12,45.13"/>--> </g> </g> </g> </g> </g> <g id="kvg:StrokeNumbers_05a66-Kaisho" style="font-size:8;fill:#808080">            </g> </svg> 