<?xml version="1.0" encoding="UTF-8"?>  <!DOCTYPE svg PUBLIC "-//W3C//DTD SVG 1.0//EN" "http://www.w3.org/TR/2001/REC-SVG-20010904/DTD/svg10.dtd"  <!ATTLIST g xmlns:kvg CDATA #FIXED "http://kanjivg.tagaini.net" kvg:element CDATA #IMPLIED kvg:variant CDATA #IMPLIED kvg:partial CDATA #IMPLIED kvg:original CDATA #IMPLIED kvg:part CDATA #IMPLIED kvg:number CDATA #IMPLIED kvg:tradForm CDATA #IMPLIED kvg:radicalForm CDATA #IMPLIED kvg:position CDATA #IMPLIED kvg:radical CDATA #IMPLIED kvg:phon CDATA #IMPLIED > <!ATTLIST path xmlns:kvg CDATA #FIXED "http://kanjivg.tagaini.net" kvg:type CDATA #IMPLIED >  <svg xmlns="http://www.w3.org/2000/svg" width="109" height="109" viewBox="0 0 109 109"> <g id="kvg:StrokePaths_05ae1-Kaisho" style="fill:none;stroke:#000000;stroke-width:3;stroke-linecap:round;stroke-linejoin:round;"> <g id="kvg:05ae1-Kaisho" kvg:element="嫡"> <g id="kvg:05ae1-Kaisho-g1" kvg:element="女" kvg:variant="true" kvg:position="left" kvg:radical="general"> <!--<path id="kvg:05ae1-Kaisho-s1" kvg:type="㇛" d="M29.37,18.12c0.38,1.24,1.07,3.28,0.88,5.08C29.28,32.04,23,54.9,18.73,65.24c-0.88,2.12,0.38,3,0.88,3.14C28.75,71,34,76.25,42,85.74"/>--> <!--<path id="kvg:05ae1-Kaisho-s2" kvg:type="㇒" d="M42.25,38.55c0.08,1.3,0.14,4.47-0.17,6.36C39.63,60.2,32.55,81.87,15,93.25"/>--> <!--<path id="kvg:05ae1-Kaisho-s3" kvg:type="㇀/㇐" d="M10,50.92c0.75,1.15,2.25,1.42,4.25,1.15c2.15-0.3,21.84-5.35,30.75-8.25"/>--> </g> <g id="kvg:05ae1-Kaisho-g2" kvg:position="right"> <g id="kvg:05ae1-Kaisho-g3" kvg:element="亠"> <!--<path id="kvg:05ae1-Kaisho-s4" kvg:type="㇑a" d="M66.4,12.5c2.97,1.75,5.49,4.75,7.2,7.79"/>--> <!--<path id="kvg:05ae1-Kaisho-s5" kvg:type="㇐" d="M48.3,28.31c1.3,0.35,2.82,0.4,4.12,0.35c7.34-0.3,26.89-4.26,37.98-4.52c2.17-0.05,3.47,0.17,4.55,0.34"/>--> </g> <!--<path id="kvg:05ae1-Kaisho-s6" kvg:type="㇔" d="M57.86,30.71c3.54,4.14,5.15,8.38,5.47,11.1"/>--> <!--<path id="kvg:05ae1-Kaisho-s7" kvg:type="㇒" d="M82.58,28.1c0.6,0.43,0.68,0.64,0.6,1c-0.48,2.42-4.96,10.11-6.17,11.96"/>--> <g id="kvg:05ae1-Kaisho-g4" kvg:element="冂"> <!--<path id="kvg:05ae1-Kaisho-s8" kvg:type="㇑" d="M51.26,44.21c0.45,0.81,0.75,2.11,0.6,3.57C51.7,49.24,52,93.78,52,96.22"/>--> <!--<path id="kvg:05ae1-Kaisho-s9" kvg:type="㇆a" d="M51.85,45.83c5.68-0.65,36.88-3.55,37.99-3.78c2.39-0.49,4.15,1.72,3.89,2.48c-0.45,1.3-0.45,43.45-0.45,47.18c0,6.01-2.54,3.08-4.34,0.97"/>--> </g> <g id="kvg:05ae1-Kaisho-g5" kvg:element="古"> <g id="kvg:05ae1-Kaisho-g6" kvg:element="十" kvg:position="top"> <!--<path id="kvg:05ae1-Kaisho-s10" kvg:type="㇐" d="M57.24,57.98c0.35,0.11,1.28,0.42,2.21,0.34c3.79-0.34,18.81-2.7,24.27-2.7c0.93,0,1.16-0.11,1.74,0"/>--> <!--<path id="kvg:05ae1-Kaisho-s11" kvg:type="㇑a" d="M69.75,47.13c1.17,1.06,1.96,4.01,1.96,4.11c0.05,6.47,0,13.37-0.09,16.18"/>--> </g> <g id="kvg:05ae1-Kaisho-g7" kvg:element="口" kvg:position="bottom"> <!--<path id="kvg:05ae1-Kaisho-s12" kvg:type="㇑" d="M62.37,68.33c0.17,0.41,0.37,0.69,0.42,1c0.42,2.27,1.92,9.98,2.51,14.28"/>--> <!--<path id="kvg:05ae1-Kaisho-s13" kvg:type="㇕b" d="M63.22,68.99c4.72-0.46,14.29-2.12,17.51-2.19c1.33-0.03,2.05,0.64,1.93,1.33c-0.44,2.61-1.3,7.05-2.02,10.52"/>--> <!--<path id="kvg:05ae1-Kaisho-s14" kvg:type="㇐b" d="M64.99,81.37c3.91-0.19,12.06-1.62,16.75-1.87"/>--> </g> </g> </g> </g> </g> <g id="kvg:StrokeNumbers_05ae1-Kaisho" style="font-size:8;fill:#808080">               </g> </svg> 