<?xml version="1.0" encoding="UTF-8"?>  <!DOCTYPE svg PUBLIC "-//W3C//DTD SVG 1.0//EN" "http://www.w3.org/TR/2001/REC-SVG-20010904/DTD/svg10.dtd"  <!ATTLIST g xmlns:kvg CDATA #FIXED "http://kanjivg.tagaini.net" kvg:element CDATA #IMPLIED kvg:variant CDATA #IMPLIED kvg:partial CDATA #IMPLIED kvg:original CDATA #IMPLIED kvg:part CDATA #IMPLIED kvg:number CDATA #IMPLIED kvg:tradForm CDATA #IMPLIED kvg:radicalForm CDATA #IMPLIED kvg:position CDATA #IMPLIED kvg:radical CDATA #IMPLIED kvg:phon CDATA #IMPLIED > <!ATTLIST path xmlns:kvg CDATA #FIXED "http://kanjivg.tagaini.net" kvg:type CDATA #IMPLIED >  <svg xmlns="http://www.w3.org/2000/svg" width="109" height="109" viewBox="0 0 109 109"> <g id="kvg:StrokePaths_05b88-Kaisho" style="fill:none;stroke:#000000;stroke-width:3;stroke-linecap:round;stroke-linejoin:round;"> <g id="kvg:05b88-Kaisho" kvg:element="守"> <g id="kvg:05b88-Kaisho-g1" kvg:element="宀" kvg:position="top" kvg:radical="general"> <!--<path id="kvg:05b88-Kaisho-s1" kvg:type="㇑a" d="M48.54,9c3.73,1.71,8.29,6.98,9,10.29"/>--> <g id="kvg:05b88-Kaisho-g2" kvg:element="冖"> <!--<path id="kvg:05b88-Kaisho-s2" kvg:type="㇔" d="M20.86,24.13c0,4.38-4.03,16.44-5.86,19.37"/>--> <!--<path id="kvg:05b88-Kaisho-s3" kvg:type="㇖b" d="M22.75,27.24c1.81-0.09,52.13-5.53,62.36-5.4c12.9,0.16,0.88,7.91-0.92,8.78"/>--> </g> </g> <g id="kvg:05b88-Kaisho-g3" kvg:element="寸" kvg:position="bottom"> <!--<path id="kvg:05b88-Kaisho-s4" kvg:type="㇐" d="M15.88,57.67c2.12,0.58,4.48,0.51,6.07,0.3C40,55.5,72.92,51.11,86.08,50.79c2.64-0.06,4.22,0.38,5.54,0.78"/>--> <!--<path id="kvg:05b88-Kaisho-s5" kvg:type="㇚" d="M66.77,34.83c0.09,0.48,1.17,2.49,1.26,5.52c0.4,14.55-0.26,46.66-0.26,51.62c0,11.78-6.52,1.78-8.71,0.25"/>--> <!--<path id="kvg:05b88-Kaisho-s6" kvg:type="㇔" d="M36.96,67.87c3.26,2.07,8.43,8.52,9.25,11.75"/>--> </g> </g> </g> <g id="kvg:StrokeNumbers_05b88-Kaisho" style="font-size:8;fill:#808080">       </g> </svg> 