<?xml version="1.0" encoding="UTF-8"?>  <!DOCTYPE svg PUBLIC "-//W3C//DTD SVG 1.0//EN" "http://www.w3.org/TR/2001/REC-SVG-20010904/DTD/svg10.dtd"  <!ATTLIST g xmlns:kvg CDATA #FIXED "http://kanjivg.tagaini.net" kvg:element CDATA #IMPLIED kvg:variant CDATA #IMPLIED kvg:partial CDATA #IMPLIED kvg:original CDATA #IMPLIED kvg:part CDATA #IMPLIED kvg:number CDATA #IMPLIED kvg:tradForm CDATA #IMPLIED kvg:radicalForm CDATA #IMPLIED kvg:position CDATA #IMPLIED kvg:radical CDATA #IMPLIED kvg:phon CDATA #IMPLIED > <!ATTLIST path xmlns:kvg CDATA #FIXED "http://kanjivg.tagaini.net" kvg:type CDATA #IMPLIED >  <svg xmlns="http://www.w3.org/2000/svg" width="109" height="109" viewBox="0 0 109 109"> <g id="kvg:StrokePaths_05b8c-Kaisho" style="fill:none;stroke:#000000;stroke-width:3;stroke-linecap:round;stroke-linejoin:round;"> <g id="kvg:05b8c-Kaisho" kvg:element="完"> <g id="kvg:05b8c-Kaisho-g1" kvg:element="宀" kvg:position="top" kvg:radical="general"> <!--<path id="kvg:05b8c-Kaisho-s1" kvg:type="㇑a" d="M48.7,11.5c3.59,1.2,7.94,5.77,8.62,9.18"/>--> <g id="kvg:05b8c-Kaisho-g2" kvg:element="冖"> <!--<path id="kvg:05b8c-Kaisho-s2" kvg:type="㇔" d="M26.35,27.77c0,3.41-2.42,12.79-3.51,15.07"/>--> <!--<path id="kvg:05b8c-Kaisho-s3" kvg:type="㇖b" d="M28.6,29.35c8.9-1.6,47.15-5.28,53.31-5.31c9.85-0.04-0.32,8.25-1.86,9.1"/>--> </g> </g> <g id="kvg:05b8c-Kaisho-g3" kvg:element="元" kvg:position="bottom"> <g id="kvg:05b8c-Kaisho-g4" kvg:element="二" kvg:position="top"> <!--<path id="kvg:05b8c-Kaisho-s4" kvg:type="㇐" d="M36.32,42.93c0.91,0.23,2.59,0.32,3.49,0.23c6.69-0.66,15.94-2.66,23.54-3.65c1.5-0.2,2.43,0.11,3.19,0.23"/>--> <!--<path id="kvg:05b8c-Kaisho-s5" kvg:type="㇐" d="M22.83,59.17c1.48,0.39,4.21,0.57,5.67,0.39c14.74-1.81,31.05-4.06,47.48-4.46c2.47-0.06,3.95,0.19,5.18,0.38"/>--> </g> <g id="kvg:05b8c-Kaisho-g5" kvg:element="儿" kvg:original="八" kvg:position="bottom"> <g id="kvg:05b8c-Kaisho-g6" kvg:element="丿"> <!--<path id="kvg:05b8c-Kaisho-s6" kvg:type="㇒" d="M41.5,62c0.07,0.89,0.14,2.29-0.13,3.56C39.76,73.08,31.29,91,17.92,99.67"/>--> </g> <!--<path id="kvg:05b8c-Kaisho-s7" kvg:type="㇟" d="M56.49,59.87c0.74,1.19,1.33,2.59,1.38,4.43c0.2,8.19-0.53,16.14-0.53,21.7c0,9.75,3.42,12.03,18.17,12.03c15.25,0,18.39-2.03,18.39-12.62"/>--> </g> </g> </g> </g> <g id="kvg:StrokeNumbers_05b8c-Kaisho" style="font-size:8;fill:#808080">        </g> </svg> 