<?xml version="1.0" encoding="UTF-8"?>  <!DOCTYPE svg PUBLIC "-//W3C//DTD SVG 1.0//EN" "http://www.w3.org/TR/2001/REC-SVG-20010904/DTD/svg10.dtd"  <!ATTLIST g xmlns:kvg CDATA #FIXED "http://kanjivg.tagaini.net" kvg:element CDATA #IMPLIED kvg:variant CDATA #IMPLIED kvg:partial CDATA #IMPLIED kvg:original CDATA #IMPLIED kvg:part CDATA #IMPLIED kvg:number CDATA #IMPLIED kvg:tradForm CDATA #IMPLIED kvg:radicalForm CDATA #IMPLIED kvg:position CDATA #IMPLIED kvg:radical CDATA #IMPLIED kvg:phon CDATA #IMPLIED > <!ATTLIST path xmlns:kvg CDATA #FIXED "http://kanjivg.tagaini.net" kvg:type CDATA #IMPLIED >  <svg xmlns="http://www.w3.org/2000/svg" width="109" height="109" viewBox="0 0 109 109"> <g id="kvg:StrokePaths_05b8f-Kaisho" style="fill:none;stroke:#000000;stroke-width:3;stroke-linecap:round;stroke-linejoin:round;"> <g id="kvg:05b8f-Kaisho" kvg:element="宏"> <g id="kvg:05b8f-Kaisho-g1" kvg:element="宀" kvg:position="top" kvg:radical="general"> <!--<path id="kvg:05b8f-Kaisho-s1" kvg:type="㇑a" d="M49.33,11.25c3.02,2.09,6,5.38,7.91,9.19"/>--> <g id="kvg:05b8f-Kaisho-g2" kvg:element="冖"> <!--<path id="kvg:05b8f-Kaisho-s2" kvg:type="㇔" d="M22.92,25.37c0,3.48-3.2,13.06-4.65,15.38"/>--> <!--<path id="kvg:05b8f-Kaisho-s3" kvg:type="㇖b" d="M24.3,29.1c8.5-0.88,54.86-5.05,61.76-5.38c10.78-0.52,2.28,6.4-0.4,8.29"/>--> </g> </g> <g id="kvg:05b8f-Kaisho-g3" kvg:position="bottom"> <!--<path id="kvg:05b8f-Kaisho-s4" kvg:type="㇐" d="M18.75,55.37c1.34,0.49,3.79,0.61,5.12,0.49c14.88-1.35,47.49-5.09,60.2-5.09c2.23,0,3.56,0.23,4.68,0.48"/>--> <!--<path id="kvg:05b8f-Kaisho-s5" kvg:type="㇒" d="M51.99,34.5c0.11,1.44,0.41,4.15-0.21,5.78C44.05,60.56,33.5,79.75,12.5,95.54"/>--> <g id="kvg:05b8f-Kaisho-g4" kvg:element="厶"> <!--<path id="kvg:05b8f-Kaisho-s6" kvg:type="㇜" d="M58.93,62.38c0.54,0.64,0.34,2.29-0.1,3.06C53.75,74.25,47,84.5,39.35,93.37c-2.15,2.49-2.34,2.83,1.08,2.31c7.19-1.08,27-6.61,37.8-7.77"/>--> <!--<path id="kvg:05b8f-Kaisho-s7" kvg:type="㇔" d="M70.03,78.1c4.78,3.5,12.35,14.41,13.54,19.87"/>--> </g> </g> </g> </g> <g id="kvg:StrokeNumbers_05b8f-Kaisho" style="font-size:8;fill:#808080">        </g> </svg> 