<?xml version="1.0" encoding="UTF-8"?>  <!DOCTYPE svg PUBLIC "-//W3C//DTD SVG 1.0//EN" "http://www.w3.org/TR/2001/REC-SVG-20010904/DTD/svg10.dtd"  <!ATTLIST g xmlns:kvg CDATA #FIXED "http://kanjivg.tagaini.net" kvg:element CDATA #IMPLIED kvg:variant CDATA #IMPLIED kvg:partial CDATA #IMPLIED kvg:original CDATA #IMPLIED kvg:part CDATA #IMPLIED kvg:number CDATA #IMPLIED kvg:tradForm CDATA #IMPLIED kvg:radicalForm CDATA #IMPLIED kvg:position CDATA #IMPLIED kvg:radical CDATA #IMPLIED kvg:phon CDATA #IMPLIED > <!ATTLIST path xmlns:kvg CDATA #FIXED "http://kanjivg.tagaini.net" kvg:type CDATA #IMPLIED >  <svg xmlns="http://www.w3.org/2000/svg" width="109" height="109" viewBox="0 0 109 109"> <g id="kvg:StrokePaths_05b98-Kaisho" style="fill:none;stroke:#000000;stroke-width:3;stroke-linecap:round;stroke-linejoin:round;"> <g id="kvg:05b98-Kaisho" kvg:element="官"> <g id="kvg:05b98-Kaisho-g1" kvg:element="宀" kvg:position="top" kvg:radical="general"> <!--<path id="kvg:05b98-Kaisho-s1" kvg:type="㇑a" d="M48.15,11.5c3.88,1.4,9.48,6.05,10.28,10.02"/>--> <g id="kvg:05b98-Kaisho-g2" kvg:element="冖"> <!--<path id="kvg:05b98-Kaisho-s2" kvg:type="㇔" d="M27.05,27.75c0,2.77-3.35,12.9-4.42,14.75"/>--> <!--<path id="kvg:05b98-Kaisho-s3" kvg:type="㇖b" d="M27.74,29.63c1.18,0.07,47.42-5.65,53.41-5.91c10.85-0.47,1.15,6.7-0.35,7.4"/>--> </g> </g> <g id="kvg:05b98-Kaisho-g3" kvg:position="bottom"> <g id="kvg:05b98-Kaisho-g4" kvg:element="口"> <!--<path id="kvg:05b98-Kaisho-s4" kvg:type="㇑" d="M36.87,40.75c1.09,0.5,1.74,2.25,1.96,3.25c0.22,1,0,48.75-0.22,55"/>--> <!--<path id="kvg:05b98-Kaisho-s5" kvg:type="㇕b" d="M39.25,42c9-1.5,24.25-3.5,29.19-4.01c1.8-0.19,2.89,1.11,2.63,2.21c-1.07,4.55-2.32,8.05-3.91,14.35"/>--> <!--<path id="kvg:05b98-Kaisho-s6" kvg:type="㇐b" d="M39.75,58.5c5.8-0.58,21.25-2.5,29.21-3.39"/>--> </g> <!--<path id="kvg:05b98-Kaisho-s7" kvg:type="㇕" d="M39,75.75c9.75-1.5,28.5-3.95,33.44-4.51c1.8-0.21,2.89,1.21,2.63,2.41c-1.07,4.97-2.32,10.98-3.91,17.86"/>--> <!--<path id="kvg:05b98-Kaisho-s8" kvg:type="㇐" d="M39.25,95.75c5.8-0.63,25.75-2.65,33.71-3.62"/>--> </g> </g> </g> <g id="kvg:StrokeNumbers_05b98-Kaisho" style="font-size:8;fill:#808080">         </g> </svg> 