<?xml version="1.0" encoding="UTF-8"?>  <!DOCTYPE svg PUBLIC "-//W3C//DTD SVG 1.0//EN" "http://www.w3.org/TR/2001/REC-SVG-20010904/DTD/svg10.dtd"  <!ATTLIST g xmlns:kvg CDATA #FIXED "http://kanjivg.tagaini.net" kvg:element CDATA #IMPLIED kvg:variant CDATA #IMPLIED kvg:partial CDATA #IMPLIED kvg:original CDATA #IMPLIED kvg:part CDATA #IMPLIED kvg:number CDATA #IMPLIED kvg:tradForm CDATA #IMPLIED kvg:radicalForm CDATA #IMPLIED kvg:position CDATA #IMPLIED kvg:radical CDATA #IMPLIED kvg:phon CDATA #IMPLIED > <!ATTLIST path xmlns:kvg CDATA #FIXED "http://kanjivg.tagaini.net" kvg:type CDATA #IMPLIED >  <svg xmlns="http://www.w3.org/2000/svg" width="109" height="109" viewBox="0 0 109 109"> <g id="kvg:StrokePaths_05b99-KaishoVtLst" style="fill:none;stroke:#000000;stroke-width:3;stroke-linecap:round;stroke-linejoin:round;"> <g id="kvg:05b99-KaishoVtLst" kvg:element="宙"> <g id="kvg:05b99-KaishoVtLst-g1" kvg:element="宀" kvg:position="top" kvg:radical="general"> <!--<path id="kvg:05b99-KaishoVtLst-s1" kvg:type="㇑a" d="M49.27,12.11c3.63,2.2,6.62,5.56,8.05,9.78"/>--> <g id="kvg:05b99-KaishoVtLst-g2" kvg:element="冖"> <!--<path id="kvg:05b99-KaishoVtLst-s2" kvg:type="㇔" d="M20.47,29.05c0,3.36-1.97,13.95-3.72,18.84"/>--> <!--<path id="kvg:05b99-KaishoVtLst-s3" kvg:type="㇖b" d="M22.22,31.12c17.28-0.37,53.04-5.75,63.49-6.23c13.79-0.63,2.44,6.92-0.43,8.96"/>--> </g> </g> <g id="kvg:05b99-KaishoVtLst-g3" kvg:element="由" kvg:variant="true" kvg:position="bottom"> <g id="kvg:05b99-KaishoVtLst-g4" kvg:element="田" kvg:part="1" kvg:partial="true"> <!--<path id="kvg:05b99-KaishoVtLst-s4" kvg:type="㇑" d="M25.95,58.2c0.4,0.68,0.41,1.14,0.62,1.97c1.77,6.9,3.03,22.61,4.08,35.32"/>--> <!--<path id="kvg:05b99-KaishoVtLst-s5" kvg:type="㇕" d="M27.82,59.25c14.04-0.7,38.61-3.89,49.1-4.56c3.85-0.25,5.81,1.75,5.6,3.6c-0.77,6.78-3.77,26.24-6.52,35.03"/>--> </g> <g id="kvg:05b99-KaishoVtLst-g5" kvg:element="田" kvg:part="2" kvg:partial="true"> <!--<path id="kvg:05b99-KaishoVtLst-s6" kvg:type="㇐" d="M30,75.17c11.29-0.81,22.57-1.95,33.85-2.89c1.36-0.11,2.68-0.22,3.94-0.33"/>--> <!--<path id="kvg:05b99-KaishoVtLst-s7" kvg:type="㇐" d="M31.38,92.45c11.57-0.49,31.28-2.8,45.24-2.99"/>--> <g id="kvg:05b99-KaishoVtLst-g6" kvg:element="丨"> <!--<path id="kvg:05b99-KaishoVtLst-s8" kvg:type="㇑" d="M51.72,36.57c1.04,0.89,1.65,2.19,1.66,3.37c0.03,11.64,0.19,47.67,0.19,50.71"/>--> </g> </g> </g> </g> </g> <g id="kvg:StrokeNumbers_05b99-KaishoVtLst" style="font-size:8;fill:#808080">         </g> </svg> 