<?xml version="1.0" encoding="UTF-8"?>  <!DOCTYPE svg PUBLIC "-//W3C//DTD SVG 1.0//EN" "http://www.w3.org/TR/2001/REC-SVG-20010904/DTD/svg10.dtd"  <!ATTLIST g xmlns:kvg CDATA #FIXED "http://kanjivg.tagaini.net" kvg:element CDATA #IMPLIED kvg:variant CDATA #IMPLIED kvg:partial CDATA #IMPLIED kvg:original CDATA #IMPLIED kvg:part CDATA #IMPLIED kvg:number CDATA #IMPLIED kvg:tradForm CDATA #IMPLIED kvg:radicalForm CDATA #IMPLIED kvg:position CDATA #IMPLIED kvg:radical CDATA #IMPLIED kvg:phon CDATA #IMPLIED > <!ATTLIST path xmlns:kvg CDATA #FIXED "http://kanjivg.tagaini.net" kvg:type CDATA #IMPLIED >  <svg xmlns="http://www.w3.org/2000/svg" width="109" height="109" viewBox="0 0 109 109"> <g id="kvg:StrokePaths_05bb9-Kaisho" style="fill:none;stroke:#000000;stroke-width:3;stroke-linecap:round;stroke-linejoin:round;"> <g id="kvg:05bb9-Kaisho" kvg:element="容"> <g id="kvg:05bb9-Kaisho-g1" kvg:element="宀" kvg:position="top" kvg:radical="general"> <!--<path id="kvg:05bb9-Kaisho-s1" kvg:type="㇑a" d="M49.23,10.16c3.35,1.52,6,3.79,8.09,8.26"/>--> <g id="kvg:05bb9-Kaisho-g2" kvg:element="冖"> <!--<path id="kvg:05bb9-Kaisho-s2" kvg:type="㇔" d="M20.75,25.05c0,3.35-2.92,12.56-4.25,14.79"/>--> <!--<path id="kvg:05bb9-Kaisho-s3" kvg:type="㇖b" d="M22.51,26.11c9.15-0.95,57.98-4.36,65.41-4.72c11.6-0.56,2.46,6.9-0.43,8.93"/>--> </g> </g> <g id="kvg:05bb9-Kaisho-g3" kvg:element="谷" kvg:position="bottom"> <g id="kvg:05bb9-Kaisho-g4" kvg:position="top"> <!--<path id="kvg:05bb9-Kaisho-s4" kvg:type="㇒" d="M39.59,33.98c0.04,0.37,0.2,1.01-0.09,1.5c-2.25,3.77-7,9.02-15.58,14.33"/>--> <!--<path id="kvg:05bb9-Kaisho-s5" kvg:type="㇔" d="M66.21,34.51c5.79,3.23,12.83,9.39,14.81,12.7"/>--> </g> <g id="kvg:05bb9-Kaisho-g5" kvg:position="bottom"> <!--<path id="kvg:05bb9-Kaisho-s6" kvg:type="㇒" d="M51.32,42.05c0.09,0.77,0.39,2.08-0.19,3.1C46,54.25,35.5,65,17.51,75.86"/>--> <!--<path id="kvg:05bb9-Kaisho-s7" kvg:type="㇏" d="M51.48,44.84c9.29,9.08,26.6,22.04,35.12,26.85c2.11,1.2,4.55,1.98,6.55,2.37"/>--> <g id="kvg:05bb9-Kaisho-g6" kvg:element="口"> <!--<path id="kvg:05bb9-Kaisho-s8" kvg:type="㇑" d="M33.77,74.82c0.44,0.39,0.88,0.72,1.07,1.21c1.51,3.9,2.82,14.66,3.85,21.67"/>--> <!--<path id="kvg:05bb9-Kaisho-s9" kvg:type="㇕b" d="M35.81,76.45c11.89-1.8,26.39-2.7,33.67-3.48c2.49-0.27,4.01,1.79,3.63,2.95C71.31,81.5,69.95,87,68.28,93.84"/>--> <!--<path id="kvg:05bb9-Kaisho-s10" kvg:type="㇐b" d="M39.86,95.72c9.58-0.54,19.22-1.04,30.22-1.88"/>--> </g> </g> </g> </g> </g> <g id="kvg:StrokeNumbers_05bb9-Kaisho" style="font-size:8;fill:#808080">           </g> </svg> 