<?xml version="1.0" encoding="UTF-8"?>  <!DOCTYPE svg PUBLIC "-//W3C//DTD SVG 1.0//EN" "http://www.w3.org/TR/2001/REC-SVG-20010904/DTD/svg10.dtd"  <!ATTLIST g xmlns:kvg CDATA #FIXED "http://kanjivg.tagaini.net" kvg:element CDATA #IMPLIED kvg:variant CDATA #IMPLIED kvg:partial CDATA #IMPLIED kvg:original CDATA #IMPLIED kvg:part CDATA #IMPLIED kvg:number CDATA #IMPLIED kvg:tradForm CDATA #IMPLIED kvg:radicalForm CDATA #IMPLIED kvg:position CDATA #IMPLIED kvg:radical CDATA #IMPLIED kvg:phon CDATA #IMPLIED > <!ATTLIST path xmlns:kvg CDATA #FIXED "http://kanjivg.tagaini.net" kvg:type CDATA #IMPLIED >  <svg xmlns="http://www.w3.org/2000/svg" width="109" height="109" viewBox="0 0 109 109"> <g id="kvg:StrokePaths_05bbf-Kaisho" style="fill:none;stroke:#000000;stroke-width:3;stroke-linecap:round;stroke-linejoin:round;"> <g id="kvg:05bbf-Kaisho" kvg:element="宿"> <g id="kvg:05bbf-Kaisho-g1" kvg:element="宀" kvg:position="top" kvg:radical="general"> <!--<path id="kvg:05bbf-Kaisho-s1" kvg:type="㇑a" d="M49.64,10.5c3.42,1.19,7.55,5.69,8.22,9.04"/>--> <g id="kvg:05bbf-Kaisho-g2" kvg:element="冖"> <!--<path id="kvg:05bbf-Kaisho-s2" kvg:type="㇔" d="M21.87,25.63c0,3.48-3.34,13.55-4.62,15.87"/>--> <!--<path id="kvg:05bbf-Kaisho-s3" kvg:type="㇖b" d="M23.02,27.74c6.73-0.49,57.59-5.4,63.57-5.4c12.17,0,3.17,7.41-0.42,9.28"/>--> </g> </g> <g id="kvg:05bbf-Kaisho-g3" kvg:element="佰" kvg:position="bottom"> <g id="kvg:05bbf-Kaisho-g4" kvg:element="亻" kvg:variant="true" kvg:original="人"> <!--<path id="kvg:05bbf-Kaisho-s4" kvg:type="㇒" d="M32.77,37.56c0.21,1.75-0.06,4.04-0.73,5.54C27.77,52.65,22.79,61.21,13,72.83"/>--> <!--<path id="kvg:05bbf-Kaisho-s5" kvg:type="㇑" d="M26.96,57.44c1.06,7.29-0.73,34.85-0.25,41.25"/>--> </g> <g id="kvg:05bbf-Kaisho-g5" kvg:element="百"> <!--<path id="kvg:05bbf-Kaisho-s6" kvg:type="㇐" d="M43.62,45.06c1.08,0.34,3.05,0.46,4.12,0.34c9.7-1.03,26.01-4.66,36.79-4.97c1.79-0.05,2.87,0.17,3.76,0.34"/>--> <g id="kvg:05bbf-Kaisho-g6" kvg:position="top"> <!--<path id="kvg:05bbf-Kaisho-s7" kvg:type="㇔" d="M63.92,44.77c0.31,0.45,0.36,1,0.29,1.4c-0.44,2.32-1.45,6.09-5.18,12.72"/>--> </g> <g id="kvg:05bbf-Kaisho-g7" kvg:element="日" kvg:position="bottom"> <!--<path id="kvg:05bbf-Kaisho-s8" kvg:type="㇑" d="M48.01,58.41c0.57,0.96,0.98,1.45,1.14,2.73c0.99,7.76,0.65,29.73,0.88,36.05"/>--> <!--<path id="kvg:05bbf-Kaisho-s9" kvg:type="㇕a" d="M49.48,61.44c3.21-0.16,27.87-3.22,30.8-3.41c2.44-0.16,4,1.08,3.82,2.02c-0.38,1.93-2.35,24.45-2.65,34.7"/>--> <!--<path id="kvg:05bbf-Kaisho-s10" kvg:type="㇐a" d="M50.33,76.44c5.91-0.48,11.81-1.09,17.72-1.64c1.3-0.12,2.55-0.23,3.76-0.33"/>--> <!--<path id="kvg:05bbf-Kaisho-s11" kvg:type="㇐a" d="M50.97,94.05c10.54-0.64,20.26-2.19,30.18-2.21"/>--> </g> </g> </g> </g> </g> <g id="kvg:StrokeNumbers_05bbf-Kaisho" style="font-size:8;fill:#808080">            </g> </svg> 