<?xml version="1.0" encoding="UTF-8"?>  <!DOCTYPE svg PUBLIC "-//W3C//DTD SVG 1.0//EN" "http://www.w3.org/TR/2001/REC-SVG-20010904/DTD/svg10.dtd"  <!ATTLIST g xmlns:kvg CDATA #FIXED "http://kanjivg.tagaini.net" kvg:element CDATA #IMPLIED kvg:variant CDATA #IMPLIED kvg:partial CDATA #IMPLIED kvg:original CDATA #IMPLIED kvg:part CDATA #IMPLIED kvg:number CDATA #IMPLIED kvg:tradForm CDATA #IMPLIED kvg:radicalForm CDATA #IMPLIED kvg:position CDATA #IMPLIED kvg:radical CDATA #IMPLIED kvg:phon CDATA #IMPLIED > <!ATTLIST path xmlns:kvg CDATA #FIXED "http://kanjivg.tagaini.net" kvg:type CDATA #IMPLIED >  <svg xmlns="http://www.w3.org/2000/svg" width="109" height="109" viewBox="0 0 109 109"> <g id="kvg:StrokePaths_05bc5-Kaisho" style="fill:none;stroke:#000000;stroke-width:3;stroke-linecap:round;stroke-linejoin:round;"> <g id="kvg:05bc5-Kaisho" kvg:element="寅"> <g id="kvg:05bc5-Kaisho-g1" kvg:element="宀" kvg:position="top" kvg:radical="general"> <!--<path id="kvg:05bc5-Kaisho-s1" kvg:type="㇑a" d="M48.9,11.5c2.85,1.75,4.85,3.75,6.69,6.48"/>--> <g id="kvg:05bc5-Kaisho-g2" kvg:element="冖"> <!--<path id="kvg:05bc5-Kaisho-s2" kvg:type="㇔" d="M21.55,23.69c0,4.03-2.24,15.12-3.25,17.81"/>--> <!--<path id="kvg:05bc5-Kaisho-s3" kvg:type="㇖b" d="M21.82,27.19c1.37,0.08,54.12-5.6,62.16-5.4c9.27,0.22,2.27,6.97-0.4,8.84"/>--> </g> </g> <g id="kvg:05bc5-Kaisho-g3" kvg:position="bottom"> <!--<path id="kvg:05bc5-Kaisho-s4" kvg:type="㇐" d="M35,39.14c0.94,0.38,2.66,0.49,3.6,0.38c6.9-0.77,21.9-3.02,29.11-2.88c1.56,0.03,2.5,0.18,3.29,0.37"/>--> <g id="kvg:05bc5-Kaisho-g4" kvg:element="由"> <g id="kvg:05bc5-Kaisho-g5" kvg:element="田" kvg:part="1" kvg:partial="true"> <!--<path id="kvg:05bc5-Kaisho-s5" kvg:type="㇑" d="M30.07,52.45c0.31,0.47,0.81,1.28,0.98,1.85c1.37,4.73,3.46,15.49,4.26,24.2"/>--> <!--<path id="kvg:05bc5-Kaisho-s6" kvg:type="㇕a" d="M32.01,53.66c12.24-0.91,32.96-2.82,41.07-3.28c2.98-0.17,4.49,1.2,4.33,2.47c-0.59,4.64-2.53,16.95-4.66,22.97"/>--> </g> <g id="kvg:05bc5-Kaisho-g6" kvg:element="丨"> <!--<path id="kvg:05bc5-Kaisho-s7" kvg:type="㇑a" d="M52.49,40.07c0.8,0.61,1.28,2.5,1.28,3.31c0.03,7.97,0.15,29.9,0.15,31.98"/>--> </g> <g id="kvg:05bc5-Kaisho-g7" kvg:element="田" kvg:part="2" kvg:partial="true"> <!--<path id="kvg:05bc5-Kaisho-s8" kvg:type="㇐a" d="M34.81,64.73c9.18-0.61,18.36-1.76,27.54-2.35c1.11-0.07,2.19-0.14,3.22-0.21"/>--> <!--<path id="kvg:05bc5-Kaisho-s9" kvg:type="㇐a" d="M35.88,76.75c8.94-0.34,26.18-2.08,36.97-2.2"/>--> </g> </g> <g id="kvg:05bc5-Kaisho-g8" kvg:element="八" kvg:variant="true"> <g id="kvg:05bc5-Kaisho-g9" kvg:position="left"> <!--<path id="kvg:05bc5-Kaisho-s10" kvg:type="㇒" d="M40,83.89c0.05,0.35,0.11,0.9-0.11,1.4c-1.32,2.96-8.93,9.45-19.33,13.42"/>--> </g> <g id="kvg:05bc5-Kaisho-g10" kvg:position="right"> <!--<path id="kvg:05bc5-Kaisho-s11" kvg:type="㇔" d="M66.02,82.83c6.19,2.67,15.99,10.98,17.54,15.13"/>--> </g> </g> </g> </g> </g> <g id="kvg:StrokeNumbers_05bc5-Kaisho" style="font-size:8;fill:#808080">            </g> </svg> 