<?xml version="1.0" encoding="UTF-8"?>  <!DOCTYPE svg PUBLIC "-//W3C//DTD SVG 1.0//EN" "http://www.w3.org/TR/2001/REC-SVG-20010904/DTD/svg10.dtd"  <!ATTLIST g xmlns:kvg CDATA #FIXED "http://kanjivg.tagaini.net" kvg:element CDATA #IMPLIED kvg:variant CDATA #IMPLIED kvg:partial CDATA #IMPLIED kvg:original CDATA #IMPLIED kvg:part CDATA #IMPLIED kvg:number CDATA #IMPLIED kvg:tradForm CDATA #IMPLIED kvg:radicalForm CDATA #IMPLIED kvg:position CDATA #IMPLIED kvg:radical CDATA #IMPLIED kvg:phon CDATA #IMPLIED > <!ATTLIST path xmlns:kvg CDATA #FIXED "http://kanjivg.tagaini.net" kvg:type CDATA #IMPLIED >  <svg xmlns="http://www.w3.org/2000/svg" width="109" height="109" viewBox="0 0 109 109"> <g id="kvg:StrokePaths_05d29-Kaisho" style="fill:none;stroke:#000000;stroke-width:3;stroke-linecap:round;stroke-linejoin:round;"> <g id="kvg:05d29-Kaisho" kvg:element="崩"> <g id="kvg:05d29-Kaisho-g1" kvg:element="山" kvg:position="top" kvg:radical="general"> <!--<path id="kvg:05d29-Kaisho-s1" kvg:type="㇑a" d="M52.51,11.17c0.59,0.35,1.96,1.83,1.96,3.31c0,0.71-0.08,11.72-0.2,16.09"/>--> <!--<path id="kvg:05d29-Kaisho-s2" kvg:type="㇄a" d="M27.07,20.4c0.64,0.38,1.38,2,1.29,2.76c-0.42,3.4-0.86,4.34-1.62,7.55c-0.41,1.7-0.33,3.42,1.27,3.19c5.74-0.85,47.6-4.89,55.68-5.1"/>--> <!--<path id="kvg:05d29-Kaisho-s3" kvg:type="㇑" d="M83.95,15.01c0.65,0.38,1.36,2.84,1.29,3.61C84.75,23.5,84.5,29,83.9,33.33"/>--> </g> <g id="kvg:05d29-Kaisho-g2" kvg:element="朋" kvg:position="bottom"> <g id="kvg:05d29-Kaisho-g3" kvg:element="月" kvg:position="left"> <!--<path id="kvg:05d29-Kaisho-s4" kvg:type="㇒" d="M24.69,43.06c0.8,0.75,1.11,2.46,1.11,3.26c0,6.68,0.27,9.85,0.27,18.35C26.06,77.5,21.5,93,14.02,101"/>--> <!--<path id="kvg:05d29-Kaisho-s5" kvg:type="㇆a" d="M27.21,44.58c2.74-0.19,14.19-1.88,16.24-2.09c3.66-0.38,3.66,1.65,3.66,2.86c0,6.47-0.19,32.17-0.19,46.38c0,9.9-3.99,3.93-6.28,2.21"/>--> <!--<path id="kvg:05d29-Kaisho-s6" kvg:type="㇐a" d="M27.21,60.24c2.89-0.28,5.26-0.72,8.13-1.08c0.86-0.11,1.73-0.22,2.59-0.32"/>--> <!--<path id="kvg:05d29-Kaisho-s7" kvg:type="㇐a" d="M26.06,73.54c3.26-0.25,6.51-0.59,9.77-0.89c0.78-0.07,1.57-0.14,2.38-0.21"/>--> </g> <g id="kvg:05d29-Kaisho-g4" kvg:element="月" kvg:position="right"> <!--<path id="kvg:05d29-Kaisho-s8" kvg:type="㇒" d="M63.25,41.56c0.72,0.74,0.94,2.44,0.94,3.22c0,3.48,0.24,13.34,0.24,18.32c0,13.41-4.33,29.8-10.82,35.16"/>--> <!--<path id="kvg:05d29-Kaisho-s9" kvg:type="㇆a" d="M65,43.46c2.28-0.19,18.48-2.76,20.18-2.97c3.05-0.38,3.05,1.65,3.05,2.86c0,6.47-0.57,35.17-0.57,49.38c0,9.9-3.43,4.57-5.33,2.86"/>--> <!--<path id="kvg:05d29-Kaisho-s10" kvg:type="㇐a" d="M65.38,58c3.36-0.4,6.72-0.74,10.08-1.08c1.08-0.11,2.16-0.21,3.22-0.32"/>--> <!--<path id="kvg:05d29-Kaisho-s11" kvg:type="㇐a" d="M64.43,72.52c3.6-0.34,7.21-0.63,10.82-0.89c0.99-0.07,2.98-0.14,3.97-0.21"/>--> </g> </g> </g> </g> <g id="kvg:StrokeNumbers_05d29-Kaisho" style="font-size:8;fill:#808080">            </g> </svg> 