<?xml version="1.0" encoding="UTF-8"?>  <!DOCTYPE svg PUBLIC "-//W3C//DTD SVG 1.0//EN" "http://www.w3.org/TR/2001/REC-SVG-20010904/DTD/svg10.dtd"  <!ATTLIST g xmlns:kvg CDATA #FIXED "http://kanjivg.tagaini.net" kvg:element CDATA #IMPLIED kvg:variant CDATA #IMPLIED kvg:partial CDATA #IMPLIED kvg:original CDATA #IMPLIED kvg:part CDATA #IMPLIED kvg:number CDATA #IMPLIED kvg:tradForm CDATA #IMPLIED kvg:radicalForm CDATA #IMPLIED kvg:position CDATA #IMPLIED kvg:radical CDATA #IMPLIED kvg:phon CDATA #IMPLIED > <!ATTLIST path xmlns:kvg CDATA #FIXED "http://kanjivg.tagaini.net" kvg:type CDATA #IMPLIED >  <svg xmlns="http://www.w3.org/2000/svg" width="109" height="109" viewBox="0 0 109 109"> <g id="kvg:StrokePaths_05d69-Kaisho" style="fill:none;stroke:#000000;stroke-width:3;stroke-linecap:round;stroke-linejoin:round;"> <g id="kvg:05d69-Kaisho" kvg:element="嵩"> <g id="kvg:05d69-Kaisho-g1" kvg:element="山" kvg:position="top" kvg:radical="general"> <!--<path id="kvg:05d69-Kaisho-s1" kvg:type="㇑a" d="M51.5,9.15c0.49,0.35,1.54,2.64,1.64,3.34c0.1,0.7-0.06,5.53-0.16,9.93"/>--> <!--<path id="kvg:05d69-Kaisho-s2" kvg:type="㇄a" d="M26.8,15.89c0.49,0.35,0.72,2.38,0.49,3.05c-0.79,2.31-1.29,4.31-1.63,6.07c-0.3,1.58-0.25,2.19,0.98,1.95C45,23.25,74.11,21.44,80.3,21.24"/>--> <!--<path id="kvg:05d69-Kaisho-s3" kvg:type="㇑" d="M81.77,10.88c0.49,0.35,1.15,2.64,0.99,3.34c-1,4.29-1.5,7.54-2.79,12.14"/>--> </g> <g id="kvg:05d69-Kaisho-g2" kvg:element="高" kvg:position="bottom"> <g id="kvg:05d69-Kaisho-g3" kvg:position="top"> <g id="kvg:05d69-Kaisho-g4" kvg:element="亠"> <!--<path id="kvg:05d69-Kaisho-s4" kvg:type="㇑a" d="M50.72,28.75C53,30,55.25,32,56.44,34.09"/>--> <!--<path id="kvg:05d69-Kaisho-s5" kvg:type="㇐" d="M20.35,40.95c1.27,0.09,4.16,0.6,5.39,0.48c9.96-1.01,44.45-5.15,57.99-5.41c2.09-0.04,3.16,0.04,4.71,0.61"/>--> </g> <g id="kvg:05d69-Kaisho-g5" kvg:element="口"> <!--<path id="kvg:05d69-Kaisho-s6" kvg:type="㇑" d="M36.08,47.05c0.5,0.25,1.02,0.45,1.24,0.76c1.74,2.45,2.48,7.72,3.67,12.13"/>--> <!--<path id="kvg:05d69-Kaisho-s7" kvg:type="㇕b" d="M38.7,48.22c10.27-1.28,22.85-3.19,28.72-3.52c2.15-0.12,3.07,0.8,2.63,2.66c-0.72,3.05-1.84,3.79-3.73,7.76"/>--> <!--<path id="kvg:05d69-Kaisho-s8" kvg:type="㇐b" d="M41.22,58.29c6.91-0.36,17.78-2.26,27.26-2.82"/>--> </g> </g> <g id="kvg:05d69-Kaisho-g6" kvg:position="bottom"> <g id="kvg:05d69-Kaisho-g7" kvg:element="冂"> <!--<path id="kvg:05d69-Kaisho-s9" kvg:type="㇑" d="M22.5,65.78c0.7,1.19,1.68,2.61,1.9,4.75c0.52,4.99,3.21,21.12,3.94,28.72"/>--> <!--<path id="kvg:05d69-Kaisho-s10" kvg:type="㇆a" d="M25.77,68.13c9.6-0.47,54.16-4.89,55.92-5.18c4.37-0.71,7,0.95,6.07,7.36c-1.29,8.82-2.35,18.51-5.34,25.42c-2.67,6.18-4.76,1.66-7.33,0"/>--> </g> <g id="kvg:05d69-Kaisho-g8" kvg:element="口"> <!--<path id="kvg:05d69-Kaisho-s11" kvg:type="㇑" d="M40.4,75.24c0.4,0.26,0.8,0.48,0.98,0.8c1.37,2.58,2.52,8.68,3.46,13.31"/>--> <!--<path id="kvg:05d69-Kaisho-s12" kvg:type="㇕b" d="M42.37,76.48c8.1-1.34,16.95-2.69,21.57-3.17c1.88-0.19,3.69,1.06,3.51,2.3c-0.46,3.09-1.68,4.81-3.17,8.97"/>--> <!--<path id="kvg:05d69-Kaisho-s13" kvg:type="㇐b" d="M45.02,87.09c5.45-0.38,12.97-1.54,20.45-2.13"/>--> </g> </g> </g> </g> </g> <g id="kvg:StrokeNumbers_05d69-Kaisho" style="font-size:8;fill:#808080">              </g> </svg> 