<?xml version="1.0" encoding="UTF-8"?>  <!DOCTYPE svg PUBLIC "-//W3C//DTD SVG 1.0//EN" "http://www.w3.org/TR/2001/REC-SVG-20010904/DTD/svg10.dtd"  <!ATTLIST g xmlns:kvg CDATA #FIXED "http://kanjivg.tagaini.net" kvg:element CDATA #IMPLIED kvg:variant CDATA #IMPLIED kvg:partial CDATA #IMPLIED kvg:original CDATA #IMPLIED kvg:part CDATA #IMPLIED kvg:number CDATA #IMPLIED kvg:tradForm CDATA #IMPLIED kvg:radicalForm CDATA #IMPLIED kvg:position CDATA #IMPLIED kvg:radical CDATA #IMPLIED kvg:phon CDATA #IMPLIED > <!ATTLIST path xmlns:kvg CDATA #FIXED "http://kanjivg.tagaini.net" kvg:type CDATA #IMPLIED >  <svg xmlns="http://www.w3.org/2000/svg" width="109" height="109" viewBox="0 0 109 109"> <g id="kvg:StrokePaths_05de8-HzFst" style="fill:none;stroke:#000000;stroke-width:3;stroke-linecap:round;stroke-linejoin:round;"> <g id="kvg:05de8-HzFst" kvg:element="巨"> <g id="kvg:05de8-HzFst-g1" kvg:element="匚" kvg:part="1" kvg:variant="true" kvg:radical="nelson"> <!--<path id="kvg:05de8-HzFst-s1" kvg:type="㇑" d="M27.1,22.11c6.73-0.68,37.92-3.69,53.56-4.36c2.37-0.1,3.79-0.22,4.98,0.03"/>--> </g> <g id="kvg:05de8-HzFst-g2" kvg:element="二" kvg:part="1" kvg:radical="tradit"> <!--<path id="kvg:05de8-HzFst-s2" kvg:type="㇐" d="M25.04,19.84c1.02,0.46,1.63,2.05,1.84,2.97c0.2,0.91,0,62.48-0.2,68.19"/>--> </g> <!--<path id="kvg:05de8-HzFst-s3" kvg:type="㇕" d="M27.5,45.04c16.11-1.68,36.82-3.92,48-5.07c4.53-0.47,4.99,1.28,4.16,4.88c-1.04,4.48-2.82,11.85-3.98,17.21"/>--> <!--<path id="kvg:05de8-HzFst-s4" kvg:type="㇐" d="M27.07,67.08c6.73-0.68,44.62-4.42,50.95-4.83"/>--> <g id="kvg:05de8-HzFst-g3" kvg:element="二" kvg:part="2" kvg:radical="tradit"> <g id="kvg:05de8-HzFst-g4" kvg:element="匚" kvg:part="2" kvg:variant="true" kvg:radical="nelson"> <!--<path id="kvg:05de8-HzFst-s5" kvg:type="㇐" d="M27.1,90.61c6.73-0.68,40.11-2.73,55.75-3.4c2.37-0.1,3.79-0.22,4.98,0.03"/>--> </g> </g> </g> </g> <g id="kvg:StrokeNumbers_05de8-HzFst" style="font-size:8;fill:#808080">      </g> </svg> 