<?xml version="1.0" encoding="UTF-8"?>  <!DOCTYPE svg PUBLIC "-//W3C//DTD SVG 1.0//EN" "http://www.w3.org/TR/2001/REC-SVG-20010904/DTD/svg10.dtd"  <!ATTLIST g xmlns:kvg CDATA #FIXED "http://kanjivg.tagaini.net" kvg:element CDATA #IMPLIED kvg:variant CDATA #IMPLIED kvg:partial CDATA #IMPLIED kvg:original CDATA #IMPLIED kvg:part CDATA #IMPLIED kvg:number CDATA #IMPLIED kvg:tradForm CDATA #IMPLIED kvg:radicalForm CDATA #IMPLIED kvg:position CDATA #IMPLIED kvg:radical CDATA #IMPLIED kvg:phon CDATA #IMPLIED > <!ATTLIST path xmlns:kvg CDATA #FIXED "http://kanjivg.tagaini.net" kvg:type CDATA #IMPLIED >  <svg xmlns="http://www.w3.org/2000/svg" width="109" height="109" viewBox="0 0 109 109"> <g id="kvg:StrokePaths_05e30-Kaisho" style="fill:none;stroke:#000000;stroke-width:3;stroke-linecap:round;stroke-linejoin:round;"> <g id="kvg:05e30-Kaisho" kvg:element="帰"> <g id="kvg:05e30-Kaisho-g1" kvg:element="刂" kvg:variant="true" kvg:original="刀" kvg:position="left" kvg:radical="tradit"> <!--<path id="kvg:05e30-Kaisho-s1" kvg:type="㇑" d="M16.21,34.87c0.09,0.26,1.17,1.35,1.26,2.99c0.4,7.9-0.26,21.57-0.26,24.26"/>--> <!--<path id="kvg:05e30-Kaisho-s2" kvg:type="㇚" d="M26.46,17.87c0.09,0.26,1.17,1.35,1.26,2.99c0.4,7.9-0.1,28.57-0.26,31.26C27,59.75,25.75,75,17.5,84.25"/>--> </g> <g id="kvg:05e30-Kaisho-g2" kvg:element="帚" kvg:position="right"> <g id="kvg:05e30-Kaisho-g3" kvg:element="⺕" kvg:variant="true" kvg:original="彑" kvg:radical="nelson"> <!--<path id="kvg:05e30-Kaisho-s3" kvg:type="㇕" d="M45.75,15.25c1.01,0.24,2.5,0.43,4.18,0.43c0.95,0,26.55-2.68,28.07-2.93c1.52-0.24,3.42,0.75,3.05,2.44c-1.33,6.1-3.03,17.55-3.6,21.45"/>--> <!--<path id="kvg:05e30-Kaisho-s4" kvg:type="㇐c" d="M44.89,26.82c0.68,0.23,1.94,0.3,2.62,0.23c5.74-0.55,13.9-1.43,18.74-1.86c2.32-0.2,4.35-0.35,5.85-0.39"/>--> <!--<path id="kvg:05e30-Kaisho-s5" kvg:type="㇐c" d="M44.18,37.6c0.63,0.21,2.79,0.21,3.42,0.21c5.9-0.06,18.9-2.56,27.64-2.37c1.05,0.02,1.68,0.1,2.21,0.2"/>--> </g> <g id="kvg:05e30-Kaisho-g4" kvg:element="冖"> <!--<path id="kvg:05e30-Kaisho-s6" kvg:type="㇔" d="M41.19,48.92c-0.11,3.3-2.75,8.94-3.69,10.91"/>--> <!--<path id="kvg:05e30-Kaisho-s7" kvg:type="㇖b" d="M42.77,50.34c2.41,0,3.72-0.2,5.65-0.44c14.33-1.73,26.61-3.54,38.71-4.18c8.88-0.47,2.13,5.53-1.47,8.22"/>--> </g> <g id="kvg:05e30-Kaisho-g5" kvg:element="巾"> <!--<path id="kvg:05e30-Kaisho-s8" kvg:type="㇑" d="M45.88,59.25c0.42,0.26,1.31,1.95,1.4,2.47c0.09,0.52-0.05,15.27-0.14,18.52"/>--> <!--<path id="kvg:05e30-Kaisho-s9" kvg:type="㇆a" d="M47.65,61.62c2.64-0.18,27.77-3.36,29.74-3.47c2.31-0.13,3.81,2.29,3.73,3.47c-0.42,5.97,0.19,10.6-1.06,16.47c-1.31,6.16-3.7,0.04-4.58-0.87"/>--> <!--<path id="kvg:05e30-Kaisho-s10" kvg:type="㇑" d="M61.84,50.88c0.34,0.26,1.08,1.95,1.15,2.47S62.94,94,62.87,97.25"/>--> </g> </g> </g> </g> <g id="kvg:StrokeNumbers_05e30-Kaisho" style="font-size:8;fill:#808080">           </g> </svg> 