<?xml version="1.0" encoding="UTF-8"?>  <!DOCTYPE svg PUBLIC "-//W3C//DTD SVG 1.0//EN" "http://www.w3.org/TR/2001/REC-SVG-20010904/DTD/svg10.dtd"  <!ATTLIST g xmlns:kvg CDATA #FIXED "http://kanjivg.tagaini.net" kvg:element CDATA #IMPLIED kvg:variant CDATA #IMPLIED kvg:partial CDATA #IMPLIED kvg:original CDATA #IMPLIED kvg:part CDATA #IMPLIED kvg:number CDATA #IMPLIED kvg:tradForm CDATA #IMPLIED kvg:radicalForm CDATA #IMPLIED kvg:position CDATA #IMPLIED kvg:radical CDATA #IMPLIED kvg:phon CDATA #IMPLIED > <!ATTLIST path xmlns:kvg CDATA #FIXED "http://kanjivg.tagaini.net" kvg:type CDATA #IMPLIED >  <svg xmlns="http://www.w3.org/2000/svg" width="109" height="109" viewBox="0 0 109 109"> <g id="kvg:StrokePaths_05e9c-Kaisho" style="fill:none;stroke:#000000;stroke-width:3;stroke-linecap:round;stroke-linejoin:round;"> <g id="kvg:05e9c-Kaisho" kvg:element="府"> <g id="kvg:05e9c-Kaisho-g1" kvg:element="广" kvg:position="tare" kvg:radical="general"> <!--<path id="kvg:05e9c-Kaisho-s1" kvg:type="㇑a" d="M49.75,11.13c2.15,1.01,6.7,6.28,7.12,8.3"/>--> <g id="kvg:05e9c-Kaisho-g2" kvg:element="厂"> <!--<path id="kvg:05e9c-Kaisho-s2" kvg:type="㇐" d="M20.63,27.23c1.52,0.54,4.3,0.63,5.82,0.54c15.8-0.91,39.3-5.02,59.11-5.23c2.53-0.03,4.05,0.26,5.31,0.53"/>--> <!--<path id="kvg:05e9c-Kaisho-s3" kvg:type="㇒" d="M25.49,30c0.05,1.36,0.1,3.52-0.1,5.48c-1.16,11.55-3.79,39.55-16.34,51.99"/>--> </g> </g> <g id="kvg:05e9c-Kaisho-g3" kvg:element="付"> <g id="kvg:05e9c-Kaisho-g4" kvg:element="亻" kvg:variant="true" kvg:original="人" kvg:position="left"> <!--<path id="kvg:05e9c-Kaisho-s4" kvg:type="㇒" d="M45.68,33.38c0.22,1.56-0.06,3.6-0.77,4.93c-4.54,8.51-10.75,19.22-21.16,29.58"/>--> <!--<path id="kvg:05e9c-Kaisho-s5" kvg:type="㇑" d="M37.85,56.03c1.15,0.47,1.25,1.9,1.25,3.19c0,14.77-0.51,30.77-0.51,36.8"/>--> </g> <g id="kvg:05e9c-Kaisho-g5" kvg:element="寸" kvg:position="right"> <!--<path id="kvg:05e9c-Kaisho-s6" kvg:type="㇐" d="M47.45,53.06c1.4,0.62,3.96,0.34,5.38,0.23C63,52.5,78,50.5,91.22,48.86c2.32-0.29,3.74,0.3,4.91,0.61"/>--> <!--<path id="kvg:05e9c-Kaisho-s7" kvg:type="㇚" d="M76.48,31.08c0.08,0.37,1.11,1.94,1.11,4.3c0,17.87,0.27,51.23,0.27,55.09c0,11.28-6.27,0.89-8.21-0.31"/>--> <!--<path id="kvg:05e9c-Kaisho-s8" kvg:type="㇔" d="M56.61,67.15c2.32,1.55,6.01,6.38,6.59,8.8"/>--> </g> </g> </g> </g> <g id="kvg:StrokeNumbers_05e9c-Kaisho" style="font-size:8;fill:#808080">         </g> </svg> 