<?xml version="1.0" encoding="UTF-8"?>  <!DOCTYPE svg PUBLIC "-//W3C//DTD SVG 1.0//EN" "http://www.w3.org/TR/2001/REC-SVG-20010904/DTD/svg10.dtd"  <!ATTLIST g xmlns:kvg CDATA #FIXED "http://kanjivg.tagaini.net" kvg:element CDATA #IMPLIED kvg:variant CDATA #IMPLIED kvg:partial CDATA #IMPLIED kvg:original CDATA #IMPLIED kvg:part CDATA #IMPLIED kvg:number CDATA #IMPLIED kvg:tradForm CDATA #IMPLIED kvg:radicalForm CDATA #IMPLIED kvg:position CDATA #IMPLIED kvg:radical CDATA #IMPLIED kvg:phon CDATA #IMPLIED > <!ATTLIST path xmlns:kvg CDATA #FIXED "http://kanjivg.tagaini.net" kvg:type CDATA #IMPLIED >  <svg xmlns="http://www.w3.org/2000/svg" width="109" height="109" viewBox="0 0 109 109"> <g id="kvg:StrokePaths_05ea6-Kaisho" style="fill:none;stroke:#000000;stroke-width:3;stroke-linecap:round;stroke-linejoin:round;"> <g id="kvg:05ea6-Kaisho" kvg:element="度"> <g id="kvg:05ea6-Kaisho-g1" kvg:element="广" kvg:position="tare" kvg:radical="general"> <!--<path id="kvg:05ea6-Kaisho-s1" kvg:type="㇑a" d="M51.55,11.63c2.27,0.77,7.08,5.77,7.53,7.3"/>--> <g id="kvg:05ea6-Kaisho-g2" kvg:element="厂"> <!--<path id="kvg:05ea6-Kaisho-s2" kvg:type="㇐" d="M22.63,26.73c1.52,0.54,4.3,0.63,5.82,0.54C44.25,26.36,66,23,83.56,22.04c2.53-0.14,4.05,0.26,5.31,0.53"/>--> <!--<path id="kvg:05ea6-Kaisho-s3" kvg:type="㇒" d="M27.49,29.5c0.04,1.59,0.03,4.1-0.09,6.38c-0.91,17.62-5,46.09-16.6,60.59"/>--> </g> </g> <g id="kvg:05ea6-Kaisho-g3" kvg:element="廿"> <g id="kvg:05ea6-Kaisho-g4" kvg:element="十"> <!--<path id="kvg:05ea6-Kaisho-s4" kvg:type="㇐" d="M33.25,41.71c1.45,0.44,4.11,0.52,5.56,0.44c7.58-0.4,37.94-4.4,45.86-4.64c2.42-0.07,3.87,0.21,5.08,0.43"/>--> <!--<path id="kvg:05ea6-Kaisho-s5" kvg:type="㇑" d="M45.6,31.89c1.19,0.4,1.91,1.82,2.15,2.63c0.24,0.81,1,14.73,1.76,21.23"/>--> </g> <!--<path id="kvg:05ea6-Kaisho-s6" kvg:type="㇑a" d="M68.21,29.25c1.19,0.4,1.91,1.82,2.15,2.63c0.24,0.81-1.41,11.33-2.13,18.82"/>--> <!--<path id="kvg:05ea6-Kaisho-s7" kvg:type="㇐b" d="M49.51,53.83C57,52.75,61,52.25,70.25,51.11"/>--> </g> <g id="kvg:05ea6-Kaisho-g5" kvg:element="又"> <!--<path id="kvg:05ea6-Kaisho-s8" kvg:type="㇇" d="M43.11,64.66c1.51,0.26,1.7,0.66,4.72,0.26c3.02-0.4,17.75-4.82,19.83-5.22s3.64,1.48,2.83,2.9C60.75,79.75,43.25,93,26.43,98.75"/>--> <!--<path id="kvg:05ea6-Kaisho-s9" kvg:type="㇏" d="M40.91,69.53c4.62,0.66,27.17,18.43,43.25,25.71c2.5,1.13,4.33,1.89,6.66,2.27"/>--> </g> </g> </g> <g id="kvg:StrokeNumbers_05ea6-Kaisho" style="font-size:8;fill:#808080">          </g> </svg> 