<?xml version="1.0" encoding="UTF-8"?>  <!DOCTYPE svg PUBLIC "-//W3C//DTD SVG 1.0//EN" "http://www.w3.org/TR/2001/REC-SVG-20010904/DTD/svg10.dtd"  <!ATTLIST g xmlns:kvg CDATA #FIXED "http://kanjivg.tagaini.net" kvg:element CDATA #IMPLIED kvg:variant CDATA #IMPLIED kvg:partial CDATA #IMPLIED kvg:original CDATA #IMPLIED kvg:part CDATA #IMPLIED kvg:number CDATA #IMPLIED kvg:tradForm CDATA #IMPLIED kvg:radicalForm CDATA #IMPLIED kvg:position CDATA #IMPLIED kvg:radical CDATA #IMPLIED kvg:phon CDATA #IMPLIED > <!ATTLIST path xmlns:kvg CDATA #FIXED "http://kanjivg.tagaini.net" kvg:type CDATA #IMPLIED >  <svg xmlns="http://www.w3.org/2000/svg" width="109" height="109" viewBox="0 0 109 109"> <g id="kvg:StrokePaths_05f53-Kaisho" style="fill:none;stroke:#000000;stroke-width:3;stroke-linecap:round;stroke-linejoin:round;"> <g id="kvg:05f53-Kaisho" kvg:element="当"> <g id="kvg:05f53-Kaisho-g1" kvg:element="⺌" kvg:variant="true" kvg:original="小" kvg:position="top" kvg:radical="general"> <!--<path id="kvg:05f53-Kaisho-s1" kvg:type="㇑" d="M51.61,13.62c0.18,0.26,2.39,1.35,2.56,2.99C55,24.51,54.5,38.5,54.5,49"/>--> <!--<path id="kvg:05f53-Kaisho-s2" kvg:type="㇔" d="M24.27,24.83c3.99,2.76,10.3,11.34,11.29,15.63"/>--> <!--<path id="kvg:05f53-Kaisho-s3" kvg:type="㇒" d="M83.99,19c0.04,0.48,0.08,1.24-0.08,1.94c-0.93,4.08-6.28,13.05-13.61,18.53"/>--> </g> <g id="kvg:05f53-Kaisho-g2" kvg:element="⺕" kvg:variant="true" kvg:original="彑" kvg:position="bottom"> <!--<path id="kvg:05f53-Kaisho-s4" kvg:type="㇕" d="M24.45,50.18c4.13,0.99,4.37,0.97,7.09,0.79C50.25,49.75,76,47.5,81.15,47c3.82-0.37,5.35,3.03,4.91,5.98C84.5,63.25,82.5,81.5,81.33,92.64"/>--> <!--<path id="kvg:05f53-Kaisho-s5" kvg:type="㇐c" d="M26,70.24c2.66,0.2,4.74,0.53,7.68,0.4c8.57-0.39,25.57-2.64,33.94-2.96c3.26-0.13,5.91,0.4,7.38,0.59"/>--> <!--<path id="kvg:05f53-Kaisho-s6" kvg:type="㇐c" d="M24.22,92.41c1.48,0.2,4.14,0.7,5.91,0.6c16.24-0.99,31.78-2.58,46.54-2.98c2.36-0.06,2.84,0,4.61,0.2"/>--> </g> </g> </g> <g id="kvg:StrokeNumbers_05f53-Kaisho" style="font-size:8;fill:#808080">       </g> </svg> 