<?xml version="1.0" encoding="UTF-8"?>  <!DOCTYPE svg PUBLIC "-//W3C//DTD SVG 1.0//EN" "http://www.w3.org/TR/2001/REC-SVG-20010904/DTD/svg10.dtd"  <!ATTLIST g xmlns:kvg CDATA #FIXED "http://kanjivg.tagaini.net" kvg:element CDATA #IMPLIED kvg:variant CDATA #IMPLIED kvg:partial CDATA #IMPLIED kvg:original CDATA #IMPLIED kvg:part CDATA #IMPLIED kvg:number CDATA #IMPLIED kvg:tradForm CDATA #IMPLIED kvg:radicalForm CDATA #IMPLIED kvg:position CDATA #IMPLIED kvg:radical CDATA #IMPLIED kvg:phon CDATA #IMPLIED > <!ATTLIST path xmlns:kvg CDATA #FIXED "http://kanjivg.tagaini.net" kvg:type CDATA #IMPLIED >  <svg xmlns="http://www.w3.org/2000/svg" width="109" height="109" viewBox="0 0 109 109"> <g id="kvg:StrokePaths_05f66-Kaisho" style="fill:none;stroke:#000000;stroke-width:3;stroke-linecap:round;stroke-linejoin:round;"> <g id="kvg:05f66-Kaisho" kvg:element="彦"> <g id="kvg:05f66-Kaisho-g1" kvg:element="立" kvg:radical="nelson"> <!--<path id="kvg:05f66-Kaisho-s1" kvg:type="㇑a" d="M50.14,8.59c2.89,1.18,6.37,4.12,7.38,7.48"/>--> <!--<path id="kvg:05f66-Kaisho-s2" kvg:type="㇐" d="M31.98,22.97c1.09,0.24,2.37,0.28,3.46,0.24c11.62-0.46,20.26-2.46,38.38-2.77c1.82-0.03,2.91,0.12,3.83,0.24"/>--> <!--<path id="kvg:05f66-Kaisho-s3" kvg:type="㇔" d="M38.21,29.17c4.04,5.5,6.24,11.37,6.6,14.99"/>--> <!--<path id="kvg:05f66-Kaisho-s4" kvg:type="㇒" d="M66.91,23.92c0.67,0.64,0.86,1.99,0.67,2.48C66,30.5,62.09,39.74,60.75,42.5"/>--> <g id="kvg:05f66-Kaisho-g2" kvg:element="厂" kvg:part="1"> <!--<path id="kvg:05f66-Kaisho-s5" kvg:type="㇐" d="M25,47.75c1.07,0.27,2.33,0.39,3.39,0.27c14.97-1.67,40.61-4.77,55.48-5.44c1.78-0.08,2.85,0.13,3.74,0.26"/>--> </g> </g> <g id="kvg:05f66-Kaisho-g3" kvg:element="厂" kvg:part="2"> <!--<path id="kvg:05f66-Kaisho-s6" kvg:type="㇒" d="M30.01,50.64c0.55,0.36,0.97,1.69,0.9,2.84C30,68.75,23.75,87.5,13.81,93.22"/>--> </g> <g id="kvg:05f66-Kaisho-g4" kvg:element="彡" kvg:radical="tradit"> <g id="kvg:05f66-Kaisho-g5" kvg:element="丿"> <!--<path id="kvg:05f66-Kaisho-s7" kvg:type="㇒" d="M71,50.25c0.08,0.37,0.17,0.94-0.17,1.47c-2.01,3.09-13.54,9.88-29.33,14.03"/>--> </g> <g id="kvg:05f66-Kaisho-g6" kvg:element="丿"> <!--<path id="kvg:05f66-Kaisho-s8" kvg:type="㇒" d="M74.99,64.25c0.09,0.38,0.18,0.99-0.17,1.54c-2.13,3.24-14.35,10.36-31.07,14.71"/>--> </g> <g id="kvg:05f66-Kaisho-g7" kvg:element="丿"> <!--<path id="kvg:05f66-Kaisho-s9" kvg:type="㇒" d="M82.46,78.5c0.12,0.47,0.26,1.22-0.24,1.89c-2.94,3.99-19.84,12.75-42.97,18.11"/>--> </g> </g> </g> </g> <g id="kvg:StrokeNumbers_05f66-Kaisho" style="font-size:8;fill:#808080">          </g> </svg> 