<?xml version="1.0" encoding="UTF-8"?>  <!DOCTYPE svg PUBLIC "-//W3C//DTD SVG 1.0//EN" "http://www.w3.org/TR/2001/REC-SVG-20010904/DTD/svg10.dtd"  <!ATTLIST g xmlns:kvg CDATA #FIXED "http://kanjivg.tagaini.net" kvg:element CDATA #IMPLIED kvg:variant CDATA #IMPLIED kvg:partial CDATA #IMPLIED kvg:original CDATA #IMPLIED kvg:part CDATA #IMPLIED kvg:number CDATA #IMPLIED kvg:tradForm CDATA #IMPLIED kvg:radicalForm CDATA #IMPLIED kvg:position CDATA #IMPLIED kvg:radical CDATA #IMPLIED kvg:phon CDATA #IMPLIED > <!ATTLIST path xmlns:kvg CDATA #FIXED "http://kanjivg.tagaini.net" kvg:type CDATA #IMPLIED >  <svg xmlns="http://www.w3.org/2000/svg" width="109" height="109" viewBox="0 0 109 109"> <g id="kvg:StrokePaths_05f99-HzFst" style="fill:none;stroke:#000000;stroke-width:3;stroke-linecap:round;stroke-linejoin:round;"> <g id="kvg:05f99-HzFst" kvg:element="徙"> <g id="kvg:05f99-HzFst-g1" kvg:element="彳" kvg:position="left" kvg:radical="general"> <!--<path id="kvg:05f99-HzFst-s1" kvg:type="㇒" d="M34.59,15.75c0.06,0.48,0.27,1.33-0.11,1.92C31.8,21.81,23.73,31.78,15.87,36"/>--> <g id="kvg:05f99-HzFst-g2" kvg:element="亻" kvg:variant="true" kvg:original="人"> <!--<path id="kvg:05f99-HzFst-s2" kvg:type="㇒" d="M36.85,35.25c0.07,0.71,0.32,1.97-0.13,2.84C33.53,44.22,24.75,56.5,13.5,65.25"/>--> <!--<path id="kvg:05f99-HzFst-s3" kvg:type="㇑" d="M27.22,55c0.36,0.25,1.07,1.65,1.15,2.16c0.07,0.51,0,35.15-0.07,38.34"/>--> </g> </g> <g id="kvg:05f99-HzFst-g3" kvg:position="right"> <g id="kvg:05f99-HzFst-g4" kvg:element="止"> <g id="kvg:05f99-HzFst-g5" kvg:element="卜" kvg:original="ト"> <!--<path id="kvg:05f99-HzFst-s4" kvg:type="㇐" d="M66.88,30.5c7.12-0.75,11.87-2.25,18.85-3c1.73-0.19,2.18-0.25,3.26,0"/>--> <!--<path id="kvg:05f99-HzFst-s5" kvg:type="㇑" d="M64.37,16c1.09,0.5,1.74,2.25,1.96,3.25c0.22,1,0.5,19.75,0.28,26"/>--> </g> <!--<path id="kvg:05f99-HzFst-s6" kvg:type="㇑" d="M49.37,25.25c1.09,0.5,1.74,2.25,1.96,3.25c0.22,1,1.5,12.25,1.28,18.5"/>--> <!--<path id="kvg:05f99-HzFst-s7" kvg:type="㇐" d="M41,47.49c0.73,0.23,2.7,0.77,4.66,0.69c10.56-0.46,28.28-3.86,41.35-5.1c1.96-0.18,5.37,0.46,6.49,0.69"/>--> </g> <!--<path id="kvg:05f99-HzFst-s8" kvg:type="㇑" d="M65.86,48.5c0.39,0.46,1.31,2.48,1.31,3.4c0,6.25,0.36,23.91,0.28,29.63"/>--> <!--<path id="kvg:05f99-HzFst-s9" kvg:type="㇐" d="M88.92,60.67c-1.24,0-2.72,0.02-4.29,0.31c-7.42,1.37-15.89,3.06-17.1,3.06"/>--> <!--<path id="kvg:05f99-HzFst-s10" kvg:type="㇒" d="M51.84,57.31c0.08,0.88,0.56,2.25,0.38,3.53C50.64,71.92,49.29,81.53,38,92.21"/>--> <!--<path id="kvg:05f99-HzFst-s11" kvg:type="㇏" d="M50.83,72.47c10.24,4.45,27.8,17.8,34.49,20.09c2.12,0.73,3.89,1.41,5.94,1.69"/>--> </g> </g> </g> <g id="kvg:StrokeNumbers_05f99-HzFst" style="font-size:8;fill:#808080">            </g> </svg> 