<?xml version="1.0" encoding="UTF-8"?>  <!DOCTYPE svg PUBLIC "-//W3C//DTD SVG 1.0//EN" "http://www.w3.org/TR/2001/REC-SVG-20010904/DTD/svg10.dtd"  <!ATTLIST g xmlns:kvg CDATA #FIXED "http://kanjivg.tagaini.net" kvg:element CDATA #IMPLIED kvg:variant CDATA #IMPLIED kvg:partial CDATA #IMPLIED kvg:original CDATA #IMPLIED kvg:part CDATA #IMPLIED kvg:number CDATA #IMPLIED kvg:tradForm CDATA #IMPLIED kvg:radicalForm CDATA #IMPLIED kvg:position CDATA #IMPLIED kvg:radical CDATA #IMPLIED kvg:phon CDATA #IMPLIED > <!ATTLIST path xmlns:kvg CDATA #FIXED "http://kanjivg.tagaini.net" kvg:type CDATA #IMPLIED >  <svg xmlns="http://www.w3.org/2000/svg" width="109" height="109" viewBox="0 0 109 109"> <g id="kvg:StrokePaths_05fd9-Kaisho" style="fill:none;stroke:#000000;stroke-width:3;stroke-linecap:round;stroke-linejoin:round;"> <g id="kvg:05fd9-Kaisho" kvg:element="忙"> <g id="kvg:05fd9-Kaisho-g1" kvg:element="忄" kvg:variant="true" kvg:original="心" kvg:position="left" kvg:radical="general"> <!--<path id="kvg:05fd9-Kaisho-s1" kvg:type="㇔" d="M16.75,37.25c0,6.61-2.97,16.36-3.75,18.25"/>--> <!--<path id="kvg:05fd9-Kaisho-s2" kvg:type="㇔" d="M31.27,28.58c2.75,1.39,7.11,5.72,7.79,7.88"/>--> <!--<path id="kvg:05fd9-Kaisho-s3" kvg:type="㇑" d="M24.87,12.25c1.09,0.5,1.74,2.25,1.96,3.25c0.22,1,0,73.75-0.22,80"/>--> </g> <g id="kvg:05fd9-Kaisho-g2" kvg:element="亡" kvg:position="right"> <g id="kvg:05fd9-Kaisho-g3" kvg:element="亠"> <!--<path id="kvg:05fd9-Kaisho-s4" kvg:type="㇑a" d="M60.16,18.86c4.35,2.03,10.19,8,12.77,13.78"/>--> <g id="kvg:05fd9-Kaisho-g4" kvg:element="匸" kvg:part="1" kvg:variant="true" kvg:original="匚"> <!--<path id="kvg:05fd9-Kaisho-s5" kvg:type="㇐" d="M40.13,43.96c1.1,0.12,3.6,0.83,4.67,0.66c8.62-1.38,37.05-6.01,47.99-6.37c1.81-0.06,3.71,0,5.58,0.84"/>--> </g> </g> <g id="kvg:05fd9-Kaisho-g5" kvg:element="匸" kvg:part="2" kvg:variant="true" kvg:original="匚"> <!--<path id="kvg:05fd9-Kaisho-s6" kvg:type="㇄a" d="M52.47,46.5c0.67,0.92,1.51,3.57,1.51,4.85c0,11.4,0,22.21,0,26.53c0,4.8,0.43,10.17,8,10.87c8.2,0.76,21.85-0.16,23.71-0.25c3.21-0.17,5.95-0.67,7.59-1.26"/>--> </g> </g> </g> </g> <g id="kvg:StrokeNumbers_05fd9-Kaisho" style="font-size:8;fill:#808080">       </g> </svg> 