<?xml version="1.0" encoding="UTF-8"?>  <!DOCTYPE svg PUBLIC "-//W3C//DTD SVG 1.0//EN" "http://www.w3.org/TR/2001/REC-SVG-20010904/DTD/svg10.dtd"  <!ATTLIST g xmlns:kvg CDATA #FIXED "http://kanjivg.tagaini.net" kvg:element CDATA #IMPLIED kvg:variant CDATA #IMPLIED kvg:partial CDATA #IMPLIED kvg:original CDATA #IMPLIED kvg:part CDATA #IMPLIED kvg:number CDATA #IMPLIED kvg:tradForm CDATA #IMPLIED kvg:radicalForm CDATA #IMPLIED kvg:position CDATA #IMPLIED kvg:radical CDATA #IMPLIED kvg:phon CDATA #IMPLIED > <!ATTLIST path xmlns:kvg CDATA #FIXED "http://kanjivg.tagaini.net" kvg:type CDATA #IMPLIED >  <svg xmlns="http://www.w3.org/2000/svg" width="109" height="109" viewBox="0 0 109 109"> <g id="kvg:StrokePaths_06068-Kaisho" style="fill:none;stroke:#000000;stroke-width:3;stroke-linecap:round;stroke-linejoin:round;"> <g id="kvg:06068-Kaisho" kvg:element="恨"> <g id="kvg:06068-Kaisho-g1" kvg:element="忄" kvg:variant="true" kvg:original="心" kvg:position="left" kvg:radical="general"> <!--<path id="kvg:06068-Kaisho-s1" kvg:type="㇔" d="M15.75,38.25c0,6.61-2.97,16.36-3.75,18.25"/>--> <!--<path id="kvg:06068-Kaisho-s2" kvg:type="㇔" d="M29.77,33.58c2.93,1.74,7.56,7.17,8.29,9.88"/>--> <!--<path id="kvg:06068-Kaisho-s3" kvg:type="㇑" d="M23.37,15.75c1.09,0.5,1.96,2.73,1.96,3.75c0,6,0,69.25-0.22,75.5"/>--> </g> <g id="kvg:06068-Kaisho-g2" kvg:element="艮" kvg:position="right"> <!--<path id="kvg:06068-Kaisho-s4" kvg:type="㇕" d="M49.46,20.37c2.05-0.12,22.56-2.86,24.43-3c1.56-0.12,2.45,1.29,2.44,2c-0.1,5-2.25,23.09-3.14,26.53"/>--> <!--<path id="kvg:06068-Kaisho-s5" kvg:type="㇐a" d="M49.26,33.42c4.29-0.47,8.57-1.09,12.84-1.66c1.28-0.17,2.56-0.34,3.8-0.5"/>--> <!--<path id="kvg:06068-Kaisho-s6" kvg:type="㇐a" d="M49.7,46.8c7.07-0.9,16-2.19,23.68-3.05"/>--> <!--<path id="kvg:06068-Kaisho-s7" kvg:type="㇙" d="M47.45,18.23c0.8,1.27,1.6,2.58,1.6,3.76c0,7.26,0.23,62.38,0.23,65.26c0,4.5,1.85,2.21,3.27,1.11c2.75-2.14,9.2-7.11,12.96-9.36"/>--> <!--<path id="kvg:06068-Kaisho-s8" kvg:type="㇒" d="M81.88,45.5c0.23,1.45,0.43,2.11-0.53,3.18c-4.1,4.57-8.85,9.32-13.19,13.51"/>--> <!--<path id="kvg:06068-Kaisho-s9" kvg:type="㇏" d="M55.76,53.01c4.72,0,27.65,28.01,33.32,31.86c3.22,2.19,6.38,3.24,9.16,3.95"/>--> </g> </g> </g> <g id="kvg:StrokeNumbers_06068-Kaisho" style="font-size:8;fill:#808080">          </g> </svg> 