<?xml version="1.0" encoding="UTF-8"?>  <!DOCTYPE svg PUBLIC "-//W3C//DTD SVG 1.0//EN" "http://www.w3.org/TR/2001/REC-SVG-20010904/DTD/svg10.dtd"  <!ATTLIST g xmlns:kvg CDATA #FIXED "http://kanjivg.tagaini.net" kvg:element CDATA #IMPLIED kvg:variant CDATA #IMPLIED kvg:partial CDATA #IMPLIED kvg:original CDATA #IMPLIED kvg:part CDATA #IMPLIED kvg:number CDATA #IMPLIED kvg:tradForm CDATA #IMPLIED kvg:radicalForm CDATA #IMPLIED kvg:position CDATA #IMPLIED kvg:radical CDATA #IMPLIED kvg:phon CDATA #IMPLIED > <!ATTLIST path xmlns:kvg CDATA #FIXED "http://kanjivg.tagaini.net" kvg:type CDATA #IMPLIED >  <svg xmlns="http://www.w3.org/2000/svg" width="109" height="109" viewBox="0 0 109 109"> <g id="kvg:StrokePaths_0618e-Kaisho" style="fill:none;stroke:#000000;stroke-width:3;stroke-linecap:round;stroke-linejoin:round;"> <g id="kvg:0618e-Kaisho" kvg:element="憎"> <g id="kvg:0618e-Kaisho-g1" kvg:element="忄" kvg:variant="true" kvg:original="心" kvg:position="left" kvg:radical="general"> <!--<path id="kvg:0618e-Kaisho-s1" kvg:type="㇔" d="M17.47,39.75c0.03,4.38-2.07,14.35-3.94,17.75"/>--> <!--<path id="kvg:0618e-Kaisho-s2" kvg:type="㇔" d="M30.02,34.58c2.84,1.74,7.33,7.17,8.04,9.88"/>--> <!--<path id="kvg:0618e-Kaisho-s3" kvg:type="㇑" d="M24.87,14.75c1.09,0.5,1.74,2.25,1.96,3.25c0.22,1,0,73.75-0.22,80"/>--> </g> <g id="kvg:0618e-Kaisho-g2" kvg:element="曽" kvg:position="right"> <g id="kvg:0618e-Kaisho-g3" kvg:position="top"> <!--<path id="kvg:0618e-Kaisho-s4" kvg:type="㇔" d="M49.58,14.84c3.01,1.92,7.78,7.9,8.53,10.88"/>--> <!--<path id="kvg:0618e-Kaisho-s5" kvg:type="㇒" d="M81.79,10.06c0.03,0.37,0.06,0.97-0.05,1.5c-0.6,3.17-4.08,10.12-8.85,14.38"/>--> <g id="kvg:0618e-Kaisho-g4" kvg:element="田"> <!--<path id="kvg:0618e-Kaisho-s6" kvg:type="㇑" d="M43.41,31.8c0.34,0.43,0.34,0.73,0.53,1.27c1.5,4.47,2.96,16.74,3.84,25.06"/>--> <!--<path id="kvg:0618e-Kaisho-s7" kvg:type="㇕a" d="M44.99,32.92c11.93-1,35.37-3.85,46.07-4.54c3.28-0.21,2.95,2.26,2.77,3.49c-0.65,4.48-3.09,14.14-4.6,22.73"/>--> <!--<path id="kvg:0618e-Kaisho-s8" kvg:type="㇑a" d="M66.8,32.28C67.75,33,67.8,34.02,67.79,35c-0.05,5.16,0.29,11.3,0.29,18.7"/>--> <!--<path id="kvg:0618e-Kaisho-s9" kvg:type="㇐a" d="M47.23,43.85c9.73-1,19.49-1.83,29.23-2.71c1.17-0.11,2.31-0.21,3.41-0.3"/>--> <!--<path id="kvg:0618e-Kaisho-s10" kvg:type="㇐a" d="M48.4,55.92c11-1.03,29.09-2.78,40.94-3.43"/>--> </g> </g> <g id="kvg:0618e-Kaisho-g5" kvg:element="日" kvg:position="bottom"> <!--<path id="kvg:0618e-Kaisho-s11" kvg:type="㇑" d="M52.12,65.65c0.53,0.68,1.02,2.47,1.06,3.37c0.36,8.66,0.05,17.42,0.05,27.73"/>--> <!--<path id="kvg:0618e-Kaisho-s12" kvg:type="㇕a" d="M53.35,66.67c2.99-0.11,25.94-2.9,28.66-3.03c2.27-0.11,2.86,2.66,2.85,3.37c-0.11,5.16-0.59,15.46-0.59,28.77"/>--> <!--<path id="kvg:0618e-Kaisho-s13" kvg:type="㇐a" d="M54.59,80.37c5.31-0.6,10.62-1.15,15.94-1.65c1.47-0.14,2.91-0.27,4.28-0.39"/>--> <!--<path id="kvg:0618e-Kaisho-s14" kvg:type="㇐a" d="M54.98,94.54C63,94.1,75.16,92.63,82.9,92.63"/>--> </g> </g> </g> </g> <g id="kvg:StrokeNumbers_0618e-Kaisho" style="font-size:8;fill:#808080">               </g> </svg> 