<?xml version="1.0" encoding="UTF-8"?>  <!DOCTYPE svg PUBLIC "-//W3C//DTD SVG 1.0//EN" "http://www.w3.org/TR/2001/REC-SVG-20010904/DTD/svg10.dtd"  <!ATTLIST g xmlns:kvg CDATA #FIXED "http://kanjivg.tagaini.net" kvg:element CDATA #IMPLIED kvg:variant CDATA #IMPLIED kvg:partial CDATA #IMPLIED kvg:original CDATA #IMPLIED kvg:part CDATA #IMPLIED kvg:number CDATA #IMPLIED kvg:tradForm CDATA #IMPLIED kvg:radicalForm CDATA #IMPLIED kvg:position CDATA #IMPLIED kvg:radical CDATA #IMPLIED kvg:phon CDATA #IMPLIED > <!ATTLIST path xmlns:kvg CDATA #FIXED "http://kanjivg.tagaini.net" kvg:type CDATA #IMPLIED >  <svg xmlns="http://www.w3.org/2000/svg" width="109" height="109" viewBox="0 0 109 109"> <g id="kvg:StrokePaths_061b6-Kaisho" style="fill:none;stroke:#000000;stroke-width:3;stroke-linecap:round;stroke-linejoin:round;"> <g id="kvg:061b6-Kaisho" kvg:element="憶"> <g id="kvg:061b6-Kaisho-g1" kvg:element="忄" kvg:variant="true" kvg:original="心" kvg:position="left" kvg:radical="general"> <!--<path id="kvg:061b6-Kaisho-s1" kvg:type="㇔" d="M17.01,40c0,5.97-2.79,14.79-3.52,16.5"/>--> <!--<path id="kvg:061b6-Kaisho-s2" kvg:type="㇔" d="M30.02,30.83c2.66,1.17,6.88,4.81,7.54,6.63"/>--> <!--<path id="kvg:061b6-Kaisho-s3" kvg:type="㇑" d="M23.87,16.75c1.09,0.5,1.74,2.25,1.96,3.25c0.22,1,0,68.75-0.22,75"/>--> </g> <g id="kvg:061b6-Kaisho-g2" kvg:element="意" kvg:position="right"> <g id="kvg:061b6-Kaisho-g3" kvg:element="音" kvg:position="top"> <g id="kvg:061b6-Kaisho-g4" kvg:element="立"> <g id="kvg:061b6-Kaisho-g5" kvg:element="亠" kvg:position="top"> <!--<path id="kvg:061b6-Kaisho-s4" kvg:type="㇑a" d="M60.65,13.57c1.6,0.93,4.1,3.68,5.48,6.26"/>--> <!--<path id="kvg:061b6-Kaisho-s5" kvg:type="㇐" d="M45.9,26.76c0.6,0.03,1.97,0.32,2.55,0.18c2.38-0.56,24.8-2.31,36.12-3.95c0.99-0.14,1.58-0.17,2.08-0.18"/>--> </g> <g id="kvg:061b6-Kaisho-g6" kvg:position="bottom"> <!--<path id="kvg:061b6-Kaisho-s6" kvg:type="㇔" d="M52.71,30.3c2.81,2.99,3.92,5.94,4.32,8.09"/>--> <!--<path id="kvg:061b6-Kaisho-s7" kvg:type="㇒" d="M76.73,27.2c0.27,1.3,0.34,2.81,0.21,3.13c-1.25,3.2-2.74,6.11-3.66,7.93"/>--> <!--<path id="kvg:061b6-Kaisho-s8" kvg:type="㇐" d="M40.33,42.7c1.67,0.05,2.3,0.37,3.31,0.26c16.01-1.74,31.48-4.05,45.07-4.71c1.73-0.08,3.66-0.16,4.71,0.17"/>--> </g> </g> <g id="kvg:061b6-Kaisho-g7" kvg:element="日"> <!--<path id="kvg:061b6-Kaisho-s9" kvg:type="㇑" d="M48.62,51.1c0.42,0.42,1.15,1.22,1.15,1.83c0,0.61,2.91,16.55,2.91,16.85c0,0.3,0.18,1.12,0.18,1.73"/>--> <!--<path id="kvg:061b6-Kaisho-s10" kvg:type="㇕a" d="M50.47,52.17c2.39-0.25,27.28-2.56,29.39-3.01c2.11-0.46,3.19,0.41,2.78,2.96c-0.55,3.35-2.39,10.63-3.91,16.46"/>--> <!--<path id="kvg:061b6-Kaisho-s11" kvg:type="㇐a" d="M52.13,60.44c4.75-0.36,9.49-1.09,14.21-1.67c1.58-0.19,3.17-0.39,4.68-0.57"/>--> <!--<path id="kvg:061b6-Kaisho-s12" kvg:type="㇐a" d="M53.66,69.2c4.78-0.35,18.32-1.93,24.51-2.38"/>--> </g> </g> <g id="kvg:061b6-Kaisho-g8" kvg:element="心" kvg:position="bottom" kvg:radical="nelson"> <!--<path id="kvg:061b6-Kaisho-s13" kvg:type="㇔" d="M43.89,81.64c0.27,1.56-2.66,8.62-4.79,11.33"/>--> <!--<path id="kvg:061b6-Kaisho-s14" kvg:type="㇟b" d="M53.03,77.47C58.5,89.25,67.98,94.33,85,94.44c8,0.06,7.25-2.94,2.3-5.12"/>--> <!--<path id="kvg:061b6-Kaisho-s15" kvg:type="㇔a" d="M68.74,77.02c1.11,2.05,4.01,6.63,4.7,3.63"/>--> <!--<path id="kvg:061b6-Kaisho-s16" kvg:type="㇔" d="M85.19,73.61c4.51,1.66,7.7,3.91,11.54,8.59"/>--> </g> </g> </g> </g> <g id="kvg:StrokeNumbers_061b6-Kaisho" style="font-size:8;fill:#808080">                 </g> </svg> 