<?xml version="1.0" encoding="UTF-8"?>  <!DOCTYPE svg PUBLIC "-//W3C//DTD SVG 1.0//EN" "http://www.w3.org/TR/2001/REC-SVG-20010904/DTD/svg10.dtd"  <!ATTLIST g xmlns:kvg CDATA #FIXED "http://kanjivg.tagaini.net" kvg:element CDATA #IMPLIED kvg:variant CDATA #IMPLIED kvg:partial CDATA #IMPLIED kvg:original CDATA #IMPLIED kvg:part CDATA #IMPLIED kvg:number CDATA #IMPLIED kvg:tradForm CDATA #IMPLIED kvg:radicalForm CDATA #IMPLIED kvg:position CDATA #IMPLIED kvg:radical CDATA #IMPLIED kvg:phon CDATA #IMPLIED > <!ATTLIST path xmlns:kvg CDATA #FIXED "http://kanjivg.tagaini.net" kvg:type CDATA #IMPLIED >  <svg xmlns="http://www.w3.org/2000/svg" width="109" height="109" viewBox="0 0 109 109"> <g id="kvg:StrokePaths_061d0-Kaisho" style="fill:none;stroke:#000000;stroke-width:3;stroke-linecap:round;stroke-linejoin:round;"> <g id="kvg:061d0-Kaisho" kvg:element="懐"> <g id="kvg:061d0-Kaisho-g1" kvg:element="忄" kvg:variant="true" kvg:original="心" kvg:position="left" kvg:radical="general"> <!--<path id="kvg:061d0-Kaisho-s1" kvg:type="㇔" d="M16.75,40.25c0,6.61-2.97,16.36-3.75,18.25"/>--> <!--<path id="kvg:061d0-Kaisho-s2" kvg:type="㇔" d="M29.77,35.08c2.49,1.66,6.42,6.81,7.04,9.38"/>--> <!--<path id="kvg:061d0-Kaisho-s3" kvg:type="㇑" d="M23.87,15.25c1.09,0.5,1.74,2.25,1.96,3.25c0.22,1,0,71.25-0.22,77.5"/>--> </g> <g id="kvg:061d0-Kaisho-g2" kvg:position="right"> <g id="kvg:061d0-Kaisho-g3" kvg:element="十"> <!--<path id="kvg:061d0-Kaisho-s4" kvg:type="㇐" d="M40.38,23.74c1.08,0.38,3.06,0.48,4.13,0.38c13.7-1.26,29.39-4.27,38.84-4.42c1.8-0.03,2.88,0.18,3.77,0.38"/>--> <!--<path id="kvg:061d0-Kaisho-s5" kvg:type="㇑" d="M61.65,11.38c0.56,0.44,1.85,2.12,1.84,4.2c-0.01,4.2-0.75,9.42-1.5,16.17"/>--> </g> <g id="kvg:061d0-Kaisho-g4" kvg:element="罒" kvg:variant="true" kvg:original="网"> <!--<path id="kvg:061d0-Kaisho-s6" kvg:type="㇑" d="M44,33.23c0.21,0.29,0.42,0.53,0.51,0.89c0.71,2.85,3.53,9.75,4.01,14.88"/>--> <!--<path id="kvg:061d0-Kaisho-s7" kvg:type="㇕a" d="M45.28,34.68c4.52-1.12,35.08-4.57,37.49-4.95c0.88-0.14,2.07,0.97,1.83,2.57c-0.49,3.35-2.68,9.09-3.99,13.87"/>--> <!--<path id="kvg:061d0-Kaisho-s8" kvg:type="㇑a" d="M56.69,33.6c0.14,1.9,1.11,10.17,1.24,12.31"/>--> <!--<path id="kvg:061d0-Kaisho-s9" kvg:type="㇑a" d="M69.68,31.41c-0.14,3.09-0.83,11.17-1.1,13.07"/>--> <!--<path id="kvg:061d0-Kaisho-s10" kvg:type="㇐a" d="M49.17,47.45c2.82-0.42,27.89-3.06,31.77-3.71"/>--> </g> <g id="kvg:061d0-Kaisho-g5" kvg:element="衣"> <g id="kvg:061d0-Kaisho-g6" kvg:element="亠" kvg:position="top"> <!--<path id="kvg:061d0-Kaisho-s11" kvg:type="㇑a" d="M59.73,49.75c1.76,0.91,3.77,3.75,4.65,6.22"/>--> <!--<path id="kvg:061d0-Kaisho-s12" kvg:type="㇐" d="M39.63,61.81c0.94,0.06,3.07,0.43,3.98,0.34c7.35-0.72,33.32-4.7,43.31-4.88c1.54-0.03,2.33,0.03,3.48,0.44"/>--> </g> <g id="kvg:061d0-Kaisho-g7" kvg:position="bottom"> <!--<path id="kvg:061d0-Kaisho-s13" kvg:type="㇒" d="M59.28,62.96c0.07,0.5,0.28,1.34-0.14,2.01c-2.74,4.38-11.66,12.36-25.39,19.28"/>--> <!--<path id="kvg:061d0-Kaisho-s14" kvg:type="㇙" d="M53.9,74.39c0.53,1.09,1.11,2.15,1.11,4.05c0,6.81,0.24,11.31-0.66,15.61c-0.26,1.22,0.78,1.96,1.76,1.02c0.99-0.94,9.93-7.92,11.25-8.86"/>--> <!--<path id="kvg:061d0-Kaisho-s15" kvg:type="㇒" d="M81.73,64.62c0.03,0.24,0.33,1.17,0.14,1.5C80.72,68.13,77.12,71,71.25,75"/>--> <!--<path id="kvg:061d0-Kaisho-s16" kvg:type="㇏" d="M63.5,70c1.72,0.5,4.97,2.71,5.34,3.01c5.49,4.46,18.83,15.85,22.54,18.48c1.4,0.99,2.59,1.41,3.99,1.7"/>--> </g> </g> </g> </g> </g> <g id="kvg:StrokeNumbers_061d0-Kaisho" style="font-size:8;fill:#808080">                 </g> </svg> 