<?xml version="1.0" encoding="UTF-8"?>  <!DOCTYPE svg PUBLIC "-//W3C//DTD SVG 1.0//EN" "http://www.w3.org/TR/2001/REC-SVG-20010904/DTD/svg10.dtd"  <!ATTLIST g xmlns:kvg CDATA #FIXED "http://kanjivg.tagaini.net" kvg:element CDATA #IMPLIED kvg:variant CDATA #IMPLIED kvg:partial CDATA #IMPLIED kvg:original CDATA #IMPLIED kvg:part CDATA #IMPLIED kvg:number CDATA #IMPLIED kvg:tradForm CDATA #IMPLIED kvg:radicalForm CDATA #IMPLIED kvg:position CDATA #IMPLIED kvg:radical CDATA #IMPLIED kvg:phon CDATA #IMPLIED > <!ATTLIST path xmlns:kvg CDATA #FIXED "http://kanjivg.tagaini.net" kvg:type CDATA #IMPLIED >  <svg xmlns="http://www.w3.org/2000/svg" width="109" height="109" viewBox="0 0 109 109"> <g id="kvg:StrokePaths_062bd-Kaisho" style="fill:none;stroke:#000000;stroke-width:3;stroke-linecap:round;stroke-linejoin:round;"> <g id="kvg:062bd-Kaisho" kvg:element="抽"> <g id="kvg:062bd-Kaisho-g1" kvg:element="扌" kvg:variant="true" kvg:original="手" kvg:position="left" kvg:radical="general"> <!--<path id="kvg:062bd-Kaisho-s1" kvg:type="㇐" d="M14.5,39.42c2.08,0.25,1.27,0.55,3.5,0.25c5.5-0.75,16.5-2.5,25.67-3.67"/>--> <!--<path id="kvg:062bd-Kaisho-s2" kvg:type="㇚" d="M30.27,16c0.48,0.92,1.76,2.49,1.76,5.52c0,15.23,0.24,53.46,0.24,64.9c0,14.25-6.32,3.53-7.77,2"/>--> <!--<path id="kvg:062bd-Kaisho-s3" kvg:type="㇀" d="M13.5,69.18c1.25,1.78,3.83,1.61,6.5-0.18c5-3.36,7.5-5.5,18.75-13.58"/>--> </g> <g id="kvg:062bd-Kaisho-g2" kvg:element="由" kvg:position="right"> <g id="kvg:062bd-Kaisho-g3" kvg:element="田" kvg:part="1" kvg:partial="true"> <!--<path id="kvg:062bd-Kaisho-s4" kvg:type="㇑" d="M49.96,46.24c0.32,0.84,1.39,3.39,1.5,4.44C52.5,61,54,76.57,54.83,92.25"/>--> <!--<path id="kvg:062bd-Kaisho-s5" kvg:type="㇕a" d="M51.96,47.53c13.29-1.53,30.62-3.68,39.05-4.51c3.1-0.31,4.67,2.16,4.5,4.44c-0.62,8.36-1.63,31.02-3.84,41.86"/>--> </g> <g id="kvg:062bd-Kaisho-g4" kvg:element="丨"> <!--<path id="kvg:062bd-Kaisho-s6" kvg:type="㇑a" d="M69.86,14.82c1.21,1.12,1.92,2.75,1.92,4.24C71.82,33.7,72,83.09,72,86.91"/>--> </g> <g id="kvg:062bd-Kaisho-g5" kvg:element="田" kvg:part="2" kvg:partial="true"> <!--<path id="kvg:062bd-Kaisho-s7" kvg:type="㇐a" d="M54.31,67.55c9.05-1.04,18.13-1.86,27.2-2.72c1.09-0.1,2.15-0.2,3.17-0.3"/>--> <!--<path id="kvg:062bd-Kaisho-s8" kvg:type="㇐a" d="M55.42,89.1c9.3-0.6,25.14-2.84,36.35-3.07"/>--> </g> </g> </g> </g> <g id="kvg:StrokeNumbers_062bd-Kaisho" style="font-size:8;fill:#808080">         </g> </svg> 