<?xml version="1.0" encoding="UTF-8"?>  <!DOCTYPE svg PUBLIC "-//W3C//DTD SVG 1.0//EN" "http://www.w3.org/TR/2001/REC-SVG-20010904/DTD/svg10.dtd"  <!ATTLIST g xmlns:kvg CDATA #FIXED "http://kanjivg.tagaini.net" kvg:element CDATA #IMPLIED kvg:variant CDATA #IMPLIED kvg:partial CDATA #IMPLIED kvg:original CDATA #IMPLIED kvg:part CDATA #IMPLIED kvg:number CDATA #IMPLIED kvg:tradForm CDATA #IMPLIED kvg:radicalForm CDATA #IMPLIED kvg:position CDATA #IMPLIED kvg:radical CDATA #IMPLIED kvg:phon CDATA #IMPLIED > <!ATTLIST path xmlns:kvg CDATA #FIXED "http://kanjivg.tagaini.net" kvg:type CDATA #IMPLIED >  <svg xmlns="http://www.w3.org/2000/svg" width="109" height="109" viewBox="0 0 109 109"> <g id="kvg:StrokePaths_062bc-Kaisho" style="fill:none;stroke:#000000;stroke-width:3;stroke-linecap:round;stroke-linejoin:round;"> <g id="kvg:062bc-Kaisho" kvg:element="押"> <g id="kvg:062bc-Kaisho-g1" kvg:element="扌" kvg:variant="true" kvg:original="手" kvg:position="left" kvg:radical="general"> <!--<path id="kvg:062bc-Kaisho-s1" kvg:type="㇐" d="M13,39.92c2.08,0.25,1.27,0.55,3.5,0.25c5.5-0.75,15.5-2.5,24.67-3.67"/>--> <!--<path id="kvg:062bc-Kaisho-s2" kvg:type="㇚" d="M28.77,16c0.48,0.92,1.76,2.49,1.76,5.52c0,15.23,0.24,51.96,0.24,63.4c0,14.25-6.32,3.53-7.77,2"/>--> <!--<path id="kvg:062bc-Kaisho-s3" kvg:type="㇀" d="M12.5,65.68c1.25,1.78,3.83,1.61,6.5-0.18c5-3.36,9.5-7.42,20.75-15.5"/>--> </g> <g id="kvg:062bc-Kaisho-g2" kvg:element="甲" kvg:position="right"> <g id="kvg:062bc-Kaisho-g3" kvg:element="田" kvg:partial="true"> <!--<path id="kvg:062bc-Kaisho-s4" kvg:type="㇑" d="M46.45,22.81c0.31,0.66,0.83,2.1,0.99,2.91C49,34,51.09,49.45,51.91,61.75"/>--> <!--<path id="kvg:062bc-Kaisho-s5" kvg:type="㇕" d="M48.42,25.25c12.02-1.52,31.07-4.61,39.34-5.27c3.04-0.24,4.86,1.17,4.75,3.94c-0.26,6.59-2.77,30.58-3.97,34.63"/>--> <!--<path id="kvg:062bc-Kaisho-s6" kvg:type="㇐" d="M50.9,41.45c9.04-0.82,18.05-1.97,27.08-2.92c1.09-0.11,2.14-0.23,3.15-0.33"/>--> <!--<path id="kvg:062bc-Kaisho-s7" kvg:type="㇐" d="M52.49,58.63c10.46-1.5,25.22-2.92,36.66-3.55"/>--> </g> <g id="kvg:062bc-Kaisho-g4" kvg:element="丨"> <!--<path id="kvg:062bc-Kaisho-s8" kvg:type="㇑" d="M67.61,24.94c0.89,0.56,1.44,2.03,1.44,3.81c-0.03,8.98,0.3,65.54,0.3,68.47"/>--> </g> </g> </g> </g> <g id="kvg:StrokeNumbers_062bc-Kaisho" style="font-size:8;fill:#808080">         </g> </svg> 