<?xml version="1.0" encoding="UTF-8"?>  <!DOCTYPE svg PUBLIC "-//W3C//DTD SVG 1.0//EN" "http://www.w3.org/TR/2001/REC-SVG-20010904/DTD/svg10.dtd"  <!ATTLIST g xmlns:kvg CDATA #FIXED "http://kanjivg.tagaini.net" kvg:element CDATA #IMPLIED kvg:variant CDATA #IMPLIED kvg:partial CDATA #IMPLIED kvg:original CDATA #IMPLIED kvg:part CDATA #IMPLIED kvg:number CDATA #IMPLIED kvg:tradForm CDATA #IMPLIED kvg:radicalForm CDATA #IMPLIED kvg:position CDATA #IMPLIED kvg:radical CDATA #IMPLIED kvg:phon CDATA #IMPLIED > <!ATTLIST path xmlns:kvg CDATA #FIXED "http://kanjivg.tagaini.net" kvg:type CDATA #IMPLIED >  <svg xmlns="http://www.w3.org/2000/svg" width="109" height="109" viewBox="0 0 109 109"> <g id="kvg:StrokePaths_062c5-Kaisho" style="fill:none;stroke:#000000;stroke-width:3;stroke-linecap:round;stroke-linejoin:round;"> <g id="kvg:062c5-Kaisho" kvg:element="担"> <g id="kvg:062c5-Kaisho-g1" kvg:element="扌" kvg:variant="true" kvg:original="手" kvg:position="left" kvg:radical="general"> <!--<path id="kvg:062c5-Kaisho-s1" kvg:type="㇐" d="M13,38.92c2.08,0.25,1.27,0.55,3.5,0.25c5.5-0.75,17.5-3,26.67-4.17"/>--> <!--<path id="kvg:062c5-Kaisho-s2" kvg:type="㇚" d="M28.77,15c0.48,0.92,1.76,2.49,1.76,5.52c0,15.23,0.24,54.46,0.24,65.9c0,14.25-6.32,3.53-7.77,2"/>--> <!--<path id="kvg:062c5-Kaisho-s3" kvg:type="㇀" d="M12.5,68.18c1.25,1.78,3.83,1.61,6.5-0.18c5-3.36,10.5-8.42,21.75-16.5"/>--> </g> <g id="kvg:062c5-Kaisho-g2" kvg:element="旦" kvg:position="right"> <g id="kvg:062c5-Kaisho-g3" kvg:element="日" kvg:position="top"> <!--<path id="kvg:062c5-Kaisho-s4" kvg:type="㇑" d="M52.56,23.16c0.5,1.11,1.01,1.67,1.01,3.16c0,1.49-0.34,42.36-0.34,43.1s0.17,0.74,0.34,2.23"/>--> <!--<path id="kvg:062c5-Kaisho-s5" kvg:type="㇕a" d="M54.42,24.85c2.86-0.19,24.58-2.38,27.18-2.6c2.17-0.19,3.56,2.06,3.39,3.16c-0.34,2.23-0.51,25.63-0.5,41.97c0,1.68-0.17,2.41-0.17,3.53"/>--> <!--<path id="kvg:062c5-Kaisho-s6" kvg:type="㇐a" d="M53.92,46.39c4.97,0,9.98-0.58,14.92-0.93c1.63-0.12,3.27-0.23,4.84-0.34"/>--> <!--<path id="kvg:062c5-Kaisho-s7" kvg:type="㇐a" d="M53.42,70.1c8.83-0.85,22.58-2.1,30.9-2.49"/>--> </g> <g id="kvg:062c5-Kaisho-g4" kvg:element="一" kvg:position="bottom"> <!--<path id="kvg:062c5-Kaisho-s8" kvg:type="㇐" d="M41.3,88.56c1.11,0.45,3.16,0.47,4.27,0.45c9.85-0.22,36.95-2.45,48.47-2.44c1.86,0,2.97,0.21,3.9,0.43"/>--> </g> </g> </g> </g> <g id="kvg:StrokeNumbers_062c5-Kaisho" style="font-size:8;fill:#808080">         </g> </svg> 