<?xml version="1.0" encoding="UTF-8"?>  <!DOCTYPE svg PUBLIC "-//W3C//DTD SVG 1.0//EN" "http://www.w3.org/TR/2001/REC-SVG-20010904/DTD/svg10.dtd"  <!ATTLIST g xmlns:kvg CDATA #FIXED "http://kanjivg.tagaini.net" kvg:element CDATA #IMPLIED kvg:variant CDATA #IMPLIED kvg:partial CDATA #IMPLIED kvg:original CDATA #IMPLIED kvg:part CDATA #IMPLIED kvg:number CDATA #IMPLIED kvg:tradForm CDATA #IMPLIED kvg:radicalForm CDATA #IMPLIED kvg:position CDATA #IMPLIED kvg:radical CDATA #IMPLIED kvg:phon CDATA #IMPLIED > <!ATTLIST path xmlns:kvg CDATA #FIXED "http://kanjivg.tagaini.net" kvg:type CDATA #IMPLIED >  <svg xmlns="http://www.w3.org/2000/svg" width="109" height="109" viewBox="0 0 109 109"> <g id="kvg:StrokePaths_0639f-Kaisho" style="fill:none;stroke:#000000;stroke-width:3;stroke-linecap:round;stroke-linejoin:round;"> <g id="kvg:0639f-Kaisho" kvg:element="掟"> <g id="kvg:0639f-Kaisho-g1" kvg:element="扌" kvg:variant="true" kvg:original="手" kvg:position="left" kvg:radical="general"> <!--<path id="kvg:0639f-Kaisho-s1" kvg:type="㇐" d="M12.75,37.98c2.07,0.22,1.26,0.48,3.47,0.22c5.45-0.66,15.36-2.19,24.45-3.21"/>--> <!--<path id="kvg:0639f-Kaisho-s2" kvg:type="㇚" d="M28.77,14.5c0.48,0.92,1.76,2.49,1.76,5.52c0,15.23,0.24,54.46,0.24,65.9c0,14.25-6.32,3.53-7.77,2"/>--> <!--<path id="kvg:0639f-Kaisho-s3" kvg:type="㇀" d="M12,67.2c0.78,0.88,2.01,1.39,3.73,0.58c1.01-0.48,21.49-12.56,25.77-14.86"/>--> </g> <g id="kvg:0639f-Kaisho-g2" kvg:element="定" kvg:position="right"> <g id="kvg:0639f-Kaisho-g3" kvg:element="宀" kvg:position="top"> <!--<path id="kvg:0639f-Kaisho-s4" kvg:type="㇑a" d="M64.5,14.67c2.15,2.06,4.56,4.62,6.56,10.05"/>--> <g id="kvg:0639f-Kaisho-g4" kvg:element="冖"> <!--<path id="kvg:0639f-Kaisho-s5" kvg:type="㇔" d="M48.79,30.91c0,3.31-2.59,12.43-3.77,14.64"/>--> <!--<path id="kvg:0639f-Kaisho-s6" kvg:type="㇖b" d="M49.12,33.32c10.66-1.87,30.15-3.98,40.19-4.43c9.21-0.41,1.92,6.49-0.95,8.92"/>--> </g> </g> <g id="kvg:0639f-Kaisho-g5" kvg:element="疋" kvg:variant="true" kvg:position="bottom"> <!--<path id="kvg:0639f-Kaisho-s7" kvg:type="㇐" d="M51.32,49.96c2.07,0.42,4.07,0.33,6.17,0c4.97-0.78,22.71-2.9,26-2.9c2.84,0,1.83,0.12,4.11,0.12"/>--> <g id="kvg:0639f-Kaisho-g6" kvg:element="卜" kvg:original="ト"> <!--<path id="kvg:0639f-Kaisho-s8" kvg:type="㇑" d="M65.91,48.95c0.81,0.42,1.3,1.9,1.46,2.75c0.16,0.85,0.37,27.58,0.21,32.87"/>--> <!--<path id="kvg:0639f-Kaisho-s9" kvg:type="㇐" d="M67.78,66.6c5.97-0.51,8.34-1.03,17.35-2.06c1.45-0.17,1.82-0.17,2.74,0"/>--> </g> <g id="kvg:0639f-Kaisho-g7" kvg:element="人"> <!--<path id="kvg:0639f-Kaisho-s10" kvg:type="㇒" d="M52.53,60.46c0.04,0.89,0.02,2.28-0.09,3.56C51.75,72.25,46.5,88,36.31,96.67"/>--> <!--<path id="kvg:0639f-Kaisho-s11" kvg:type="㇏" d="M52.19,76.05C55.5,76.5,77.75,92,87.07,94.67c2.1,0.6,3.69,1.32,5.67,1.58"/>--> </g> </g> </g> </g> </g> <g id="kvg:StrokeNumbers_0639f-Kaisho" style="font-size:8;fill:#808080">            </g> </svg> 