<?xml version="1.0" encoding="UTF-8"?>  <!DOCTYPE svg PUBLIC "-//W3C//DTD SVG 1.0//EN" "http://www.w3.org/TR/2001/REC-SVG-20010904/DTD/svg10.dtd"  <!ATTLIST g xmlns:kvg CDATA #FIXED "http://kanjivg.tagaini.net" kvg:element CDATA #IMPLIED kvg:variant CDATA #IMPLIED kvg:partial CDATA #IMPLIED kvg:original CDATA #IMPLIED kvg:part CDATA #IMPLIED kvg:number CDATA #IMPLIED kvg:tradForm CDATA #IMPLIED kvg:radicalForm CDATA #IMPLIED kvg:position CDATA #IMPLIED kvg:radical CDATA #IMPLIED kvg:phon CDATA #IMPLIED > <!ATTLIST path xmlns:kvg CDATA #FIXED "http://kanjivg.tagaini.net" kvg:type CDATA #IMPLIED >  <svg xmlns="http://www.w3.org/2000/svg" width="109" height="109" viewBox="0 0 109 109"> <g id="kvg:StrokePaths_063a2-Kaisho" style="fill:none;stroke:#000000;stroke-width:3;stroke-linecap:round;stroke-linejoin:round;"> <g id="kvg:063a2-Kaisho" kvg:element="探"> <g id="kvg:063a2-Kaisho-g1" kvg:element="扌" kvg:variant="true" kvg:original="手" kvg:position="left" kvg:radical="general"> <!--<path id="kvg:063a2-Kaisho-s1" kvg:type="㇐" d="M12,38.92c2.08,0.25,1.27,0.55,3.5,0.25c5.5-0.75,15.5-2.5,24.67-3.67"/>--> <!--<path id="kvg:063a2-Kaisho-s2" kvg:type="㇚" d="M27.77,15c0.48,0.92,1.76,2.49,1.76,5.52c0,15.23,0.24,53.96,0.24,65.4c0,14.25-6.32,3.53-7.77,2"/>--> <!--<path id="kvg:063a2-Kaisho-s3" kvg:type="㇀" d="M11,67.68c1.25,1.78,3.83,1.61,6.5-0.18c5-3.36,7.5-5.5,18.75-13.58"/>--> </g> <g id="kvg:063a2-Kaisho-g2" kvg:position="right"> <g id="kvg:063a2-Kaisho-g3" kvg:position="top"> <g id="kvg:063a2-Kaisho-g4" kvg:element="冖"> <!--<path id="kvg:063a2-Kaisho-s4" kvg:type="㇔" d="M46.89,20.01c0,2.72-2.38,10.22-3.46,12.04"/>--> <!--<path id="kvg:063a2-Kaisho-s5" kvg:type="㇖b" d="M48.32,20.87c7.45-0.77,32.68-3.05,38.73-3.34c9.44-0.46,2,5.11-0.35,6.77"/>--> </g> <g id="kvg:063a2-Kaisho-g5" kvg:element="儿" kvg:original="八"> <g id="kvg:063a2-Kaisho-g6" kvg:element="丿" kvg:position="left"> <!--<path id="kvg:063a2-Kaisho-s6" kvg:type="㇒" d="M57.14,26c0.03,0.43,0.07,1.1-0.07,1.72c-0.82,3.62-5.17,12.27-12.04,16.45"/>--> </g> <g id="kvg:063a2-Kaisho-g7" kvg:position="right"> <!--<path id="kvg:063a2-Kaisho-s7" kvg:type="㇟" d="M70.6,23.87c0.41,0.46,0.73,0.99,0.75,1.7c0.11,3.14-0.29,6.19-0.29,8.32c0,4.98,4.86,4.42,9.64,4.42c5.04,0,8.37-0.64,9.07-1.01"/>--> </g> </g> <g id="kvg:063a2-Kaisho-g8" kvg:element="木" kvg:position="bottom"> <!--<path id="kvg:063a2-Kaisho-s8" kvg:type="㇐" d="M43.3,56.08c1.23,0.4,2.65,0.62,4.05,0.4c5.28-0.8,26.53-2.95,37.44-3.72c1.41-0.1,2.29-0.11,3.35,0.35"/>--> <!--<path id="kvg:063a2-Kaisho-s9" kvg:type="㇑" d="M64.49,42.25c0.88,0.35,1.58,2.06,1.58,2.79c0,7.4-0.18,47.08-0.18,46.46c0,11.5-5.65,2-6.65,1"/>--> <!--<path id="kvg:063a2-Kaisho-s10" kvg:type="㇒" d="M64.84,55.47c-4.4,9.33-16.2,23.6-25.36,28.88"/>--> <!--<path id="kvg:063a2-Kaisho-s11" kvg:type="㇏" d="M66.78,55.3c3.86,3.96,21.99,23.84,26.18,27.73c1.42,1.32,2.64,1.89,4.06,2.26"/>--> </g> </g> </g> </g> </g> <g id="kvg:StrokeNumbers_063a2-Kaisho" style="font-size:8;fill:#808080">            </g> </svg> 