<?xml version="1.0" encoding="UTF-8"?>  <!DOCTYPE svg PUBLIC "-//W3C//DTD SVG 1.0//EN" "http://www.w3.org/TR/2001/REC-SVG-20010904/DTD/svg10.dtd"  <!ATTLIST g xmlns:kvg CDATA #FIXED "http://kanjivg.tagaini.net" kvg:element CDATA #IMPLIED kvg:variant CDATA #IMPLIED kvg:partial CDATA #IMPLIED kvg:original CDATA #IMPLIED kvg:part CDATA #IMPLIED kvg:number CDATA #IMPLIED kvg:tradForm CDATA #IMPLIED kvg:radicalForm CDATA #IMPLIED kvg:position CDATA #IMPLIED kvg:radical CDATA #IMPLIED kvg:phon CDATA #IMPLIED > <!ATTLIST path xmlns:kvg CDATA #FIXED "http://kanjivg.tagaini.net" kvg:type CDATA #IMPLIED >  <svg xmlns="http://www.w3.org/2000/svg" width="109" height="109" viewBox="0 0 109 109"> <g id="kvg:StrokePaths_063b2-Kaisho" style="fill:none;stroke:#000000;stroke-width:3;stroke-linecap:round;stroke-linejoin:round;"> <g id="kvg:063b2-Kaisho" kvg:element="掲"> <g id="kvg:063b2-Kaisho-g1" kvg:element="扌" kvg:variant="true" kvg:original="手" kvg:position="left" kvg:radical="general"> <!--<path id="kvg:063b2-Kaisho-s1" kvg:type="㇐" d="M15,39.92c2.08,0.25,1.27,0.55,3.5,0.25c5.5-0.75,15.5-3,24.67-4.17"/>--> <!--<path id="kvg:063b2-Kaisho-s2" kvg:type="㇚" d="M30.77,15.5c0.48,0.92,1.76,2.49,1.76,5.52c0,15.23,0.24,54.46,0.24,65.9c0,14.25-6.32,3.53-7.77,2"/>--> <!--<path id="kvg:063b2-Kaisho-s3" kvg:type="㇀" d="M13,66.18c1.25,1.78,3.83,1.61,6.5-0.18c5-3.36,10.5-8.17,21.75-16.25"/>--> </g> <g id="kvg:063b2-Kaisho-g2" kvg:position="right"> <g id="kvg:063b2-Kaisho-g3" kvg:position="top"> <g id="kvg:063b2-Kaisho-g4" kvg:element="曷" kvg:variant="true"> <g id="kvg:063b2-Kaisho-g5" kvg:element="日"> <!--<path id="kvg:063b2-Kaisho-s4" kvg:type="㇑" d="M48.5,14.77c0.46,0.62,0.92,1.92,0.92,2.74C50,22,51.79,39.55,51.79,39.97c0,0.43,0.13,0.43,0.26,1.28"/>--> <!--<path id="kvg:063b2-Kaisho-s5" kvg:type="㇕a" d="M50.19,15.87c4.31-0.62,25.85-3.49,28.21-3.62c1.97-0.1,3.24,1.64,3.09,2.24C80.5,23,79,31.25,77.71,40.1"/>--> <!--<path id="kvg:063b2-Kaisho-s6" kvg:type="㇐a" d="M51.08,27.47c4.78-0.44,9.54-1.19,14.29-1.82c1.43-0.19,2.86-0.38,4.21-0.55"/>--> <!--<path id="kvg:063b2-Kaisho-s7" kvg:type="㇐a" d="M52.94,39.36c6.06-0.46,16.31-1.68,23.85-2.07"/>--> </g> </g> <g id="kvg:063b2-Kaisho-g6" kvg:element="匂" kvg:position="bottom"> <g id="kvg:063b2-Kaisho-g7" kvg:element="勹"> <g id="kvg:063b2-Kaisho-g8" kvg:element="丿"> <!--<path id="kvg:063b2-Kaisho-s8" kvg:type="㇒" d="M57.25,41.75c0.05,0.62,0.23,1.65-0.1,2.51c-2.42,6.4-7.93,15.79-17.16,23.99"/>--> </g> <!--<path id="kvg:063b2-Kaisho-s9" kvg:type="㇆" d="M56.95,51.35c0.83,0.51,1.98,0.68,3.31,0.34c1.32-0.34,24.49-3.89,27.8-4.06c3.31-0.17,3.6,0.31,3.47,3.91C91.26,59.25,89.07,82,80.97,95.07c-1.92,3.1-3.34,1.28-5.29-0.85"/>--> </g> <g id="kvg:063b2-Kaisho-g9" kvg:element="人"> <g id="kvg:063b2-Kaisho-g10" kvg:element="匕"> <!--<path id="kvg:063b2-Kaisho-s10" kvg:type="㇒" d="M73.48,60.61c0.17,0.21,0.27,0.83-0.16,1.15c-2.79,2.1-11.28,6.67-21.4,9.67"/>--> <!--<path id="kvg:063b2-Kaisho-s11" kvg:type="㇟" d="M48.92,62.05c0.81,0.81,1.13,1.32,1.13,2.43c0,2.67,0.14,9.31,0.14,11.92c0,6.72,7.51,5.67,13.47,5.67c10.79,0,11.54-1.98,11.54-6.81"/>--> </g> </g> </g> </g> </g> </g> </g> <g id="kvg:StrokeNumbers_063b2-Kaisho" style="font-size:8;fill:#808080">            </g> </svg> 