<?xml version="1.0" encoding="UTF-8"?>  <!DOCTYPE svg PUBLIC "-//W3C//DTD SVG 1.0//EN" "http://www.w3.org/TR/2001/REC-SVG-20010904/DTD/svg10.dtd"  <!ATTLIST g xmlns:kvg CDATA #FIXED "http://kanjivg.tagaini.net" kvg:element CDATA #IMPLIED kvg:variant CDATA #IMPLIED kvg:partial CDATA #IMPLIED kvg:original CDATA #IMPLIED kvg:part CDATA #IMPLIED kvg:number CDATA #IMPLIED kvg:tradForm CDATA #IMPLIED kvg:radicalForm CDATA #IMPLIED kvg:position CDATA #IMPLIED kvg:radical CDATA #IMPLIED kvg:phon CDATA #IMPLIED > <!ATTLIST path xmlns:kvg CDATA #FIXED "http://kanjivg.tagaini.net" kvg:type CDATA #IMPLIED >  <svg xmlns="http://www.w3.org/2000/svg" width="109" height="109" viewBox="0 0 109 109"> <g id="kvg:StrokePaths_063c3-HyougaiKaisho" style="fill:none;stroke:#000000;stroke-width:3;stroke-linecap:round;stroke-linejoin:round;"> <g id="kvg:063c3-HyougaiKaisho" kvg:element="揃"> <g id="kvg:063c3-HyougaiKaisho-g1" kvg:element="扌" kvg:variant="true" kvg:original="手" kvg:position="left" kvg:radical="general"> <!--<path id="kvg:063c3-HyougaiKaisho-s1" kvg:type="㇐" d="M12,41.75C14.08,42,13.27,42.3,15.5,42c5.5-0.75,12-2,21.17-3.17"/>--> <!--<path id="kvg:063c3-HyougaiKaisho-s2" kvg:type="㇚" d="M25.77,16.83c0.48,0.92,1.67,2.49,1.76,5.52c0.4,14.55,0.24,60.44,0.24,65.4c0,14.25-4.82,5.03-6.27,3.5"/>--> <!--<path id="kvg:063c3-HyougaiKaisho-s3" kvg:type="㇀" d="M11.75,67.83c2.49,2.08,4.09,1.13,6.58-0.66C19.8,66.12,28.77,59.06,35,54"/>--> </g> <g id="kvg:063c3-HyougaiKaisho-g2" kvg:element="前" kvg:position="right"> <g id="kvg:063c3-HyougaiKaisho-g3" kvg:position="top"> <!--<path id="kvg:063c3-HyougaiKaisho-s4" kvg:type="㇔" d="M47.41,15.17c3.42,1.99,8.84,8.2,9.69,11.3"/>--> <!--<path id="kvg:063c3-HyougaiKaisho-s5" kvg:type="㇒" d="M80.82,13c0.15,0.66,0.13,1.95-0.15,2.42c-1.82,3.06-6.37,8.96-8.95,11.58"/>--> <!--<path id="kvg:063c3-HyougaiKaisho-s6" kvg:type="㇐" d="M39.88,32.48c1.07,0.54,3.02,0.64,4.09,0.54c13.35-1.27,27.61-3.02,47.76-4.23c1.78-0.11,2.84,0.26,3.73,0.53"/>--> </g> <g id="kvg:063c3-HyougaiKaisho-g4" kvg:position="bottom"> <g id="kvg:063c3-HyougaiKaisho-g5" kvg:element="月"> <!--<path id="kvg:063c3-HyougaiKaisho-s7" kvg:type="㇒" d="M43.73,45.71c0.36,0.68,0.6,1.86,0.71,2.54c0.12,0.68,0.29,44.58,0.12,46.09"/>--> <!--<path id="kvg:063c3-HyougaiKaisho-s8" kvg:type="㇆a" d="M45.15,46.89c1.43-0.17,14.53-2.55,15.59-2.74c1.91-0.34,2.62,1.71,2.38,2.74c-0.23,0.98-0.36,31.57-0.36,45.38c0,6.73-3.27,1.98-5.05,0.03"/>--> <!--<path id="kvg:063c3-HyougaiKaisho-s9" kvg:type="㇐a" d="M45.15,60.01c3.12-0.25,6.24-0.63,9.34-1.03c0.74-0.1,1.46-0.19,2.16-0.29"/>--> <!--<path id="kvg:063c3-HyougaiKaisho-s10" kvg:type="㇐a" d="M45.51,73.97c2.67-0.36,6.36-0.55,9.05-0.76c0.78-0.06,1.56-0.12,2.33-0.18"/>--> </g> <g id="kvg:063c3-HyougaiKaisho-g6" kvg:element="刂" kvg:variant="true" kvg:original="刀"> <!--<path id="kvg:063c3-HyougaiKaisho-s11" kvg:type="㇑" d="M75.71,44.83c0.79,0.67,2.18,2.17,2.18,4.83c0,11.84-0.34,20.09-0.34,25.14"/>--> <!--<path id="kvg:063c3-HyougaiKaisho-s12" kvg:type="㇚" d="M90.19,39c0.12,0.48,1.82,2.48,1.82,5.52c0,14.48-0.37,42.66-0.37,47.62c0,7.37-3.89,2.37-6.63-0.25"/>--> </g> </g> </g> </g> </g> <g id="kvg:StrokeNumbers_063c3-HyougaiKaisho" style="font-size:8;fill:#808080">             </g> </svg> 