<?xml version="1.0" encoding="UTF-8"?>  <!DOCTYPE svg PUBLIC "-//W3C//DTD SVG 1.0//EN" "http://www.w3.org/TR/2001/REC-SVG-20010904/DTD/svg10.dtd"  <!ATTLIST g xmlns:kvg CDATA #FIXED "http://kanjivg.tagaini.net" kvg:element CDATA #IMPLIED kvg:variant CDATA #IMPLIED kvg:partial CDATA #IMPLIED kvg:original CDATA #IMPLIED kvg:part CDATA #IMPLIED kvg:number CDATA #IMPLIED kvg:tradForm CDATA #IMPLIED kvg:radicalForm CDATA #IMPLIED kvg:position CDATA #IMPLIED kvg:radical CDATA #IMPLIED kvg:phon CDATA #IMPLIED > <!ATTLIST path xmlns:kvg CDATA #FIXED "http://kanjivg.tagaini.net" kvg:type CDATA #IMPLIED >  <svg xmlns="http://www.w3.org/2000/svg" width="109" height="109" viewBox="0 0 109 109"> <g id="kvg:StrokePaths_063e1-VtFst" style="fill:none;stroke:#000000;stroke-width:3;stroke-linecap:round;stroke-linejoin:round;"> <g id="kvg:063e1-VtFst" kvg:element="握"> <g id="kvg:063e1-VtFst-g1" kvg:element="扌" kvg:variant="true" kvg:original="手" kvg:position="left" kvg:radical="general"> <!--<path id="kvg:063e1-VtFst-s1" kvg:type="㇐" d="M13.5,39.92c2.08,0.25,1.27,0.55,3.5,0.25c5.5-0.75,15.5-2.5,24.67-3.67"/>--> <!--<path id="kvg:063e1-VtFst-s2" kvg:type="㇚" d="M28.27,15.5c0.48,0.92,1.76,2.49,1.76,5.52c0,15.23,0.24,52.96,0.24,64.4c0,14.25-6.32,3.53-7.77,2"/>--> <!--<path id="kvg:063e1-VtFst-s3" kvg:type="㇀" d="M12.5,64.18c1.25,1.78,3.83,1.61,6.5-0.18c5-3.36,7.5-5.5,18.75-13.58"/>--> </g> <g id="kvg:063e1-VtFst-g2" kvg:element="屋" kvg:position="right"> <g id="kvg:063e1-VtFst-g3" kvg:element="尸" kvg:position="tare"> <!--<path id="kvg:063e1-VtFst-s4" kvg:type="㇕c" d="M47.76,20.58c1.24,0.54,3.65,1.01,4.97,0.9c7.11-0.6,28.6-3.86,31.46-4.07c1.41-0.11,2.03,1.32,2.03,2.93c0,1.75-0.6,4.47-1.86,11.08"/>--> <!--<path id="kvg:063e1-VtFst-s5" kvg:type="㇐b" d="M51.79,36.37c5.96-0.62,28.71-3.37,34.14-3.81"/>--> <!--<path id="kvg:063e1-VtFst-s6" kvg:type="㇒" d="M51.56,21.45c0,3.68-0.37,17.34-0.54,20.78c-0.86,17.18-4.74,33.41-14.44,46.57"/>--> </g> <g id="kvg:063e1-VtFst-g4" kvg:element="至"> <!--<path id="kvg:063e1-VtFst-s7" kvg:type="㇐" d="M56.03,46.27c0.71,0.25,2.02,0.28,2.74,0.25c9.43-0.3,18.48-2.77,27.93-3.2c1.19-0.05,1.9,0.12,2.5,0.25"/>--> <!--<path id="kvg:063e1-VtFst-s8" kvg:type="㇜" d="M69.43,47.54c0.41,0.31,0.55,1.27,0.24,1.63c-3.55,4.15-6.43,6.82-11.34,10.82c-1.58,1.29-1.69,2.99,0.85,2.61c5.92-0.89,17.34-4.09,26.68-5.56"/>--> <!--<path id="kvg:063e1-VtFst-s9" kvg:type="㇔" d="M80.4,52.15c3.08,2,7.96,8.21,8.74,11.32"/>--> <g id="kvg:063e1-VtFst-g5" kvg:element="土" kvg:variant="true"> <!--<path id="kvg:063e1-VtFst-s10" kvg:type="㇑a" d="M69.84,63.12c0.08,0.16,1.26,0.82,1.24,1.83c-0.14,5.75,0.39,23.14,0.39,24.79"/>--> <!--<path id="kvg:063e1-VtFst-s11" kvg:type="㇐" d="M53.57,76.76c0.69,0.21,1.96,0.31,2.64,0.21c2.78-0.4,24.99-3.37,31.44-3.37c1.15,0,1.83,0.1,2.41,0.2"/>--> <!--<path id="kvg:063e1-VtFst-s12" kvg:type="㇐" d="M45.58,92.02c1.06,0.29,3.03,0.43,4.08,0.29c4.31-0.57,24.7-2.75,45.07-2.82c1.77-0.01,2.84,0.14,3.72,0.29"/>--> </g> </g> </g> </g> </g> <g id="kvg:StrokeNumbers_063e1-VtFst" style="font-size:8;fill:#808080">             </g> </svg> 