<?xml version="1.0" encoding="UTF-8"?>  <!DOCTYPE svg PUBLIC "-//W3C//DTD SVG 1.0//EN" "http://www.w3.org/TR/2001/REC-SVG-20010904/DTD/svg10.dtd"  <!ATTLIST g xmlns:kvg CDATA #FIXED "http://kanjivg.tagaini.net" kvg:element CDATA #IMPLIED kvg:variant CDATA #IMPLIED kvg:partial CDATA #IMPLIED kvg:original CDATA #IMPLIED kvg:part CDATA #IMPLIED kvg:number CDATA #IMPLIED kvg:tradForm CDATA #IMPLIED kvg:radicalForm CDATA #IMPLIED kvg:position CDATA #IMPLIED kvg:radical CDATA #IMPLIED kvg:phon CDATA #IMPLIED > <!ATTLIST path xmlns:kvg CDATA #FIXED "http://kanjivg.tagaini.net" kvg:type CDATA #IMPLIED >  <svg xmlns="http://www.w3.org/2000/svg" width="109" height="109" viewBox="0 0 109 109"> <g id="kvg:StrokePaths_064c5-Kaisho" style="fill:none;stroke:#000000;stroke-width:3;stroke-linecap:round;stroke-linejoin:round;"> <g id="kvg:064c5-Kaisho" kvg:element="擅"> <g id="kvg:064c5-Kaisho-g1" kvg:element="扌" kvg:variant="true" kvg:original="手" kvg:position="left" kvg:radical="general"> <!--<path id="kvg:064c5-Kaisho-s1" kvg:type="㇐" d="M11.25,36.48c2.14,0.22,1.3,0.48,3.59,0.22c5.65-0.66,15.91-2.19,25.32-3.21"/>--> <!--<path id="kvg:064c5-Kaisho-s2" kvg:type="㇚" d="M26.2,13c0.5,0.95,1.82,2.57,1.82,5.71c0,15.75,0.25,58.39,0.25,70.21c0,14.74-6.54,3.65-8.03,2.07"/>--> <!--<path id="kvg:064c5-Kaisho-s3" kvg:type="㇀" d="M12.5,65.73c0.71,0.85,1.85,1.34,3.43,0.56c0.93-0.46,19.85-10.91,23.8-13.13"/>--> </g> <g id="kvg:064c5-Kaisho-g2" kvg:element="亶" kvg:position="right"> <g id="kvg:064c5-Kaisho-g3" kvg:element="亠" kvg:position="top"> <!--<path id="kvg:064c5-Kaisho-s4" kvg:type="㇑a" d="M65.69,11c2.18,1,4.56,4,5.76,6.88"/>--> <!--<path id="kvg:064c5-Kaisho-s5" kvg:type="㇐" d="M44.54,24.36c1.35,0.31,2.53,0.65,4.08,0.44C60,23.25,82.45,21.5,93.2,20.86c1.58-0.09,2.39,0.04,3.57,0.56"/>--> </g> <g id="kvg:064c5-Kaisho-g4" kvg:position="bottom"> <g id="kvg:064c5-Kaisho-g5" kvg:element="回"> <g id="kvg:064c5-Kaisho-g6" kvg:element="囗" kvg:part="1"> <!--<path id="kvg:064c5-Kaisho-s6" kvg:type="㇑" d="M49.78,32.43c0.54,0.63,0.6,1.32,0.74,2.13c1.23,6.94,2.69,13.54,3.81,24.36"/>--> <!--<path id="kvg:064c5-Kaisho-s7" kvg:type="㇕a" d="M50.4,33.78c9.83-1.11,33.27-3,39.85-3.26c1.5-0.06,2.08,2.09,1.91,3.4c-0.82,6.23-1.91,13.68-3.54,22.11"/>--> </g> <g id="kvg:064c5-Kaisho-g7" kvg:element="口"> <!--<path id="kvg:064c5-Kaisho-s8" kvg:type="㇑" d="M61.23,38.82c0.26,0.18,0.57,0.29,0.65,0.55c0.92,3.17,1.34,6.4,2.12,9.71"/>--> <!--<path id="kvg:064c5-Kaisho-s9" kvg:type="㇕b" d="M62.86,39.54c5.89-0.54,13.17-1.55,16.25-1.91c1.12-0.13,1.8,0.46,1.64,0.99c-0.67,2.19-0.95,5.34-1.94,8.38"/>--> <!--<path id="kvg:064c5-Kaisho-s10" kvg:type="㇐b" d="M64.15,47.76c4.6-0.01,10.7-0.43,15.67-1.05"/>--> </g> <g id="kvg:064c5-Kaisho-g8" kvg:element="囗" kvg:part="2"> <!--<path id="kvg:064c5-Kaisho-s11" kvg:type="㇐a" d="M54.85,56.6c9.14-1.22,23.33-2.35,34.27-2.81"/>--> </g> </g> <g id="kvg:064c5-Kaisho-g9" kvg:element="旦"> <g id="kvg:064c5-Kaisho-g10" kvg:element="日" kvg:position="top"> <!--<path id="kvg:064c5-Kaisho-s12" kvg:type="㇑" d="M53.75,64.58c0.48,0.56,0.95,0.83,0.97,1.59c0.02,0.76,2.21,22.01,2.38,22.77"/>--> <!--<path id="kvg:064c5-Kaisho-s13" kvg:type="㇕a" d="M55.02,65.6c2.62-0.17,27.89-2.51,30.29-2.69c1.99-0.15,2.78,1.93,2.73,2.51c-0.33,3.42-2.68,20.29-2.67,20.86"/>--> <!--<path id="kvg:064c5-Kaisho-s14" kvg:type="㇐a" d="M55.86,76.06c5.13-0.15,10.28-0.72,15.4-1.12c1.71-0.13,3.42-0.27,5.06-0.39"/>--> <!--<path id="kvg:064c5-Kaisho-s15" kvg:type="㇐a" d="M57.85,86.39c5.25-0.15,20.17-1.29,26.96-1.48"/>--> </g> <g id="kvg:064c5-Kaisho-g11" kvg:element="一" kvg:position="bottom"> <!--<path id="kvg:064c5-Kaisho-s16" kvg:type="㇐" d="M42.04,96.01c1.39,0.55,3.94,0.58,5.33,0.55c12.29-0.27,32.14-2.51,46.51-2.5c2.32,0,3.71,0.26,4.87,0.54"/>--> </g> </g> </g> </g> </g> </g> <g id="kvg:StrokeNumbers_064c5-Kaisho" style="font-size:8;fill:#808080">                 </g> </svg> 