<?xml version="1.0" encoding="UTF-8"?>  <!DOCTYPE svg PUBLIC "-//W3C//DTD SVG 1.0//EN" "http://www.w3.org/TR/2001/REC-SVG-20010904/DTD/svg10.dtd"  <!ATTLIST g xmlns:kvg CDATA #FIXED "http://kanjivg.tagaini.net" kvg:element CDATA #IMPLIED kvg:variant CDATA #IMPLIED kvg:partial CDATA #IMPLIED kvg:original CDATA #IMPLIED kvg:part CDATA #IMPLIED kvg:number CDATA #IMPLIED kvg:tradForm CDATA #IMPLIED kvg:radicalForm CDATA #IMPLIED kvg:position CDATA #IMPLIED kvg:radical CDATA #IMPLIED kvg:phon CDATA #IMPLIED > <!ATTLIST path xmlns:kvg CDATA #FIXED "http://kanjivg.tagaini.net" kvg:type CDATA #IMPLIED >  <svg xmlns="http://www.w3.org/2000/svg" width="109" height="109" viewBox="0 0 109 109"> <g id="kvg:StrokePaths_064e2-Hyougai" style="fill:none;stroke:#000000;stroke-width:3;stroke-linecap:round;stroke-linejoin:round;"> <g id="kvg:064e2-Hyougai" kvg:element="擢"> <g id="kvg:064e2-Hyougai-g1" kvg:element="扌" kvg:variant="true" kvg:original="手" kvg:position="left" kvg:radical="general"> <!--<path id="kvg:064e2-Hyougai-s1" kvg:type="㇐" d="M14.5,39.42c2.08,0.25,1.27,0.55,3.5,0.25c5.5-0.75,13.5-2,22.67-3.17"/>--> <!--<path id="kvg:064e2-Hyougai-s2" kvg:type="㇚" d="M30.27,14.5c0.48,0.92,1.67,2.49,1.76,5.52c0.4,14.55,0.24,60.44,0.24,65.4c0,14.25-5.82,4.03-7.27,2.5"/>--> <!--<path id="kvg:064e2-Hyougai-s3" kvg:type="㇀" d="M12.5,65.14c2.79,2.26,4.58,1.22,7.36-0.71c1.64-1.14,11.67-8.79,18.64-14.27"/>--> </g> <g id="kvg:064e2-Hyougai-g2" kvg:position="right"> <g id="kvg:064e2-Hyougai-g3" kvg:element="羽" kvg:position="top"> <!--<path id="kvg:064e2-Hyougai-s4" kvg:type="㇆" d="M45.25,15.75c1.5,0.75,2,0.75,4.25,0.5s9.5-1.75,11-2s3.5,1.5,3.5,3s0.25,18.5,0.25,20.75"/>--> <!--<path id="kvg:064e2-Hyougai-s5" kvg:type="㇔" d="M46.25,26c1.25,0.5,2.5,0.5,3.5,0.25S60,25,62.25,24.75"/>--> <!--<path id="kvg:064e2-Hyougai-s6" kvg:type="㇀" d="M45.5,36.25c1.25,0.5,2.5,0.5,3.5,0.25s12.25-1.25,14.5-1.5"/>--> <!--<path id="kvg:064e2-Hyougai-s7" kvg:type="㇆" d="M71.5,14c1.5,0.75,2,0.75,4.25,0.5s11-1.75,12.5-2s3.5,1.5,3.5,3S91.5,35,91.5,37.25"/>--> <!--<path id="kvg:064e2-Hyougai-s8" kvg:type="㇔" d="M72.5,24.75c1.25,0.5,2.5,0.5,3.5,0.25s12.25-1.25,14.5-1.5"/>--> <!--<path id="kvg:064e2-Hyougai-s9" kvg:type="㇀" d="M72.25,35c1.25,0.5,2.5,0.5,3.5,0.25s12.75-1.75,15-2"/>--> </g> <g id="kvg:064e2-Hyougai-g4" kvg:element="隹" kvg:position="bottom"> <g id="kvg:064e2-Hyougai-g5" kvg:element="亻" kvg:variant="true" kvg:original="人"> <!--<path id="kvg:064e2-Hyougai-s10" kvg:type="㇒" d="M55.5,42.25c0.15,1.21-0.04,2.79-0.54,3.82c-3.17,6.59-7.19,12.16-14.46,20.18"/>--> <!--<path id="kvg:064e2-Hyougai-s11" kvg:type="㇑" d="M52.05,55.29c0.75,5.8-0.36,36.11-0.02,41.21"/>--> </g> <!--<path id="kvg:064e2-Hyougai-s12" kvg:type="㇒" d="M76.74,41.5c0.07,0.57-0.02,1.33-0.25,1.82c-1.48,3.14-3.35,5.56-6.73,9.38"/>--> <!--<path id="kvg:064e2-Hyougai-s13" kvg:type="㇐b" d="M52.23,55.03c7.19-0.83,34.55-3.24,37.63-3.7"/>--> <!--<path id="kvg:064e2-Hyougai-s14" kvg:type="㇑a" d="M71.58,55.38c0.35,0.32,0.62,0.77,0.62,1.33c0,5.71,0.04,23.65-0.17,32.64"/>--> <!--<path id="kvg:064e2-Hyougai-s15" kvg:type="㇐b" d="M53.51,66.86c6.78-0.69,32-2.68,34.91-3.06"/>--> <!--<path id="kvg:064e2-Hyougai-s16" kvg:type="㇐b" d="M52.68,78.46c7.16-0.58,33.62-2.25,36.69-2.57"/>--> <!--<path id="kvg:064e2-Hyougai-s17" kvg:type="㇐b" d="M53.36,91.27c7.19-0.83,39.99-3.42,43.08-3.87"/>--> </g> </g> </g> </g> <g id="kvg:StrokeNumbers_064e2-Hyougai" style="font-size:8;fill:#808080">                  </g> </svg> 