<?xml version="1.0" encoding="UTF-8"?>  <!DOCTYPE svg PUBLIC "-//W3C//DTD SVG 1.0//EN" "http://www.w3.org/TR/2001/REC-SVG-20010904/DTD/svg10.dtd"  <!ATTLIST g xmlns:kvg CDATA #FIXED "http://kanjivg.tagaini.net" kvg:element CDATA #IMPLIED kvg:variant CDATA #IMPLIED kvg:partial CDATA #IMPLIED kvg:original CDATA #IMPLIED kvg:part CDATA #IMPLIED kvg:number CDATA #IMPLIED kvg:tradForm CDATA #IMPLIED kvg:radicalForm CDATA #IMPLIED kvg:position CDATA #IMPLIED kvg:radical CDATA #IMPLIED kvg:phon CDATA #IMPLIED > <!ATTLIST path xmlns:kvg CDATA #FIXED "http://kanjivg.tagaini.net" kvg:type CDATA #IMPLIED >  <svg xmlns="http://www.w3.org/2000/svg" width="109" height="109" viewBox="0 0 109 109"> <g id="kvg:StrokePaths_065e9-Kaisho" style="fill:none;stroke:#000000;stroke-width:3;stroke-linecap:round;stroke-linejoin:round;"> <g id="kvg:065e9-Kaisho" kvg:element="早"> <g id="kvg:065e9-Kaisho-g1" kvg:element="日" kvg:position="top" kvg:radical="general"> <!--<path id="kvg:065e9-Kaisho-s1" kvg:type="㇑" d="M28.25,17c0.85,1.5,1.27,2.26,2.25,4c1.4,2.5,3.75,25.75,5.1,28"/>--> <!--<path id="kvg:065e9-Kaisho-s2" kvg:type="㇕a" d="M31.01,17c4.8-0.25,41.43-4.38,45.77-3.75c1.72,0.25,3.37,2.22,2.71,4.75c-1.24,4.75-3.74,18.75-5.99,27.25"/>--> <!--<path id="kvg:065e9-Kaisho-s3" kvg:type="㇐a" d="M34.86,32c6.62,0,13.34-1.06,19.91-1.75c2.1-0.22,4.2-0.44,6.23-0.64"/>--> <!--<path id="kvg:065e9-Kaisho-s4" kvg:type="㇐a" d="M37.01,46.25c9.6,0,29.99-3,35.99-3"/>--> </g> <g id="kvg:065e9-Kaisho-g2" kvg:element="十" kvg:position="bottom"> <!--<path id="kvg:065e9-Kaisho-s5" kvg:type="㇐" d="M16.63,66.91c1.47,0.48,4.18,0.61,5.64,0.48c12.73-1.13,55.98-4.63,67.96-4.59c2.45,0.01,3.92,0.23,5.15,0.47"/>--> <!--<path id="kvg:065e9-Kaisho-s6" kvg:type="㇑" d="M53.23,46.5c0.44,0.55,1.38,4.13,1.47,5.24c0.09,1.1-0.06,38.62-0.15,45.51"/>--> </g> </g> </g> <g id="kvg:StrokeNumbers_065e9-Kaisho" style="font-size:8;fill:#808080">       </g> </svg> 