<?xml version="1.0" encoding="UTF-8"?>  <!DOCTYPE svg PUBLIC "-//W3C//DTD SVG 1.0//EN" "http://www.w3.org/TR/2001/REC-SVG-20010904/DTD/svg10.dtd"  <!ATTLIST g xmlns:kvg CDATA #FIXED "http://kanjivg.tagaini.net" kvg:element CDATA #IMPLIED kvg:variant CDATA #IMPLIED kvg:partial CDATA #IMPLIED kvg:original CDATA #IMPLIED kvg:part CDATA #IMPLIED kvg:number CDATA #IMPLIED kvg:tradForm CDATA #IMPLIED kvg:radicalForm CDATA #IMPLIED kvg:position CDATA #IMPLIED kvg:radical CDATA #IMPLIED kvg:phon CDATA #IMPLIED > <!ATTLIST path xmlns:kvg CDATA #FIXED "http://kanjivg.tagaini.net" kvg:type CDATA #IMPLIED >  <svg xmlns="http://www.w3.org/2000/svg" width="109" height="109" viewBox="0 0 109 109"> <g id="kvg:StrokePaths_065e8-Kaisho" style="fill:none;stroke:#000000;stroke-width:3;stroke-linecap:round;stroke-linejoin:round;"> <g id="kvg:065e8-Kaisho" kvg:element="旨"> <g id="kvg:065e8-Kaisho-g1" kvg:element="匕" kvg:position="top" kvg:radical="nelson"> <!--<path id="kvg:065e8-Kaisho-s1" kvg:type="㇒" d="M73.05,13.56c0.2,1.44,0.03,2.33-0.83,2.92c-8.97,6.26-24.71,12.21-43.47,15.8"/>--> <!--<path id="kvg:065e8-Kaisho-s2" kvg:type="㇟" d="M24.73,12.25c1.17,0.51,1.64,2.25,1.64,3.04c0,3.71-0.11,10.71-0.11,18.11c0,11.59,4,12.66,28.91,12.66c27.09,0,27.59-3.31,27.59-10.81"/>--> </g> <g id="kvg:065e8-Kaisho-g2" kvg:element="日" kvg:position="bottom" kvg:radical="tradit"> <!--<path id="kvg:065e8-Kaisho-s3" kvg:type="㇑" d="M31.27,61.05c0.73,0.95,1.16,2.29,1.16,3.43c0,1.14-0.39,32.92-0.39,33.5"/>--> <!--<path id="kvg:065e8-Kaisho-s4" kvg:type="㇕a" d="M33.4,62.19c3.28-0.14,36.43-3.47,39.42-3.64c2.49-0.14,4.09,1.58,3.9,2.43c-0.39,1.72-0.27,34.64-0.27,35.5"/>--> <!--<path id="kvg:065e8-Kaisho-s5" kvg:type="㇐a" d="M33.97,77.67c6.48,0,13.06-0.93,19.5-1.48c2.19-0.19,4.41-0.38,6.54-0.55"/>--> <!--<path id="kvg:065e8-Kaisho-s6" kvg:type="㇐a" d="M33.77,94.98c9.04-0.61,29.56-2.25,40.82-2.78"/>--> </g> </g> </g> <g id="kvg:StrokeNumbers_065e8-Kaisho" style="font-size:8;fill:#808080">       </g> </svg> 