<?xml version="1.0" encoding="UTF-8"?>  <!DOCTYPE svg PUBLIC "-//W3C//DTD SVG 1.0//EN" "http://www.w3.org/TR/2001/REC-SVG-20010904/DTD/svg10.dtd"  <!ATTLIST g xmlns:kvg CDATA #FIXED "http://kanjivg.tagaini.net" kvg:element CDATA #IMPLIED kvg:variant CDATA #IMPLIED kvg:partial CDATA #IMPLIED kvg:original CDATA #IMPLIED kvg:part CDATA #IMPLIED kvg:number CDATA #IMPLIED kvg:tradForm CDATA #IMPLIED kvg:radicalForm CDATA #IMPLIED kvg:position CDATA #IMPLIED kvg:radical CDATA #IMPLIED kvg:phon CDATA #IMPLIED > <!ATTLIST path xmlns:kvg CDATA #FIXED "http://kanjivg.tagaini.net" kvg:type CDATA #IMPLIED >  <svg xmlns="http://www.w3.org/2000/svg" width="109" height="109" viewBox="0 0 109 109"> <g id="kvg:StrokePaths_065ec-Kaisho" style="fill:none;stroke:#000000;stroke-width:3;stroke-linecap:round;stroke-linejoin:round;"> <g id="kvg:065ec-Kaisho" kvg:element="旬"> <g id="kvg:065ec-Kaisho-g1" kvg:element="勹" kvg:radical="nelson"> <g id="kvg:065ec-Kaisho-g2" kvg:element="丿"> <!--<path id="kvg:065ec-Kaisho-s1" kvg:type="㇒" d="M38.5,11.5c0.06,0.9,0.13,2.33-0.13,3.63c-1.52,7.66-10.22,24.46-22.13,34.75"/>--> </g> <!--<path id="kvg:065ec-Kaisho-s2" kvg:type="㇆" d="M35.5,30.75c1.25,0.75,3,1,5,0.5s40.75-5.75,45.75-6s6,2.5,5.25,7.75s-5,45-16,59.25c-3.3,4.28-5.05,1.88-8-1.25"/>--> </g> <g id="kvg:065ec-Kaisho-g3" kvg:element="日" kvg:radical="tradit"> <!--<path id="kvg:065ec-Kaisho-s3" kvg:type="㇑" d="M31.27,48.44c0.37,0.78,0.74,1.18,0.74,2.22c0,1.04-0.12,31.29,0,32.34"/>--> <!--<path id="kvg:065ec-Kaisho-s4" kvg:type="㇕a" d="M32.62,50.07c2.09-0.13,23.21-3.17,25.12-3.33c1.59-0.13,2.61,1.45,2.49,2.22c-0.25,1.57-0.49,31.23-0.49,32.01"/>--> <!--<path id="kvg:065ec-Kaisho-s5" kvg:type="㇐a" d="M32.99,64.73c4.24,0,8.61-0.89,12.8-1.4c1.43-0.18,2.86-0.35,4.23-0.51"/>--> <!--<path id="kvg:065ec-Kaisho-s6" kvg:type="㇐a" d="M32.86,80.06c5.76-0.56,18.83-1.06,26-1.54"/>--> </g> </g> </g> <g id="kvg:StrokeNumbers_065ec-Kaisho" style="font-size:8;fill:#808080">       </g> </svg> 