<?xml version="1.0" encoding="UTF-8"?>  <!DOCTYPE svg PUBLIC "-//W3C//DTD SVG 1.0//EN" "http://www.w3.org/TR/2001/REC-SVG-20010904/DTD/svg10.dtd"  <!ATTLIST g xmlns:kvg CDATA #FIXED "http://kanjivg.tagaini.net" kvg:element CDATA #IMPLIED kvg:variant CDATA #IMPLIED kvg:partial CDATA #IMPLIED kvg:original CDATA #IMPLIED kvg:part CDATA #IMPLIED kvg:number CDATA #IMPLIED kvg:tradForm CDATA #IMPLIED kvg:radicalForm CDATA #IMPLIED kvg:position CDATA #IMPLIED kvg:radical CDATA #IMPLIED kvg:phon CDATA #IMPLIED > <!ATTLIST path xmlns:kvg CDATA #FIXED "http://kanjivg.tagaini.net" kvg:type CDATA #IMPLIED >  <svg xmlns="http://www.w3.org/2000/svg" width="109" height="109" viewBox="0 0 109 109"> <g id="kvg:StrokePaths_0660c-Kaisho" style="fill:none;stroke:#000000;stroke-width:3;stroke-linecap:round;stroke-linejoin:round;"> <g id="kvg:0660c-Kaisho" kvg:element="昌"> <g id="kvg:0660c-Kaisho-g1" kvg:element="日" kvg:position="top" kvg:radical="general"> <!--<path id="kvg:0660c-Kaisho-s1" kvg:type="㇑" d="M27.49,16.58c0.53,0.54,0.54,0.92,0.84,1.61c2.4,5.66,4.12,19.96,5.6,30.52"/>--> <!--<path id="kvg:0660c-Kaisho-s2" kvg:type="㇕a" d="M29.57,18.89c12.48-1.21,35.92-2.85,45.24-3.85c3.42-0.37,4.12,2.13,3.95,3.45c-0.65,4.83-3.25,18.26-5.83,27.12"/>--> <!--<path id="kvg:0660c-Kaisho-s3" kvg:type="㇐a" d="M31.78,31.55c7.2-0.74,14.48-1.01,21.7-1.47c2.49-0.16,5-0.32,7.39-0.47"/>--> <!--<path id="kvg:0660c-Kaisho-s4" kvg:type="㇐a" d="M34.04,44.36c10.96-1.11,27.85-1.74,39.61-2.44"/>--> </g> <g id="kvg:0660c-Kaisho-g2" kvg:element="日" kvg:position="bottom" kvg:radical="general"> <!--<path id="kvg:0660c-Kaisho-s5" kvg:type="㇑" d="M21.5,60.61c0.68,0.66,0.89,1.05,1.08,1.94c1.67,7.71,3.42,23.21,4.22,36.17"/>--> <!--<path id="kvg:0660c-Kaisho-s6" kvg:type="㇕a" d="M23.16,62.26c16.53-1.42,46.26-4.02,58.6-5.21c4.53-0.44,5.46,2.5,5.23,4.05c-0.85,5.68-3.99,31.15-6.23,34.83"/>--> <!--<path id="kvg:0660c-Kaisho-s7" kvg:type="㇐a" d="M25.24,78.02c9.77-1.01,19.62-1.47,29.42-2.14c3.33-0.23,6.65-0.45,9.79-0.67"/>--> <!--<path id="kvg:0660c-Kaisho-s8" kvg:type="㇐a" d="M26.5,93.63c13.5-1.13,39.01-2.33,55.45-3.31"/>--> </g> </g> </g> <g id="kvg:StrokeNumbers_0660c-Kaisho" style="font-size:8;fill:#808080">         </g> </svg> 