<?xml version="1.0" encoding="UTF-8"?>  <!DOCTYPE svg PUBLIC "-//W3C//DTD SVG 1.0//EN" "http://www.w3.org/TR/2001/REC-SVG-20010904/DTD/svg10.dtd"  <!ATTLIST g xmlns:kvg CDATA #FIXED "http://kanjivg.tagaini.net" kvg:element CDATA #IMPLIED kvg:variant CDATA #IMPLIED kvg:partial CDATA #IMPLIED kvg:original CDATA #IMPLIED kvg:part CDATA #IMPLIED kvg:number CDATA #IMPLIED kvg:tradForm CDATA #IMPLIED kvg:radicalForm CDATA #IMPLIED kvg:position CDATA #IMPLIED kvg:radical CDATA #IMPLIED kvg:phon CDATA #IMPLIED > <!ATTLIST path xmlns:kvg CDATA #FIXED "http://kanjivg.tagaini.net" kvg:type CDATA #IMPLIED >  <svg xmlns="http://www.w3.org/2000/svg" width="109" height="109" viewBox="0 0 109 109"> <g id="kvg:StrokePaths_06687-KaishoVtFst" style="fill:none;stroke:#000000;stroke-width:3;stroke-linecap:round;stroke-linejoin:round;"> <g id="kvg:06687-KaishoVtFst" kvg:element="暇"> <g id="kvg:06687-KaishoVtFst-g1" kvg:element="日" kvg:position="left" kvg:radical="general"> <!--<path id="kvg:06687-KaishoVtFst-s1" kvg:type="㇑" d="M12.77,24.94c0.38,0.78,1.26,2.68,1.26,3.72c0,1.04-0.13,47.29,0,48.34"/>--> <!--<path id="kvg:06687-KaishoVtFst-s2" kvg:type="㇕a" d="M14.66,27.13c4.94-1.01,9.75-2.43,13.51-3.14c1.6-0.3,2.55,1.36,2.55,2.09c0,3.81-0.5,40.82-0.5,47.64"/>--> <!--<path id="kvg:06687-KaishoVtFst-s3" kvg:type="㇐a" d="M14.06,50.5c2.83-0.3,5.64-0.71,8.44-1.14c0.64-0.1,1.26-0.19,1.89-0.29"/>--> <!--<path id="kvg:06687-KaishoVtFst-s4" kvg:type="㇐a" d="M14.42,72.86c5.91-0.53,8.28-1.47,15.4-1.93"/>--> </g> <g id="kvg:06687-KaishoVtFst-g2" kvg:position="right"> <!--<path id="kvg:06687-KaishoVtFst-s5" kvg:type="㇑" d="M40.14,18.9c0.86,0.85,1.75,2.31,1.86,3.64c0,15.96,0,61.71-0.25,69.71"/>--> <!--<path id="kvg:06687-KaishoVtFst-s6" kvg:type="㇕" d="M42.31,21.37c5.69-1.12,9.98-2.6,15.92-3.5c1.49-0.22,2.39,1.04,2.18,2.06c-0.89,4.25-2.66,14.07-3.24,18.78"/>--> <!--<path id="kvg:06687-KaishoVtFst-s7" kvg:type="㇐" d="M41.97,42.05c4.8-0.54,13.28-2.3,17.69-2.81"/>--> <!--<path id="kvg:06687-KaishoVtFst-s8" kvg:type="㇐" d="M41.97,57.8c3.82-0.43,8.98-1.63,13.56-2.36c1.17-0.19,2.24,0.16,3.14,0.05"/>--> <!--<path id="kvg:06687-KaishoVtFst-s9" kvg:type="㇐" d="M42.72,74.05c3.82-0.43,8.98-1.63,13.56-2.36c1.17-0.19,2.24,0.16,3.14,0.05"/>--> <!--<path id="kvg:06687-KaishoVtFst-s10" kvg:type="㇕" d="M67.31,19.12c1.02-0.02,3.1-0.1,4.2-0.21c5.29-0.56,10.81-2.04,15.72-2.79c1.49-0.22,2.39,1.04,2.18,2.06c-0.89,4.25-2.66,11.07-3.74,16.28"/>--> <!--<path id="kvg:06687-KaishoVtFst-s11" kvg:type="㇐" d="M66.97,37.8c1.28,0.2,2.02,0.26,3.3,0.09c5.54-0.74,14.3-2.48,17.9-2.89"/>--> <g id="kvg:06687-KaishoVtFst-g3" kvg:element="又"> <!--<path id="kvg:06687-KaishoVtFst-s12" kvg:type="㇇" d="M64.66,52.36c1.17,0.29,1.32,0.73,3.67,0.29s14.73-3.26,16.35-3.7s2.79,1.61,2.2,3.23C79.98,71.27,67.79,85.81,54.58,93"/>--> <!--<path id="kvg:06687-KaishoVtFst-s13" kvg:type="㇏" d="M61.75,60.25c3.44,0.73,20.24,20.24,32.21,28.23c1.87,1.24,3.22,2.07,4.96,2.49"/>--> </g> </g> </g> </g> <g id="kvg:StrokeNumbers_06687-KaishoVtFst" style="font-size:8;fill:#808080">              </g> </svg> 