<?xml version="1.0" encoding="UTF-8"?>  <!DOCTYPE svg PUBLIC "-//W3C//DTD SVG 1.0//EN" "http://www.w3.org/TR/2001/REC-SVG-20010904/DTD/svg10.dtd"  <!ATTLIST g xmlns:kvg CDATA #FIXED "http://kanjivg.tagaini.net" kvg:element CDATA #IMPLIED kvg:variant CDATA #IMPLIED kvg:partial CDATA #IMPLIED kvg:original CDATA #IMPLIED kvg:part CDATA #IMPLIED kvg:number CDATA #IMPLIED kvg:tradForm CDATA #IMPLIED kvg:radicalForm CDATA #IMPLIED kvg:position CDATA #IMPLIED kvg:radical CDATA #IMPLIED kvg:phon CDATA #IMPLIED > <!ATTLIST path xmlns:kvg CDATA #FIXED "http://kanjivg.tagaini.net" kvg:type CDATA #IMPLIED >  <svg xmlns="http://www.w3.org/2000/svg" width="109" height="109" viewBox="0 0 109 109"> <g id="kvg:StrokePaths_06697-Kaisho" style="fill:none;stroke:#000000;stroke-width:3;stroke-linecap:round;stroke-linejoin:round;"> <g id="kvg:06697-Kaisho" kvg:element="暗"> <g id="kvg:06697-Kaisho-g1" kvg:element="日" kvg:position="left" kvg:radical="general"> <!--<path id="kvg:06697-Kaisho-s1" kvg:type="㇑" d="M14.75,30.54c0.32,1.09,0.64,1.63,0.64,3.08c0,1.45-0.11,43.74,0,45.19"/>--> <!--<path id="kvg:06697-Kaisho-s2" kvg:type="㇕a" d="M15.92,32.22c1.81-0.18,13.69-1.47,15.33-1.72c2.89-0.44,4.5,1,4.25,3.75c-0.2,2.17-1.11,41.35-1.11,42.44"/>--> <!--<path id="kvg:06697-Kaisho-s3" kvg:type="㇐a" d="M16.24,53.21c2.92,0,5.91-0.56,8.81-0.9c0.95-0.11,1.91-0.23,2.83-0.33"/>--> <!--<path id="kvg:06697-Kaisho-s4" kvg:type="㇐a" d="M15.92,75.82c3.61,0,12.84-1.84,17.51-1.84"/>--> </g> <g id="kvg:06697-Kaisho-g2" kvg:element="音" kvg:position="right"> <g id="kvg:06697-Kaisho-g3" kvg:element="立"> <g id="kvg:06697-Kaisho-g4" kvg:element="亠" kvg:position="top"> <!--<path id="kvg:06697-Kaisho-s5" kvg:type="㇑a" d="M62.36,12.49c2.53,1.01,5.19,3.51,6.49,6.98"/>--> <!--<path id="kvg:06697-Kaisho-s6" kvg:type="㇐" d="M46.77,27.24c0.75,0.08,2.44,0.48,3.19,0.45c5.79-0.2,21.83-2.35,35.97-4.07c1.23-0.15,1.98-0.15,2.6-0.14"/>--> </g> <g id="kvg:06697-Kaisho-g5" kvg:position="bottom"> <!--<path id="kvg:06697-Kaisho-s7" kvg:type="㇔" d="M54,33.75c3.63,4.47,4.38,8.76,4.89,11.9"/>--> <!--<path id="kvg:06697-Kaisho-s8" kvg:type="㇒" d="M78.52,28.2c0.73,1.3,0.28,3.68,0.09,4.18C76.7,37.47,75.17,43.1,73.75,46"/>--> <!--<path id="kvg:06697-Kaisho-s9" kvg:type="㇐" d="M41.3,50.99c1.2,0.26,3.36,0.5,4.63,0.36C58.5,50,79,48,91.32,47.32c2.16-0.12,4.57,0,5.88,0.59"/>--> </g> </g> <g id="kvg:06697-Kaisho-g6" kvg:element="日"> <!--<path id="kvg:06697-Kaisho-s10" kvg:type="㇑" d="M51.59,60.96c0.49,0.81,0.99,1.81,0.99,2.92c0,1.11-0.11,33.25-0.11,34.38"/>--> <!--<path id="kvg:06697-Kaisho-s11" kvg:type="㇕a" d="M53.38,62.61c2.76-0.29,23.85-2.8,26.28-3.49c2.43-0.69,3.83,0.38,3.57,3.06c-0.14,1.4-0.79,32.06-1.21,33.43"/>--> <!--<path id="kvg:06697-Kaisho-s12" kvg:type="㇐a" d="M53.87,77.63c4.49-0.24,8.98-0.91,13.44-1.41c1.46-0.17,2.91-0.33,4.32-0.49"/>--> <!--<path id="kvg:06697-Kaisho-s13" kvg:type="㇐a" d="M53.39,95.05c5.52-0.29,20.28-2.19,27.41-2.57"/>--> </g> </g> </g> </g> <g id="kvg:StrokeNumbers_06697-Kaisho" style="font-size:8;fill:#808080">              </g> </svg> 