<?xml version="1.0" encoding="UTF-8"?>  <!DOCTYPE svg PUBLIC "-//W3C//DTD SVG 1.0//EN" "http://www.w3.org/TR/2001/REC-SVG-20010904/DTD/svg10.dtd"  <!ATTLIST g xmlns:kvg CDATA #FIXED "http://kanjivg.tagaini.net" kvg:element CDATA #IMPLIED kvg:variant CDATA #IMPLIED kvg:partial CDATA #IMPLIED kvg:original CDATA #IMPLIED kvg:part CDATA #IMPLIED kvg:number CDATA #IMPLIED kvg:tradForm CDATA #IMPLIED kvg:radicalForm CDATA #IMPLIED kvg:position CDATA #IMPLIED kvg:radical CDATA #IMPLIED kvg:phon CDATA #IMPLIED > <!ATTLIST path xmlns:kvg CDATA #FIXED "http://kanjivg.tagaini.net" kvg:type CDATA #IMPLIED >  <svg xmlns="http://www.w3.org/2000/svg" width="109" height="109" viewBox="0 0 109 109"> <g id="kvg:StrokePaths_066f4-Kaisho" style="fill:none;stroke:#000000;stroke-width:3;stroke-linecap:round;stroke-linejoin:round;"> <g id="kvg:066f4-Kaisho" kvg:element="更"> <g id="kvg:066f4-Kaisho-g1" kvg:element="一" kvg:radical="nelson"> <!--<path id="kvg:066f4-Kaisho-s1" kvg:type="㇐" d="M29.75,17.89c0.94,0.38,4.66,0.5,5.6,0.38c8.4-1.02,29.65-4.02,38.61-4.38c1.56-0.06,4.5,0.18,5.29,0.37"/>--> </g> <g id="kvg:066f4-Kaisho-g2" kvg:element="日" kvg:radical="tradit"> <!--<path id="kvg:066f4-Kaisho-s2" kvg:type="㇑" d="M28.02,31.57c0.63,0.69,1.27,1.54,1.27,2.46c0,0.92,4.08,24.38,4.08,24.84c0,0.46,0.21,0.46,0.42,1.38"/>--> <!--<path id="kvg:066f4-Kaisho-s3" kvg:type="㇕a" d="M30.35,33.18c3.59-0.12,44.84-5.8,48.11-5.94c2.72-0.12,4.55,2.01,3.76,5.46c-1.23,5.43-3.97,15.55-7.13,24.07"/>--> <!--<path id="kvg:066f4-Kaisho-s4" kvg:type="㇐a" d="M31.48,46.18C42.5,44.75,53,43.66,61.26,42.75c2.48-0.27,4.93-0.54,7.26-0.78"/>--> <!--<path id="kvg:066f4-Kaisho-s5" kvg:type="㇐a" d="M35.25,57.66C48.25,56,60.5,55,75.38,53.91"/>--> </g> <g id="kvg:066f4-Kaisho-g3" kvg:element="乂"> <g id="kvg:066f4-Kaisho-g4" kvg:element="丿"> <!--<path id="kvg:066f4-Kaisho-s6" kvg:type="㇒" d="M56,18c0.25,1,0.8,2.75,0.8,4.93C56.79,64.5,54.75,84,19,96.54"/>--> </g> <!--<path id="kvg:066f4-Kaisho-s7" kvg:type="㇏" d="M28,65.75c10.75,1.5,43.48,21.24,52.25,24.88c2.97,1.23,5.52,1.76,8.5,2.12"/>--> </g> </g> </g> <g id="kvg:StrokeNumbers_066f4-Kaisho" style="font-size:8;fill:#808080">        </g> </svg> 