<?xml version="1.0" encoding="UTF-8"?>  <!DOCTYPE svg PUBLIC "-//W3C//DTD SVG 1.0//EN" "http://www.w3.org/TR/2001/REC-SVG-20010904/DTD/svg10.dtd"  <!ATTLIST g xmlns:kvg CDATA #FIXED "http://kanjivg.tagaini.net" kvg:element CDATA #IMPLIED kvg:variant CDATA #IMPLIED kvg:partial CDATA #IMPLIED kvg:original CDATA #IMPLIED kvg:part CDATA #IMPLIED kvg:number CDATA #IMPLIED kvg:tradForm CDATA #IMPLIED kvg:radicalForm CDATA #IMPLIED kvg:position CDATA #IMPLIED kvg:radical CDATA #IMPLIED kvg:phon CDATA #IMPLIED > <!ATTLIST path xmlns:kvg CDATA #FIXED "http://kanjivg.tagaini.net" kvg:type CDATA #IMPLIED >  <svg xmlns="http://www.w3.org/2000/svg" width="109" height="109" viewBox="0 0 109 109"> <g id="kvg:StrokePaths_06709-Kaisho" style="fill:none;stroke:#000000;stroke-width:3;stroke-linecap:round;stroke-linejoin:round;"> <g id="kvg:06709-Kaisho" kvg:element="有"> <!--<path id="kvg:06709-Kaisho-s1" kvg:type="㇒" d="M52.16,13.68c0.09,1.16,0.23,3.01-0.19,4.68c-3.11,12.34-12.69,32.06-33.08,44.76"/>--> <!--<path id="kvg:06709-Kaisho-s2" kvg:type="㇐" d="M14.25,30.2c1.52,0.54,4.31,0.67,5.82,0.54C29,30,76,25.5,92.19,25.51c2.53,0,4.05,0.26,5.31,0.53"/>--> <g id="kvg:06709-Kaisho-g1" kvg:element="月" kvg:variant="true" kvg:original="肉" kvg:radical="general"> <!--<path id="kvg:06709-Kaisho-s3" kvg:type="㇑/㇒" d="M42.48,45.39c0.6,0.77,0.99,1.55,1.19,2.32c0.2,0.77,0.28,50.52,0.2,52.26"/>--> <!--<path id="kvg:06709-Kaisho-s4" kvg:type="㇆a" d="M44.86,47.17c2.38-0.19,24.22-3.96,25.99-4.18c3.17-0.39,4.36,2.51,3.97,3.68c-0.38,1.12-0.59,30.61-0.59,46.28c0,11.05-5.95,2.71-6.75,1.74"/>--> <!--<path id="kvg:06709-Kaisho-s5" kvg:type="㇐a" d="M44.86,61.06c4.87-0.7,9.26-1.22,14.16-1.71c1.31-0.13,2.61-0.26,3.88-0.38"/>--> <!--<path id="kvg:06709-Kaisho-s6" kvg:type="㇐a" d="M45.46,74.34c4.48-0.41,8.95-0.95,13.42-1.43c1.3-0.14,2.6-0.28,3.88-0.41"/>--> </g> </g> </g> <g id="kvg:StrokeNumbers_06709-Kaisho" style="font-size:8;fill:#808080">       </g> </svg> 