<?xml version="1.0" encoding="UTF-8"?>  <!DOCTYPE svg PUBLIC "-//W3C//DTD SVG 1.0//EN" "http://www.w3.org/TR/2001/REC-SVG-20010904/DTD/svg10.dtd"  <!ATTLIST g xmlns:kvg CDATA #FIXED "http://kanjivg.tagaini.net" kvg:element CDATA #IMPLIED kvg:variant CDATA #IMPLIED kvg:partial CDATA #IMPLIED kvg:original CDATA #IMPLIED kvg:part CDATA #IMPLIED kvg:number CDATA #IMPLIED kvg:tradForm CDATA #IMPLIED kvg:radicalForm CDATA #IMPLIED kvg:position CDATA #IMPLIED kvg:radical CDATA #IMPLIED kvg:phon CDATA #IMPLIED > <!ATTLIST path xmlns:kvg CDATA #FIXED "http://kanjivg.tagaini.net" kvg:type CDATA #IMPLIED >  <svg xmlns="http://www.w3.org/2000/svg" width="109" height="109" viewBox="0 0 109 109"> <g id="kvg:StrokePaths_06700-Kaisho" style="fill:none;stroke:#000000;stroke-width:3;stroke-linecap:round;stroke-linejoin:round;"> <g id="kvg:06700-Kaisho" kvg:element="最"> <g id="kvg:06700-Kaisho-g1" kvg:element="日" kvg:position="top" kvg:radical="general"> <!--<path id="kvg:06700-Kaisho-s1" kvg:type="㇑" d="M28.28,14.81c0.78,0.48,1.55,0.69,1.56,1.39c0.01,0.7,3.2,24.19,3.21,24.54c0,0.35,0.26,0.33,0.52,1.01"/>--> <!--<path id="kvg:06700-Kaisho-s2" kvg:type="㇕a" d="M30.61,16.22c4.36-0.35,39.47-2.91,43.44-3.25c3.31-0.29,5.45,0.78,5.2,3.66c-0.33,3.68-1.99,11.12-3.54,20.23c-0.13,0.78-0.25,1.15-0.24,1.67"/>--> <!--<path id="kvg:06700-Kaisho-s3" kvg:type="㇐a" d="M31.49,26.78c7.58-0.46,15.15-0.99,22.73-1.48c2.49-0.16,4.98-0.33,7.37-0.48"/>--> <!--<path id="kvg:06700-Kaisho-s4" kvg:type="㇐a" d="M34.34,38.21c8.71-0.53,28.02-1.65,39.3-2.34"/>--> </g> <g id="kvg:06700-Kaisho-g2" kvg:element="取" kvg:position="bottom"> <g id="kvg:06700-Kaisho-g3" kvg:element="耳" kvg:position="left"> <!--<path id="kvg:06700-Kaisho-s5" kvg:type="㇐" d="M12.25,49.7c1.52,0.54,4.3,0.63,5.82,0.54c17.68-0.99,52.18-4.49,68.61-4.73c2.53-0.04,4.05,0.26,5.31,0.53"/>--> <!--<path id="kvg:06700-Kaisho-s6" kvg:type="㇑a" d="M26.06,51.16c0.29,0.85,1.14,1.67,1.14,2.66c0,0.99-0.14,30.61-0.14,34.18"/>--> <!--<path id="kvg:06700-Kaisho-s7" kvg:type="㇐a" d="M28.17,61.83c3.05-0.46,6.11-0.91,9.18-1.25c0.62-0.07,1.23-0.13,1.86-0.19"/>--> <!--<path id="kvg:06700-Kaisho-s8" kvg:type="㇐a" d="M27.89,73.61c2.73-0.35,5.46-0.71,8.2-1.01c0.63-0.07,1.27-0.13,1.94-0.2"/>--> <!--<path id="kvg:06700-Kaisho-s9" kvg:type="㇀" d="M16.25,92.38c0.25,0.96,1.36,2.31,2.22,1.92c3.45-1.6,21.99-10.59,27.29-13.14"/>--> <!--<path id="kvg:06700-Kaisho-s10" kvg:type="㇑" d="M44.75,49.32c0.89,0.89,0.98,1.05,0.98,2.04c0,0.99,0.14,40.51,0.14,48.64"/>--> </g> <g id="kvg:06700-Kaisho-g4" kvg:element="又" kvg:position="right"> <!--<path id="kvg:06700-Kaisho-s11" kvg:type="㇇" d="M57.16,60.75c1.06,0.25,1.19,0.64,3.3,0.25c2.11-0.38,16.42-3.71,17.87-4.09c1.45-0.38,2.53,1.42,1.98,2.81C73.75,76.25,65.25,86.5,52.15,95.96"/>--> <!--<path id="kvg:06700-Kaisho-s12" kvg:type="㇏" d="M54.99,66.7c3.83,1.22,21.18,21.53,35.32,28.39c2.17,1.06,3.54,2.01,5.44,2.42"/>--> </g> </g> </g> </g> <g id="kvg:StrokeNumbers_06700-Kaisho" style="font-size:8;fill:#808080">             </g> </svg> 