<?xml version="1.0" encoding="UTF-8"?>  <!DOCTYPE svg PUBLIC "-//W3C//DTD SVG 1.0//EN" "http://www.w3.org/TR/2001/REC-SVG-20010904/DTD/svg10.dtd"  <!ATTLIST g xmlns:kvg CDATA #FIXED "http://kanjivg.tagaini.net" kvg:element CDATA #IMPLIED kvg:variant CDATA #IMPLIED kvg:partial CDATA #IMPLIED kvg:original CDATA #IMPLIED kvg:part CDATA #IMPLIED kvg:number CDATA #IMPLIED kvg:tradForm CDATA #IMPLIED kvg:radicalForm CDATA #IMPLIED kvg:position CDATA #IMPLIED kvg:radical CDATA #IMPLIED kvg:phon CDATA #IMPLIED > <!ATTLIST path xmlns:kvg CDATA #FIXED "http://kanjivg.tagaini.net" kvg:type CDATA #IMPLIED >  <svg xmlns="http://www.w3.org/2000/svg" width="109" height="109" viewBox="0 0 109 109"> <g id="kvg:StrokePaths_06728-Kaisho" style="fill:none;stroke:#000000;stroke-width:3;stroke-linecap:round;stroke-linejoin:round;"> <g id="kvg:06728-Kaisho" kvg:element="木" kvg:radical="general"> <!--<path id="kvg:06728-Kaisho-s1" kvg:type="㇐" d="M19.75,40.11c2.45,0.61,4.91,0.75,7.36,0.42c10.61-0.99,35.11-3.44,50.38-4.87c3.13-0.29,7.01,0.33,9.26,1.23"/>--> <!--<path id="kvg:06728-Kaisho-s2" kvg:type="㇑" d="M51.25,10.75c1.81,1.29,2.25,3.62,2.25,5.87c0,14.03,0.25,69.89,0.25,75.88c0,13.75-6.12,2.38-7.5,1"/>--> <!--<path id="kvg:06728-Kaisho-s3" kvg:type="㇒" d="M51.75,39.25c-1.07,2.28-2.46,4.76-4.08,7.35c-7.82,12.48-21.15,27.44-31.92,33.65"/>--> <!--<path id="kvg:06728-Kaisho-s4" kvg:type="㇏" d="M54.5,39c4.35,4.81,23.45,27.3,30.6,35.02c1.76,2.15,3.97,3.73,6.65,4.73"/>--> </g> </g> <g id="kvg:StrokeNumbers_06728-Kaisho" style="font-size:8;fill:#808080">     </g> </svg> 