<?xml version="1.0" encoding="UTF-8"?>  <!DOCTYPE svg PUBLIC "-//W3C//DTD SVG 1.0//EN" "http://www.w3.org/TR/2001/REC-SVG-20010904/DTD/svg10.dtd"  <!ATTLIST g xmlns:kvg CDATA #FIXED "http://kanjivg.tagaini.net" kvg:element CDATA #IMPLIED kvg:variant CDATA #IMPLIED kvg:partial CDATA #IMPLIED kvg:original CDATA #IMPLIED kvg:part CDATA #IMPLIED kvg:number CDATA #IMPLIED kvg:tradForm CDATA #IMPLIED kvg:radicalForm CDATA #IMPLIED kvg:position CDATA #IMPLIED kvg:radical CDATA #IMPLIED kvg:phon CDATA #IMPLIED > <!ATTLIST path xmlns:kvg CDATA #FIXED "http://kanjivg.tagaini.net" kvg:type CDATA #IMPLIED >  <svg xmlns="http://www.w3.org/2000/svg" width="109" height="109" viewBox="0 0 109 109"> <g id="kvg:StrokePaths_0673d-Kaisho" style="fill:none;stroke:#000000;stroke-width:3;stroke-linecap:round;stroke-linejoin:round;"> <g id="kvg:0673d-Kaisho" kvg:element="朽"> <g id="kvg:0673d-Kaisho-g1" kvg:element="木" kvg:position="left" kvg:radical="general"> <!--<path id="kvg:0673d-Kaisho-s1" kvg:type="㇐" d="M14.28,37.72c0.35,0.24,2.39,0.41,3.31,0.31c3.94-0.41,20.12-2.21,26.45-3.41c0.92-0.17,2.15-0.24,2.73,0"/>--> <!--<path id="kvg:0673d-Kaisho-s2" kvg:type="㇑" d="M31.36,14.5c0.91,0.47,2.86,3.49,3.04,4.42c0.18,0.93-0.3,70.73-0.3,71.58c0,12.25-6.22,3.62-7.6,2.25"/>--> <!--<path id="kvg:0673d-Kaisho-s3" kvg:type="㇒" d="M33.94,40.28c-6.15,14.49-9.57,20.62-19.08,33.31"/>--> <!--<path id="kvg:0673d-Kaisho-s4" kvg:type="㇔/㇏" d="M36.47,44.9C39.71,46.61,45,52.5,47.75,57"/>--> </g> <g id="kvg:0673d-Kaisho-g2" kvg:position="right"> <!--<path id="kvg:0673d-Kaisho-s5" kvg:type="㇐" d="M48.92,26.21c0.96,0.36,2.71,0.41,3.67,0.36c10.05-0.52,29.54-4.02,40.64-4.01c1.59,0,2.55,0.17,3.35,0.36"/>--> <!--<path id="kvg:0673d-Kaisho-s6" kvg:type="㇉" d="M66.56,25.55c1.1,0.98,0.8,3.56,0.22,5.18c-2.36,6.52-5.48,11.65-7.99,15.96c-1.79,3.07-1.04,4.07,2.93,3.43c4.55-0.73,16.39-3.33,22.24-4.16c5.04-0.71,5.15,3.34,4.51,6.67C86.25,64.25,82.25,80,75.94,90.55c-4.82,8.06-7.14,0.84-8.81-1.05"/>--> </g> </g> </g> <g id="kvg:StrokeNumbers_0673d-Kaisho" style="font-size:8;fill:#808080">       </g> </svg> 