<?xml version="1.0" encoding="UTF-8"?>  <!DOCTYPE svg PUBLIC "-//W3C//DTD SVG 1.0//EN" "http://www.w3.org/TR/2001/REC-SVG-20010904/DTD/svg10.dtd"  <!ATTLIST g xmlns:kvg CDATA #FIXED "http://kanjivg.tagaini.net" kvg:element CDATA #IMPLIED kvg:variant CDATA #IMPLIED kvg:partial CDATA #IMPLIED kvg:original CDATA #IMPLIED kvg:part CDATA #IMPLIED kvg:number CDATA #IMPLIED kvg:tradForm CDATA #IMPLIED kvg:radicalForm CDATA #IMPLIED kvg:position CDATA #IMPLIED kvg:radical CDATA #IMPLIED kvg:phon CDATA #IMPLIED > <!ATTLIST path xmlns:kvg CDATA #FIXED "http://kanjivg.tagaini.net" kvg:type CDATA #IMPLIED >  <svg xmlns="http://www.w3.org/2000/svg" width="109" height="109" viewBox="0 0 109 109"> <g id="kvg:StrokePaths_06731-Kaisho" style="fill:none;stroke:#000000;stroke-width:3;stroke-linecap:round;stroke-linejoin:round;"> <g id="kvg:06731-Kaisho" kvg:element="朱"> <g id="kvg:06731-Kaisho-g1" kvg:element="丿" kvg:radical="nelson"> <!--<path id="kvg:06731-Kaisho-s1" kvg:type="㇒" d="M35.58,17.75c0.04,0.67,0.17,1.92-0.09,2.68c-3.2,9.4-7.92,18.03-16.25,25.62"/>--> </g> <g id="kvg:06731-Kaisho-g2" kvg:element="未"> <!--<path id="kvg:06731-Kaisho-s2" kvg:type="㇐" d="M30.38,34.02c0.88,0.28,2.49,0.31,3.37,0.28c9.16-0.32,30-4.3,41.14-5.23c1.46-0.12,2.35,0.13,3.08,0.27"/>--> <g id="kvg:06731-Kaisho-g3" kvg:element="木" kvg:radical="tradit"> <!--<path id="kvg:06731-Kaisho-s3" kvg:type="㇐" d="M17.19,54.5c0.89,0.25,3.27,0.94,5.64,0.75c9.42-0.75,43.58-5.75,59.91-7c2.37-0.18,4.47,0.25,5.95,0.5"/>--> <!--<path id="kvg:06731-Kaisho-s4" kvg:type="㇑" d="M51.91,11.75c1.48,0.5,2.38,2.25,2.67,3.25s-0.3,75.71-0.3,77c0,12.75-5.53,3-7.03,1.5"/>--> <!--<path id="kvg:06731-Kaisho-s5" kvg:type="㇒" d="M52.25,52.5C45.5,63.45,28.04,80.05,14,86.25"/>--> <!--<path id="kvg:06731-Kaisho-s6" kvg:type="㇏" d="M55,51.75c5.13,6.46,26.81,24.91,34.46,30.31c1.91,1.35,3.44,2.04,5.29,2.44"/>--> </g> </g> </g> </g> <g id="kvg:StrokeNumbers_06731-Kaisho" style="font-size:8;fill:#808080">       </g> </svg> 