<?xml version="1.0" encoding="UTF-8"?>  <!DOCTYPE svg PUBLIC "-//W3C//DTD SVG 1.0//EN" "http://www.w3.org/TR/2001/REC-SVG-20010904/DTD/svg10.dtd"  <!ATTLIST g xmlns:kvg CDATA #FIXED "http://kanjivg.tagaini.net" kvg:element CDATA #IMPLIED kvg:variant CDATA #IMPLIED kvg:partial CDATA #IMPLIED kvg:original CDATA #IMPLIED kvg:part CDATA #IMPLIED kvg:number CDATA #IMPLIED kvg:tradForm CDATA #IMPLIED kvg:radicalForm CDATA #IMPLIED kvg:position CDATA #IMPLIED kvg:radical CDATA #IMPLIED kvg:phon CDATA #IMPLIED > <!ATTLIST path xmlns:kvg CDATA #FIXED "http://kanjivg.tagaini.net" kvg:type CDATA #IMPLIED >  <svg xmlns="http://www.w3.org/2000/svg" width="109" height="109" viewBox="0 0 109 109"> <g id="kvg:StrokePaths_06734-Kaisho" style="fill:none;stroke:#000000;stroke-width:3;stroke-linecap:round;stroke-linejoin:round;"> <g id="kvg:06734-Kaisho" kvg:element="朴"> <g id="kvg:06734-Kaisho-g1" kvg:element="木" kvg:position="left" kvg:radical="general"> <!--<path id="kvg:06734-Kaisho-s1" kvg:type="㇐" d="M15.28,37.72c0.35,0.24,2.39,0.41,3.31,0.31c3.94-0.41,24.12-4.21,30.45-5.41c0.92-0.17,2.15-0.24,2.73,0"/>--> <!--<path id="kvg:06734-Kaisho-s2" kvg:type="㇑" d="M34.36,13.5c0.91,0.47,2.86,3.49,3.04,4.42c0.18,0.93-0.3,73.73-0.3,74.58c0,12-5.85,3.5-7.1,2.25"/>--> <!--<path id="kvg:06734-Kaisho-s3" kvg:type="㇒" d="M36.94,37.28C30.47,51.56,26.87,57.6,16.86,70.09"/>--> <!--<path id="kvg:06734-Kaisho-s4" kvg:type="㇔/㇏" d="M39.47,44.9c3.59,2.12,9.5,9,12.53,13.1"/>--> </g> <g id="kvg:06734-Kaisho-g2" kvg:element="卜" kvg:original="ト" kvg:position="right"> <!--<path id="kvg:06734-Kaisho-s5" kvg:type="㇑" d="M66.31,12.13c0.76,0.45,2.36,3.35,2.51,4.25c0.15,0.9-0.1,75.15-0.25,80.75"/>--> <!--<path id="kvg:06734-Kaisho-s6" kvg:type="㇔" d="M72.75,41.25c7.59,3.62,18.75,12.25,22,20"/>--> </g> </g> </g> <g id="kvg:StrokeNumbers_06734-Kaisho" style="font-size:8;fill:#808080">       </g> </svg> 