<?xml version="1.0" encoding="UTF-8"?>  <!DOCTYPE svg PUBLIC "-//W3C//DTD SVG 1.0//EN" "http://www.w3.org/TR/2001/REC-SVG-20010904/DTD/svg10.dtd"  <!ATTLIST g xmlns:kvg CDATA #FIXED "http://kanjivg.tagaini.net" kvg:element CDATA #IMPLIED kvg:variant CDATA #IMPLIED kvg:partial CDATA #IMPLIED kvg:original CDATA #IMPLIED kvg:part CDATA #IMPLIED kvg:number CDATA #IMPLIED kvg:tradForm CDATA #IMPLIED kvg:radicalForm CDATA #IMPLIED kvg:position CDATA #IMPLIED kvg:radical CDATA #IMPLIED kvg:phon CDATA #IMPLIED > <!ATTLIST path xmlns:kvg CDATA #FIXED "http://kanjivg.tagaini.net" kvg:type CDATA #IMPLIED >  <svg xmlns="http://www.w3.org/2000/svg" width="109" height="109" viewBox="0 0 109 109"> <g id="kvg:StrokePaths_06751-Kaisho" style="fill:none;stroke:#000000;stroke-width:3;stroke-linecap:round;stroke-linejoin:round;"> <g id="kvg:06751-Kaisho" kvg:element="村"> <g id="kvg:06751-Kaisho-g1" kvg:element="木" kvg:position="left" kvg:radical="general"> <!--<path id="kvg:06751-Kaisho-s1" kvg:type="㇐" d="M13.78,39.23c0.42,0.18,2.94,0.3,4.07,0.23c4.84-0.3,22.26-2.35,30.05-3.23c1.13-0.13,1.42-0.18,2.12,0"/>--> <!--<path id="kvg:06751-Kaisho-s2" kvg:type="㇑" d="M33.36,13.5c0.91,0.48,2.86,3.63,3.04,4.59c0.18,0.97-0.3,69.34-0.3,70.41c0,13-5.72,3.88-7.35,2.25"/>--> <!--<path id="kvg:06751-Kaisho-s3" kvg:type="㇒" d="M35.19,41.07c-6.14,13.14-10.35,19.01-19.08,30.19"/>--> <!--<path id="kvg:06751-Kaisho-s4" kvg:type="㇔/㇏" d="M40.72,48.72c2.53,1.53,6.03,6.78,8.16,9.76"/>--> </g> <g id="kvg:06751-Kaisho-g2" kvg:element="寸" kvg:position="right"> <!--<path id="kvg:06751-Kaisho-s5" kvg:type="㇐" d="M54,41.93c0.83,0.49,4.34,0.6,5.19,0.49c12.56-1.67,20.56-3.42,36.4-4.69c1.38-0.11,2.22,0.23,2.91,0.48"/>--> <!--<path id="kvg:06751-Kaisho-s6" kvg:type="㇚" d="M80.39,14.5c0.86,1,2.17,2.49,2.26,5.52c0.4,14.55-1.02,64.66-1.26,69.62c-0.15,3.03-1.71,4.25-3.96,4c-2.45-0.27-2.56-2.22-4.75-3.75"/>--> <!--<path id="kvg:06751-Kaisho-s7" kvg:type="㇔" d="M59.58,56.78c2.74,2.07,7.07,8.52,7.75,11.75"/>--> </g> </g> </g> <g id="kvg:StrokeNumbers_06751-Kaisho" style="font-size:8;fill:#808080">        </g> </svg> 