<?xml version="1.0" encoding="UTF-8"?>  <!DOCTYPE svg PUBLIC "-//W3C//DTD SVG 1.0//EN" "http://www.w3.org/TR/2001/REC-SVG-20010904/DTD/svg10.dtd"  <!ATTLIST g xmlns:kvg CDATA #FIXED "http://kanjivg.tagaini.net" kvg:element CDATA #IMPLIED kvg:variant CDATA #IMPLIED kvg:partial CDATA #IMPLIED kvg:original CDATA #IMPLIED kvg:part CDATA #IMPLIED kvg:number CDATA #IMPLIED kvg:tradForm CDATA #IMPLIED kvg:radicalForm CDATA #IMPLIED kvg:position CDATA #IMPLIED kvg:radical CDATA #IMPLIED kvg:phon CDATA #IMPLIED > <!ATTLIST path xmlns:kvg CDATA #FIXED "http://kanjivg.tagaini.net" kvg:type CDATA #IMPLIED >  <svg xmlns="http://www.w3.org/2000/svg" width="109" height="109" viewBox="0 0 109 109"> <g id="kvg:StrokePaths_0675f-Kaisho" style="fill:none;stroke:#000000;stroke-width:3;stroke-linecap:round;stroke-linejoin:round;"> <g id="kvg:0675f-Kaisho" kvg:element="束"> <g id="kvg:0675f-Kaisho-g1" kvg:element="木" kvg:part="1" kvg:radical="tradit"> <!--<path id="kvg:0675f-Kaisho-s1" kvg:type="㇐" d="M24.25,26.39c0.94,0.38,2.66,0.44,3.6,0.38c7.9-0.52,42.15-5.02,50.61-5.38c1.56-0.07,2.5,0.18,3.29,0.37"/>--> </g> <g id="kvg:0675f-Kaisho-g2" kvg:element="口"> <!--<path id="kvg:0675f-Kaisho-s2" kvg:type="㇑" d="M27.25,41.57c0.4,0.38,0.81,0.7,0.99,1.18c1.39,3.78,3.05,14.21,4,21"/>--> <!--<path id="kvg:0675f-Kaisho-s3" kvg:type="㇕b" d="M29.74,43.64c12.01-1.64,42.14-4.77,46.83-5.15c2.92-0.24,4.77,2.45,4,4.64C78.5,49,78,51,76.36,55.49"/>--> <!--<path id="kvg:0675f-Kaisho-s4" kvg:type="㇐b" d="M32.42,60.93C44,59.5,67.25,56.75,78.07,56.04"/>--> </g> <g id="kvg:0675f-Kaisho-g3" kvg:element="木" kvg:part="2" kvg:radical="tradit"> <!--<path id="kvg:0675f-Kaisho-s5" kvg:type="㇑" d="M51.25,11.25c1.25,0.5,2,2.25,2.25,3.25s-0.25,71.75-0.25,78c0,13.5-6.25,2.75-7.25,1.75"/>--> <g id="kvg:0675f-Kaisho-g4" kvg:element="丿" kvg:radical="nelson"> <!--<path id="kvg:0675f-Kaisho-s6" kvg:type="㇒" d="M53.25,59.75C46.78,70.74,29.96,86.28,16.5,92.5"/>--> </g> <!--<path id="kvg:0675f-Kaisho-s7" kvg:type="㇏" d="M54,59.5c5.58,3.88,29.56,22.72,35.63,26.53c2.06,1.29,3.82,1.85,5.87,2.22"/>--> </g> </g> </g> <g id="kvg:StrokeNumbers_0675f-Kaisho" style="font-size:8;fill:#808080">        </g> </svg> 