<?xml version="1.0" encoding="UTF-8"?>  <!DOCTYPE svg PUBLIC "-//W3C//DTD SVG 1.0//EN" "http://www.w3.org/TR/2001/REC-SVG-20010904/DTD/svg10.dtd"  <!ATTLIST g xmlns:kvg CDATA #FIXED "http://kanjivg.tagaini.net" kvg:element CDATA #IMPLIED kvg:variant CDATA #IMPLIED kvg:partial CDATA #IMPLIED kvg:original CDATA #IMPLIED kvg:part CDATA #IMPLIED kvg:number CDATA #IMPLIED kvg:tradForm CDATA #IMPLIED kvg:radicalForm CDATA #IMPLIED kvg:position CDATA #IMPLIED kvg:radical CDATA #IMPLIED kvg:phon CDATA #IMPLIED > <!ATTLIST path xmlns:kvg CDATA #FIXED "http://kanjivg.tagaini.net" kvg:type CDATA #IMPLIED >  <svg xmlns="http://www.w3.org/2000/svg" width="109" height="109" viewBox="0 0 109 109"> <g id="kvg:StrokePaths_0675e-Kaisho" style="fill:none;stroke:#000000;stroke-width:3;stroke-linecap:round;stroke-linejoin:round;"> <g id="kvg:0675e-Kaisho" kvg:element="杞"> <g id="kvg:0675e-Kaisho-g1" kvg:element="木" kvg:position="left" kvg:radical="general"> <!--<path id="kvg:0675e-Kaisho-s1" kvg:type="㇐" d="M13.03,37.9c0.37,0.26,2.57,0.44,3.55,0.33c4.23-0.43,19.45-1.28,26.26-2.56c0.98-0.18,2.31-0.26,2.93,0"/>--> <!--<path id="kvg:0675e-Kaisho-s2" kvg:type="㇑" d="M30.36,14.5c0.91,0.47,2.04,2.25,2.04,4.42c0,0.95-0.3,70.73-0.3,71.58c0,11.75-5.22,3.12-6.85,1.5"/>--> <!--<path id="kvg:0675e-Kaisho-s3" kvg:type="㇒" d="M32.19,39.53c-6.55,15.15-10.44,23.72-20.33,34.81"/>--> <!--<path id="kvg:0675e-Kaisho-s4" kvg:type="㇔/㇏" d="M34.97,47.15c2.87,2,7.6,7.23,10.03,11.1"/>--> </g> <g id="kvg:0675e-Kaisho-g2" kvg:element="己" kvg:position="right"> <!--<path id="kvg:0675e-Kaisho-s5" kvg:type="㇕c" d="M51.71,27.84c1.79,0.91,3.76,1.13,5.98,0.86c9.81-1.2,29.19-3.61,30.56-3.7c3.46-0.23,4.77,2.28,3.61,5.45c-1.11,3.05-3.36,12.3-4.36,18.3"/>--> <!--<path id="kvg:0675e-Kaisho-s6" kvg:type="㇐" d="M53.25,51c1.25,0.25,3.57,0.29,4.74,0.17c9.86-0.93,25.57-2,32.35-2.6"/>--> <!--<path id="kvg:0675e-Kaisho-s7" kvg:type="㇟" d="M54.75,51c0.75,1.25,0.75,2.48,1.05,3.92c0.42,2.06-0.22,21.47-0.22,23.83c0,10.75,1.92,14.01,17.9,14.01c18.77,0,21.02-2.51,21.02-10.68"/>--> </g> </g> </g> <g id="kvg:StrokeNumbers_0675e-Kaisho" style="font-size:8;fill:#808080">        </g> </svg> 