<?xml version="1.0" encoding="UTF-8"?>  <!DOCTYPE svg PUBLIC "-//W3C//DTD SVG 1.0//EN" "http://www.w3.org/TR/2001/REC-SVG-20010904/DTD/svg10.dtd"  <!ATTLIST g xmlns:kvg CDATA #FIXED "http://kanjivg.tagaini.net" kvg:element CDATA #IMPLIED kvg:variant CDATA #IMPLIED kvg:partial CDATA #IMPLIED kvg:original CDATA #IMPLIED kvg:part CDATA #IMPLIED kvg:number CDATA #IMPLIED kvg:tradForm CDATA #IMPLIED kvg:radicalForm CDATA #IMPLIED kvg:position CDATA #IMPLIED kvg:radical CDATA #IMPLIED kvg:phon CDATA #IMPLIED > <!ATTLIST path xmlns:kvg CDATA #FIXED "http://kanjivg.tagaini.net" kvg:type CDATA #IMPLIED >  <svg xmlns="http://www.w3.org/2000/svg" width="109" height="109" viewBox="0 0 109 109"> <g id="kvg:StrokePaths_06753-Hyougai" style="fill:none;stroke:#000000;stroke-width:3;stroke-linecap:round;stroke-linejoin:round;"> <g id="kvg:06753-Hyougai" kvg:element="杓"> <g id="kvg:06753-Hyougai-g1" kvg:element="木" kvg:position="left" kvg:radical="general"> <!--<path id="kvg:06753-Hyougai-s1" kvg:type="㇐" d="M13.78,40.47c2.47,0.66,4.32,0.42,6.49,0.1c5.19-0.85,14.31-2.24,20.63-2.63c1.21-0.07,2.42-0.1,3.62-0.08"/>--> <!--<path id="kvg:06753-Hyougai-s2" kvg:type="㇑" d="M31.36,13.75c0.94,0.94,1.04,2.25,1.04,4.92c0,0.75-0.01,43.7-0.02,65.08c0,5.65,0,9.79,0,11.25"/>--> <!--<path id="kvg:06753-Hyougai-s3" kvg:type="㇒" d="M31.94,40.03c0,2.09-1.33,5.47-1.96,6.94c-4.78,11.19-8.54,18.24-16.62,29.37"/>--> <!--<path id="kvg:06753-Hyougai-s4" kvg:type="㇔/㇏" d="M36.22,50.15c2.37,1.59,6.03,6.6,7.41,10.64"/>--> </g> <g id="kvg:06753-Hyougai-g2" kvg:element="勺" kvg:position="right"> <g id="kvg:06753-Hyougai-g3" kvg:element="勹"> <g id="kvg:06753-Hyougai-g4" kvg:element="丿"> <!--<path id="kvg:06753-Hyougai-s5" kvg:type="㇒" d="M66.76,15.5c0.06,1.25-0.13,2.44-0.59,3.56c-3.8,9.31-9.8,20.31-17.18,29.06"/>--> </g> <!--<path id="kvg:06753-Hyougai-s6" kvg:type="㇆" d="M60.75,37.37c2.28,0.44,4.53,0.39,6.75-0.12c7.81-1.76,14.4-3.38,20.61-4.25c4.13-0.58,6.1,2.05,5.4,6.75c-2,13.32-5.63,33.1-13.59,46.15c-4.04,6.63-7.39,8.01-13.16,2.46"/>--> </g> <g id="kvg:06753-Hyougai-g5" kvg:element="丶"> <!--<path id="kvg:06753-Hyougai-s7" kvg:type="㇔" d="M60.02,55.33c3.1,2.18,8.52,8.98,9.29,12.38"/>--> </g> </g> </g> </g> <g id="kvg:StrokeNumbers_06753-Hyougai" style="font-size:8;fill:#808080">        </g> </svg> 