<?xml version="1.0" encoding="UTF-8"?>  <!DOCTYPE svg PUBLIC "-//W3C//DTD SVG 1.0//EN" "http://www.w3.org/TR/2001/REC-SVG-20010904/DTD/svg10.dtd"  <!ATTLIST g xmlns:kvg CDATA #FIXED "http://kanjivg.tagaini.net" kvg:element CDATA #IMPLIED kvg:variant CDATA #IMPLIED kvg:partial CDATA #IMPLIED kvg:original CDATA #IMPLIED kvg:part CDATA #IMPLIED kvg:number CDATA #IMPLIED kvg:tradForm CDATA #IMPLIED kvg:radicalForm CDATA #IMPLIED kvg:position CDATA #IMPLIED kvg:radical CDATA #IMPLIED kvg:phon CDATA #IMPLIED > <!ATTLIST path xmlns:kvg CDATA #FIXED "http://kanjivg.tagaini.net" kvg:type CDATA #IMPLIED >  <svg xmlns="http://www.w3.org/2000/svg" width="109" height="109" viewBox="0 0 109 109"> <g id="kvg:StrokePaths_06759-Kaisho" style="fill:none;stroke:#000000;stroke-width:3;stroke-linecap:round;stroke-linejoin:round;"> <g id="kvg:06759-Kaisho" kvg:element="杙"> <g id="kvg:06759-Kaisho-g1" kvg:element="木" kvg:position="left" kvg:radical="general"> <!--<path id="kvg:06759-Kaisho-s1" kvg:type="㇐" d="M12.78,36.22c0.37,0.24,2.55,0.41,3.53,0.31c4.21-0.41,17.78-1.71,24.54-2.91c0.98-0.17,2.3-0.24,2.91,0"/>--> <!--<path id="kvg:06759-Kaisho-s2" kvg:type="㇑" d="M28.86,16c0.91,0.47,2.04,2,2.04,4.42c0,0.95-0.3,67.23-0.3,68.08c0,11.5-4.97,2.88-6.6,1.25"/>--> <!--<path id="kvg:06759-Kaisho-s3" kvg:type="㇒" d="M30.44,37.78C25.75,53.5,20.5,63,12.11,74.59"/>--> <!--<path id="kvg:06759-Kaisho-s4" kvg:type="㇔/㇏" d="M32.97,46.4c2.73,1.47,7.22,6.25,9.53,9.1"/>--> </g> <g id="kvg:06759-Kaisho-g2" kvg:element="弋" kvg:position="right"> <!--<path id="kvg:06759-Kaisho-s5" kvg:type="㇐" d="M43.5,42.58c1.5,0.42,3.23,0.98,4.69,0.78c11.56-1.6,25.81-3.85,40.72-4.76c1.87-0.11,3.18-0.15,4.42-0.01"/>--> <!--<path id="kvg:06759-Kaisho-s6" kvg:type="㇂" d="M59.99,13.5c1.34,1.8,1.56,2.31,1.84,6.18c2.34,32.46,11.38,62.66,27.8,74.77c5.27,3.89,4.52,0.77,3.85-7.21"/>--> <g id="kvg:06759-Kaisho-g3" kvg:element="丶"> <!--<path id="kvg:06759-Kaisho-s7" kvg:type="㇔" d="M75.24,19.21c3.13,1.68,8.13,5.52,9.59,8.39"/>--> </g> </g> </g> </g> <g id="kvg:StrokeNumbers_06759-Kaisho" style="font-size:8;fill:#808080">        </g> </svg> 