<?xml version="1.0" encoding="UTF-8"?>  <!DOCTYPE svg PUBLIC "-//W3C//DTD SVG 1.0//EN" "http://www.w3.org/TR/2001/REC-SVG-20010904/DTD/svg10.dtd"  <!ATTLIST g xmlns:kvg CDATA #FIXED "http://kanjivg.tagaini.net" kvg:element CDATA #IMPLIED kvg:variant CDATA #IMPLIED kvg:partial CDATA #IMPLIED kvg:original CDATA #IMPLIED kvg:part CDATA #IMPLIED kvg:number CDATA #IMPLIED kvg:tradForm CDATA #IMPLIED kvg:radicalForm CDATA #IMPLIED kvg:position CDATA #IMPLIED kvg:radical CDATA #IMPLIED kvg:phon CDATA #IMPLIED > <!ATTLIST path xmlns:kvg CDATA #FIXED "http://kanjivg.tagaini.net" kvg:type CDATA #IMPLIED >  <svg xmlns="http://www.w3.org/2000/svg" width="109" height="109" viewBox="0 0 109 109"> <g id="kvg:StrokePaths_06761-Kaisho" style="fill:none;stroke:#000000;stroke-width:3;stroke-linecap:round;stroke-linejoin:round;"> <g id="kvg:06761-Kaisho" kvg:element="条"> <g id="kvg:06761-Kaisho-g1" kvg:element="夂" kvg:position="top" kvg:radical="nelson"> <!--<path id="kvg:06761-Kaisho-s1" kvg:type="㇒" d="M45.94,11.5c0.06,0.57,0.13,1.47-0.12,2.29c-1.45,4.82-9.76,15.4-21.14,21.88"/>--> <!--<path id="kvg:06761-Kaisho-s2" kvg:type="㇇" d="M48.09,19.04c0.32,0.03,1.68,0,2.6-0.08c3.01-0.25,11.87-2.17,16.16-2.94c2.94-0.52,3.79,1.6,3.03,3.03C63.25,31.5,37.38,53.73,19,57.75"/>--> <!--<path id="kvg:06761-Kaisho-s3" kvg:type="㇏" d="M40.25,27c6.25,3.25,32.25,21.25,41.92,24.53c2.66,0.9,4.55,1.85,7,2.23"/>--> </g> <g id="kvg:06761-Kaisho-g2" kvg:element="木" kvg:position="bottom" kvg:radical="tradit"> <!--<path id="kvg:06761-Kaisho-s4" kvg:type="㇐" d="M17.75,67c0.75,0.25,2.76,0.41,4.75,0.25c9.5-0.75,47.75-2.75,61.5-4c1.99-0.18,2.5-0.25,3.75,0"/>--> <!--<path id="kvg:06761-Kaisho-s5" kvg:type="㇑" d="M52.25,50.25c1.25,0.5,2,2.25,2.25,3.25s-0.25,38.73-0.25,40c0,12.75-5.62,1.88-6.5,1"/>--> <!--<path id="kvg:06761-Kaisho-s6" kvg:type="㇒" d="M43.75,74.45c-3.04,6.81-10.93,16.45-17.25,20.3"/>--> <!--<path id="kvg:06761-Kaisho-s7" kvg:type="㇏" d="M62.25,73c4.94,3.19,13.97,14.88,16.82,19.85"/>--> </g> </g> </g> <g id="kvg:StrokeNumbers_06761-Kaisho" style="font-size:8;fill:#808080">        </g> </svg> 