<?xml version="1.0" encoding="UTF-8"?>  <!DOCTYPE svg PUBLIC "-//W3C//DTD SVG 1.0//EN" "http://www.w3.org/TR/2001/REC-SVG-20010904/DTD/svg10.dtd"  <!ATTLIST g xmlns:kvg CDATA #FIXED "http://kanjivg.tagaini.net" kvg:element CDATA #IMPLIED kvg:variant CDATA #IMPLIED kvg:partial CDATA #IMPLIED kvg:original CDATA #IMPLIED kvg:part CDATA #IMPLIED kvg:number CDATA #IMPLIED kvg:tradForm CDATA #IMPLIED kvg:radicalForm CDATA #IMPLIED kvg:position CDATA #IMPLIED kvg:radical CDATA #IMPLIED kvg:phon CDATA #IMPLIED > <!ATTLIST path xmlns:kvg CDATA #FIXED "http://kanjivg.tagaini.net" kvg:type CDATA #IMPLIED >  <svg xmlns="http://www.w3.org/2000/svg" width="109" height="109" viewBox="0 0 109 109"> <g id="kvg:StrokePaths_0677e-Kaisho" style="fill:none;stroke:#000000;stroke-width:3;stroke-linecap:round;stroke-linejoin:round;"> <g id="kvg:0677e-Kaisho" kvg:element="松"> <g id="kvg:0677e-Kaisho-g1" kvg:element="木" kvg:position="left" kvg:radical="general"> <!--<path id="kvg:0677e-Kaisho-s1" kvg:type="㇐" d="M12.28,42.75c0.35,0.23,2.39,0.4,3.31,0.3c3.94-0.39,19.12-3.17,25.45-4.33c0.92-0.17,2.15-0.23,2.73,0"/>--> <!--<path id="kvg:0677e-Kaisho-s2" kvg:type="㇑" d="M30.86,14.75c0.91,0.45,2.54,2.75,2.54,4.77c0,0.92-0.3,69.32-0.3,69.98c0,12.5-6.22,2.88-7.35,1.75"/>--> <!--<path id="kvg:0677e-Kaisho-s3" kvg:type="㇒" d="M33.19,42.16C26.4,54.95,22.62,60.35,12.11,71.54"/>--> <!--<path id="kvg:0677e-Kaisho-s4" kvg:type="㇔/㇏" d="M35.22,48.58c3.02,1.74,7.98,7.39,10.53,10.77"/>--> </g> <g id="kvg:0677e-Kaisho-g2" kvg:element="公" kvg:position="right"> <g id="kvg:0677e-Kaisho-g3" kvg:element="八" kvg:position="top"> <!--<path id="kvg:0677e-Kaisho-s5" kvg:type="㇒" d="M57.53,29.05c0.18,0.59-0.01,1.27-0.25,1.97C55.55,36.11,52.27,43.66,47,48.58"/>--> <!--<path id="kvg:0677e-Kaisho-s6" kvg:type="㇏" d="M67.77,23.43c3.58,1.6,15.48,18.28,21.92,22.25c2.49,1.54,3.38,2.36,5.8,2.86"/>--> </g> <g id="kvg:0677e-Kaisho-g4" kvg:element="厶" kvg:position="bottom"> <!--<path id="kvg:0677e-Kaisho-s7" kvg:type="㇜" d="M66.22,56.08c0.47,0.6,0.37,2.03-0.01,2.75c-5.22,9.75-9.42,15.16-16.86,24.88c-1.81,2.37-1.16,4.71,1.74,3.82c8.09-2.49,23.51-6.25,32.27-7.7"/>--> <!--<path id="kvg:0677e-Kaisho-s8" kvg:type="㇔" d="M78.27,70.95c4.37,3.64,10.8,14.46,11.89,20.12"/>--> </g> </g> </g> </g> <g id="kvg:StrokeNumbers_0677e-Kaisho" style="font-size:8;fill:#808080">         </g> </svg> 