<?xml version="1.0" encoding="UTF-8"?>  <!DOCTYPE svg PUBLIC "-//W3C//DTD SVG 1.0//EN" "http://www.w3.org/TR/2001/REC-SVG-20010904/DTD/svg10.dtd"  <!ATTLIST g xmlns:kvg CDATA #FIXED "http://kanjivg.tagaini.net" kvg:element CDATA #IMPLIED kvg:variant CDATA #IMPLIED kvg:partial CDATA #IMPLIED kvg:original CDATA #IMPLIED kvg:part CDATA #IMPLIED kvg:number CDATA #IMPLIED kvg:tradForm CDATA #IMPLIED kvg:radicalForm CDATA #IMPLIED kvg:position CDATA #IMPLIED kvg:radical CDATA #IMPLIED kvg:phon CDATA #IMPLIED > <!ATTLIST path xmlns:kvg CDATA #FIXED "http://kanjivg.tagaini.net" kvg:type CDATA #IMPLIED >  <svg xmlns="http://www.w3.org/2000/svg" width="109" height="109" viewBox="0 0 109 109"> <g id="kvg:StrokePaths_0677f-Kaisho" style="fill:none;stroke:#000000;stroke-width:3;stroke-linecap:round;stroke-linejoin:round;"> <g id="kvg:0677f-Kaisho" kvg:element="板"> <g id="kvg:0677f-Kaisho-g1" kvg:element="木" kvg:position="left" kvg:radical="general"> <!--<path id="kvg:0677f-Kaisho-s1" kvg:type="㇐" d="M12.28,38.72c0.35,0.24,2.39,0.41,3.31,0.31c3.94-0.41,15.67-3.03,22.45-3.41c0.93-0.05,2.15-0.24,2.73,0"/>--> <!--<path id="kvg:0677f-Kaisho-s2" kvg:type="㇑" d="M27.36,16.5c0.91,0.47,2.54,3,2.54,4.42c0,0.95-0.3,66.23-0.3,67.08c0,12.75-6.47,2.88-7.6,1.75"/>--> <!--<path id="kvg:0677f-Kaisho-s3" kvg:type="㇒" d="M28.94,40.28C23.2,53.69,20,59.36,11.11,71.09"/>--> <!--<path id="kvg:0677f-Kaisho-s4" kvg:type="㇔/㇏" d="M31.47,45.9c2.37,1.59,7.28,7.76,9.28,10.85"/>--> </g> <g id="kvg:0677f-Kaisho-g2" kvg:element="反" kvg:position="right"> <g id="kvg:0677f-Kaisho-g3" kvg:element="厂"> <!--<path id="kvg:0677f-Kaisho-s5" kvg:type="㇐" d="M47.36,24.87c1.39,0.13,3.16,0.09,4.28,0.02C60.67,24.39,74.5,21,82,20.79c1.86-0.05,2.97,0.25,3.9,0.51"/>--> <!--<path id="kvg:0677f-Kaisho-s6" kvg:type="㇒" d="M50.93,27.06c0.04,1.48-0.07,3.82-0.07,5.96c0,24.98-3.6,44.48-13.54,56.59"/>--> </g> <g id="kvg:0677f-Kaisho-g4" kvg:element="又"> <!--<path id="kvg:0677f-Kaisho-s7" kvg:type="㇇" d="M53.39,44.46c1.33,0.36,1.49,0.89,4.15,0.36c2.66-0.54,20.28-5.19,22.1-5.73c1.83-0.54,3.15,1.97,2.49,3.94C74.32,66.28,66.25,81.75,48,92.25"/>--> <!--<path id="kvg:0677f-Kaisho-s8" kvg:type="㇏" d="M55.47,54.81c3.77,0.93,20.96,23.86,34.09,34.06c2.04,1.59,3.53,2.65,5.44,3.18"/>--> </g> </g> </g> </g> <g id="kvg:StrokeNumbers_0677f-Kaisho" style="font-size:8;fill:#808080">         </g> </svg> 