<?xml version="1.0" encoding="UTF-8"?>  <!DOCTYPE svg PUBLIC "-//W3C//DTD SVG 1.0//EN" "http://www.w3.org/TR/2001/REC-SVG-20010904/DTD/svg10.dtd"  <!ATTLIST g xmlns:kvg CDATA #FIXED "http://kanjivg.tagaini.net" kvg:element CDATA #IMPLIED kvg:variant CDATA #IMPLIED kvg:partial CDATA #IMPLIED kvg:original CDATA #IMPLIED kvg:part CDATA #IMPLIED kvg:number CDATA #IMPLIED kvg:tradForm CDATA #IMPLIED kvg:radicalForm CDATA #IMPLIED kvg:position CDATA #IMPLIED kvg:radical CDATA #IMPLIED kvg:phon CDATA #IMPLIED > <!ATTLIST path xmlns:kvg CDATA #FIXED "http://kanjivg.tagaini.net" kvg:type CDATA #IMPLIED >  <svg xmlns="http://www.w3.org/2000/svg" width="109" height="109" viewBox="0 0 109 109"> <g id="kvg:StrokePaths_0678b-Kaisho" style="fill:none;stroke:#000000;stroke-width:3;stroke-linecap:round;stroke-linejoin:round;"> <g id="kvg:0678b-Kaisho" kvg:element="枋"> <g id="kvg:0678b-Kaisho-g1" kvg:element="木" kvg:position="left" kvg:radical="general"> <!--<path id="kvg:0678b-Kaisho-s1" kvg:type="㇐" d="M13.78,37.72c0.35,0.24,2.39,0.36,3.31,0.31c5.17-0.28,17.12-1.21,23.45-2.41c0.92-0.17,2.15-0.24,2.73,0"/>--> <!--<path id="kvg:0678b-Kaisho-s2" kvg:type="㇑" d="M29.36,14.5c0.91,0.47,1.89,2.5,2.04,4.42c0.07,0.95-0.3,64.75-0.3,70.58c0,10.25-5.22,2.62-6.35,1.5"/>--> <!--<path id="kvg:0678b-Kaisho-s3" kvg:type="㇒" d="M30.94,39.28c-6.63,16.56-10.32,23.56-20.58,38.06"/>--> <!--<path id="kvg:0678b-Kaisho-s4" kvg:type="㇔/㇏" d="M33.47,46.4c2.37,1.59,6.28,6.76,8.28,9.85"/>--> </g> <g id="kvg:0678b-Kaisho-g2" kvg:element="方" kvg:position="right"> <g id="kvg:0678b-Kaisho-g3" kvg:element="亠" kvg:position="top"> <!--<path id="kvg:0678b-Kaisho-s5" kvg:type="㇑a" d="M68.03,13.75c2.22,2.5,5.09,6.73,5.28,12.08"/>--> <!--<path id="kvg:0678b-Kaisho-s6" kvg:type="㇐" d="M48.38,33.14c1.62,0.36,3.45,0.66,4.77,0.52c10.66-1.1,25.95-2.17,40.43-2.93c2.23-0.12,2.38,0.04,4.04,0.67"/>--> </g> <g id="kvg:0678b-Kaisho-g4" kvg:position="bottom"> <!--<path id="kvg:0678b-Kaisho-s7" kvg:type="㇆a" d="M68.02,44.82c5.76,2.14,12.59,4.1,17.93,5c3.02,0.51,4.19,1.64,3.72,4.09c-1.33,6.83-9.99,30.52-13.79,35.85c-4.13,5.79-6.38,0.5-7.62-1.5"/>--> <!--<path id="kvg:0678b-Kaisho-s8" kvg:type="㇒" d="M68.11,35c0.38,1.58,0.3,3.36-0.15,5.14c-3.11,12.27-12.09,37.08-26.04,48.69"/>--> </g> </g> </g> </g> <g id="kvg:StrokeNumbers_0678b-Kaisho" style="font-size:8;fill:#808080">         </g> </svg> 