<?xml version="1.0" encoding="UTF-8"?>  <!DOCTYPE svg PUBLIC "-//W3C//DTD SVG 1.0//EN" "http://www.w3.org/TR/2001/REC-SVG-20010904/DTD/svg10.dtd"  <!ATTLIST g xmlns:kvg CDATA #FIXED "http://kanjivg.tagaini.net" kvg:element CDATA #IMPLIED kvg:variant CDATA #IMPLIED kvg:partial CDATA #IMPLIED kvg:original CDATA #IMPLIED kvg:part CDATA #IMPLIED kvg:number CDATA #IMPLIED kvg:tradForm CDATA #IMPLIED kvg:radicalForm CDATA #IMPLIED kvg:position CDATA #IMPLIED kvg:radical CDATA #IMPLIED kvg:phon CDATA #IMPLIED > <!ATTLIST path xmlns:kvg CDATA #FIXED "http://kanjivg.tagaini.net" kvg:type CDATA #IMPLIED >  <svg xmlns="http://www.w3.org/2000/svg" width="109" height="109" viewBox="0 0 109 109"> <g id="kvg:StrokePaths_0679d-Kaisho" style="fill:none;stroke:#000000;stroke-width:3;stroke-linecap:round;stroke-linejoin:round;"> <g id="kvg:0679d-Kaisho" kvg:element="枝"> <g id="kvg:0679d-Kaisho-g1" kvg:element="木" kvg:position="left" kvg:radical="general"> <!--<path id="kvg:0679d-Kaisho-s1" kvg:type="㇐" d="M14.28,40.04c0.35,0.23,2.39,0.39,3.31,0.3c3.94-0.39,17.12-2.14,23.45-3.28c0.92-0.16,2.15-0.23,2.73,0"/>--> <!--<path id="kvg:0679d-Kaisho-s2" kvg:type="㇑" d="M30.86,17.5c0.91,0.44,2.54,2.5,2.54,4.68c0,0.9-0.3,64.79-0.3,65.32c0,12.5-5.1,1.75-5.85,1"/>--> <!--<path id="kvg:0679d-Kaisho-s3" kvg:type="㇒" d="M33.19,41.1c-5.98,13.77-9.31,19.59-18.58,31.64"/>--> <!--<path id="kvg:0679d-Kaisho-s4" kvg:type="㇔/㇏" d="M35.47,48.65c2.66,1.75,7.03,7.42,9.28,10.81"/>--> </g> <g id="kvg:0679d-Kaisho-g2" kvg:element="支" kvg:position="right"> <g id="kvg:0679d-Kaisho-g3" kvg:element="十" kvg:position="top"> <!--<path id="kvg:0679d-Kaisho-s5" kvg:type="㇐" d="M50.38,34.32c1.2,0.6,3.4,0.72,4.6,0.6c9.52-0.92,22.56-3.78,34.19-5.13c1.99-0.23,3.2,0.29,4.2,0.59"/>--> <!--<path id="kvg:0679d-Kaisho-s6" kvg:type="㇑a" d="M68.5,13.88c0.63,0.51,1.96,3.81,2.09,4.83c0.13,1.02-0.08,26.06-0.21,32.42"/>--> </g> <g id="kvg:0679d-Kaisho-g4" kvg:element="又" kvg:position="bottom"> <!--<path id="kvg:0679d-Kaisho-s7" kvg:type="㇇" d="M54.74,54.04c1.25,0.44,1.41,1.09,3.92,0.44c2.51-0.65,22.13-3.83,23.86-4.49c1.73-0.65,3.76,1.64,2.64,3.8C74,75.25,61.75,85.75,46.06,94.25"/>--> <!--<path id="kvg:0679d-Kaisho-s8" kvg:type="㇏" d="M55.6,61.89c3.71,0.71,21.86,19.81,34.8,27.64c2.01,1.22,3.48,2.03,5.36,2.44"/>--> </g> </g> </g> </g> <g id="kvg:StrokeNumbers_0679d-Kaisho" style="font-size:8;fill:#808080">         </g> </svg> 