<?xml version="1.0" encoding="UTF-8"?>  <!DOCTYPE svg PUBLIC "-//W3C//DTD SVG 1.0//EN" "http://www.w3.org/TR/2001/REC-SVG-20010904/DTD/svg10.dtd"  <!ATTLIST g xmlns:kvg CDATA #FIXED "http://kanjivg.tagaini.net" kvg:element CDATA #IMPLIED kvg:variant CDATA #IMPLIED kvg:partial CDATA #IMPLIED kvg:original CDATA #IMPLIED kvg:part CDATA #IMPLIED kvg:number CDATA #IMPLIED kvg:tradForm CDATA #IMPLIED kvg:radicalForm CDATA #IMPLIED kvg:position CDATA #IMPLIED kvg:radical CDATA #IMPLIED kvg:phon CDATA #IMPLIED > <!ATTLIST path xmlns:kvg CDATA #FIXED "http://kanjivg.tagaini.net" kvg:type CDATA #IMPLIED >  <svg xmlns="http://www.w3.org/2000/svg" width="109" height="109" viewBox="0 0 109 109"> <g id="kvg:StrokePaths_06797-Kaisho" style="fill:none;stroke:#000000;stroke-width:3;stroke-linecap:round;stroke-linejoin:round;"> <g id="kvg:06797-Kaisho" kvg:element="林"> <g id="kvg:06797-Kaisho-g1" kvg:element="木" kvg:variant="true" kvg:position="left" kvg:radical="general"> <!--<path id="kvg:06797-Kaisho-s1" kvg:type="㇐" d="M11.5,41.25c0.75,0.25,3.01,0.21,5,0c7-0.75,15.75-2,23.25-2.5c2-0.13,3.5-0.75,4.75-0.5"/>--> <!--<path id="kvg:06797-Kaisho-s2" kvg:type="㇑" d="M30,15.5c1.25,0.5,2,2.25,2.25,3.25S32,87.98,32,89.25c0,11.75-5.38,1.88-6.5,0.75"/>--> <!--<path id="kvg:06797-Kaisho-s3" kvg:type="㇒" d="M31.25,42.5c-3.3,9.56-13.13,25.59-20,31"/>--> <!--<path id="kvg:06797-Kaisho-s4" kvg:type="㇔/㇏" d="M35.25,48.75c3.5,2,7.25,6,9.25,9.5"/>--> </g> <g id="kvg:06797-Kaisho-g2" kvg:element="木" kvg:position="right" kvg:radical="general"> <!--<path id="kvg:06797-Kaisho-s5" kvg:type="㇐" d="M50.25,37.75c0.61,0.25,1.93,0.39,3.54,0.25c5.71-0.5,21.01-2.25,32.17-3.5c1.62-0.18,3.03-0.25,4.04,0"/>--> <!--<path id="kvg:06797-Kaisho-s6" kvg:type="㇑" d="M66.25,13.5c1.25,0.5,2,2.25,2.25,3.25S68.25,83,68.25,89.25c0,12.75-4.62,3.88-6,2.5"/>--> <!--<path id="kvg:06797-Kaisho-s7" kvg:type="㇒" d="M67.25,39.5c-3.5,13-14.39,31.09-22.5,37.75"/>--> <!--<path id="kvg:06797-Kaisho-s8" kvg:type="㇏" d="M69.25,37.75C76.75,51,88.75,68,94.84,73.23c1.73,1.49,2.71,2.52,4.16,3.02"/>--> </g> </g> </g> <g id="kvg:StrokeNumbers_06797-Kaisho" style="font-size:8;fill:#808080">         </g> </svg> 