<?xml version="1.0" encoding="UTF-8"?>  <!DOCTYPE svg PUBLIC "-//W3C//DTD SVG 1.0//EN" "http://www.w3.org/TR/2001/REC-SVG-20010904/DTD/svg10.dtd"  <!ATTLIST g xmlns:kvg CDATA #FIXED "http://kanjivg.tagaini.net" kvg:element CDATA #IMPLIED kvg:variant CDATA #IMPLIED kvg:partial CDATA #IMPLIED kvg:original CDATA #IMPLIED kvg:part CDATA #IMPLIED kvg:number CDATA #IMPLIED kvg:tradForm CDATA #IMPLIED kvg:radicalForm CDATA #IMPLIED kvg:position CDATA #IMPLIED kvg:radical CDATA #IMPLIED kvg:phon CDATA #IMPLIED > <!ATTLIST path xmlns:kvg CDATA #FIXED "http://kanjivg.tagaini.net" kvg:type CDATA #IMPLIED >  <svg xmlns="http://www.w3.org/2000/svg" width="109" height="109" viewBox="0 0 109 109"> <g id="kvg:StrokePaths_067af-Kaisho" style="fill:none;stroke:#000000;stroke-width:3;stroke-linecap:round;stroke-linejoin:round;"> <g id="kvg:067af-Kaisho" kvg:element="枯"> <g id="kvg:067af-Kaisho-g1" kvg:element="木" kvg:position="left" kvg:radical="general"> <!--<path id="kvg:067af-Kaisho-s1" kvg:type="㇐" d="M14.78,42.72c0.35,0.24,2.39,0.41,3.31,0.31c3.94-0.41,20.62-3.71,26.95-4.91c0.92-0.17,2.15-0.24,2.73,0"/>--> <!--<path id="kvg:067af-Kaisho-s2" kvg:type="㇑" d="M31.86,15c0.91,0.47,2.54,3.97,2.54,4.92c0,9.08-0.3,71.73-0.3,72.58c0,11.5-5.6,2.75-6.85,1.5"/>--> <!--<path id="kvg:067af-Kaisho-s3" kvg:type="㇒" d="M33.94,41.28C27.55,56,24,62.21,14.11,75.09"/>--> <!--<path id="kvg:067af-Kaisho-s4" kvg:type="㇔/㇏" d="M36.47,47.4c3.09,1.8,8.17,7.62,10.78,11.1"/>--> </g> <g id="kvg:067af-Kaisho-g2" kvg:element="古" kvg:position="right"> <g id="kvg:067af-Kaisho-g3" kvg:element="十" kvg:position="top"> <!--<path id="kvg:067af-Kaisho-s5" kvg:type="㇐" d="M48.05,44.78c0.51,0.18,1.86,0.65,3.21,0.54c7.74-0.58,37-4.36,44.95-4.36c1.36,0,1.69-0.18,2.54,0"/>--> <!--<path id="kvg:067af-Kaisho-s6" kvg:type="㇑a" d="M70.15,17c1.43,0.66,2.58,2.93,2.58,4.28c0,22.97-0.29,32.97-0.29,42.83"/>--> </g> <g id="kvg:067af-Kaisho-g4" kvg:element="口" kvg:position="bottom"> <!--<path id="kvg:067af-Kaisho-s7" kvg:type="㇑" d="M54.04,65.89c0.3,0.8,0.65,1.36,0.75,1.97c0.75,4.46,2.41,16.44,3.46,24.89"/>--> <!--<path id="kvg:067af-Kaisho-s8" kvg:type="㇕b" d="M55.56,67.19c8.39-0.89,26.24-3.17,31.96-3.31c2.37-0.06,3.64,1.26,3.43,2.62c-0.78,5.13-2.3,12.87-3.58,19.68"/>--> <!--<path id="kvg:067af-Kaisho-s9" kvg:type="㇐b" d="M58.7,88.97c6.94-0.38,22.89-1.15,31.22-1.63"/>--> </g> </g> </g> </g> <g id="kvg:StrokeNumbers_067af-Kaisho" style="font-size:8;fill:#808080">          </g> </svg> 