<?xml version="1.0" encoding="UTF-8"?>  <!DOCTYPE svg PUBLIC "-//W3C//DTD SVG 1.0//EN" "http://www.w3.org/TR/2001/REC-SVG-20010904/DTD/svg10.dtd"  <!ATTLIST g xmlns:kvg CDATA #FIXED "http://kanjivg.tagaini.net" kvg:element CDATA #IMPLIED kvg:variant CDATA #IMPLIED kvg:partial CDATA #IMPLIED kvg:original CDATA #IMPLIED kvg:part CDATA #IMPLIED kvg:number CDATA #IMPLIED kvg:tradForm CDATA #IMPLIED kvg:radicalForm CDATA #IMPLIED kvg:position CDATA #IMPLIED kvg:radical CDATA #IMPLIED kvg:phon CDATA #IMPLIED > <!ATTLIST path xmlns:kvg CDATA #FIXED "http://kanjivg.tagaini.net" kvg:type CDATA #IMPLIED >  <svg xmlns="http://www.w3.org/2000/svg" width="109" height="109" viewBox="0 0 109 109"> <g id="kvg:StrokePaths_067a2-Kaisho" style="fill:none;stroke:#000000;stroke-width:3;stroke-linecap:round;stroke-linejoin:round;"> <g id="kvg:067a2-Kaisho" kvg:element="枢"> <g id="kvg:067a2-Kaisho-g1" kvg:element="木" kvg:position="left" kvg:radical="general"> <!--<path id="kvg:067a2-Kaisho-s1" kvg:type="㇐" d="M10.78,39.22c0.35,0.24,2.39,0.41,3.31,0.31c3.94-0.41,21.62-2.21,27.95-3.41c0.92-0.17,1.15-0.24,1.73,0"/>--> <!--<path id="kvg:067a2-Kaisho-s2" kvg:type="㇑" d="M28.36,14c0.39,1.25,2.04,3.47,2.04,4.42c0,7.33-0.3,70.23-0.3,71.08c0,10.75-5.47,2.62-6.6,1.5"/>--> <!--<path id="kvg:067a2-Kaisho-s3" kvg:type="㇒" d="M29.94,42.28c-5.9,14.39-9.19,20.47-18.33,33.06"/>--> <!--<path id="kvg:067a2-Kaisho-s4" kvg:type="㇏" d="M33.72,50.15c2.45,1.48,5.84,6.53,7.91,9.39"/>--> </g> <g id="kvg:067a2-Kaisho-g2" kvg:element="区" kvg:position="right"> <g id="kvg:067a2-Kaisho-g3" kvg:element="匚" kvg:part="1" kvg:position="kamae"> <!--<path id="kvg:067a2-Kaisho-s5" kvg:type="㇐" d="M48.88,21.61c1.08,0.55,3.06,0.63,4.14,0.55C64.26,21.24,79,20,90.78,18.64c1.8-0.21,2.88,0.26,3.78,0.54"/>--> </g> <g id="kvg:067a2-Kaisho-g4" kvg:element="乂"> <g id="kvg:067a2-Kaisho-g5" kvg:element="丿"> <!--<path id="kvg:067a2-Kaisho-s6" kvg:type="㇒" d="M81.8,31.29c0.36,1.1,0.74,1.95,0.18,3.89C77,52.5,70,67,59.61,76.02"/>--> </g> <!--<path id="kvg:067a2-Kaisho-s7" kvg:type="㇔/㇏" d="M60.04,41.55c9.75,4.84,22.03,21.62,26.91,31.86"/>--> </g> <g id="kvg:067a2-Kaisho-g6" kvg:element="匚" kvg:part="2" kvg:position="kamae"> <!--<path id="kvg:067a2-Kaisho-s8" kvg:type="㇗" d="M51.63,23.02c0,3.73,0,61.55,0,65.05c0,2.19,0.74,3.04,1.96,2.73c13.91-3.54,32.16-4.79,36.78-4c2.28,0.39,5.27,0.73,6.69,1.2"/>--> </g> </g> </g> </g> <g id="kvg:StrokeNumbers_067a2-Kaisho" style="font-size:8;fill:#808080">         </g> </svg> 