<?xml version="1.0" encoding="UTF-8"?>  <!DOCTYPE svg PUBLIC "-//W3C//DTD SVG 1.0//EN" "http://www.w3.org/TR/2001/REC-SVG-20010904/DTD/svg10.dtd"  <!ATTLIST g xmlns:kvg CDATA #FIXED "http://kanjivg.tagaini.net" kvg:element CDATA #IMPLIED kvg:variant CDATA #IMPLIED kvg:partial CDATA #IMPLIED kvg:original CDATA #IMPLIED kvg:part CDATA #IMPLIED kvg:number CDATA #IMPLIED kvg:tradForm CDATA #IMPLIED kvg:radicalForm CDATA #IMPLIED kvg:position CDATA #IMPLIED kvg:radical CDATA #IMPLIED kvg:phon CDATA #IMPLIED > <!ATTLIST path xmlns:kvg CDATA #FIXED "http://kanjivg.tagaini.net" kvg:type CDATA #IMPLIED >  <svg xmlns="http://www.w3.org/2000/svg" width="109" height="109" viewBox="0 0 109 109"> <g id="kvg:StrokePaths_067a1-Kaisho" style="fill:none;stroke:#000000;stroke-width:3;stroke-linecap:round;stroke-linejoin:round;"> <g id="kvg:067a1-Kaisho" kvg:element="枡"> <g id="kvg:067a1-Kaisho-g1" kvg:element="木" kvg:position="left" kvg:radical="general"> <!--<path id="kvg:067a1-Kaisho-s1" kvg:type="㇐" d="M11.03,39.22c0.37,0.24,2.54,0.41,3.51,0.31c4.18-0.41,17.11-1.71,23.83-2.91c0.97-0.17,2.28-0.24,2.9,0"/>--> <!--<path id="kvg:067a1-Kaisho-s2" kvg:type="㇑" d="M26.86,14.5c0.91,0.47,2.04,2.75,2.04,4.92c0,0.95-0.3,71.73-0.3,72.58c0,9.75-5.35,2-6.6,0.75"/>--> <!--<path id="kvg:067a1-Kaisho-s3" kvg:type="㇒" d="M28.44,42.28C23.25,57,20,63.25,11.11,74.59"/>--> <!--<path id="kvg:067a1-Kaisho-s4" kvg:type="㇔/㇏" d="M31.97,49.9c2.37,1.59,6.28,6.76,8.28,9.85"/>--> </g> <g id="kvg:067a1-Kaisho-g2" kvg:element="升" kvg:position="right"> <g id="kvg:067a1-Kaisho-g3" kvg:element="丿"> <!--<path id="kvg:067a1-Kaisho-s5" kvg:type="㇒" d="M67.19,15c0.06,0.41,0.26,1.21-0.11,1.64c-5.32,6.11-11.82,11.11-21.2,15.66"/>--> </g> <g id="kvg:067a1-Kaisho-g4" kvg:element="廾" kvg:variant="true"> <g id="kvg:067a1-Kaisho-g5" kvg:element="丿"> <!--<path id="kvg:067a1-Kaisho-s6" kvg:type="㇒" d="M45.25,51.8c0.95,0.23,2.69,0.27,3.64,0.23c9.89-0.39,33.22-3.55,45.78-3.75c1.58-0.02,2.54,0.11,3.33,0.23"/>--> </g> <g id="kvg:067a1-Kaisho-g6" kvg:element="十"> <!--<path id="kvg:067a1-Kaisho-s7" kvg:type="㇐" d="M59.9,27.25c0.59,1.58,1.19,3.24,1.19,5.55c0,31.2-0.58,51.95-17.46,62.7"/>--> <!--<path id="kvg:067a1-Kaisho-s8" kvg:type="㇑" d="M80.24,14.25c0.94,0.94,1.46,2.23,1.46,3.25c0,6.75-0.22,73.25-0.22,80.5"/>--> </g> </g> </g> </g> </g> <g id="kvg:StrokeNumbers_067a1-Kaisho" style="font-size:8;fill:#808080">         </g> </svg> 