<?xml version="1.0" encoding="UTF-8"?>  <!DOCTYPE svg PUBLIC "-//W3C//DTD SVG 1.0//EN" "http://www.w3.org/TR/2001/REC-SVG-20010904/DTD/svg10.dtd"  <!ATTLIST g xmlns:kvg CDATA #FIXED "http://kanjivg.tagaini.net" kvg:element CDATA #IMPLIED kvg:variant CDATA #IMPLIED kvg:partial CDATA #IMPLIED kvg:original CDATA #IMPLIED kvg:part CDATA #IMPLIED kvg:number CDATA #IMPLIED kvg:tradForm CDATA #IMPLIED kvg:radicalForm CDATA #IMPLIED kvg:position CDATA #IMPLIED kvg:radical CDATA #IMPLIED kvg:phon CDATA #IMPLIED > <!ATTLIST path xmlns:kvg CDATA #FIXED "http://kanjivg.tagaini.net" kvg:type CDATA #IMPLIED >  <svg xmlns="http://www.w3.org/2000/svg" width="109" height="109" viewBox="0 0 109 109"> <g id="kvg:StrokePaths_067c4-Kaisho" style="fill:none;stroke:#000000;stroke-width:3;stroke-linecap:round;stroke-linejoin:round;"> <g id="kvg:067c4-Kaisho" kvg:element="柄"> <g id="kvg:067c4-Kaisho-g1" kvg:element="木" kvg:position="left" kvg:radical="general"> <!--<path id="kvg:067c4-Kaisho-s1" kvg:type="㇐" d="M13.28,37.72c0.35,0.24,2.39,0.41,3.31,0.31c3.94-0.41,18.12-2.21,24.45-3.41c0.92-0.17,2.15-0.24,2.73,0"/>--> <!--<path id="kvg:067c4-Kaisho-s2" kvg:type="㇑" d="M29.36,14.5c0.91,0.47,2.86,3.49,3.04,4.42c0.18,0.93-0.3,70.73-0.3,71.58c0,11-5.47,2.12-6.35,1.25"/>--> <!--<path id="kvg:067c4-Kaisho-s3" kvg:type="㇒" d="M31.94,37.28c-5.98,14.28-9.31,20.31-18.58,32.81"/>--> <!--<path id="kvg:067c4-Kaisho-s4" kvg:type="㇔/㇏" d="M34.47,44.9c2.37,1.59,6.28,7.76,8.28,10.85"/>--> </g> <g id="kvg:067c4-Kaisho-g2" kvg:element="丙" kvg:position="right"> <g id="kvg:067c4-Kaisho-g3" kvg:element="一"> <!--<path id="kvg:067c4-Kaisho-s5" kvg:type="㇐" d="M52.15,28.5c0.9,0.48,2.53,0.56,3.45,0.48c5.4-0.48,24.52-4.23,33.07-4.21c1.5,0,2.4,0.23,3.15,0.47"/>--> </g> <g id="kvg:067c4-Kaisho-g4" kvg:element="内"> <g id="kvg:067c4-Kaisho-g5" kvg:element="冂"> <!--<path id="kvg:067c4-Kaisho-s6" kvg:type="㇑" d="M49.19,50.11c0.47,0.76,1.38,3.35,1.45,4.73c0.41,8.48,1.41,30.32,1.73,38.98"/>--> <!--<path id="kvg:067c4-Kaisho-s7" kvg:type="㇆a" d="M50.87,52.51c5.9-0.61,38.75-5.85,39.88-5.96c2.64-0.26,4,1.69,4.07,4.61c0.21,8.92-0.51,30.54-1.8,37.48c-1.35,7.25-2.77,4.36-6.08,1.03"/>--> </g> <g id="kvg:067c4-Kaisho-g6" kvg:element="人"> <!--<path id="kvg:067c4-Kaisho-s8" kvg:type="㇒" d="M70.07,29.19c0.47,0.65,1.04,1.66,1.03,3.45C71,52,68.75,66.25,55.13,77.19"/>--> <!--<path id="kvg:067c4-Kaisho-s9" kvg:type="㇔/㇏" d="M71.19,58.14c5.41,2.68,13.97,11.03,15.32,15.21"/>--> </g> </g> </g> </g> </g> <g id="kvg:StrokeNumbers_067c4-Kaisho" style="font-size:8;fill:#808080">          </g> </svg> 