<?xml version="1.0" encoding="UTF-8"?>  <!DOCTYPE svg PUBLIC "-//W3C//DTD SVG 1.0//EN" "http://www.w3.org/TR/2001/REC-SVG-20010904/DTD/svg10.dtd"  <!ATTLIST g xmlns:kvg CDATA #FIXED "http://kanjivg.tagaini.net" kvg:element CDATA #IMPLIED kvg:variant CDATA #IMPLIED kvg:partial CDATA #IMPLIED kvg:original CDATA #IMPLIED kvg:part CDATA #IMPLIED kvg:number CDATA #IMPLIED kvg:tradForm CDATA #IMPLIED kvg:radicalForm CDATA #IMPLIED kvg:position CDATA #IMPLIED kvg:radical CDATA #IMPLIED kvg:phon CDATA #IMPLIED > <!ATTLIST path xmlns:kvg CDATA #FIXED "http://kanjivg.tagaini.net" kvg:type CDATA #IMPLIED >  <svg xmlns="http://www.w3.org/2000/svg" width="109" height="109" viewBox="0 0 109 109"> <g id="kvg:StrokePaths_067ca-Kaisho" style="fill:none;stroke:#000000;stroke-width:3;stroke-linecap:round;stroke-linejoin:round;"> <g id="kvg:067ca-Kaisho" kvg:element="柊"> <g id="kvg:067ca-Kaisho-g1" kvg:element="木" kvg:position="left" kvg:radical="general"> <!--<path id="kvg:067ca-Kaisho-s1" kvg:type="㇐" d="M13.03,38.47c0.35,0.24,2.39,0.41,3.31,0.31c3.94-0.41,14.62-1.71,20.95-2.91c0.92-0.17,2.15-0.24,2.73,0"/>--> <!--<path id="kvg:067ca-Kaisho-s2" kvg:type="㇑" d="M25.11,14.25c0.91,0.47,2.86,3.49,3.04,4.42c0.18,0.93-0.3,70.73-0.3,71.58c0,11.5-4.47,1.62-5.6,0.5"/>--> <!--<path id="kvg:067ca-Kaisho-s3" kvg:type="㇒" d="M27.69,40.03c-5.1,15.04-7.94,21.4-15.83,34.56"/>--> <!--<path id="kvg:067ca-Kaisho-s4" kvg:type="㇔/㇏" d="M30.22,45.65c2.37,1.59,6.28,7.76,8.28,10.85"/>--> </g> <g id="kvg:067ca-Kaisho-g2" kvg:element="冬" kvg:position="right"> <g id="kvg:067ca-Kaisho-g3" kvg:element="夂" kvg:position="top"> <!--<path id="kvg:067ca-Kaisho-s5" kvg:type="㇒" d="M61.97,13.75c0.05,0.75,0.24,1.98-0.1,3.03C59.5,24,52,37,43.52,45.75"/>--> <!--<path id="kvg:067ca-Kaisho-s6" kvg:type="㇇" d="M61,26.21c0.49-0.07,2.19-0.19,3.02-0.33c3.45-0.6,12.7-2.71,15.63-3.67c2.5-0.81,3.21,0.93,2.57,3.14c-3.5,12.09-27.13,37.17-42.72,43.4"/>--> <!--<path id="kvg:067ca-Kaisho-s7" kvg:type="㇏" d="M55.61,34.29c4.96,5.4,27.42,25.9,34.1,30.83c1.99,1.47,3.6,2.19,5.54,2.62"/>--> </g> <g id="kvg:067ca-Kaisho-g4" kvg:element="冫" kvg:original="氷" kvg:position="bottom"> <g id="kvg:067ca-Kaisho-g5" kvg:position="top"> <!--<path id="kvg:067ca-Kaisho-s8" kvg:type="㇔" d="M63.42,65.25c3.89,1.41,10.04,5.8,11.01,8"/>--> </g> <g id="kvg:067ca-Kaisho-g6" kvg:position="bottom"> <!--<path id="kvg:067ca-Kaisho-s9" kvg:type="㇀" d="M56.7,82c7.29,2.34,18.83,9.61,20.65,13.25"/>--> </g> </g> </g> </g> </g> <g id="kvg:StrokeNumbers_067ca-Kaisho" style="font-size:8;fill:#808080">          </g> </svg> 