<?xml version="1.0" encoding="UTF-8"?>  <!DOCTYPE svg PUBLIC "-//W3C//DTD SVG 1.0//EN" "http://www.w3.org/TR/2001/REC-SVG-20010904/DTD/svg10.dtd"  <!ATTLIST g xmlns:kvg CDATA #FIXED "http://kanjivg.tagaini.net" kvg:element CDATA #IMPLIED kvg:variant CDATA #IMPLIED kvg:partial CDATA #IMPLIED kvg:original CDATA #IMPLIED kvg:part CDATA #IMPLIED kvg:number CDATA #IMPLIED kvg:tradForm CDATA #IMPLIED kvg:radicalForm CDATA #IMPLIED kvg:position CDATA #IMPLIED kvg:radical CDATA #IMPLIED kvg:phon CDATA #IMPLIED > <!ATTLIST path xmlns:kvg CDATA #FIXED "http://kanjivg.tagaini.net" kvg:type CDATA #IMPLIED >  <svg xmlns="http://www.w3.org/2000/svg" width="109" height="109" viewBox="0 0 109 109"> <g id="kvg:StrokePaths_067c1-Kaisho" style="fill:none;stroke:#000000;stroke-width:3;stroke-linecap:round;stroke-linejoin:round;"> <g id="kvg:067c1-Kaisho" kvg:element="柁"> <g id="kvg:067c1-Kaisho-g1" kvg:element="木" kvg:position="left" kvg:radical="general"> <!--<path id="kvg:067c1-Kaisho-s1" kvg:type="㇐" d="M12.78,40.22c0.35,0.24,2.39,0.41,3.31,0.31c3.94-0.41,17.12-2.21,23.45-3.41c0.92-0.17,1.15-0.24,1.73,0"/>--> <!--<path id="kvg:067c1-Kaisho-s2" kvg:type="㇑" d="M29.86,15.5c0.91,0.47,2.54,2,2.54,4.42c0,0.95-0.3,63.75-0.3,69.58c0,13-6.22,2.88-7.6,1.5"/>--> <!--<path id="kvg:067c1-Kaisho-s3" kvg:type="㇒" d="M31.94,41.28c-5.9,14.39-9.19,20.47-18.33,33.06"/>--> <!--<path id="kvg:067c1-Kaisho-s4" kvg:type="㇔/㇏" d="M35.47,50.15c2.68,1.84,6.4,5.83,8.66,9.39"/>--> </g> <g id="kvg:067c1-Kaisho-g2" kvg:element="它" kvg:position="right"> <g id="kvg:067c1-Kaisho-g3" kvg:element="宀" kvg:position="top"> <!--<path id="kvg:067c1-Kaisho-s5" kvg:type="㇑a" d="M63.16,14.99c2.76,1.13,5.95,6.74,6.63,9.94"/>--> <g id="kvg:067c1-Kaisho-g4" kvg:element="冖"> <!--<path id="kvg:067c1-Kaisho-s6" kvg:type="㇔" d="M48.13,31.24c0,3.62-1.85,11.09-2.92,13.51"/>--> <!--<path id="kvg:067c1-Kaisho-s7" kvg:type="㇖b" d="M50.17,33.11c12.58-2.11,34.46-4.56,39.79-4.34c7.04,0.29-0.51,6.19-2.26,7.87"/>--> </g> </g> <g id="kvg:067c1-Kaisho-g5" kvg:element="匕" kvg:position="bottom"> <!--<path id="kvg:067c1-Kaisho-s8" kvg:type="㇒" d="M85.53,45.01c0.18,0.35,0.29,1.37-0.17,1.91c-2.95,3.49-13.05,13.12-22.56,16.7"/>--> <!--<path id="kvg:067c1-Kaisho-s9" kvg:type="㇟" d="M57,40.38c0.77,1.06,0.82,1.76,1.08,3.17c0.26,1.41-0.1,35.99-0.1,40.4c0,11.34,9.55,9.56,18.3,9.56c15.47,0,16.77-3.01,16.77-13.79"/>--> </g> </g> </g> </g> <g id="kvg:StrokeNumbers_067c1-Kaisho" style="font-size:8;fill:#808080">          </g> </svg> 