<?xml version="1.0" encoding="UTF-8"?>  <!DOCTYPE svg PUBLIC "-//W3C//DTD SVG 1.0//EN" "http://www.w3.org/TR/2001/REC-SVG-20010904/DTD/svg10.dtd"  <!ATTLIST g xmlns:kvg CDATA #FIXED "http://kanjivg.tagaini.net" kvg:element CDATA #IMPLIED kvg:variant CDATA #IMPLIED kvg:partial CDATA #IMPLIED kvg:original CDATA #IMPLIED kvg:part CDATA #IMPLIED kvg:number CDATA #IMPLIED kvg:tradForm CDATA #IMPLIED kvg:radicalForm CDATA #IMPLIED kvg:position CDATA #IMPLIED kvg:radical CDATA #IMPLIED kvg:phon CDATA #IMPLIED > <!ATTLIST path xmlns:kvg CDATA #FIXED "http://kanjivg.tagaini.net" kvg:type CDATA #IMPLIED >  <svg xmlns="http://www.w3.org/2000/svg" width="109" height="109" viewBox="0 0 109 109"> <g id="kvg:StrokePaths_067da-Kaisho" style="fill:none;stroke:#000000;stroke-width:3;stroke-linecap:round;stroke-linejoin:round;"> <g id="kvg:067da-Kaisho" kvg:element="柚"> <g id="kvg:067da-Kaisho-g1" kvg:element="木" kvg:position="left" kvg:radical="general"> <!--<path id="kvg:067da-Kaisho-s1" kvg:type="㇐" d="M13.03,38.47c0.35,0.24,2.39,0.41,3.31,0.31c3.94-0.41,19.12-2.21,25.45-3.41c0.92-0.17,2.15-0.24,2.73,0"/>--> <!--<path id="kvg:067da-Kaisho-s2" kvg:type="㇑" d="M29.61,14.75c0.91,0.47,2.54,2.5,2.54,4.92c0,0.95-0.3,68.73-0.3,69.58c0,10.5-5.72,2.38-6.85,1.25"/>--> <!--<path id="kvg:067da-Kaisho-s3" kvg:type="㇒" d="M31.69,39.03c-5.9,15.15-9.19,21.55-18.33,34.81"/>--> <!--<path id="kvg:067da-Kaisho-s4" kvg:type="㇔/㇏" d="M34.22,47.65c2.37,1.59,7.28,7.76,9.28,10.85"/>--> </g> <g id="kvg:067da-Kaisho-g2" kvg:element="由" kvg:position="right"> <g id="kvg:067da-Kaisho-g3" kvg:element="田" kvg:part="1" kvg:partial="true"> <!--<path id="kvg:067da-Kaisho-s5" kvg:type="㇑" d="M50.8,46.05c0.3,0.85,0.81,2.42,0.97,3.46c1.35,8.6,2.94,26.66,3.73,42.49"/>--> <!--<path id="kvg:067da-Kaisho-s6" kvg:type="㇕a" d="M52.73,48.35c10.74-0.87,31.15-3.22,39.17-4.06c2.95-0.31,4.45,2.18,4.29,4.48c-0.59,8.44-3.5,30.31-5.61,41.25"/>--> </g> <g id="kvg:067da-Kaisho-g4" kvg:element="丨"> <!--<path id="kvg:067da-Kaisho-s7" kvg:type="㇑a" d="M70.56,14.07c1.23,1.15,1.95,2.81,1.96,4.32c0.04,14.93,0.23,66.28,0.23,70.17"/>--> </g> <g id="kvg:067da-Kaisho-g5" kvg:element="田" kvg:part="2" kvg:partial="true"> <!--<path id="kvg:067da-Kaisho-s8" kvg:type="㇐a" d="M54.51,68.05c8.6-1,17.26-1.66,25.89-2.41c1.04-0.09,2.05-0.18,3.01-0.26"/>--> <!--<path id="kvg:067da-Kaisho-s9" kvg:type="㇐a" d="M56.07,89.82c8.85-0.61,23.92-1.87,34.6-2.1"/>--> </g> </g> </g> </g> <g id="kvg:StrokeNumbers_067da-Kaisho" style="font-size:8;fill:#808080">          </g> </svg> 