<?xml version="1.0" encoding="UTF-8"?>  <!DOCTYPE svg PUBLIC "-//W3C//DTD SVG 1.0//EN" "http://www.w3.org/TR/2001/REC-SVG-20010904/DTD/svg10.dtd"  <!ATTLIST g xmlns:kvg CDATA #FIXED "http://kanjivg.tagaini.net" kvg:element CDATA #IMPLIED kvg:variant CDATA #IMPLIED kvg:partial CDATA #IMPLIED kvg:original CDATA #IMPLIED kvg:part CDATA #IMPLIED kvg:number CDATA #IMPLIED kvg:tradForm CDATA #IMPLIED kvg:radicalForm CDATA #IMPLIED kvg:position CDATA #IMPLIED kvg:radical CDATA #IMPLIED kvg:phon CDATA #IMPLIED > <!ATTLIST path xmlns:kvg CDATA #FIXED "http://kanjivg.tagaini.net" kvg:type CDATA #IMPLIED >  <svg xmlns="http://www.w3.org/2000/svg" width="109" height="109" viewBox="0 0 109 109"> <g id="kvg:StrokePaths_067d4-Kaisho" style="fill:none;stroke:#000000;stroke-width:3;stroke-linecap:round;stroke-linejoin:round;"> <g id="kvg:067d4-Kaisho" kvg:element="柔"> <g id="kvg:067d4-Kaisho-g1" kvg:element="矛" kvg:position="top" kvg:radical="nelson"> <g id="kvg:067d4-Kaisho-g2" kvg:element="予"> <g id="kvg:067d4-Kaisho-g3" kvg:element="マ" kvg:position="top"> <!--<path id="kvg:067d4-Kaisho-s1" kvg:type="㇇" d="M31.27,15.54c1.49,0.4,3,0.5,4.44,0.32c2.86-0.37,28.88-4.14,31.89-4.51c3.01-0.37,4.04,1.55,2.24,2.75c-3.09,2.07-13.34,10.37-15.24,11.84"/>--> <!--<path id="kvg:067d4-Kaisho-s2" kvg:type="㇔" d="M46.13,22.17c2.16,0.68,7.24,3.28,8.26,5.06"/>--> </g> <g id="kvg:067d4-Kaisho-g4" kvg:element="了" kvg:position="bottom"> <!--<path id="kvg:067d4-Kaisho-s3" kvg:type="㇇" d="M23.07,34.79c0.84,0.23,3.44,0.69,6.03,0.11c15.4-3.4,35.9-7.4,48.33-7.47c7.1-0.04,2.57,5.06-1.38,8.57"/>--> <g id="kvg:067d4-Kaisho-g5" kvg:element="亅"> <!--<path id="kvg:067d4-Kaisho-s4" kvg:type="㇚" d="M56.49,30.17c0,8.83-0.02,14.58-0.02,20.08c0,6.64-3.46,1.75-4.82-0.34"/>--> </g> </g> </g> <g id="kvg:067d4-Kaisho-g6" kvg:element="丿"> <!--<path id="kvg:067d4-Kaisho-s5" kvg:type="㇒" d="M52.99,30.25c0.08,0.64,0.29,1.68-0.17,2.56c-3.56,6.79-11.35,16.25-29.18,24.45"/>--> </g> </g> <g id="kvg:067d4-Kaisho-g7" kvg:element="木" kvg:position="bottom" kvg:radical="tradit"> <!--<path id="kvg:067d4-Kaisho-s6" kvg:type="㇐" d="M18.5,69.11c1.95,0.57,4.16,0.75,6.4,0.57c11.41-0.93,43.51-4.18,60.76-5.28c2.22-0.14,3.62,0.1,5.84,0.5"/>--> <!--<path id="kvg:067d4-Kaisho-s7" kvg:type="㇑" d="M53.25,58.25c1,1,1.75,2.22,1.75,3.25c0,10.5-0.25,31.73-0.25,33c0,11.5-5.38,2.38-6.75,1"/>--> <!--<path id="kvg:067d4-Kaisho-s8" kvg:type="㇒" d="M53.25,68.25c-5.25,10-21.25,23-35.5,27.25"/>--> <!--<path id="kvg:067d4-Kaisho-s9" kvg:type="㇏" d="M56,68c4.75,3.14,27.09,18.87,32.25,21.96c1.75,1.04,3.25,1.49,5,1.79"/>--> </g> </g> </g> <g id="kvg:StrokeNumbers_067d4-Kaisho" style="font-size:8;fill:#808080">          </g> </svg> 