<?xml version="1.0" encoding="UTF-8"?>  <!DOCTYPE svg PUBLIC "-//W3C//DTD SVG 1.0//EN" "http://www.w3.org/TR/2001/REC-SVG-20010904/DTD/svg10.dtd"  <!ATTLIST g xmlns:kvg CDATA #FIXED "http://kanjivg.tagaini.net" kvg:element CDATA #IMPLIED kvg:variant CDATA #IMPLIED kvg:partial CDATA #IMPLIED kvg:original CDATA #IMPLIED kvg:part CDATA #IMPLIED kvg:number CDATA #IMPLIED kvg:tradForm CDATA #IMPLIED kvg:radicalForm CDATA #IMPLIED kvg:position CDATA #IMPLIED kvg:radical CDATA #IMPLIED kvg:phon CDATA #IMPLIED > <!ATTLIST path xmlns:kvg CDATA #FIXED "http://kanjivg.tagaini.net" kvg:type CDATA #IMPLIED >  <svg xmlns="http://www.w3.org/2000/svg" width="109" height="109" viewBox="0 0 109 109"> <g id="kvg:StrokePaths_067d1-Kaisho" style="fill:none;stroke:#000000;stroke-width:3;stroke-linecap:round;stroke-linejoin:round;"> <g id="kvg:067d1-Kaisho" kvg:element="柑"> <g id="kvg:067d1-Kaisho-g1" kvg:element="木" kvg:position="left" kvg:radical="general"> <!--<path id="kvg:067d1-Kaisho-s1" kvg:type="㇐" d="M12.28,38.22c0.35,0.24,2.39,0.41,3.31,0.31c3.94-0.41,20.62-2.71,26.95-3.91c0.92-0.17,1.15-0.24,1.73,0"/>--> <!--<path id="kvg:067d1-Kaisho-s2" kvg:type="㇑" d="M30.36,15.5c0.91,0.47,1.89,1.25,2.04,4.42c0.04,0.95-0.3,70.23-0.3,71.08c0,11-4.35,3.5-6.1,1.75"/>--> <!--<path id="kvg:067d1-Kaisho-s3" kvg:type="㇒" d="M31.94,39.78c-6.63,15.91-10.32,22.63-20.58,36.56"/>--> <!--<path id="kvg:067d1-Kaisho-s4" kvg:type="㇔/㇏" d="M35.22,47.9c2.76,1.71,6.58,7.57,8.91,10.89"/>--> </g> <g id="kvg:067d1-Kaisho-g2" kvg:element="甘" kvg:position="right"> <g id="kvg:067d1-Kaisho-g3" kvg:element="廿" kvg:part="1"> <g id="kvg:067d1-Kaisho-g4" kvg:element="十"> <!--<path id="kvg:067d1-Kaisho-s5" kvg:type="㇐" d="M44.36,41.02c1.29,0.46,3.67,0.57,4.96,0.46c9.52-0.84,28.18-3.23,43.79-4.33c2.15-0.15,3.45,0.22,4.53,0.45"/>--> <!--<path id="kvg:067d1-Kaisho-s6" kvg:type="㇑" d="M55.67,16.87c1.07,0.49,1.71,2.19,1.93,3.17c0.21,0.98,0,69.62-0.21,75.71"/>--> </g> <!--<path id="kvg:067d1-Kaisho-s7" kvg:type="㇑" d="M81.62,14c1.07,0.49,1.71,2.19,1.93,3.17c0.21,0.98,0.5,71.01,0.29,77.1"/>--> </g> <!--<path id="kvg:067d1-Kaisho-s8" kvg:type="㇐" d="M57.76,63.84c4.62-0.28,9.22-0.86,13.82-1.34c1.34-0.14,2.67-0.28,3.92-0.41"/>--> <g id="kvg:067d1-Kaisho-g5" kvg:element="廿" kvg:part="2"> <!--<path id="kvg:067d1-Kaisho-s9" kvg:type="㇐" d="M57.76,92.65c6.4-0.24,20.08-1.71,25.98-1.95"/>--> </g> </g> </g> </g> <g id="kvg:StrokeNumbers_067d1-Kaisho" style="font-size:8;fill:#808080">          </g> </svg> 