<?xml version="1.0" encoding="UTF-8"?>  <!DOCTYPE svg PUBLIC "-//W3C//DTD SVG 1.0//EN" "http://www.w3.org/TR/2001/REC-SVG-20010904/DTD/svg10.dtd"  <!ATTLIST g xmlns:kvg CDATA #FIXED "http://kanjivg.tagaini.net" kvg:element CDATA #IMPLIED kvg:variant CDATA #IMPLIED kvg:partial CDATA #IMPLIED kvg:original CDATA #IMPLIED kvg:part CDATA #IMPLIED kvg:number CDATA #IMPLIED kvg:tradForm CDATA #IMPLIED kvg:radicalForm CDATA #IMPLIED kvg:position CDATA #IMPLIED kvg:radical CDATA #IMPLIED kvg:phon CDATA #IMPLIED > <!ATTLIST path xmlns:kvg CDATA #FIXED "http://kanjivg.tagaini.net" kvg:type CDATA #IMPLIED >  <svg xmlns="http://www.w3.org/2000/svg" width="109" height="109" viewBox="0 0 109 109"> <g id="kvg:StrokePaths_067fb-Kaisho" style="fill:none;stroke:#000000;stroke-width:3;stroke-linecap:round;stroke-linejoin:round;"> <g id="kvg:067fb-Kaisho" kvg:element="査"> <g id="kvg:067fb-Kaisho-g1" kvg:element="木" kvg:position="top" kvg:radical="general"> <!--<path id="kvg:067fb-Kaisho-s1" kvg:type="㇐" d="M22.21,28.92c0.73,0.24,3.18,0.45,5.11,0.23c7.93-0.9,36.54-3.14,49.89-4.35c1.93-0.18,2.43-0.24,3.64,0"/>--> <!--<path id="kvg:067fb-Kaisho-s2" kvg:type="㇑" d="M52.13,11.25c1.06,0.42,1.9,1.88,1.9,2.75c0,8.75-0.21,31.89-0.21,32.25c0,8.75-4.19,1.84-5.08,1.25"/>--> <!--<path id="kvg:067fb-Kaisho-s3" kvg:type="㇒" d="M53.38,26.97c-6.52,9.96-23.48,24.05-37.05,29.68"/>--> <!--<path id="kvg:067fb-Kaisho-s4" kvg:type="㇏" d="M54.15,27.26c5.15,3.65,27.74,20.94,33.34,24.54c1.9,1.22,3.52,1.74,5.42,2.09"/>--> </g> <g id="kvg:067fb-Kaisho-g2" kvg:element="且" kvg:position="bottom"> <g id="kvg:067fb-Kaisho-g3" kvg:element="月"> <!--<path id="kvg:067fb-Kaisho-s5" kvg:type="㇑a" d="M37.77,57.42c0.58,0.56,0.96,1.62,1.16,2.19c0.2,0.56,0.57,26.14,0.44,35.26"/>--> <!--<path id="kvg:067fb-Kaisho-s6" kvg:type="㇕b" d="M40.07,58.98c2.29-0.15,23.73-3.08,25.43-3.24c3.04-0.29,3.84,1.74,3.84,2.67c0,5.09-0.13,20.22-0.21,31.63"/>--> <!--<path id="kvg:067fb-Kaisho-s7" kvg:type="㇐a" d="M39.67,70.44c4.93-0.55,9.87-1.02,14.81-1.46c1.35-0.12,2.69-0.24,4-0.35"/>--> <!--<path id="kvg:067fb-Kaisho-s8" kvg:type="㇐a" d="M39.66,82.04c4.71-0.34,9.42-0.87,14.12-1.32c1.4-0.14,2.81-0.27,4.18-0.4"/>--> </g> <g id="kvg:067fb-Kaisho-g4" kvg:element="一"> <!--<path id="kvg:067fb-Kaisho-s9" kvg:type="㇐" d="M18.73,96.2c1.15,0.37,3.25,0.21,4.4,0.14c13.87-0.84,37.4-3.13,59.38-4.78c1.91-0.15,4.49,0.19,7.02,0.65"/>--> </g> </g> </g> </g> <g id="kvg:StrokeNumbers_067fb-Kaisho" style="font-size:8;fill:#808080">          </g> </svg> 