<?xml version="1.0" encoding="UTF-8"?>  <!DOCTYPE svg PUBLIC "-//W3C//DTD SVG 1.0//EN" "http://www.w3.org/TR/2001/REC-SVG-20010904/DTD/svg10.dtd"  <!ATTLIST g xmlns:kvg CDATA #FIXED "http://kanjivg.tagaini.net" kvg:element CDATA #IMPLIED kvg:variant CDATA #IMPLIED kvg:partial CDATA #IMPLIED kvg:original CDATA #IMPLIED kvg:part CDATA #IMPLIED kvg:number CDATA #IMPLIED kvg:tradForm CDATA #IMPLIED kvg:radicalForm CDATA #IMPLIED kvg:position CDATA #IMPLIED kvg:radical CDATA #IMPLIED kvg:phon CDATA #IMPLIED > <!ATTLIST path xmlns:kvg CDATA #FIXED "http://kanjivg.tagaini.net" kvg:type CDATA #IMPLIED >  <svg xmlns="http://www.w3.org/2000/svg" width="109" height="109" viewBox="0 0 109 109"> <g id="kvg:StrokePaths_06804-Kaisho" style="fill:none;stroke:#000000;stroke-width:3;stroke-linecap:round;stroke-linejoin:round;"> <g id="kvg:06804-Kaisho" kvg:element="栄"> <g id="kvg:06804-Kaisho-g1" kvg:position="top"> <g id="kvg:06804-Kaisho-g2" kvg:element="⺍" kvg:original="つ"> <!--<path id="kvg:06804-Kaisho-s1" kvg:type="㇔" d="M27,19.75c3.05,3.23,6.31,8.88,6.75,10.5"/>--> <!--<path id="kvg:06804-Kaisho-s2" kvg:type="㇔" d="M49,15.25c1.05,2.19,3.58,7.94,4,11.5"/>--> <!--<path id="kvg:06804-Kaisho-s3" kvg:type="㇒" d="M78.39,13c0.57,0.74,0.65,1.68-0.15,2.95C76,19.5,73.25,23,69.75,26.5"/>--> </g> <g id="kvg:06804-Kaisho-g3" kvg:element="冖"> <!--<path id="kvg:06804-Kaisho-s4" kvg:type="㇔" d="M21.82,38.2c-0.13,3.81-3.22,13.94-4.32,16.27"/>--> <!--<path id="kvg:06804-Kaisho-s5" kvg:type="㇖b" d="M22.24,41.88c17.26-2.13,44.29-5.18,61.8-6.33c12.21-0.8,1.41,7.74-0.15,9.05"/>--> </g> </g> <g id="kvg:06804-Kaisho-g4" kvg:element="木" kvg:position="bottom" kvg:radical="general"> <!--<path id="kvg:06804-Kaisho-s6" kvg:type="㇐" d="M24.75,60.5c0.75,0.25,1.75,0.86,3.75,0.75c9-0.5,33.25-4.75,49-5c2-0.03,2.5-0.25,3.75,0"/>--> <!--<path id="kvg:06804-Kaisho-s7" kvg:type="㇑" d="M51.75,43.75C53,44.25,53.75,46,54,47s-0.25,37.75-0.25,44c0,11.25-5.25,3.5-6.5,2.25"/>--> <!--<path id="kvg:06804-Kaisho-s8" kvg:type="㇒" d="M52.25,58.25C46.04,69.24,29.91,84.78,17,91"/>--> <!--<path id="kvg:06804-Kaisho-s9" kvg:type="㇏" d="M54.25,58.5c5.21,4.12,28.09,23.6,33.76,27.65c1.92,1.37,3.57,1.96,5.49,2.35"/>--> </g> </g> </g> <g id="kvg:StrokeNumbers_06804-Kaisho" style="font-size:8;fill:#808080">          </g> </svg> 