<?xml version="1.0" encoding="UTF-8"?>  <!DOCTYPE svg PUBLIC "-//W3C//DTD SVG 1.0//EN" "http://www.w3.org/TR/2001/REC-SVG-20010904/DTD/svg10.dtd"  <!ATTLIST g xmlns:kvg CDATA #FIXED "http://kanjivg.tagaini.net" kvg:element CDATA #IMPLIED kvg:variant CDATA #IMPLIED kvg:partial CDATA #IMPLIED kvg:original CDATA #IMPLIED kvg:part CDATA #IMPLIED kvg:number CDATA #IMPLIED kvg:tradForm CDATA #IMPLIED kvg:radicalForm CDATA #IMPLIED kvg:position CDATA #IMPLIED kvg:radical CDATA #IMPLIED kvg:phon CDATA #IMPLIED > <!ATTLIST path xmlns:kvg CDATA #FIXED "http://kanjivg.tagaini.net" kvg:type CDATA #IMPLIED >  <svg xmlns="http://www.w3.org/2000/svg" width="109" height="109" viewBox="0 0 109 109"> <g id="kvg:StrokePaths_06838-Kaisho" style="fill:none;stroke:#000000;stroke-width:3;stroke-linecap:round;stroke-linejoin:round;"> <g id="kvg:06838-Kaisho" kvg:element="核"> <g id="kvg:06838-Kaisho-g1" kvg:element="木" kvg:position="left" kvg:radical="general"> <!--<path id="kvg:06838-Kaisho-s1" kvg:type="㇐" d="M14.28,37.72c0.35,0.24,2.39,0.41,3.31,0.31c3.94-0.41,17.12-1.21,23.45-2.41c0.92-0.17,2.15-0.24,2.73,0"/>--> <!--<path id="kvg:06838-Kaisho-s2" kvg:type="㇑" d="M30.86,14.5c0.91,0.47,2.54,2,2.54,4.42c0,0.95-0.3,65.25-0.3,71.08c0,11.25-4.1,3.25-5.85,1.5"/>--> <!--<path id="kvg:06838-Kaisho-s3" kvg:type="㇒" d="M32.69,40.03c-6.39,14.82-9.94,21.09-19.83,34.06"/>--> <!--<path id="kvg:06838-Kaisho-s4" kvg:type="㇔/㇏" d="M35.47,46.9c2.37,1.59,7.28,7.76,9.28,10.85"/>--> </g> <g id="kvg:06838-Kaisho-g2" kvg:element="亥" kvg:position="right"> <g id="kvg:06838-Kaisho-g3" kvg:element="亠" kvg:position="top"> <!--<path id="kvg:06838-Kaisho-s5" kvg:type="㇑a" d="M65.18,12.54c3.28,1.57,7.36,6.34,8.67,10.71"/>--> <!--<path id="kvg:06838-Kaisho-s6" kvg:type="㇐" d="M47.5,30.81c0.9,0.06,2.95,0.44,3.83,0.35c7.06-0.73,31.26-2.91,41.33-3.42c1.48-0.07,2.24,0.03,3.34,0.44"/>--> </g> <!--<path id="kvg:06838-Kaisho-s7" kvg:type="㇜" d="M67.48,32.87c0.48,1.23,0.23,2.61-0.74,3.97c-3.48,4.91-5.23,6.91-10.3,12.94c-0.74,0.88-0.95,2.83,0,3.07c5.06,1.23,7.1,3.27,11.43,5.52"/>--> <!--<path id="kvg:06838-Kaisho-s8" kvg:type="㇒" d="M82.02,40c0.09,0.81,0.41,2.41-0.18,3.26C74.19,54.38,64.31,64.29,48,74.5"/>--> <g id="kvg:06838-Kaisho-g4" kvg:element="人" kvg:position="bottom"> <!--<path id="kvg:06838-Kaisho-s9" kvg:type="㇒" d="M85.99,58.5c0.1,0.88,0.49,2.6-0.21,3.52C76.74,74.02,64.25,86,45.5,96.25"/>--> <!--<path id="kvg:06838-Kaisho-s10" kvg:type="㇔/㇏" d="M73.52,76.08C81.19,79.6,93.33,90.53,95.25,96"/>--> </g> </g> </g> </g> <g id="kvg:StrokeNumbers_06838-Kaisho" style="font-size:8;fill:#808080">           </g> </svg> 