<?xml version="1.0" encoding="UTF-8"?>  <!DOCTYPE svg PUBLIC "-//W3C//DTD SVG 1.0//EN" "http://www.w3.org/TR/2001/REC-SVG-20010904/DTD/svg10.dtd"  <!ATTLIST g xmlns:kvg CDATA #FIXED "http://kanjivg.tagaini.net" kvg:element CDATA #IMPLIED kvg:variant CDATA #IMPLIED kvg:partial CDATA #IMPLIED kvg:original CDATA #IMPLIED kvg:part CDATA #IMPLIED kvg:number CDATA #IMPLIED kvg:tradForm CDATA #IMPLIED kvg:radicalForm CDATA #IMPLIED kvg:position CDATA #IMPLIED kvg:radical CDATA #IMPLIED kvg:phon CDATA #IMPLIED > <!ATTLIST path xmlns:kvg CDATA #FIXED "http://kanjivg.tagaini.net" kvg:type CDATA #IMPLIED >  <svg xmlns="http://www.w3.org/2000/svg" width="109" height="109" viewBox="0 0 109 109"> <g id="kvg:StrokePaths_06843-Kaisho" style="fill:none;stroke:#000000;stroke-width:3;stroke-linecap:round;stroke-linejoin:round;"> <g id="kvg:06843-Kaisho" kvg:element="桃"> <g id="kvg:06843-Kaisho-g1" kvg:element="木" kvg:position="left" kvg:radical="general"> <!--<path id="kvg:06843-Kaisho-s1" kvg:type="㇐" d="M12.28,39.72c0.35,0.24,2.39,0.41,3.31,0.31c3.94-0.41,15.12-3.21,21.45-4.41c0.92-0.17,2.15-0.24,2.73,0"/>--> <!--<path id="kvg:06843-Kaisho-s2" kvg:type="㇑" d="M26.36,17.5c0.91,0.47,2.86,3.49,3.04,4.42c-0.06-0.3-0.3,63.74-0.3,65.58c0,12.25-4.22,3.62-5.35,2.5"/>--> <!--<path id="kvg:06843-Kaisho-s3" kvg:type="㇒" d="M28.94,43.28c-5.5,14.28-8.56,20.31-17.08,32.81"/>--> <!--<path id="kvg:06843-Kaisho-s4" kvg:type="㇔/㇏" d="M31.47,48.9c2.37,1.59,6.28,5.76,8.28,8.85"/>--> </g> <g id="kvg:06843-Kaisho-g2" kvg:element="兆" kvg:position="right"> <g id="kvg:06843-Kaisho-g3" kvg:element="儿" kvg:part="1" kvg:original="八" kvg:position="left"> <g id="kvg:06843-Kaisho-g4" kvg:element="丿"> <!--<path id="kvg:06843-Kaisho-s5" kvg:type="㇒" d="M57.04,18.41c0.71,1.59,1.39,3.58,1.39,4.82c0,7.79,0.06,22.17,0.06,30.76c0,21.27-7.27,32.51-16.59,40.2"/>--> </g> <g id="kvg:06843-Kaisho-g5" kvg:element="冫"> <g id="kvg:06843-Kaisho-g6" kvg:position="top"> <!--<path id="kvg:06843-Kaisho-s6" kvg:type="㇔" d="M43.91,38.81c2.89,1.47,7.47,6.03,8.2,8.32"/>--> </g> <g id="kvg:06843-Kaisho-g7" kvg:position="bottom"> <!--<path id="kvg:06843-Kaisho-s7" kvg:type="㇀" d="M42.11,68.74c1.03,0.5,2.06,0.67,2.84,0.1c1.08-0.78,8.86-7.28,13.11-11.06"/>--> </g> </g> </g> <g id="kvg:06843-Kaisho-g8" kvg:position="right"> <g id="kvg:06843-Kaisho-g9" kvg:element="儿" kvg:part="2" kvg:original="八"> <!--<path id="kvg:06843-Kaisho-s8" kvg:type="㇟" d="M70.28,15.69c0.97,1.06,1.46,2.83,1.49,4.47c0.14,7.34-0.02,56.29-0.02,61.29c0,11.66,3.76,10.79,12.19,10.79c10.31,0,11.56-1.73,11.56-8.68"/>--> </g> <!--<path id="kvg:06843-Kaisho-s9" kvg:type="㇒" d="M89.64,31.25c0.04,0.36,0.09,0.94-0.08,1.46c-1.04,3.07-6.98,9.81-15.11,13.94"/>--> <!--<path id="kvg:06843-Kaisho-s10" kvg:type="㇔" d="M74.7,51.02c6.25,2.75,16.13,11.31,17.7,15.59"/>--> </g> </g> </g> </g> <g id="kvg:StrokeNumbers_06843-Kaisho" style="font-size:8;fill:#808080">           </g> </svg> 