<?xml version="1.0" encoding="UTF-8"?>  <!DOCTYPE svg PUBLIC "-//W3C//DTD SVG 1.0//EN" "http://www.w3.org/TR/2001/REC-SVG-20010904/DTD/svg10.dtd"  <!ATTLIST g xmlns:kvg CDATA #FIXED "http://kanjivg.tagaini.net" kvg:element CDATA #IMPLIED kvg:variant CDATA #IMPLIED kvg:partial CDATA #IMPLIED kvg:original CDATA #IMPLIED kvg:part CDATA #IMPLIED kvg:number CDATA #IMPLIED kvg:tradForm CDATA #IMPLIED kvg:radicalForm CDATA #IMPLIED kvg:position CDATA #IMPLIED kvg:radical CDATA #IMPLIED kvg:phon CDATA #IMPLIED > <!ATTLIST path xmlns:kvg CDATA #FIXED "http://kanjivg.tagaini.net" kvg:type CDATA #IMPLIED >  <svg xmlns="http://www.w3.org/2000/svg" width="109" height="109" viewBox="0 0 109 109"> <g id="kvg:StrokePaths_06893-Kaisho" style="fill:none;stroke:#000000;stroke-width:3;stroke-linecap:round;stroke-linejoin:round;"> <g id="kvg:06893-Kaisho" kvg:element="梓"> <g id="kvg:06893-Kaisho-g1" kvg:element="木" kvg:position="left" kvg:radical="general"> <!--<path id="kvg:06893-Kaisho-s1" kvg:type="㇐" d="M13.03,40.47c0.35,0.24,2.39,0.41,3.31,0.31c3.94-0.41,18.12-2.21,24.45-3.41c0.92-0.17,2.15-0.24,2.73,0"/>--> <!--<path id="kvg:06893-Kaisho-s2" kvg:type="㇑" d="M30.11,15.25c0.91,0.47,2.04,2.47,2.04,3.42c0,3.83-0.3,63.75-0.3,69.58c0,13.5-5.6,3.25-7.1,1.75"/>--> <!--<path id="kvg:06893-Kaisho-s3" kvg:type="㇒" d="M31.94,39.53C26.36,54.14,21.5,64,12.61,75.09"/>--> <!--<path id="kvg:06893-Kaisho-s4" kvg:type="㇔/㇏" d="M34.22,47.65c2.37,1.59,7.28,7.76,9.28,10.85"/>--> </g> <g id="kvg:06893-Kaisho-g2" kvg:element="辛" kvg:position="right"> <g id="kvg:06893-Kaisho-g3" kvg:element="立" kvg:position="top"> <g id="kvg:06893-Kaisho-g4" kvg:element="亠" kvg:position="top"> <!--<path id="kvg:06893-Kaisho-s5" kvg:type="㇑a" d="M64.44,12.5c2.57,2,5.7,5,7.49,8.7"/>--> <!--<path id="kvg:06893-Kaisho-s6" kvg:type="㇐" d="M47.5,29.45c1.02,0.33,2.22,0.38,3.24,0.33c5.77-0.28,29.95-4.03,38.68-4.27c1.71-0.05,2.73,0.16,3.58,0.32"/>--> </g> <g id="kvg:06893-Kaisho-g5" kvg:position="bottom"> <!--<path id="kvg:06893-Kaisho-s7" kvg:type="㇔" d="M55.5,33c4.69,5.5,6.82,11.12,7.25,14.75"/>--> <!--<path id="kvg:06893-Kaisho-s8" kvg:type="㇒" d="M82.59,29.5c0.68,0.56,0.76,1.87,0.68,2.34c-0.55,3.18-5.15,12.23-6.52,14.66"/>--> <!--<path id="kvg:06893-Kaisho-s9" kvg:type="㇐" d="M45.75,51.55c1.46,0.39,3.17,0.54,4.62,0.39c15.88-1.69,22.88-2.69,41.28-3.5c2.43-0.11,3.89,0.19,5.1,0.38"/>--> </g> </g> <g id="kvg:06893-Kaisho-g6" kvg:element="十" kvg:position="bottom"> <!--<path id="kvg:06893-Kaisho-s10" kvg:type="㇐" d="M48.39,69.88c1.03,0.3,2.92,0.37,3.95,0.3c13.09-0.97,27.04-2.8,39.17-3.42c1.71-0.09,2.75,0.14,3.6,0.29"/>--> <!--<path id="kvg:06893-Kaisho-s11" kvg:type="㇑" d="M69.14,53.38c0.66,0.52,1.18,3.41,1.18,4.46c0,9.4-0.22,32.4-0.22,40.29"/>--> </g> </g> </g> </g> <g id="kvg:StrokeNumbers_06893-Kaisho" style="font-size:8;fill:#808080">            </g> </svg> 