<?xml version="1.0" encoding="UTF-8"?>  <!DOCTYPE svg PUBLIC "-//W3C//DTD SVG 1.0//EN" "http://www.w3.org/TR/2001/REC-SVG-20010904/DTD/svg10.dtd"  <!ATTLIST g xmlns:kvg CDATA #FIXED "http://kanjivg.tagaini.net" kvg:element CDATA #IMPLIED kvg:variant CDATA #IMPLIED kvg:partial CDATA #IMPLIED kvg:original CDATA #IMPLIED kvg:part CDATA #IMPLIED kvg:number CDATA #IMPLIED kvg:tradForm CDATA #IMPLIED kvg:radicalForm CDATA #IMPLIED kvg:position CDATA #IMPLIED kvg:radical CDATA #IMPLIED kvg:phon CDATA #IMPLIED > <!ATTLIST path xmlns:kvg CDATA #FIXED "http://kanjivg.tagaini.net" kvg:type CDATA #IMPLIED >  <svg xmlns="http://www.w3.org/2000/svg" width="109" height="109" viewBox="0 0 109 109"> <g id="kvg:StrokePaths_068da-Kaisho" style="fill:none;stroke:#000000;stroke-width:3;stroke-linecap:round;stroke-linejoin:round;"> <g id="kvg:068da-Kaisho" kvg:element="棚"> <g id="kvg:068da-Kaisho-g1" kvg:element="木" kvg:position="left" kvg:radical="general"> <!--<path id="kvg:068da-Kaisho-s1" kvg:type="㇐" d="M13.28,38.72c0.35,0.24,2.39,0.41,3.31,0.31c3.94-0.41,15.12-2.21,21.45-3.41c0.92-0.17,2.15-0.24,2.73,0"/>--> <!--<path id="kvg:068da-Kaisho-s2" kvg:type="㇑" d="M27.36,17c1.14,1.25,2.04,2.5,2.04,4.42c0,0.95-0.3,65.73-0.3,66.58c0,11.5-5.47,2.62-6.35,1.75"/>--> <!--<path id="kvg:068da-Kaisho-s3" kvg:type="㇒" d="M28.94,40.28c-5.1,15.04-7.94,21.4-15.83,34.56"/>--> <!--<path id="kvg:068da-Kaisho-s4" kvg:type="㇔" d="M31.47,43.9c2.37,1.59,6.28,6.76,8.28,9.85"/>--> </g> <g id="kvg:068da-Kaisho-g2" kvg:element="朋" kvg:position="right"> <g id="kvg:068da-Kaisho-g3" kvg:element="月"> <!--<path id="kvg:068da-Kaisho-s5" kvg:type="㇒" d="M45.94,20.19c0.55,0.93,0.91,1.86,1.09,2.79c0.18,0.93,0.18,19.51,0.18,29.96c0,10-2.72,31.56-8.71,38.56"/>--> <!--<path id="kvg:068da-Kaisho-s6" kvg:type="㇆a" d="M48.13,22.05c2.19-0.23,11.32-2.3,12.95-2.56C64,19.03,64,21.51,64,22.98c0,7.9-0.55,43.53-0.55,60.86c0,12.08-4.38,4.18-6.2,2.09"/>--> <!--<path id="kvg:068da-Kaisho-s7" kvg:type="㇐a" d="M48.13,41.44c2.29-0.34,4.59-0.7,6.89-1.02c0.68-0.09,1.38-0.19,2.06-0.27"/>--> <!--<path id="kvg:068da-Kaisho-s8" kvg:type="㇐a" d="M47.22,61.71c2.54-0.3,5.06-0.69,7.59-1.03c0.6-0.08,1.2-0.16,1.83-0.24"/>--> </g> <g id="kvg:068da-Kaisho-g4" kvg:element="月"> <!--<path id="kvg:068da-Kaisho-s9" kvg:type="㇒" d="M75.24,18.71c0.53,0.95,0.88,1.9,1.05,2.85c0.17,0.95,0.17,24.19,0.17,30.59c0,10.21-2.22,30.61-8.41,39.36"/>--> <!--<path id="kvg:068da-Kaisho-s10" kvg:type="㇆a" d="M76.99,21.08c2.11-0.24,13.37-2.82,14.94-3.08c2.81-0.47,2.81,2.06,2.81,3.56c0,8.06-0.53,44.43-0.53,62.12c0,7.82-2.16,5.69-3.92,3.56"/>--> <!--<path id="kvg:068da-Kaisho-s11" kvg:type="㇐a" d="M77.35,39.81c2.55-0.4,5.12-0.73,7.69-1.04c0.79-0.1,1.59-0.19,2.38-0.28"/>--> <!--<path id="kvg:068da-Kaisho-s12" kvg:type="㇐a" d="M76.47,59.65c2.78-0.35,5.57-0.6,8.37-0.8c0.71-0.05,1.42-0.1,2.15-0.15"/>--> </g> </g> </g> </g> <g id="kvg:StrokeNumbers_068da-Kaisho" style="font-size:8;fill:#808080">             </g> </svg> 