<?xml version="1.0" encoding="UTF-8"?>  <!DOCTYPE svg PUBLIC "-//W3C//DTD SVG 1.0//EN" "http://www.w3.org/TR/2001/REC-SVG-20010904/DTD/svg10.dtd"  <!ATTLIST g xmlns:kvg CDATA #FIXED "http://kanjivg.tagaini.net" kvg:element CDATA #IMPLIED kvg:variant CDATA #IMPLIED kvg:partial CDATA #IMPLIED kvg:original CDATA #IMPLIED kvg:part CDATA #IMPLIED kvg:number CDATA #IMPLIED kvg:tradForm CDATA #IMPLIED kvg:radicalForm CDATA #IMPLIED kvg:position CDATA #IMPLIED kvg:radical CDATA #IMPLIED kvg:phon CDATA #IMPLIED > <!ATTLIST path xmlns:kvg CDATA #FIXED "http://kanjivg.tagaini.net" kvg:type CDATA #IMPLIED >  <svg xmlns="http://www.w3.org/2000/svg" width="109" height="109" viewBox="0 0 109 109"> <g id="kvg:StrokePaths_068fa-Kaisho" style="fill:none;stroke:#000000;stroke-width:3;stroke-linecap:round;stroke-linejoin:round;"> <g id="kvg:068fa-Kaisho" kvg:element="棺"> <g id="kvg:068fa-Kaisho-g1" kvg:element="木" kvg:position="left" kvg:radical="general"> <!--<path id="kvg:068fa-Kaisho-s1" kvg:type="㇐" d="M15.28,39.72c0.35,0.24,2.39,0.41,3.31,0.31c3.94-0.41,16.12-3.21,22.45-4.41c0.92-0.17,2.15-0.24,2.73,0"/>--> <!--<path id="kvg:068fa-Kaisho-s2" kvg:type="㇑" d="M30.36,16.5c0.91,0.47,2.86,3.49,3.04,4.42c0.18,0.93-0.3,64.75-0.3,70.58c0,10.5-4.35,4-6.85,1.5"/>--> <!--<path id="kvg:068fa-Kaisho-s3" kvg:type="㇒" d="M32.94,40.28c-5.21,15.37-9.19,21.81-16.83,34.56"/>--> <!--<path id="kvg:068fa-Kaisho-s4" kvg:type="㇔/㇏" d="M35.47,45.9c2.88,2,7.6,8.48,10.03,12.35"/>--> </g> <g id="kvg:068fa-Kaisho-g2" kvg:element="官" kvg:position="right"> <g id="kvg:068fa-Kaisho-g3" kvg:element="宀" kvg:position="top"> <!--<path id="kvg:068fa-Kaisho-s5" kvg:type="㇑a" d="M65.64,14.29c3.57,2.6,6.22,6.01,8.87,10.3"/>--> <g id="kvg:068fa-Kaisho-g4" kvg:element="冖"> <!--<path id="kvg:068fa-Kaisho-s6" kvg:type="㇔" d="M50.73,30c0,3.15-1.83,12.97-2.66,15.07"/>--> <!--<path id="kvg:068fa-Kaisho-s7" kvg:type="㇖b" d="M51.78,32.13c0.89,0.06,2.88,0,4.03-0.17c9.88-1.42,30.05-4.87,34.56-4.87c4.51,0,4.88,3.41-0.26,7.84"/>--> </g> </g> <g id="kvg:068fa-Kaisho-g5" kvg:position="bottom"> <g id="kvg:068fa-Kaisho-g6" kvg:element="口"> <!--<path id="kvg:068fa-Kaisho-s8" kvg:type="㇑" d="M57.02,44.34c0.82,0.46,1.31,2.08,1.48,3.01c0.16,0.92,0,43.59-0.17,49.37"/>--> <!--<path id="kvg:068fa-Kaisho-s9" kvg:type="㇕b" d="M58.81,46.5c6.78-1.39,19.76-3.57,23.49-4.04c1.36-0.17,2.18,1.03,1.98,2.04c-0.81,4.21-1.75,8.45-2.95,14.27"/>--> <!--<path id="kvg:068fa-Kaisho-s10" kvg:type="㇐b" d="M59.19,61.76c4.37-0.54,17.5-1.65,23.5-2.47"/>--> </g> <!--<path id="kvg:068fa-Kaisho-s11" kvg:type="㇕b" d="M60.17,75.17c6.33-0.92,20.59-3.28,24.31-3.79c1.36-0.19,2.18,1.12,1.98,2.23c-0.8,4.6-2.08,9.49-3.28,15.85"/>--> <!--<path id="kvg:068fa-Kaisho-s12" kvg:type="㇐b" d="M58.81,92.71c4.37-0.59,18.02-2.04,25.73-2.68"/>--> </g> </g> </g> </g> <g id="kvg:StrokeNumbers_068fa-Kaisho" style="font-size:8;fill:#808080">             </g> </svg> 