<?xml version="1.0" encoding="UTF-8"?>  <!DOCTYPE svg PUBLIC "-//W3C//DTD SVG 1.0//EN" "http://www.w3.org/TR/2001/REC-SVG-20010904/DTD/svg10.dtd"  <!ATTLIST g xmlns:kvg CDATA #FIXED "http://kanjivg.tagaini.net" kvg:element CDATA #IMPLIED kvg:variant CDATA #IMPLIED kvg:partial CDATA #IMPLIED kvg:original CDATA #IMPLIED kvg:part CDATA #IMPLIED kvg:number CDATA #IMPLIED kvg:tradForm CDATA #IMPLIED kvg:radicalForm CDATA #IMPLIED kvg:position CDATA #IMPLIED kvg:radical CDATA #IMPLIED kvg:phon CDATA #IMPLIED > <!ATTLIST path xmlns:kvg CDATA #FIXED "http://kanjivg.tagaini.net" kvg:type CDATA #IMPLIED >  <svg xmlns="http://www.w3.org/2000/svg" width="109" height="109" viewBox="0 0 109 109"> <g id="kvg:StrokePaths_0691c-Kaisho" style="fill:none;stroke:#000000;stroke-width:3;stroke-linecap:round;stroke-linejoin:round;"> <g id="kvg:0691c-Kaisho" kvg:element="検"> <g id="kvg:0691c-Kaisho-g1" kvg:element="木" kvg:position="left" kvg:radical="general"> <!--<path id="kvg:0691c-Kaisho-s1" kvg:type="㇐" d="M10.78,39.24c0.37,0.25,2.59,0.42,3.58,0.32c4.26-0.42,16.1-2.74,22.96-3.97c0.99-0.18,2.33-0.25,2.95,0"/>--> <!--<path id="kvg:0691c-Kaisho-s2" kvg:type="㇑" d="M27.52,10.5c0.99,0.48,2.09,3.58,2.29,4.53c0.2,0.96-0.33,70-0.33,75.97c0,11.5-5.35,2.62-6.48,1.5"/>--> <!--<path id="kvg:0691c-Kaisho-s3" kvg:type="㇒" d="M29.56,38.67c-6.24,14.54-9.71,20.69-19.38,33.41"/>--> <!--<path id="kvg:0691c-Kaisho-s4" kvg:type="㇔/㇏" d="M32.05,45.17c2.42,1.88,6.41,7.96,8.46,11.6"/>--> </g> <g id="kvg:0691c-Kaisho-g2" kvg:element="僉" kvg:partial="true" kvg:position="right"> <g id="kvg:0691c-Kaisho-g3" kvg:element="人" kvg:position="top"> <!--<path id="kvg:0691c-Kaisho-s5" kvg:type="㇒" d="M64.62,9.75c0.07,0.79,0.33,2.12-0.13,3.19c-2.74,6.31-11.24,21.31-23.54,30.56"/>--> <!--<path id="kvg:0691c-Kaisho-s6" kvg:type="㇏" d="M64.28,14.38C69,19.25,87.33,37.06,91.81,40.78c1.52,1.26,3.47,1.8,4.99,2.16"/>--> </g> <g id="kvg:0691c-Kaisho-g4" kvg:position="bottom"> <g id="kvg:0691c-Kaisho-g5" kvg:element="一"> <!--<path id="kvg:0691c-Kaisho-s7" kvg:type="㇐" d="M51.28,43.24c0.37,0.25,2.59,0.42,3.58,0.32c4.26-0.42,15.14-2.31,22.46-2.97c1-0.09,2.33-0.25,2.95,0"/>--> </g> <g id="kvg:0691c-Kaisho-g6" kvg:element="口"> <!--<path id="kvg:0691c-Kaisho-s8" kvg:type="㇑" d="M46.43,56.34c0.44,0.34,1,0.58,1.08,1.04c1.24,7.12,1.74,11.12,2.88,18.59"/>--> <!--<path id="kvg:0691c-Kaisho-s9" kvg:type="㇕b" d="M49.16,57.49c10.74-1.4,29.01-3.25,34.55-3.72c2.03-0.17,3.24,1.74,2.95,2.76c-1.2,4.21-2.67,8.72-4.14,13.42"/>--> <!--<path id="kvg:0691c-Kaisho-s10" kvg:type="㇐b" d="M50.83,73.75c6.51-0.54,26.46-2.74,34.72-3.28"/>--> </g> <g id="kvg:0691c-Kaisho-g7" kvg:element="人"> <!--<path id="kvg:0691c-Kaisho-s11" kvg:type="㇒" d="M64.29,44.75c0.07,1.31,0.86,3.35,0.86,5.25c0,25.25-4.4,40.25-25.15,50.25"/>--> <!--<path id="kvg:0691c-Kaisho-s12" kvg:type="㇏" d="M64,73c3.83,4.52,20.32,19.27,24.55,22.58c1.43,1.12,3.27,1.6,4.7,1.92"/>--> </g> </g> </g> </g> </g> <g id="kvg:StrokeNumbers_0691c-Kaisho" style="font-size:8;fill:#808080">             </g> </svg> 