<?xml version="1.0" encoding="UTF-8"?>  <!DOCTYPE svg PUBLIC "-//W3C//DTD SVG 1.0//EN" "http://www.w3.org/TR/2001/REC-SVG-20010904/DTD/svg10.dtd"  <!ATTLIST g xmlns:kvg CDATA #FIXED "http://kanjivg.tagaini.net" kvg:element CDATA #IMPLIED kvg:variant CDATA #IMPLIED kvg:partial CDATA #IMPLIED kvg:original CDATA #IMPLIED kvg:part CDATA #IMPLIED kvg:number CDATA #IMPLIED kvg:tradForm CDATA #IMPLIED kvg:radicalForm CDATA #IMPLIED kvg:position CDATA #IMPLIED kvg:radical CDATA #IMPLIED kvg:phon CDATA #IMPLIED > <!ATTLIST path xmlns:kvg CDATA #FIXED "http://kanjivg.tagaini.net" kvg:type CDATA #IMPLIED >  <svg xmlns="http://www.w3.org/2000/svg" width="109" height="109" viewBox="0 0 109 109"> <g id="kvg:StrokePaths_0697c-Kaisho" style="fill:none;stroke:#000000;stroke-width:3;stroke-linecap:round;stroke-linejoin:round;"> <g id="kvg:0697c-Kaisho" kvg:element="楼"> <g id="kvg:0697c-Kaisho-g1" kvg:element="木" kvg:position="left" kvg:radical="general"> <!--<path id="kvg:0697c-Kaisho-s1" kvg:type="㇐" d="M12.03,40.47c0.35,0.24,2.39,0.41,3.31,0.31c3.94-0.41,16.12-1.21,22.45-2.41c0.92-0.17,2.15-0.24,2.73,0"/>--> <!--<path id="kvg:0697c-Kaisho-s2" kvg:type="㇑" d="M26.61,15.25c0.91,0.47,2.54,2.25,2.54,4.92c0,0.95-0.3,70.23-0.3,71.08c0,10.75-4.22,3.62-6.1,1.75"/>--> <!--<path id="kvg:0697c-Kaisho-s3" kvg:type="㇒" d="M28.69,42.03c-5.1,15.04-7.94,20.4-15.83,33.56"/>--> <!--<path id="kvg:0697c-Kaisho-s4" kvg:type="㇔/㇏" d="M31.22,45.65c2.73,1.32,7.22,4.79,9.53,7.35"/>--> </g> <g id="kvg:0697c-Kaisho-g2" kvg:position="right"> <g id="kvg:0697c-Kaisho-g3" kvg:element="米" kvg:position="top"> <!--<path id="kvg:0697c-Kaisho-s5" kvg:type="㇔" d="M48.47,21.22c2.52,1.83,6.32,6.99,6.96,9.84"/>--> <!--<path id="kvg:0697c-Kaisho-s6" kvg:type="㇒" d="M83.21,16.95c0.02,0.27,0.04,0.69-0.04,1.07c-0.48,2.26-3.24,7.23-7.02,10.27"/>--> <!--<path id="kvg:0697c-Kaisho-s7" kvg:type="㇐" d="M44.92,35.81c0.51,0.17,1.88,0.45,3.25,0.51c3.76,0.17,34.05-4.45,40.04-4.11c1.37,0.08,1.71-0.17,2.57,0"/>--> <!--<path id="kvg:0697c-Kaisho-s8" kvg:type="㇑" d="M64.97,13.25c0.79,0.32,1.26,1.42,1.42,2.05s0,33.49-0.16,37.45"/>--> <!--<path id="kvg:0697c-Kaisho-s9" kvg:type="㇒" d="M65.47,34.59c-4.1,7.63-14.07,18.35-23.3,22.75"/>--> <!--<path id="kvg:0697c-Kaisho-s10" kvg:type="㇏" d="M66.97,35.04c3.54,2.35,19.05,13.47,22.89,15.78c1.3,0.78,2.42,1.12,3.72,1.34"/>--> </g> <g id="kvg:0697c-Kaisho-g4" kvg:element="女" kvg:position="bottom"> <!--<path id="kvg:0697c-Kaisho-s11" kvg:type="㇛" d="M64.29,56.37c0.36,1.09,0.32,2.52-0.18,3.81c-2.36,6.07-6.31,12.86-10.85,20.48c-0.99,1.66-0.2,1.98,0.54,2c10.52,0.18,27.44,5.6,34.7,14.37"/>--> <!--<path id="kvg:0697c-Kaisho-s12" kvg:type="㇒" d="M80.38,63.82c0.1,0.8,0.18,2.73-0.21,3.89c-3.12,9.34-12.11,22.59-34.39,29.54"/>--> <!--<path id="kvg:0697c-Kaisho-s13" kvg:type="㇐" d="M38.76,68.45c1.54,0.41,3.18,0.69,3.92,0.63c15.58-1.31,35.71-3.67,50.59-3.85c1.23-0.01,3.35,0.25,4.35,0.73"/>--> </g> </g> </g> </g> <g id="kvg:StrokeNumbers_0697c-Kaisho" style="font-size:8;fill:#808080">              </g> </svg> 