<?xml version="1.0" encoding="UTF-8"?>  <!DOCTYPE svg PUBLIC "-//W3C//DTD SVG 1.0//EN" "http://www.w3.org/TR/2001/REC-SVG-20010904/DTD/svg10.dtd"  <!ATTLIST g xmlns:kvg CDATA #FIXED "http://kanjivg.tagaini.net" kvg:element CDATA #IMPLIED kvg:variant CDATA #IMPLIED kvg:partial CDATA #IMPLIED kvg:original CDATA #IMPLIED kvg:part CDATA #IMPLIED kvg:number CDATA #IMPLIED kvg:tradForm CDATA #IMPLIED kvg:radicalForm CDATA #IMPLIED kvg:position CDATA #IMPLIED kvg:radical CDATA #IMPLIED kvg:phon CDATA #IMPLIED > <!ATTLIST path xmlns:kvg CDATA #FIXED "http://kanjivg.tagaini.net" kvg:type CDATA #IMPLIED >  <svg xmlns="http://www.w3.org/2000/svg" width="109" height="109" viewBox="0 0 109 109"> <g id="kvg:StrokePaths_0699c-Kaisho" style="fill:none;stroke:#000000;stroke-width:3;stroke-linecap:round;stroke-linejoin:round;"> <g id="kvg:0699c-Kaisho" kvg:element="榜"> <g id="kvg:0699c-Kaisho-g1" kvg:element="木" kvg:position="left" kvg:radical="general"> <!--<path id="kvg:0699c-Kaisho-s1" kvg:type="㇐" d="M11.78,35.72c0.35,0.24,2.39,0.41,3.31,0.31c3.94-0.41,17.12-1.21,23.45-2.41c0.92-0.17,2.15-0.24,2.73,0"/>--> <!--<path id="kvg:0699c-Kaisho-s2" kvg:type="㇑" d="M27.86,11.5c0.91,0.47,2.04,2.25,2.04,4.42c0,0.95-0.3,70.75-0.3,76.58c0,10.5-5.35,3.25-7.1,1.5"/>--> <!--<path id="kvg:0699c-Kaisho-s3" kvg:type="㇒" d="M29.44,37.78c-5.9,15.58-9.19,22.17-18.33,35.81"/>--> <!--<path id="kvg:0699c-Kaisho-s4" kvg:type="㇔/㇏" d="M30.97,46.9c3.78,3.35,6.03,6.85,8.28,10.85"/>--> </g> <g id="kvg:0699c-Kaisho-g2" kvg:element="旁" kvg:position="right"> <g id="kvg:0699c-Kaisho-g3" kvg:position="top"> <g id="kvg:0699c-Kaisho-g4" kvg:element="立" kvg:partial="true"> <g id="kvg:0699c-Kaisho-g5" kvg:element="亠" kvg:position="top"> <!--<path id="kvg:0699c-Kaisho-s5" kvg:type="㇑a" d="M65.02,11.25c1.39,1.49,4.23,4.25,4.47,6.58"/>--> <!--<path id="kvg:0699c-Kaisho-s6" kvg:type="㇐" d="M46.23,26.22c1.52,0.36,3.3,0.42,4.82,0.36c8.58-0.31,22.34-3.37,35.31-3.64c2.54-0.05,4.06,0.17,5.32,0.36"/>--> </g> <g id="kvg:0699c-Kaisho-g6" kvg:position="bottom"> <!--<path id="kvg:0699c-Kaisho-s7" kvg:type="㇔" d="M55.52,30.33c2.17,2.83,3.56,6.24,3.75,8.11"/>--> <!--<path id="kvg:0699c-Kaisho-s8" kvg:type="㇒" d="M80.33,26.09c0.2,1.11,0.36,2.02,0.21,2.32c-1.51,3-4.09,8.69-5.17,10.52"/>--> </g> </g> <g id="kvg:0699c-Kaisho-g7" kvg:element="冖"> <!--<path id="kvg:0699c-Kaisho-s9" kvg:type="㇔" d="M47.27,40.48c-0.1,2.7-2.44,9.77-3.27,11.38"/>--> <!--<path id="kvg:0699c-Kaisho-s10" kvg:type="㇖b" d="M47.11,43.29c7.25-0.89,30-4.61,44.12-4.98c8.63-0.23,2.22,4.35-1,7.85"/>--> </g> </g> <g id="kvg:0699c-Kaisho-g8" kvg:element="方" kvg:position="bottom"> <g id="kvg:0699c-Kaisho-g9" kvg:element="亠" kvg:position="top"> <!--<path id="kvg:0699c-Kaisho-s11" kvg:type="㇑a" d="M64.61,45.12c2.14,0.96,4.64,3.63,5.65,6.57"/>--> <!--<path id="kvg:0699c-Kaisho-s12" kvg:type="㇐" d="M45.55,57.91c1.12,0.08,3.68,0.56,4.78,0.44c8.82-0.93,28.28-3.03,40.26-3.68c1.85-0.1,2.79,0.04,4.17,0.57"/>--> </g> <g id="kvg:0699c-Kaisho-g10" kvg:position="bottom"> <!--<path id="kvg:0699c-Kaisho-s13" kvg:type="㇆a" d="M65.57,65.5c3.32,1.45,14.28,3.45,17.76,4.12c1.57,0.3,2.51,1.26,1.92,2.9c-2.51,6.98-5.82,16.14-9.95,22.24c-3.55,5.24-6.05,1.24-7.69-2.71"/>--> <!--<path id="kvg:0699c-Kaisho-s14" kvg:type="㇒" d="M64.51,60.2c0.32,1,0.07,2.07-0.12,3.23C63,71.75,55.5,86.5,42.34,94.03"/>--> </g> </g> </g> </g> </g> <g id="kvg:StrokeNumbers_0699c-Kaisho" style="font-size:8;fill:#808080">               </g> </svg> 