<?xml version="1.0" encoding="UTF-8"?>  <!DOCTYPE svg PUBLIC "-//W3C//DTD SVG 1.0//EN" "http://www.w3.org/TR/2001/REC-SVG-20010904/DTD/svg10.dtd"  <!ATTLIST g xmlns:kvg CDATA #FIXED "http://kanjivg.tagaini.net" kvg:element CDATA #IMPLIED kvg:variant CDATA #IMPLIED kvg:partial CDATA #IMPLIED kvg:original CDATA #IMPLIED kvg:part CDATA #IMPLIED kvg:number CDATA #IMPLIED kvg:tradForm CDATA #IMPLIED kvg:radicalForm CDATA #IMPLIED kvg:position CDATA #IMPLIED kvg:radical CDATA #IMPLIED kvg:phon CDATA #IMPLIED > <!ATTLIST path xmlns:kvg CDATA #FIXED "http://kanjivg.tagaini.net" kvg:type CDATA #IMPLIED >  <svg xmlns="http://www.w3.org/2000/svg" width="109" height="109" viewBox="0 0 109 109"> <g id="kvg:StrokePaths_069d9-Kaisho" style="fill:none;stroke:#000000;stroke-width:3;stroke-linecap:round;stroke-linejoin:round;"> <g id="kvg:069d9-Kaisho" kvg:element="槙"> <g id="kvg:069d9-Kaisho-g1" kvg:element="木" kvg:position="left" kvg:radical="general"> <!--<path id="kvg:069d9-Kaisho-s1" kvg:type="㇐" d="M13.03,36.47c0.35,0.24,2.39,0.41,3.31,0.31c3.94-0.41,17.12-2.21,23.45-3.41c0.92-0.17,2.15-0.24,2.73,0"/>--> <!--<path id="kvg:069d9-Kaisho-s2" kvg:type="㇑" d="M28.61,12.75c0.91,0.47,2.04,2.75,2.04,4.92c0,0.95-0.3,72.73-0.3,73.58c0,12-4.97,3.12-6.6,1.5"/>--> <!--<path id="kvg:069d9-Kaisho-s3" kvg:type="㇒" d="M29.69,39.03c-5.98,13.95-9.31,19.85-18.58,32.06"/>--> <!--<path id="kvg:069d9-Kaisho-s4" kvg:type="㇔/㇏" d="M32.22,44.15c2.73,1.43,7.22,6.08,9.53,8.85"/>--> </g> <g id="kvg:069d9-Kaisho-g2" kvg:element="真" kvg:position="right"> <g id="kvg:069d9-Kaisho-g3" kvg:element="十" kvg:position="top"> <!--<path id="kvg:069d9-Kaisho-s5" kvg:type="㇐" d="M46.32,23.58c0.99,0.37,2.8,0.42,3.8,0.37c12.27-0.68,33.94-3.59,42.63-3.73c1.65-0.03,2.64,0.18,3.47,0.36"/>--> <!--<path id="kvg:069d9-Kaisho-s6" kvg:type="㇑" d="M68.86,11.5c0.37,0.29,1.26,2.17,1.24,2.75C69.9,18.55,70,26.5,69.84,34.8"/>--> </g> <g id="kvg:069d9-Kaisho-g4" kvg:element="具" kvg:position="bottom"> <g id="kvg:069d9-Kaisho-g5" kvg:element="目" kvg:position="top"> <!--<path id="kvg:069d9-Kaisho-s7" kvg:type="㇑" d="M55.09,35.12c0.4,0.58,1.18,2.35,1.26,3.37c0.34,4.54,0.49,30.55,0.49,31.07"/>--> <!--<path id="kvg:069d9-Kaisho-s8" kvg:type="㇕a" d="M57.2,36.93c2.91-0.13,24.17-2.65,26.81-2.8c2.21-0.13,3.75,0.66,3.76,3.42c0,4.48,0.48,18.11-0.16,30.22"/>--> <!--<path id="kvg:069d9-Kaisho-s9" kvg:type="㇐a" d="M56.56,46.86c5.65-0.39,11.29-0.92,16.93-1.42c1.4-0.13,2.77-0.25,4.09-0.36"/>--> <!--<path id="kvg:069d9-Kaisho-s10" kvg:type="㇐a" d="M57.01,56.79c4.78-0.27,11.55-0.68,16.32-1.04c1.34-0.1,2.69-0.2,4.04-0.29"/>--> <!--<path id="kvg:069d9-Kaisho-s11" kvg:type="㇐a" d="M57.53,67.07c11.45-1.06,20.28-1.43,29.75-1.96"/>--> </g> <g id="kvg:069d9-Kaisho-g6" kvg:position="bottom"> <!--<path id="kvg:069d9-Kaisho-s12" kvg:type="㇐" d="M43.34,77.77c1.12,0.37,3.17,0.46,4.28,0.37c6.94-0.51,35.47-2.92,48.12-2.91c1.86,0,2.98,0.18,3.91,0.37"/>--> <g id="kvg:069d9-Kaisho-g7" kvg:element="八"> <!--<path id="kvg:069d9-Kaisho-s13" kvg:type="㇒" d="M61.29,82.97c0.04,0.32,0.1,0.82-0.09,1.28c-1.11,2.69-7.5,8.6-16.25,12.22"/>--> <!--<path id="kvg:069d9-Kaisho-s14" kvg:type="㇏" d="M82.21,82.86c4.36,2.11,11.27,8.67,12.36,11.95"/>--> </g> </g> </g> </g> </g> </g> <g id="kvg:StrokeNumbers_069d9-Kaisho" style="font-size:8;fill:#808080">               </g> </svg> 