<?xml version="1.0" encoding="UTF-8"?>  <!DOCTYPE svg PUBLIC "-//W3C//DTD SVG 1.0//EN" "http://www.w3.org/TR/2001/REC-SVG-20010904/DTD/svg10.dtd"  <!ATTLIST g xmlns:kvg CDATA #FIXED "http://kanjivg.tagaini.net" kvg:element CDATA #IMPLIED kvg:variant CDATA #IMPLIED kvg:partial CDATA #IMPLIED kvg:original CDATA #IMPLIED kvg:part CDATA #IMPLIED kvg:number CDATA #IMPLIED kvg:tradForm CDATA #IMPLIED kvg:radicalForm CDATA #IMPLIED kvg:position CDATA #IMPLIED kvg:radical CDATA #IMPLIED kvg:phon CDATA #IMPLIED > <!ATTLIST path xmlns:kvg CDATA #FIXED "http://kanjivg.tagaini.net" kvg:type CDATA #IMPLIED >  <svg xmlns="http://www.w3.org/2000/svg" width="109" height="109" viewBox="0 0 109 109"> <g id="kvg:StrokePaths_069d8-Kaisho" style="fill:none;stroke:#000000;stroke-width:3;stroke-linecap:round;stroke-linejoin:round;"> <g id="kvg:069d8-Kaisho" kvg:element="様"> <g id="kvg:069d8-Kaisho-g1" kvg:element="木" kvg:position="left" kvg:radical="general"> <!--<path id="kvg:069d8-Kaisho-s1" kvg:type="㇐" d="M11.28,40.72c0.35,0.24,2.39,0.41,3.31,0.31c3.94-0.41,19.12-3.21,25.45-4.41c0.92-0.17,2.15-0.24,2.73,0"/>--> <!--<path id="kvg:069d8-Kaisho-s2" kvg:type="㇑" d="M27.36,16.5c0.91,0.47,2.86,3.49,3.04,4.42c0.18,0.93-0.3,70.73-0.3,71.58c0,13-4.85,4.75-6.6,3"/>--> <!--<path id="kvg:069d8-Kaisho-s3" kvg:type="㇒" d="M29.94,41.28c-5.1,15.04-8.94,22.4-16.83,35.56"/>--> <!--<path id="kvg:069d8-Kaisho-s4" kvg:type="㇔/㇏" d="M32.47,47.9c2.37,1.59,6.28,5.76,8.28,8.85"/>--> </g> <g id="kvg:069d8-Kaisho-g2" kvg:position="right"> <g id="kvg:069d8-Kaisho-g3" kvg:element="羊"> <!--<path id="kvg:069d8-Kaisho-s5" kvg:type="㇔" d="M54.02,13.83c3.1,1.66,8.02,6.81,8.79,9.38"/>--> <!--<path id="kvg:069d8-Kaisho-s6" kvg:type="㇒" d="M84.53,11.64c0.03,0.31,0.06,0.81-0.06,1.26c-0.68,2.66-4.58,8.49-9.91,12.06"/>--> <!--<path id="kvg:069d8-Kaisho-s7" kvg:type="㇐" d="M49.5,30.14c0.94,0.38,2.66,0.49,3.6,0.38c5.98-0.66,27.4-3.02,33.61-3.38c1.56-0.09,2.5,0.18,3.29,0.37"/>--> <!--<path id="kvg:069d8-Kaisho-s8" kvg:type="㇐" d="M52.25,42.31c0.83,0.29,2.37,0.36,3.2,0.29c5.32-0.5,24.35-2.77,29.88-3.04c1.39-0.07,2.23,0.14,2.92,0.28"/>--> <!--<path id="kvg:069d8-Kaisho-s9" kvg:type="㇐" d="M47.5,54.64c0.94,0.38,2.66,0.49,3.6,0.38c5.98-0.66,34.9-3.52,41.11-3.88c1.56-0.09,2.5,0.18,3.29,0.37"/>--> <!--<path id="kvg:069d8-Kaisho-s10" kvg:type="㇑" d="M68.27,31.08c0.98,0.92,1.67,2.49,1.76,5.52c0.4,14.55-0.26,49.66-0.26,54.62c0,5.03-1.52,6.03-3.96,4c-1.89-1.58-3.25-2.5-4.75-3.75"/>--> </g> <g id="kvg:069d8-Kaisho-g4" kvg:element="氺" kvg:variant="true" kvg:original="水" kvg:partial="true"> <!--<path id="kvg:069d8-Kaisho-s11" kvg:type="㇔" d="M49.27,62.33c2.66,1.13,6.88,4.63,7.54,6.38"/>--> <!--<path id="kvg:069d8-Kaisho-s12" kvg:type="㇀" d="M43.75,87c1.5,1.75,2.75,2.5,4.25,1c0.88-0.88,8.75-9,11.75-13"/>--> <!--<path id="kvg:069d8-Kaisho-s13" kvg:type="㇒" d="M90.28,58.64c0.02,0.21,0.05,0.54-0.05,0.83c-0.56,1.76-3.78,5.62-8.17,7.99"/>--> <!--<path id="kvg:069d8-Kaisho-s14" kvg:type="㇔/㇏" d="M79.25,75.25C84.5,78.5,92,87,94.63,90.61"/>--> </g> </g> </g> </g> <g id="kvg:StrokeNumbers_069d8-Kaisho" style="font-size:8;fill:#808080">               </g> </svg> 