<?xml version="1.0" encoding="UTF-8"?>  <!DOCTYPE svg PUBLIC "-//W3C//DTD SVG 1.0//EN" "http://www.w3.org/TR/2001/REC-SVG-20010904/DTD/svg10.dtd"  <!ATTLIST g xmlns:kvg CDATA #FIXED "http://kanjivg.tagaini.net" kvg:element CDATA #IMPLIED kvg:variant CDATA #IMPLIED kvg:partial CDATA #IMPLIED kvg:original CDATA #IMPLIED kvg:part CDATA #IMPLIED kvg:number CDATA #IMPLIED kvg:tradForm CDATA #IMPLIED kvg:radicalForm CDATA #IMPLIED kvg:position CDATA #IMPLIED kvg:radical CDATA #IMPLIED kvg:phon CDATA #IMPLIED > <!ATTLIST path xmlns:kvg CDATA #FIXED "http://kanjivg.tagaini.net" kvg:type CDATA #IMPLIED >  <svg xmlns="http://www.w3.org/2000/svg" width="109" height="109" viewBox="0 0 109 109"> <g id="kvg:StrokePaths_069fd-KaishoVtLst" style="fill:none;stroke:#000000;stroke-width:3;stroke-linecap:round;stroke-linejoin:round;"> <g id="kvg:069fd-KaishoVtLst" kvg:element="槽"> <g id="kvg:069fd-KaishoVtLst-g1" kvg:element="木" kvg:position="left" kvg:radical="general"> <!--<path id="kvg:069fd-KaishoVtLst-s1" kvg:type="㇐" d="M11.28,38.72c0.35,0.24,2.39,0.41,3.31,0.31c3.94-0.41,17.12-2.21,23.45-3.41c0.92-0.17,2.15-0.24,2.73,0"/>--> <!--<path id="kvg:069fd-KaishoVtLst-s2" kvg:type="㇑" d="M29.86,16c1.14,1.25,1.54,2.25,1.54,3.92c0,9.33-0.3,69.73-0.3,70.58c0,10.5-5.35,3-6.35,2"/>--> <!--<path id="kvg:069fd-KaishoVtLst-s3" kvg:type="㇒" d="M29.94,38.28c-5.1,15.04-7.94,21.4-15.83,34.56"/>--> <!--<path id="kvg:069fd-KaishoVtLst-s4" kvg:type="㇔/㇏" d="M33.47,46.9c2.37,1.59,5.28,6.76,7.28,9.85"/>--> </g> <g id="kvg:069fd-KaishoVtLst-g2" kvg:element="曹" kvg:position="right"> <g id="kvg:069fd-KaishoVtLst-g3" kvg:position="top"> <!--<path id="kvg:069fd-KaishoVtLst-s5" kvg:type="㇐" d="M42.33,25.52c0.99,0.46,2.8,0.56,3.8,0.46c10.11-0.98,35.39-4.09,45.81-3.45c1.65,0.1,2.65,0.22,3.47,0.45"/>--> <g id="kvg:069fd-KaishoVtLst-g4" kvg:element="曲"> <g id="kvg:069fd-KaishoVtLst-g5" kvg:element="日" kvg:part="1"> <!--<path id="kvg:069fd-KaishoVtLst-s6" kvg:type="㇑" d="M47.01,34.89c0.31,0.59,0.91,1.85,1,2.63c0.29,2.57,3.27,20.94,3.37,21.73"/>--> <!--<path id="kvg:069fd-KaishoVtLst-s7" kvg:type="㇕" d="M48.9,35.99c2.88-0.37,37.98-4.33,40.52-4.2c1.34,0.07,3.07,1.85,2.97,3.84c-0.23,5.04-3.83,19.68-4.43,20.81"/>--> </g> <g id="kvg:069fd-KaishoVtLst-g6" kvg:element="廾" kvg:variant="true"> <g id="kvg:069fd-KaishoVtLst-g7" kvg:element="丿" kvg:variant="true"> <g id="kvg:069fd-KaishoVtLst-g8" kvg:element="十" kvg:part="1"> <!--<path id="kvg:069fd-KaishoVtLst-s8" kvg:type="㇑" d="M50.09,46.54c9.13-0.84,18.23-1.92,27.35-2.84c1.05-0.11,4.07-0.21,5.04-0.31"/>--> </g> </g> <!--<path id="kvg:069fd-KaishoVtLst-s9" kvg:type="㇑" d="M52.6,57.29c4.87-0.38,28.41-2.42,34.48-2.75"/>--> <g id="kvg:069fd-KaishoVtLst-g9" kvg:element="日" kvg:part="2"> <g id="kvg:069fd-KaishoVtLst-g10" kvg:element="十" kvg:part="2"> <!--<path id="kvg:069fd-KaishoVtLst-s10" kvg:type="㇐" d="M59.29,14.15c0.63,0.38,1.09,1.68,1.13,2.45c0.98,16.99,2.3,32.47,2.73,39.43"/>--> </g> </g> <!--<path id="kvg:069fd-KaishoVtLst-s11" kvg:type="㇐" d="M75.84,11.25c0.63,0.38,1.17,1.68,1.13,2.44c-1.2,22.76-1.33,25.6-2.19,41.4"/>--> </g> </g> </g> <g id="kvg:069fd-KaishoVtLst-g11" kvg:element="日" kvg:position="bottom"> <!--<path id="kvg:069fd-KaishoVtLst-s12" kvg:type="㇑" d="M54.27,66.44c0.39,0.73,0.78,1.1,0.78,2.07s-0.26,28.06-0.26,28.54"/>--> <!--<path id="kvg:069fd-KaishoVtLst-s13" kvg:type="㇕a" d="M55.69,66.58c2.2-0.08,24.41-2.51,26.42-2.62c1.67-0.09,2.74,1.38,2.61,2.1c-0.26,1.44-1.02,28.85-1.02,29.58"/>--> <!--<path id="kvg:069fd-KaishoVtLst-s14" kvg:type="㇐a" d="M56.08,80.17c4.46,0.08,9.04-0.66,13.47-1.06c1.5-0.14,3.01-0.27,4.45-0.4"/>--> <!--<path id="kvg:069fd-KaishoVtLst-s15" kvg:type="㇐a" d="M55.94,94.3c6.06-0.42,19.81-1.56,27.35-1.88"/>--> </g> </g> </g> </g> <g id="kvg:StrokeNumbers_069fd-KaishoVtLst" style="font-size:8;fill:#808080">                </g> </svg> 