<?xml version="1.0" encoding="UTF-8"?>  <!DOCTYPE svg PUBLIC "-//W3C//DTD SVG 1.0//EN" "http://www.w3.org/TR/2001/REC-SVG-20010904/DTD/svg10.dtd"  <!ATTLIST g xmlns:kvg CDATA #FIXED "http://kanjivg.tagaini.net" kvg:element CDATA #IMPLIED kvg:variant CDATA #IMPLIED kvg:partial CDATA #IMPLIED kvg:original CDATA #IMPLIED kvg:part CDATA #IMPLIED kvg:number CDATA #IMPLIED kvg:tradForm CDATA #IMPLIED kvg:radicalForm CDATA #IMPLIED kvg:position CDATA #IMPLIED kvg:radical CDATA #IMPLIED kvg:phon CDATA #IMPLIED > <!ATTLIST path xmlns:kvg CDATA #FIXED "http://kanjivg.tagaini.net" kvg:type CDATA #IMPLIED >  <svg xmlns="http://www.w3.org/2000/svg" width="109" height="109" viewBox="0 0 109 109"> <g id="kvg:StrokePaths_06a3d-Hyougai" style="fill:none;stroke:#000000;stroke-width:3;stroke-linecap:round;stroke-linejoin:round;"> <g id="kvg:06a3d-Hyougai" kvg:element="樽"> <g id="kvg:06a3d-Hyougai-g1" kvg:element="木" kvg:position="left" kvg:radical="general"> <!--<path id="kvg:06a3d-Hyougai-s1" kvg:type="㇐" d="M14.28,40.72c0.35,0.24,2.39,0.41,3.31,0.31c3.94-0.41,17.62-2.21,23.95-3.41c0.92-0.17,1.15-0.24,1.73,0"/>--> <!--<path id="kvg:06a3d-Hyougai-s2" kvg:type="㇑" d="M29.86,14.5c0.91,0.47,2.54,3.25,2.54,5.42c0,0.95-0.12,70.75-0.3,76.58"/>--> <!--<path id="kvg:06a3d-Hyougai-s3" kvg:type="㇒" d="M31.94,42.28c-5.9,14.39-9.19,20.47-18.33,33.06"/>--> <!--<path id="kvg:06a3d-Hyougai-s4" kvg:type="㇔/㇏" d="M35.47,48.9c2.61,1.28,6.21,5.66,8.41,8.14"/>--> </g> <g id="kvg:06a3d-Hyougai-g2" kvg:element="尊" kvg:position="right"> <g id="kvg:06a3d-Hyougai-g3" kvg:element="酋" kvg:position="top"> <g id="kvg:06a3d-Hyougai-g4" kvg:element="八" kvg:variant="true" kvg:position="top"> <g id="kvg:06a3d-Hyougai-g5" kvg:position="left"> <!--<path id="kvg:06a3d-Hyougai-s5" kvg:type="㇔" d="M54.73,14.82c2.33,1.59,6.03,6.54,6.61,9.02"/>--> </g> <g id="kvg:06a3d-Hyougai-g6" kvg:position="right"> <!--<path id="kvg:06a3d-Hyougai-s6" kvg:type="㇒" d="M80.16,12.65c0.02,0.25,0.04,0.66-0.04,1.02c-0.42,2.15-2.86,6.87-6.2,9.76"/>--> </g> </g> <g id="kvg:06a3d-Hyougai-g7" kvg:element="酉" kvg:position="bottom"> <g id="kvg:06a3d-Hyougai-g8" kvg:element="西" kvg:part="1" kvg:original="襾"> <!--<path id="kvg:06a3d-Hyougai-s7" kvg:type="㇐" d="M46.43,27.92c0.87,0.45,2.46,0.55,3.34,0.45c7.73-0.9,33.11-4.56,41.39-4.56c1.45,0,2.32,0.21,3.05,0.44"/>--> <!--<path id="kvg:06a3d-Hyougai-s8" kvg:type="㇑" d="M53.59,35.91c0.46,0.66,0.63,2.25,0.63,3.13s0.03,23.58,0.03,23.84"/>--> <!--<path id="kvg:06a3d-Hyougai-s9" kvg:type="㇕a" d="M55.94,37.27c2.58-0.11,27.36-3.56,29.55-3.63c1.83-0.06,2.78,1.09,2.78,2.54c0,0.81-0.73,18.86-0.73,24.49"/>--> <!--<path id="kvg:06a3d-Hyougai-s10" kvg:type="㇒" d="M64.92,27.25c0.28,0.71,0.63,1.32,0.64,2.08c0.08,7.48-0.44,13.69-6.76,16.99"/>--> <!--<path id="kvg:06a3d-Hyougai-s11" kvg:type="㇟a" d="M73.08,26.83c0.46,0.64,0.83,1.4,0.86,2.39c0.09,3.15-0.2,7.4-0.25,11.29c-0.04,3.38,1.3,3.8,5.71,3.8c2.8,0,5.58-0.42,5.89-0.8"/>--> </g> <g id="kvg:06a3d-Hyougai-g9" kvg:element="一"> <!--<path id="kvg:06a3d-Hyougai-s12" kvg:type="㇐a" d="M54.66,52.14c3.26,0,29.4-2.05,33.08-2.05"/>--> </g> <g id="kvg:06a3d-Hyougai-g10" kvg:element="西" kvg:part="2" kvg:original="襾"> <!--<path id="kvg:06a3d-Hyougai-s13" kvg:type="㇐a" d="M55.19,60.5c6.63-0.28,23.96-1.69,32.22-1.92"/>--> </g> </g> </g> <g id="kvg:06a3d-Hyougai-g11" kvg:element="寸" kvg:position="bottom"> <!--<path id="kvg:06a3d-Hyougai-s14" kvg:type="㇐" d="M43.88,72.54c1.5,0.97,4.22,1.09,5.74,0.97c18.71-1.49,24.51-2.31,42.78-3.8c2.49-0.2,3.99,0.46,5.24,0.95"/>--> <!--<path id="kvg:06a3d-Hyougai-s15" kvg:type="㇚" d="M80.38,63.03c0.05,0.36,0.74,1.9,0.74,4.21c0,8.06,0.22,20.3,0.22,24.08c0,9.19-5.43,1.36-6.73,0.19"/>--> <!--<path id="kvg:06a3d-Hyougai-s16" kvg:type="㇔" d="M57.36,77.81c2.33,1.46,6.01,6,6.59,8.27"/>--> </g> </g> </g> </g> <g id="kvg:StrokeNumbers_06a3d-Hyougai" style="font-size:8;fill:#808080">                 </g> </svg> 