<?xml version="1.0" encoding="UTF-8"?>  <!DOCTYPE svg PUBLIC "-//W3C//DTD SVG 1.0//EN" "http://www.w3.org/TR/2001/REC-SVG-20010904/DTD/svg10.dtd"  <!ATTLIST g xmlns:kvg CDATA #FIXED "http://kanjivg.tagaini.net" kvg:element CDATA #IMPLIED kvg:variant CDATA #IMPLIED kvg:partial CDATA #IMPLIED kvg:original CDATA #IMPLIED kvg:part CDATA #IMPLIED kvg:number CDATA #IMPLIED kvg:tradForm CDATA #IMPLIED kvg:radicalForm CDATA #IMPLIED kvg:position CDATA #IMPLIED kvg:radical CDATA #IMPLIED kvg:phon CDATA #IMPLIED > <!ATTLIST path xmlns:kvg CDATA #FIXED "http://kanjivg.tagaini.net" kvg:type CDATA #IMPLIED >  <svg xmlns="http://www.w3.org/2000/svg" width="109" height="109" viewBox="0 0 109 109"> <g id="kvg:StrokePaths_06a5f-Kaisho" style="fill:none;stroke:#000000;stroke-width:3;stroke-linecap:round;stroke-linejoin:round;"> <g id="kvg:06a5f-Kaisho" kvg:element="機"> <g id="kvg:06a5f-Kaisho-g1" kvg:element="木" kvg:position="left" kvg:radical="general"> <!--<path id="kvg:06a5f-Kaisho-s1" kvg:type="㇐" d="M10.28,39.72c0.35,0.24,2.39,0.41,3.31,0.31c3.94-0.41,15.12-2.21,21.45-3.41c0.92-0.17,2.15-0.24,2.73,0"/>--> <!--<path id="kvg:06a5f-Kaisho-s2" kvg:type="㇑" d="M25.36,14.5c0.91,0.47,2.04,2.25,2.04,4.42c0,0.95-0.3,70.73-0.3,71.58c0,12-5.1,3.5-6.6,2"/>--> <!--<path id="kvg:06a5f-Kaisho-s3" kvg:type="㇒" d="M26.94,40.28c-4.78,15.26-7.43,21.7-14.83,35.06"/>--> <!--<path id="kvg:06a5f-Kaisho-s4" kvg:type="㇔/㇏" d="M29.47,45.9c2.37,1.59,6.28,6.76,8.28,9.85"/>--> </g> <g id="kvg:06a5f-Kaisho-g2" kvg:element="幾" kvg:position="right"> <g id="kvg:06a5f-Kaisho-g3" kvg:element="幺"> <!--<path id="kvg:06a5f-Kaisho-s5" kvg:type="㇜" d="M50.09,15.25c0.22,1.11,0.42,2.05-0.11,3.14c-2.32,4.8-4.24,10.32-6.45,12.91c-0.45,0.53-0.44,2.56,0,2.77c1.27,0.61,4.33,1.41,6.85,3.99"/>--> <!--<path id="kvg:06a5f-Kaisho-s6" kvg:type="㇜" d="M54.01,28.56c0.2,0.5,0.27,2.15,0,2.68c-3.93,7.86-5.26,9.77-10.61,18.2c-1.1,1.74,0.31,2.58,1.11,2.25c3.38-1.4,8.97-3.53,13.32-4.87"/>--> <!--<path id="kvg:06a5f-Kaisho-s7" kvg:type="㇔" d="M55.47,43.52c1.46,1.33,3.76,5.46,4.12,7.52"/>--> </g> <g id="kvg:06a5f-Kaisho-g4" kvg:element="幺"> <!--<path id="kvg:06a5f-Kaisho-s8" kvg:type="㇜" d="M76.71,11.75c0.22,1.11,0.42,2.05-0.11,3.14c-2.32,4.8-4.07,9.82-6.28,12.41c-0.45,0.53-0.44,2.56,0,2.77c1.27,0.61,4.33,1.41,6.85,3.99"/>--> <!--<path id="kvg:06a5f-Kaisho-s9" kvg:type="㇜" d="M85.8,17.56c0.2,0.5,0.27,2.15,0,2.68c-3.93,7.86-7.71,14.03-13.11,21.2c-1.24,1.64,0.31,2.59,1.12,2.25c3.38-1.4,8.97-3.53,13.31-4.87"/>--> <!--<path id="kvg:06a5f-Kaisho-s10" kvg:type="㇔" d="M85.27,33.8c1.94,1.75,5.45,6.73,5.94,9.45"/>--> </g> <g id="kvg:06a5f-Kaisho-g5" kvg:element="戍" kvg:variant="true" kvg:original="戌"> <g id="kvg:06a5f-Kaisho-g6" kvg:element="戈" kvg:part="1"> <g id="kvg:06a5f-Kaisho-g7" kvg:element="弋" kvg:part="1"> <g id="kvg:06a5f-Kaisho-g8" kvg:element="厂" kvg:part="1"> <!--<path id="kvg:06a5f-Kaisho-s11" kvg:type="㇐" d="M38.79,64.23c1.18,0.54,3.37,0.8,4.54,0.54c4.79-1.05,38.42-7.02,50.03-8.23c1.96-0.2,3.16,0.26,4.14,0.53"/>--> </g> </g> </g> <g id="kvg:06a5f-Kaisho-g9" kvg:element="人" kvg:variant="true"> <g id="kvg:06a5f-Kaisho-g10" kvg:element="厂" kvg:part="2"> <!--<path id="kvg:06a5f-Kaisho-s12" kvg:type="㇒" d="M52.44,64.93c0.04,0.69,0.08,0.3-0.08,1.28c-1.53,9.83-4.73,20.38-13.05,28.54"/>--> </g> <g id="kvg:06a5f-Kaisho-g11" kvg:element="一" kvg:variant="true"> <!--<path id="kvg:06a5f-Kaisho-s13" kvg:type="㇔" d="M53.38,74.78c2.43,0.96,6.86,4.65,9.07,8.5"/>--> </g> </g> <g id="kvg:06a5f-Kaisho-g12" kvg:element="戈" kvg:part="2"> <g id="kvg:06a5f-Kaisho-g13" kvg:element="弋" kvg:part="2"> <!--<path id="kvg:06a5f-Kaisho-s14" kvg:type="㇂" d="M59.4,12c1.34,1.84,1.96,2.34,2.18,6.29C63.3,49.25,74.5,83.25,92.57,94.75c5.57,3.54,5.23,1.46,4.56-6.67"/>--> </g> <g id="kvg:06a5f-Kaisho-g14" kvg:element="丿"> <!--<path id="kvg:06a5f-Kaisho-s15" kvg:type="㇒" d="M85.86,63.18c0.08,0.71,0.16,1.83-0.15,2.86c-1.85,6.02-10.63,20.38-25.16,28.47"/>--> </g> <g id="kvg:06a5f-Kaisho-g15" kvg:element="弋" kvg:part="3"> <g id="kvg:06a5f-Kaisho-g16" kvg:element="丶"> <!--<path id="kvg:06a5f-Kaisho-s16" kvg:type="㇔" d="M78.91,48.03c1.72,0.9,4.46,2.96,5.26,4.5"/>--> </g> </g> </g> </g> </g> </g> </g> <g id="kvg:StrokeNumbers_06a5f-Kaisho" style="font-size:8;fill:#808080">                 </g> </svg> 