<?xml version="1.0" encoding="UTF-8"?>  <!DOCTYPE svg PUBLIC "-//W3C//DTD SVG 1.0//EN" "http://www.w3.org/TR/2001/REC-SVG-20010904/DTD/svg10.dtd"  <!ATTLIST g xmlns:kvg CDATA #FIXED "http://kanjivg.tagaini.net" kvg:element CDATA #IMPLIED kvg:variant CDATA #IMPLIED kvg:partial CDATA #IMPLIED kvg:original CDATA #IMPLIED kvg:part CDATA #IMPLIED kvg:number CDATA #IMPLIED kvg:tradForm CDATA #IMPLIED kvg:radicalForm CDATA #IMPLIED kvg:position CDATA #IMPLIED kvg:radical CDATA #IMPLIED kvg:phon CDATA #IMPLIED > <!ATTLIST path xmlns:kvg CDATA #FIXED "http://kanjivg.tagaini.net" kvg:type CDATA #IMPLIED >  <svg xmlns="http://www.w3.org/2000/svg" width="109" height="109" viewBox="0 0 109 109"> <g id="kvg:StrokePaths_06b63-HzFst" style="fill:none;stroke:#000000;stroke-width:3;stroke-linecap:round;stroke-linejoin:round;"> <g id="kvg:06b63-HzFst" kvg:element="正"> <g id="kvg:06b63-HzFst-g1" kvg:element="一" kvg:radical="nelson"> <!--<path id="kvg:06b63-HzFst-s1" kvg:type="㇐" d="M26.63,24.79c1.08,0.4,3.07,0.45,4.16,0.4c10.87-0.59,34.82-4.31,50.05-4.54c1.81-0.03,2.89,0.19,3.79,0.39"/>--> </g> <g id="kvg:06b63-HzFst-g2" kvg:element="止" kvg:radical="tradit"> <g id="kvg:06b63-HzFst-g3" kvg:element="卜" kvg:original="ト"> <!--<path id="kvg:06b63-HzFst-s2" kvg:type="㇐" d="M58.63,53.57c0.43,0.16,1.22,0.24,1.65,0.16c1.74-0.31,11.62-1.79,19.85-1.84c0.72,0,1.15,0.08,1.5,0.16"/>--> <!--<path id="kvg:06b63-HzFst-s3" kvg:type="㇑" d="M53.71,24.37c0.09,0.48,1.17,2.5,1.26,5.54c0.4,14.61-0.26,52.87-0.26,57.84"/>--> </g> <!--<path id="kvg:06b63-HzFst-s4" kvg:type="㇑" d="M28.29,56.87c0.09,0.25,1.25,1.32,1.33,2.92c0.43,7.7,0.23,27.85,0.23,30.47"/>--> <!--<path id="kvg:06b63-HzFst-s5" kvg:type="㇐" d="M15.75,90.5c1.5,0.5,4.74,1.23,6.16,1.11c5.84-0.48,37.94-3.3,65.59-3.36c2.41-0.01,4.5,0.75,5.75,1.5"/>--> </g> </g> </g> <g id="kvg:StrokeNumbers_06b63-HzFst" style="font-size:8;fill:#808080">      </g> </svg> 