<?xml version="1.0" encoding="UTF-8"?>  <!DOCTYPE svg PUBLIC "-//W3C//DTD SVG 1.0//EN" "http://www.w3.org/TR/2001/REC-SVG-20010904/DTD/svg10.dtd"  <!ATTLIST g xmlns:kvg CDATA #FIXED "http://kanjivg.tagaini.net" kvg:element CDATA #IMPLIED kvg:variant CDATA #IMPLIED kvg:partial CDATA #IMPLIED kvg:original CDATA #IMPLIED kvg:part CDATA #IMPLIED kvg:number CDATA #IMPLIED kvg:tradForm CDATA #IMPLIED kvg:radicalForm CDATA #IMPLIED kvg:position CDATA #IMPLIED kvg:radical CDATA #IMPLIED kvg:phon CDATA #IMPLIED > <!ATTLIST path xmlns:kvg CDATA #FIXED "http://kanjivg.tagaini.net" kvg:type CDATA #IMPLIED >  <svg xmlns="http://www.w3.org/2000/svg" width="109" height="109" viewBox="0 0 109 109"> <g id="kvg:StrokePaths_06bd4-Kaisho" style="fill:none;stroke:#000000;stroke-width:3;stroke-linecap:round;stroke-linejoin:round;"> <g id="kvg:06bd4-Kaisho" kvg:element="比" kvg:radical="general"> <g id="kvg:06bd4-Kaisho-g1" kvg:position="left"> <!--<path id="kvg:06bd4-Kaisho-s1" kvg:type="㇐b" d="M29.25,49.5c5.98-0.66,12-3,17.21-4.11c1.53-0.33,2.5-0.32,3.29-0.13"/>--> <!--<path id="kvg:06bd4-Kaisho-s2" kvg:type="㇙" d="M24,23.25c1.07,1.19,2.01,2.45,2.01,4.07c0,4.45-0.34,50.41-0.34,57.34c0,5.82-0.75,5.98,4.33,3.33c6.25-3.25,11.07-5.89,15.67-8"/>--> </g> <g id="kvg:06bd4-Kaisho-g2" kvg:element="匕" kvg:position="right"> <!--<path id="kvg:06bd4-Kaisho-s3" kvg:type="㇒" d="M61.25,50.25c7.88-0.66,15.8-3,22.67-4.11c2.02-0.33,3.3-0.32,4.33-0.13"/>--> <!--<path id="kvg:06bd4-Kaisho-s4" kvg:type="㇟" d="M59,16c1.25,1.25,2.33,3.25,2.33,4.83c0,4.17-0.86,48.33-0.86,53.23c0,22.86,9.33,19.69,17.78,19.69c6.55,0,13.2-0.65,15.67-4.17"/>--> </g> </g> </g> <g id="kvg:StrokeNumbers_06bd4-Kaisho" style="font-size:8;fill:#808080">     </g> </svg> 