<?xml version="1.0" encoding="UTF-8"?>  <!DOCTYPE svg PUBLIC "-//W3C//DTD SVG 1.0//EN" "http://www.w3.org/TR/2001/REC-SVG-20010904/DTD/svg10.dtd"  <!ATTLIST g xmlns:kvg CDATA #FIXED "http://kanjivg.tagaini.net" kvg:element CDATA #IMPLIED kvg:variant CDATA #IMPLIED kvg:partial CDATA #IMPLIED kvg:original CDATA #IMPLIED kvg:part CDATA #IMPLIED kvg:number CDATA #IMPLIED kvg:tradForm CDATA #IMPLIED kvg:radicalForm CDATA #IMPLIED kvg:position CDATA #IMPLIED kvg:radical CDATA #IMPLIED kvg:phon CDATA #IMPLIED > <!ATTLIST path xmlns:kvg CDATA #FIXED "http://kanjivg.tagaini.net" kvg:type CDATA #IMPLIED >  <svg xmlns="http://www.w3.org/2000/svg" width="109" height="109" viewBox="0 0 109 109"> <g id="kvg:StrokePaths_06cca-Kaisho" style="fill:none;stroke:#000000;stroke-width:3;stroke-linecap:round;stroke-linejoin:round;"> <g id="kvg:06cca-Kaisho" kvg:element="泊"> <g id="kvg:06cca-Kaisho-g1" kvg:element="氵" kvg:variant="true" kvg:original="水" kvg:position="left" kvg:radical="general"> <!--<path id="kvg:06cca-Kaisho-s1" kvg:type="㇔" d="M22.63,15c4.45,1.69,11.5,6.96,12.62,9.59"/>--> <!--<path id="kvg:06cca-Kaisho-s2" kvg:type="㇔" d="M17.25,39.5C21.93,41,29.33,45.67,30.5,48"/>--> <!--<path id="kvg:06cca-Kaisho-s3" kvg:type="㇀" d="M17.25,86.73c1.71,1.27,3.78,1.32,4.86-0.25c3.14-4.57,6.29-10.16,9.14-15.99"/>--> </g> <g id="kvg:06cca-Kaisho-g2" kvg:position="right"> <g id="kvg:06cca-Kaisho-g3" kvg:position="top"> <!--<path id="kvg:06cca-Kaisho-s4" kvg:type="㇔" d="M68.12,15c0.53,0.92,0.72,2.09,0.48,2.84c-1.73,5.57-7.12,16.03-12.92,22.37"/>--> </g> <g id="kvg:06cca-Kaisho-g4" kvg:element="日" kvg:position="bottom"> <!--<path id="kvg:06cca-Kaisho-s5" kvg:type="㇑" d="M46.69,41.91c0.68,1.28,1.37,3.42,1.37,5.13s0.22,36.21,0.22,46.46"/>--> <!--<path id="kvg:06cca-Kaisho-s6" kvg:type="㇕a" d="M48.47,44.43c3.85-0.21,33.95-3.46,37.45-3.83c2.23-0.23,3.13,1.4,3.13,4.1c-0.01,4.6-0.61,33.4-1.34,47.51"/>--> <!--<path id="kvg:06cca-Kaisho-s7" kvg:type="㇐a" d="M48.42,66.4c6.99-0.56,13.96-1.33,20.94-1.99c2.08-0.2,4.14-0.39,6.11-0.57"/>--> <!--<path id="kvg:06cca-Kaisho-s8" kvg:type="㇐a" d="M49.19,90.72c9.66-0.69,27.99-2.33,38.29-2.64"/>--> </g> </g> </g> </g> <g id="kvg:StrokeNumbers_06cca-Kaisho" style="font-size:8;fill:#808080">         </g> </svg> 