<?xml version="1.0" encoding="UTF-8"?>  <!DOCTYPE svg PUBLIC "-//W3C//DTD SVG 1.0//EN" "http://www.w3.org/TR/2001/REC-SVG-20010904/DTD/svg10.dtd"  <!ATTLIST g xmlns:kvg CDATA #FIXED "http://kanjivg.tagaini.net" kvg:element CDATA #IMPLIED kvg:variant CDATA #IMPLIED kvg:partial CDATA #IMPLIED kvg:original CDATA #IMPLIED kvg:part CDATA #IMPLIED kvg:number CDATA #IMPLIED kvg:tradForm CDATA #IMPLIED kvg:radicalForm CDATA #IMPLIED kvg:position CDATA #IMPLIED kvg:radical CDATA #IMPLIED kvg:phon CDATA #IMPLIED > <!ATTLIST path xmlns:kvg CDATA #FIXED "http://kanjivg.tagaini.net" kvg:type CDATA #IMPLIED >  <svg xmlns="http://www.w3.org/2000/svg" width="109" height="109" viewBox="0 0 109 109"> <g id="kvg:StrokePaths_06ce3-Kaisho" style="fill:none;stroke:#000000;stroke-width:3;stroke-linecap:round;stroke-linejoin:round;"> <g id="kvg:06ce3-Kaisho" kvg:element="泣"> <g id="kvg:06ce3-Kaisho-g1" kvg:element="氵" kvg:variant="true" kvg:original="水" kvg:position="left" kvg:radical="general"> <!--<path id="kvg:06ce3-Kaisho-s1" kvg:type="㇔" d="M23.63,18.75c3.4,1.21,8.77,4.96,9.62,6.84"/>--> <!--<path id="kvg:06ce3-Kaisho-s2" kvg:type="㇔" d="M16.25,43.5c3.79,1.15,9.8,4.72,10.75,6.5"/>--> <!--<path id="kvg:06ce3-Kaisho-s3" kvg:type="㇀" d="M16.75,87.21c1.5,1.31,3.31,1.36,4.25-0.25c2.75-4.7,5.5-10.45,8-16.45"/>--> </g> <g id="kvg:06ce3-Kaisho-g2" kvg:element="立" kvg:position="right"> <g id="kvg:06ce3-Kaisho-g3" kvg:element="亠" kvg:position="top"> <!--<path id="kvg:06ce3-Kaisho-s4" kvg:type="㇑a" d="M55.82,17c6.05,3.59,10.43,8.75,14.12,16.75"/>--> <!--<path id="kvg:06ce3-Kaisho-s5" kvg:type="㇐" d="M40.5,41.2c1.16,0.33,2.53,0.38,3.68,0.33c6.57-0.28,31.07-4.53,40.99-4.77c1.94-0.05,3.1,0.16,4.07,0.32"/>--> </g> <g id="kvg:06ce3-Kaisho-g4" kvg:position="bottom"> <!--<path id="kvg:06ce3-Kaisho-s6" kvg:type="㇔" d="M49.08,49.92c4.34,10.5,6.31,21.23,6.71,28.15"/>--> <!--<path id="kvg:06ce3-Kaisho-s7" kvg:type="㇒" d="M77.65,42.75c0.78,1.3,0.87,1.96,0.78,3.04c-0.62,7.38-6.39,30.32-7.95,35.96"/>--> <!--<path id="kvg:06ce3-Kaisho-s8" kvg:type="㇐" d="M36.75,86.3c1.46,0.39,3.17,0.54,4.62,0.39C57.25,85,73.75,83,92.15,82.2c2.43-0.11,3.89,0.19,5.1,0.38"/>--> </g> </g> </g> </g> <g id="kvg:StrokeNumbers_06ce3-Kaisho" style="font-size:8;fill:#808080">         </g> </svg> 