<?xml version="1.0" encoding="UTF-8"?>  <!DOCTYPE svg PUBLIC "-//W3C//DTD SVG 1.0//EN" "http://www.w3.org/TR/2001/REC-SVG-20010904/DTD/svg10.dtd"  <!ATTLIST g xmlns:kvg CDATA #FIXED "http://kanjivg.tagaini.net" kvg:element CDATA #IMPLIED kvg:variant CDATA #IMPLIED kvg:partial CDATA #IMPLIED kvg:original CDATA #IMPLIED kvg:part CDATA #IMPLIED kvg:number CDATA #IMPLIED kvg:tradForm CDATA #IMPLIED kvg:radicalForm CDATA #IMPLIED kvg:position CDATA #IMPLIED kvg:radical CDATA #IMPLIED kvg:phon CDATA #IMPLIED > <!ATTLIST path xmlns:kvg CDATA #FIXED "http://kanjivg.tagaini.net" kvg:type CDATA #IMPLIED >  <svg xmlns="http://www.w3.org/2000/svg" width="109" height="109" viewBox="0 0 109 109"> <g id="kvg:StrokePaths_06d29-Kaisho" style="fill:none;stroke:#000000;stroke-width:3;stroke-linecap:round;stroke-linejoin:round;"> <g id="kvg:06d29-Kaisho" kvg:element="洩"> <g id="kvg:06d29-Kaisho-g1" kvg:element="氵" kvg:variant="true" kvg:original="水" kvg:position="left" kvg:radical="general"> <!--<path id="kvg:06d29-Kaisho-s1" kvg:type="㇔" d="M18.63,20.75c4.63,1.38,11.96,5.69,13.12,7.84"/>--> <!--<path id="kvg:06d29-Kaisho-s2" kvg:type="㇔" d="M14.5,43.5c5.12,1.41,13.22,5.8,14.5,8"/>--> <!--<path id="kvg:06d29-Kaisho-s3" kvg:type="㇀" d="M16.75,90.21c1.5,1.31,3.31,1.36,4.25-0.25c2.75-4.7,5.5-10.45,8-16.45"/>--> </g> <g id="kvg:06d29-Kaisho-g2" kvg:element="曳" kvg:position="right"> <g id="kvg:06d29-Kaisho-g3" kvg:element="日"> <!--<path id="kvg:06d29-Kaisho-s4" kvg:type="㇑" d="M40.23,31.61c0.31,0.49,0.82,1.32,1,1.94c1.42,5.04,2.98,16.77,3.86,26.17"/>--> <!--<path id="kvg:06d29-Kaisho-s5" kvg:type="㇕a" d="M42.21,33.28c11.01-1.27,31.76-5.03,40-5.49c1.92-0.11,2.96,1.48,2.75,3.9c-0.43,5.1-1.25,14.87-3.77,23.37"/>--> <!--<path id="kvg:06d29-Kaisho-s6" kvg:type="㇐a" d="M43.65,44.8c6.68-0.92,16.4-2.55,23.1-3.28c2.28-0.25,4.55-0.5,6.7-0.73"/>--> <!--<path id="kvg:06d29-Kaisho-s7" kvg:type="㇐a" d="M45.16,56.8c12.59-1.55,25.51-3.75,36.45-4.64"/>--> </g> <!--<path id="kvg:06d29-Kaisho-s8" kvg:type="㇂" d="M56.01,11c1.6,1.81,1.87,2.32,2.2,6.22C61.5,55.5,71.25,80.25,90.33,94.44c5.95,4.42,5.4,0.78,4.6-7.26"/>--> <g id="kvg:06d29-Kaisho-g4" kvg:element="丿"> <!--<path id="kvg:06d29-Kaisho-s9" kvg:type="㇒" d="M83.24,62.12c0.12,0.67,0.24,1.73-0.23,2.7c-2.79,5.69-18.77,18.8-40.66,26.44"/>--> </g> </g> </g> </g> <g id="kvg:StrokeNumbers_06d29-Kaisho" style="font-size:8;fill:#808080">          </g> </svg> 