<?xml version="1.0" encoding="UTF-8"?>  <!DOCTYPE svg PUBLIC "-//W3C//DTD SVG 1.0//EN" "http://www.w3.org/TR/2001/REC-SVG-20010904/DTD/svg10.dtd"  <!ATTLIST g xmlns:kvg CDATA #FIXED "http://kanjivg.tagaini.net" kvg:element CDATA #IMPLIED kvg:variant CDATA #IMPLIED kvg:partial CDATA #IMPLIED kvg:original CDATA #IMPLIED kvg:part CDATA #IMPLIED kvg:number CDATA #IMPLIED kvg:tradForm CDATA #IMPLIED kvg:radicalForm CDATA #IMPLIED kvg:position CDATA #IMPLIED kvg:radical CDATA #IMPLIED kvg:phon CDATA #IMPLIED > <!ATTLIST path xmlns:kvg CDATA #FIXED "http://kanjivg.tagaini.net" kvg:type CDATA #IMPLIED >  <svg xmlns="http://www.w3.org/2000/svg" width="109" height="109" viewBox="0 0 109 109"> <g id="kvg:StrokePaths_06d93-Kaisho" style="fill:none;stroke:#000000;stroke-width:3;stroke-linecap:round;stroke-linejoin:round;"> <g id="kvg:06d93-Kaisho" kvg:element="涓"> <g id="kvg:06d93-Kaisho-g1" kvg:element="氵" kvg:variant="true" kvg:original="水" kvg:position="left" kvg:radical="general"> <!--<path id="kvg:06d93-Kaisho-s1" kvg:type="㇔" d="M19.63,16c4.45,1.78,11.5,7.32,12.62,10.09"/>--> <!--<path id="kvg:06d93-Kaisho-s2" kvg:type="㇔" d="M15,43.5c4.41,1.76,11.4,7.26,12.5,10"/>--> <!--<path id="kvg:06d93-Kaisho-s3" kvg:type="㇀" d="M16.25,89.76c1.84,1.23,4.05,1.29,5.2-0.24c3.37-4.44,11.73-19.86,14.8-25.52"/>--> </g> <g id="kvg:06d93-Kaisho-g2" kvg:position="right"> <g id="kvg:06d93-Kaisho-g3" kvg:element="口" kvg:position="top"> <!--<path id="kvg:06d93-Kaisho-s4" kvg:type="㇑" d="M50.46,14.73c0.41,0.31,0.83,0.57,1,0.95c1.41,3.06,2.11,13.52,3.08,19.02"/>--> <!--<path id="kvg:06d93-Kaisho-s5" kvg:type="㇕b" d="M53,16.29C63,15,80.35,14.31,85.5,13.88c1.88-0.16,3.02,1.6,2.75,2.53c-1.12,3.86-2.39,8.19-4.78,13.75"/>--> <!--<path id="kvg:06d93-Kaisho-s6" kvg:type="㇐b" d="M54.95,32.69C61,32.2,77.56,31,87.15,30.64"/>--> </g> <g id="kvg:06d93-Kaisho-g4" kvg:element="月" kvg:position="bottom"> <!--<path id="kvg:06d93-Kaisho-s7" kvg:type="㇒" d="M49.93,42.03c0.7,0.81,1.17,1.62,1.4,2.43c0.23,0.81,0.33,50.86,0.23,52.68"/>--> <!--<path id="kvg:06d93-Kaisho-s8" kvg:type="㇆a" d="M51.22,43.84c2.79-0.2,31.99-1.85,34.08-1.85c2.2,0,4.16,1.26,4.16,3.85c0,1.25-0.12,25.86-0.12,42.26c0,10.52-5.59,3.64-7.92,1.82"/>--> <!--<path id="kvg:06d93-Kaisho-s9" kvg:type="㇐a" d="M51.72,57.92c6.42-0.66,12.87-1.01,19.31-1.33c1.68-0.08,3.34-0.16,4.96-0.23"/>--> <!--<path id="kvg:06d93-Kaisho-s10" kvg:type="㇐a" d="M51.69,72.41c6.06-0.5,12.15-0.72,18.22-0.99c1.83-0.08,3.67-0.16,5.47-0.24"/>--> </g> </g> </g> </g> <g id="kvg:StrokeNumbers_06d93-Kaisho" style="font-size:8;fill:#808080">           </g> </svg> 