<?xml version="1.0" encoding="UTF-8"?>  <!DOCTYPE svg PUBLIC "-//W3C//DTD SVG 1.0//EN" "http://www.w3.org/TR/2001/REC-SVG-20010904/DTD/svg10.dtd"  <!ATTLIST g xmlns:kvg CDATA #FIXED "http://kanjivg.tagaini.net" kvg:element CDATA #IMPLIED kvg:variant CDATA #IMPLIED kvg:partial CDATA #IMPLIED kvg:original CDATA #IMPLIED kvg:part CDATA #IMPLIED kvg:number CDATA #IMPLIED kvg:tradForm CDATA #IMPLIED kvg:radicalForm CDATA #IMPLIED kvg:position CDATA #IMPLIED kvg:radical CDATA #IMPLIED kvg:phon CDATA #IMPLIED > <!ATTLIST path xmlns:kvg CDATA #FIXED "http://kanjivg.tagaini.net" kvg:type CDATA #IMPLIED >  <svg xmlns="http://www.w3.org/2000/svg" width="109" height="109" viewBox="0 0 109 109"> <g id="kvg:StrokePaths_06dbc-Kaisho" style="fill:none;stroke:#000000;stroke-width:3;stroke-linecap:round;stroke-linejoin:round;"> <g id="kvg:06dbc-Kaisho" kvg:element="涼"> <g id="kvg:06dbc-Kaisho-g1" kvg:element="氵" kvg:variant="true" kvg:original="水" kvg:position="left" kvg:radical="general"> <!--<path id="kvg:06dbc-Kaisho-s1" kvg:type="㇔" d="M19.38,17c3.75,1.65,9.68,6.78,10.62,9.34"/>--> <!--<path id="kvg:06dbc-Kaisho-s2" kvg:type="㇔" d="M13.75,39.25c3.71,1.5,9.57,6.17,10.5,8.5"/>--> <!--<path id="kvg:06dbc-Kaisho-s3" kvg:type="㇀" d="M11.5,86.98c1.71,1.27,3.78,1.32,4.86-0.25c3.14-4.57,6.29-10.16,9.14-15.99"/>--> </g> <g id="kvg:06dbc-Kaisho-g2" kvg:element="京" kvg:position="right"> <g id="kvg:06dbc-Kaisho-g3" kvg:element="亠" kvg:position="top"> <!--<path id="kvg:06dbc-Kaisho-s4" kvg:type="㇑a" d="M60.78,11.67c2.47,1.21,5.72,5.29,6.74,7.37"/>--> <!--<path id="kvg:06dbc-Kaisho-s5" kvg:type="㇐" d="M38.25,27.25c1.21,0.07,3.97,0.48,5.16,0.39c11.84-0.89,36.74-4.39,48.1-4.81c2-0.07,3.02-0.04,4.51,0.56"/>--> </g> <g id="kvg:06dbc-Kaisho-g4" kvg:position="bottom"> <g id="kvg:06dbc-Kaisho-g5" kvg:element="口"> <!--<path id="kvg:06dbc-Kaisho-s6" kvg:type="㇑" d="M46.86,40.07c0.56,0.39,1.27,0.67,1.39,1.2c0.85,3.82,1.53,11.24,2.78,18.48"/>--> <!--<path id="kvg:06dbc-Kaisho-s7" kvg:type="㇕b" d="M48.72,41.86c8.49-1.49,27.03-4,32.8-4.61c2.39-0.25,4.1,1.58,3.14,4.5C83.58,45,82.8,49,81.3,53.5"/>--> <!--<path id="kvg:06dbc-Kaisho-s8" kvg:type="㇐b" d="M51.42,57.78C61,57,73.25,55.75,83.72,55.25"/>--> </g> <g id="kvg:06dbc-Kaisho-g6" kvg:element="小"> <!--<path id="kvg:06dbc-Kaisho-s9" kvg:type="㇚" d="M65.67,59.08c0.08,0.5,1.5,2.61,1.63,5.78C67.5,70,67.06,87.6,67.06,92.02c0,9.47-6.47,0.52-7.82-0.79"/>--> <!--<path id="kvg:06dbc-Kaisho-s10" kvg:type="㇒" d="M48.45,69.75c0.04,0.46,0.08,1.19-0.08,1.85c-0.92,3.89-6.23,12.43-13.48,17.65"/>--> <!--<path id="kvg:06dbc-Kaisho-s11" kvg:type="㇔" d="M86.01,71.25c4.23,3.09,10.08,11.7,11.14,16.5"/>--> </g> </g> </g> </g> </g> <g id="kvg:StrokeNumbers_06dbc-Kaisho" style="font-size:8;fill:#808080">            </g> </svg> 