<?xml version="1.0" encoding="UTF-8"?>  <!DOCTYPE svg PUBLIC "-//W3C//DTD SVG 1.0//EN" "http://www.w3.org/TR/2001/REC-SVG-20010904/DTD/svg10.dtd"  <!ATTLIST g xmlns:kvg CDATA #FIXED "http://kanjivg.tagaini.net" kvg:element CDATA #IMPLIED kvg:variant CDATA #IMPLIED kvg:partial CDATA #IMPLIED kvg:original CDATA #IMPLIED kvg:part CDATA #IMPLIED kvg:number CDATA #IMPLIED kvg:tradForm CDATA #IMPLIED kvg:radicalForm CDATA #IMPLIED kvg:position CDATA #IMPLIED kvg:radical CDATA #IMPLIED kvg:phon CDATA #IMPLIED > <!ATTLIST path xmlns:kvg CDATA #FIXED "http://kanjivg.tagaini.net" kvg:type CDATA #IMPLIED >  <svg xmlns="http://www.w3.org/2000/svg" width="109" height="109" viewBox="0 0 109 109"> <g id="kvg:StrokePaths_06deb-Hyougai" style="fill:none;stroke:#000000;stroke-width:3;stroke-linecap:round;stroke-linejoin:round;"> <g id="kvg:06deb-Hyougai" kvg:element="淫"> <g id="kvg:06deb-Hyougai-g1" kvg:element="氵" kvg:variant="true" kvg:original="水" kvg:position="left" kvg:radical="general"> <!--<path id="kvg:06deb-Hyougai-s1" kvg:type="㇔" d="M20.38,17.25c4.54,1.69,10.49,6.12,12.87,9.59"/>--> <!--<path id="kvg:06deb-Hyougai-s2" kvg:type="㇔" d="M14.5,44c4.41,1.41,9.62,4.75,12.5,8"/>--> <!--<path id="kvg:06deb-Hyougai-s3" kvg:type="㇀" d="M18,92.96c1.88,0.79,3.06-0.14,4-1.75c2.75-4.7,5.25-10.7,7.75-16.7"/>--> </g> <g id="kvg:06deb-Hyougai-g2" kvg:position="right"> <g id="kvg:06deb-Hyougai-g3" kvg:element="⺤" kvg:variant="true" kvg:original="爪" kvg:position="top"> <!--<path id="kvg:06deb-Hyougai-s4" kvg:type="㇒" d="M82.71,13.14c-0.52,1.2-1.33,2.04-2.44,2.52c-5.5,2.84-15.79,5.73-30.97,9.3"/>--> <!--<path id="kvg:06deb-Hyougai-s5" kvg:type="㇔" d="M43.89,32.46c2.44,2.29,6.31,9.44,6.92,13.01"/>--> <!--<path id="kvg:06deb-Hyougai-s6" kvg:type="㇔" d="M61.38,27.88c2.36,2.13,6.09,8.77,6.68,12.09"/>--> <!--<path id="kvg:06deb-Hyougai-s7" kvg:type="㇒" d="M90.52,24.14c0.11,1.16,0.02,1.93-0.67,2.91c-2.6,3.7-4.98,6.95-11.79,13.42"/>--> </g> <g id="kvg:06deb-Hyougai-g4" kvg:element="壬" kvg:position="bottom"> <g id="kvg:06deb-Hyougai-g5" kvg:element="丿"> <!--<path id="kvg:06deb-Hyougai-s8" kvg:type="㇒" d="M84.55,44.5c-0.42,1.25-1.45,2.2-2.33,2.6c-7.29,3.35-17.07,5.69-34.43,8.44"/>--> </g> <g id="kvg:06deb-Hyougai-g6" kvg:element="士"> <!--<path id="kvg:06deb-Hyougai-s9" kvg:type="㇐" d="M39.68,71.18c3.08,0.42,6.14,0.44,9.19,0.09c11.88-1.21,27.44-2.26,39.62-2.56c2.61-0.06,5.26-0.18,7.83,0.37"/>--> <!--<path id="kvg:06deb-Hyougai-s10" kvg:type="㇑a" d="M67.69,54.33c1.05,1.05,1.25,2.3,1.25,3.78c0,8.89-0.07,24.77-0.07,32.89"/>--> <!--<path id="kvg:06deb-Hyougai-s11" kvg:type="㇐" d="M45.57,93.08c2.12,0.65,4.9,0.35,7.06,0.16c11.5-0.99,23.71-1.91,35-2.11c2.15-0.04,4.56,0.11,6.68,0.5"/>--> </g> </g> </g> </g> </g> <g id="kvg:StrokeNumbers_06deb-Hyougai" style="font-size:8;fill:#808080">            </g> </svg> 