<?xml version="1.0" encoding="UTF-8"?>  <!DOCTYPE svg PUBLIC "-//W3C//DTD SVG 1.0//EN" "http://www.w3.org/TR/2001/REC-SVG-20010904/DTD/svg10.dtd"  <!ATTLIST g xmlns:kvg CDATA #FIXED "http://kanjivg.tagaini.net" kvg:element CDATA #IMPLIED kvg:variant CDATA #IMPLIED kvg:partial CDATA #IMPLIED kvg:original CDATA #IMPLIED kvg:part CDATA #IMPLIED kvg:number CDATA #IMPLIED kvg:tradForm CDATA #IMPLIED kvg:radicalForm CDATA #IMPLIED kvg:position CDATA #IMPLIED kvg:radical CDATA #IMPLIED kvg:phon CDATA #IMPLIED > <!ATTLIST path xmlns:kvg CDATA #FIXED "http://kanjivg.tagaini.net" kvg:type CDATA #IMPLIED >  <svg xmlns="http://www.w3.org/2000/svg" width="109" height="109" viewBox="0 0 109 109"> <g id="kvg:StrokePaths_06e1a-Kaisho" style="fill:none;stroke:#000000;stroke-width:3;stroke-linecap:round;stroke-linejoin:round;"> <g id="kvg:06e1a-Kaisho" kvg:element="渚"> <g id="kvg:06e1a-Kaisho-g1" kvg:element="氵" kvg:variant="true" kvg:original="水" kvg:position="left" kvg:radical="general"> <!--<path id="kvg:06e1a-Kaisho-s1" kvg:type="㇔" d="M19.88,16.25c3.92,1.52,10.13,6.23,11.12,8.59"/>--> <!--<path id="kvg:06e1a-Kaisho-s2" kvg:type="㇔" d="M13.5,42c3.27,1.37,8.43,5.62,9.25,7.75"/>--> <!--<path id="kvg:06e1a-Kaisho-s3" kvg:type="㇀" d="M14.5,87.9c1.59,1.38,3.51,1.44,4.51-0.27c2.92-4.97,5.84-11.05,8.49-17.38"/>--> </g> <g id="kvg:06e1a-Kaisho-g2" kvg:element="者" kvg:position="right"> <g id="kvg:06e1a-Kaisho-g3" kvg:element="耂" kvg:original="老" kvg:partial="true"> <g id="kvg:06e1a-Kaisho-g4" kvg:element="土"> <!--<path id="kvg:06e1a-Kaisho-s4" kvg:type="㇐" d="M41.41,28.55c0.66,0.32,1.87,0.36,2.54,0.32c7.52-0.52,22.43-2.45,29.86-2.67c1.1-0.03,1.77,0.15,2.32,0.31"/>--> <!--<path id="kvg:06e1a-Kaisho-s5" kvg:type="㇑a" d="M57.25,12.87c0.1,0.29,1.41,1.49,1.52,3.3c0.48,8.71,0.26,24.56,0.26,27.53"/>--> <!--<path id="kvg:06e1a-Kaisho-s6" kvg:type="㇐" d="M32.5,45.37c1.5,0.46,3.79,0.72,5.15,0.67C47,45.75,83,42.74,91.68,42.53c2.24-0.05,3.58,0.32,4.7,0.66"/>--> </g> <!--<path id="kvg:06e1a-Kaisho-s7" kvg:type="㇒" d="M84.44,19.36c0.14,1.22,0.28,3.45-0.79,4.89c-13.72,18.52-26.16,34-51.72,48.88"/>--> </g> <g id="kvg:06e1a-Kaisho-g5" kvg:element="日"> <!--<path id="kvg:06e1a-Kaisho-s8" kvg:type="㇑" d="M52.91,62.39c0.39,0.82,0.78,1.23,0.78,2.33c0,1.09-0.13,31.69,0,32.78"/>--> <!--<path id="kvg:06e1a-Kaisho-s9" kvg:type="㇕a" d="M54.33,64.03c2.19-0.14,24.83-2.32,26.83-2.49c1.66-0.13,2.73,1.52,2.61,2.33c-0.26,1.64-0.51,32.7-0.51,33.52"/>--> <!--<path id="kvg:06e1a-Kaisho-s10" kvg:type="㇐a" d="M54.72,78.35c4.54,0,9.15-0.61,13.67-0.97c1.53-0.12,3.06-0.24,4.53-0.36"/>--> <!--<path id="kvg:06e1a-Kaisho-s11" kvg:type="㇐a" d="M54.58,94.92c6.04-0.59,20.24-1.16,27.76-1.66"/>--> </g> </g> </g> </g> <g id="kvg:StrokeNumbers_06e1a-Kaisho" style="font-size:8;fill:#808080">            </g> </svg> 