<?xml version="1.0" encoding="UTF-8"?>  <!DOCTYPE svg PUBLIC "-//W3C//DTD SVG 1.0//EN" "http://www.w3.org/TR/2001/REC-SVG-20010904/DTD/svg10.dtd"  <!ATTLIST g xmlns:kvg CDATA #FIXED "http://kanjivg.tagaini.net" kvg:element CDATA #IMPLIED kvg:variant CDATA #IMPLIED kvg:partial CDATA #IMPLIED kvg:original CDATA #IMPLIED kvg:part CDATA #IMPLIED kvg:number CDATA #IMPLIED kvg:tradForm CDATA #IMPLIED kvg:radicalForm CDATA #IMPLIED kvg:position CDATA #IMPLIED kvg:radical CDATA #IMPLIED kvg:phon CDATA #IMPLIED > <!ATTLIST path xmlns:kvg CDATA #FIXED "http://kanjivg.tagaini.net" kvg:type CDATA #IMPLIED >  <svg xmlns="http://www.w3.org/2000/svg" width="109" height="109" viewBox="0 0 109 109"> <g id="kvg:StrokePaths_06e58-Kaisho" style="fill:none;stroke:#000000;stroke-width:3;stroke-linecap:round;stroke-linejoin:round;"> <g id="kvg:06e58-Kaisho" kvg:element="湘"> <g id="kvg:06e58-Kaisho-g1" kvg:element="氵" kvg:variant="true" kvg:original="水" kvg:position="left" kvg:radical="general"> <!--<path id="kvg:06e58-Kaisho-s1" kvg:type="㇔" d="M18.13,17.75c3.57,1.47,9.22,6.05,10.12,8.34"/>--> <!--<path id="kvg:06e58-Kaisho-s2" kvg:type="㇔" d="M12.5,42.25c3.71,1.28,9.57,5.26,10.5,7.25"/>--> <!--<path id="kvg:06e58-Kaisho-s3" kvg:type="㇀" d="M13.25,90.21c2.5,0.54,3.81-0.64,4.75-2.25c2.75-4.7,5.5-10.45,8-16.45"/>--> </g> <g id="kvg:06e58-Kaisho-g2" kvg:element="相" kvg:position="right"> <g id="kvg:06e58-Kaisho-g3" kvg:element="木" kvg:position="left"> <!--<path id="kvg:06e58-Kaisho-s4" kvg:type="㇐" d="M30.15,38.74c0.6,0.24,2.21,0.38,3.8,0.24c5.21-0.47,13.32-1.61,20.32-1.85c1.6-0.05,2-0.24,3,0"/>--> <!--<path id="kvg:06e58-Kaisho-s5" kvg:type="㇑" d="M44.27,15.25c1,0.47,1.6,2.14,1.8,3.09c0.2,0.95-0.2,70.46-0.2,71.41c0,11.5-5.49,2.12-6.87,0.75"/>--> <!--<path id="kvg:06e58-Kaisho-s6" kvg:type="㇒" d="M46.07,38.03C43.33,50.51,36.2,68.18,30.5,75.24"/>--> <!--<path id="kvg:06e58-Kaisho-s7" kvg:type="㇔" d="M47.67,47.76c3.4,1.66,6.41,5.7,9.01,10.44"/>--> </g> <g id="kvg:06e58-Kaisho-g4" kvg:element="目" kvg:position="right"> <!--<path id="kvg:06e58-Kaisho-s8" kvg:type="㇑" d="M64.43,29.6c0.45,1.36,1.11,2.36,1.11,4.17c0,1.81-0.15,57.42,0,59.23"/>--> <!--<path id="kvg:06e58-Kaisho-s9" kvg:type="㇕a" d="M65.29,31.66c2.56-0.23,21.65-3.12,23.98-3.39c1.94-0.22,3.48,1.26,3.31,2.94c-0.21,2.12-0.25,58.5-0.4,59.84"/>--> <!--<path id="kvg:06e58-Kaisho-s10" kvg:type="㇐a" d="M65.75,49.59c4.5-0.28,9-0.69,13.49-1.05c1.36-0.11,2.71-0.21,4-0.31"/>--> <!--<path id="kvg:06e58-Kaisho-s11" kvg:type="㇐a" d="M65.96,68.8c4.36-0.49,8.73-0.84,13.11-1.14c1.21-0.08,3.42-0.16,4.61-0.23"/>--> <!--<path id="kvg:06e58-Kaisho-s12" kvg:type="㇐a" d="M65.77,89.41c5.08,0,19.63-0.52,26.2-0.52"/>--> </g> </g> </g> </g> <g id="kvg:StrokeNumbers_06e58-Kaisho" style="font-size:8;fill:#808080">             </g> </svg> 