<?xml version="1.0" encoding="UTF-8"?>  <!DOCTYPE svg PUBLIC "-//W3C//DTD SVG 1.0//EN" "http://www.w3.org/TR/2001/REC-SVG-20010904/DTD/svg10.dtd"  <!ATTLIST g xmlns:kvg CDATA #FIXED "http://kanjivg.tagaini.net" kvg:element CDATA #IMPLIED kvg:variant CDATA #IMPLIED kvg:partial CDATA #IMPLIED kvg:original CDATA #IMPLIED kvg:part CDATA #IMPLIED kvg:number CDATA #IMPLIED kvg:tradForm CDATA #IMPLIED kvg:radicalForm CDATA #IMPLIED kvg:position CDATA #IMPLIED kvg:radical CDATA #IMPLIED kvg:phon CDATA #IMPLIED > <!ATTLIST path xmlns:kvg CDATA #FIXED "http://kanjivg.tagaini.net" kvg:type CDATA #IMPLIED >  <svg xmlns="http://www.w3.org/2000/svg" width="109" height="109" viewBox="0 0 109 109"> <g id="kvg:StrokePaths_06ed5-Kaisho" style="fill:none;stroke:#000000;stroke-width:3;stroke-linecap:round;stroke-linejoin:round;"> <g id="kvg:06ed5-Kaisho" kvg:element="滕"> <g id="kvg:06ed5-Kaisho-g1" kvg:element="月" kvg:position="left"> <!--<path id="kvg:06ed5-Kaisho-s1" kvg:type="㇒" d="M18.27,17.57c0.54,0.95,0.91,2.38,1.09,3.3c0.18,0.92,0.16,25.91-0.42,33.63c-0.83,11-1.19,20.83-8.44,37.22"/>--> <!--<path id="kvg:06ed5-Kaisho-s2" kvg:type="㇆a" d="M20.45,19.15c2.18-0.06,9.59-2.34,11.21-2.46c2.9-0.23,3.63,1.3,3.63,2.67c0,3.23-0.04,48.72-0.04,67.05c0,12.61-5.62,5.05-7.47,3.54"/>--> <!--<path id="kvg:06ed5-Kaisho-s3" kvg:type="㇐a" d="M19.95,41.04c2.53-0.19,5.05-0.57,7.57-0.91c0.64-0.09,1.27-0.17,1.9-0.25"/>--> <!--<path id="kvg:06ed5-Kaisho-s4" kvg:type="㇐a" d="M18.89,60.98c2.39-0.05,5.79-0.26,8.17-0.47c0.67-0.06,1.36-0.12,2.04-0.18"/>--> </g> <g id="kvg:06ed5-Kaisho-g2" kvg:position="right"> <g id="kvg:06ed5-Kaisho-g3" kvg:position="top"> <!--<path id="kvg:06ed5-Kaisho-s5" kvg:type="㇒" d="M56.34,16.14c0.04,0.31,0.15,0.84-0.07,1.26c-2.27,4.35-7.02,9.85-12.78,13.06"/>--> <!--<path id="kvg:06ed5-Kaisho-s6" kvg:type="㇔" d="M78.5,15.58c4.97,1.96,12.83,8.08,14.07,11.13"/>--> <g id="kvg:06ed5-Kaisho-g4" kvg:element="二"> <g id="kvg:06ed5-Kaisho-g5" kvg:position="top"> <!--<path id="kvg:06ed5-Kaisho-s7" kvg:type="㇐" d="M49.75,31.93c0.73,0.29,2.05,0.37,2.78,0.29c4.62-0.51,25.26-2.95,29.73-2.61c1.2,0.09,1.93,0.14,2.54,0.29"/>--> </g> <g id="kvg:06ed5-Kaisho-g6" kvg:position="bottom"> <!--<path id="kvg:06ed5-Kaisho-s8" kvg:type="㇐" d="M42.6,45.13c1.17,0.42,3.33,0.56,4.49,0.42c6.31-0.77,33.42-3.31,46.1-3.88c1.95-0.09,3.12,0.2,4.1,0.41"/>--> </g> </g> <g id="kvg:06ed5-Kaisho-g7" kvg:element="人"> <!--<path id="kvg:06ed5-Kaisho-s9" kvg:type="㇒" d="M66.95,12.25c0,1,0.22,1.96,0.19,3.77c-0.18,11-11.39,40.95-26.12,48.73"/>--> <!--<path id="kvg:06ed5-Kaisho-s10" kvg:type="㇏" d="M67.69,30.31c3.96,5.87,21.04,25.04,25.42,29.33c1.48,1.46,3.39,2.08,4.87,2.5"/>--> </g> </g> <g id="kvg:06ed5-Kaisho-g8" kvg:element="氺" kvg:variant="true" kvg:original="水" kvg:position="bottom"> <!--<path id="kvg:06ed5-Kaisho-s11" kvg:type="㇚" d="M66.77,51.83c0.09,0.48,1.26,2.49,1.26,5.52c0,18.15-0.26,29.16-0.26,34.12c0,10.53-7.21,1.5-8.71,0.25"/>--> <!--<path id="kvg:06ed5-Kaisho-s12" kvg:type="㇔" d="M50.75,63c2.56,1.28,6.61,5.26,7.25,7.25"/>--> <!--<path id="kvg:06ed5-Kaisho-s13" kvg:type="㇀" d="M44,87.6c1.57,1.66,2.88,2.36,4.45,0.95c0.93-0.84,7.88-7.77,11.8-11.79"/>--> <!--<path id="kvg:06ed5-Kaisho-s14" kvg:type="㇒" d="M82.28,59.64c0.02,0.22,0.04,0.57-0.03,0.88c-0.42,1.86-2.86,5.94-6.19,8.44"/>--> <!--<path id="kvg:06ed5-Kaisho-s15" kvg:type="㇔/㇏" d="M72.25,75.75c6.75,2.5,17.5,13,19.57,17.28"/>--> </g> </g> </g> </g> <g id="kvg:StrokeNumbers_06ed5-Kaisho" style="font-size:8;fill:#808080">                </g> </svg> 