<?xml version="1.0" encoding="UTF-8"?>  <!DOCTYPE svg PUBLIC "-//W3C//DTD SVG 1.0//EN" "http://www.w3.org/TR/2001/REC-SVG-20010904/DTD/svg10.dtd"  <!ATTLIST g xmlns:kvg CDATA #FIXED "http://kanjivg.tagaini.net" kvg:element CDATA #IMPLIED kvg:variant CDATA #IMPLIED kvg:partial CDATA #IMPLIED kvg:original CDATA #IMPLIED kvg:part CDATA #IMPLIED kvg:number CDATA #IMPLIED kvg:tradForm CDATA #IMPLIED kvg:radicalForm CDATA #IMPLIED kvg:position CDATA #IMPLIED kvg:radical CDATA #IMPLIED kvg:phon CDATA #IMPLIED > <!ATTLIST path xmlns:kvg CDATA #FIXED "http://kanjivg.tagaini.net" kvg:type CDATA #IMPLIED >  <svg xmlns="http://www.w3.org/2000/svg" width="109" height="109" viewBox="0 0 109 109"> <g id="kvg:StrokePaths_06f84-Dg3" style="fill:none;stroke:#000000;stroke-width:3;stroke-linecap:round;stroke-linejoin:round;"> <g id="kvg:06f84-Dg3" kvg:element="澄"> <g id="kvg:06f84-Dg3-g1" kvg:element="氵" kvg:variant="true" kvg:original="水" kvg:position="left" kvg:radical="general"> <!--<path id="kvg:06f84-Dg3-s1" kvg:type="㇔" d="M19.88,17.25c3.31,1.47,8.54,6.05,9.37,8.34"/>--> <!--<path id="kvg:06f84-Dg3-s2" kvg:type="㇔" d="M14.25,40.75c3.62,1.28,9.34,5.26,10.25,7.25"/>--> <!--<path id="kvg:06f84-Dg3-s3" kvg:type="㇀" d="M10.75,86.21c1.5,1.31,3.31,1.36,4.25-0.25c2.75-4.7,5.5-10.45,8-16.45"/>--> </g> <g id="kvg:06f84-Dg3-g2" kvg:element="登" kvg:position="right"> <g id="kvg:06f84-Dg3-g3" kvg:element="癶" kvg:position="top"> <g id="kvg:06f84-Dg3-g4" kvg:position="left"> <!--<path id="kvg:06f84-Dg3-s4" kvg:type="㇇" d="M41.53,18.92c1.18,0.57,1.62,0.46,3.52,0.19c4.94-0.7,5.46-1.26,10.73-2.16c3.12-0.54,3.75,0.48,2.75,3.55c-2.35,7.19-12.78,26-26.78,32.47"/>--> <!--<path id="kvg:06f84-Dg3-s5" kvg:type="㇔" d="M37.88,29.25c2.86,1.12,7.4,4.6,8.11,6.34"/>--> </g> <g id="kvg:06f84-Dg3-g5" kvg:position="right"> <!--<path id="kvg:06f84-Dg3-s6" kvg:type="㇏" d="M59.58,21.99c5.6,2.99,24.75,20.22,29.66,23.69c1.67,1.18,3.09,1.68,4.76,2.02"/>--> <!--<path id="kvg:06f84-Dg3-s7" kvg:type="㇒" d="M75.82,17.85c0.01,0.19,0.03,0.5-0.03,0.77c-0.39,1.63-2.62,4.73-5.67,6.91"/>--> <!--<path id="kvg:06f84-Dg3-s8" kvg:type="㇒" d="M86.14,26.12c0.03,0.2,0.05,0.52-0.04,0.8c-0.54,1.7-3.63,5.03-7.86,7.3"/>--> </g> </g> <g id="kvg:06f84-Dg3-g6" kvg:element="豆" kvg:position="bottom"> <g id="kvg:06f84-Dg3-g7" kvg:position="top"> <!--<path id="kvg:06f84-Dg3-s9" kvg:type="㇐" d="M47.82,45.19c0.7,0.32,1.98,0.42,2.68,0.32c7.5-1.01,13.18-2.01,19.02-2.35c1.17-0.07,1.87,0.15,2.45,0.31"/>--> </g> <g id="kvg:06f84-Dg3-g8" kvg:position="bottom"> <g id="kvg:06f84-Dg3-g9" kvg:element="口"> <!--<path id="kvg:06f84-Dg3-s10" kvg:type="㇑" d="M42.81,54.93c0.46,0.34,1.05,0.6,1.14,1.06c0.63,3.28,2.35,11.01,3.29,17.08"/>--> <!--<path id="kvg:06f84-Dg3-s11" kvg:type="㇕b" d="M44.58,56.49c7.03-0.66,24.23-3.6,29.03-3.7c1.98-0.04,3.33,1.86,2.88,3.77c-0.8,3.43-1.75,7.2-3.1,11.67"/>--> <!--<path id="kvg:06f84-Dg3-s12" kvg:type="㇐b" d="M48.07,70.89c7.24-0.64,21.81-2.39,27.6-2.64"/>--> </g> <!--<path id="kvg:06f84-Dg3-s13" kvg:type="㇔" d="M46.79,78.25c1.79,1.81,4.58,6.44,5.03,9.26"/>--> <!--<path id="kvg:06f84-Dg3-s14" kvg:type="㇒" d="M74.05,74.47c0.02,0.31,0.04,0.8-0.04,1.25c-0.48,2.63-3.19,8.42-6.92,11.95"/>--> <!--<path id="kvg:06f84-Dg3-s15" kvg:type="㇐" d="M31.53,91.35c1.16,0.46,3.29,0.54,4.45,0.46c12.06-0.78,41.33-2.97,54.17-3.29c1.93-0.05,3.09,0.22,4.06,0.46"/>--> </g> </g> </g> </g> </g> <g id="kvg:StrokeNumbers_06f84-Dg3" style="font-size:8;fill:#808080">                </g> </svg> 