<?xml version="1.0" encoding="UTF-8"?>  <!DOCTYPE svg PUBLIC "-//W3C//DTD SVG 1.0//EN" "http://www.w3.org/TR/2001/REC-SVG-20010904/DTD/svg10.dtd"  <!ATTLIST g xmlns:kvg CDATA #FIXED "http://kanjivg.tagaini.net" kvg:element CDATA #IMPLIED kvg:variant CDATA #IMPLIED kvg:partial CDATA #IMPLIED kvg:original CDATA #IMPLIED kvg:part CDATA #IMPLIED kvg:number CDATA #IMPLIED kvg:tradForm CDATA #IMPLIED kvg:radicalForm CDATA #IMPLIED kvg:position CDATA #IMPLIED kvg:radical CDATA #IMPLIED kvg:phon CDATA #IMPLIED > <!ATTLIST path xmlns:kvg CDATA #FIXED "http://kanjivg.tagaini.net" kvg:type CDATA #IMPLIED >  <svg xmlns="http://www.w3.org/2000/svg" width="109" height="109" viewBox="0 0 109 109"> <g id="kvg:StrokePaths_0716e-Kaisho" style="fill:none;stroke:#000000;stroke-width:3;stroke-linecap:round;stroke-linejoin:round;"> <g id="kvg:0716e-Kaisho" kvg:element="煮"> <g id="kvg:0716e-Kaisho-g1" kvg:element="者" kvg:position="top"> <g id="kvg:0716e-Kaisho-g2" kvg:element="耂" kvg:original="老" kvg:partial="true"> <g id="kvg:0716e-Kaisho-g3" kvg:element="土"> <!--<path id="kvg:0716e-Kaisho-s1" kvg:type="㇐" d="M33.72,22.37c0.72,0.3,2.04,0.35,2.76,0.3c8.19-0.49,23.34-2.83,31.42-3.03c1.2-0.03,1.92,0.14,2.52,0.3"/>--> <!--<path id="kvg:0716e-Kaisho-s2" kvg:type="㇑a" d="M52.2,9.37c0.11,0.27,1.54,1.42,1.65,3.16c0.53,8.33,0.29,20,0.29,22.83"/>--> <!--<path id="kvg:0716e-Kaisho-s3" kvg:type="㇐" d="M15.07,38.85c1.63,0.44,4.14,0.81,5.61,0.64c8.14-0.91,57.56-6.04,67.01-6.23c2.44-0.05,3.9,0.31,5.12,0.63"/>--> </g> <!--<path id="kvg:0716e-Kaisho-s4" kvg:type="㇒" d="M79.74,13.17c0.17,1.09,0.65,2.87-0.33,4.37C66,38,48,48.75,17.97,61.23"/>--> </g> <g id="kvg:0716e-Kaisho-g4" kvg:element="日"> <!--<path id="kvg:0716e-Kaisho-s5" kvg:type="㇑" d="M41.41,50.88c0.43,0.64,0.86,0.96,0.86,1.81c0,0.85-0.29,25.36-0.29,25.79"/>--> <!--<path id="kvg:0716e-Kaisho-s6" kvg:type="㇕a" d="M42.98,50.99c2.42-0.11,26.9-2.58,29.1-2.71c1.84-0.11,2.88,1.66,2.88,2.31c0,3.91-0.43,16.65-0.42,26"/>--> <!--<path id="kvg:0716e-Kaisho-s7" kvg:type="㇐a" d="M43.41,62.5c4.93,0,9.93-0.72,14.84-1.14c1.66-0.14,3.32-0.29,4.9-0.42"/>--> <!--<path id="kvg:0716e-Kaisho-s8" kvg:type="㇐a" d="M43.26,75.36c6.67-0.46,21.82-1.68,30.13-2.07"/>--> </g> </g> <g id="kvg:0716e-Kaisho-g5" kvg:element="灬" kvg:variant="true" kvg:original="火" kvg:position="bottom" kvg:radical="general"> <!--<path id="kvg:0716e-Kaisho-s9" kvg:type="㇔" d="M23.25,84c0,5.25-5.75,13-7.25,14.5"/>--> <!--<path id="kvg:0716e-Kaisho-s10" kvg:type="㇔" d="M39.52,82.83c2.47,2.71,4.82,10.17,5.44,14.38"/>--> <!--<path id="kvg:0716e-Kaisho-s11" kvg:type="㇔" d="M60.87,82.08c3.33,2.36,8.6,9.71,9.43,13.38"/>--> <!--<path id="kvg:0716e-Kaisho-s12" kvg:type="㇔" d="M82.77,83.08c4.16,2.63,10.75,10.8,11.79,14.88"/>--> </g> </g> </g> <g id="kvg:StrokeNumbers_0716e-Kaisho" style="font-size:8;fill:#808080">             </g> </svg> 