<?xml version="1.0" encoding="UTF-8"?>  <!DOCTYPE svg PUBLIC "-//W3C//DTD SVG 1.0//EN" "http://www.w3.org/TR/2001/REC-SVG-20010904/DTD/svg10.dtd"  <!ATTLIST g xmlns:kvg CDATA #FIXED "http://kanjivg.tagaini.net" kvg:element CDATA #IMPLIED kvg:variant CDATA #IMPLIED kvg:partial CDATA #IMPLIED kvg:original CDATA #IMPLIED kvg:part CDATA #IMPLIED kvg:number CDATA #IMPLIED kvg:tradForm CDATA #IMPLIED kvg:radicalForm CDATA #IMPLIED kvg:position CDATA #IMPLIED kvg:radical CDATA #IMPLIED kvg:phon CDATA #IMPLIED > <!ATTLIST path xmlns:kvg CDATA #FIXED "http://kanjivg.tagaini.net" kvg:type CDATA #IMPLIED >  <svg xmlns="http://www.w3.org/2000/svg" width="109" height="109" viewBox="0 0 109 109"> <g id="kvg:StrokePaths_0717d-Hyougai" style="fill:none;stroke:#000000;stroke-width:3;stroke-linecap:round;stroke-linejoin:round;"> <g id="kvg:0717d-Hyougai" kvg:element="煽"> <g id="kvg:0717d-Hyougai-g1" kvg:element="火" kvg:position="left" kvg:radical="general"> <!--<path id="kvg:0717d-Hyougai-s1" kvg:type="㇔" d="M12.99,40.75c1.41,3.52,3.64,12.75,3.59,17"/>--> <!--<path id="kvg:0717d-Hyougai-s2" kvg:type="㇒" d="M39.81,33.75c0,1.12-0.44,2.15-1.1,3.24c-0.66,1.1-5.46,7.01-8.84,10.38"/>--> <!--<path id="kvg:0717d-Hyougai-s3" kvg:type="㇒" d="M25.5,17.25c0.76,0.75,1.02,2.75,1.03,4c0.19,44.86-1,57.72-14.03,73.25"/>--> <!--<path id="kvg:0717d-Hyougai-s4" kvg:type="㇔/㇏" d="M27.75,67.75c4.38,3.75,7.93,9.01,9,12.5"/>--> </g> <g id="kvg:0717d-Hyougai-g2" kvg:element="扇" kvg:position="right"> <g id="kvg:0717d-Hyougai-g3" kvg:element="戸" kvg:position="tare"> <!--<path id="kvg:0717d-Hyougai-s5" kvg:type="㇐" d="M46.59,15.96c2.22,0.36,4.45,0.36,6.68,0.03c8.35-1.24,18.35-2.24,30.73-3.18c2.24-0.19,4.47-0.12,6.7,0.19"/>--> <!--<path id="kvg:0717d-Hyougai-s6" kvg:type="㇕c" d="M46.07,30.38c2.57,0.58,5.13,0.66,7.67,0.26c9.43-1.25,25.02-2.94,31.64-3.68c2.51-0.28,4.24,1.23,3.63,3.93c-0.66,2.92-1.71,6.72-2.58,9.38"/>--> <!--<path id="kvg:0717d-Hyougai-s7" kvg:type="㇐b" d="M49.49,45c0.8,0,19.13-2.04,32.13-3.31c2.77-0.27,5.3-0.51,7.37-0.69"/>--> <!--<path id="kvg:0717d-Hyougai-s8" kvg:type="㇒" d="M47.4,31.18c0.83,0.83,0.99,2.32,0.99,4.13c0,27.73-0.15,47.31-11.65,59.69"/>--> </g> <g id="kvg:0717d-Hyougai-g4" kvg:element="羽"> <g id="kvg:0717d-Hyougai-g5" kvg:position="left"> <!--<path id="kvg:0717d-Hyougai-s9" kvg:type="㇆" d="M52.97,56.17c1.52,0.72,3.03,0.63,4.54,0.24c2.68-0.54,6.19-1.2,8.02-1.51c2.69-0.45,3.96,0.94,3.94,3.48c-0.06,5.21-0.08,26.12-0.08,34.5c0,6.94-6.32,0.92-6.89,0.35"/>--> <!--<path id="kvg:0717d-Hyougai-s10" kvg:type="㇔" d="M54.35,65.28c2.65,1.24,6.59,5.36,7.26,7.29"/>--> <!--<path id="kvg:0717d-Hyougai-s11" kvg:type="㇀" d="M50.66,86.49c1.47,0.63,2.29,0.69,3.54-0.17c0.74-0.51,6.16-4.54,9.28-6.99"/>--> </g> <g id="kvg:0717d-Hyougai-g6" kvg:position="right"> <!--<path id="kvg:0717d-Hyougai-s12" kvg:type="㇆" d="M75.49,54.37c1.88,0.78,3.75,0.87,5.61,0.27c2.68-0.54,6.02-1.28,8.14-1.68c4.12-0.78,4.41,1.06,4.41,4.54c0,8.12-0.03,28.23-0.03,35.75c0,6.56-5.99,0.54-6.57-0.02"/>--> <!--<path id="kvg:0717d-Hyougai-s13" kvg:type="㇔" d="M77.88,63.98c2.48,1.16,6.42,5,7.04,6.79"/>--> <!--<path id="kvg:0717d-Hyougai-s14" kvg:type="㇀" d="M75.69,85.03c1.56,0.47,2.75-0.08,3.97-1.08c0.72-0.59,5.84-4.57,9.09-7.67"/>--> </g> </g> </g> </g> </g> <g id="kvg:StrokeNumbers_0717d-Hyougai" style="font-size:8;fill:#808080">               </g> </svg> 