<?xml version="1.0" encoding="UTF-8"?>  <!DOCTYPE svg PUBLIC "-//W3C//DTD SVG 1.0//EN" "http://www.w3.org/TR/2001/REC-SVG-20010904/DTD/svg10.dtd"  <!ATTLIST g xmlns:kvg CDATA #FIXED "http://kanjivg.tagaini.net" kvg:element CDATA #IMPLIED kvg:variant CDATA #IMPLIED kvg:partial CDATA #IMPLIED kvg:original CDATA #IMPLIED kvg:part CDATA #IMPLIED kvg:number CDATA #IMPLIED kvg:tradForm CDATA #IMPLIED kvg:radicalForm CDATA #IMPLIED kvg:position CDATA #IMPLIED kvg:radical CDATA #IMPLIED kvg:phon CDATA #IMPLIED > <!ATTLIST path xmlns:kvg CDATA #FIXED "http://kanjivg.tagaini.net" kvg:type CDATA #IMPLIED >  <svg xmlns="http://www.w3.org/2000/svg" width="109" height="109" viewBox="0 0 109 109"> <g id="kvg:StrokePaths_07269-Kaisho" style="fill:none;stroke:#000000;stroke-width:3;stroke-linecap:round;stroke-linejoin:round;"> <g id="kvg:07269-Kaisho" kvg:element="物"> <g id="kvg:07269-Kaisho-g1" kvg:element="牛" kvg:variant="true" kvg:position="left" kvg:radical="general"> <!--<path id="kvg:07269-Kaisho-s1" kvg:type="㇒" d="M24.27,24.64c0.03,0.65,0.07,1.68-0.06,2.61c-0.78,5.5-5.26,17.57-11.4,24.96"/>--> <!--<path id="kvg:07269-Kaisho-s2" kvg:type="㇐" d="M23.75,39.25c6.75-0.75,19-4,20.25-4s2.5,0,3.75,0.25"/>--> <!--<path id="kvg:07269-Kaisho-s3" kvg:type="㇑" d="M34.87,13.75c1.09,0.5,1.74,2.25,1.96,3.25c0.22,1-0.22,67.75-0.22,74c0,13-6.11,2.25-7.36,1"/>--> <!--<path id="kvg:07269-Kaisho-s4" kvg:type="㇀" d="M14,69.83c1.83,1.43,3.35,2.05,5.18,0.82C20.26,69.92,38.43,57.48,43,54"/>--> </g> <g id="kvg:07269-Kaisho-g2" kvg:element="勿" kvg:position="right"> <g id="kvg:07269-Kaisho-g3" kvg:element="勹"> <g id="kvg:07269-Kaisho-g4" kvg:element="丿"> <!--<path id="kvg:07269-Kaisho-s5" kvg:type="㇒" d="M67.51,16c0.05,0.67,0.2,1.76-0.1,2.71C65,26.25,59.25,35.5,49.75,44.59"/>--> </g> <!--<path id="kvg:07269-Kaisho-s6" kvg:type="㇆" d="M59.25,38.66c1.29,0.64,3.1,0.85,5.16,0.42c2.07-0.42,20.5-4.04,25.66-4.25c5.16-0.21,6.2,2.13,5.42,6.59c-0.77,4.47-5.7,36.3-17.05,48.42c-3.41,3.64-5.21,1.6-8.26-1.06"/>--> </g> <g id="kvg:07269-Kaisho-g5" kvg:element="丿"> <!--<path id="kvg:07269-Kaisho-s7" kvg:type="㇒" d="M66.01,41.13c0.06,0.64,0.31,1.74-0.11,2.58c-4.4,8.79-9.4,16.04-19.4,24.7"/>--> </g> <g id="kvg:07269-Kaisho-g6" kvg:element="丿"> <!--<path id="kvg:07269-Kaisho-s8" kvg:type="㇒" d="M79.99,39.47c0.08,1.03,0.41,2.72-0.16,4.12c-4.58,11.16-12.58,26.16-27.58,39.39"/>--> </g> </g> </g> </g> <g id="kvg:StrokeNumbers_07269-Kaisho" style="font-size:8;fill:#808080">         </g> </svg> 