<?xml version="1.0" encoding="UTF-8"?>  <!DOCTYPE svg PUBLIC "-//W3C//DTD SVG 1.0//EN" "http://www.w3.org/TR/2001/REC-SVG-20010904/DTD/svg10.dtd"  <!ATTLIST g xmlns:kvg CDATA #FIXED "http://kanjivg.tagaini.net" kvg:element CDATA #IMPLIED kvg:variant CDATA #IMPLIED kvg:partial CDATA #IMPLIED kvg:original CDATA #IMPLIED kvg:part CDATA #IMPLIED kvg:number CDATA #IMPLIED kvg:tradForm CDATA #IMPLIED kvg:radicalForm CDATA #IMPLIED kvg:position CDATA #IMPLIED kvg:radical CDATA #IMPLIED kvg:phon CDATA #IMPLIED > <!ATTLIST path xmlns:kvg CDATA #FIXED "http://kanjivg.tagaini.net" kvg:type CDATA #IMPLIED >  <svg xmlns="http://www.w3.org/2000/svg" width="109" height="109" viewBox="0 0 109 109"> <g id="kvg:StrokePaths_072d9-Kaisho" style="fill:none;stroke:#000000;stroke-width:3;stroke-linecap:round;stroke-linejoin:round;"> <g id="kvg:072d9-Kaisho" kvg:element="狙"> <g id="kvg:072d9-Kaisho-g1" kvg:element="⺨" kvg:variant="true" kvg:original="犬" kvg:position="left" kvg:radical="general"> <!--<path id="kvg:072d9-Kaisho-s1" kvg:type="㇒" d="M38.55,17.5c0.07,0.53,0.31,1.54-0.14,2.11C32.69,26.85,26.88,31.97,13,39.79"/>--> <!--<path id="kvg:072d9-Kaisho-s2" kvg:type="㇕va" d="M18,17c27.75,18.5,19,87.25,4.5,71"/>--> <!--<path id="kvg:072d9-Kaisho-s3" kvg:type="㇒" d="M31.33,44c0.05,0.66,0.24,1.92-0.11,2.63c-4.38,9.02-8.83,15.4-19.47,25.16"/>--> </g> <g id="kvg:072d9-Kaisho-g2" kvg:element="且" kvg:position="right"> <g id="kvg:072d9-Kaisho-g3" kvg:element="月"> <!--<path id="kvg:072d9-Kaisho-s4" kvg:type="㇑a" d="M52.46,22.59c0.59,1.03,0.98,2.05,1.18,3.06c0.2,1.01,0.43,61.08,0.36,63.31"/>--> <!--<path id="kvg:072d9-Kaisho-s5" kvg:type="㇕b" d="M54.8,23.73c2.27-0.1,23.12-2.98,24.81-3.16c3.03-0.31,4.18,3.51,3.81,4.98c-0.36,1.41-0.18,40.21-0.29,60.39"/>--> <!--<path id="kvg:072d9-Kaisho-s6" kvg:type="㇐a" d="M54.88,44.9c4.66-0.6,9.32-1.14,13.99-1.63c1.25-0.13,2.49-0.26,3.7-0.37"/>--> <!--<path id="kvg:072d9-Kaisho-s7" kvg:type="㇐a" d="M55.34,65.36c4.28-0.25,9.54-0.68,13.81-1.02c1.24-0.1,2.48-0.2,3.71-0.29"/>--> </g> <g id="kvg:072d9-Kaisho-g4" kvg:element="一"> <!--<path id="kvg:072d9-Kaisho-s8" kvg:type="㇐" d="M41.54,90.07c1.17,0.43,3.32,0.5,4.49,0.43c12.2-0.73,34.72-2.91,47-2.91c1.95,0,3.13,0.21,4.1,0.42"/>--> </g> </g> </g> </g> <g id="kvg:StrokeNumbers_072d9-Kaisho" style="font-size:8;fill:#808080">         </g> </svg> 