<?xml version="1.0" encoding="UTF-8"?>  <!DOCTYPE svg PUBLIC "-//W3C//DTD SVG 1.0//EN" "http://www.w3.org/TR/2001/REC-SVG-20010904/DTD/svg10.dtd"  <!ATTLIST g xmlns:kvg CDATA #FIXED "http://kanjivg.tagaini.net" kvg:element CDATA #IMPLIED kvg:variant CDATA #IMPLIED kvg:partial CDATA #IMPLIED kvg:original CDATA #IMPLIED kvg:part CDATA #IMPLIED kvg:number CDATA #IMPLIED kvg:tradForm CDATA #IMPLIED kvg:radicalForm CDATA #IMPLIED kvg:position CDATA #IMPLIED kvg:radical CDATA #IMPLIED kvg:phon CDATA #IMPLIED > <!ATTLIST path xmlns:kvg CDATA #FIXED "http://kanjivg.tagaini.net" kvg:type CDATA #IMPLIED >  <svg xmlns="http://www.w3.org/2000/svg" width="109" height="109" viewBox="0 0 109 109"> <g id="kvg:StrokePaths_072db-Kaisho" style="fill:none;stroke:#000000;stroke-width:3;stroke-linecap:round;stroke-linejoin:round;"> <g id="kvg:072db-Kaisho" kvg:element="狛"> <g id="kvg:072db-Kaisho-g1" kvg:element="⺨" kvg:variant="true" kvg:original="犬" kvg:position="left" kvg:radical="general"> <!--<path id="kvg:072db-Kaisho-s1" kvg:type="㇒" d="M40.31,13.5c0.06,0.61,0.27,1.78-0.12,2.44C35.2,24.31,30.13,30.24,18,39.29"/>--> <!--<path id="kvg:072db-Kaisho-s2" kvg:type="㇕va" d="M20.5,18.5C46.75,37,40.75,106.5,28,92"/>--> <!--<path id="kvg:072db-Kaisho-s3" kvg:type="㇒" d="M34.32,47c0.06,0.57,0.27,1.68-0.12,2.3c-4.88,7.89-9.84,13.46-21.7,21.99"/>--> </g> <g id="kvg:072db-Kaisho-g2" kvg:position="right"> <g id="kvg:072db-Kaisho-g3" kvg:position="top"> <!--<path id="kvg:072db-Kaisho-s4" kvg:type="㇔" d="M72.49,14c0.43,0.92,0.58,2.09,0.39,2.84c-1.4,5.57-5.75,16.03-10.44,22.37"/>--> </g> <g id="kvg:072db-Kaisho-g4" kvg:element="日" kvg:position="bottom"> <!--<path id="kvg:072db-Kaisho-s5" kvg:type="㇑" d="M54.8,39.08c0.59,1.35,1.19,2.6,1.19,4.4S56.18,83.21,56.18,94"/>--> <!--<path id="kvg:072db-Kaisho-s6" kvg:type="㇕a" d="M56.35,41.23c3.35-0.23,29.07-4.24,32.12-4.62c1.94-0.24,3.23,1.48,3.22,4.32c-0.01,4.85,0.47,38.27-0.16,53.13"/>--> <!--<path id="kvg:072db-Kaisho-s7" kvg:type="㇐a" d="M56.31,64.36c6.08-0.59,12.16-1.25,18.24-1.85c1.81-0.18,3.61-0.35,5.32-0.51"/>--> <!--<path id="kvg:072db-Kaisho-s8" kvg:type="㇐a" d="M56.48,91.47c8.41-0.73,25.88-2.45,34.85-2.78"/>--> </g> </g> </g> </g> <g id="kvg:StrokeNumbers_072db-Kaisho" style="font-size:8;fill:#808080">         </g> </svg> 