<?xml version="1.0" encoding="UTF-8"?>  <!DOCTYPE svg PUBLIC "-//W3C//DTD SVG 1.0//EN" "http://www.w3.org/TR/2001/REC-SVG-20010904/DTD/svg10.dtd"  <!ATTLIST g xmlns:kvg CDATA #FIXED "http://kanjivg.tagaini.net" kvg:element CDATA #IMPLIED kvg:variant CDATA #IMPLIED kvg:partial CDATA #IMPLIED kvg:original CDATA #IMPLIED kvg:part CDATA #IMPLIED kvg:number CDATA #IMPLIED kvg:tradForm CDATA #IMPLIED kvg:radicalForm CDATA #IMPLIED kvg:position CDATA #IMPLIED kvg:radical CDATA #IMPLIED kvg:phon CDATA #IMPLIED > <!ATTLIST path xmlns:kvg CDATA #FIXED "http://kanjivg.tagaini.net" kvg:type CDATA #IMPLIED >  <svg xmlns="http://www.w3.org/2000/svg" width="109" height="109" viewBox="0 0 109 109"> <g id="kvg:StrokePaths_072e9-Kaisho" style="fill:none;stroke:#000000;stroke-width:3;stroke-linecap:round;stroke-linejoin:round;"> <g id="kvg:072e9-Kaisho" kvg:element="狩"> <g id="kvg:072e9-Kaisho-g1" kvg:element="⺨" kvg:variant="true" kvg:original="犬" kvg:position="left" kvg:radical="general"> <!--<path id="kvg:072e9-Kaisho-s1" kvg:type="㇒" d="M38.55,17.75c0.07,0.61,0.3,1.78-0.13,2.44C32.92,28.56,27.34,34.49,14,43.54"/>--> <!--<path id="kvg:072e9-Kaisho-s2" kvg:type="㇕va" d="M20.5,22c26.28,22.15,16.24,80.13,5.35,67.85"/>--> <!--<path id="kvg:072e9-Kaisho-s3" kvg:type="㇒" d="M32.33,46c0.05,0.64,0.23,1.89-0.1,2.58c-4.21,8.86-8.49,15.13-18.73,24.71"/>--> </g> <g id="kvg:072e9-Kaisho-g2" kvg:element="守" kvg:position="right"> <g id="kvg:072e9-Kaisho-g3" kvg:element="宀" kvg:position="top"> <!--<path id="kvg:072e9-Kaisho-s4" kvg:type="㇑a" d="M62.01,14.5c4.73,2.64,6.53,4.63,7.91,8.22"/>--> <g id="kvg:072e9-Kaisho-g4" kvg:element="冖"> <!--<path id="kvg:072e9-Kaisho-s5" kvg:type="㇔" d="M48.07,26.48c0,3.62-2.63,13.56-3.83,15.97"/>--> <!--<path id="kvg:072e9-Kaisho-s6" kvg:type="㇖b" d="M49.3,30.54c1.19-0.07,34.59-5.06,41.28-4.96c8.43,0.14,0.58,6.52-0.6,7.24"/>--> </g> </g> <g id="kvg:072e9-Kaisho-g5" kvg:element="寸" kvg:position="bottom"> <!--<path id="kvg:072e9-Kaisho-s7" kvg:type="㇐" d="M42.57,55.08c1.52,0.53,3.21,0.43,4.36,0.28C60.5,53.5,82,49.75,92.47,48.7c1.88-0.19,3.53,0.35,4.48,0.72"/>--> <!--<path id="kvg:072e9-Kaisho-s8" kvg:type="㇚" d="M78.28,37.17c0.12,0.45,1.75,2.35,1.75,5.22c0,15.6-0.36,43.14-0.36,47.83c0,8.27-3.67,1.52-6.64-1.26"/>--> <!--<path id="kvg:072e9-Kaisho-s9" kvg:type="㇔" d="M56.55,63.02c2.31,2.01,5.97,8.26,6.54,11.38"/>--> </g> </g> </g> </g> <g id="kvg:StrokeNumbers_072e9-Kaisho" style="font-size:8;fill:#808080">          </g> </svg> 