<?xml version="1.0" encoding="UTF-8"?>  <!DOCTYPE svg PUBLIC "-//W3C//DTD SVG 1.0//EN" "http://www.w3.org/TR/2001/REC-SVG-20010904/DTD/svg10.dtd"  <!ATTLIST g xmlns:kvg CDATA #FIXED "http://kanjivg.tagaini.net" kvg:element CDATA #IMPLIED kvg:variant CDATA #IMPLIED kvg:partial CDATA #IMPLIED kvg:original CDATA #IMPLIED kvg:part CDATA #IMPLIED kvg:number CDATA #IMPLIED kvg:tradForm CDATA #IMPLIED kvg:radicalForm CDATA #IMPLIED kvg:position CDATA #IMPLIED kvg:radical CDATA #IMPLIED kvg:phon CDATA #IMPLIED > <!ATTLIST path xmlns:kvg CDATA #FIXED "http://kanjivg.tagaini.net" kvg:type CDATA #IMPLIED >  <svg xmlns="http://www.w3.org/2000/svg" width="109" height="109" viewBox="0 0 109 109"> <g id="kvg:StrokePaths_07389-VtLst" style="fill:none;stroke:#000000;stroke-width:3;stroke-linecap:round;stroke-linejoin:round;"> <g id="kvg:07389-VtLst" kvg:element="玉" kvg:radical="general"> <g id="kvg:07389-VtLst-g1" kvg:element="王" kvg:original="玉" kvg:partial="true"> <!--<path id="kvg:07389-VtLst-s1" kvg:type="㇐" d="M28.5,23.34c0.95,0.51,4.04,0.66,5,0.52C45.75,22,57,20,75.5,18.21c1.46-0.14,2.79,0.1,4,0.52"/>--> <!--<path id="kvg:07389-VtLst-s2" kvg:type="㇐" d="M28.75,56.12c0.94,0.55,4.04,0.86,5,0.73c9.5-1.34,29.25-4.59,39-5.38c1.17-0.1,3.75-0.22,5.5,0.26"/>--> <!--<path id="kvg:07389-VtLst-s3" kvg:type="㇐" d="M16,90.51c0.91,0.31,4.41,0.41,5.94,0.25c14.31-1.5,50.81-4.75,67.87-4.85c2.48-0.01,5.45,0.51,6.69,1"/>--> <!--<path id="kvg:07389-VtLst-s4" kvg:type="㇑" d="M52,24.6c1,1.21,2,2.4,2,4.41c0,6.79,0.5,50.15,0.25,56.94"/>--> </g> <g id="kvg:07389-VtLst-g2" kvg:element="丶"> <!--<path id="kvg:07389-VtLst-s5" kvg:type="㇔" d="M72,64c5.43,2.74,10.09,8.57,11.25,12"/>--> </g> </g> </g> <g id="kvg:StrokeNumbers_07389-VtLst" style="font-size:8;fill:#808080">      </g> </svg> 