<?xml version="1.0" encoding="UTF-8"?>  <!DOCTYPE svg PUBLIC "-//W3C//DTD SVG 1.0//EN" "http://www.w3.org/TR/2001/REC-SVG-20010904/DTD/svg10.dtd"  <!ATTLIST g xmlns:kvg CDATA #FIXED "http://kanjivg.tagaini.net" kvg:element CDATA #IMPLIED kvg:variant CDATA #IMPLIED kvg:partial CDATA #IMPLIED kvg:original CDATA #IMPLIED kvg:part CDATA #IMPLIED kvg:number CDATA #IMPLIED kvg:tradForm CDATA #IMPLIED kvg:radicalForm CDATA #IMPLIED kvg:position CDATA #IMPLIED kvg:radical CDATA #IMPLIED kvg:phon CDATA #IMPLIED > <!ATTLIST path xmlns:kvg CDATA #FIXED "http://kanjivg.tagaini.net" kvg:type CDATA #IMPLIED >  <svg xmlns="http://www.w3.org/2000/svg" width="109" height="109" viewBox="0 0 109 109"> <g id="kvg:StrokePaths_073cd-VtLst" style="fill:none;stroke:#000000;stroke-width:3;stroke-linecap:round;stroke-linejoin:round;"> <g id="kvg:073cd-VtLst" kvg:element="珍"> <g id="kvg:073cd-VtLst-g1" kvg:element="王" kvg:original="玉" kvg:partial="true" kvg:position="left" kvg:radical="general"> <!--<path id="kvg:073cd-VtLst-s1" kvg:type="㇐" d="M10.75,28.42c0.56,0.37,3.6,0.45,4.16,0.34c2.63-0.5,15.34-1.59,21.66-2.14c0.86-0.07,2.46-0.26,3.18,0.04"/>--> <!--<path id="kvg:073cd-VtLst-s2" kvg:type="㇑" d="M11.5,52.67c0.55,0.4,4.45,0.46,5.01,0.37c3.25-0.53,13.24-2.62,17.73-3.19c0.69-0.09,2.22-0.16,3.25,0.19"/>--> <!--<path id="kvg:073cd-VtLst-s3" kvg:type="㇐" d="M11.75,81.02c2,1.23,3.68,0.81,4.5,0.4C21.5,78.85,28,75.61,36,71.17"/>--> <!--<path id="kvg:073cd-VtLst-s4" kvg:type="㇐" d="M24.57,30.19c0.87,0.88,1.48,2.78,1.48,3.48c0,5.95,0.52,37.62,0.35,41.57"/>--> </g> <g id="kvg:073cd-VtLst-g2" kvg:position="right"> <g id="kvg:073cd-VtLst-g3" kvg:element="人"> <!--<path id="kvg:073cd-VtLst-s5" kvg:type="㇒" d="M61.03,14.25c0.05,0.73,0.3,1.96-0.11,2.96C57.65,25.08,51.4,36.64,41.3,45.5"/>--> <!--<path id="kvg:073cd-VtLst-s6" kvg:type="㇏" d="M61.84,18.17c4.34,4.73,23.04,20.2,27.82,23.66c1.62,1.18,3.71,1.68,5.33,2.01"/>--> </g> <g id="kvg:073cd-VtLst-g4" kvg:element="彡"> <g id="kvg:073cd-VtLst-g5" kvg:element="丿"> <!--<path id="kvg:073cd-VtLst-s7" kvg:type="㇒" d="M68.14,38.65c0.06,0.45-0.21,1.77-0.62,2.3c-3.27,4.3-8.69,9.89-19.81,16.08"/>--> </g> <g id="kvg:073cd-VtLst-g6" kvg:element="丿"> <!--<path id="kvg:073cd-VtLst-s8" kvg:type="㇒" d="M73.84,55.74c0.08,0.51-0.16,1.43-0.65,2.04c-4.47,5.5-11.11,13.03-26.26,19.53"/>--> </g> <g id="kvg:073cd-VtLst-g7" kvg:element="丿"> <!--<path id="kvg:073cd-VtLst-s9" kvg:type="㇒" d="M82.43,70.96c0.12,0.63-0.04,1.77-0.73,2.52C75.98,79.83,62.5,91.25,41.22,97.6"/>--> </g> </g> </g> </g> </g> <g id="kvg:StrokeNumbers_073cd-VtLst" style="font-size:8;fill:#808080">          </g> </svg> 