<?xml version="1.0" encoding="UTF-8"?>  <!DOCTYPE svg PUBLIC "-//W3C//DTD SVG 1.0//EN" "http://www.w3.org/TR/2001/REC-SVG-20010904/DTD/svg10.dtd"  <!ATTLIST g xmlns:kvg CDATA #FIXED "http://kanjivg.tagaini.net" kvg:element CDATA #IMPLIED kvg:variant CDATA #IMPLIED kvg:partial CDATA #IMPLIED kvg:original CDATA #IMPLIED kvg:part CDATA #IMPLIED kvg:number CDATA #IMPLIED kvg:tradForm CDATA #IMPLIED kvg:radicalForm CDATA #IMPLIED kvg:position CDATA #IMPLIED kvg:radical CDATA #IMPLIED kvg:phon CDATA #IMPLIED > <!ATTLIST path xmlns:kvg CDATA #FIXED "http://kanjivg.tagaini.net" kvg:type CDATA #IMPLIED >  <svg xmlns="http://www.w3.org/2000/svg" width="109" height="109" viewBox="0 0 109 109"> <g id="kvg:StrokePaths_073ea-VtLst" style="fill:none;stroke:#000000;stroke-width:3;stroke-linecap:round;stroke-linejoin:round;"> <g id="kvg:073ea-VtLst" kvg:element="珪"> <g id="kvg:073ea-VtLst-g1" kvg:element="王" kvg:original="玉" kvg:partial="true" kvg:position="left" kvg:radical="general"> <!--<path id="kvg:073ea-VtLst-s1" kvg:type="㇐" d="M13.25,27.25c0.56,0.37,3.6,0.45,4.16,0.34c2.63-0.5,13.34-2.09,19.66-2.64c0.86-0.07,2.46-0.26,3.18,0.04"/>--> <!--<path id="kvg:073ea-VtLst-s2" kvg:type="㇐" d="M14,52.5c0.55,0.4,4.45,0.46,5.01,0.37c3.25-0.53,13.74-3.12,18.23-3.69c0.69-0.09,1.22-0.16,2.25,0.19"/>--> <!--<path id="kvg:073ea-VtLst-s3" kvg:type="㇐" d="M11.75,81.18c0.56,0.24,2.79,2.01,3.64,1.56c5.47-2.87,15.28-8.54,23.61-13.5"/>--> <!--<path id="kvg:073ea-VtLst-s4" kvg:type="㇑" d="M26.57,29.52c0.87,0.88,1.48,2.78,1.48,3.48c0,5.95,0.52,37.62,0.35,41.57"/>--> </g> <g id="kvg:073ea-VtLst-g2" kvg:element="圭" kvg:position="right"> <g id="kvg:073ea-VtLst-g3" kvg:element="土" kvg:position="top"> <!--<path id="kvg:073ea-VtLst-s5" kvg:type="㇐" d="M48.55,33.24c0.95,0.48,2.7,0.55,3.66,0.48c9-0.61,21.15-2.87,33.5-3.3c1.59-0.06,2.55,0.23,3.34,0.47"/>--> <!--<path id="kvg:073ea-VtLst-s6" kvg:type="㇑a" d="M65.95,12.87c0.13,0.32,1.91,1.65,1.91,3.66c0,12.97,0.15,17.21,0.15,34.36"/>--> <!--<path id="kvg:073ea-VtLst-s7" kvg:type="㇐" d="M46.2,52.15c1.44,0.51,3.08,0.58,4.53,0.51c8.53-0.42,27.78-2.67,37.23-3.04c2.4-0.09,3.33,0.24,4.55,0.5"/>--> </g> <g id="kvg:073ea-VtLst-g4" kvg:element="土" kvg:position="bottom"> <!--<path id="kvg:073ea-VtLst-s8" kvg:type="㇐" d="M47.32,72.46c0.98,0.38,2.76,0.45,3.74,0.38c14.59-0.99,24.61-2.86,35.53-3.15c1.62-0.04,2.6,0.18,3.41,0.37"/>--> <!--<path id="kvg:073ea-VtLst-s9" kvg:type="㇑a" d="M66.6,55.82c0.12,0.28,1.68,1.45,1.68,3.22c0,11.39,0.13,17.64,0.13,32.7"/>--> <!--<path id="kvg:073ea-VtLst-s10" kvg:type="㇐" d="M42.8,93.01c1.44,0.51,3.09,0.63,4.53,0.51c17.85-1.44,29.36-1.86,45.33-2.54c2.4-0.1,3.34,0.25,4.55,0.5"/>--> </g> </g> </g> </g> <g id="kvg:StrokeNumbers_073ea-VtLst" style="font-size:8;fill:#808080">           </g> </svg> 