<?xml version="1.0" encoding="UTF-8"?>  <!DOCTYPE svg PUBLIC "-//W3C//DTD SVG 1.0//EN" "http://www.w3.org/TR/2001/REC-SVG-20010904/DTD/svg10.dtd"  <!ATTLIST g xmlns:kvg CDATA #FIXED "http://kanjivg.tagaini.net" kvg:element CDATA #IMPLIED kvg:variant CDATA #IMPLIED kvg:partial CDATA #IMPLIED kvg:original CDATA #IMPLIED kvg:part CDATA #IMPLIED kvg:number CDATA #IMPLIED kvg:tradForm CDATA #IMPLIED kvg:radicalForm CDATA #IMPLIED kvg:position CDATA #IMPLIED kvg:radical CDATA #IMPLIED kvg:phon CDATA #IMPLIED > <!ATTLIST path xmlns:kvg CDATA #FIXED "http://kanjivg.tagaini.net" kvg:type CDATA #IMPLIED >  <svg xmlns="http://www.w3.org/2000/svg" width="109" height="109" viewBox="0 0 109 109"> <g id="kvg:StrokePaths_073e0-Kaisho" style="fill:none;stroke:#000000;stroke-width:3;stroke-linecap:round;stroke-linejoin:round;"> <g id="kvg:073e0-Kaisho" kvg:element="珠"> <g id="kvg:073e0-Kaisho-g1" kvg:element="王" kvg:original="玉" kvg:partial="true" kvg:position="left" kvg:radical="general"> <!--<path id="kvg:073e0-Kaisho-s1" kvg:type="㇐" d="M10.65,28.02c0.52,0.33,3.35,0.41,3.88,0.31c2.45-0.45,12.43-1.9,18.32-2.39c0.8-0.07,2.29-0.24,2.96,0.04"/>--> <!--<path id="kvg:073e0-Kaisho-s2" kvg:type="㇑a" d="M22.59,30.08c0.81,0.8,1.38,2.51,1.38,3.15c0,5.39-0.18,29.02-0.18,39.66"/>--> <!--<path id="kvg:073e0-Kaisho-s3" kvg:type="㇐" d="M10.98,50.35c0.52,0.37,3.14,0.38,3.67,0.34c5.1-0.44,12.6-2.69,17.38-3.3c0.64-0.08,2-0.15,2.96,0.17"/>--> <!--<path id="kvg:073e0-Kaisho-s4" kvg:type="㇐" d="M10.75,76.9c0.51,0.2,2.49,1.75,3.26,1.36c4.89-2.49,11.88-6.12,19.33-10.42"/>--> </g> <g id="kvg:073e0-Kaisho-g2" kvg:element="朱" kvg:position="right"> <!--<path id="kvg:073e0-Kaisho-s5" kvg:type="㇒" d="M50.78,22.74c0.03,0.51,0.11,1.48-0.06,2.06c-2.06,7.22-5.11,13.85-10.48,19.67"/>--> <g id="kvg:073e0-Kaisho-g3" kvg:element="未"> <!--<path id="kvg:073e0-Kaisho-s6" kvg:type="㇐" d="M49.76,33.55c0.6,0.23,1.69,0.26,2.3,0.23c6.23-0.26,20.55-3.52,28.13-4.27c1-0.1,1.6,0.11,2.1,0.22"/>--> <g id="kvg:073e0-Kaisho-g4" kvg:element="木"> <!--<path id="kvg:073e0-Kaisho-s7" kvg:type="㇐" d="M39.93,52.22c0.61,0.15,2.23,0.55,3.84,0.44c6.41-0.44,30.64-3.07,41.75-3.8c1.61-0.11,3.04,0.15,4.05,0.29"/>--> <!--<path id="kvg:073e0-Kaisho-s8" kvg:type="㇑" d="M61.43,11.75c1.32,1.01,1.86,2.24,2.15,3.23s-0.29,75.27-0.29,76.52c0,12.5-4.91,3.12-6.54,1.5"/>--> <!--<path id="kvg:073e0-Kaisho-s9" kvg:type="㇒" d="M62.04,53.01C56.76,64.06,43.09,79.82,32.1,86.08"/>--> <!--<path id="kvg:073e0-Kaisho-s10" kvg:type="㇏" d="M64.78,52.28c3.86,5.68,20.15,21.9,25.9,26.65c1.43,1.19,2.58,1.79,3.98,2.15"/>--> </g> </g> </g> </g> </g> <g id="kvg:StrokeNumbers_073e0-Kaisho" style="font-size:8;fill:#808080">           </g> </svg> 