<?xml version="1.0" encoding="UTF-8"?>  <!DOCTYPE svg PUBLIC "-//W3C//DTD SVG 1.0//EN" "http://www.w3.org/TR/2001/REC-SVG-20010904/DTD/svg10.dtd"  <!ATTLIST g xmlns:kvg CDATA #FIXED "http://kanjivg.tagaini.net" kvg:element CDATA #IMPLIED kvg:variant CDATA #IMPLIED kvg:partial CDATA #IMPLIED kvg:original CDATA #IMPLIED kvg:part CDATA #IMPLIED kvg:number CDATA #IMPLIED kvg:tradForm CDATA #IMPLIED kvg:radicalForm CDATA #IMPLIED kvg:position CDATA #IMPLIED kvg:radical CDATA #IMPLIED kvg:phon CDATA #IMPLIED > <!ATTLIST path xmlns:kvg CDATA #FIXED "http://kanjivg.tagaini.net" kvg:type CDATA #IMPLIED >  <svg xmlns="http://www.w3.org/2000/svg" width="109" height="109" viewBox="0 0 109 109"> <g id="kvg:StrokePaths_0751f-VtLst" style="fill:none;stroke:#000000;stroke-width:3;stroke-linecap:round;stroke-linejoin:round;"> <g id="kvg:0751f-VtLst" kvg:element="生" kvg:radical="general"> <!--<path id="kvg:0751f-VtLst-s1" kvg:type="㇒" d="M31.02,27.14c0.03,0.57,0.07,1.47-0.07,2.28C30.13,34.23,25.43,44.79,19,51.25"/>--> <!--<path id="kvg:0751f-VtLst-s2" kvg:type="㇐" d="M30.88,40.92c0.94,0.38,2.66,0.46,3.6,0.38c6.77-0.55,34.52-6.8,40.36-7.38c1.56-0.16,2.21-0.09,3.03-0.02"/>--> <!--<path id="kvg:0751f-VtLst-s3" kvg:type="㇐" d="M30.88,64.53c0.94,0.28,2.66,0.34,3.6,0.28c6.77-0.4,35.52-4.99,41.36-5.42c1.56-0.11,2.21-0.06,3.03-0.02"/>--> <!--<path id="kvg:0751f-VtLst-s4" kvg:type="㇐" d="M17.88,91.25c1.47,0.3,4.15,0.36,5.62,0.3c10.56-0.43,52.41-5.34,61.52-5.8c2.43-0.12,4.48,0.25,6.73,0.98"/>--> <!--<path id="kvg:0751f-VtLst-s5" kvg:type="㇑" d="M51.81,12.88c0.76,0.52,2.36,3.93,2.51,4.98c0.15,1.05-0.1,63.46-0.25,70.02"/>--> </g> </g> <g id="kvg:StrokeNumbers_0751f-VtLst" style="font-size:8;fill:#808080">      </g> </svg> 