<?xml version="1.0" encoding="UTF-8"?>  <!DOCTYPE svg PUBLIC "-//W3C//DTD SVG 1.0//EN" "http://www.w3.org/TR/2001/REC-SVG-20010904/DTD/svg10.dtd"  <!ATTLIST g xmlns:kvg CDATA #FIXED "http://kanjivg.tagaini.net" kvg:element CDATA #IMPLIED kvg:variant CDATA #IMPLIED kvg:partial CDATA #IMPLIED kvg:original CDATA #IMPLIED kvg:part CDATA #IMPLIED kvg:number CDATA #IMPLIED kvg:tradForm CDATA #IMPLIED kvg:radicalForm CDATA #IMPLIED kvg:position CDATA #IMPLIED kvg:radical CDATA #IMPLIED kvg:phon CDATA #IMPLIED > <!ATTLIST path xmlns:kvg CDATA #FIXED "http://kanjivg.tagaini.net" kvg:type CDATA #IMPLIED >  <svg xmlns="http://www.w3.org/2000/svg" width="109" height="109" viewBox="0 0 109 109"> <g id="kvg:StrokePaths_07530-Kaisho" style="fill:none;stroke:#000000;stroke-width:3;stroke-linecap:round;stroke-linejoin:round;"> <g id="kvg:07530-Kaisho" kvg:element="田" kvg:radical="general"> <!--<path id="kvg:07530-Kaisho-s1" kvg:type="㇑" d="M19,27.48c0.5,1.02,0.51,1.7,0.78,2.95C22,40.75,24,66.5,25.31,85.5"/>--> <!--<path id="kvg:07530-Kaisho-s2" kvg:type="㇕a" d="M21.35,29.04C39,28,69.25,26.25,82.43,25.24c4.84-0.37,7.3,2.62,7.04,5.38C88.5,40.75,86,66,85.01,81.87"/>--> <!--<path id="kvg:07530-Kaisho-s3" kvg:type="㇑a" d="M54.5,28.75c-0.03,0.79-0.05,2.18-0.06,4c-0.06,11.96,0.31,42.66,0.31,47"/>--> <!--<path id="kvg:07530-Kaisho-s4" kvg:type="㇐a" d="M24.5,55.5c13.67-1.19,27.43-1.76,41.13-2.52c1.65-0.09,3.25-0.18,4.78-0.26"/>--> <!--<path id="kvg:07530-Kaisho-s5" kvg:type="㇐a" d="M26.23,82.82c12.7,0,41.39-2.3,58.93-2.58"/>--> </g> </g> <g id="kvg:StrokeNumbers_07530-Kaisho" style="font-size:8;fill:#808080">      </g> </svg> 