<?xml version="1.0" encoding="UTF-8"?>  <!DOCTYPE svg PUBLIC "-//W3C//DTD SVG 1.0//EN" "http://www.w3.org/TR/2001/REC-SVG-20010904/DTD/svg10.dtd"  <!ATTLIST g xmlns:kvg CDATA #FIXED "http://kanjivg.tagaini.net" kvg:element CDATA #IMPLIED kvg:variant CDATA #IMPLIED kvg:partial CDATA #IMPLIED kvg:original CDATA #IMPLIED kvg:part CDATA #IMPLIED kvg:number CDATA #IMPLIED kvg:tradForm CDATA #IMPLIED kvg:radicalForm CDATA #IMPLIED kvg:position CDATA #IMPLIED kvg:radical CDATA #IMPLIED kvg:phon CDATA #IMPLIED > <!ATTLIST path xmlns:kvg CDATA #FIXED "http://kanjivg.tagaini.net" kvg:type CDATA #IMPLIED >  <svg xmlns="http://www.w3.org/2000/svg" width="109" height="109" viewBox="0 0 109 109"> <g id="kvg:StrokePaths_07532-Kaisho" style="fill:none;stroke:#000000;stroke-width:3;stroke-linecap:round;stroke-linejoin:round;"> <g id="kvg:07532-Kaisho" kvg:element="甲"> <g id="kvg:07532-Kaisho-g1" kvg:element="田" kvg:partial="true" kvg:radical="tradit"> <!--<path id="kvg:07532-Kaisho-s1" kvg:type="㇑" d="M20.38,21.55c0.47,0.71,0.48,1.19,0.73,2.07c2.08,7.24,3.95,26.8,5.18,40.13"/>--> <!--<path id="kvg:07532-Kaisho-s2" kvg:type="㇕" d="M22.58,23.65C40.5,22,67.42,19.19,79.75,18.48c4.53-0.26,7.25,1.27,7.09,4.27c-0.38,7.14-4.34,33.49-5.17,36.45"/>--> <!--<path id="kvg:07532-Kaisho-s3" kvg:type="㇐" d="M25.53,41.21c13.29-0.87,26.57-1.89,39.86-2.8c1.6-0.11,3.15-0.21,4.64-0.31"/>--> <!--<path id="kvg:07532-Kaisho-s4" kvg:type="㇐" d="M27.15,60.37c15.6-1.62,37.6-2.62,54.66-3.31"/>--> </g> <g id="kvg:07532-Kaisho-g2" kvg:element="丨" kvg:radical="nelson"> <!--<path id="kvg:07532-Kaisho-s5" kvg:type="㇑" d="M52.11,22.44c0.89,0.56,1.44,2.03,1.44,3.81c-0.03,8.98,0.3,66.54,0.3,69.47"/>--> </g> </g> </g> <g id="kvg:StrokeNumbers_07532-Kaisho" style="font-size:8;fill:#808080">      </g> </svg> 