<?xml version="1.0" encoding="UTF-8"?>  <!DOCTYPE svg PUBLIC "-//W3C//DTD SVG 1.0//EN" "http://www.w3.org/TR/2001/REC-SVG-20010904/DTD/svg10.dtd"  <!ATTLIST g xmlns:kvg CDATA #FIXED "http://kanjivg.tagaini.net" kvg:element CDATA #IMPLIED kvg:variant CDATA #IMPLIED kvg:partial CDATA #IMPLIED kvg:original CDATA #IMPLIED kvg:part CDATA #IMPLIED kvg:number CDATA #IMPLIED kvg:tradForm CDATA #IMPLIED kvg:radicalForm CDATA #IMPLIED kvg:position CDATA #IMPLIED kvg:radical CDATA #IMPLIED kvg:phon CDATA #IMPLIED > <!ATTLIST path xmlns:kvg CDATA #FIXED "http://kanjivg.tagaini.net" kvg:type CDATA #IMPLIED >  <svg xmlns="http://www.w3.org/2000/svg" width="109" height="109" viewBox="0 0 109 109"> <g id="kvg:StrokePaths_07537-Kaisho" style="fill:none;stroke:#000000;stroke-width:3;stroke-linecap:round;stroke-linejoin:round;"> <g id="kvg:07537-Kaisho" kvg:element="男"> <g id="kvg:07537-Kaisho-g1" kvg:element="田" kvg:position="top" kvg:radical="general"> <!--<path id="kvg:07537-Kaisho-s1" kvg:type="㇑" d="M27.25,14c0.75,1,1.06,2.24,1.23,3.23c1.02,5.77,2.09,18.79,3.14,29.52"/>--> <!--<path id="kvg:07537-Kaisho-s2" kvg:type="㇕a" d="M29.25,15.45c13.82-1.04,38.88-3.55,48.31-3.71c3.9-0.07,5.87,1.48,5.66,3.04C82.44,20.49,80,32,77.63,41.7"/>--> <!--<path id="kvg:07537-Kaisho-s3" kvg:type="㇑a" d="M53.5,15.72c0.5,0.78,1,1.66,1,2.54c0.03,8.9,0.2,20.68,0.2,23.25"/>--> <!--<path id="kvg:07537-Kaisho-s4" kvg:type="㇐a" d="M30.98,30.82c10.81-0.68,21.62-2.31,32.39-3.48c1.29-0.14,2.55-0.27,3.76-0.4"/>--> <!--<path id="kvg:07537-Kaisho-s5" kvg:type="㇐a" d="M32.37,45.24C45.75,43.25,62,41.5,77.76,40.78"/>--> </g> <g id="kvg:07537-Kaisho-g2" kvg:element="力" kvg:position="bottom"> <!--<path id="kvg:07537-Kaisho-s6" kvg:type="㇆" d="M20.48,61.48c1.44,0.45,3.24,0.35,4.5,0.24c12.02-0.98,49.84-6.59,55.52-7.05c3.69-0.3,4.72,1.35,4.51,3.45c-0.54,5.55-11.82,31.28-16.82,35.98c-4.94,4.64-6.44,2.64-8.69-0.36"/>--> <!--<path id="kvg:07537-Kaisho-s7" kvg:type="㇒" d="M53.47,46.43c0.1,1.07,0.25,2.78-0.2,4.32C49.9,62.13,39.5,80.33,17.39,92.06"/>--> </g> </g> </g> <g id="kvg:StrokeNumbers_07537-Kaisho" style="font-size:8;fill:#808080">        </g> </svg> 