<?xml version="1.0" encoding="UTF-8"?>  <!DOCTYPE svg PUBLIC "-//W3C//DTD SVG 1.0//EN" "http://www.w3.org/TR/2001/REC-SVG-20010904/DTD/svg10.dtd"  <!ATTLIST g xmlns:kvg CDATA #FIXED "http://kanjivg.tagaini.net" kvg:element CDATA #IMPLIED kvg:variant CDATA #IMPLIED kvg:partial CDATA #IMPLIED kvg:original CDATA #IMPLIED kvg:part CDATA #IMPLIED kvg:number CDATA #IMPLIED kvg:tradForm CDATA #IMPLIED kvg:radicalForm CDATA #IMPLIED kvg:position CDATA #IMPLIED kvg:radical CDATA #IMPLIED kvg:phon CDATA #IMPLIED > <!ATTLIST path xmlns:kvg CDATA #FIXED "http://kanjivg.tagaini.net" kvg:type CDATA #IMPLIED >  <svg xmlns="http://www.w3.org/2000/svg" width="109" height="109" viewBox="0 0 109 109"> <g id="kvg:StrokePaths_075c5-Kaisho" style="fill:none;stroke:#000000;stroke-width:3;stroke-linecap:round;stroke-linejoin:round;"> <g id="kvg:075c5-Kaisho" kvg:element="病"> <g id="kvg:075c5-Kaisho-g1" kvg:element="疒" kvg:position="tare" kvg:radical="general"> <!--<path id="kvg:075c5-Kaisho-s1" kvg:type="㇑a" d="M53.18,10.63c2.64,1.03,8.24,7.74,8.76,9.8"/>--> <!--<path id="kvg:075c5-Kaisho-s2" kvg:type="㇐" d="M29.13,27.23c1.52,0.54,2.8,0.63,4.32,0.54c15.8-0.91,40.8-4.27,54.11-4.23c2.53,0.01,4.05,0.26,5.31,0.53"/>--> <!--<path id="kvg:075c5-Kaisho-s3" kvg:type="㇒" d="M32.49,30c0.04,1.59-0.09,4.09-0.09,6.38c0,17.62-1.66,45.12-16.1,58.09"/>--> <!--<path id="kvg:075c5-Kaisho-s4" kvg:type="㇔" d="M14.75,38c2.74,1.63,7.07,6.71,7.75,9.25"/>--> <!--<path id="kvg:075c5-Kaisho-s5" kvg:type="㇀" d="M9.17,66.47c1.68,1.58,3.97,2.38,5.46,1.61c4.34-2.26,8.87-5.27,13.12-8.58"/>--> </g> <g id="kvg:075c5-Kaisho-g2" kvg:element="丙"> <g id="kvg:075c5-Kaisho-g3" kvg:element="一"> <!--<path id="kvg:075c5-Kaisho-s6" kvg:type="㇐" d="M43.5,42.4c1.02,0.37,2.9,0.55,3.9,0.37c4.12-0.72,27.85-3.27,37.53-3.26c1.7,0,2.72,0.18,3.57,0.36"/>--> </g> <g id="kvg:075c5-Kaisho-g4" kvg:element="内"> <g id="kvg:075c5-Kaisho-g5" kvg:element="冂"> <!--<path id="kvg:075c5-Kaisho-s7" kvg:type="㇑" d="M41.86,60.97c0.53,0.59,0.7,1.81,0.7,2.89c0,5.39,0.18,32.33,0.18,34.1"/>--> <!--<path id="kvg:075c5-Kaisho-s8" kvg:type="㇆a" d="M44.32,62.44c6.69-0.47,41.66-4.16,42.94-4.24c2.99-0.2,4,1.55,3.87,5.89c-0.13,4.66-1.12,28.18-1.32,30.89c-0.22,3.04-2.81,2.77-5.19,0.8"/>--> </g> <g id="kvg:075c5-Kaisho-g6" kvg:element="人"> <!--<path id="kvg:075c5-Kaisho-s9" kvg:type="㇒" d="M63.94,44c0.46,0.51,0.48,2.49,0.52,3.89c0.4,11.66-4.81,31.14-15.76,37.23"/>--> <!--<path id="kvg:075c5-Kaisho-s10" kvg:type="㇔/㇏" d="M66.44,69.65c4.26,2.31,11.01,9.5,12.08,13.09"/>--> </g> </g> </g> </g> </g> <g id="kvg:StrokeNumbers_075c5-Kaisho" style="font-size:8;fill:#808080">           </g> </svg> 