<?xml version="1.0" encoding="UTF-8"?>  <!DOCTYPE svg PUBLIC "-//W3C//DTD SVG 1.0//EN" "http://www.w3.org/TR/2001/REC-SVG-20010904/DTD/svg10.dtd"  <!ATTLIST g xmlns:kvg CDATA #FIXED "http://kanjivg.tagaini.net" kvg:element CDATA #IMPLIED kvg:variant CDATA #IMPLIED kvg:partial CDATA #IMPLIED kvg:original CDATA #IMPLIED kvg:part CDATA #IMPLIED kvg:number CDATA #IMPLIED kvg:tradForm CDATA #IMPLIED kvg:radicalForm CDATA #IMPLIED kvg:position CDATA #IMPLIED kvg:radical CDATA #IMPLIED kvg:phon CDATA #IMPLIED > <!ATTLIST path xmlns:kvg CDATA #FIXED "http://kanjivg.tagaini.net" kvg:type CDATA #IMPLIED >  <svg xmlns="http://www.w3.org/2000/svg" width="109" height="109" viewBox="0 0 109 109"> <g id="kvg:StrokePaths_075e9-Kaisho" style="fill:none;stroke:#000000;stroke-width:3;stroke-linecap:round;stroke-linejoin:round;"> <g id="kvg:075e9-Kaisho" kvg:element="痩"> <g id="kvg:075e9-Kaisho-g1" kvg:element="疒" kvg:position="tare" kvg:radical="general"> <!--<path id="kvg:075e9-Kaisho-s1" kvg:type="㇑a" d="M52.3,11.13c2.12,0.82,6.61,6.16,7.03,7.8"/>--> <!--<path id="kvg:075e9-Kaisho-s2" kvg:type="㇐" d="M26.13,24.73c1.52,0.54,4.3,0.63,5.82,0.54c15.8-0.91,38.05-3.02,52.11-3.73c2.53-0.13,4.05,0.26,5.31,0.53"/>--> <!--<path id="kvg:075e9-Kaisho-s3" kvg:type="㇒" d="M31.49,27c-0.24,32.75-4.24,48.75-16.69,67.72"/>--> <!--<path id="kvg:075e9-Kaisho-s4" kvg:type="㇔" d="M14.25,38.5c2.74,1.63,7.07,6.71,7.75,9.25"/>--> <!--<path id="kvg:075e9-Kaisho-s5" kvg:type="㇀" d="M11.17,64.58c1.46,0.59,1.91,0.42,3.2-0.3c5.2-2.91,8.2-4.77,12.13-7.29"/>--> </g> <g id="kvg:075e9-Kaisho-g2" kvg:element="叟" kvg:partial="true"> <g id="kvg:075e9-Kaisho-g3" kvg:element="申" kvg:position="top"> <g id="kvg:075e9-Kaisho-g4" kvg:element="田" kvg:original="臼" kvg:partial="true"> <!--<path id="kvg:075e9-Kaisho-s6" kvg:type="㇑" d="M39.26,38.26c0.32,0.36,0.33,0.61,0.5,1.06c1.5,3.84,3.67,14.13,4.53,20.99"/>--> <!--<path id="kvg:075e9-Kaisho-s7" kvg:type="㇕" d="M40.77,39.27c11.35-0.78,30.6-3.55,39.07-4.21c3.11-0.25,4.72,0.75,4.54,2.64c-0.37,3.73-3.05,13.35-4.6,19.33"/>--> <!--<path id="kvg:075e9-Kaisho-s8" kvg:type="㇐" d="M42.16,48.74C51.13,48,60.09,47,69.06,46.14c1.08-0.1,2.12-0.2,3.13-0.3"/>--> <!--<path id="kvg:075e9-Kaisho-s9" kvg:type="㇐" d="M44.84,57.82c8.17-0.29,24.11-2.24,35.39-2.74"/>--> </g> <g id="kvg:075e9-Kaisho-g5" kvg:element="丨"> <!--<path id="kvg:075e9-Kaisho-s10" kvg:type="㇑" d="M58.75,28.25c1.16,0.42,1.86,1.89,2.09,2.72c0.23,0.84,0.3,26.29,0.3,35.31"/>--> </g> </g> <g id="kvg:075e9-Kaisho-g6" kvg:element="又" kvg:position="bottom"> <!--<path id="kvg:075e9-Kaisho-s11" kvg:type="㇇" d="M41.58,69.19c1.44,0.21,1.62,0.54,4.51,0.21c2.89-0.32,26.2-3.6,28.18-3.93c1.98-0.32,3.53,1.22,2.71,2.36C67.19,81.24,54,91,35.72,96.75"/>--> <!--<path id="kvg:075e9-Kaisho-s12" kvg:type="㇏" d="M45.64,73.92c6.11-0.17,23.11,14.83,40.63,21.86c2.36,0.95,4.07,1.61,6.26,1.93"/>--> </g> </g> </g> </g> <g id="kvg:StrokeNumbers_075e9-Kaisho" style="font-size:8;fill:#808080">             </g> </svg> 