<?xml version="1.0" encoding="UTF-8"?>  <!DOCTYPE svg PUBLIC "-//W3C//DTD SVG 1.0//EN" "http://www.w3.org/TR/2001/REC-SVG-20010904/DTD/svg10.dtd"  <!ATTLIST g xmlns:kvg CDATA #FIXED "http://kanjivg.tagaini.net" kvg:element CDATA #IMPLIED kvg:variant CDATA #IMPLIED kvg:partial CDATA #IMPLIED kvg:original CDATA #IMPLIED kvg:part CDATA #IMPLIED kvg:number CDATA #IMPLIED kvg:tradForm CDATA #IMPLIED kvg:radicalForm CDATA #IMPLIED kvg:position CDATA #IMPLIED kvg:radical CDATA #IMPLIED kvg:phon CDATA #IMPLIED > <!ATTLIST path xmlns:kvg CDATA #FIXED "http://kanjivg.tagaini.net" kvg:type CDATA #IMPLIED >  <svg xmlns="http://www.w3.org/2000/svg" width="109" height="109" viewBox="0 0 109 109"> <g id="kvg:StrokePaths_07642-Kaisho" style="fill:none;stroke:#000000;stroke-width:3;stroke-linecap:round;stroke-linejoin:round;"> <g id="kvg:07642-Kaisho" kvg:element="療"> <g id="kvg:07642-Kaisho-g1" kvg:element="疒" kvg:position="tare" kvg:radical="general"> <!--<path id="kvg:07642-Kaisho-s1" kvg:type="㇑a" d="M56.05,10.88c1.82,0.64,5.67,4.78,6.03,6.05"/>--> <!--<path id="kvg:07642-Kaisho-s2" kvg:type="㇐" d="M28.88,24.98c1.52,0.54,4.3,0.63,5.82,0.54c15.8-0.91,35.05-4.02,49.11-4.73c2.53-0.13,4.05,0.26,5.31,0.53"/>--> <!--<path id="kvg:07642-Kaisho-s3" kvg:type="㇒" d="M32.24,26.75c0,31-1.99,46.25-13.19,63.97"/>--> <!--<path id="kvg:07642-Kaisho-s4" kvg:type="㇔" d="M15.75,37c3,1.41,7.75,5.8,8.5,8"/>--> <!--<path id="kvg:07642-Kaisho-s5" kvg:type="㇀" d="M12.42,66.29c1.48,0.67,1.95,0.47,3.25-0.34c5.28-3.28,8.33-5.37,12.33-8.2"/>--> </g> <g id="kvg:07642-Kaisho-g2" kvg:element="大"> <!--<path id="kvg:07642-Kaisho-s6" kvg:type="㇐" d="M40.7,36.7c0.76,0.4,2.8,0.87,4.42,0.69c10.97-1.19,22.32-4.48,32.17-5.06c1.69-0.1,3.05-0.05,4.58,0.26"/>--> <!--<path id="kvg:07642-Kaisho-s7" kvg:type="㇒" d="M60.56,26c0.43,0.55,0.56,1.67,0.16,2.79C55.58,43,47.08,56.2,31.48,65.76"/>--> <!--<path id="kvg:07642-Kaisho-s8" kvg:type="㇏" d="M63.91,34.56c5.94,4.71,19.8,16.72,25.73,19.88c2.02,1.07,2.72,1.23,3.64,1.33"/>--> </g> <!--<path id="kvg:07642-Kaisho-s9" kvg:type="㇔" d="M38.76,44.35c2.39,1.09,6.17,4.49,6.77,6.19"/>--> <!--<path id="kvg:07642-Kaisho-s10" kvg:type="㇒" d="M85.61,38.2c0.02,0.19,0.04,0.49-0.04,0.77c-0.49,1.62-3.32,5.18-7.19,7.36"/>--> <g id="kvg:07642-Kaisho-g3" kvg:element="日"> <!--<path id="kvg:07642-Kaisho-s11" kvg:type="㇑" d="M48.41,54.58c0.21,0.35,0.21,0.59,0.32,1.02c0.93,3.59,2.22,12.64,2.79,19.33"/>--> <!--<path id="kvg:07642-Kaisho-s12" kvg:type="㇕a" d="M49.38,55.5c7.2-0.9,20.39-2.39,25.76-3.15c1.97-0.28,2.98,0.7,2.88,1.69c-0.37,3.61-2.58,12.98-3.48,19.02"/>--> <!--<path id="kvg:07642-Kaisho-s13" kvg:type="㇐a" d="M50.72,64.33c4.18-0.63,8.4-1.1,12.59-1.62c1.42-0.18,2.84-0.35,4.18-0.52"/>--> <!--<path id="kvg:07642-Kaisho-s14" kvg:type="㇐a" d="M51.9,73.52c5.18-0.38,15.48-1.56,22.64-2.18"/>--> </g> <g id="kvg:07642-Kaisho-g4" kvg:element="小"> <!--<path id="kvg:07642-Kaisho-s15" kvg:type="㇚" d="M62.75,74.7c0.06,0.32,0.92,1.64,0.92,3.65c0,4.79-0.19,10.69-0.19,13.97c0,10.18-5.31,0.99-6.41,0.17"/>--> <!--<path id="kvg:07642-Kaisho-s16" kvg:type="㇒" d="M48.28,80.44c0.04,0.32,0.08,0.83-0.08,1.3c-0.94,2.74-6.33,8.74-13.71,12.41"/>--> <!--<path id="kvg:07642-Kaisho-s17" kvg:type="㇔" d="M75.62,79.96c4.3,2.17,11.11,8.92,12.18,12.3"/>--> </g> </g> </g> <g id="kvg:StrokeNumbers_07642-Kaisho" style="font-size:8;fill:#808080">                  </g> </svg> 