<?xml version="1.0" encoding="UTF-8"?>  <!DOCTYPE svg PUBLIC "-//W3C//DTD SVG 1.0//EN" "http://www.w3.org/TR/2001/REC-SVG-20010904/DTD/svg10.dtd"  <!ATTLIST g xmlns:kvg CDATA #FIXED "http://kanjivg.tagaini.net" kvg:element CDATA #IMPLIED kvg:variant CDATA #IMPLIED kvg:partial CDATA #IMPLIED kvg:original CDATA #IMPLIED kvg:part CDATA #IMPLIED kvg:number CDATA #IMPLIED kvg:tradForm CDATA #IMPLIED kvg:radicalForm CDATA #IMPLIED kvg:position CDATA #IMPLIED kvg:radical CDATA #IMPLIED kvg:phon CDATA #IMPLIED > <!ATTLIST path xmlns:kvg CDATA #FIXED "http://kanjivg.tagaini.net" kvg:type CDATA #IMPLIED >  <svg xmlns="http://www.w3.org/2000/svg" width="109" height="109" viewBox="0 0 109 109"> <g id="kvg:StrokePaths_07686-Kaisho" style="fill:none;stroke:#000000;stroke-width:3;stroke-linecap:round;stroke-linejoin:round;"> <g id="kvg:07686-Kaisho" kvg:element="皆"> <g id="kvg:07686-Kaisho-g1" kvg:element="比" kvg:position="top" kvg:radical="nelson"> <g id="kvg:07686-Kaisho-g2" kvg:position="left"> <!--<path id="kvg:07686-Kaisho-s1" kvg:type="㇐b" d="M26.75,31.25c4.5-0.75,13.75-2.5,18.75-3.25c1.48-0.22,3-0.25,4,0"/>--> <!--<path id="kvg:07686-Kaisho-s2" kvg:type="㇙" d="M24.5,14.64c1.25,0.86,1.51,2.42,1.51,3.3c0,6.56,0.8,29.13-0.34,31.57c-1.33,2.85,0.21,5.43,4.33,2.67c6.25-4.18,8.83-5.85,13.25-8.43"/>--> </g> <g id="kvg:07686-Kaisho-g3" kvg:element="匕" kvg:position="right"> <!--<path id="kvg:07686-Kaisho-s3" kvg:type="㇒" d="M63.5,29.73c4.99-0.8,15.26-2.66,20.81-3.45c1.65-0.24,3.33-0.27,4.44,0"/>--> <!--<path id="kvg:07686-Kaisho-s4" kvg:type="㇟" d="M61,12c1,0.75,2.09,3.33,2.09,4.14c0,7.11-0.24,22.07-0.24,24.48c0,11.27,7.37,9.71,14.93,9.71c5.86,0,11.33-0.32,13.54-2.05"/>--> </g> </g> <g id="kvg:07686-Kaisho-g4" kvg:position="bottom" kvg:radical="tradit"> <g id="kvg:07686-Kaisho-g5" kvg:position="top"> <!--<path id="kvg:07686-Kaisho-s5" kvg:type="㇔" d="M52.47,49.25c0.48,0.61,0.56,1.36,0.44,1.89c-0.68,3.14-4.98,8.86-8.41,12.11"/>--> </g> <g id="kvg:07686-Kaisho-g6" kvg:element="日" kvg:position="bottom"> <!--<path id="kvg:07686-Kaisho-s6" kvg:type="㇑" d="M34.51,63.47c0.61,0.85,1.23,1.28,1.23,2.41c0,1.13,1.4,25.28,1.65,30.87"/>--> <!--<path id="kvg:07686-Kaisho-s7" kvg:type="㇕a" d="M36.11,65.48c3.47-0.14,33.85-4.06,37.01-4.23c2.63-0.14,4.13,1.25,4.12,3.79c0,1.75-3.75,21.21-5.12,30.9"/>--> <!--<path id="kvg:07686-Kaisho-s8" kvg:type="㇐a" d="M37.72,79.07c6.53-0.32,15.03-0.82,24.4-1.32"/>--> <!--<path id="kvg:07686-Kaisho-s9" kvg:type="㇐a" d="M38.41,95.19c6.94,0,22.89-1.38,31.87-1.38"/>--> </g> </g> </g> </g> <g id="kvg:StrokeNumbers_07686-Kaisho" style="font-size:8;fill:#808080">          </g> </svg> 