<?xml version="1.0" encoding="UTF-8"?>  <!DOCTYPE svg PUBLIC "-//W3C//DTD SVG 1.0//EN" "http://www.w3.org/TR/2001/REC-SVG-20010904/DTD/svg10.dtd"  <!ATTLIST g xmlns:kvg CDATA #FIXED "http://kanjivg.tagaini.net" kvg:element CDATA #IMPLIED kvg:variant CDATA #IMPLIED kvg:partial CDATA #IMPLIED kvg:original CDATA #IMPLIED kvg:part CDATA #IMPLIED kvg:number CDATA #IMPLIED kvg:tradForm CDATA #IMPLIED kvg:radicalForm CDATA #IMPLIED kvg:position CDATA #IMPLIED kvg:radical CDATA #IMPLIED kvg:phon CDATA #IMPLIED > <!ATTLIST path xmlns:kvg CDATA #FIXED "http://kanjivg.tagaini.net" kvg:type CDATA #IMPLIED >  <svg xmlns="http://www.w3.org/2000/svg" width="109" height="109" viewBox="0 0 109 109"> <g id="kvg:StrokePaths_076ee-Kaisho" style="fill:none;stroke:#000000;stroke-width:3;stroke-linecap:round;stroke-linejoin:round;"> <g id="kvg:076ee-Kaisho" kvg:element="目" kvg:radical="general"> <!--<path id="kvg:076ee-Kaisho-s1" kvg:type="㇑" d="M30,19.55c0.76,1.7,1.86,2.96,1.86,5.22s-0.5,67.21-0.5,68.34"/>--> <!--<path id="kvg:076ee-Kaisho-s2" kvg:type="㇕a" d="M31.62,21.75c4.28-0.28,38.43-4.4,42.33-4.74c3.25-0.28,5.82,1.58,5.54,3.68c-0.35,2.66-0.77,40.43-0.76,65.32c0,2.56-0.24,4-0.49,6.5"/>--> <!--<path id="kvg:076ee-Kaisho-s3" kvg:type="㇐a" d="M33.05,43.14c7.74-0.35,15.47-1.24,23.18-1.94c2.34-0.21,4.68-0.42,6.91-0.62"/>--> <!--<path id="kvg:076ee-Kaisho-s4" kvg:type="㇐a" d="M33.4,65.95c7.43-0.62,16.85-1.4,24.28-2.05c2.07-0.18,4.14-0.36,6.16-0.52"/>--> <!--<path id="kvg:076ee-Kaisho-s5" kvg:type="㇐a" d="M32.25,90.5C42,90,67.27,87.97,78.29,87.97"/>--> </g> </g> <g id="kvg:StrokeNumbers_076ee-Kaisho" style="font-size:8;fill:#808080">      </g> </svg> 