<?xml version="1.0" encoding="UTF-8"?>  <!DOCTYPE svg PUBLIC "-//W3C//DTD SVG 1.0//EN" "http://www.w3.org/TR/2001/REC-SVG-20010904/DTD/svg10.dtd"  <!ATTLIST g xmlns:kvg CDATA #FIXED "http://kanjivg.tagaini.net" kvg:element CDATA #IMPLIED kvg:variant CDATA #IMPLIED kvg:partial CDATA #IMPLIED kvg:original CDATA #IMPLIED kvg:part CDATA #IMPLIED kvg:number CDATA #IMPLIED kvg:tradForm CDATA #IMPLIED kvg:radicalForm CDATA #IMPLIED kvg:position CDATA #IMPLIED kvg:radical CDATA #IMPLIED kvg:phon CDATA #IMPLIED > <!ATTLIST path xmlns:kvg CDATA #FIXED "http://kanjivg.tagaini.net" kvg:type CDATA #IMPLIED >  <svg xmlns="http://www.w3.org/2000/svg" width="109" height="109" viewBox="0 0 109 109"> <g id="kvg:StrokePaths_076f2-Kaisho" style="fill:none;stroke:#000000;stroke-width:3;stroke-linecap:round;stroke-linejoin:round;"> <g id="kvg:076f2-Kaisho" kvg:element="盲"> <g id="kvg:076f2-Kaisho-g1" kvg:element="亡" kvg:position="top"> <g id="kvg:076f2-Kaisho-g2" kvg:element="亠" kvg:radical="nelson"> <!--<path id="kvg:076f2-Kaisho-s1" kvg:type="㇑a" d="M49.21,8.99C52.5,11,55.5,14,56.78,17.07"/>--> <g id="kvg:076f2-Kaisho-g3" kvg:element="匸" kvg:part="1" kvg:variant="true" kvg:original="匚"> <!--<path id="kvg:076f2-Kaisho-s2" kvg:type="㇐" d="M16.2,24.6c1.39,0.09,4.55,0.61,5.9,0.49c10.89-1.02,48.72-4.41,62.55-4.68c2.29-0.04,3.45,0.04,5.16,0.62"/>--> </g> </g> <g id="kvg:076f2-Kaisho-g4" kvg:element="匸" kvg:part="2" kvg:variant="true" kvg:original="匚"> <!--<path id="kvg:076f2-Kaisho-s3" kvg:type="㇄" d="M31.13,26.33c0.88,0.76,1.33,2.93,1.33,3.99c0,0.93,0,1.18,0,2.28c0,3.95,0.56,7.83,10.49,8.41c10.75,0.62,28.65-0.13,31.09-0.21c4.21-0.14,7.79-0.55,9.94-1.04"/>--> </g> </g> <g id="kvg:076f2-Kaisho-g5" kvg:element="目" kvg:position="bottom" kvg:radical="tradit"> <!--<path id="kvg:076f2-Kaisho-s4" kvg:type="㇑" d="M32.68,51.97c0.6,1.07,0.97,1.86,0.97,3.29c0,1.42,0,37.99,0,42.99"/>--> <!--<path id="kvg:076f2-Kaisho-s5" kvg:type="㇕a" d="M34.16,53.41c4.15-0.18,38.3-3.17,42.09-3.17c2.25,0,3.38,1.26,3.38,3.81c0,4.87-0.46,30.67-0.46,41.79"/>--> <!--<path id="kvg:076f2-Kaisho-s6" kvg:type="㇐a" d="M34.09,67.2c7.75-0.55,15.49-1.11,23.24-1.62c2.15-0.14,4.29-0.28,6.36-0.41"/>--> <!--<path id="kvg:076f2-Kaisho-s7" kvg:type="㇐a" d="M33.93,80.65c7.27-0.39,16.02-1.04,23.28-1.61c2.06-0.16,4.14-0.32,6.2-0.48"/>--> <!--<path id="kvg:076f2-Kaisho-s8" kvg:type="㇐a" d="M33.8,95.53c11.3-0.64,30.4-1.91,44.69-2.44"/>--> </g> </g> </g> <g id="kvg:StrokeNumbers_076f2-Kaisho" style="font-size:8;fill:#808080">         </g> </svg> 