<?xml version="1.0" encoding="UTF-8"?>  <!DOCTYPE svg PUBLIC "-//W3C//DTD SVG 1.0//EN" "http://www.w3.org/TR/2001/REC-SVG-20010904/DTD/svg10.dtd"  <!ATTLIST g xmlns:kvg CDATA #FIXED "http://kanjivg.tagaini.net" kvg:element CDATA #IMPLIED kvg:variant CDATA #IMPLIED kvg:partial CDATA #IMPLIED kvg:original CDATA #IMPLIED kvg:part CDATA #IMPLIED kvg:number CDATA #IMPLIED kvg:tradForm CDATA #IMPLIED kvg:radicalForm CDATA #IMPLIED kvg:position CDATA #IMPLIED kvg:radical CDATA #IMPLIED kvg:phon CDATA #IMPLIED > <!ATTLIST path xmlns:kvg CDATA #FIXED "http://kanjivg.tagaini.net" kvg:type CDATA #IMPLIED >  <svg xmlns="http://www.w3.org/2000/svg" width="109" height="109" viewBox="0 0 109 109"> <g id="kvg:StrokePaths_07709-Kaisho" style="fill:none;stroke:#000000;stroke-width:3;stroke-linecap:round;stroke-linejoin:round;"> <g id="kvg:07709-Kaisho" kvg:element="眉"> <!--<path id="kvg:07709-Kaisho-s1" kvg:type="㇕" d="M26.75,17c2,0.75,4.38,1.42,6.51,1.27c11.46-0.84,43.12-4.07,47.72-4.37c2.27-0.15,3.27,1.85,3.27,4.1c0,3.78-1.25,7-3,15"/>--> <!--<path id="kvg:07709-Kaisho-s2" kvg:type="㇑" d="M54.1,18c0.58,0.27,0.93,1.21,1.05,1.74c0.12,0.54,0,10.15-0.12,13.51"/>--> <!--<path id="kvg:07709-Kaisho-s3" kvg:type="㇐" d="M29.75,35.25c5.75-0.25,45.75-3.75,51.75-4"/>--> <g id="kvg:07709-Kaisho-g1" kvg:element="丿" kvg:radical="nelson"> <!--<path id="kvg:07709-Kaisho-s4" kvg:type="㇒" d="M29.5,18.25c0,4,0.3,14.75,0.25,18.5c-0.25,20.5-3,36.5-14,50"/>--> </g> <g id="kvg:07709-Kaisho-g2" kvg:element="目" kvg:radical="tradit"> <!--<path id="kvg:07709-Kaisho-s5" kvg:type="㇑" d="M41.75,47.37c0.57,1.08,1.41,1.89,1.41,3.34s-0.38,44.43-0.38,45.15"/>--> <!--<path id="kvg:07709-Kaisho-s6" kvg:type="㇕a" d="M43.98,49.27c3.25-0.18,28.12-3.81,31.08-4.03c2.46-0.18,4.41,1.01,4.2,2.35c-0.26,1.7-0.58,31.33-0.58,47.23"/>--> <!--<path id="kvg:07709-Kaisho-s7" kvg:type="㇐a" d="M44.06,62.94c5.86-0.22,11.73-0.94,17.56-1.49c1.78-0.17,3.54-0.33,5.24-0.49"/>--> <!--<path id="kvg:07709-Kaisho-s8" kvg:type="㇐a" d="M44.33,77.51c5.4-0.38,12.81-1.29,18.21-1.72c1.51-0.12,3.04-0.24,4.55-0.36"/>--> <!--<path id="kvg:07709-Kaisho-s9" kvg:type="㇐a" d="M43.46,93.69c7.39-0.32,26.38-2.12,34.73-2.12"/>--> </g> </g> </g> <g id="kvg:StrokeNumbers_07709-Kaisho" style="font-size:8;fill:#808080">          </g> </svg> 