<?xml version="1.0" encoding="UTF-8"?>  <!DOCTYPE svg PUBLIC "-//W3C//DTD SVG 1.0//EN" "http://www.w3.org/TR/2001/REC-SVG-20010904/DTD/svg10.dtd"  <!ATTLIST g xmlns:kvg CDATA #FIXED "http://kanjivg.tagaini.net" kvg:element CDATA #IMPLIED kvg:variant CDATA #IMPLIED kvg:partial CDATA #IMPLIED kvg:original CDATA #IMPLIED kvg:part CDATA #IMPLIED kvg:number CDATA #IMPLIED kvg:tradForm CDATA #IMPLIED kvg:radicalForm CDATA #IMPLIED kvg:position CDATA #IMPLIED kvg:radical CDATA #IMPLIED kvg:phon CDATA #IMPLIED > <!ATTLIST path xmlns:kvg CDATA #FIXED "http://kanjivg.tagaini.net" kvg:type CDATA #IMPLIED >  <svg xmlns="http://www.w3.org/2000/svg" width="109" height="109" viewBox="0 0 109 109"> <g id="kvg:StrokePaths_07740-KaishoVtLst" style="fill:none;stroke:#000000;stroke-width:3;stroke-linecap:round;stroke-linejoin:round;"> <g id="kvg:07740-KaishoVtLst" kvg:element="着"> <g id="kvg:07740-KaishoVtLst-g1" kvg:position="tare"> <g id="kvg:07740-KaishoVtLst-g2" kvg:element="羊" kvg:variant="true" kvg:radical="general"> <!--<path id="kvg:07740-KaishoVtLst-s1" kvg:type="㇔" d="M36.36,12.58c2.71,1.48,6.99,6.07,7.67,8.37"/>--> <!--<path id="kvg:07740-KaishoVtLst-s2" kvg:type="㇒" d="M71.06,9.02c0.02,0.35,0.04,0.9-0.04,1.41c-0.48,2.97-3.21,9.48-6.96,13.47"/>--> <!--<path id="kvg:07740-KaishoVtLst-s3" kvg:type="㇐" d="M30.6,28.68c0.84,0.34,2.37,0.41,3.21,0.34c6.69-0.52,34.44-3.81,41.99-3.68c1.39,0.02,2.23,0.16,2.93,0.33"/>--> <!--<path id="kvg:07740-KaishoVtLst-s4" kvg:type="㇐" d="M32.11,39.72c0.84,0.34,2.37,0.38,3.21,0.34c6.93-0.31,28.93-3.81,38.42-3.96c1.39-0.02,2.23,0.16,2.93,0.33"/>--> <!--<path id="kvg:07740-KaishoVtLst-s5" kvg:type="㇐" d="M17.8,52.87c1.35,0.48,3.83,0.55,5.19,0.48C30.5,53,76.25,48,90.47,47.69c2.25-0.05,3.61,0.23,4.74,0.47"/>--> <!--<path id="kvg:07740-KaishoVtLst-s6" kvg:type="㇑" d="M52.48,27.43c1.11,0.45,1.78,2.01,2,2.9c0.22,0.89,0,13.86-0.22,19.43"/>--> </g> <g id="kvg:07740-KaishoVtLst-g3" kvg:element="丿"> <!--<path id="kvg:07740-KaishoVtLst-s7" kvg:type="㇒" d="M40.77,54.02c0.07,0.63,0.33,1.7-0.14,2.52C37.5,62,28.5,72.25,15.57,80.65"/>--> </g> </g> <g id="kvg:07740-KaishoVtLst-g4" kvg:element="目"> <!--<path id="kvg:07740-KaishoVtLst-s8" kvg:type="㇑" d="M41.79,60.82c0.52,0.88,1.28,2.03,1.28,3.2c0,1.17-0.35,32.14-0.35,32.73c0,0.58,0.17,2.58,0.35,3.75"/>--> <!--<path id="kvg:07740-KaishoVtLst-s9" kvg:type="㇕a" d="M43.93,62.18c2.94-0.15,25.32-2.52,27.99-2.69c2.23-0.15,3.99,0.82,3.8,1.9c-0.24,1.37-0.87,20.89-0.86,33.75c0,1.32,0,3.41-0.17,4.28"/>--> <!--<path id="kvg:07740-KaishoVtLst-s10" kvg:type="㇐a" d="M43.88,73.49c5.07-0.17,10.14-0.64,15.2-1c1.52-0.11,3.04-0.22,4.49-0.32"/>--> <!--<path id="kvg:07740-KaishoVtLst-s11" kvg:type="㇐a" d="M44.12,84.78c4.87-0.31,9.73-0.72,14.59-1.06c1.33-0.09,2.67-0.18,3.97-0.27"/>--> <!--<path id="kvg:07740-KaishoVtLst-s12" kvg:type="㇐a" d="M45.04,97.47c5.84,0,19.89-1.31,27.45-1.31"/>--> </g> </g> </g> <g id="kvg:StrokeNumbers_07740-KaishoVtLst" style="font-size:8;fill:#808080">             </g> </svg> 