<?xml version="1.0" encoding="UTF-8"?>  <!DOCTYPE svg PUBLIC "-//W3C//DTD SVG 1.0//EN" "http://www.w3.org/TR/2001/REC-SVG-20010904/DTD/svg10.dtd"  <!ATTLIST g xmlns:kvg CDATA #FIXED "http://kanjivg.tagaini.net" kvg:element CDATA #IMPLIED kvg:variant CDATA #IMPLIED kvg:partial CDATA #IMPLIED kvg:original CDATA #IMPLIED kvg:part CDATA #IMPLIED kvg:number CDATA #IMPLIED kvg:tradForm CDATA #IMPLIED kvg:radicalForm CDATA #IMPLIED kvg:position CDATA #IMPLIED kvg:radical CDATA #IMPLIED kvg:phon CDATA #IMPLIED > <!ATTLIST path xmlns:kvg CDATA #FIXED "http://kanjivg.tagaini.net" kvg:type CDATA #IMPLIED >  <svg xmlns="http://www.w3.org/2000/svg" width="109" height="109" viewBox="0 0 109 109"> <g id="kvg:StrokePaths_07765-Kaisho" style="fill:none;stroke:#000000;stroke-width:3;stroke-linecap:round;stroke-linejoin:round;"> <g id="kvg:07765-Kaisho" kvg:element="睥"> <g id="kvg:07765-Kaisho-g1" kvg:element="目" kvg:position="left" kvg:radical="general"> <!--<path id="kvg:07765-Kaisho-s1" kvg:type="㇑" d="M14.88,18.51c0.37,0.99,0.76,2.22,0.76,3.85c0,1.63-0.1,61.97,0,63.61"/>--> <!--<path id="kvg:07765-Kaisho-s2" kvg:type="㇕a" d="M16.16,20.15c1.76-0.02,14.59-2.22,16.19-2.3c1.33-0.06,2.27,1.38,2.27,2.9c0,5.59-0.62,51.21-0.62,63.97"/>--> <!--<path id="kvg:07765-Kaisho-s3" kvg:type="㇐a" d="M16.13,41.28c2.88-0.26,5.75-0.56,8.63-0.86c0.79-0.08,1.6-0.16,2.4-0.24"/>--> <!--<path id="kvg:07765-Kaisho-s4" kvg:type="㇐a" d="M15.78,60.8c3.03-0.13,6.05-0.45,9.06-0.75c0.84-0.08,1.68-0.17,2.51-0.25"/>--> <!--<path id="kvg:07765-Kaisho-s5" kvg:type="㇐a" d="M16.09,82.99c4.77-0.23,11.81-1.34,17.85-1.31"/>--> </g> <g id="kvg:07765-Kaisho-g2" kvg:position="right"> <g id="kvg:07765-Kaisho-g3" kvg:element="卑" kvg:variant="true" kvg:position="top"> <g id="kvg:07765-Kaisho-g4" kvg:element="丿"> <!--<path id="kvg:07765-Kaisho-s6" kvg:type="㇒" d="M69.78,11.14c0.02,0.3,0.05,0.78-0.04,1.21c-0.56,2.56-3.78,8.17-8.18,11.61"/>--> </g> <g id="kvg:07765-Kaisho-g5" kvg:element="田" kvg:variant="true"> <!--<path id="kvg:07765-Kaisho-s7" kvg:type="㇑" d="M46.02,25.59c0.37,0.55,0.37,0.94,0.58,1.63c1.65,5.73,2.21,15.56,3.24,26.24"/>--> <!--<path id="kvg:07765-Kaisho-s8" kvg:type="㇕" d="M47.37,26.97c10.74-1.23,29.48-2.15,37.5-3.18c2.95-0.38,4.09,0.66,3.88,3.25c-0.4,4.95-2.35,17.32-3.69,25.55"/>--> <!--<path id="kvg:07765-Kaisho-s9" kvg:type="㇐" d="M49.38,39.06c8.14-1.11,16.49-1.25,24.68-1.79c0.99-0.06,1.95-0.13,2.86-0.19"/>--> <!--<path id="kvg:07765-Kaisho-s10" kvg:type="㇐" d="M50.52,52.12c7.74-0.52,22.73-1.62,34.54-1.88"/>--> <g id="kvg:07765-Kaisho-g6" kvg:element="丿" kvg:position="bottom"> <!--<path id="kvg:07765-Kaisho-s11" kvg:type="㇒" d="M67.54,27.43c0.43,0.93,0.4,2.33,0.28,3.58c-1.13,12.54-2.58,26.5-14.07,34.25"/>--> </g> </g> <g id="kvg:07765-Kaisho-g7" kvg:element="十"> <!--<path id="kvg:07765-Kaisho-s12" kvg:type="㇐" d="M43.25,72.81c0.89,0.25,3.26,0.93,5.61,0.75c15.88-1.24,28.81-2.32,43.9-2.56c2.36-0.04,4.27,0.07,5.74,0.32"/>--> <!--<path id="kvg:07765-Kaisho-s13" kvg:type="㇑" d="M74.37,55.25c1.09,0.5,1.74,2.25,1.96,3.25c0.22,1,0,33.25-0.22,39.5"/>--> </g> </g> </g> </g> </g> <g id="kvg:StrokeNumbers_07765-Kaisho" style="font-size:8;fill:#808080">              </g> </svg> 