<?xml version="1.0" encoding="UTF-8"?>  <!DOCTYPE svg PUBLIC "-//W3C//DTD SVG 1.0//EN" "http://www.w3.org/TR/2001/REC-SVG-20010904/DTD/svg10.dtd"  <!ATTLIST g xmlns:kvg CDATA #FIXED "http://kanjivg.tagaini.net" kvg:element CDATA #IMPLIED kvg:variant CDATA #IMPLIED kvg:partial CDATA #IMPLIED kvg:original CDATA #IMPLIED kvg:part CDATA #IMPLIED kvg:number CDATA #IMPLIED kvg:tradForm CDATA #IMPLIED kvg:radicalForm CDATA #IMPLIED kvg:position CDATA #IMPLIED kvg:radical CDATA #IMPLIED kvg:phon CDATA #IMPLIED > <!ATTLIST path xmlns:kvg CDATA #FIXED "http://kanjivg.tagaini.net" kvg:type CDATA #IMPLIED >  <svg xmlns="http://www.w3.org/2000/svg" width="109" height="109" viewBox="0 0 109 109"> <g id="kvg:StrokePaths_07791-Kaisho" style="fill:none;stroke:#000000;stroke-width:3;stroke-linecap:round;stroke-linejoin:round;"> <g id="kvg:07791-Kaisho" kvg:element="瞑"> <g id="kvg:07791-Kaisho-g1" kvg:element="目" kvg:position="left" kvg:radical="general"> <!--<path id="kvg:07791-Kaisho-s1" kvg:type="㇑" d="M11.88,20.57c0.29,1.36,0.71,2.4,0.71,4.16c0,1.77-0.1,57.47,0,59.25"/>--> <!--<path id="kvg:07791-Kaisho-s2" kvg:type="㇕a" d="M13.07,21.76c1.62-0.02,13.48-1.82,14.96-1.9c1.23-0.07,2.1,1.49,2.1,3.13c0,6.04-0.57,44.89-0.57,58.68"/>--> <!--<path id="kvg:07791-Kaisho-s3" kvg:type="㇐a" d="M13.04,41.34c2.61-0.27,5.22-0.59,7.83-0.9c0.71-0.08,1.43-0.17,2.15-0.25"/>--> <!--<path id="kvg:07791-Kaisho-s4" kvg:type="㇐a" d="M12.67,60.14c2.63-0.13,5.25-0.42,7.86-0.7c0.74-0.08,1.48-0.16,2.24-0.24"/>--> <!--<path id="kvg:07791-Kaisho-s5" kvg:type="㇐a" d="M12.54,79.75c4.41-0.25,11.37-1.4,16.95-1.37"/>--> </g> <g id="kvg:07791-Kaisho-g2" kvg:element="冥" kvg:position="right"> <g id="kvg:07791-Kaisho-g3" kvg:element="冖" kvg:position="top"> <!--<path id="kvg:07791-Kaisho-s6" kvg:type="㇔" d="M41.56,14.83c0,4.07-2.82,15.28-4.11,17.99"/>--> <!--<path id="kvg:07791-Kaisho-s7" kvg:type="㇖b" d="M41.87,17.61c7.17-0.86,43.71-3.4,49.52-3.78c9.94-0.65,1.37,7.37-0.9,9.22"/>--> </g> <g id="kvg:07791-Kaisho-g4" kvg:position="bottom"> <g id="kvg:07791-Kaisho-g5" kvg:element="日"> <!--<path id="kvg:07791-Kaisho-s8" kvg:type="㇑" d="M47.4,30.18c0.24,0.29,0.83,1.4,1.23,2.51c1.73,4.8,2.85,13.85,3.92,22.81"/>--> <!--<path id="kvg:07791-Kaisho-s9" kvg:type="㇕a" d="M48.84,31.9c8.56-1.21,27.03-3.39,33.5-3.72C86,28,87,29.5,86.77,31.95c-0.46,4.84-2,13.49-4.27,22.7"/>--> <!--<path id="kvg:07791-Kaisho-s10" kvg:type="㇐a" d="M51.44,42.76c5.35-0.91,10.96-1.02,16.36-1.42c1.89-0.14,3.8-0.28,5.62-0.4"/>--> <!--<path id="kvg:07791-Kaisho-s11" kvg:type="㇐a" d="M52.95,53.77c6.17-0.52,19.3-1.27,29.89-1.39"/>--> </g> <g id="kvg:07791-Kaisho-g6" kvg:element="六"> <g id="kvg:07791-Kaisho-g7" kvg:element="亠" kvg:position="top"> <!--<path id="kvg:07791-Kaisho-s12" kvg:type="㇑a" d="M62.21,57.87c2.01,1.3,5.29,6.31,5.29,8.88"/>--> <!--<path id="kvg:07791-Kaisho-s13" kvg:type="㇐" d="M36.88,72.06c1.37,0.69,3.62,0.94,6.37,0.8c16.69-0.87,28.67-2.17,47.51-3.07c2.47-0.12,4.74,0.21,6.57,1.02"/>--> </g> <g id="kvg:07791-Kaisho-g8" kvg:element="八" kvg:position="bottom"> <!--<path id="kvg:07791-Kaisho-s14" kvg:type="㇒" d="M55.57,79.08c0.45,0.83,0.23,3.01-0.53,4C50.89,88.45,44.28,93.33,35.69,98"/>--> <!--<path id="kvg:07791-Kaisho-s15" kvg:type="㇏" d="M75.25,77.65c8.22,6.12,15,13.19,19.11,20.63"/>--> </g> </g> </g> </g> </g> </g> <g id="kvg:StrokeNumbers_07791-Kaisho" style="font-size:8;fill:#808080">                </g> </svg> 