<?xml version="1.0" encoding="UTF-8"?>  <!DOCTYPE svg PUBLIC "-//W3C//DTD SVG 1.0//EN" "http://www.w3.org/TR/2001/REC-SVG-20010904/DTD/svg10.dtd"  <!ATTLIST g xmlns:kvg CDATA #FIXED "http://kanjivg.tagaini.net" kvg:element CDATA #IMPLIED kvg:variant CDATA #IMPLIED kvg:partial CDATA #IMPLIED kvg:original CDATA #IMPLIED kvg:part CDATA #IMPLIED kvg:number CDATA #IMPLIED kvg:tradForm CDATA #IMPLIED kvg:radicalForm CDATA #IMPLIED kvg:position CDATA #IMPLIED kvg:radical CDATA #IMPLIED kvg:phon CDATA #IMPLIED > <!ATTLIST path xmlns:kvg CDATA #FIXED "http://kanjivg.tagaini.net" kvg:type CDATA #IMPLIED >  <svg xmlns="http://www.w3.org/2000/svg" width="109" height="109" viewBox="0 0 109 109"> <g id="kvg:StrokePaths_077ad-Kaisho" style="fill:none;stroke:#000000;stroke-width:3;stroke-linecap:round;stroke-linejoin:round;"> <g id="kvg:077ad-Kaisho" kvg:element="瞭"> <g id="kvg:077ad-Kaisho-g1" kvg:element="目" kvg:position="left" kvg:radical="general"> <!--<path id="kvg:077ad-Kaisho-s1" kvg:type="㇑" d="M12.62,25.84c0.27,1.12,0.66,1.98,0.66,3.44c0,1.47-0.18,55.99-0.18,56.73"/>--> <!--<path id="kvg:077ad-Kaisho-s2" kvg:type="㇕a" d="M13.72,27.39c1.52-0.05,13.1-2.41,14.48-2.51c1.15-0.09,2.06,1.2,1.97,2.55c-0.12,1.72-0.45,40.89-0.45,57.02"/>--> <!--<path id="kvg:077ad-Kaisho-s3" kvg:type="㇐a" d="M13.7,44.82c2.6-0.26,5.21-0.55,7.81-0.83c0.69-0.07,1.39-0.15,2.07-0.22"/>--> <!--<path id="kvg:077ad-Kaisho-s4" kvg:type="㇐a" d="M13.82,63.24c2.76-0.28,5.53-0.57,8.29-0.82c0.72-0.07,1.42-0.13,2.11-0.19"/>--> <!--<path id="kvg:077ad-Kaisho-s5" kvg:type="㇐a" d="M14.21,83.24c3.85-0.65,10.26-1.38,15.01-1.41"/>--> </g> <g id="kvg:077ad-Kaisho-g2" kvg:position="right"> <g id="kvg:077ad-Kaisho-g3" kvg:element="大"> <!--<path id="kvg:077ad-Kaisho-s6" kvg:type="㇐" d="M40.73,23.35c0.84,0.49,4.09,0.57,5.88,0.35c12.1-1.46,28.48-2.89,39.34-3.6c1.87-0.12,3.37-0.06,5.05,0.32"/>--> <!--<path id="kvg:077ad-Kaisho-s7" kvg:type="㇒" d="M62.26,12.5c0.38,0.54,0.42,1.62,0.14,2.76c-3.55,14.39-11.07,27.82-25.91,36.5"/>--> <!--<path id="kvg:077ad-Kaisho-s8" kvg:type="㇏" d="M67.93,21.92c5.62,5.18,18.75,18.39,24.37,21.86c1.91,1.18,2.58,1.36,3.45,1.47"/>--> </g> <!--<path id="kvg:077ad-Kaisho-s9" kvg:type="㇔" d="M40.27,31.83c2.57,1.17,6.65,4.81,7.29,6.63"/>--> <!--<path id="kvg:077ad-Kaisho-s10" kvg:type="㇒" d="M89.53,26.89c0.02,0.2,0.05,0.52-0.04,0.81c-0.53,1.71-3.55,5.46-7.68,7.76"/>--> <g id="kvg:077ad-Kaisho-g4" kvg:element="日"> <!--<path id="kvg:077ad-Kaisho-s11" kvg:type="㇑" d="M48.49,47.07c0.24,0.36,0.75,2.12,0.88,2.58c1.09,3.78,2.6,10.83,3.28,17.89"/>--> <!--<path id="kvg:077ad-Kaisho-s12" kvg:type="㇕a" d="M50.12,47.53c8.45-0.95,23.93-2.53,30.24-3.32c2.32-0.29,3.51,0.74,3.39,1.78c-0.44,3.81-2.5,13.2-3.56,19.57"/>--> <!--<path id="kvg:077ad-Kaisho-s13" kvg:type="㇐a" d="M51.7,56.35c5.07-0.68,10.2-1,15.29-1.46c1.73-0.16,3.46-0.31,5.1-0.45"/>--> <!--<path id="kvg:077ad-Kaisho-s14" kvg:type="㇐a" d="M53.09,66.04c6.09-0.41,18.7-1.64,27.11-2.3"/>--> </g> <g id="kvg:077ad-Kaisho-g5" kvg:element="小"> <!--<path id="kvg:077ad-Kaisho-s15" kvg:type="㇚" d="M66.61,68.12c0.07,0.39,0.95,2.02,1.02,4.48c0.33,11.82-0.21,15.38-0.21,19.41c0,9.14-5.85,1.22-7.07,0.2"/>--> <!--<path id="kvg:077ad-Kaisho-s16" kvg:type="㇒" d="M52.95,74.68c0.05,0.39,0.1,1.01-0.1,1.57c-1.17,3.31-7.9,10.56-17.1,15.01"/>--> <!--<path id="kvg:077ad-Kaisho-s17" kvg:type="㇔" d="M79.96,74.37C84.56,76.95,91.85,84.98,93,89"/>--> </g> </g> </g> </g> <g id="kvg:StrokeNumbers_077ad-Kaisho" style="font-size:8;fill:#808080">                  </g> </svg> 