<?xml version="1.0" encoding="UTF-8"?>  <!DOCTYPE svg PUBLIC "-//W3C//DTD SVG 1.0//EN" "http://www.w3.org/TR/2001/REC-SVG-20010904/DTD/svg10.dtd"  <!ATTLIST g xmlns:kvg CDATA #FIXED "http://kanjivg.tagaini.net" kvg:element CDATA #IMPLIED kvg:variant CDATA #IMPLIED kvg:partial CDATA #IMPLIED kvg:original CDATA #IMPLIED kvg:part CDATA #IMPLIED kvg:number CDATA #IMPLIED kvg:tradForm CDATA #IMPLIED kvg:radicalForm CDATA #IMPLIED kvg:position CDATA #IMPLIED kvg:radical CDATA #IMPLIED kvg:phon CDATA #IMPLIED > <!ATTLIST path xmlns:kvg CDATA #FIXED "http://kanjivg.tagaini.net" kvg:type CDATA #IMPLIED >  <svg xmlns="http://www.w3.org/2000/svg" width="109" height="109" viewBox="0 0 109 109"> <g id="kvg:StrokePaths_077bf-Kaisho" style="fill:none;stroke:#000000;stroke-width:3;stroke-linecap:round;stroke-linejoin:round;"> <g id="kvg:077bf-Kaisho" kvg:element="瞿"> <g id="kvg:077bf-Kaisho-g1" kvg:position="top"> <g id="kvg:077bf-Kaisho-g2" kvg:element="目" kvg:position="left" kvg:radical="tradit"> <!--<path id="kvg:077bf-Kaisho-s1" kvg:type="㇑" d="M25,13.03c0.37,0.69,0.91,1.21,0.91,2.14c0,0.93-0.25,27.48-0.25,27.95"/>--> <!--<path id="kvg:077bf-Kaisho-s2" kvg:type="㇕a" d="M25.79,13.93c2.1-0.12,18.84-1.8,20.75-1.94c1.59-0.12,2.85,0.65,2.72,1.5c-0.17,1.09-0.37,24.97-0.37,29.17"/>--> <!--<path id="kvg:077bf-Kaisho-s3" kvg:type="㇐a" d="M26.49,23.67c3.79-0.15,7.58-0.51,11.36-0.79c1.15-0.09,2.29-0.17,3.39-0.25"/>--> <!--<path id="kvg:077bf-Kaisho-s4" kvg:type="㇐a" d="M26.67,32.5c3.64-0.25,7.78-0.57,11.42-0.84c1.02-0.07,2.03-0.15,3.02-0.21"/>--> <!--<path id="kvg:077bf-Kaisho-s5" kvg:type="㇐a" d="M26.1,41.04c4.78-0.2,17.16-1.04,22.56-1.04"/>--> </g> <g id="kvg:077bf-Kaisho-g3" kvg:element="目" kvg:position="right" kvg:radical="tradit"> <!--<path id="kvg:077bf-Kaisho-s6" kvg:type="㇑" d="M61.5,12.53c0.36,0.69,0.88,1.21,0.88,2.14c0,0.93-0.24,27.48-0.24,27.95"/>--> <!--<path id="kvg:077bf-Kaisho-s7" kvg:type="㇕a" d="M62.27,13.43c2.04-0.12,18.25-1.8,20.11-1.94c1.55-0.12,2.76,0.65,2.63,1.5c-0.17,1.09-0.36,24.97-0.36,29.17"/>--> <!--<path id="kvg:077bf-Kaisho-s8" kvg:type="㇐a" d="M62.95,22.67c3.67-0.15,7.35-0.51,11.01-0.79c1.11-0.09,2.22-0.17,3.28-0.25"/>--> <!--<path id="kvg:077bf-Kaisho-s9" kvg:type="㇐a" d="M63.11,32c3.53-0.25,7.06-0.57,10.58-0.84c0.98-0.07,1.97-0.15,2.93-0.21"/>--> <!--<path id="kvg:077bf-Kaisho-s10" kvg:type="㇐a" d="M62.57,40.54c4.63-0.2,16.63-1.04,21.87-1.04"/>--> </g> </g> <g id="kvg:077bf-Kaisho-g4" kvg:element="隹" kvg:position="bottom"> <g id="kvg:077bf-Kaisho-g5" kvg:element="亻" kvg:variant="true" kvg:original="人"> <!--<path id="kvg:077bf-Kaisho-s11" kvg:type="㇒" d="M37.13,45.75c0.23,1.29-0.06,2.99-0.81,4.09C31.6,56.9,25.6,62.88,14.75,71.47"/>--> <!--<path id="kvg:077bf-Kaisho-s12" kvg:type="㇑" d="M28.78,59.9c0.92,0.6,1.63,1.92,1.69,2.85c0.55,8.29-0.75,30.19-0.29,34.5"/>--> </g> <!--<path id="kvg:077bf-Kaisho-s13" kvg:type="㇒" d="M59.8,46.25c0.06,0.58-0.02,1.35-0.21,1.85c-1.24,3.19-2.82,5.66-5.66,9.55"/>--> <!--<path id="kvg:077bf-Kaisho-s14" kvg:type="㇐b" d="M30.21,59.08c10.69-0.78,51.36-2.55,55.95-2.98"/>--> <!--<path id="kvg:077bf-Kaisho-s15" kvg:type="㇑a" d="M55.02,59c0.52,0.31,0.93,0.73,0.93,1.25c0,5.38,0.06,24.63-0.26,33.1"/>--> <!--<path id="kvg:077bf-Kaisho-s16" kvg:type="㇐b" d="M31.64,70.28c10.09-0.65,46.57-2.03,50.9-2.38"/>--> <!--<path id="kvg:077bf-Kaisho-s17" kvg:type="㇐b" d="M30.41,81.7c10.64-0.54,47.98-1.65,52.55-1.95"/>--> <!--<path id="kvg:077bf-Kaisho-s18" kvg:type="㇐b" d="M30.41,95.15c10.69-0.78,55.25-2.77,59.84-3.2"/>--> </g> </g> </g> <g id="kvg:StrokeNumbers_077bf-Kaisho" style="font-size:8;fill:#808080">                   </g> </svg> 