<?xml version="1.0" encoding="UTF-8"?>  <!DOCTYPE svg PUBLIC "-//W3C//DTD SVG 1.0//EN" "http://www.w3.org/TR/2001/REC-SVG-20010904/DTD/svg10.dtd"  <!ATTLIST g xmlns:kvg CDATA #FIXED "http://kanjivg.tagaini.net" kvg:element CDATA #IMPLIED kvg:variant CDATA #IMPLIED kvg:partial CDATA #IMPLIED kvg:original CDATA #IMPLIED kvg:part CDATA #IMPLIED kvg:number CDATA #IMPLIED kvg:tradForm CDATA #IMPLIED kvg:radicalForm CDATA #IMPLIED kvg:position CDATA #IMPLIED kvg:radical CDATA #IMPLIED kvg:phon CDATA #IMPLIED > <!ATTLIST path xmlns:kvg CDATA #FIXED "http://kanjivg.tagaini.net" kvg:type CDATA #IMPLIED >  <svg xmlns="http://www.w3.org/2000/svg" width="109" height="109" viewBox="0 0 109 109"> <g id="kvg:StrokePaths_07827-HzFst" style="fill:none;stroke:#000000;stroke-width:3;stroke-linecap:round;stroke-linejoin:round;"> <g id="kvg:07827-HzFst" kvg:element="砧"> <g id="kvg:07827-HzFst-g1" kvg:element="石" kvg:position="left" kvg:radical="general"> <!--<path id="kvg:07827-HzFst-s1" kvg:type="㇐" d="M13.95,28.01c0.72,0.21,2.04,0.27,2.75,0.21c8.99-0.73,15.28-2.28,27.28-3.55c1.19-0.13,1.91,0.1,2.51,0.2"/>--> <!--<path id="kvg:07827-HzFst-s2" kvg:type="㇒" d="M27.18,30.05c0.05,0.93,0.1,2.4-0.1,3.73c-1.16,7.88-7.82,25.17-16.94,35.75"/>--> <g id="kvg:07827-HzFst-g2" kvg:element="口"> <!--<path id="kvg:07827-HzFst-s3" kvg:type="㇑" d="M20.63,57.07c0.33,0.53,0.66,0.98,0.8,1.64c1.13,5.27,2.48,19.82,3.26,29.29"/>--> <!--<path id="kvg:07827-HzFst-s4" kvg:type="㇕b" d="M21.66,57.21c7.94-1.9,15.96-3.03,19.78-3.67c1.4-0.23,2.23,1.39,2.03,2.77c-0.83,5.71-1.47,17.61-2.69,25.51"/>--> <!--<path id="kvg:07827-HzFst-s5" kvg:type="㇐b" d="M24.34,84.13c6.91-1.13,11.41-1.63,18.5-2.1"/>--> </g> </g> <g id="kvg:07827-HzFst-g3" kvg:element="占" kvg:position="right"> <g id="kvg:07827-HzFst-g4" kvg:element="卜" kvg:variant="true" kvg:original="ト" kvg:position="top"> <!--<path id="kvg:07827-HzFst-s6" kvg:type="㇐" d="M70.75,38.17c8.82-1.03,18.62-3.09,19.84-3.09c1.23,0,3.43,0,4.41,0.34"/>--> <!--<path id="kvg:07827-HzFst-s7" kvg:type="㇑" d="M67.81,13.63c0.76,0.45,2.51,1.87,2.51,4.25c0,0.91,0.25,33.12,0.25,46.25"/>--> </g> <g id="kvg:07827-HzFst-g5" kvg:element="口" kvg:position="bottom"> <!--<path id="kvg:07827-HzFst-s8" kvg:type="㇑" d="M52.41,64.82c0.41,0.52,0.82,0.95,1,1.6c1.41,5.13,3.09,19.28,4.05,28.49"/>--> <!--<path id="kvg:07827-HzFst-s9" kvg:type="㇕b" d="M54.21,66.17c11.29-1.42,31.14-3.47,36.25-4.19c1.87-0.26,2.99,2.67,2.73,4.24c-1.11,6.46-2.99,16.11-4.52,24.3"/>--> <!--<path id="kvg:07827-HzFst-s10" kvg:type="㇐b" d="M57.86,92.95c7.64-0.46,24.14-1.87,34.18-2.19"/>--> </g> </g> </g> </g> <g id="kvg:StrokeNumbers_07827-HzFst" style="font-size:8;fill:#808080">           </g> </svg> 