<?xml version="1.0" encoding="UTF-8"?>  <!DOCTYPE svg PUBLIC "-//W3C//DTD SVG 1.0//EN" "http://www.w3.org/TR/2001/REC-SVG-20010904/DTD/svg10.dtd"  <!ATTLIST g xmlns:kvg CDATA #FIXED "http://kanjivg.tagaini.net" kvg:element CDATA #IMPLIED kvg:variant CDATA #IMPLIED kvg:partial CDATA #IMPLIED kvg:original CDATA #IMPLIED kvg:part CDATA #IMPLIED kvg:number CDATA #IMPLIED kvg:tradForm CDATA #IMPLIED kvg:radicalForm CDATA #IMPLIED kvg:position CDATA #IMPLIED kvg:radical CDATA #IMPLIED kvg:phon CDATA #IMPLIED > <!ATTLIST path xmlns:kvg CDATA #FIXED "http://kanjivg.tagaini.net" kvg:type CDATA #IMPLIED >  <svg xmlns="http://www.w3.org/2000/svg" width="109" height="109" viewBox="0 0 109 109"> <g id="kvg:StrokePaths_0788d-Kaisho" style="fill:none;stroke:#000000;stroke-width:3;stroke-linecap:round;stroke-linejoin:round;"> <g id="kvg:0788d-Kaisho" kvg:element="碍"> <g id="kvg:0788d-Kaisho-g1" kvg:element="石" kvg:position="left" kvg:radical="general"> <!--<path id="kvg:0788d-Kaisho-s1" kvg:type="㇐" d="M15.38,31.51c0.61,0.18,1.74,0.23,2.34,0.18c7.66-0.62,13.03-1.94,23.26-3.02c1.02-0.11,1.63,0.08,2.14,0.17"/>--> <!--<path id="kvg:0788d-Kaisho-s2" kvg:type="㇒" d="M26.96,33.68c0.04,0.91,0.09,2.35-0.08,3.65C25.85,45.02,20,61.91,12,72.25"/>--> <g id="kvg:0788d-Kaisho-g2" kvg:element="口"> <!--<path id="kvg:0788d-Kaisho-s3" kvg:type="㇑" d="M22.5,53.92c0.28,0.46,0.56,0.85,0.68,1.42c0.96,4.57,2.12,17.19,2.78,25.41"/>--> <!--<path id="kvg:0788d-Kaisho-s4" kvg:type="㇕b" d="M24.23,55.92c6.77-1.77,13.61-2.83,16.87-3.43c1.19-0.22,1.9,1.3,1.73,2.59c-0.71,5.34-2.53,12.8-3.58,20.19"/>--> <!--<path id="kvg:0788d-Kaisho-s5" kvg:type="㇐b" d="M26.09,77.83c6.41-0.83,8.41-1.08,15.35-1.9"/>--> </g> </g> <g id="kvg:0788d-Kaisho-g3" kvg:position="right"> <g id="kvg:0788d-Kaisho-g4" kvg:element="旦" kvg:position="top"> <g id="kvg:0788d-Kaisho-g5" kvg:element="日" kvg:position="top"> <!--<path id="kvg:0788d-Kaisho-s6" kvg:type="㇑" d="M53.17,14.41c0.47,0.65,0.78,1,0.95,1.85c0.63,3.24,3.01,25.49,3.01,25.93s0.16,1.44,0.31,2.31"/>--> <!--<path id="kvg:0788d-Kaisho-s7" kvg:type="㇕a" d="M54.4,16.52c4.6-0.52,24.84-2.9,27.27-3.03c2.02-0.11,3.32,0.51,3.16,2.85c-0.5,7.43-1.02,11.65-2.34,24.15c-0.11,0.98-0.16,1.42-0.16,2.07"/>--> <!--<path id="kvg:0788d-Kaisho-s8" kvg:type="㇐a" d="M56.81,28.67c4.72-0.46,9.45-0.9,14.18-1.3c1.3-0.11,2.59-0.21,3.81-0.31"/>--> <!--<path id="kvg:0788d-Kaisho-s9" kvg:type="㇐a" d="M58.22,41.8c7.5-0.55,16.81-1.87,23.7-1.87"/>--> </g> <g id="kvg:0788d-Kaisho-g6" kvg:element="一" kvg:position="bottom"> <!--<path id="kvg:0788d-Kaisho-s10" kvg:type="㇐" d="M50.25,52.83c1.09,0.29,3.09,0.38,4.17,0.29c10.51-0.86,22.07-1.87,34.03-2.73c1.8-0.13,2.9,0.14,3.81,0.28"/>--> </g> </g> <g id="kvg:0788d-Kaisho-g7" kvg:element="寸" kvg:position="bottom"> <!--<path id="kvg:0788d-Kaisho-s11" kvg:type="㇐" d="M47.25,69.17c2,0.33,4.48,0.55,6.07,0.3c9.3-1.47,30.43-2.72,39.63-3.18c2.64-0.13,4.22-0.12,5.54,0.28"/>--> <!--<path id="kvg:0788d-Kaisho-s12" kvg:type="㇚" d="M81.64,56.33C83,58,83.39,60.5,83.39,61.85c0,14.56-0.17,25.66-0.26,30.62c-0.14,8.28-6.52,1.78-8.71,0.25"/>--> <!--<path id="kvg:0788d-Kaisho-s13" kvg:type="㇔" d="M57.58,76.62c2.65,1.59,6.84,6.53,7.5,9"/>--> </g> </g> </g> </g> <g id="kvg:StrokeNumbers_0788d-Kaisho" style="font-size:8;fill:#808080">              </g> </svg> 