<?xml version="1.0" encoding="UTF-8"?>  <!DOCTYPE svg PUBLIC "-//W3C//DTD SVG 1.0//EN" "http://www.w3.org/TR/2001/REC-SVG-20010904/DTD/svg10.dtd"  <!ATTLIST g xmlns:kvg CDATA #FIXED "http://kanjivg.tagaini.net" kvg:element CDATA #IMPLIED kvg:variant CDATA #IMPLIED kvg:partial CDATA #IMPLIED kvg:original CDATA #IMPLIED kvg:part CDATA #IMPLIED kvg:number CDATA #IMPLIED kvg:tradForm CDATA #IMPLIED kvg:radicalForm CDATA #IMPLIED kvg:position CDATA #IMPLIED kvg:radical CDATA #IMPLIED kvg:phon CDATA #IMPLIED > <!ATTLIST path xmlns:kvg CDATA #FIXED "http://kanjivg.tagaini.net" kvg:type CDATA #IMPLIED >  <svg xmlns="http://www.w3.org/2000/svg" width="109" height="109" viewBox="0 0 109 109"> <g id="kvg:StrokePaths_078c5-Kaisho" style="fill:none;stroke:#000000;stroke-width:3;stroke-linecap:round;stroke-linejoin:round;"> <g id="kvg:078c5-Kaisho" kvg:element="磅"> <g id="kvg:078c5-Kaisho-g1" kvg:element="石" kvg:position="left" kvg:radical="general"> <!--<path id="kvg:078c5-Kaisho-s1" kvg:type="㇐" d="M14.13,20.81c0.74,0.08,2.1,0.11,2.83,0.08c9.27-0.29,12.7-1.42,25.08-1.93c1.23-0.05,1.97,0.04,2.59,0.08"/>--> <!--<path id="kvg:078c5-Kaisho-s2" kvg:type="㇒" d="M26.75,22.25c0.05,0.99,0.1,2.55-0.1,3.97C25.52,34.6,18.96,52.99,10,64.25"/>--> <g id="kvg:078c5-Kaisho-g2" kvg:element="口"> <!--<path id="kvg:078c5-Kaisho-s3" kvg:type="㇑" d="M21,51.79c0.28,0.43,0.56,0.78,0.68,1.31c0.96,4.21,2.12,15.83,2.78,23.4"/>--> <!--<path id="kvg:078c5-Kaisho-s4" kvg:type="㇕b" d="M22.75,53c4.62-1.28,10.14-1.23,15.63-2.32c1.11-0.22,1.79,1.23,1.64,2.47c-0.62,5.12-1.35,10.01-2.27,17.09"/>--> <!--<path id="kvg:078c5-Kaisho-s5" kvg:type="㇐b" d="M25.57,74.07c4.27-0.6,7.76-1.09,13.37-1.88"/>--> </g> </g> <g id="kvg:078c5-Kaisho-g3" kvg:element="旁" kvg:position="right"> <g id="kvg:078c5-Kaisho-g4" kvg:position="top"> <g id="kvg:078c5-Kaisho-g5" kvg:element="立" kvg:partial="true"> <g id="kvg:078c5-Kaisho-g6" kvg:element="亠" kvg:position="top"> <!--<path id="kvg:078c5-Kaisho-s6" kvg:type="㇑a" d="M66.83,10.5c1.79,1.21,3.42,3.75,4.49,7.03"/>--> <!--<path id="kvg:078c5-Kaisho-s7" kvg:type="㇐" d="M51.87,24.31c0.87,0.12,1.88,0.1,2.73,0.04c4.85-0.37,27.15-2.78,34.49-3.24c1.43-0.09,2.3-0.03,3.02,0.02"/>--> </g> <g id="kvg:078c5-Kaisho-g7" kvg:position="bottom"> <!--<path id="kvg:078c5-Kaisho-s8" kvg:type="㇔" d="M58.25,26.5c2.89,4.19,4.74,9.24,5,12"/>--> <!--<path id="kvg:078c5-Kaisho-s9" kvg:type="㇒" d="M83.33,24.34c0.2,1.29-0.13,2.84-0.29,3.19c-1.54,3.48-3.68,9.59-4.79,11.72"/>--> </g> </g> <g id="kvg:078c5-Kaisho-g8" kvg:element="冖"> <!--<path id="kvg:078c5-Kaisho-s10" kvg:type="㇔" d="M51.25,38.25c-0.11,3.38-2.79,12.23-3.75,14.25"/>--> <!--<path id="kvg:078c5-Kaisho-s11" kvg:type="㇖b" d="M52.25,42.3c6.14-0.72,27.95-3.7,39.91-4c7.31-0.19,2.31,4.3-0.42,7.1"/>--> </g> </g> <g id="kvg:078c5-Kaisho-g9" kvg:element="方" kvg:position="bottom"> <g id="kvg:078c5-Kaisho-g10" kvg:element="亠" kvg:position="top"> <!--<path id="kvg:078c5-Kaisho-s12" kvg:type="㇑a" d="M68.06,46.12C69.5,47,72,51,72.8,53.94"/>--> <!--<path id="kvg:078c5-Kaisho-s13" kvg:type="㇐" d="M47.6,59.54c0.89,0.06,2.91,0.39,3.77,0.32c6.96-0.59,32.63-2.5,42.09-2.89c1.46-0.06,2.21,0.04,3.29,0.4"/>--> </g> <g id="kvg:078c5-Kaisho-g11" kvg:position="bottom"> <!--<path id="kvg:078c5-Kaisho-s14" kvg:type="㇆a" d="M68.5,68c4.1,1.3,12.3,2.7,16.61,3.3c1.94,0.27,2.86,1.08,2.38,2.6c-1.6,5.07-8.83,17.27-14.79,22.26c-3.56,2.97-5.19-1.16-6.19-2.64"/>--> <!--<path id="kvg:078c5-Kaisho-s15" kvg:type="㇒" d="M69.2,62.2c0.41,0.95,0.33,2.02-0.16,3.09C65.68,72.66,56,85,41.84,93.53"/>--> </g> </g> </g> </g> </g> <g id="kvg:StrokeNumbers_078c5-Kaisho" style="font-size:8;fill:#808080">                </g> </svg> 