<?xml version="1.0" encoding="UTF-8"?>  <!DOCTYPE svg PUBLIC "-//W3C//DTD SVG 1.0//EN" "http://www.w3.org/TR/2001/REC-SVG-20010904/DTD/svg10.dtd"  <!ATTLIST g xmlns:kvg CDATA #FIXED "http://kanjivg.tagaini.net" kvg:element CDATA #IMPLIED kvg:variant CDATA #IMPLIED kvg:partial CDATA #IMPLIED kvg:original CDATA #IMPLIED kvg:part CDATA #IMPLIED kvg:number CDATA #IMPLIED kvg:tradForm CDATA #IMPLIED kvg:radicalForm CDATA #IMPLIED kvg:position CDATA #IMPLIED kvg:radical CDATA #IMPLIED kvg:phon CDATA #IMPLIED > <!ATTLIST path xmlns:kvg CDATA #FIXED "http://kanjivg.tagaini.net" kvg:type CDATA #IMPLIED >  <svg xmlns="http://www.w3.org/2000/svg" width="109" height="109" viewBox="0 0 109 109"> <g id="kvg:StrokePaths_079cb-Kaisho" style="fill:none;stroke:#000000;stroke-width:3;stroke-linecap:round;stroke-linejoin:round;"> <g id="kvg:079cb-Kaisho" kvg:element="秋"> <g id="kvg:079cb-Kaisho-g1" kvg:element="禾" kvg:position="left" kvg:radical="general"> <g id="kvg:079cb-Kaisho-g2" kvg:element="丿" kvg:position="top"> <!--<path id="kvg:079cb-Kaisho-s1" kvg:type="㇒" d="M40,15c0.07,0.4,0.15,1.02-0.14,1.58c-1.74,3.34-11.71,10.68-25.35,15.17"/>--> </g> <g id="kvg:079cb-Kaisho-g3" kvg:element="木" kvg:position="bottom"> <!--<path id="kvg:079cb-Kaisho-s2" kvg:type="㇐" d="M8.62,43.85c0.37,0.21,1.36,0.55,2.35,0.62c2.72,0.21,25.6-3.11,32.41-4.14c0.99-0.15,1.24-0.21,1.86,0"/>--> <!--<path id="kvg:079cb-Kaisho-s3" kvg:type="㇑" d="M28.83,28.16c0.36,0.41,1.58,1.86,1.66,2.69c0.07,0.83-0.07,55.71-0.07,55.9c0,12.5-4.66,3.5-5.91,2.25"/>--> <!--<path id="kvg:079cb-Kaisho-s4" kvg:type="㇒" d="M29.43,44.47C25.9,54.56,20,67,12,75.25"/>--> <!--<path id="kvg:079cb-Kaisho-s5" kvg:type="㇔/㇏" d="M33.75,52.25c3.25,1.75,6,5.25,7.75,7.5"/>--> </g> </g> <g id="kvg:079cb-Kaisho-g4" kvg:element="火" kvg:position="right"> <!--<path id="kvg:079cb-Kaisho-s6" kvg:type="㇔" d="M50.75,41.25c1.86,2.7,4.56,10.37,5.07,13.07"/>--> <!--<path id="kvg:079cb-Kaisho-s7" kvg:type="㇒" d="M85.75,35c0.65,0.85,1.38,1.98,0.79,3.29C85.95,39.61,79.45,49.93,76.5,53"/>--> <!--<path id="kvg:079cb-Kaisho-s8" kvg:type="㇒" d="M66.71,16.75c1.05,0.73,1.59,2.7,1.61,3.92C68.75,52,63.75,79.25,41.75,91.5"/>--> <!--<path id="kvg:079cb-Kaisho-s9" kvg:type="㇏" d="M67.57,55.79C75.25,70.5,86,83,92.55,88.72c1.91,1.67,2.22,1.58,3.7,2.03"/>--> </g> </g> </g> <g id="kvg:StrokeNumbers_079cb-Kaisho" style="font-size:8;fill:#808080">          </g> </svg> 