<?xml version="1.0" encoding="UTF-8"?>  <!DOCTYPE svg PUBLIC "-//W3C//DTD SVG 1.0//EN" "http://www.w3.org/TR/2001/REC-SVG-20010904/DTD/svg10.dtd"  <!ATTLIST g xmlns:kvg CDATA #FIXED "http://kanjivg.tagaini.net" kvg:element CDATA #IMPLIED kvg:variant CDATA #IMPLIED kvg:partial CDATA #IMPLIED kvg:original CDATA #IMPLIED kvg:part CDATA #IMPLIED kvg:number CDATA #IMPLIED kvg:tradForm CDATA #IMPLIED kvg:radicalForm CDATA #IMPLIED kvg:position CDATA #IMPLIED kvg:radical CDATA #IMPLIED kvg:phon CDATA #IMPLIED > <!ATTLIST path xmlns:kvg CDATA #FIXED "http://kanjivg.tagaini.net" kvg:type CDATA #IMPLIED >  <svg xmlns="http://www.w3.org/2000/svg" width="109" height="109" viewBox="0 0 109 109"> <g id="kvg:StrokePaths_079d2-Kaisho" style="fill:none;stroke:#000000;stroke-width:3;stroke-linecap:round;stroke-linejoin:round;"> <g id="kvg:079d2-Kaisho" kvg:element="秒"> <g id="kvg:079d2-Kaisho-g1" kvg:element="禾" kvg:position="left" kvg:radical="general"> <g id="kvg:079d2-Kaisho-g2" kvg:element="丿" kvg:position="top"> <!--<path id="kvg:079d2-Kaisho-s1" kvg:type="㇒" d="M43,12.5c0.07,0.39,0.15,1.02-0.14,1.58C41.12,17.43,29.64,23.76,16,28.25"/>--> </g> <g id="kvg:079d2-Kaisho-g3" kvg:element="木" kvg:position="bottom"> <!--<path id="kvg:079d2-Kaisho-s2" kvg:type="㇐" d="M13.12,42.85c0.37,0.21,2.36,0.2,3.35,0.12c6.03-0.47,24.1-3.61,30.91-4.64c0.99-0.15,1.24-0.21,1.86,0"/>--> <!--<path id="kvg:079d2-Kaisho-s3" kvg:type="㇑" d="M33.33,24.16c0.37,0.49,1.08,2.21,1.16,3.2c0.07,0.98-0.07,64.7-0.07,64.9c0,11.75-5.29,3.12-6.91,1.5"/>--> <!--<path id="kvg:079d2-Kaisho-s4" kvg:type="㇒" d="M33.43,42.47C29.9,52.55,24,65,16,73.25"/>--> <!--<path id="kvg:079d2-Kaisho-s5" kvg:type="㇔/㇏" d="M37.75,51.5c3.25,2.16,6,6.47,7.75,9.25"/>--> </g> </g> <g id="kvg:079d2-Kaisho-g4" kvg:element="少" kvg:position="right"> <g id="kvg:079d2-Kaisho-g5" kvg:element="小"> <!--<path id="kvg:079d2-Kaisho-s6" kvg:type="㇚" d="M71.86,14.75c0.07,0.32,1.4,1.67,1.46,3.71c0.31,9.78-0.2,34.71-0.2,38.04c0,8.5-5.53,0.51-6.69-0.33"/>--> <!--<path id="kvg:079d2-Kaisho-s7" kvg:type="㇒" d="M61.94,34.19c0.04,0.45,0.14,1.19-0.08,1.82c-1.55,4.52-7.12,12.73-12.45,16.9"/>--> <!--<path id="kvg:079d2-Kaisho-s8" kvg:type="㇔" d="M86.43,30.98C90.89,33.92,96.88,41.51,98,46.09"/>--> </g> <g id="kvg:079d2-Kaisho-g6" kvg:element="丿"> <!--<path id="kvg:079d2-Kaisho-s9" kvg:type="㇒" d="M86.3,47.72c0.1,1.15,0.16,2.94-0.21,4.61C83,66.25,66,87.75,48.47,96"/>--> </g> </g> </g> </g> <g id="kvg:StrokeNumbers_079d2-Kaisho" style="font-size:8;fill:#808080">          </g> </svg> 