<?xml version="1.0" encoding="UTF-8"?>  <!DOCTYPE svg PUBLIC "-//W3C//DTD SVG 1.0//EN" "http://www.w3.org/TR/2001/REC-SVG-20010904/DTD/svg10.dtd"  <!ATTLIST g xmlns:kvg CDATA #FIXED "http://kanjivg.tagaini.net" kvg:element CDATA #IMPLIED kvg:variant CDATA #IMPLIED kvg:partial CDATA #IMPLIED kvg:original CDATA #IMPLIED kvg:part CDATA #IMPLIED kvg:number CDATA #IMPLIED kvg:tradForm CDATA #IMPLIED kvg:radicalForm CDATA #IMPLIED kvg:position CDATA #IMPLIED kvg:radical CDATA #IMPLIED kvg:phon CDATA #IMPLIED > <!ATTLIST path xmlns:kvg CDATA #FIXED "http://kanjivg.tagaini.net" kvg:type CDATA #IMPLIED >  <svg xmlns="http://www.w3.org/2000/svg" width="109" height="109" viewBox="0 0 109 109"> <g id="kvg:StrokePaths_079e4-HyougaiKaisho" style="fill:none;stroke:#000000;stroke-width:3;stroke-linecap:round;stroke-linejoin:round;"> <g id="kvg:079e4-HyougaiKaisho" kvg:element="秤"> <g id="kvg:079e4-HyougaiKaisho-g1" kvg:element="禾" kvg:position="left" kvg:radical="general"> <g id="kvg:079e4-HyougaiKaisho-g2" kvg:element="丿" kvg:position="top"> <!--<path id="kvg:079e4-HyougaiKaisho-s1" kvg:type="㇒" d="M39.25,14.75c0.07,0.34,0.14,0.87-0.14,1.35c-1.63,2.84-11.02,9.08-23.86,12.9"/>--> </g> <g id="kvg:079e4-HyougaiKaisho-g3" kvg:element="木" kvg:position="bottom"> <!--<path id="kvg:079e4-HyougaiKaisho-s2" kvg:type="㇐" d="M11.37,43.34c0.35,0.23,1.27,0.59,2.19,0.67c2.54,0.22,23.34-3.35,29.69-4.47c0.92-0.16,1.15-0.22,1.73,0"/>--> <!--<path id="kvg:079e4-HyougaiKaisho-s3" kvg:type="㇑" d="M31.75,25.66c0.44,0.5,0.71,2.26,0.8,3.27c0.09,1.01-0.09,60.79-0.09,62.08c0,14.5-5.34,3.62-7.46,1.5"/>--> <!--<path id="kvg:079e4-HyougaiKaisho-s4" kvg:type="㇒" d="M32.43,42.47C28.44,53.46,21.78,67.01,12.75,76"/>--> <!--<path id="kvg:079e4-HyougaiKaisho-s5" kvg:type="㇔/㇏" d="M35.25,50.75c3.04,2.57,5.61,7.7,7.25,11"/>--> </g> </g> <g id="kvg:079e4-HyougaiKaisho-g4" kvg:element="平" kvg:position="right"> <g id="kvg:079e4-HyougaiKaisho-g5" kvg:element="干" kvg:part="1"> <!--<path id="kvg:079e4-HyougaiKaisho-s6" kvg:type="㇐" d="M50.26,18.9c0.71,0.25,3.13,0.26,3.84,0.23C61,18.75,79,15.98,87.32,15.49c1.17-0.07,3.64,0.21,4.22,0.34"/>--> </g> <!--<path id="kvg:079e4-HyougaiKaisho-s7" kvg:type="㇔" d="M51.23,30.92c3.55,3.01,7.47,9.32,8.36,14"/>--> <!--<path id="kvg:079e4-HyougaiKaisho-s8" kvg:type="㇒" d="M93.08,25.48c0.03,0.46,0.07,1.19-0.06,1.85c-0.79,3.9-5.3,12.47-11.47,17.71"/>--> <g id="kvg:079e4-HyougaiKaisho-g6" kvg:element="干" kvg:part="2"> <g id="kvg:079e4-HyougaiKaisho-g7" kvg:element="十"> <!--<path id="kvg:079e4-HyougaiKaisho-s9" kvg:type="㇐" d="M46.5,53.72c1.14,0.4,3.23,0.45,4.37,0.4c12.63-0.62,29.63-1.87,44.88-3.23c1.89-0.17,3.04,0.19,3.99,0.39"/>--> <!--<path id="kvg:079e4-HyougaiKaisho-s10" kvg:type="㇑" d="M70.35,20.32c0.41,0.47,1.26,3.49,1.34,4.42c0.08,0.93-0.05,65.57-0.13,71.39"/>--> </g> </g> </g> </g> </g> <g id="kvg:StrokeNumbers_079e4-HyougaiKaisho" style="font-size:8;fill:#808080">           </g> </svg> 