<?xml version="1.0" encoding="UTF-8"?>  <!DOCTYPE svg PUBLIC "-//W3C//DTD SVG 1.0//EN" "http://www.w3.org/TR/2001/REC-SVG-20010904/DTD/svg10.dtd"  <!ATTLIST g xmlns:kvg CDATA #FIXED "http://kanjivg.tagaini.net" kvg:element CDATA #IMPLIED kvg:variant CDATA #IMPLIED kvg:partial CDATA #IMPLIED kvg:original CDATA #IMPLIED kvg:part CDATA #IMPLIED kvg:number CDATA #IMPLIED kvg:tradForm CDATA #IMPLIED kvg:radicalForm CDATA #IMPLIED kvg:position CDATA #IMPLIED kvg:radical CDATA #IMPLIED kvg:phon CDATA #IMPLIED > <!ATTLIST path xmlns:kvg CDATA #FIXED "http://kanjivg.tagaini.net" kvg:type CDATA #IMPLIED >  <svg xmlns="http://www.w3.org/2000/svg" width="109" height="109" viewBox="0 0 109 109"> <g id="kvg:StrokePaths_079fb-Kaisho" style="fill:none;stroke:#000000;stroke-width:3;stroke-linecap:round;stroke-linejoin:round;"> <g id="kvg:079fb-Kaisho" kvg:element="移"> <g id="kvg:079fb-Kaisho-g1" kvg:element="禾" kvg:position="left" kvg:radical="general"> <g id="kvg:079fb-Kaisho-g2" kvg:element="丿" kvg:position="top"> <!--<path id="kvg:079fb-Kaisho-s1" kvg:type="㇒" d="M40,15.5c0.06,0.34,0.13,0.88-0.12,1.37C38.36,19.76,29.66,26.11,17.75,30"/>--> </g> <g id="kvg:079fb-Kaisho-g3" kvg:element="木" kvg:position="bottom"> <!--<path id="kvg:079fb-Kaisho-s2" kvg:type="㇐" d="M13.62,42.85c0.37,0.21,1.37,0.74,2.35,0.62c8.28-0.97,21.1-2.61,27.91-3.64c0.99-0.15,1.24-0.21,1.86,0"/>--> <!--<path id="kvg:079fb-Kaisho-s3" kvg:type="㇑" d="M33.83,25.66c0.37,0.58,0.58,2.6,0.66,3.76c0.07,1.16-0.57,62.64-0.57,62.83c0,12.5-5.79,2.62-7.16,1.25"/>--> <!--<path id="kvg:079fb-Kaisho-s4" kvg:type="㇒" d="M33.43,42.97C29.9,53.05,24.5,63.5,16,73.75"/>--> <!--<path id="kvg:079fb-Kaisho-s5" kvg:type="㇔/㇏" d="M37.75,52.75c3.25,1.75,6,4.75,7.75,7"/>--> </g> </g> <g id="kvg:079fb-Kaisho-g4" kvg:element="多" kvg:position="right"> <g id="kvg:079fb-Kaisho-g5" kvg:element="夕" kvg:position="top"> <!--<path id="kvg:079fb-Kaisho-s6" kvg:type="㇒" d="M68.25,12.67c0.17,0.28,0.54,1.12,0.41,1.69C67.92,17.71,61,27.75,53.1,34.07"/>--> <!--<path id="kvg:079fb-Kaisho-s7" kvg:type="㇇" d="M68.54,21.49c0.28,0.02,1.44-0.02,2.22-0.11c2.55-0.29,9.62-2.12,12.98-3.14c2.41-0.73,3.29,0.58,2.75,2.07c-2.96,8.14-19.37,28.17-34.82,32.53"/>--> <!--<path id="kvg:079fb-Kaisho-s8" kvg:type="㇔" d="M61.4,30.83c2.29,1.46,6,6.08,6.65,8.42"/>--> </g> <g id="kvg:079fb-Kaisho-g6" kvg:element="夕" kvg:position="bottom"> <!--<path id="kvg:079fb-Kaisho-s9" kvg:type="㇒" d="M74.67,44.75c0.33,0.46,0.7,1.38,0.28,2.23C71.75,53.5,64.25,63.75,50.13,72.6"/>--> <!--<path id="kvg:079fb-Kaisho-s10" kvg:type="㇇" d="M74.08,54.19c0.29,0.03,1.51-0.02,2.33-0.12c2.68-0.32,9.93-0.83,13.46-1.95c2.53-0.81,3.36,0.6,2.88,2.27C90.08,63.7,66.49,91.88,47.25,98"/>--> <!--<path id="kvg:079fb-Kaisho-s11" kvg:type="㇔" d="M64.51,66.88c2.78,1.63,7.29,6.79,8.07,9.39"/>--> </g> </g> </g> </g> <g id="kvg:StrokeNumbers_079fb-Kaisho" style="font-size:8;fill:#808080">            </g> </svg> 