<?xml version="1.0" encoding="UTF-8"?>  <!DOCTYPE svg PUBLIC "-//W3C//DTD SVG 1.0//EN" "http://www.w3.org/TR/2001/REC-SVG-20010904/DTD/svg10.dtd"  <!ATTLIST g xmlns:kvg CDATA #FIXED "http://kanjivg.tagaini.net" kvg:element CDATA #IMPLIED kvg:variant CDATA #IMPLIED kvg:partial CDATA #IMPLIED kvg:original CDATA #IMPLIED kvg:part CDATA #IMPLIED kvg:number CDATA #IMPLIED kvg:tradForm CDATA #IMPLIED kvg:radicalForm CDATA #IMPLIED kvg:position CDATA #IMPLIED kvg:radical CDATA #IMPLIED kvg:phon CDATA #IMPLIED > <!ATTLIST path xmlns:kvg CDATA #FIXED "http://kanjivg.tagaini.net" kvg:type CDATA #IMPLIED >  <svg xmlns="http://www.w3.org/2000/svg" width="109" height="109" viewBox="0 0 109 109"> <g id="kvg:StrokePaths_07a14-Kaisho" style="fill:none;stroke:#000000;stroke-width:3;stroke-linecap:round;stroke-linejoin:round;"> <g id="kvg:07a14-Kaisho" kvg:element="稔"> <g id="kvg:07a14-Kaisho-g1" kvg:element="禾" kvg:position="left" kvg:radical="general"> <g id="kvg:07a14-Kaisho-g2" kvg:element="丿" kvg:position="top"> <!--<path id="kvg:07a14-Kaisho-s1" kvg:type="㇒" d="M36.5,14c0.07,0.37,0.14,0.94-0.14,1.47c-1.63,3.09-11.02,9.88-23.86,14.03"/>--> </g> <g id="kvg:07a14-Kaisho-g3" kvg:element="木" kvg:position="bottom"> <!--<path id="kvg:07a14-Kaisho-s2" kvg:type="㇐" d="M9.62,42.33c0.3,0.17,1.12,0.45,1.93,0.51c2.24,0.17,19.56-2.56,25.16-3.41c0.81-0.12,1.02-0.17,1.53,0"/>--> <!--<path id="kvg:07a14-Kaisho-s3" kvg:type="㇑" d="M26.58,26.41c0.17,0.84,1.08,2.86,1.16,3.69c0.07,0.83-0.07,62.21-0.07,62.4c0,12-5.29,2.38-6.41,1.25"/>--> <!--<path id="kvg:07a14-Kaisho-s4" kvg:type="㇒" d="M27.43,42.47C24,54.93,18.27,70.31,10.5,80.5"/>--> <!--<path id="kvg:07a14-Kaisho-s5" kvg:type="㇔/㇏" d="M31,51.5c3.67,2.57,6.77,7.7,8.75,11"/>--> </g> </g> <g id="kvg:07a14-Kaisho-g4" kvg:element="念" kvg:position="right"> <g id="kvg:07a14-Kaisho-g5" kvg:element="今" kvg:position="top"> <g id="kvg:07a14-Kaisho-g6" kvg:element="人" kvg:position="top"> <!--<path id="kvg:07a14-Kaisho-s6" kvg:type="㇒" d="M63.67,11.5c0.06,0.76,0.24,2.01-0.13,3.06C61,21.95,53.46,33.95,41.08,43.89"/>--> <!--<path id="kvg:07a14-Kaisho-s7" kvg:type="㇏" d="M63.49,14.6c4.31,4.42,22.88,18.87,27.63,22.11c1.61,1.1,3.68,1.57,5.29,1.88"/>--> </g> <g id="kvg:07a14-Kaisho-g7" kvg:position="bottom"> <g id="kvg:07a14-Kaisho-g8" kvg:element="一"> <!--<path id="kvg:07a14-Kaisho-s8" kvg:type="㇐" d="M57,36.3c0.3,0.14,2.11,0.16,2.4,0.14c3.08-0.16,10.09-1.44,13.7-2.15c0.48-0.1,2.55,0.07,2.8,0.14"/>--> </g> <!--<path id="kvg:07a14-Kaisho-s9" kvg:type="㇖" d="M48.84,49.4c0.78,0.37,1.23,0.57,3.11,0.27c7.31-1.17,21.39-3.71,26.62-4.66c3.1-0.57,4.37,1.21,2.34,3.76c-4.27,5.37-6.02,8.2-10.68,12.19"/>--> </g> </g> <g id="kvg:07a14-Kaisho-g9" kvg:element="心" kvg:position="bottom"> <!--<path id="kvg:07a14-Kaisho-s10" kvg:type="㇔" d="M45.91,76.83c0.26,2.34-2.61,12.67-4.7,16.58"/>--> <!--<path id="kvg:07a14-Kaisho-s11" kvg:type="㇟b" d="M52.32,71.51c5.83,13.98,16.83,23.81,35.97,21.38c5.27-0.67,5.27-2.7,2.38-5.71"/>--> <!--<path id="kvg:07a14-Kaisho-s12" kvg:type="㇔a" d="M66.18,71.99C68,77,70.75,79.5,71.61,74.57"/>--> <!--<path id="kvg:07a14-Kaisho-s13" kvg:type="㇔" d="M85.81,65.66c4.04,2.46,7.07,4.7,10.35,12.32"/>--> </g> </g> </g> </g> <g id="kvg:StrokeNumbers_07a14-Kaisho" style="font-size:8;fill:#808080">              </g> </svg> 