<?xml version="1.0" encoding="UTF-8"?>  <!DOCTYPE svg PUBLIC "-//W3C//DTD SVG 1.0//EN" "http://www.w3.org/TR/2001/REC-SVG-20010904/DTD/svg10.dtd"  <!ATTLIST g xmlns:kvg CDATA #FIXED "http://kanjivg.tagaini.net" kvg:element CDATA #IMPLIED kvg:variant CDATA #IMPLIED kvg:partial CDATA #IMPLIED kvg:original CDATA #IMPLIED kvg:part CDATA #IMPLIED kvg:number CDATA #IMPLIED kvg:tradForm CDATA #IMPLIED kvg:radicalForm CDATA #IMPLIED kvg:position CDATA #IMPLIED kvg:radical CDATA #IMPLIED kvg:phon CDATA #IMPLIED > <!ATTLIST path xmlns:kvg CDATA #FIXED "http://kanjivg.tagaini.net" kvg:type CDATA #IMPLIED >  <svg xmlns="http://www.w3.org/2000/svg" width="109" height="109" viewBox="0 0 109 109"> <g id="kvg:StrokePaths_07a4f-Kaisho" style="fill:none;stroke:#000000;stroke-width:3;stroke-linecap:round;stroke-linejoin:round;"> <g id="kvg:07a4f-Kaisho" kvg:element="穏"> <g id="kvg:07a4f-Kaisho-g1" kvg:element="禾" kvg:position="left" kvg:radical="general"> <g id="kvg:07a4f-Kaisho-g2" kvg:element="丿" kvg:position="top"> <!--<path id="kvg:07a4f-Kaisho-s1" kvg:type="㇒" d="M39.26,15.5c0.06,0.37,0.13,0.96-0.12,1.49c-1.48,3.14-9.99,10.04-21.63,14.26"/>--> </g> <g id="kvg:07a4f-Kaisho-g3" kvg:element="木" kvg:position="bottom"> <!--<path id="kvg:07a4f-Kaisho-s2" kvg:type="㇐" d="M14.62,43.35c0.3,0.21,1.61,0.69,2.42,0.62c5.22-0.47,20.38-3.11,25.93-4.14c0.8-0.15,1.01-0.21,1.51,0"/>--> <!--<path id="kvg:07a4f-Kaisho-s3" kvg:type="㇑" d="M32.45,27.16c0.58,0.66,0.93,2.96,1.04,4.28c0.12,1.32-0.08,60.13-0.08,60.32c0,11.75-6.16,2.5-7.16,1.5"/>--> <!--<path id="kvg:07a4f-Kaisho-s4" kvg:type="㇒" d="M32.43,43.97C28.9,54.05,21.5,69,13.5,77.25"/>--> <!--<path id="kvg:07a4f-Kaisho-s5" kvg:type="㇔/㇏" d="M35.75,52.75c3.25,1.75,6,5.25,7.75,7.5"/>--> </g> </g> <g id="kvg:07a4f-Kaisho-g4" kvg:position="right"> <g id="kvg:07a4f-Kaisho-g5" kvg:element="⺤" kvg:variant="true" kvg:original="爪"> <!--<path id="kvg:07a4f-Kaisho-s6" kvg:type="㇒" d="M79.76,12.39c0.08,0.3,0.16,0.78-0.15,1.22c-1.84,2.56-14.36,8.15-27.32,10.51"/>--> <!--<path id="kvg:07a4f-Kaisho-s7" kvg:type="㇔" d="M51.39,28.69c1.61,1.7,4.17,6.98,4.57,9.62"/>--> <!--<path id="kvg:07a4f-Kaisho-s8" kvg:type="㇔" d="M66.19,25.35c1.9,1.75,4.9,7.19,5.38,9.91"/>--> <!--<path id="kvg:07a4f-Kaisho-s9" kvg:type="㇒" d="M89.16,21.39c0.03,0.31,0.05,0.81-0.05,1.27c-0.58,2.67-3.94,8.52-8.52,12.1"/>--> </g> <g id="kvg:07a4f-Kaisho-g6" kvg:element="⺕" kvg:variant="true" kvg:original="彑"> <!--<path id="kvg:07a4f-Kaisho-s10" kvg:type="㇕" d="M50.66,43.67c1.77,0.23,2.62,0.6,4.25,0.45c9.91-0.91,20.59-2.95,28.72-3.98c2.28-0.29,3.89,1.14,3.54,3.41c-0.92,5.94-1.41,14.5-2.83,22.64"/>--> <!--<path id="kvg:07a4f-Kaisho-s11" kvg:type="㇐c" d="M51.38,54.94c1.54,0.18,3.08,0.39,4.62,0.24c6.75-0.67,11.58-1.17,17.3-1.93c1.22-0.16,2.4-0.32,3.53-0.47"/>--> <!--<path id="kvg:07a4f-Kaisho-s12" kvg:type="㇐c" d="M51.49,66.74c1.11,0.14,3.11,0.55,4.43,0.41c11.33-1.17,21.08-3.22,28.69-3.61"/>--> </g> <g id="kvg:07a4f-Kaisho-g7" kvg:element="心"> <!--<path id="kvg:07a4f-Kaisho-s13" kvg:type="㇔" d="M47.76,79.38c0.26,1.98-2.56,10.71-4.61,14.01"/>--> <!--<path id="kvg:07a4f-Kaisho-s14" kvg:type="㇟b" d="M54.43,77.12C62.5,92,71.5,95.75,85.28,96.43c6.36,0.31,6.82-3.2,1.6-5.98"/>--> <!--<path id="kvg:07a4f-Kaisho-s15" kvg:type="㇔a" d="M67.94,73.94c1.28,2.79,4.31,9.23,5.44,4.06"/>--> <!--<path id="kvg:07a4f-Kaisho-s16" kvg:type="㇔" d="M87.67,74.2c3.24,2.43,6.9,6.03,9.56,10.85"/>--> </g> </g> </g> </g> <g id="kvg:StrokeNumbers_07a4f-Kaisho" style="font-size:8;fill:#808080">                 </g> </svg> 