<?xml version="1.0" encoding="UTF-8"?>  <!DOCTYPE svg PUBLIC "-//W3C//DTD SVG 1.0//EN" "http://www.w3.org/TR/2001/REC-SVG-20010904/DTD/svg10.dtd"  <!ATTLIST g xmlns:kvg CDATA #FIXED "http://kanjivg.tagaini.net" kvg:element CDATA #IMPLIED kvg:variant CDATA #IMPLIED kvg:partial CDATA #IMPLIED kvg:original CDATA #IMPLIED kvg:part CDATA #IMPLIED kvg:number CDATA #IMPLIED kvg:tradForm CDATA #IMPLIED kvg:radicalForm CDATA #IMPLIED kvg:position CDATA #IMPLIED kvg:radical CDATA #IMPLIED kvg:phon CDATA #IMPLIED > <!ATTLIST path xmlns:kvg CDATA #FIXED "http://kanjivg.tagaini.net" kvg:type CDATA #IMPLIED >  <svg xmlns="http://www.w3.org/2000/svg" width="109" height="109" viewBox="0 0 109 109"> <g id="kvg:StrokePaths_07a43-Kaisho" style="fill:none;stroke:#000000;stroke-width:3;stroke-linecap:round;stroke-linejoin:round;"> <g id="kvg:07a43-Kaisho" kvg:element="穃"> <g id="kvg:07a43-Kaisho-g1" kvg:element="禾" kvg:position="left" kvg:radical="general"> <g id="kvg:07a43-Kaisho-g2" kvg:element="丿" kvg:position="top"> <!--<path id="kvg:07a43-Kaisho-s1" kvg:type="㇒" d="M36.74,13.75c0.07,0.29,0.15,0.74-0.15,1.16C34.81,17.35,24.54,22.72,10.5,26"/>--> </g> <g id="kvg:07a43-Kaisho-g3" kvg:element="木" kvg:position="bottom"> <!--<path id="kvg:07a43-Kaisho-s2" kvg:type="㇐" d="M10.37,41.53c0.35,0.13,1.28,0.34,2.2,0.39c2.55,0.13,16.67-1.95,23.05-2.59c0.92-0.09,1.16-0.13,1.74,0"/>--> <!--<path id="kvg:07a43-Kaisho-s3" kvg:type="㇑" d="M25.39,24.25c0.43,0.46,0.69,2.05,0.78,2.96c0.09,0.91-0.09,59.59-0.09,65.29c0,11.5-4.58,2.75-5.83,1.5"/>--> <!--<path id="kvg:07a43-Kaisho-s4" kvg:type="㇒" d="M26,44c-3.45,11.3-9.2,25.25-17,34.5"/>--> <!--<path id="kvg:07a43-Kaisho-s5" kvg:type="㇔/㇏" d="M26.5,48.75c3.98,3.09,7.35,9.27,9.5,13.25"/>--> </g> </g> <g id="kvg:07a43-Kaisho-g4" kvg:element="容" kvg:position="right"> <g id="kvg:07a43-Kaisho-g5" kvg:element="宀" kvg:position="top"> <!--<path id="kvg:07a43-Kaisho-s6" kvg:type="㇑a" d="M61.13,12.16c3.79,2.51,6.21,6.96,7.09,12.07"/>--> <g id="kvg:07a43-Kaisho-g6" kvg:element="冖"> <!--<path id="kvg:07a43-Kaisho-s7" kvg:type="㇔" d="M43.71,26.25c0,4.02-1.9,15.07-2.77,17.75"/>--> <!--<path id="kvg:07a43-Kaisho-s8" kvg:type="㇖b" d="M45.75,30.67c6.31-0.56,39.98-2.55,45.11-2.58c9.31-0.06,1.38,6.71-0.61,7.91"/>--> </g> </g> <g id="kvg:07a43-Kaisho-g7" kvg:element="谷" kvg:position="bottom"> <g id="kvg:07a43-Kaisho-g8" kvg:position="top"> <!--<path id="kvg:07a43-Kaisho-s9" kvg:type="㇒" d="M58,38.5c0.04,0.39,0.2,1.07-0.09,1.58c-2.23,4-6.92,9.55-15.41,15.17"/>--> <!--<path id="kvg:07a43-Kaisho-s10" kvg:type="㇔" d="M75.25,37.5c5.67,3.28,12.57,9.55,14.51,12.91"/>--> </g> <g id="kvg:07a43-Kaisho-g9" kvg:position="bottom"> <!--<path id="kvg:07a43-Kaisho-s11" kvg:type="㇒" d="M66.5,46.25c0.08,0.71,0.35,1.91-0.17,2.84c-4.62,8.32-14.07,18.15-30.25,28.08"/>--> <!--<path id="kvg:07a43-Kaisho-s12" kvg:type="㇏" d="M65.91,50.65c7.21,7.25,20.65,17.6,27.26,21.45c1.64,0.96,3.54,1.58,5.08,1.89"/>--> <g id="kvg:07a43-Kaisho-g10" kvg:element="口"> <!--<path id="kvg:07a43-Kaisho-s13" kvg:type="㇑" d="M50.5,75.75c0.36,0.33,0.73,1.12,0.89,1.53c1.25,3.31,2.36,14.47,3.18,20.42"/>--> <!--<path id="kvg:07a43-Kaisho-s14" kvg:type="㇕b" d="M52.07,77.82c9.93-1.07,21.67-1.95,27.52-2.65c2-0.24,3.22,1.6,2.92,2.65c-1.45,5-1.66,9.79-3.01,15.93"/>--> <!--<path id="kvg:07a43-Kaisho-s15" kvg:type="㇐b" d="M54.34,95.72c7.43-0.15,18.8-0.95,27.34-1.19"/>--> </g> </g> </g> </g> </g> </g> <g id="kvg:StrokeNumbers_07a43-Kaisho" style="font-size:8;fill:#808080">                </g> </svg> 