<?xml version="1.0" encoding="UTF-8"?>  <!DOCTYPE svg PUBLIC "-//W3C//DTD SVG 1.0//EN" "http://www.w3.org/TR/2001/REC-SVG-20010904/DTD/svg10.dtd"  <!ATTLIST g xmlns:kvg CDATA #FIXED "http://kanjivg.tagaini.net" kvg:element CDATA #IMPLIED kvg:variant CDATA #IMPLIED kvg:partial CDATA #IMPLIED kvg:original CDATA #IMPLIED kvg:part CDATA #IMPLIED kvg:number CDATA #IMPLIED kvg:tradForm CDATA #IMPLIED kvg:radicalForm CDATA #IMPLIED kvg:position CDATA #IMPLIED kvg:radical CDATA #IMPLIED kvg:phon CDATA #IMPLIED > <!ATTLIST path xmlns:kvg CDATA #FIXED "http://kanjivg.tagaini.net" kvg:type CDATA #IMPLIED >  <svg xmlns="http://www.w3.org/2000/svg" width="109" height="109" viewBox="0 0 109 109"> <g id="kvg:StrokePaths_07a7f-HyougaiKaisho" style="fill:none;stroke:#000000;stroke-width:3;stroke-linecap:round;stroke-linejoin:round;"> <g id="kvg:07a7f-HyougaiKaisho" kvg:element="穿"> <g id="kvg:07a7f-HyougaiKaisho-g1" kvg:element="穴" kvg:variant="true" kvg:position="top" kvg:radical="general"> <g id="kvg:07a7f-HyougaiKaisho-g2" kvg:element="宀" kvg:position="top"> <!--<path id="kvg:07a7f-HyougaiKaisho-s1" kvg:type="㇑a" d="M50.1,10.25c2.61,0.84,5.96,4.99,6.26,7.4"/>--> <g id="kvg:07a7f-HyougaiKaisho-g3" kvg:element="冖"> <!--<path id="kvg:07a7f-HyougaiKaisho-s2" kvg:type="㇔" d="M22.41,23.51c0,3.23-2.17,12.59-3.16,14.74"/>--> <!--<path id="kvg:07a7f-HyougaiKaisho-s3" kvg:type="㇖b" d="M22.99,25.24c11.76-0.49,52.45-5.49,60.83-5.38c10.84,0.14,2.29,6.41-0.4,8.3"/>--> </g> </g> <g id="kvg:07a7f-HyougaiKaisho-g4" kvg:element="八" kvg:variant="true" kvg:position="bottom"> <!--<path id="kvg:07a7f-HyougaiKaisho-s4" kvg:type="㇒" d="M42.82,29.5c0.04,0.32,0.18,0.86-0.09,1.29c-2.48,3.97-7.7,8.56-15.81,12.37"/>--> <!--<path id="kvg:07a7f-HyougaiKaisho-s5" kvg:type="㇟a/㇏" d="M61.2,25.87c0.36,0.43,0.67,0.94,0.67,1.61c0,1.77-0.26,3.87-0.26,5.89c0,4.73,5.25,4.19,9.54,4.19c4.52,0,8.4-0.61,9.04-0.95"/>--> </g> </g> <g id="kvg:07a7f-HyougaiKaisho-g5" kvg:element="牙" kvg:position="bottom"> <!--<path id="kvg:07a7f-HyougaiKaisho-s6" kvg:type="㇐" d="M28.72,48.84c1.14,0.32,3.22,0.36,4.36,0.32c8.67-0.28,36.89-4.29,48.26-4.49c1.9-0.04,3.03,0.15,3.98,0.32"/>--> <!--<path id="kvg:07a7f-HyougaiKaisho-s7" kvg:type="㇑" d="M34.16,50.24c0,2.62-2.66,16.15-2.66,18.12"/>--> <!--<path id="kvg:07a7f-HyougaiKaisho-s8" kvg:type="㇐" d="M16,69.24c2.1,0.29,3.25,0.38,5.61,0.15c14.75-1.39,59.04-6.11,67.74-6.11c1.77,0,2.83,0.27,3.72,0.55"/>--> <g id="kvg:07a7f-HyougaiKaisho-g6" kvg:element="亅"> <!--<path id="kvg:07a7f-HyougaiKaisho-s9" kvg:type="㇚" d="M65.17,48.3c0.09,0.42,1.31,2.17,1.4,4.82c0.45,12.71-0.29,36.38-0.29,40.71c0,11.17-5.55,1.31-7.22,0.22"/>--> </g> <g id="kvg:07a7f-HyougaiKaisho-g7" kvg:element="丿"> <!--<path id="kvg:07a7f-HyougaiKaisho-s10" kvg:type="㇒" d="M61.72,66.35c-0.28,0.58-1.12,1.57-1.62,2.26c-5.19,7.04-21.57,19.15-43.85,27.05"/>--> </g> </g> </g> </g> <g id="kvg:StrokeNumbers_07a7f-HyougaiKaisho" style="font-size:8;fill:#808080">           </g> </svg> 