<?xml version="1.0" encoding="UTF-8"?>  <!DOCTYPE svg PUBLIC "-//W3C//DTD SVG 1.0//EN" "http://www.w3.org/TR/2001/REC-SVG-20010904/DTD/svg10.dtd"  <!ATTLIST g xmlns:kvg CDATA #FIXED "http://kanjivg.tagaini.net" kvg:element CDATA #IMPLIED kvg:variant CDATA #IMPLIED kvg:partial CDATA #IMPLIED kvg:original CDATA #IMPLIED kvg:part CDATA #IMPLIED kvg:number CDATA #IMPLIED kvg:tradForm CDATA #IMPLIED kvg:radicalForm CDATA #IMPLIED kvg:position CDATA #IMPLIED kvg:radical CDATA #IMPLIED kvg:phon CDATA #IMPLIED > <!ATTLIST path xmlns:kvg CDATA #FIXED "http://kanjivg.tagaini.net" kvg:type CDATA #IMPLIED >  <svg xmlns="http://www.w3.org/2000/svg" width="109" height="109" viewBox="0 0 109 109"> <g id="kvg:StrokePaths_07a81-Kaisho" style="fill:none;stroke:#000000;stroke-width:3;stroke-linecap:round;stroke-linejoin:round;"> <g id="kvg:07a81-Kaisho" kvg:element="突"> <g id="kvg:07a81-Kaisho-g1" kvg:element="穴" kvg:position="top" kvg:radical="general"> <g id="kvg:07a81-Kaisho-g2" kvg:element="宀" kvg:position="top"> <!--<path id="kvg:07a81-Kaisho-s1" kvg:type="㇑a" d="M50.09,12.25c2.04,0.68,4.86,4.01,5.4,5.89"/>--> <g id="kvg:07a81-Kaisho-g3" kvg:element="冖"> <!--<path id="kvg:07a81-Kaisho-s2" kvg:type="㇔" d="M20.62,23.77c0,4.42-2.2,16.59-3.2,19.54"/>--> <!--<path id="kvg:07a81-Kaisho-s3" kvg:type="㇖b" d="M20.82,27.36C32.75,26,75.73,22.4,82.61,22.03c14.39-0.78,3.21,7.18,1.49,7.98"/>--> </g> </g> <g id="kvg:07a81-Kaisho-g4" kvg:element="八" kvg:position="bottom"> <!--<path id="kvg:07a81-Kaisho-s4" kvg:type="㇒" d="M38.76,35.51c0.09,0.52,0.19,1.36-0.18,2.08C35.25,44,31,49.25,22.25,55.75"/>--> <!--<path id="kvg:07a81-Kaisho-s5" kvg:type="㇄" d="M59.01,31.48c0.94,0.76,1.68,1.66,1.74,2.84c0.25,5.25,0,3.18,0,6.68c0,4.75,1.75,6.5,11.25,6.5c7.25,0,11.25-0.25,12.5-1.75"/>--> </g> </g> <g id="kvg:07a81-Kaisho-g5" kvg:element="大" kvg:position="bottom"> <!--<path id="kvg:07a81-Kaisho-s6" kvg:type="㇐" d="M24.98,67.43c1.01,0.54,3.71,1.17,5.85,0.93c14.51-1.61,33.55-4.32,46.58-5.09c2.24-0.13,4.04-0.07,6.06,0.35"/>--> <!--<path id="kvg:07a81-Kaisho-s7" kvg:type="㇒" d="M51.22,49.53c0.51,0.68,0.77,1.46,0.76,2.93C51.73,77.82,39.46,91.21,19.25,99"/>--> <!--<path id="kvg:07a81-Kaisho-s8" kvg:type="㇏" d="M50.54,65.83c8.08,6.84,26.94,24.27,35.01,28.85c2.75,1.56,3.7,1.79,4.95,1.94"/>--> </g> </g> </g> <g id="kvg:StrokeNumbers_07a81-Kaisho" style="font-size:8;fill:#808080">         </g> </svg> 