<?xml version="1.0" encoding="UTF-8"?>  <!DOCTYPE svg PUBLIC "-//W3C//DTD SVG 1.0//EN" "http://www.w3.org/TR/2001/REC-SVG-20010904/DTD/svg10.dtd"  <!ATTLIST g xmlns:kvg CDATA #FIXED "http://kanjivg.tagaini.net" kvg:element CDATA #IMPLIED kvg:variant CDATA #IMPLIED kvg:partial CDATA #IMPLIED kvg:original CDATA #IMPLIED kvg:part CDATA #IMPLIED kvg:number CDATA #IMPLIED kvg:tradForm CDATA #IMPLIED kvg:radicalForm CDATA #IMPLIED kvg:position CDATA #IMPLIED kvg:radical CDATA #IMPLIED kvg:phon CDATA #IMPLIED > <!ATTLIST path xmlns:kvg CDATA #FIXED "http://kanjivg.tagaini.net" kvg:type CDATA #IMPLIED >  <svg xmlns="http://www.w3.org/2000/svg" width="109" height="109" viewBox="0 0 109 109"> <g id="kvg:StrokePaths_07a84-Kaisho" style="fill:none;stroke:#000000;stroke-width:3;stroke-linecap:round;stroke-linejoin:round;"> <g id="kvg:07a84-Kaisho" kvg:element="窄"> <g id="kvg:07a84-Kaisho-g1" kvg:element="穴" kvg:variant="true" kvg:position="top" kvg:radical="general"> <g id="kvg:07a84-Kaisho-g2" kvg:element="宀" kvg:position="top"> <!--<path id="kvg:07a84-Kaisho-s1" kvg:type="㇑a" d="M48.18,10.25c2.35,0.67,6.82,3.5,8.16,7.4"/>--> <g id="kvg:07a84-Kaisho-g3" kvg:element="冖"> <!--<path id="kvg:07a84-Kaisho-s2" kvg:type="㇔" d="M19.93,25.26c0,4.3-3.05,16.12-4.44,18.99"/>--> <!--<path id="kvg:07a84-Kaisho-s3" kvg:type="㇖b" d="M20.82,26.9c14.68-1.65,55.13-5.95,65.03-5.84c12.81,0.15,2.71,6.86-0.48,8.88"/>--> </g> </g> <g id="kvg:07a84-Kaisho-g4" kvg:element="八" kvg:variant="true" kvg:position="bottom"> <!--<path id="kvg:07a84-Kaisho-s4" kvg:type="㇒" d="M41.02,30.5c0.04,0.41,0.12,1.07-0.09,1.65c-1.43,4.1-6.68,9.85-15.52,15.77"/>--> <!--<path id="kvg:07a84-Kaisho-s5" kvg:type="㇟a/㇏" d="M60.74,26.37c0.55,0.41,0.98,0.89,1.01,1.52c0.15,2.81-0.39,5.55-0.39,7.46c0,4.47,6.56,3.96,13.02,3.96c6.81,0,11.3-0.58,12.26-0.9"/>--> </g> </g> <g id="kvg:07a84-Kaisho-g5" kvg:element="乍" kvg:position="bottom"> <g id="kvg:07a84-Kaisho-g6" kvg:element="丿"> <!--<path id="kvg:07a84-Kaisho-s6" kvg:type="㇒" d="M45.6,40.25c0.08,0.74,0.35,2-0.15,2.98C42.1,49.75,31.4,63,18.84,71.72"/>--> </g> <!--<path id="kvg:07a84-Kaisho-s7" kvg:type="㇐" d="M40.57,53.39c0.99,0.35,2.79,0.41,3.78,0.35c13-0.73,34.83-4.49,44.51-5.3c1.81-0.15,2.61-0.23,3.83-0.07"/>--> <!--<path id="kvg:07a84-Kaisho-s8" kvg:type="㇑" d="M51.94,56.11c0.99,0.46,1.59,2.05,1.79,2.97s0,34.72-0.2,40.43"/>--> <!--<path id="kvg:07a84-Kaisho-s9" kvg:type="㇐b" d="M56.51,65.46c0.46,0.17,18.08-2.74,26.82-2.78c0.76,0,1.22,0.08,1.6,0.17"/>--> <!--<path id="kvg:07a84-Kaisho-s10" kvg:type="㇐b" d="M55.82,78.18c0.55,0.17,18.18-1.93,29.3-2.78c0.91-0.07,1.46,0.08,1.91,0.17"/>--> </g> </g> </g> <g id="kvg:StrokeNumbers_07a84-Kaisho" style="font-size:8;fill:#808080">           </g> </svg> 