<?xml version="1.0" encoding="UTF-8"?>  <!DOCTYPE svg PUBLIC "-//W3C//DTD SVG 1.0//EN" "http://www.w3.org/TR/2001/REC-SVG-20010904/DTD/svg10.dtd"  <!ATTLIST g xmlns:kvg CDATA #FIXED "http://kanjivg.tagaini.net" kvg:element CDATA #IMPLIED kvg:variant CDATA #IMPLIED kvg:partial CDATA #IMPLIED kvg:original CDATA #IMPLIED kvg:part CDATA #IMPLIED kvg:number CDATA #IMPLIED kvg:tradForm CDATA #IMPLIED kvg:radicalForm CDATA #IMPLIED kvg:position CDATA #IMPLIED kvg:radical CDATA #IMPLIED kvg:phon CDATA #IMPLIED > <!ATTLIST path xmlns:kvg CDATA #FIXED "http://kanjivg.tagaini.net" kvg:type CDATA #IMPLIED >  <svg xmlns="http://www.w3.org/2000/svg" width="109" height="109" viewBox="0 0 109 109"> <g id="kvg:StrokePaths_07a93-Kaisho" style="fill:none;stroke:#000000;stroke-width:3;stroke-linecap:round;stroke-linejoin:round;"> <g id="kvg:07a93-Kaisho" kvg:element="窓"> <g id="kvg:07a93-Kaisho-g1" kvg:element="穴" kvg:variant="true" kvg:position="top" kvg:radical="general"> <g id="kvg:07a93-Kaisho-g2" kvg:element="宀" kvg:position="top"> <!--<path id="kvg:07a93-Kaisho-s1" kvg:type="㇑a" d="M49.34,10.25c3.31,1.62,6.53,4.21,8.09,7.65"/>--> <g id="kvg:07a93-Kaisho-g3" kvg:element="冖"> <!--<path id="kvg:07a93-Kaisho-s2" kvg:type="㇔" d="M24.69,23.76c0,3.73-2.04,14-2.96,16.49"/>--> <!--<path id="kvg:07a93-Kaisho-s3" kvg:type="㇖b" d="M26.32,26.24c11.43-1.99,46.43-6.49,54.77-6.38c10.79,0.14,2.29,6.41-0.4,8.3"/>--> </g> </g> <g id="kvg:07a93-Kaisho-g4" kvg:element="八" kvg:variant="true" kvg:position="bottom"> <!--<path id="kvg:07a93-Kaisho-s4" kvg:type="㇒" d="M40.02,31.5c0.04,0.42,0.08,1.09-0.08,1.69c-0.93,3.57-5.81,12.1-13.53,16.22"/>--> <!--<path id="kvg:07a93-Kaisho-s5" kvg:type="㇔/㇏" d="M62.24,28.87c5.37,2.71,12.51,8.58,15.65,14.18"/>--> </g> </g> <g id="kvg:07a93-Kaisho-g5" kvg:position="bottom"> <g id="kvg:07a93-Kaisho-g6" kvg:element="厶"> <!--<path id="kvg:07a93-Kaisho-s6" kvg:type="㇜" d="M51.5,42c0.5,1.25,0.3,1.82-0.02,2.33c-4.23,6.67-7.73,10.42-14.93,17.5c-1.77,1.74-1.93,2.13,0.92,1.49c9.28-2.07,22.03-6.07,29.52-7.4"/>--> <!--<path id="kvg:07a93-Kaisho-s7" kvg:type="㇔" d="M61.83,50.55c3.54,2.19,9.15,9.01,10.03,12.42"/>--> </g> <g id="kvg:07a93-Kaisho-g7" kvg:element="心"> <!--<path id="kvg:07a93-Kaisho-s8" kvg:type="㇔" d="M24.63,78.27c0.31,2.54-3.12,13.75-5.62,17.98"/>--> <!--<path id="kvg:07a93-Kaisho-s9" kvg:type="㇟b" d="M32.5,76.71C42,93,57.5,99.75,77.45,98.75c9.05,0.25,8.8-4,3.33-7.48"/>--> <!--<path id="kvg:07a93-Kaisho-s10" kvg:type="㇔a" d="M49.53,69.87c1.56,2.9,5.65,9.37,6.63,5.28"/>--> <!--<path id="kvg:07a93-Kaisho-s11" kvg:type="㇔" d="M76.6,71.34c4.06,1.52,7.1,2.91,10.4,7.62"/>--> </g> </g> </g> </g> <g id="kvg:StrokeNumbers_07a93-Kaisho" style="font-size:8;fill:#808080">            </g> </svg> 