<?xml version="1.0" encoding="UTF-8"?>  <!DOCTYPE svg PUBLIC "-//W3C//DTD SVG 1.0//EN" "http://www.w3.org/TR/2001/REC-SVG-20010904/DTD/svg10.dtd"  <!ATTLIST g xmlns:kvg CDATA #FIXED "http://kanjivg.tagaini.net" kvg:element CDATA #IMPLIED kvg:variant CDATA #IMPLIED kvg:partial CDATA #IMPLIED kvg:original CDATA #IMPLIED kvg:part CDATA #IMPLIED kvg:number CDATA #IMPLIED kvg:tradForm CDATA #IMPLIED kvg:radicalForm CDATA #IMPLIED kvg:position CDATA #IMPLIED kvg:radical CDATA #IMPLIED kvg:phon CDATA #IMPLIED > <!ATTLIST path xmlns:kvg CDATA #FIXED "http://kanjivg.tagaini.net" kvg:type CDATA #IMPLIED >  <svg xmlns="http://www.w3.org/2000/svg" width="109" height="109" viewBox="0 0 109 109"> <g id="kvg:StrokePaths_07ac3-Kaisho" style="fill:none;stroke:#000000;stroke-width:3;stroke-linecap:round;stroke-linejoin:round;"> <g id="kvg:07ac3-Kaisho" kvg:element="竃"> <g id="kvg:07ac3-Kaisho-g1" kvg:element="穴" kvg:variant="true" kvg:position="top" kvg:radical="general"> <g id="kvg:07ac3-Kaisho-g2" kvg:element="宀" kvg:position="top"> <!--<path id="kvg:07ac3-Kaisho-s1" kvg:type="㇑a" d="M49.34,9.5c2.4,0.68,5.83,4.03,5.78,6"/>--> <g id="kvg:07ac3-Kaisho-g3" kvg:element="冖"> <!--<path id="kvg:07ac3-Kaisho-s2" kvg:type="㇔" d="M24.65,20.04c0,2.73-2.05,10.24-2.98,12.06"/>--> <!--<path id="kvg:07ac3-Kaisho-s3" kvg:type="㇖b" d="M24.73,22.78c10.85-1.69,48.05-5.23,55.96-5.14c10.24,0.12,2.17,5.43-0.38,7.03"/>--> </g> </g> <g id="kvg:07ac3-Kaisho-g4" kvg:element="八" kvg:variant="true" kvg:position="bottom"> <!--<path id="kvg:07ac3-Kaisho-s4" kvg:type="㇒" d="M40.35,24.34c0.04,0.3,0.17,0.81-0.08,1.21c-2.31,3.73-7.15,8.03-14.68,11.61"/>--> <!--<path id="kvg:07ac3-Kaisho-s5" kvg:type="㇟a/㇏" d="M58.77,20.69c0.38,0.37,0.71,0.8,0.71,1.36c0,1.5-0.27,4.12-0.27,5.84c0,4,5.52,3.55,10.02,3.55c4.75,0,8.82-0.52,9.49-0.81"/>--> </g> </g> <g id="kvg:07ac3-Kaisho-g5" kvg:position="bottom"> <g id="kvg:07ac3-Kaisho-g6" kvg:element="土" kvg:position="top"> <!--<path id="kvg:07ac3-Kaisho-s6" kvg:type="㇐" d="M32.79,40.63c0.73,0.3,2.08,0.37,2.81,0.3c9.43-1.01,25.88-3.14,35.37-3.4c1.22-0.03,1.96,0.14,2.57,0.29"/>--> <!--<path id="kvg:07ac3-Kaisho-s7" kvg:type="㇑a" d="M52.08,29.62c0.09,0.23,1.32,1.18,1.32,2.63c0,2.75-0.27,11.5-0.27,14.77"/>--> <!--<path id="kvg:07ac3-Kaisho-s8" kvg:type="㇐" d="M19.88,49.29c1.28,0.47,3.64,0.58,4.92,0.47c15.89-1.33,45.88-4.96,60.09-5.58c2.14-0.09,3.42,0.23,4.49,0.46"/>--> </g> <g id="kvg:07ac3-Kaisho-g7" kvg:position="bottom"> <g id="kvg:07ac3-Kaisho-g8" kvg:element="日"> <!--<path id="kvg:07ac3-Kaisho-s9" kvg:type="㇑" d="M26.75,54.81c0.74,0.28,1.49,1.89,1.49,2.33c0,0.32,2.3,11.98,2.5,12.32"/>--> <!--<path id="kvg:07ac3-Kaisho-s10" kvg:type="㇕a" d="M27.98,55.38c4.21-0.38,46.67-4.34,50.52-4.34c2,0,3,0.7,3,2.06c0,2.69-2.99,12.02-2.99,12.36"/>--> <!--<path id="kvg:07ac3-Kaisho-s11" kvg:type="㇐a" d="M29.22,61.49c11.2-0.83,22.39-1.8,33.58-2.71c1.35-0.11,2.67-0.22,3.94-0.32"/>--> <!--<path id="kvg:07ac3-Kaisho-s12" kvg:type="㇐a" d="M30.48,67.91c8.77-0.78,41.42-3.46,48.31-3.98"/>--> </g> <g id="kvg:07ac3-Kaisho-g9" kvg:element="日"> <!--<path id="kvg:07ac3-Kaisho-s13" kvg:type="㇑" d="M24.78,75.38c0.79,0.32,1.59,2.17,1.59,2.68c0,0.36,2.45,13.76,2.66,14.16"/>--> <!--<path id="kvg:07ac3-Kaisho-s14" kvg:type="㇕a" d="M26.08,76.03c4.47-0.43,50.11-4.99,54.2-4.99c2.13,0,3.19,0.81,3.19,2.37c0,3.09-4.17,15.32-4.17,15.7"/>--> <!--<path id="kvg:07ac3-Kaisho-s15" kvg:type="㇐a" d="M27.4,83.05c11.9-0.98,23.8-2.07,35.69-3.11c1.43-0.13,2.83-0.25,4.18-0.37"/>--> <!--<path id="kvg:07ac3-Kaisho-s16" kvg:type="㇐a" d="M28.74,90.42c9.32-0.9,44.02-3.97,51.35-4.58"/>--> </g> <!--<path id="kvg:07ac3-Kaisho-s17" kvg:type="㇟" d="M51.99,55.87c0.85,1.33,1.53,2.9,1.58,4.95c0.23,9.16-0.61,19.06-0.61,25.29c0,11.38,2.54,11.9,20.27,11.9c19.52,0,21.66-2.27,21.66-10.21"/>--> </g> </g> </g> </g> <g id="kvg:StrokeNumbers_07ac3-Kaisho" style="font-size:8;fill:#808080">                  </g> </svg> 