<?xml version="1.0" encoding="UTF-8"?>  <!DOCTYPE svg PUBLIC "-//W3C//DTD SVG 1.0//EN" "http://www.w3.org/TR/2001/REC-SVG-20010904/DTD/svg10.dtd"  <!ATTLIST g xmlns:kvg CDATA #FIXED "http://kanjivg.tagaini.net" kvg:element CDATA #IMPLIED kvg:variant CDATA #IMPLIED kvg:partial CDATA #IMPLIED kvg:original CDATA #IMPLIED kvg:part CDATA #IMPLIED kvg:number CDATA #IMPLIED kvg:tradForm CDATA #IMPLIED kvg:radicalForm CDATA #IMPLIED kvg:position CDATA #IMPLIED kvg:radical CDATA #IMPLIED kvg:phon CDATA #IMPLIED > <!ATTLIST path xmlns:kvg CDATA #FIXED "http://kanjivg.tagaini.net" kvg:type CDATA #IMPLIED >  <svg xmlns="http://www.w3.org/2000/svg" width="109" height="109" viewBox="0 0 109 109"> <g id="kvg:StrokePaths_07adc-Kaisho" style="fill:none;stroke:#000000;stroke-width:3;stroke-linecap:round;stroke-linejoin:round;"> <g id="kvg:07adc-Kaisho" kvg:element="竜"> <g id="kvg:07adc-Kaisho-g1" kvg:element="龍" kvg:variant="true" kvg:radical="general"> <g id="kvg:07adc-Kaisho-g2" kvg:element="立" kvg:position="top"> <g id="kvg:07adc-Kaisho-g3" kvg:element="亠" kvg:position="top"> <!--<path id="kvg:07adc-Kaisho-s1" kvg:type="㇑a" d="M49.51,10.5c2.64,1.31,4.92,3.87,6.6,7.59"/>--> <!--<path id="kvg:07adc-Kaisho-s2" kvg:type="㇐" d="M29.82,25.33c0.91,0.26,1.98,0.3,2.88,0.26c5.13-0.22,35.9-4.04,43.66-4.23c1.52-0.04,2.43,0.12,3.18,0.25"/>--> </g> <g id="kvg:07adc-Kaisho-g4" kvg:position="bottom"> <!--<path id="kvg:07adc-Kaisho-s3" kvg:type="㇔" d="M38.93,28.64c3.11,4.71,5.09,10.39,5.37,13.5"/>--> <!--<path id="kvg:07adc-Kaisho-s4" kvg:type="㇒" d="M67.87,24.79c0.38,1.21,0.46,2.24,0.38,2.71c-0.51,3.26-4.98,12.24-6.26,14.73"/>--> <!--<path id="kvg:07adc-Kaisho-s5" kvg:type="㇐" d="M16.08,47.07c1.4,0.38,3.04,0.5,4.43,0.38c15.73-1.38,48.84-4.57,66.51-5.34c2.33-0.1,3.73,0.18,4.9,0.37"/>--> </g> </g> <g id="kvg:07adc-Kaisho-g5" kvg:position="bottom"> <!--<path id="kvg:07adc-Kaisho-s6" kvg:type="㇑" d="M29.03,57.28c0.35,0.44,0.36,0.75,0.56,1.31c1.6,4.61,3.1,17.26,4.09,25.87"/>--> <!--<path id="kvg:07adc-Kaisho-s7" kvg:type="㇕" d="M30.69,57.9c12.37-1.16,34.58-2.63,43.81-3.61c3.39-0.36,4.63,1.91,4.46,3.18c-0.64,4.65-3.72,15.82-5.27,23.59"/>--> <!--<path id="kvg:07adc-Kaisho-s8" kvg:type="㇐" d="M33,69.83c9.57-1.08,19.23-1.65,28.83-2.41c1.15-0.09,2.28-0.18,3.35-0.26"/>--> <!--<path id="kvg:07adc-Kaisho-s9" kvg:type="㇐" d="M34.32,82.2c10.43-0.95,27.08-2.56,39.38-3.37"/>--> <!--<path id="kvg:07adc-Kaisho-s10" kvg:type="㇟" d="M52.24,58.62c0.74,1.19,1.33,2.59,1.38,4.43c0.2,8.19-0.53,17.14-0.53,22.7c0,10.75,2.92,12.03,17.67,12.03c17.75,0,20.39-0.53,20.39-10.62"/>--> </g> </g> </g> </g> <g id="kvg:StrokeNumbers_07adc-Kaisho" style="font-size:8;fill:#808080">           </g> </svg> 