<?xml version="1.0" encoding="UTF-8"?>  <!DOCTYPE svg PUBLIC "-//W3C//DTD SVG 1.0//EN" "http://www.w3.org/TR/2001/REC-SVG-20010904/DTD/svg10.dtd"  <!ATTLIST g xmlns:kvg CDATA #FIXED "http://kanjivg.tagaini.net" kvg:element CDATA #IMPLIED kvg:variant CDATA #IMPLIED kvg:partial CDATA #IMPLIED kvg:original CDATA #IMPLIED kvg:part CDATA #IMPLIED kvg:number CDATA #IMPLIED kvg:tradForm CDATA #IMPLIED kvg:radicalForm CDATA #IMPLIED kvg:position CDATA #IMPLIED kvg:radical CDATA #IMPLIED kvg:phon CDATA #IMPLIED > <!ATTLIST path xmlns:kvg CDATA #FIXED "http://kanjivg.tagaini.net" kvg:type CDATA #IMPLIED >  <svg xmlns="http://www.w3.org/2000/svg" width="109" height="109" viewBox="0 0 109 109"> <g id="kvg:StrokePaths_07bc9-Kaisho" style="fill:none;stroke:#000000;stroke-width:3;stroke-linecap:round;stroke-linejoin:round;"> <g id="kvg:07bc9-Kaisho" kvg:element="築"> <g id="kvg:07bc9-Kaisho-g1" kvg:element="筑" kvg:position="top"> <g id="kvg:07bc9-Kaisho-g2" kvg:element="竹" kvg:variant="true" kvg:position="top" kvg:radical="general"> <g id="kvg:07bc9-Kaisho-g3" kvg:position="left"> <!--<path id="kvg:07bc9-Kaisho-s1" kvg:type="㇒" d="M28.53,12.25c0.03,0.53,0.06,1.37-0.06,2.14c-0.75,4.5-5.03,14.39-10.89,20.45"/>--> <!--<path id="kvg:07bc9-Kaisho-s2" kvg:type="㇐b" d="M28.29,23.13c3.31,0,15.14-2.92,18.86-2.92"/>--> <!--<path id="kvg:07bc9-Kaisho-s3" kvg:type="㇔/㇑" d="M34.53,23.22c1.83,1.68,4.72,6.91,5.18,9.53"/>--> </g> <g id="kvg:07bc9-Kaisho-g4" kvg:position="right"> <!--<path id="kvg:07bc9-Kaisho-s4" kvg:type="㇒" d="M61.1,10.25c0.02,0.47,0.11,1.22-0.05,1.88c-1.23,4.93-4.12,10.96-8.6,17.02"/>--> <!--<path id="kvg:07bc9-Kaisho-s5" kvg:type="㇐b" d="M60.92,19.56c4.23,0,20.98-3.69,25.73-3.69"/>--> <!--<path id="kvg:07bc9-Kaisho-s6" kvg:type="㇒/㇚" d="M73.19,20.69c0.02,0.24,0.05,0.61-0.04,0.96c-0.53,2.01-3.56,6.44-7.71,9.14"/>--> </g> </g> <g id="kvg:07bc9-Kaisho-g5" kvg:position="bottom"> <g id="kvg:07bc9-Kaisho-g6" kvg:element="工" kvg:position="left"> <!--<path id="kvg:07bc9-Kaisho-s7" kvg:type="㇐" d="M21.06,42.32c0.59,0.3,1.76,0.36,2.35,0.28c3.78-0.52,15.2-1.98,19.4-2.46c0.98-0.11,2.06-0.14,2.55,0.01"/>--> <!--<path id="kvg:07bc9-Kaisho-s8" kvg:type="㇑a" d="M33.19,42.26c0.57,0.26,0.91,1.17,1.02,1.69c0.11,0.52,0,8.75-0.11,12.01"/>--> <!--<path id="kvg:07bc9-Kaisho-s9" kvg:type="㇐" d="M21.66,60.94c0.62,0.71,1.86,1.08,3.71,0.15c5.15-2.59,14.42-7.02,19.57-9.61"/>--> </g> <g id="kvg:07bc9-Kaisho-g7" kvg:element="凡" kvg:position="right"> <g id="kvg:07bc9-Kaisho-g8" kvg:element="几"> <g id="kvg:07bc9-Kaisho-g9" kvg:element="丿"> <!--<path id="kvg:07bc9-Kaisho-s10" kvg:type="㇒" d="M56.56,36.31c0.25,0.62,0.6,1.1,0.6,1.88c0,7.06-1.91,16.31-7.31,20.57"/>--> </g> <!--<path id="kvg:07bc9-Kaisho-s11" kvg:type="㇈b" d="M57.38,37.51c2.25-0.45,13.05-2.17,14.86-2.62c1.8-0.45,3.62,0.43,3.3,2.7c-0.54,3.91-0.32,8.67-0.36,10.32c-0.15,5.4,0.07,8.02,7.9,8.02c8.23,0,7.86-1.8,7.86-6.46"/>--> </g> <g id="kvg:07bc9-Kaisho-g10" kvg:element="丶"> <!--<path id="kvg:07bc9-Kaisho-s12" kvg:type="㇔" d="M60.12,43.8c4.15,2.47,6.52,5.09,7.8,7.41"/>--> </g> </g> </g> </g> <g id="kvg:07bc9-Kaisho-g11" kvg:element="木" kvg:variant="true" kvg:position="bottom"> <!--<path id="kvg:07bc9-Kaisho-s13" kvg:type="㇐" d="M18.25,73c1.5,0,2.25,0.32,4.25,0.25C29.75,73,72,68,88,67.25c2-0.09,2.5-0.25,3.75,0"/>--> <!--<path id="kvg:07bc9-Kaisho-s14" kvg:type="㇚/㇑" d="M53.25,60.25c1.25,0.5,2,2.25,2.25,3.25s-0.25,29.73-0.25,31c0,12.25-5.75,3-7,1.75"/>--> <!--<path id="kvg:07bc9-Kaisho-s15" kvg:type="㇔/㇒" d="M44.5,79.75c-3.52,6.29-12.68,15.19-20,18.75"/>--> <!--<path id="kvg:07bc9-Kaisho-s16" kvg:type="㇔/㇏" d="M65.5,78.5c4.82,3.01,14.17,13.13,16.93,18.58"/>--> </g> </g> </g> <g id="kvg:StrokeNumbers_07bc9-Kaisho" style="font-size:8;fill:#808080">                 </g> </svg> 