<?xml version="1.0" encoding="UTF-8"?>  <!DOCTYPE svg PUBLIC "-//W3C//DTD SVG 1.0//EN" "http://www.w3.org/TR/2001/REC-SVG-20010904/DTD/svg10.dtd"  <!ATTLIST g xmlns:kvg CDATA #FIXED "http://kanjivg.tagaini.net" kvg:element CDATA #IMPLIED kvg:variant CDATA #IMPLIED kvg:partial CDATA #IMPLIED kvg:original CDATA #IMPLIED kvg:part CDATA #IMPLIED kvg:number CDATA #IMPLIED kvg:tradForm CDATA #IMPLIED kvg:radicalForm CDATA #IMPLIED kvg:position CDATA #IMPLIED kvg:radical CDATA #IMPLIED kvg:phon CDATA #IMPLIED > <!ATTLIST path xmlns:kvg CDATA #FIXED "http://kanjivg.tagaini.net" kvg:type CDATA #IMPLIED >  <svg xmlns="http://www.w3.org/2000/svg" width="109" height="109" viewBox="0 0 109 109"> <g id="kvg:StrokePaths_07c21-Kaisho" style="fill:none;stroke:#000000;stroke-width:3;stroke-linecap:round;stroke-linejoin:round;"> <g id="kvg:07c21-Kaisho" kvg:element="簡"> <g id="kvg:07c21-Kaisho-g1" kvg:element="竹" kvg:variant="true" kvg:position="top" kvg:radical="general"> <g id="kvg:07c21-Kaisho-g2" kvg:position="left"> <!--<path id="kvg:07c21-Kaisho-s1" kvg:type="㇒" d="M30,11.25c0.03,0.46,0.07,1.2-0.07,1.87C29.1,17.06,24.75,24,17.75,31"/>--> <!--<path id="kvg:07c21-Kaisho-s2" kvg:type="㇐b" d="M27.73,22.79c3.71,0,16.61-2.79,20.77-2.79"/>--> <!--<path id="kvg:07c21-Kaisho-s3" kvg:type="㇔/㇑" d="M34.77,24.08c2.04,1.39,5.28,5.72,5.79,7.88"/>--> </g> <g id="kvg:07c21-Kaisho-g3" kvg:position="right"> <!--<path id="kvg:07c21-Kaisho-s4" kvg:type="㇒" d="M66.74,10c0.03,0.39,0.14,1.01-0.06,1.56c-1.5,4.09-5.66,9.92-11.17,14.94"/>--> <!--<path id="kvg:07c21-Kaisho-s5" kvg:type="㇐b" d="M64.48,20.66c4.73,0,22.08-3.57,27.4-3.57"/>--> <!--<path id="kvg:07c21-Kaisho-s6" kvg:type="㇒/㇚" d="M76.78,21.25c0.02,0.21,0.03,0.55-0.03,0.85c-0.38,1.8-2.54,5.74-5.5,8.15"/>--> </g> </g> <g id="kvg:07c21-Kaisho-g4" kvg:element="間" kvg:position="bottom"> <g id="kvg:07c21-Kaisho-g5" kvg:element="門" kvg:position="kamae"> <g id="kvg:07c21-Kaisho-g6" kvg:position="left"> <!--<path id="kvg:07c21-Kaisho-s7" kvg:type="㇑" d="M21.14,39.18c0.69,0.33,1.2,1.79,1.34,2.46c0.14,0.67-0.09,49.92-0.23,54.11"/>--> <!--<path id="kvg:07c21-Kaisho-s8" kvg:type="㇕a" d="M22.66,40.28c2.28-0.07,18.54-2.6,20.62-2.69c1.73-0.07,2.72,1.17,2.72,1.77c0,2.39-1.44,17.82-1.44,18.27"/>--> <!--<path id="kvg:07c21-Kaisho-s9" kvg:type="㇐a" d="M23.07,49.79c3.36-0.26,6.69-0.79,10.01-1.31c0.93-0.15,1.88-0.29,2.83-0.45"/>--> <!--<path id="kvg:07c21-Kaisho-s10" kvg:type="㇐a" d="M22.66,58.9c7.6-0.85,12.59-2.15,20.69-2.89"/>--> </g> <g id="kvg:07c21-Kaisho-g7" kvg:position="right"> <!--<path id="kvg:07c21-Kaisho-s11" kvg:type="㇑" d="M61.61,35.29c0.39,0.46,0.79,1.44,0.79,2.05c0,0.61-0.13,18.44,0,19.06"/>--> <!--<path id="kvg:07c21-Kaisho-s12" kvg:type="㇆a" d="M63.05,36c2.21-0.07,21.06-2.93,23.08-3.01c1.68-0.07,2.65,0.72,2.63,1.12c-0.44,12.17-0.33,51.09-0.44,59.91c-0.08,6.2-5.63,1.32-7.48,0.16"/>--> <!--<path id="kvg:07c21-Kaisho-s13" kvg:type="㇐a" d="M63.44,44.99c4.26-0.18,8.52-0.73,12.76-1.18c1.21-0.13,2.41-0.26,3.55-0.37"/>--> <!--<path id="kvg:07c21-Kaisho-s14" kvg:type="㇐a" d="M63.05,54.55c4.43,0,18.29-2.03,24.03-2.03"/>--> </g> </g> <g id="kvg:07c21-Kaisho-g8" kvg:element="日"> <!--<path id="kvg:07c21-Kaisho-s15" kvg:type="㇑" d="M41.39,64.74c0.37,0.62,0.74,0.93,0.74,1.76c0,0.83-0.25,22.81-0.25,23.22c0,0.41,0.12,0.41,0.25,1.24"/>--> <!--<path id="kvg:07c21-Kaisho-s16" kvg:type="㇕a" d="M42.74,65.85c2.08-0.1,17.87-2.33,19.76-2.45c1.58-0.1,2.59,1.15,2.47,1.76c-0.25,1.24-0.37,14.31-0.36,23.43c0,0.94-0.12,1.35-0.12,1.97"/>--> <!--<path id="kvg:07c21-Kaisho-s17" kvg:type="㇐a" d="M43.11,76.87c3.51-0.41,7.03-0.76,10.55-1.09c1.05-0.1,2.1-0.19,3.1-0.28"/>--> <!--<path id="kvg:07c21-Kaisho-s18" kvg:type="㇐a" d="M42.74,89.04c4.15,0,15.71-1.22,20.64-1.62"/>--> </g> </g> </g> </g> <g id="kvg:StrokeNumbers_07c21-Kaisho" style="font-size:8;fill:#808080">                   </g> </svg> 