<?xml version="1.0" encoding="UTF-8"?>  <!DOCTYPE svg PUBLIC "-//W3C//DTD SVG 1.0//EN" "http://www.w3.org/TR/2001/REC-SVG-20010904/DTD/svg10.dtd"  <!ATTLIST g xmlns:kvg CDATA #FIXED "http://kanjivg.tagaini.net" kvg:element CDATA #IMPLIED kvg:variant CDATA #IMPLIED kvg:partial CDATA #IMPLIED kvg:original CDATA #IMPLIED kvg:part CDATA #IMPLIED kvg:number CDATA #IMPLIED kvg:tradForm CDATA #IMPLIED kvg:radicalForm CDATA #IMPLIED kvg:position CDATA #IMPLIED kvg:radical CDATA #IMPLIED kvg:phon CDATA #IMPLIED > <!ATTLIST path xmlns:kvg CDATA #FIXED "http://kanjivg.tagaini.net" kvg:type CDATA #IMPLIED >  <svg xmlns="http://www.w3.org/2000/svg" width="109" height="109" viewBox="0 0 109 109"> <g id="kvg:StrokePaths_07c73-Kaisho" style="fill:none;stroke:#000000;stroke-width:3;stroke-linecap:round;stroke-linejoin:round;"> <g id="kvg:07c73-Kaisho" kvg:element="米" kvg:radical="general"> <!--<path id="kvg:07c73-Kaisho-s1" kvg:type="㇔" d="M29.52,28.08c2.98,1.94,7.49,7.4,8.23,10.42"/>--> <!--<path id="kvg:07c73-Kaisho-s2" kvg:type="㇒" d="M78.52,20.14c0.03,0.37,0.07,0.95-0.07,1.47c-0.82,3.11-5.49,9.93-11.9,14.1"/>--> <!--<path id="kvg:07c73-Kaisho-s3" kvg:type="㇐" d="M18.75,49.25C19.5,49.5,21.5,49.91,23.5,50c5.5,0.25,49.75-6.5,58.5-6c2,0.11,2.5-0.25,3.75,0"/>--> <!--<path id="kvg:07c73-Kaisho-s4" kvg:type="㇑" d="M51.25,13.5c1.25,0.5,2,2.25,2.25,3.25s-0.25,67.75-0.25,74c0,14-5.62,2.38-6.75,1.25"/>--> <!--<path id="kvg:07c73-Kaisho-s5" kvg:type="㇒" d="M51.25,47.25C44.69,60.25,28.75,78.5,14,86"/>--> <!--<path id="kvg:07c73-Kaisho-s6" kvg:type="㇏" d="M56,48.75c5.02,4.8,27.02,27.53,32.47,32.25c1.85,1.6,3.43,2.29,5.28,2.75"/>--> </g> </g> <g id="kvg:StrokeNumbers_07c73-Kaisho" style="font-size:8;fill:#808080">       </g> </svg> 