<?xml version="1.0" encoding="UTF-8"?>  <!DOCTYPE svg PUBLIC "-//W3C//DTD SVG 1.0//EN" "http://www.w3.org/TR/2001/REC-SVG-20010904/DTD/svg10.dtd"  <!ATTLIST g xmlns:kvg CDATA #FIXED "http://kanjivg.tagaini.net" kvg:element CDATA #IMPLIED kvg:variant CDATA #IMPLIED kvg:partial CDATA #IMPLIED kvg:original CDATA #IMPLIED kvg:part CDATA #IMPLIED kvg:number CDATA #IMPLIED kvg:tradForm CDATA #IMPLIED kvg:radicalForm CDATA #IMPLIED kvg:position CDATA #IMPLIED kvg:radical CDATA #IMPLIED kvg:phon CDATA #IMPLIED > <!ATTLIST path xmlns:kvg CDATA #FIXED "http://kanjivg.tagaini.net" kvg:type CDATA #IMPLIED >  <svg xmlns="http://www.w3.org/2000/svg" width="109" height="109" viewBox="0 0 109 109"> <g id="kvg:StrokePaths_07c83-Kaisho" style="fill:none;stroke:#000000;stroke-width:3;stroke-linecap:round;stroke-linejoin:round;"> <g id="kvg:07c83-Kaisho" kvg:element="粃"> <g id="kvg:07c83-Kaisho-g1" kvg:element="米" kvg:variant="true" kvg:position="left" kvg:radical="general"> <!--<path id="kvg:07c83-Kaisho-s1" kvg:type="㇔" d="M14.19,26.14c2.65,2.21,6.65,8.47,7.31,11.91"/>--> <!--<path id="kvg:07c83-Kaisho-s2" kvg:type="㇒" d="M44.26,22.47c0.02,0.31,0.04,0.81-0.04,1.26c-0.51,2.66-3.42,8.49-7.4,12.06"/>--> <!--<path id="kvg:07c83-Kaisho-s3" kvg:type="㇐" d="M11.35,45.2c0.56,0.19,2.05,0.66,3.53,0.56c5.33-0.37,21.15-2.21,27.18-2.81c1.48-0.15,1.86-0.19,2.79,0"/>--> <!--<path id="kvg:07c83-Kaisho-s4" kvg:type="㇑" d="M29.02,16.46c0.88,0.45,1.41,2.03,1.59,2.94s-0.18,64.74-0.18,70.39c0,7.96-4.68,2.96-5.93,1.5"/>--> <!--<path id="kvg:07c83-Kaisho-s5" kvg:type="㇒" d="M30.52,44.96C26.69,56.45,17.37,72.59,8.75,79.23"/>--> <!--<path id="kvg:07c83-Kaisho-s6" kvg:type="㇔/㇏" d="M33.37,51.32c4.46,2.97,7.74,6.39,9.4,11.4"/>--> </g> <g id="kvg:07c83-Kaisho-g2" kvg:element="比" kvg:position="right"> <g id="kvg:07c83-Kaisho-g3" kvg:position="left"> <!--<path id="kvg:07c83-Kaisho-s7" kvg:type="㇐b" d="M53.23,47.28c4.49-0.31,7.83-0.91,11.75-1.44c1.15-0.15,3.05-0.15,3.64-0.06"/>--> <!--<path id="kvg:07c83-Kaisho-s8" kvg:type="㇙" d="M51.87,16.83c0.69,1.12,1.29,2.3,1.29,3.84c0,4.17,0.28,58.33,0.28,64.53c0,3.8,1.57,4.55,3.28,3.14c4.79-3.94,6.54-6.34,9.76-8.6"/>--> </g> <g id="kvg:07c83-Kaisho-g4" kvg:element="匕" kvg:position="right"> <!--<path id="kvg:07c83-Kaisho-s9" kvg:type="㇒" d="M74.73,47.13c5.29-0.35,9.23-1.03,13.85-1.62c1.35-0.17,3.59-0.17,4.29-0.07"/>--> <!--<path id="kvg:07c83-Kaisho-s10" kvg:type="㇟" d="M73.29,15.5c0.8,1.18,1.49,3.06,1.49,4.55c0,3.93-0.37,57.04-0.37,61.65c0,10.54,2.34,11.55,11.39,11.55c5.76,0,8.51-0.5,9.81-2.12"/>--> </g> </g> </g> </g> <g id="kvg:StrokeNumbers_07c83-Kaisho" style="font-size:8;fill:#808080">           </g> </svg> 