<?xml version="1.0" encoding="UTF-8"?>  <!DOCTYPE svg PUBLIC "-//W3C//DTD SVG 1.0//EN" "http://www.w3.org/TR/2001/REC-SVG-20010904/DTD/svg10.dtd"  <!ATTLIST g xmlns:kvg CDATA #FIXED "http://kanjivg.tagaini.net" kvg:element CDATA #IMPLIED kvg:variant CDATA #IMPLIED kvg:partial CDATA #IMPLIED kvg:original CDATA #IMPLIED kvg:part CDATA #IMPLIED kvg:number CDATA #IMPLIED kvg:tradForm CDATA #IMPLIED kvg:radicalForm CDATA #IMPLIED kvg:position CDATA #IMPLIED kvg:radical CDATA #IMPLIED kvg:phon CDATA #IMPLIED > <!ATTLIST path xmlns:kvg CDATA #FIXED "http://kanjivg.tagaini.net" kvg:type CDATA #IMPLIED >  <svg xmlns="http://www.w3.org/2000/svg" width="109" height="109" viewBox="0 0 109 109"> <g id="kvg:StrokePaths_07c92-Kaisho" style="fill:none;stroke:#000000;stroke-width:3;stroke-linecap:round;stroke-linejoin:round;"> <g id="kvg:07c92-Kaisho" kvg:element="粒"> <g id="kvg:07c92-Kaisho-g1" kvg:element="米" kvg:variant="true" kvg:position="left" kvg:radical="general"> <!--<path id="kvg:07c92-Kaisho-s1" kvg:type="㇔" d="M16.69,26.39c2.01,2.21,5.05,8.47,5.56,11.91"/>--> <!--<path id="kvg:07c92-Kaisho-s2" kvg:type="㇒" d="M47.51,20.72c0.02,0.35,0.04,0.9-0.05,1.4c-0.54,2.96-3.65,9.45-7.89,13.42"/>--> <!--<path id="kvg:07c92-Kaisho-s3" kvg:type="㇐" d="M13.85,46.02c0.53,0.23,1.94,0.8,3.35,0.68c5.05-0.45,19.55-3.7,25.26-4.42c1.4-0.18,1.76-0.23,2.65,0"/>--> <!--<path id="kvg:07c92-Kaisho-s4" kvg:type="㇑" d="M30.27,15.21c0.88,0.45,1.41,2.03,1.59,2.94s-0.18,65.74-0.18,71.39c0,12.71-5.29,3.89-7.18,2"/>--> <!--<path id="kvg:07c92-Kaisho-s5" kvg:type="㇒" d="M31.77,45.71c-3.39,12-11.64,28.84-19.27,35.76"/>--> <!--<path id="kvg:07c92-Kaisho-s6" kvg:type="㇔/㇏" d="M35.12,53.07c4.46,2.84,7.74,6.11,9.4,10.9"/>--> </g> <g id="kvg:07c92-Kaisho-g2" kvg:element="立" kvg:position="right"> <g id="kvg:07c92-Kaisho-g3" kvg:element="亠" kvg:position="top"> <!--<path id="kvg:07c92-Kaisho-s7" kvg:type="㇑a" d="M63.4,19c3.44,2.04,9.49,7.66,11.21,11.88"/>--> <!--<path id="kvg:07c92-Kaisho-s8" kvg:type="㇐" d="M51,41.45c1.16,0.33,2.53,0.45,3.68,0.33c7.57-0.78,23.07-3.03,32.99-3.27c1.94-0.05,3.1,0.16,4.07,0.32"/>--> </g> <g id="kvg:07c92-Kaisho-g4" kvg:position="bottom"> <!--<path id="kvg:07c92-Kaisho-s9" kvg:type="㇔" d="M55.25,51.5c3.62,9.69,5.92,21.36,6.25,27.75"/>--> <!--<path id="kvg:07c92-Kaisho-s10" kvg:type="㇒" d="M82.88,45.75c0.37,1.25,0.49,2.49,0.38,3.58c-0.71,7.47-6.75,29.71-8.51,35.42"/>--> <!--<path id="kvg:07c92-Kaisho-s11" kvg:type="㇐" d="M43.25,87.05c1.46,0.39,3.17,0.5,4.62,0.39c12.38-0.94,30.38-3.69,43.28-4c2.43-0.06,3.89,0.19,5.1,0.38"/>--> </g> </g> </g> </g> <g id="kvg:StrokeNumbers_07c92-Kaisho" style="font-size:8;fill:#808080">            </g> </svg> 