<?xml version="1.0" encoding="UTF-8"?>  <!DOCTYPE svg PUBLIC "-//W3C//DTD SVG 1.0//EN" "http://www.w3.org/TR/2001/REC-SVG-20010904/DTD/svg10.dtd"  <!ATTLIST g xmlns:kvg CDATA #FIXED "http://kanjivg.tagaini.net" kvg:element CDATA #IMPLIED kvg:variant CDATA #IMPLIED kvg:partial CDATA #IMPLIED kvg:original CDATA #IMPLIED kvg:part CDATA #IMPLIED kvg:number CDATA #IMPLIED kvg:tradForm CDATA #IMPLIED kvg:radicalForm CDATA #IMPLIED kvg:position CDATA #IMPLIED kvg:radical CDATA #IMPLIED kvg:phon CDATA #IMPLIED > <!ATTLIST path xmlns:kvg CDATA #FIXED "http://kanjivg.tagaini.net" kvg:type CDATA #IMPLIED >  <svg xmlns="http://www.w3.org/2000/svg" width="109" height="109" viewBox="0 0 109 109"> <g id="kvg:StrokePaths_07c9f-Kaisho" style="fill:none;stroke:#000000;stroke-width:3;stroke-linecap:round;stroke-linejoin:round;"> <g id="kvg:07c9f-Kaisho" kvg:element="粟"> <g id="kvg:07c9f-Kaisho-g1" kvg:element="西" kvg:variant="true" kvg:original="襾" kvg:position="top" kvg:radical="nelson"> <!--<path id="kvg:07c9f-Kaisho-s1" kvg:type="㇐" d="M25.75,15.72c0.98,0.48,2.79,0.55,3.77,0.48c9.07-0.65,39.23-4.2,46.78-4.23c1.64-0.01,2.63,0.23,3.45,0.47"/>--> <!--<path id="kvg:07c9f-Kaisho-s2" kvg:type="㇑" d="M23.25,29.44c0.41,0.32,0.83,0.58,1.01,0.98c1.42,3.16,2.61,10.37,3.58,16.04"/>--> <!--<path id="kvg:07c9f-Kaisho-s3" kvg:type="㇕" d="M25.79,30.53c10.01-1.32,51.39-6.06,56.55-6.51c1.89-0.16,3.02,1.65,2.75,2.61c-1.12,3.98-1.4,8.9-3.79,14.63"/>--> <!--<path id="kvg:07c9f-Kaisho-s4" kvg:type="㇒" d="M40.87,18.75c1.09,0.5,1.82,2.24,1.96,3.25c0.42,3,1.42,13.75,2.42,20.75"/>--> <!--<path id="kvg:07c9f-Kaisho-s5" kvg:type="㇟" d="M63.37,16.25c1.09,0.5,1.42,2.71,1.13,5c-0.75,6-2.25,13.5-3.5,18.75"/>--> <!--<path id="kvg:07c9f-Kaisho-s6" kvg:type="㇐" d="M28.25,44.38c6.06-0.51,46.25-4.62,53.95-5.13"/>--> </g> <g id="kvg:07c9f-Kaisho-g2" kvg:element="米" kvg:position="bottom" kvg:radical="tradit"> <!--<path id="kvg:07c9f-Kaisho-s7" kvg:type="㇔" d="M31.52,51.58C34.5,53.33,39,58.28,39.75,61"/>--> <!--<path id="kvg:07c9f-Kaisho-s8" kvg:type="㇒" d="M75.78,45.89c0.02,0.3,0.15,0.82-0.05,1.21c-1.98,3.89-5.23,8.14-8.67,11.61"/>--> <!--<path id="kvg:07c9f-Kaisho-s9" kvg:type="㇐" d="M17.25,67.81c0.84,0.23,3.07,0.82,5.3,0.69c12.7-0.75,51.7-5.5,64.27-6.01c2.23-0.09,3.79,0.27,5.18,0.5"/>--> <!--<path id="kvg:07c9f-Kaisho-s10" kvg:type="㇑" d="M52.75,47.5c1.25,0.5,2,2.25,2.25,3.25s-0.25,37.75-0.25,44c0,12-5,3-6.25,1.75"/>--> <!--<path id="kvg:07c9f-Kaisho-s11" kvg:type="㇒" d="M50.75,66c-6.34,8.97-21.75,21.57-36,26.75"/>--> <!--<path id="kvg:07c9f-Kaisho-s12" kvg:type="㇏" d="M55.5,66.25c4.95,3.4,26.66,19.47,32.04,22.81c1.82,1.13,3.39,1.62,5.21,1.94"/>--> </g> </g> </g> <g id="kvg:StrokeNumbers_07c9f-Kaisho" style="font-size:8;fill:#808080">             </g> </svg> 