<?xml version="1.0" encoding="UTF-8"?>  <!DOCTYPE svg PUBLIC "-//W3C//DTD SVG 1.0//EN" "http://www.w3.org/TR/2001/REC-SVG-20010904/DTD/svg10.dtd"  <!ATTLIST g xmlns:kvg CDATA #FIXED "http://kanjivg.tagaini.net" kvg:element CDATA #IMPLIED kvg:variant CDATA #IMPLIED kvg:partial CDATA #IMPLIED kvg:original CDATA #IMPLIED kvg:part CDATA #IMPLIED kvg:number CDATA #IMPLIED kvg:tradForm CDATA #IMPLIED kvg:radicalForm CDATA #IMPLIED kvg:position CDATA #IMPLIED kvg:radical CDATA #IMPLIED kvg:phon CDATA #IMPLIED > <!ATTLIST path xmlns:kvg CDATA #FIXED "http://kanjivg.tagaini.net" kvg:type CDATA #IMPLIED >  <svg xmlns="http://www.w3.org/2000/svg" width="109" height="109" viewBox="0 0 109 109"> <g id="kvg:StrokePaths_07ca7-Kaisho" style="fill:none;stroke:#000000;stroke-width:3;stroke-linecap:round;stroke-linejoin:round;"> <g id="kvg:07ca7-Kaisho" kvg:element="粧"> <g id="kvg:07ca7-Kaisho-g1" kvg:element="米" kvg:variant="true" kvg:position="left" kvg:radical="general"> <!--<path id="kvg:07ca7-Kaisho-s1" kvg:type="㇔" d="M15.69,28.14c2.1,1.75,5.28,6.69,5.81,9.41"/>--> <!--<path id="kvg:07ca7-Kaisho-s2" kvg:type="㇒" d="M46.76,20.97c0.02,0.33,0.05,0.86-0.05,1.33c-0.58,2.81-3.88,8.97-8.39,12.74"/>--> <!--<path id="kvg:07ca7-Kaisho-s3" kvg:type="㇐" d="M10.6,44.77c0.6,0.23,2.21,0.8,3.81,0.68c5.74-0.45,22.21-4.2,28.7-4.92c1.59-0.18,2-0.23,3.01,0"/>--> <!--<path id="kvg:07ca7-Kaisho-s4" kvg:type="㇑" d="M29.52,15.46c0.88,0.45,1.41,2.03,1.59,2.94s-0.18,64.24-0.18,69.89c0,13.71-5.56,3.34-7.18,1.71"/>--> <!--<path id="kvg:07ca7-Kaisho-s5" kvg:type="㇒" d="M31.02,45.96C27.5,56.87,18.93,72.18,11,78.48"/>--> <!--<path id="kvg:07ca7-Kaisho-s6" kvg:type="㇔/㇏" d="M33.87,50.32c4.46,2.84,7.74,6.11,9.4,10.9"/>--> </g> <g id="kvg:07ca7-Kaisho-g2" kvg:element="庄" kvg:position="right"> <g id="kvg:07ca7-Kaisho-g3" kvg:element="广" kvg:position="tare"> <!--<path id="kvg:07ca7-Kaisho-s7" kvg:type="㇑a" d="M65.61,15.13c3.14,1.38,9.79,10.3,10.41,13.05"/>--> <g id="kvg:07ca7-Kaisho-g4" kvg:element="厂"> <!--<path id="kvg:07ca7-Kaisho-s8" kvg:type="㇐" d="M50.78,34.23c1.05,0.54,2.97,0.63,4.02,0.54c10.91-0.91,22.24-3.52,35.92-3.73c1.75-0.03,2.79,0.26,3.67,0.53"/>--> <!--<path id="kvg:07ca7-Kaisho-s9" kvg:type="㇒" d="M54.66,36.5c0.04,1.36,0.09,3.5-0.08,5.45c-1.04,11.5-3.87,39.38-15.02,51.77"/>--> </g> </g> <g id="kvg:07ca7-Kaisho-g5" kvg:element="土"> <!--<path id="kvg:07ca7-Kaisho-s10" kvg:type="㇐" d="M59.89,59.34c0.7,0.27,1.97,0.33,2.67,0.27c9.47-0.74,18.73-2.46,27.74-2.69c1.16-0.03,1.86,0.13,2.44,0.26"/>--> <!--<path id="kvg:07ca7-Kaisho-s11" kvg:type="㇑a" d="M73.92,40.12c0.12,0.29,1.77,1.52,1.77,3.39c0,12,0.14,29,0.14,44.86"/>--> <!--<path id="kvg:07ca7-Kaisho-s12" kvg:type="㇐" d="M52.15,89.89c1.08,0.63,3.05,0.7,4.13,0.63C71.25,89.5,81,88.5,94.08,88.15c1.8-0.05,2.87,0.3,3.77,0.61"/>--> </g> </g> </g> </g> <g id="kvg:StrokeNumbers_07ca7-Kaisho" style="font-size:8;fill:#808080">             </g> </svg> 