<?xml version="1.0" encoding="UTF-8"?>  <!DOCTYPE svg PUBLIC "-//W3C//DTD SVG 1.0//EN" "http://www.w3.org/TR/2001/REC-SVG-20010904/DTD/svg10.dtd"  <!ATTLIST g xmlns:kvg CDATA #FIXED "http://kanjivg.tagaini.net" kvg:element CDATA #IMPLIED kvg:variant CDATA #IMPLIED kvg:partial CDATA #IMPLIED kvg:original CDATA #IMPLIED kvg:part CDATA #IMPLIED kvg:number CDATA #IMPLIED kvg:tradForm CDATA #IMPLIED kvg:radicalForm CDATA #IMPLIED kvg:position CDATA #IMPLIED kvg:radical CDATA #IMPLIED kvg:phon CDATA #IMPLIED > <!ATTLIST path xmlns:kvg CDATA #FIXED "http://kanjivg.tagaini.net" kvg:type CDATA #IMPLIED >  <svg xmlns="http://www.w3.org/2000/svg" width="109" height="109" viewBox="0 0 109 109"> <g id="kvg:StrokePaths_07fbd-Kaisho" style="fill:none;stroke:#000000;stroke-width:3;stroke-linecap:round;stroke-linejoin:round;"> <g id="kvg:07fbd-Kaisho" kvg:element="羽" kvg:radical="general"> <g id="kvg:07fbd-Kaisho-g1" kvg:position="left"> <!--<path id="kvg:07fbd-Kaisho-s1" kvg:type="㇆" d="M19.25,25c1.75,1.25,3.25,1.25,5.82,0.84c5.22-0.84,14.87-3.22,16.46-3.35c3.58-0.29,4.93,1.91,4.48,2.8c-0.43,0.85-0.67,48.98-0.67,60.9c0,9.08-7.72,1.06-8.61,0.32"/>--> <!--<path id="kvg:07fbd-Kaisho-s2" kvg:type="㇔" d="M21.52,40.83c3.02,1.3,7.79,5.36,8.54,7.38"/>--> <!--<path id="kvg:07fbd-Kaisho-s3" kvg:type="㇀" d="M17,71c1.5,1.75,2.75,2.5,4.25,1c0.88-0.88,8-8.75,11.75-13"/>--> </g> <g id="kvg:07fbd-Kaisho-g2" kvg:position="right"> <!--<path id="kvg:07fbd-Kaisho-s4" kvg:type="㇆" d="M57.25,22c1.75,1.25,3.25,1.25,5.82,0.84c5.22-0.84,18.87-4.22,20.46-4.35c3.58-0.29,4.93,1.91,4.48,2.8c-0.43,0.85-0.67,52.98-0.67,64.9c0,8.58-7.72,1.06-8.61,0.32"/>--> <!--<path id="kvg:07fbd-Kaisho-s5" kvg:type="㇔" d="M61.52,39.83c3.02,1.3,7.79,5.36,8.54,7.38"/>--> <!--<path id="kvg:07fbd-Kaisho-s6" kvg:type="㇔/㇀" d="M59.77,62.08c4.25,1.39,10.98,5.72,12.04,7.88"/>--> </g> </g> </g> <g id="kvg:StrokeNumbers_07fbd-Kaisho" style="font-size:8;fill:#808080">       </g> </svg> 