<?xml version="1.0" encoding="UTF-8"?>  <!DOCTYPE svg PUBLIC "-//W3C//DTD SVG 1.0//EN" "http://www.w3.org/TR/2001/REC-SVG-20010904/DTD/svg10.dtd"  <!ATTLIST g xmlns:kvg CDATA #FIXED "http://kanjivg.tagaini.net" kvg:element CDATA #IMPLIED kvg:variant CDATA #IMPLIED kvg:partial CDATA #IMPLIED kvg:original CDATA #IMPLIED kvg:part CDATA #IMPLIED kvg:number CDATA #IMPLIED kvg:tradForm CDATA #IMPLIED kvg:radicalForm CDATA #IMPLIED kvg:position CDATA #IMPLIED kvg:radical CDATA #IMPLIED kvg:phon CDATA #IMPLIED > <!ATTLIST path xmlns:kvg CDATA #FIXED "http://kanjivg.tagaini.net" kvg:type CDATA #IMPLIED >  <svg xmlns="http://www.w3.org/2000/svg" width="109" height="109" viewBox="0 0 109 109"> <g id="kvg:StrokePaths_07fcc-Kaisho" style="fill:none;stroke:#000000;stroke-width:3;stroke-linecap:round;stroke-linejoin:round;"> <g id="kvg:07fcc-Kaisho" kvg:element="翌"> <g id="kvg:07fcc-Kaisho-g1" kvg:element="羽" kvg:variant="true" kvg:position="top" kvg:radical="general"> <g id="kvg:07fcc-Kaisho-g2" kvg:position="left"> <!--<path id="kvg:07fcc-Kaisho-s1" kvg:type="㇆" d="M17.48,20c1.73,1.25,3.22,1.25,5.76,0.84c5.16-0.84,14.21-2.72,15.79-2.85c3.55-0.29,4.49,1.81,4.43,2.8c-0.2,3.47-0.47,18.56-0.47,29.32c0,8.19-5.62,0.96-6.27,0.29"/>--> <!--<path id="kvg:07fcc-Kaisho-s2" kvg:type="㇔" d="M21.72,27.33c2.98,1.21,7.71,4.99,8.45,6.88"/>--> <!--<path id="kvg:07fcc-Kaisho-s3" kvg:type="㇀" d="M17.25,48.02c1.65,1.24,3.02,1.78,4.67,0.71c0.97-0.63,8.79-6.21,12.91-9.23"/>--> </g> <g id="kvg:07fcc-Kaisho-g3" kvg:position="right"> <!--<path id="kvg:07fcc-Kaisho-s4" kvg:type="㇆" d="M56.58,16.5c1.73,1.25,3.22,1.25,5.76,0.84c5.17-0.84,16.67-3.22,18.25-3.35c3.55-0.29,4.59,1.82,4.43,2.8c-0.51,3.22-0.51,22-0.51,32.04c0,7.22-6.1,0.89-6.81,0.27"/>--> <!--<path id="kvg:07fcc-Kaisho-s5" kvg:type="㇔" d="M60.8,25.08c2.81,1.08,7.25,4.45,7.95,6.13"/>--> <!--<path id="kvg:07fcc-Kaisho-s6" kvg:type="㇔/㇀" d="M60.3,38.58c2.81,1.08,5.7,3.92,7.95,6.13"/>--> </g> </g> <g id="kvg:07fcc-Kaisho-g4" kvg:element="立" kvg:position="bottom"> <g id="kvg:07fcc-Kaisho-g5" kvg:element="亠" kvg:position="top"> <!--<path id="kvg:07fcc-Kaisho-s7" kvg:type="㇑a" d="M48.65,51.5c3.22,1.93,6.45,5.4,9.21,9.25"/>--> <!--<path id="kvg:07fcc-Kaisho-s8" kvg:type="㇐" d="M28.25,67.21c1.02,0.29,2.22,0.33,3.24,0.29c5.78-0.25,35.68-4.49,44.42-4.7c1.71-0.04,2.73,0.14,3.59,0.28"/>--> </g> <g id="kvg:07fcc-Kaisho-g6" kvg:position="bottom"> <!--<path id="kvg:07fcc-Kaisho-s9" kvg:type="㇔" d="M38.5,74.5c4.21,4.38,6.12,8.86,6.5,11.75"/>--> <!--<path id="kvg:07fcc-Kaisho-s10" kvg:type="㇒" d="M67.5,66.75c1.25,1.5,1.67,2.32,1.25,3.5c-3,8.5-4.75,14-7.25,20.5"/>--> <!--<path id="kvg:07fcc-Kaisho-s11" kvg:type="㇐" d="M16.75,95.05c1.46,0.39,3.17,0.55,4.62,0.39c19.38-2.19,47.13-4.69,67.28-5c2.43-0.04,3.89,0.19,5.1,0.38"/>--> </g> </g> </g> </g> <g id="kvg:StrokeNumbers_07fcc-Kaisho" style="font-size:8;fill:#808080">            </g> </svg> 