<?xml version="1.0" encoding="UTF-8"?>  <!DOCTYPE svg PUBLIC "-//W3C//DTD SVG 1.0//EN" "http://www.w3.org/TR/2001/REC-SVG-20010904/DTD/svg10.dtd"  <!ATTLIST g xmlns:kvg CDATA #FIXED "http://kanjivg.tagaini.net" kvg:element CDATA #IMPLIED kvg:variant CDATA #IMPLIED kvg:partial CDATA #IMPLIED kvg:original CDATA #IMPLIED kvg:part CDATA #IMPLIED kvg:number CDATA #IMPLIED kvg:tradForm CDATA #IMPLIED kvg:radicalForm CDATA #IMPLIED kvg:position CDATA #IMPLIED kvg:radical CDATA #IMPLIED kvg:phon CDATA #IMPLIED > <!ATTLIST path xmlns:kvg CDATA #FIXED "http://kanjivg.tagaini.net" kvg:type CDATA #IMPLIED >  <svg xmlns="http://www.w3.org/2000/svg" width="109" height="109" viewBox="0 0 109 109"> <g id="kvg:StrokePaths_07fe0-Kaisho" style="fill:none;stroke:#000000;stroke-width:3;stroke-linecap:round;stroke-linejoin:round;"> <g id="kvg:07fe0-Kaisho" kvg:element="翠"> <g id="kvg:07fe0-Kaisho-g1" kvg:element="羽" kvg:variant="true" kvg:position="top" kvg:radical="general"> <g id="kvg:07fe0-Kaisho-g2" kvg:position="left"> <!--<path id="kvg:07fe0-Kaisho-s1" kvg:type="㇆" d="M17.92,14.29c1.69,1.21,3.14,1.21,5.61,0.81c5.04-0.81,16.84-2.61,18.38-2.74c3.46-0.28,4.75,1.85,4.32,2.7c-0.41,0.82-0.65,7.26-0.65,18.76c0,8.76-5.45,2.02-6.31,1.31"/>--> <!--<path id="kvg:07fe0-Kaisho-s2" kvg:type="㇔" d="M22.6,20.81c3.24,0.68,8.37,2.78,9.18,3.83"/>--> <!--<path id="kvg:07fe0-Kaisho-s3" kvg:type="㇀" d="M16.75,36.47c1.61,0.91,2.95,1.3,4.57,0.52c0.95-0.46,8.59-4.54,12.62-6.75"/>--> </g> <g id="kvg:07fe0-Kaisho-g3" kvg:position="right"> <!--<path id="kvg:07fe0-Kaisho-s4" kvg:type="㇆" d="M55.58,11.39c1.69,1.21,3.14,1.21,5.61,0.81c5.04-0.81,18.2-3.58,19.74-3.7c3.46-0.28,4.75,1.85,4.32,2.7c-0.42,0.82-0.65,9.62-0.65,21.12c0,8.27-5.45,1.52-6.31,0.81"/>--> <!--<path id="kvg:07fe0-Kaisho-s5" kvg:type="㇔" d="M61.7,17.6c2.91,0.6,7.52,2.49,8.24,3.43"/>--> <!--<path id="kvg:07fe0-Kaisho-s6" kvg:type="㇔/㇀" d="M60.7,28.35c2.91,0.6,7.52,2.49,8.24,3.43"/>--> </g> </g> <g id="kvg:07fe0-Kaisho-g4" kvg:element="卒" kvg:position="bottom"> <g id="kvg:07fe0-Kaisho-g5" kvg:position="top"> <g id="kvg:07fe0-Kaisho-g6" kvg:element="亠"> <!--<path id="kvg:07fe0-Kaisho-s7" kvg:type="㇑a" d="M50.43,35.25c2.77,0.93,5.87,4,7.31,6.38"/>--> <!--<path id="kvg:07fe0-Kaisho-s8" kvg:type="㇐" d="M24.7,48.06c1.13,0.08,3.7,0.55,4.8,0.44c8.86-0.92,39.35-3.68,50.6-3.91c1.86-0.04,2.81,0.04,4.2,0.55"/>--> </g> <g id="kvg:07fe0-Kaisho-g7" kvg:element="从"> <g id="kvg:07fe0-Kaisho-g8" kvg:element="人" kvg:position="left"> <!--<path id="kvg:07fe0-Kaisho-s9" kvg:type="㇒" d="M38.42,53.24c0,0.46,0.04,0.83-0.11,1.38c-0.78,2.88-8.22,12.49-14.59,16.75"/>--> <!--<path id="kvg:07fe0-Kaisho-s10" kvg:type="㇏" d="M35.84,59.07c3.86,1.69,8.79,6.18,10.67,10.44"/>--> </g> <g id="kvg:07fe0-Kaisho-g9" kvg:element="人" kvg:position="right"> <!--<path id="kvg:07fe0-Kaisho-s11" kvg:type="㇒" d="M72.37,50.99c0,0.44,0.03,0.79-0.08,1.32c-0.53,2.74-5.6,11.89-9.93,15.94"/>--> <!--<path id="kvg:07fe0-Kaisho-s12" kvg:type="㇏" d="M70.16,57.31c5.05,1.73,11.49,6.33,13.94,10.69"/>--> </g> </g> </g> <g id="kvg:07fe0-Kaisho-g10" kvg:element="十" kvg:position="bottom"> <!--<path id="kvg:07fe0-Kaisho-s13" kvg:type="㇐" d="M15.13,79.09c1.52,0.54,4.31,0.68,5.82,0.54c19.3-1.77,55.8-3.52,69.11-3.73c2.53-0.04,4.05,0.26,5.31,0.53"/>--> <!--<path id="kvg:07fe0-Kaisho-s14" kvg:type="㇑" d="M53.09,66c0.52,0.6,1.62,3.52,1.73,4.73c0.1,1.21-0.07,21.98-0.17,29.52"/>--> </g> </g> </g> </g> <g id="kvg:StrokeNumbers_07fe0-Kaisho" style="font-size:8;fill:#808080">               </g> </svg> 