<?xml version="1.0" encoding="UTF-8"?>  <!DOCTYPE svg PUBLIC "-//W3C//DTD SVG 1.0//EN" "http://www.w3.org/TR/2001/REC-SVG-20010904/DTD/svg10.dtd"  <!ATTLIST g xmlns:kvg CDATA #FIXED "http://kanjivg.tagaini.net" kvg:element CDATA #IMPLIED kvg:variant CDATA #IMPLIED kvg:partial CDATA #IMPLIED kvg:original CDATA #IMPLIED kvg:part CDATA #IMPLIED kvg:number CDATA #IMPLIED kvg:tradForm CDATA #IMPLIED kvg:radicalForm CDATA #IMPLIED kvg:position CDATA #IMPLIED kvg:radical CDATA #IMPLIED kvg:phon CDATA #IMPLIED > <!ATTLIST path xmlns:kvg CDATA #FIXED "http://kanjivg.tagaini.net" kvg:type CDATA #IMPLIED >  <svg xmlns="http://www.w3.org/2000/svg" width="109" height="109" viewBox="0 0 109 109"> <g id="kvg:StrokePaths_0803b-Kaisho" style="fill:none;stroke:#000000;stroke-width:3;stroke-linecap:round;stroke-linejoin:round;"> <g id="kvg:0803b-Kaisho" kvg:element="耻"> <g id="kvg:0803b-Kaisho-g1" kvg:element="耳" kvg:position="left" kvg:radical="tradit"> <!--<path id="kvg:0803b-Kaisho-s1" kvg:type="㇐" d="M11.19,18.41c0.8,0.37,2.25,0.43,3.05,0.37c6.17-0.45,17.45-2.97,28.23-3.4c1.33-0.05,2.12,0.18,2.79,0.36"/>--> <!--<path id="kvg:0803b-Kaisho-s2" kvg:type="㇑a" d="M20,20.5c0.5,0.75,0.88,2.4,0.88,3.83c0,1.43-0.11,44.11-0.11,49.25"/>--> <!--<path id="kvg:0803b-Kaisho-s3" kvg:type="㇐a" d="M21.55,37.15c2.78-0.5,4.56-0.47,7.36-0.84c0.57-0.07,1.12-0.14,1.7-0.21"/>--> <!--<path id="kvg:0803b-Kaisho-s4" kvg:type="㇐a" d="M21.24,53.45c2.56-0.49,5.12-0.99,7.69-1.41c0.59-0.1,1.19-0.19,1.82-0.28"/>--> <!--<path id="kvg:0803b-Kaisho-s5" kvg:type="㇀" d="M11.5,77.55c0.75,0.45,2.5,0.57,3.14,0.21c2.54-1.43,17.71-8.48,21.61-10.76"/>--> <!--<path id="kvg:0803b-Kaisho-s6" kvg:type="㇑" d="M36.02,18.75c0.98,1,1.72,2.03,1.72,3.48c0,1.45,0.24,64.38,0.24,76.27"/>--> </g> <g id="kvg:0803b-Kaisho-g2" kvg:element="止" kvg:position="right"> <g id="kvg:0803b-Kaisho-g3" kvg:element="卜" kvg:original="ト"> <!--<path id="kvg:0803b-Kaisho-s7" kvg:type="㇑a" d="M70.4,13.75c0.99,0.57,1.58,2.58,1.78,3.72c0.2,1.15,0,63.87-0.2,71.03"/>--> <!--<path id="kvg:0803b-Kaisho-s8" kvg:type="㇐b" d="M72.5,47.7c6.08-0.8,13.75-1.7,19.47-2.24c1.94-0.18,2.43-0.28,3.65,0"/>--> </g> <!--<path id="kvg:0803b-Kaisho-s9" kvg:type="㇑a" d="M53.17,42.14c1.2,0.69,1.91,3.11,2.15,4.49c0.24,1.38,0.5,35.28,0.26,43.92"/>--> <!--<path id="kvg:0803b-Kaisho-s10" kvg:type="㇐" d="M43.3,91.56c1.45,0.19,3.13,0.58,4.66,0.45c10.13-0.86,33.59-3.35,44.15-3.35c1.54,0,3.85,0.22,5.35,0.86"/>--> </g> </g> </g> <g id="kvg:StrokeNumbers_0803b-Kaisho" style="font-size:8;fill:#808080">           </g> </svg> 