<?xml version="1.0" encoding="UTF-8"?>  <!DOCTYPE svg PUBLIC "-//W3C//DTD SVG 1.0//EN" "http://www.w3.org/TR/2001/REC-SVG-20010904/DTD/svg10.dtd"  <!ATTLIST g xmlns:kvg CDATA #FIXED "http://kanjivg.tagaini.net" kvg:element CDATA #IMPLIED kvg:variant CDATA #IMPLIED kvg:partial CDATA #IMPLIED kvg:original CDATA #IMPLIED kvg:part CDATA #IMPLIED kvg:number CDATA #IMPLIED kvg:tradForm CDATA #IMPLIED kvg:radicalForm CDATA #IMPLIED kvg:position CDATA #IMPLIED kvg:radical CDATA #IMPLIED kvg:phon CDATA #IMPLIED > <!ATTLIST path xmlns:kvg CDATA #FIXED "http://kanjivg.tagaini.net" kvg:type CDATA #IMPLIED >  <svg xmlns="http://www.w3.org/2000/svg" width="109" height="109" viewBox="0 0 109 109"> <g id="kvg:StrokePaths_08036-Kaisho" style="fill:none;stroke:#000000;stroke-width:3;stroke-linecap:round;stroke-linejoin:round;"> <g id="kvg:08036-Kaisho" kvg:element="耶"> <g id="kvg:08036-Kaisho-g1" kvg:element="耳" kvg:position="left" kvg:radical="general"> <!--<path id="kvg:08036-Kaisho-s1" kvg:type="㇐" d="M14.94,20.72c0.98,0.43,2.78,0.48,3.77,0.43c7.8-0.4,23.3-3.15,34.86-3.89c1.63-0.1,2.62,0.2,3.44,0.42"/>--> <!--<path id="kvg:08036-Kaisho-s2" kvg:type="㇑a" d="M24.43,23.07c0.32,1.18,1.28,2.33,1.28,3.72c0,1.39-0.16,41.3-0.16,46.29"/>--> <!--<path id="kvg:08036-Kaisho-s3" kvg:type="㇐a" d="M26.8,37.48c3.43-0.65,6.36-1.27,9.81-1.75c0.7-0.1,1.39-0.19,2.09-0.27"/>--> <!--<path id="kvg:08036-Kaisho-s4" kvg:type="㇐a" d="M26.49,51.95c3.08-0.49,6.14-1.11,9.22-1.66c0.71-0.13,1.43-0.25,2.19-0.37"/>--> <!--<path id="kvg:08036-Kaisho-s5" kvg:type="㇀" d="M13.25,76.74c1,0.51,2.83,0.64,3.67,0.27c3.38-1.48,25.02-11.81,30.21-14.17"/>--> <!--<path id="kvg:08036-Kaisho-s6" kvg:type="㇑" d="M46,20.5c1,1.25,1.1,1.46,1.1,2.85s0.16,60.03,0.16,71.4"/>--> </g> <g id="kvg:08036-Kaisho-g2" kvg:element="⻏" kvg:variant="true" kvg:original="邑" kvg:position="right"> <!--<path id="kvg:08036-Kaisho-s7" kvg:type="㇇" d="M63.92,17.42c0.83,0.08,2.32,0.62,3.4,0.44c4.63-0.81,17.17-3.12,19.6-3.94c3-1,6,1,4.67,3.33c-1.33,2.33-10,15.67-12.33,19"/>--> <!--<path id="kvg:08036-Kaisho-s8" kvg:type="㇕va" d="M78.75,36.75c21.75,12,17.5,40.75,3.23,33.16"/>--> <!--<path id="kvg:08036-Kaisho-s9" kvg:type="㇑" d="M67.58,18.75c0.22,1,0,71.25-0.22,77.5"/>--> </g> </g> </g> <g id="kvg:StrokeNumbers_08036-Kaisho" style="font-size:8;fill:#808080">          </g> </svg> 