<?xml version="1.0" encoding="UTF-8"?>  <!DOCTYPE svg PUBLIC "-//W3C//DTD SVG 1.0//EN" "http://www.w3.org/TR/2001/REC-SVG-20010904/DTD/svg10.dtd"  <!ATTLIST g xmlns:kvg CDATA #FIXED "http://kanjivg.tagaini.net" kvg:element CDATA #IMPLIED kvg:variant CDATA #IMPLIED kvg:partial CDATA #IMPLIED kvg:original CDATA #IMPLIED kvg:part CDATA #IMPLIED kvg:number CDATA #IMPLIED kvg:tradForm CDATA #IMPLIED kvg:radicalForm CDATA #IMPLIED kvg:position CDATA #IMPLIED kvg:radical CDATA #IMPLIED kvg:phon CDATA #IMPLIED > <!ATTLIST path xmlns:kvg CDATA #FIXED "http://kanjivg.tagaini.net" kvg:type CDATA #IMPLIED >  <svg xmlns="http://www.w3.org/2000/svg" width="109" height="109" viewBox="0 0 109 109"> <g id="kvg:StrokePaths_08046-KaishoVt3" style="fill:none;stroke:#000000;stroke-width:3;stroke-linecap:round;stroke-linejoin:round;"> <g id="kvg:08046-KaishoVt3" kvg:element="聆"> <g id="kvg:08046-KaishoVt3-g1" kvg:element="耳" kvg:variant="true" kvg:position="left" kvg:radical="general"> <!--<path id="kvg:08046-KaishoVt3-s1" kvg:type="㇐" d="M12.05,19.3c0.75,0.35,2.13,0.4,2.88,0.35c5.97-0.33,17.83-2.62,26.68-3.23c1.25-0.09,2.01,0.17,2.63,0.35"/>--> <!--<path id="kvg:08046-KaishoVt3-s2" kvg:type="㇑" d="M19.37,21.57C20,23,20.36,23.9,20.36,25.29c0,1.39-0.12,41.3-0.12,46.29"/>--> <!--<path id="kvg:08046-KaishoVt3-s3" kvg:type="㇑" d="M36.01,20.5c0.77,1.25,0.85,1.46,0.85,2.85s0.12,61.03,0.12,72.4"/>--> <!--<path id="kvg:08046-KaishoVt3-s4" kvg:type="㇐" d="M21.21,36.91c2.42-0.42,4.35-0.79,6.78-1.13c0.59-0.08,1.2-0.17,1.81-0.25"/>--> <!--<path id="kvg:08046-KaishoVt3-s5" kvg:type="㇐" d="M20.96,52.1c2.3-0.3,4.58-0.67,6.88-1.01c0.53-0.08,1.07-0.15,1.63-0.23"/>--> <!--<path id="kvg:08046-KaishoVt3-s6" kvg:type="㇀" d="M12.25,74.93c0.75,0.82,2.38,0.9,2.94,0.67c2.24-0.92,16.62-7.87,20.06-9.35"/>--> </g> <g id="kvg:08046-KaishoVt3-g2" kvg:element="令" kvg:position="right"> <g id="kvg:08046-KaishoVt3-g3" kvg:element="人" kvg:position="top"> <!--<path id="kvg:08046-KaishoVt3-s7" kvg:type="㇒" d="M64.89,11.75c0.07,0.97,0.32,2.56-0.14,3.92c-2.92,8.59-11,26.58-23,36.58"/>--> <!--<path id="kvg:08046-KaishoVt3-s8" kvg:type="㇏" d="M65.67,14.54c4.76,5.28,22.08,26.65,26.1,31.03c1.37,1.49,3.12,2.13,4.48,2.55"/>--> </g> <g id="kvg:08046-KaishoVt3-g4" kvg:position="bottom"> <g id="kvg:08046-KaishoVt3-g5" kvg:element="一"> <!--<path id="kvg:08046-KaishoVt3-s9" kvg:type="㇔" d="M60,39.75c4.76,2.16,12.31,8.89,13.5,12.25"/>--> </g> <g id="kvg:08046-KaishoVt3-g6" kvg:element="マ"> <!--<path id="kvg:08046-KaishoVt3-s10" kvg:type="㇆a" d="M46.44,61.62c1.07,0.88,3.33,1.31,4.55,1.08c2.41-0.44,32.25-4.81,34.79-5.25c2.54-0.44,3.18,1.04,1.35,3.38c-4.28,5.48-19.07,19.49-20.68,21.25"/>--> <!--<path id="kvg:08046-KaishoVt3-s11" kvg:type="㇔" d="M56.5,75c5.05,2.91,18.12,14.13,20.5,21.75"/>--> </g> </g> </g> </g> </g> <g id="kvg:StrokeNumbers_08046-KaishoVt3" style="font-size:8;fill:#808080">            </g> </svg> 