<?xml version="1.0" encoding="UTF-8"?>  <!DOCTYPE svg PUBLIC "-//W3C//DTD SVG 1.0//EN" "http://www.w3.org/TR/2001/REC-SVG-20010904/DTD/svg10.dtd"  <!ATTLIST g xmlns:kvg CDATA #FIXED "http://kanjivg.tagaini.net" kvg:element CDATA #IMPLIED kvg:variant CDATA #IMPLIED kvg:partial CDATA #IMPLIED kvg:original CDATA #IMPLIED kvg:part CDATA #IMPLIED kvg:number CDATA #IMPLIED kvg:tradForm CDATA #IMPLIED kvg:radicalForm CDATA #IMPLIED kvg:position CDATA #IMPLIED kvg:radical CDATA #IMPLIED kvg:phon CDATA #IMPLIED > <!ATTLIST path xmlns:kvg CDATA #FIXED "http://kanjivg.tagaini.net" kvg:type CDATA #IMPLIED >  <svg xmlns="http://www.w3.org/2000/svg" width="109" height="109" viewBox="0 0 109 109"> <g id="kvg:StrokePaths_080af-Kaisho" style="fill:none;stroke:#000000;stroke-width:3;stroke-linecap:round;stroke-linejoin:round;"> <g id="kvg:080af-Kaisho" kvg:element="肯"> <g id="kvg:080af-Kaisho-g1" kvg:element="止" kvg:position="top" kvg:radical="nelson"> <g id="kvg:080af-Kaisho-g2" kvg:element="卜" kvg:original="ト"> <!--<path id="kvg:080af-Kaisho-s1" kvg:type="㇑a" d="M53.37,9.48c1.01,0.46,1.62,2.09,1.82,3.02s0.5,16.57,0.3,22.38"/>--> <!--<path id="kvg:080af-Kaisho-s2" kvg:type="㇐b" d="M57.71,21.27c3.04-0.27,10.04-1.52,14.62-1.79c1.62-0.1,2.02-0.23,3.04,0"/>--> </g> <!--<path id="kvg:080af-Kaisho-s3" kvg:type="㇑a" d="M30.41,19.68c1.01,0.46,1.62,2.09,1.82,3.02c0.2,0.93,0.5,9.53,0.3,15.35"/>--> <!--<path id="kvg:080af-Kaisho-s4" kvg:type="㇐" d="M17.75,39.44c0.76,0.23,2.83,1.03,4.84,0.7c14.66-2.39,46.66-6.14,61.17-7.15c2.04-0.14,5.58,0.46,6.74,0.7"/>--> </g> <g id="kvg:080af-Kaisho-g3" kvg:element="月" kvg:position="bottom" kvg:radical="tradit"> <!--<path id="kvg:080af-Kaisho-s5" kvg:type="㇒" d="M37.81,47.98c0.7,0.89,1.16,1.78,1.39,2.67c0.23,0.89,0.33,43.4,0.23,45.41"/>--> <!--<path id="kvg:080af-Kaisho-s6" kvg:type="㇆a" d="M40.39,48.97c2.49-0.2,25.37-3.06,27.22-3.29c3.33-0.4,4.57,2.59,4.16,3.79c-0.4,1.15-0.12,26.26-0.12,42.4c0,10.36-4.99,3.59-7.06,1.79"/>--> <!--<path id="kvg:080af-Kaisho-s7" kvg:type="㇐a" d="M40.39,62.12c5.18-0.73,9.39-1.26,14.6-1.77c1.4-0.14,2.79-0.27,4.15-0.4"/>--> <!--<path id="kvg:080af-Kaisho-s8" kvg:type="㇐a" d="M41.01,75.87c4.69-0.42,9.37-0.97,14.05-1.47c1.36-0.14,2.72-0.29,4.07-0.42"/>--> </g> </g> </g> <g id="kvg:StrokeNumbers_080af-Kaisho" style="font-size:8;fill:#808080">         </g> </svg> 