<?xml version="1.0" encoding="UTF-8"?>  <!DOCTYPE svg PUBLIC "-//W3C//DTD SVG 1.0//EN" "http://www.w3.org/TR/2001/REC-SVG-20010904/DTD/svg10.dtd"  <!ATTLIST g xmlns:kvg CDATA #FIXED "http://kanjivg.tagaini.net" kvg:element CDATA #IMPLIED kvg:variant CDATA #IMPLIED kvg:partial CDATA #IMPLIED kvg:original CDATA #IMPLIED kvg:part CDATA #IMPLIED kvg:number CDATA #IMPLIED kvg:tradForm CDATA #IMPLIED kvg:radicalForm CDATA #IMPLIED kvg:position CDATA #IMPLIED kvg:radical CDATA #IMPLIED kvg:phon CDATA #IMPLIED > <!ATTLIST path xmlns:kvg CDATA #FIXED "http://kanjivg.tagaini.net" kvg:type CDATA #IMPLIED >  <svg xmlns="http://www.w3.org/2000/svg" width="109" height="109" viewBox="0 0 109 109"> <g id="kvg:StrokePaths_080aa-Kaisho" style="fill:none;stroke:#000000;stroke-width:3;stroke-linecap:round;stroke-linejoin:round;"> <g id="kvg:080aa-Kaisho" kvg:element="肪"> <g id="kvg:080aa-Kaisho-g1" kvg:element="月" kvg:variant="true" kvg:original="肉" kvg:position="left" kvg:radical="general"> <!--<path id="kvg:080aa-Kaisho-s1" kvg:type="㇒" d="M19.31,20.75c0.52,0.96,0.87,1.9,1.05,2.83c0.17,0.93,0.15,26.17-0.4,33.97c-0.79,11.11-0.22,21.8-7.2,35.57"/>--> <!--<path id="kvg:080aa-Kaisho-s2" kvg:type="㇆a" d="M21.4,22.85c4.09-0.82,13.91-3.38,15.46-3.5c1.27-0.1,2.18,1.32,2.18,2.69c0,3.26-0.52,45.17-0.52,63.68c0,13.08-2.75,6.23-5.48,3.07"/>--> <!--<path id="kvg:080aa-Kaisho-s3" kvg:type="㇐a" d="M21.4,42.42c2.88-0.36,5.75-0.72,8.63-1.08c0.72-0.09,1.44-0.18,2.16-0.27"/>--> <!--<path id="kvg:080aa-Kaisho-s4" kvg:type="㇐a" d="M21.34,60.56c2.62-0.05,5.25-0.42,7.85-0.73c0.77-0.09,2.04-0.19,2.82-0.28"/>--> </g> <g id="kvg:080aa-Kaisho-g2" kvg:element="方" kvg:position="right"> <g id="kvg:080aa-Kaisho-g3" kvg:element="亠" kvg:position="top"> <!--<path id="kvg:080aa-Kaisho-s5" kvg:type="㇑a" d="M64.28,15.75c4.23,1.96,8.99,6.55,10.79,10.58"/>--> <!--<path id="kvg:080aa-Kaisho-s6" kvg:type="㇐" d="M45.88,34.64c1.62,0.36,3.45,0.66,4.77,0.52c10.66-1.1,29.45-4.17,43.93-4.93c2.23-0.12,2.38,0.04,4.04,0.67"/>--> </g> <g id="kvg:080aa-Kaisho-g4" kvg:position="bottom"> <!--<path id="kvg:080aa-Kaisho-s7" kvg:type="㇆a" d="M68.02,46.82c5.76,2.04,12.09,4.38,17.43,5.24c3.02,0.48,4.19,1.56,3.72,3.89c-1.33,6.5-9.49,28.59-13.29,33.67c-4.13,5.51-6.89-0.21-8.12-0.95"/>--> <!--<path id="kvg:080aa-Kaisho-s8" kvg:type="㇒" d="M69.63,36.25c0.34,1.33,0.28,2.83-0.13,4.33c-2.81,10.33-10.95,31.22-23.58,41"/>--> </g> </g> </g> </g> <g id="kvg:StrokeNumbers_080aa-Kaisho" style="font-size:8;fill:#808080">         </g> </svg> 