<?xml version="1.0" encoding="UTF-8"?>  <!DOCTYPE svg PUBLIC "-//W3C//DTD SVG 1.0//EN" "http://www.w3.org/TR/2001/REC-SVG-20010904/DTD/svg10.dtd"  <!ATTLIST g xmlns:kvg CDATA #FIXED "http://kanjivg.tagaini.net" kvg:element CDATA #IMPLIED kvg:variant CDATA #IMPLIED kvg:partial CDATA #IMPLIED kvg:original CDATA #IMPLIED kvg:part CDATA #IMPLIED kvg:number CDATA #IMPLIED kvg:tradForm CDATA #IMPLIED kvg:radicalForm CDATA #IMPLIED kvg:position CDATA #IMPLIED kvg:radical CDATA #IMPLIED kvg:phon CDATA #IMPLIED > <!ATTLIST path xmlns:kvg CDATA #FIXED "http://kanjivg.tagaini.net" kvg:type CDATA #IMPLIED >  <svg xmlns="http://www.w3.org/2000/svg" width="109" height="109" viewBox="0 0 109 109"> <g id="kvg:StrokePaths_080cc-Kaisho" style="fill:none;stroke:#000000;stroke-width:3;stroke-linecap:round;stroke-linejoin:round;"> <g id="kvg:080cc-Kaisho" kvg:element="背"> <g id="kvg:080cc-Kaisho-g1" kvg:element="北" kvg:position="top"> <g id="kvg:080cc-Kaisho-g2" kvg:position="left"> <!--<path id="kvg:080cc-Kaisho-s1" kvg:type="㇐" d="M22.42,27.07c1.51,0.3,1.88,0.45,3.39,0.45s13.11-3.91,14.43-3.91"/>--> <!--<path id="kvg:080cc-Kaisho-s2" kvg:type="㇑" d="M39.86,10.68c1.13,0.9,2.07,2.96,2.07,3.56c0,3.26,0.19,22.04,0.19,24.08"/>--> <!--<path id="kvg:080cc-Kaisho-s3" kvg:type="㇀" d="M19.54,44.52c2.26,1.35,3.99,1.43,5.65,0.75c9.98-4.06,20.68-8.26,25.95-10.52"/>--> </g> <g id="kvg:080cc-Kaisho-g3" kvg:element="匕" kvg:position="right"> <!--<path id="kvg:080cc-Kaisho-s4" kvg:type="㇒" d="M89,13.31c0.16,0.23,0.22,0.87-0.15,1.25c-3.59,3.64-12.47,8.98-20.25,10.88"/>--> <!--<path id="kvg:080cc-Kaisho-s5" kvg:type="㇟" d="M65.14,8.5c0.56,0.63,1.32,1.86,1.32,3.13c0,0.85,0.27,18.59,0.27,21.17c0,6.62,7.71,6,13.98,6c3.19,0,9.43-0.12,11.41-2.01c1.98-1.89,2.18-4.62,2.38-6.51"/>--> </g> </g> <g id="kvg:080cc-Kaisho-g4" kvg:element="月" kvg:variant="true" kvg:original="肉" kvg:position="bottom" kvg:radical="general"> <!--<path id="kvg:080cc-Kaisho-s6" kvg:type="㇒" d="M40.09,47.15c0.63,0.83,1.05,1.65,1.25,2.47c0.21,0.82,0.03,45.65-0.07,47.49"/>--> <!--<path id="kvg:080cc-Kaisho-s7" kvg:type="㇆a" d="M42.64,48.01c2.56-0.16,26.02-3.19,27.92-3.38c3.41-0.35,4.66,2.74,4.22,3.96c-0.42,1.17-0.5,26.73-0.64,43.28c-0.09,10.62-5.14,3.59-7.25,1.71"/>--> <!--<path id="kvg:080cc-Kaisho-s8" kvg:type="㇐a" d="M42.5,63.74c5.24-0.64,10.49-1.24,15.75-1.79c1.41-0.15,2.8-0.29,4.17-0.42"/>--> <!--<path id="kvg:080cc-Kaisho-s9" kvg:type="㇐a" d="M43,77.39c4.81-0.35,9.61-0.83,14.41-1.25c1.39-0.12,2.79-0.24,4.17-0.36"/>--> </g> </g> </g> <g id="kvg:StrokeNumbers_080cc-Kaisho" style="font-size:8;fill:#808080">          </g> </svg> 