<?xml version="1.0" encoding="UTF-8"?>  <!DOCTYPE svg PUBLIC "-//W3C//DTD SVG 1.0//EN" "http://www.w3.org/TR/2001/REC-SVG-20010904/DTD/svg10.dtd"  <!ATTLIST g xmlns:kvg CDATA #FIXED "http://kanjivg.tagaini.net" kvg:element CDATA #IMPLIED kvg:variant CDATA #IMPLIED kvg:partial CDATA #IMPLIED kvg:original CDATA #IMPLIED kvg:part CDATA #IMPLIED kvg:number CDATA #IMPLIED kvg:tradForm CDATA #IMPLIED kvg:radicalForm CDATA #IMPLIED kvg:position CDATA #IMPLIED kvg:radical CDATA #IMPLIED kvg:phon CDATA #IMPLIED > <!ATTLIST path xmlns:kvg CDATA #FIXED "http://kanjivg.tagaini.net" kvg:type CDATA #IMPLIED >  <svg xmlns="http://www.w3.org/2000/svg" width="109" height="109" viewBox="0 0 109 109"> <g id="kvg:StrokePaths_080d6-Kaisho" style="fill:none;stroke:#000000;stroke-width:3;stroke-linecap:round;stroke-linejoin:round;"> <g id="kvg:080d6-Kaisho" kvg:element="胖"> <g id="kvg:080d6-Kaisho-g1" kvg:element="月" kvg:variant="true" kvg:original="肉" kvg:position="left" kvg:radical="general"> <!--<path id="kvg:080d6-Kaisho-s1" kvg:type="㇒" d="M18.92,21.42c0.5,0.91,1.33,2.08,1.33,4.67c0,0.9-0.33,23-0.86,30.38c-0.76,10.51-2.86,22.38-9.97,34.45"/>--> <!--<path id="kvg:080d6-Kaisho-s2" kvg:type="㇆a" d="M20.25,22.58c2.04-0.06,13.81-2.83,15.33-2.83c1.67,0,3.29,1.29,3.29,2.63c0,3.16-0.01,45.28-0.01,63.24c0,12.35-5.54,3.62-7.28,2.14"/>--> <!--<path id="kvg:080d6-Kaisho-s3" kvg:type="㇐a" d="M21.58,40.58c2.89-0.16,5.76-0.67,8.62-1.09c0.79-0.12,1.57-0.23,2.33-0.34"/>--> <!--<path id="kvg:080d6-Kaisho-s4" kvg:type="㇐a" d="M20.93,58.02c2.69-0.07,6.38-0.47,9.04-0.83c0.79-0.1,1.58-0.21,2.37-0.32"/>--> </g> <g id="kvg:080d6-Kaisho-g2" kvg:element="半" kvg:variant="true" kvg:position="right"> <!--<path id="kvg:080d6-Kaisho-s5" kvg:type="㇒" d="M59.44,23.33c0.04,0.4,0.08,1.03-0.08,1.61c-0.97,3.39-6.55,11.34-14.19,15.89"/>--> <!--<path id="kvg:080d6-Kaisho-s6" kvg:type="㇔" d="M80.75,22.17c6.02,2.42,15.49,10.48,17,14.25"/>--> <g id="kvg:080d6-Kaisho-g3" kvg:element="二" kvg:part="1"> <!--<path id="kvg:080d6-Kaisho-s7" kvg:type="㇐" d="M51.75,46.25c0.75,0.26,3.08,0.56,3.83,0.5c9.42-0.75,23.88-3.1,31.83-3.5c1.25-0.06,3.71,0.7,4.33,0.83"/>--> </g> <g id="kvg:080d6-Kaisho-g4" kvg:element="十"> <g id="kvg:080d6-Kaisho-g5" kvg:element="二" kvg:part="2"> <!--<path id="kvg:080d6-Kaisho-s8" kvg:type="㇐" d="M47.08,64.25c1.2,0.31,3.4,0.9,4.59,0.78c9.31-0.91,34.09-3.5,41.08-3.78c1.99-0.08,4,0.51,5,0.67"/>--> </g> <!--<path id="kvg:080d6-Kaisho-s9" kvg:type="㇑" d="M69.58,11.92c1.31,0.5,2.19,2.33,2.19,4.7c0,1.04,0.24,75.99-0.02,82.3"/>--> </g> </g> </g> </g> <g id="kvg:StrokeNumbers_080d6-Kaisho" style="font-size:8;fill:#808080">          </g> </svg> 