<?xml version="1.0" encoding="UTF-8"?>  <!DOCTYPE svg PUBLIC "-//W3C//DTD SVG 1.0//EN" "http://www.w3.org/TR/2001/REC-SVG-20010904/DTD/svg10.dtd"  <!ATTLIST g xmlns:kvg CDATA #FIXED "http://kanjivg.tagaini.net" kvg:element CDATA #IMPLIED kvg:variant CDATA #IMPLIED kvg:partial CDATA #IMPLIED kvg:original CDATA #IMPLIED kvg:part CDATA #IMPLIED kvg:number CDATA #IMPLIED kvg:tradForm CDATA #IMPLIED kvg:radicalForm CDATA #IMPLIED kvg:position CDATA #IMPLIED kvg:radical CDATA #IMPLIED kvg:phon CDATA #IMPLIED > <!ATTLIST path xmlns:kvg CDATA #FIXED "http://kanjivg.tagaini.net" kvg:type CDATA #IMPLIED >  <svg xmlns="http://www.w3.org/2000/svg" width="109" height="109" viewBox="0 0 109 109"> <g id="kvg:StrokePaths_080d9-Kaisho" style="fill:none;stroke:#000000;stroke-width:3;stroke-linecap:round;stroke-linejoin:round;"> <g id="kvg:080d9-Kaisho" kvg:element="胙"> <g id="kvg:080d9-Kaisho-g1" kvg:element="月" kvg:variant="true" kvg:original="肉" kvg:position="left" kvg:radical="general"> <!--<path id="kvg:080d9-Kaisho-s1" kvg:type="㇒" d="M18.58,19.08c0.92,0.92,1.17,3.55,1.17,4.5c0,6.92,0.13,25.48-0.33,33.33c-0.66,11.18-2.17,25.33-9,36"/>--> <!--<path id="kvg:080d9-Kaisho-s2" kvg:type="㇆a" d="M20.82,20.97c2.41-0.06,12.91-2.25,14.71-2.37c3.21-0.22,4.01,1.76,4.01,3.07c0,3.11-0.6,45.55-0.6,63.22c0,12.15-4.64,3.82-6.69,2.37"/>--> <!--<path id="kvg:080d9-Kaisho-s3" kvg:type="㇐a" d="M20.15,41.18c3.13-0.22,6.24-0.71,9.35-1.13c0.85-0.11,1.7-0.23,2.52-0.33"/>--> <!--<path id="kvg:080d9-Kaisho-s4" kvg:type="㇐a" d="M19.42,60.25c3.06-0.06,6.63-0.53,9.66-0.93c0.89-0.12,1.8-0.24,2.7-0.35"/>--> </g> <g id="kvg:080d9-Kaisho-g2" kvg:element="乍" kvg:position="right"> <g id="kvg:080d9-Kaisho-g3" kvg:element="丿"> <!--<path id="kvg:080d9-Kaisho-s5" kvg:type="㇒" d="M64.58,14.42c0.06,0.81,0.2,3.6-0.17,4.73c-2.36,7.33-8.59,20.34-18.67,30.93"/>--> </g> <!--<path id="kvg:080d9-Kaisho-s6" kvg:type="㇐" d="M58.95,34.27c0.91,0.36,3.89,0.04,4.8-0.02c12.05-0.75,19-1.75,28.67-3.5c1.66-0.3,3.36,0.14,4.67,0.5"/>--> <!--<path id="kvg:080d9-Kaisho-s7" kvg:type="㇑" d="M67.25,35.42c0.92,0.92,1.02,2.84,1.19,3.76c0.17,0.91-0.02,49.71-0.19,55.41"/>--> <!--<path id="kvg:080d9-Kaisho-s8" kvg:type="㇐b" d="M68.66,50.7c5.7-0.8,12.98-1.82,19.43-2.62c1.52-0.19,3.21-0.24,4.83,0.17"/>--> <!--<path id="kvg:080d9-Kaisho-s9" kvg:type="㇐b" d="M69.08,68.08c4.42-0.42,14.17-1.58,20.67-2.17c0.91-0.08,4.88-0.25,5.33-0.17"/>--> </g> </g> </g> <g id="kvg:StrokeNumbers_080d9-Kaisho" style="font-size:8;fill:#808080">          </g> </svg> 