<?xml version="1.0" encoding="UTF-8"?>  <!DOCTYPE svg PUBLIC "-//W3C//DTD SVG 1.0//EN" "http://www.w3.org/TR/2001/REC-SVG-20010904/DTD/svg10.dtd"  <!ATTLIST g xmlns:kvg CDATA #FIXED "http://kanjivg.tagaini.net" kvg:element CDATA #IMPLIED kvg:variant CDATA #IMPLIED kvg:partial CDATA #IMPLIED kvg:original CDATA #IMPLIED kvg:part CDATA #IMPLIED kvg:number CDATA #IMPLIED kvg:tradForm CDATA #IMPLIED kvg:radicalForm CDATA #IMPLIED kvg:position CDATA #IMPLIED kvg:radical CDATA #IMPLIED kvg:phon CDATA #IMPLIED > <!ATTLIST path xmlns:kvg CDATA #FIXED "http://kanjivg.tagaini.net" kvg:type CDATA #IMPLIED >  <svg xmlns="http://www.w3.org/2000/svg" width="109" height="109" viewBox="0 0 109 109"> <g id="kvg:StrokePaths_081ea-Kaisho" style="fill:none;stroke:#000000;stroke-width:3;stroke-linecap:round;stroke-linejoin:round;"> <g id="kvg:081ea-Kaisho" kvg:element="自" kvg:radical="general"> <!--<path id="kvg:081ea-Kaisho-s1" kvg:type="㇒" d="M50.94,13.17c0.48,0.2-0.44,3.56-0.74,4.15c-1.95,3.93-3.95,9.27-8.56,14.43"/>--> <g id="kvg:081ea-Kaisho-g1" kvg:element="目"> <!--<path id="kvg:081ea-Kaisho-s2" kvg:type="㇑" d="M27,32.23c0.8,1.43,1.98,2.49,1.98,4.39c0,1.9-0.04,52.32-0.04,53.28c0,0.95,0.06,2.85,0.04,4.85"/>--> <!--<path id="kvg:081ea-Kaisho-s3" kvg:type="㇕a" d="M28.81,33.82c6.44-1.07,40.67-4.78,44.81-5.07C77.07,28.51,79,30,79.5,34.34c0.26,2.25-0.85,32.01-0.83,52.94c0,2.15,0,5.11-0.27,6.52"/>--> <!--<path id="kvg:081ea-Kaisho-s4" kvg:type="㇐a" d="M30.23,51.23c8.02-0.29,16.03-1.04,24.02-1.63c2.42-0.18,4.82-0.35,7.12-0.52"/>--> <!--<path id="kvg:081ea-Kaisho-s5" kvg:type="㇐a" d="M30.61,70.42c7.7-0.51,16.38-1.67,24.07-2.23c2.13-0.15,4.25-0.3,6.33-0.43"/>--> <!--<path id="kvg:081ea-Kaisho-s6" kvg:type="㇐a" d="M29.04,92.07C39.75,91.5,64.32,88.94,76,88.94"/>--> </g> </g> </g> <g id="kvg:StrokeNumbers_081ea-Kaisho" style="font-size:8;fill:#808080">       </g> </svg> 