<?xml version="1.0" encoding="UTF-8"?>  <!DOCTYPE svg PUBLIC "-//W3C//DTD SVG 1.0//EN" "http://www.w3.org/TR/2001/REC-SVG-20010904/DTD/svg10.dtd"  <!ATTLIST g xmlns:kvg CDATA #FIXED "http://kanjivg.tagaini.net" kvg:element CDATA #IMPLIED kvg:variant CDATA #IMPLIED kvg:partial CDATA #IMPLIED kvg:original CDATA #IMPLIED kvg:part CDATA #IMPLIED kvg:number CDATA #IMPLIED kvg:tradForm CDATA #IMPLIED kvg:radicalForm CDATA #IMPLIED kvg:position CDATA #IMPLIED kvg:radical CDATA #IMPLIED kvg:phon CDATA #IMPLIED > <!ATTLIST path xmlns:kvg CDATA #FIXED "http://kanjivg.tagaini.net" kvg:type CDATA #IMPLIED >  <svg xmlns="http://www.w3.org/2000/svg" width="109" height="109" viewBox="0 0 109 109"> <g id="kvg:StrokePaths_0821e-KaishoHzLst" style="fill:none;stroke:#000000;stroke-width:3;stroke-linecap:round;stroke-linejoin:round;"> <g id="kvg:0821e-KaishoHzLst" kvg:element="舞"> <g id="kvg:0821e-KaishoHzLst-g1" kvg:position="top"> <g id="kvg:0821e-KaishoHzLst-g2" kvg:element="丿"> <!--<path id="kvg:0821e-KaishoHzLst-s1" kvg:type="㇒" d="M38.19,11.45c0.05,0.5,0.26,1.48-0.09,2.01C33,21,27.5,26.75,20.49,32.65"/>--> </g> <!--<path id="kvg:0821e-KaishoHzLst-s2" kvg:type="㇐" d="M34.39,21.23c8.91-0.24,37.22-3.61,45.76-4.2c1.98-0.14,3.19,0.18,4.18,0.36"/>--> <g id="kvg:0821e-KaishoHzLst-g3" kvg:element="一"> <!--<path id="kvg:0821e-KaishoHzLst-s3" kvg:type="㇐" d="M22.5,38.37c1.47,0.52,4.18,0.77,5.63,0.52c5.94-1.02,36.34-3.83,52.23-4.54c2.44-0.11,3.91,0.25,5.14,0.51"/>--> </g> <!--<path id="kvg:0821e-KaishoHzLst-s4" kvg:type="㇐" d="M14.05,50.73c2.01,0.72,5.7,0.89,7.7,0.72c11.48-0.98,43.43-3.96,65.17-4.93c3.34-0.15,5.36,0.34,7.03,0.7"/>--> <!--<path id="kvg:0821e-KaishoHzLst-s5" kvg:type="㇑" d="M34.27,25.73c0.96,0.44,1.69,1.97,1.73,2.87c0.25,5.9,0.84,13.4,1.14,21.01"/>--> <!--<path id="kvg:0821e-KaishoHzLst-s6" kvg:type="㇑" d="M48.26,24.68c0.94,0.43,1.7,1.91,1.68,2.79c-0.07,4.73,0.15,9.39,0.15,21.64"/>--> <!--<path id="kvg:0821e-KaishoHzLst-s7" kvg:type="㇑" d="M61.15,21.89c0.94,0.43,1.75,1.92,1.68,2.79c-0.5,6.88-0.43,9.53-1.07,23.07"/>--> <!--<path id="kvg:0821e-KaishoHzLst-s8" kvg:type="㇑" d="M74.47,21.32c0.94,0.43,1.97,1.96,1.68,3.65c-1.14,6.88-1.57,8.96-3.72,22.28"/>--> </g> <g id="kvg:0821e-KaishoHzLst-g4" kvg:element="舛" kvg:variant="true" kvg:position="bottom" kvg:radical="general"> <g id="kvg:0821e-KaishoHzLst-g5" kvg:element="夕" kvg:position="left"> <!--<path id="kvg:0821e-KaishoHzLst-s9" kvg:type="㇒" d="M31.71,55.89c0.15,0.34,0.45,1.35,0.29,2.02c-0.95,3.98-6.78,12.57-14.26,17.91"/>--> <!--<path id="kvg:0821e-KaishoHzLst-s10" kvg:type="㇇" d="M32.7,61.2c0.26,0.03,2.37,0,3.12-0.1c2.45-0.31,7-1.74,10.26-2.93c2.34-0.85,3.08,0.75,2.47,2.54C45.19,70.5,32,89.5,13.25,97.5"/>--> <!--<path id="kvg:0821e-KaishoHzLst-s11" kvg:type="㇔" d="M27.61,69.72c2.75,1.19,7.1,4.9,7.79,6.75"/>--> </g> <g id="kvg:0821e-KaishoHzLst-g6" kvg:position="right"> <!--<path id="kvg:0821e-KaishoHzLst-s12" kvg:type="㇐" d="M61.38,61.01c0.65,0.26,1.84,0.33,2.48,0.26c4.13-0.46,15.32-2.93,19.78-2.83c1.08,0.02,1.73,0.12,2.27,0.26"/>--> <!--<path id="kvg:0821e-KaishoHzLst-s13" kvg:type="㇑" d="M60,58.88c0.29,0.87,1.43,2.12,1.51,3.62c0.24,4.5,0.05,7.75,0.05,11.98"/>--> <!--<path id="kvg:0821e-KaishoHzLst-s14" kvg:type="㇐" d="M49.25,76.89c0.94,0.38,2.66,0.49,3.6,0.38c5.98-0.66,32.32-3.33,38.11-2.88c1.56,0.12,2.5,0.18,3.29,0.37"/>--> <!--<path id="kvg:0821e-KaishoHzLst-s15" kvg:type="㇑" d="M72.33,50.75c0.91,0.42,1.46,1.89,1.64,2.73c0.18,0.84,0,40.28-0.18,45.52"/>--> </g> </g> </g> </g> <g id="kvg:StrokeNumbers_0821e-KaishoHzLst" style="font-size:8;fill:#808080">                </g> </svg> 