<?xml version="1.0" encoding="UTF-8"?>  <!DOCTYPE svg PUBLIC "-//W3C//DTD SVG 1.0//EN" "http://www.w3.org/TR/2001/REC-SVG-20010904/DTD/svg10.dtd"  <!ATTLIST g xmlns:kvg CDATA #FIXED "http://kanjivg.tagaini.net" kvg:element CDATA #IMPLIED kvg:variant CDATA #IMPLIED kvg:partial CDATA #IMPLIED kvg:original CDATA #IMPLIED kvg:part CDATA #IMPLIED kvg:number CDATA #IMPLIED kvg:tradForm CDATA #IMPLIED kvg:radicalForm CDATA #IMPLIED kvg:position CDATA #IMPLIED kvg:radical CDATA #IMPLIED kvg:phon CDATA #IMPLIED > <!ATTLIST path xmlns:kvg CDATA #FIXED "http://kanjivg.tagaini.net" kvg:type CDATA #IMPLIED >  <svg xmlns="http://www.w3.org/2000/svg" width="109" height="109" viewBox="0 0 109 109"> <g id="kvg:StrokePaths_0826e-Kaisho" style="fill:none;stroke:#000000;stroke-width:3;stroke-linecap:round;stroke-linejoin:round;"> <g id="kvg:0826e-Kaisho" kvg:element="艮" kvg:radical="general"> <!--<path id="kvg:0826e-Kaisho-s1" kvg:type="㇕" d="M33.03,18.35c5.72-0.85,32.08-4.32,34.7-4.48c2.18-0.14,3.43,1.5,3.41,2.32C71,22,68,43,66.75,47"/>--> <!--<path id="kvg:0826e-Kaisho-s2" kvg:type="㇐a" d="M33.25,32.5c6-0.54,11.99-1.27,17.98-1.93c1.79-0.2,3.58-0.4,5.31-0.58"/>--> <!--<path id="kvg:0826e-Kaisho-s3" kvg:type="㇐a" d="M33.86,48.04C43.75,47,56.25,45.5,67,44.5"/>--> <!--<path id="kvg:0826e-Kaisho-s4" kvg:type="㇙" d="M30.01,14.87c1.63,0.65,2.61,2.94,2.94,4.25c0.33,1.31,0.69,68.74,0.33,71.99c-0.33,2.94-1.44,7.49,2.48,5.2c3.92-2.29,14.17-10.45,17.44-13.39"/>--> <!--<path id="kvg:0826e-Kaisho-s5" kvg:type="㇒" d="M74.01,50.17c0.33,1.63,0.25,2.88-0.85,4.09c-2.92,3.23-7.73,7.95-10.67,10.23"/>--> <!--<path id="kvg:0826e-Kaisho-s6" kvg:type="㇏" d="M42.35,53.57c5.83,0,36.38,30.25,41.15,32.51c6.86,3.25,7.88,3.25,11.31,3.97"/>--> </g> </g> <g id="kvg:StrokeNumbers_0826e-Kaisho" style="font-size:8;fill:#808080">       </g> </svg> 