<?xml version="1.0" encoding="UTF-8"?>  <!DOCTYPE svg PUBLIC "-//W3C//DTD SVG 1.0//EN" "http://www.w3.org/TR/2001/REC-SVG-20010904/DTD/svg10.dtd"  <!ATTLIST g xmlns:kvg CDATA #FIXED "http://kanjivg.tagaini.net" kvg:element CDATA #IMPLIED kvg:variant CDATA #IMPLIED kvg:partial CDATA #IMPLIED kvg:original CDATA #IMPLIED kvg:part CDATA #IMPLIED kvg:number CDATA #IMPLIED kvg:tradForm CDATA #IMPLIED kvg:radicalForm CDATA #IMPLIED kvg:position CDATA #IMPLIED kvg:radical CDATA #IMPLIED kvg:phon CDATA #IMPLIED > <!ATTLIST path xmlns:kvg CDATA #FIXED "http://kanjivg.tagaini.net" kvg:type CDATA #IMPLIED >  <svg xmlns="http://www.w3.org/2000/svg" width="109" height="109" viewBox="0 0 109 109"> <g id="kvg:StrokePaths_082a6-Hyougai" style="fill:none;stroke:#000000;stroke-width:3;stroke-linecap:round;stroke-linejoin:round;"> <g id="kvg:082a6-Hyougai" kvg:element="芦"> <g id="kvg:082a6-Hyougai-g1" kvg:element="艹" kvg:variant="true" kvg:original="艸" kvg:position="top" kvg:radical="general"> <!--<path id="kvg:082a6-Hyougai-s1" kvg:type="㇐" d="M20.25,26.27c2.02,0.82,5.5,0.97,7.63,0.75c13.88-1.48,39.3-3.29,53.25-3.68c2.88-0.08,5.8-0.25,8.63,0.44"/>--> <!--<path id="kvg:082a6-Hyougai-s2" kvg:type="㇑a" d="M38.75,14.25c1.19,1.19,1.62,2.61,1.75,3.5C41.88,27,42.38,30.12,43,35"/>--> <!--<path id="kvg:082a6-Hyougai-s3" kvg:type="㇑a" d="M67.5,12c0.42,1.18,0.58,2.52,0.25,4c-1,4.5-2,10.75-3.5,17"/>--> </g> <g id="kvg:082a6-Hyougai-g2" kvg:element="戸" kvg:position="bottom"> <!--<path id="kvg:082a6-Hyougai-s4" kvg:type="㇐" d="M25.88,41.4c2.55,0.85,6.28,0.38,8.88,0.13c12-1.15,26-2.67,41.12-3.81c2.5-0.19,5.29-0.15,7.75,0.34"/>--> <!--<path id="kvg:082a6-Hyougai-s5" kvg:type="㇕c" d="M28.6,51.62c1.15,0.75,3.08,0.88,5.5,0.65c12.55-1.18,37.66-3.9,42.16-4.27c2.98-0.25,4.21,0.76,3.22,3.61c-1.42,4.09-1.69,6.47-3.56,13.4"/>--> <!--<path id="kvg:082a6-Hyougai-s6" kvg:type="㇐b" d="M28.75,70c15.38-1.38,27.5-2.38,44.88-3.78c1.98-0.16,3.72-0.19,5.12-0.22"/>--> <!--<path id="kvg:082a6-Hyougai-s7" kvg:type="㇒" d="M29.71,52.68c0.74,0.74,0.77,1.79,0.63,3.49C28.5,78.25,21,89,11.5,100"/>--> </g> </g> </g> <g id="kvg:StrokeNumbers_082a6-Hyougai" style="font-size:8;fill:#808080">        </g> </svg> 