<?xml version="1.0" encoding="UTF-8"?>  <!DOCTYPE svg PUBLIC "-//W3C//DTD SVG 1.0//EN" "http://www.w3.org/TR/2001/REC-SVG-20010904/DTD/svg10.dtd"  <!ATTLIST g xmlns:kvg CDATA #FIXED "http://kanjivg.tagaini.net" kvg:element CDATA #IMPLIED kvg:variant CDATA #IMPLIED kvg:partial CDATA #IMPLIED kvg:original CDATA #IMPLIED kvg:part CDATA #IMPLIED kvg:number CDATA #IMPLIED kvg:tradForm CDATA #IMPLIED kvg:radicalForm CDATA #IMPLIED kvg:position CDATA #IMPLIED kvg:radical CDATA #IMPLIED kvg:phon CDATA #IMPLIED > <!ATTLIST path xmlns:kvg CDATA #FIXED "http://kanjivg.tagaini.net" kvg:type CDATA #IMPLIED >  <svg xmlns="http://www.w3.org/2000/svg" width="109" height="109" viewBox="0 0 109 109"> <g id="kvg:StrokePaths_082b3-Kaisho" style="fill:none;stroke:#000000;stroke-width:3;stroke-linecap:round;stroke-linejoin:round;"> <g id="kvg:082b3-Kaisho" kvg:element="芳"> <g id="kvg:082b3-Kaisho-g1" kvg:element="艹" kvg:variant="true" kvg:original="艸" kvg:position="top" kvg:radical="general"> <!--<path id="kvg:082b3-Kaisho-s1" kvg:type="㇐" d="M18.5,26.27c1.29,0.53,2.8,0.63,4.1,0.53c11.9-0.96,48.4-5.46,62.12-5.53c2.16-0.01,3.45,0.25,4.53,0.51"/>--> <!--<path id="kvg:082b3-Kaisho-s2" kvg:type="㇑a" d="M36.25,13.5c1,1,1.88,1.86,2,2.75c1,7.75,1.5,12.5,2.25,18.75"/>--> <!--<path id="kvg:082b3-Kaisho-s3" kvg:type="㇑a" d="M69.75,10.75c0.42,1.18,0.97,2.05,0.5,3.5C67.5,22.75,66.75,26,63.75,34"/>--> </g> <g id="kvg:082b3-Kaisho-g2" kvg:element="方" kvg:position="bottom"> <g id="kvg:082b3-Kaisho-g3" kvg:element="亠" kvg:position="top"> <!--<path id="kvg:082b3-Kaisho-s4" kvg:type="㇑a" d="M49.38,32.27c3,1.25,6.18,4.83,7.94,8.55"/>--> <!--<path id="kvg:082b3-Kaisho-s5" kvg:type="㇐" d="M14.5,48.62c1.42,0.1,4.68,0.69,6.06,0.55c11.19-1.16,52.44-4.91,67.64-5.7c2.35-0.12,3.55,0.05,5.3,0.7"/>--> </g> <g id="kvg:082b3-Kaisho-g4" kvg:position="bottom"> <!--<path id="kvg:082b3-Kaisho-s6" kvg:type="㇆a" d="M49.59,60.02c7.66,1.98,17.49,1.85,23.24,1.44c3.74-0.27,4.78,1.21,4.57,3.09c-0.55,4.96-12.97,27.29-17.65,31.32c-5.07,4.38-7.51-0.37-8.48-2.76"/>--> <!--<path id="kvg:082b3-Kaisho-s7" kvg:type="㇒" d="M52.51,48.77c0.09,1,0.39,2.63-0.19,4.02c-4,9.6-15.09,29.4-33.07,38.48"/>--> </g> </g> </g> </g> <g id="kvg:StrokeNumbers_082b3-Kaisho" style="font-size:8;fill:#808080">        </g> </svg> 