<?xml version="1.0" encoding="UTF-8"?>  <!DOCTYPE svg PUBLIC "-//W3C//DTD SVG 1.0//EN" "http://www.w3.org/TR/2001/REC-SVG-20010904/DTD/svg10.dtd"  <!ATTLIST g xmlns:kvg CDATA #FIXED "http://kanjivg.tagaini.net" kvg:element CDATA #IMPLIED kvg:variant CDATA #IMPLIED kvg:partial CDATA #IMPLIED kvg:original CDATA #IMPLIED kvg:part CDATA #IMPLIED kvg:number CDATA #IMPLIED kvg:tradForm CDATA #IMPLIED kvg:radicalForm CDATA #IMPLIED kvg:position CDATA #IMPLIED kvg:radical CDATA #IMPLIED kvg:phon CDATA #IMPLIED > <!ATTLIST path xmlns:kvg CDATA #FIXED "http://kanjivg.tagaini.net" kvg:type CDATA #IMPLIED >  <svg xmlns="http://www.w3.org/2000/svg" width="109" height="109" viewBox="0 0 109 109"> <g id="kvg:StrokePaths_0839e-Kaisho" style="fill:none;stroke:#000000;stroke-width:3;stroke-linecap:round;stroke-linejoin:round;"> <g id="kvg:0839e-Kaisho" kvg:element="莞"> <g id="kvg:0839e-Kaisho-g1" kvg:element="艹" kvg:variant="true" kvg:original="艸" kvg:position="top" kvg:radical="general"> <!--<path id="kvg:0839e-Kaisho-s1" kvg:type="㇐" d="M20.25,24.02c1.29,0.53,2.8,0.63,4.1,0.53c11.9-0.96,47.4-4.46,61.12-4.53c2.16-0.01,3.45,0.25,4.53,0.51"/>--> <!--<path id="kvg:0839e-Kaisho-s2" kvg:type="㇑a" d="M38,12.25c1.47,1.13,1.94,1.47,2.1,2.17c1.47,6.51,2.73,13.21,3.15,15.58"/>--> <!--<path id="kvg:0839e-Kaisho-s3" kvg:type="㇑a" d="M67.83,10.5c0.22,0.84,0.5,1.46,0.26,2.49c-1.41,6.05-2.05,9.07-3.59,14.76"/>--> </g> <g id="kvg:0839e-Kaisho-g2" kvg:element="完" kvg:position="bottom"> <g id="kvg:0839e-Kaisho-g3" kvg:element="宀" kvg:position="top"> <!--<path id="kvg:0839e-Kaisho-s4" kvg:type="㇑a" d="M50.74,27.75c2.51,1.5,3.76,3.25,5.04,5.43"/>--> <g id="kvg:0839e-Kaisho-g4" kvg:element="冖"> <!--<path id="kvg:0839e-Kaisho-s5" kvg:type="㇔" d="M25.6,38.02c0,3.41-1.85,11.73-4.51,15.07"/>--> <!--<path id="kvg:0839e-Kaisho-s6" kvg:type="㇖b" d="M25.35,42.1C36.5,41,75.5,36.31,81.65,36.29c9.85-0.04-0.32,8.25-1.86,9.1"/>--> </g> </g> <g id="kvg:0839e-Kaisho-g5" kvg:element="元" kvg:position="bottom"> <g id="kvg:0839e-Kaisho-g6" kvg:element="二"> <!--<path id="kvg:0839e-Kaisho-s7" kvg:type="㇐" d="M37.32,52.68c0.93,0.23,2.66,0.36,3.58,0.23c8.35-1.16,15.6-2.41,23.12-3.15c1.55-0.15,2.49,0.11,3.27,0.23"/>--> <!--<path id="kvg:0839e-Kaisho-s8" kvg:type="㇐" d="M28.08,66.92c1.09,0.39,3.09,0.46,4.18,0.39c7.99-0.56,30.74-4.56,42.84-4.96c1.82-0.06,2.91,0.19,3.82,0.38"/>--> </g> <g id="kvg:0839e-Kaisho-g7" kvg:element="儿" kvg:original="八"> <g id="kvg:0839e-Kaisho-g8" kvg:element="丿"> <!--<path id="kvg:0839e-Kaisho-s9" kvg:type="㇒" d="M44.99,69.25c0.07,0.69,0.15,1.77-0.14,2.76c-1.73,5.82-10.82,19.7-25.19,26.41"/>--> </g> <!--<path id="kvg:0839e-Kaisho-s10" kvg:type="㇟" d="M60.24,66.62c0.74,1.19,1.38,2.59,1.38,4.43c0,3.7-0.53,9.7-0.53,13.7c0,10.75,4.17,11.53,16.67,11.53c9.25,0,12.34-1.68,13.64-2.62c2.75-2,2-3,2.25-6.5"/>--> </g> </g> </g> </g> </g> <g id="kvg:StrokeNumbers_0839e-Kaisho" style="font-size:8;fill:#808080">           </g> </svg> 