<?xml version="1.0" encoding="UTF-8"?>  <!DOCTYPE svg PUBLIC "-//W3C//DTD SVG 1.0//EN" "http://www.w3.org/TR/2001/REC-SVG-20010904/DTD/svg10.dtd"  <!ATTLIST g xmlns:kvg CDATA #FIXED "http://kanjivg.tagaini.net" kvg:element CDATA #IMPLIED kvg:variant CDATA #IMPLIED kvg:partial CDATA #IMPLIED kvg:original CDATA #IMPLIED kvg:part CDATA #IMPLIED kvg:number CDATA #IMPLIED kvg:tradForm CDATA #IMPLIED kvg:radicalForm CDATA #IMPLIED kvg:position CDATA #IMPLIED kvg:radical CDATA #IMPLIED kvg:phon CDATA #IMPLIED > <!ATTLIST path xmlns:kvg CDATA #FIXED "http://kanjivg.tagaini.net" kvg:type CDATA #IMPLIED >  <svg xmlns="http://www.w3.org/2000/svg" width="109" height="109" viewBox="0 0 109 109"> <g id="kvg:StrokePaths_083b1-Kaisho" style="fill:none;stroke:#000000;stroke-width:3;stroke-linecap:round;stroke-linejoin:round;"> <g id="kvg:083b1-Kaisho" kvg:element="莱"> <g id="kvg:083b1-Kaisho-g1" kvg:element="艹" kvg:variant="true" kvg:original="艸" kvg:position="top" kvg:radical="general"> <!--<path id="kvg:083b1-Kaisho-s1" kvg:type="㇐" d="M20,21.77c1.29,0.53,2.8,0.63,4.1,0.53c11.9-0.96,47.4-3.96,61.12-4.03c2.16-0.01,3.45,0.25,4.53,0.51"/>--> <!--<path id="kvg:083b1-Kaisho-s2" kvg:type="㇑a" d="M36.25,10.5c1.75,1.43,2.31,1.87,2.5,2.75C40.5,21.5,41,26,41.5,29"/>--> <!--<path id="kvg:083b1-Kaisho-s3" kvg:type="㇑a" d="M68.97,8.75c0.98,0.88,1.64,2.21,1.31,3.5c-0.98,3.94-1.64,10.5-3.06,15.53"/>--> </g> <g id="kvg:083b1-Kaisho-g2" kvg:element="来" kvg:position="bottom"> <!--<path id="kvg:083b1-Kaisho-s4" kvg:type="㇐" d="M22.79,39.4c1.16,0.4,3.29,0.49,4.45,0.4c13.01-1.04,42.78-4.32,54.78-4.53c1.93-0.03,3.09,0.19,4.06,0.38"/>--> <g id="kvg:083b1-Kaisho-g3" kvg:element="米"> <!--<path id="kvg:083b1-Kaisho-s5" kvg:type="㇔" d="M32,46.47c2.08,1.47,5.23,5.64,5.75,7.93"/>--> <!--<path id="kvg:083b1-Kaisho-s6" kvg:type="㇒" d="M75.27,42.52c0.03,0.3,0.05,0.77-0.05,1.19c-0.63,2.51-4.26,8.02-9.22,11.4"/>--> <g id="kvg:083b1-Kaisho-g4" kvg:element="木"> <!--<path id="kvg:083b1-Kaisho-s7" kvg:type="㇐" d="M13.87,61.72c0.92,0.22,3.41,0.86,5.86,0.65c10.3-0.87,60.22-4.78,71.02-4.34c2.46,0.1,3.08-0.22,4.63,0"/>--> <!--<path id="kvg:083b1-Kaisho-s8" kvg:type="㇑" d="M51.92,25.5c1.35,0.43,2.43,2.41,2.43,3.32c0,3.93-0.25,65.92-0.27,66.43c-0.33,10-4.83,3.75-6.16,2.16"/>--> <!--<path id="kvg:083b1-Kaisho-s9" kvg:type="㇒" d="M52.92,60.48c-6.54,11.02-22.45,26.5-37.17,32.85"/>--> <!--<path id="kvg:083b1-Kaisho-s10" kvg:type="㇏" d="M53.75,62.29C60.5,67.75,80,85.75,87.08,89.43c2.05,1.07,3.52,1.89,5.42,2.27"/>--> </g> </g> </g> </g> </g> <g id="kvg:StrokeNumbers_083b1-Kaisho" style="font-size:8;fill:#808080">           </g> </svg> 