<?xml version="1.0" encoding="UTF-8"?>  <!DOCTYPE svg PUBLIC "-//W3C//DTD SVG 1.0//EN" "http://www.w3.org/TR/2001/REC-SVG-20010904/DTD/svg10.dtd"  <!ATTLIST g xmlns:kvg CDATA #FIXED "http://kanjivg.tagaini.net" kvg:element CDATA #IMPLIED kvg:variant CDATA #IMPLIED kvg:partial CDATA #IMPLIED kvg:original CDATA #IMPLIED kvg:part CDATA #IMPLIED kvg:number CDATA #IMPLIED kvg:tradForm CDATA #IMPLIED kvg:radicalForm CDATA #IMPLIED kvg:position CDATA #IMPLIED kvg:radical CDATA #IMPLIED kvg:phon CDATA #IMPLIED > <!ATTLIST path xmlns:kvg CDATA #FIXED "http://kanjivg.tagaini.net" kvg:type CDATA #IMPLIED >  <svg xmlns="http://www.w3.org/2000/svg" width="109" height="109" viewBox="0 0 109 109"> <g id="kvg:StrokePaths_08449-Kaisho" style="fill:none;stroke:#000000;stroke-width:3;stroke-linecap:round;stroke-linejoin:round;"> <g id="kvg:08449-Kaisho" kvg:element="葉"> <g id="kvg:08449-Kaisho-g1" kvg:element="艹" kvg:variant="true" kvg:original="艸" kvg:position="top" kvg:radical="general"> <!--<path id="kvg:08449-Kaisho-s1" kvg:type="㇐" d="M21,22.77c1.29,0.53,2.8,0.63,4.1,0.53c11.9-0.96,46.4-4.46,60.12-4.53c2.16-0.01,3.45,0.25,4.53,0.51"/>--> <!--<path id="kvg:08449-Kaisho-s2" kvg:type="㇑a" d="M38,11.75c1.54,1.16,2.04,1.52,2.2,2.23c1.54,6.69,2.86,13.59,3.3,16.02"/>--> <!--<path id="kvg:08449-Kaisho-s3" kvg:type="㇑a" d="M69.44,10.75c0.3,0.85,0.7,1.48,0.36,2.53c-1.98,6.13-2.89,9.2-5.05,14.97"/>--> </g> <g id="kvg:08449-Kaisho-g2" kvg:position="bottom"> <g id="kvg:08449-Kaisho-g3" kvg:element="世" kvg:position="top"> <g id="kvg:08449-Kaisho-g4" kvg:element="廿"> <g id="kvg:08449-Kaisho-g5" kvg:element="十"> <g id="kvg:08449-Kaisho-g6" kvg:element="一"> <!--<path id="kvg:08449-Kaisho-s4" kvg:type="㇐" d="M13.66,43.22c1.17,0.42,3.32,0.47,4.5,0.42c9.03-0.38,59-5.24,73.83-5.43c1.95-0.02,3.13,0.2,4.11,0.41"/>--> </g> <!--<path id="kvg:08449-Kaisho-s5" kvg:type="㇑" d="M52.55,31.8c0.84,0.39,1.35,1.74,1.51,2.51s1.16,12.7,0.99,17.53"/>--> </g> <!--<path id="kvg:08449-Kaisho-s6" kvg:type="㇑" d="M72.99,30.25c0.84,0.39,1.35,1.74,1.52,2.51c0.17,0.77-2.11,8.71-2.6,16.83"/>--> <!--<path id="kvg:08449-Kaisho-s7" kvg:type="㇐" d="M55.55,50.75c3.09,0,17.04-1.54,18.78-1.54"/>--> </g> <!--<path id="kvg:08449-Kaisho-s8" kvg:type="㇗" d="M35.08,32.82c0.84,0.39,1.51,1.72,1.51,2.51c0,5.92-0.1,11.42-0.22,20.36c-0.04,2.9-2.32,5.43,2.9,4.83C52.8,58.98,67,58,77.5,57.63c2.52-0.09,4.14,0.27,5.1,0.47"/>--> </g> <g id="kvg:08449-Kaisho-g7" kvg:element="木" kvg:position="bottom"> <!--<path id="kvg:08449-Kaisho-s9" kvg:type="㇐" d="M22.75,73.5c0.75,0.25,2.76,0.98,4.75,0.75c10.75-1.25,38.5-3.75,54-4.5c2-0.1,2.5-0.25,3.75,0"/>--> <!--<path id="kvg:08449-Kaisho-s10" kvg:type="㇑" d="M52.25,60.75c1.25,0.5,2,2.25,2.25,3.25s-0.25,29.73-0.25,31c0,10.5-4.5,3.25-5.75,2"/>--> <!--<path id="kvg:08449-Kaisho-s11" kvg:type="㇒" d="M42.5,81.5c-2.38,4.95-8.56,11.95-13.5,14.75"/>--> <!--<path id="kvg:08449-Kaisho-s12" kvg:type="㇏" d="M63.5,80c4.5,2.99,12.82,11.55,15.65,16.29"/>--> </g> </g> </g> </g> <g id="kvg:StrokeNumbers_08449-Kaisho" style="font-size:8;fill:#808080">             </g> </svg> 