<?xml version="1.0" encoding="UTF-8"?>  <!DOCTYPE svg PUBLIC "-//W3C//DTD SVG 1.0//EN" "http://www.w3.org/TR/2001/REC-SVG-20010904/DTD/svg10.dtd"  <!ATTLIST g xmlns:kvg CDATA #FIXED "http://kanjivg.tagaini.net" kvg:element CDATA #IMPLIED kvg:variant CDATA #IMPLIED kvg:partial CDATA #IMPLIED kvg:original CDATA #IMPLIED kvg:part CDATA #IMPLIED kvg:number CDATA #IMPLIED kvg:tradForm CDATA #IMPLIED kvg:radicalForm CDATA #IMPLIED kvg:position CDATA #IMPLIED kvg:radical CDATA #IMPLIED kvg:phon CDATA #IMPLIED > <!ATTLIST path xmlns:kvg CDATA #FIXED "http://kanjivg.tagaini.net" kvg:type CDATA #IMPLIED >  <svg xmlns="http://www.w3.org/2000/svg" width="109" height="109" viewBox="0 0 109 109"> <g id="kvg:StrokePaths_08695-Kaisho" style="fill:none;stroke:#000000;stroke-width:3;stroke-linecap:round;stroke-linejoin:round;"> <g id="kvg:08695-Kaisho" kvg:element="蚕"> <g id="kvg:08695-Kaisho-g1" kvg:element="天" kvg:position="top"> <g id="kvg:08695-Kaisho-g2" kvg:element="一" kvg:radical="nelson"> <!--<path id="kvg:08695-Kaisho-s1" kvg:type="㇐" d="M29.13,18.08c1.19,0.46,3.38,0.59,4.57,0.46c18.05-2.03,27.05-3.78,41.51-4.75c1.98-0.13,3.18,0.22,4.17,0.45"/>--> </g> <g id="kvg:08695-Kaisho-g3" kvg:element="大"> <!--<path id="kvg:08695-Kaisho-s2" kvg:type="㇐" d="M21.06,36.31c1.37,0.41,4.9,0.75,6.38,0.56c13.81-1.74,37.83-4.38,53.18-5.31c1.89-0.12,4.59,0.16,8.83,0.85"/>--> <!--<path id="kvg:08695-Kaisho-s3" kvg:type="㇒" d="M50.62,19.75c0.38,1.25,0.44,2.39,0,3.92c-6.11,21.08-18.86,37.08-39.36,49.2"/>--> <!--<path id="kvg:08695-Kaisho-s4" kvg:type="㇏" d="M61.1,34.39c7.57,7.45,23.96,25.01,31.52,30c2.57,1.7,3.47,1.95,4.63,2.11"/>--> </g> </g> <g id="kvg:08695-Kaisho-g4" kvg:element="虫" kvg:position="bottom" kvg:radical="tradit"> <g id="kvg:08695-Kaisho-g5" kvg:element="中"> <g id="kvg:08695-Kaisho-g6" kvg:element="口"> <!--<path id="kvg:08695-Kaisho-s5" kvg:type="㇑" d="M34.78,62.35c0.61,0.39,1.38,0.7,1.49,1.22c0.82,3.78,1.67,8.76,2.83,15.92"/>--> <!--<path id="kvg:08695-Kaisho-s6" kvg:type="㇕b" d="M36.73,63.19C47.25,62,63.02,59.59,69.7,59.3c2.61-0.11,3.81,1.07,3.49,2.21c-1.11,3.88-1.3,7.5-3.11,13.94"/>--> <!--<path id="kvg:08695-Kaisho-s7" kvg:type="㇐b" d="M39.44,77.95c7.43-0.76,21.43-1.93,31.83-2.64"/>--> </g> <g id="kvg:08695-Kaisho-g7" kvg:element="丨"> <!--<path id="kvg:08695-Kaisho-s8" kvg:type="㇑a" d="M52.32,47c1.42,0.55,2.28,2.48,2.56,3.59c0.34,1.31-0.13,31.91-0.28,40.82"/>--> </g> </g> <!--<path id="kvg:08695-Kaisho-s9" kvg:type="㇀" d="M30.36,95.15c0.85,0.68,1.36,1.53,2.21,1.36c0.85-0.17,41.27-8.15,43.81-9"/>--> <!--<path id="kvg:08695-Kaisho-s10" kvg:type="㇔" d="M72.72,82.9c3.74,2.32,9.66,9.55,10.59,13.17"/>--> </g> </g> </g> <g id="kvg:StrokeNumbers_08695-Kaisho" style="font-size:8;fill:#808080">           </g> </svg> 