<?xml version="1.0" encoding="UTF-8"?>  <!DOCTYPE svg PUBLIC "-//W3C//DTD SVG 1.0//EN" "http://www.w3.org/TR/2001/REC-SVG-20010904/DTD/svg10.dtd"  <!ATTLIST g xmlns:kvg CDATA #FIXED "http://kanjivg.tagaini.net" kvg:element CDATA #IMPLIED kvg:variant CDATA #IMPLIED kvg:partial CDATA #IMPLIED kvg:original CDATA #IMPLIED kvg:part CDATA #IMPLIED kvg:number CDATA #IMPLIED kvg:tradForm CDATA #IMPLIED kvg:radicalForm CDATA #IMPLIED kvg:position CDATA #IMPLIED kvg:radical CDATA #IMPLIED kvg:phon CDATA #IMPLIED > <!ATTLIST path xmlns:kvg CDATA #FIXED "http://kanjivg.tagaini.net" kvg:type CDATA #IMPLIED >  <svg xmlns="http://www.w3.org/2000/svg" width="109" height="109" viewBox="0 0 109 109"> <g id="kvg:StrokePaths_088c2-Kaisho" style="fill:none;stroke:#000000;stroke-width:3;stroke-linecap:round;stroke-linejoin:round;"> <g id="kvg:088c2-Kaisho" kvg:element="裂"> <g id="kvg:088c2-Kaisho-g1" kvg:element="列" kvg:position="top"> <g id="kvg:088c2-Kaisho-g2" kvg:element="歹" kvg:position="left"> <g id="kvg:088c2-Kaisho-g3" kvg:element="一"> <!--<path id="kvg:088c2-Kaisho-s1" kvg:type="㇐" d="M17.08,16.66c1.04,0.33,2.94,0.41,3.99,0.33c6.72-0.48,23.27-3.15,30.34-3.31c1.73-0.04,2.77,0.16,3.64,0.33"/>--> </g> <g id="kvg:088c2-Kaisho-g4" kvg:element="夕"> <!--<path id="kvg:088c2-Kaisho-s2" kvg:type="㇒" d="M33.21,17.11c0.21,0.39,0.63,1.56,0.4,2.34c-1.34,4.61-9.52,14.58-20.01,20.78"/>--> <!--<path id="kvg:088c2-Kaisho-s3" kvg:type="㇇" d="M31.47,26.92c0.26,0.03,2.27,0,3.02-0.09c2.45-0.27,8.02-1.88,12.21-2.35c2.47-0.28,2.75,1.34,2.28,2.94C46.21,36.75,30.56,53.67,15.74,59"/>--> <!--<path id="kvg:088c2-Kaisho-s4" kvg:type="㇔" d="M25.1,34.16c2.64,1.43,6.82,5.88,7.48,8.1"/>--> </g> </g> <g id="kvg:088c2-Kaisho-g5" kvg:element="刂" kvg:variant="true" kvg:original="刀" kvg:position="right"> <!--<path id="kvg:088c2-Kaisho-s5" kvg:type="㇑" d="M65.32,17.09c0.84,0.55,1.92,2.17,2.02,4.82c0.46,12.72-0.29,20.68-0.29,25.01"/>--> <!--<path id="kvg:088c2-Kaisho-s6" kvg:type="㇚" d="M86.11,12.08c0.7,0.59,1.59,1.6,1.67,3.56c0.38,9.38-0.74,29.44-0.74,32.63c0,7.19-4.36,0.3-5.79-0.51"/>--> </g> </g> <g id="kvg:088c2-Kaisho-g6" kvg:element="衣" kvg:position="bottom" kvg:radical="general"> <g id="kvg:088c2-Kaisho-g7" kvg:element="亠" kvg:position="top"> <!--<path id="kvg:088c2-Kaisho-s7" kvg:type="㇑a" d="M49.85,47.58c2.79,1.11,6.08,4.62,7.38,7.61"/>--> <!--<path id="kvg:088c2-Kaisho-s8" kvg:type="㇐" d="M21.78,62.84c1.17,0.08,3.85,0.54,4.99,0.45c11.68-0.95,41.12-4.45,53.63-4.69c1.93-0.04,2.92,0.04,4.36,0.58"/>--> </g> <g id="kvg:088c2-Kaisho-g8" kvg:position="bottom"> <!--<path id="kvg:088c2-Kaisho-s9" kvg:type="㇒" d="M44.91,62.35c0.08,0.57,0.33,1.51-0.17,2.28c-3.2,4.95-13.63,13.98-29.67,21.8"/>--> <!--<path id="kvg:088c2-Kaisho-s10" kvg:type="㇙" d="M38.16,76.04c0.39,0.33,0.82,1.65,0.82,2.22c-0.02,7.2-0.27,14.6-0.27,15.82c0,1.22,0.97,1.91,2.21,1c1.24-0.91,11.81-7.21,13.46-8.13"/>--> <!--<path id="kvg:088c2-Kaisho-s11" kvg:type="㇒" d="M80.42,67.1c0.04,0.26,0.37,1.23,0.16,1.57c-1.32,2.11-5.46,5.12-12.2,9.31"/>--> <!--<path id="kvg:088c2-Kaisho-s12" kvg:type="㇏" d="M53.21,68.69c1.7,0.81,4.42,3.09,4.89,3.44c6.95,5.09,23.86,18.09,28.56,21.09c1.77,1.13,3.28,1.62,5.05,1.94"/>--> </g> </g> </g> </g> <g id="kvg:StrokeNumbers_088c2-Kaisho" style="font-size:8;fill:#808080">             </g> </svg> 