<?xml version="1.0" encoding="UTF-8"?>  <!DOCTYPE svg PUBLIC "-//W3C//DTD SVG 1.0//EN" "http://www.w3.org/TR/2001/REC-SVG-20010904/DTD/svg10.dtd"  <!ATTLIST g xmlns:kvg CDATA #FIXED "http://kanjivg.tagaini.net" kvg:element CDATA #IMPLIED kvg:variant CDATA #IMPLIED kvg:partial CDATA #IMPLIED kvg:original CDATA #IMPLIED kvg:part CDATA #IMPLIED kvg:number CDATA #IMPLIED kvg:tradForm CDATA #IMPLIED kvg:radicalForm CDATA #IMPLIED kvg:position CDATA #IMPLIED kvg:radical CDATA #IMPLIED kvg:phon CDATA #IMPLIED > <!ATTLIST path xmlns:kvg CDATA #FIXED "http://kanjivg.tagaini.net" kvg:type CDATA #IMPLIED >  <svg xmlns="http://www.w3.org/2000/svg" width="109" height="109" viewBox="0 0 109 109"> <g id="kvg:StrokePaths_088df-Kaisho" style="fill:none;stroke:#000000;stroke-width:3;stroke-linecap:round;stroke-linejoin:round;"> <g id="kvg:088df-Kaisho" kvg:element="裟"> <g id="kvg:088df-Kaisho-g1" kvg:element="沙" kvg:position="top"> <g id="kvg:088df-Kaisho-g2" kvg:element="氵" kvg:variant="true" kvg:original="水" kvg:position="left"> <!--<path id="kvg:088df-Kaisho-s1" kvg:type="㇔" d="M23.13,10.5c3.48,1.31,9,5.39,9.87,7.43"/>--> <!--<path id="kvg:088df-Kaisho-s2" kvg:type="㇔" d="M17.75,23.51c3.35,1.3,8.66,5.36,9.5,7.38"/>--> <!--<path id="kvg:088df-Kaisho-s3" kvg:type="㇀" d="M19.5,48.48c1.71,1.27,3.78,1.32,4.86-0.25c3.14-4.57,6.29-10.16,9.14-15.99"/>--> </g> <g id="kvg:088df-Kaisho-g3" kvg:element="少" kvg:position="right"> <g id="kvg:088df-Kaisho-g4" kvg:element="小"> <!--<path id="kvg:088df-Kaisho-s4" kvg:type="㇚" d="M64.95,9.5c0.06,0.24,0.86,1.28,0.93,2.83c0.3,7.47-0.19,18.88-0.19,21.43c0,7.22-4.96,1.51-6.06,0.87"/>--> <!--<path id="kvg:088df-Kaisho-s5" kvg:type="㇒" d="M53.92,17.37c0.04,0.42,0.14,1.09-0.08,1.67c-1.61,4.15-8.41,12.16-13.93,15.99"/>--> <!--<path id="kvg:088df-Kaisho-s6" kvg:type="㇔" d="M77.75,16.63c6.37,3.25,14.91,11.62,16.5,16.68"/>--> </g> <g id="kvg:088df-Kaisho-g5" kvg:element="丿"> <!--<path id="kvg:088df-Kaisho-s7" kvg:type="㇒" d="M80.63,26.31c0.12,0.6,0.35,1.57-0.24,2.43c-4.9,7.08-23.75,19.01-42.88,23.76"/>--> </g> </g> </g> <g id="kvg:088df-Kaisho-g6" kvg:element="衣" kvg:position="bottom" kvg:radical="general"> <g id="kvg:088df-Kaisho-g7" kvg:element="亠" kvg:position="top"> <!--<path id="kvg:088df-Kaisho-s8" kvg:type="㇑a" d="M52.77,49.75c2.02,0.77,3.73,2.75,5.35,5.26"/>--> <!--<path id="kvg:088df-Kaisho-s9" kvg:type="㇐" d="M17.56,62.36c1.33,0.09,4.35,0.59,5.64,0.49c14.37-1.04,46.47-5.31,60.62-5.58c2.19-0.04,3.3,0.04,4.93,0.63"/>--> </g> <g id="kvg:088df-Kaisho-g8" kvg:position="bottom"> <!--<path id="kvg:088df-Kaisho-s10" kvg:type="㇒" d="M48.47,62.5c0.1,0.63,0.04,2.31-0.69,3.03C42,71.25,29.5,81.25,13.62,89.28"/>--> <!--<path id="kvg:088df-Kaisho-s11" kvg:type="㇙" d="M40.09,76.1c0.45,0.49,0.93,1.96,0.93,2.8c-0.03,10.63-0.3,15.46-0.3,17.26c0,1.8,1.1,2.82,2.5,1.47s13.35-10.66,15.22-12.01"/>--> <!--<path id="kvg:088df-Kaisho-s12" kvg:type="㇒" d="M76.06,64.57c0.03,0.26,0.3,1.25,0.13,1.59c-1.08,2.13-4.45,5.18-9.95,9.42"/>--> <!--<path id="kvg:088df-Kaisho-s13" kvg:type="㇏" d="M54.83,67.64c1.92,0.11,3.42,1.86,5.25,3.34c7.86,6.35,23.15,18.08,27.71,21c1.72,1.1,3.19,1.57,4.9,1.88"/>--> </g> </g> </g> </g> <g id="kvg:StrokeNumbers_088df-Kaisho" style="font-size:8;fill:#808080">              </g> </svg> 