<?xml version="1.0" encoding="UTF-8"?>  <!DOCTYPE svg PUBLIC "-//W3C//DTD SVG 1.0//EN" "http://www.w3.org/TR/2001/REC-SVG-20010904/DTD/svg10.dtd"  <!ATTLIST g xmlns:kvg CDATA #FIXED "http://kanjivg.tagaini.net" kvg:element CDATA #IMPLIED kvg:variant CDATA #IMPLIED kvg:partial CDATA #IMPLIED kvg:original CDATA #IMPLIED kvg:part CDATA #IMPLIED kvg:number CDATA #IMPLIED kvg:tradForm CDATA #IMPLIED kvg:radicalForm CDATA #IMPLIED kvg:position CDATA #IMPLIED kvg:radical CDATA #IMPLIED kvg:phon CDATA #IMPLIED > <!ATTLIST path xmlns:kvg CDATA #FIXED "http://kanjivg.tagaini.net" kvg:type CDATA #IMPLIED >  <svg xmlns="http://www.w3.org/2000/svg" width="109" height="109" viewBox="0 0 109 109"> <g id="kvg:StrokePaths_0898b-Kaisho" style="fill:none;stroke:#000000;stroke-width:3;stroke-linecap:round;stroke-linejoin:round;"> <g id="kvg:0898b-Kaisho" kvg:element="見" kvg:radical="general"> <g id="kvg:0898b-Kaisho-g1" kvg:element="目" kvg:position="top"> <!--<path id="kvg:0898b-Kaisho-s1" kvg:type="㇑" d="M32.5,15.21c0.58,1.06,1.43,1.85,1.43,3.27c0,1.42-0.69,43.85-0.5,45.27"/>--> <!--<path id="kvg:0898b-Kaisho-s2" kvg:type="㇕a" d="M34.9,16.65c3.29-0.18,28.35-3.44,31.35-3.65c2.5-0.18,4.26,0.76,4.26,3.3c0,3.96-1.16,43.19-1.16,44.25"/>--> <!--<path id="kvg:0898b-Kaisho-s3" kvg:type="㇐a" d="M33.84,31.1c5.93,0,11.98-1.05,17.86-1.69c1.95-0.21,3.9-0.42,5.77-0.62"/>--> <!--<path id="kvg:0898b-Kaisho-s4" kvg:type="㇐a" d="M34.11,44.63c5.67,0,12.4-0.93,18.02-1.56c1.75-0.2,3.52-0.39,5.24-0.57"/>--> <!--<path id="kvg:0898b-Kaisho-s5" kvg:type="㇐a" d="M33.96,59.66c6.54,0,26.03-2.12,34.49-2.12"/>--> </g> <g id="kvg:0898b-Kaisho-g2" kvg:position="bottom"> <!--<path id="kvg:0898b-Kaisho-s6" kvg:type="㇒" d="M41.49,66.5c0.08,0.76,0.17,1.96-0.16,3.04c-1.93,6.42-12.1,21.72-28.16,29.12"/>--> <!--<path id="kvg:0898b-Kaisho-s7" kvg:type="㇟" d="M54.49,60.37c0.74,1.19,1.33,2.59,1.38,4.43c0.2,8.19,0.04,7.2,0.04,19.2s6.23,11.8,18.54,11.53s16.09-1.68,17.45-2.62c2.89-2,2.1-3,2.36-6.5"/>--> </g> </g> </g> <g id="kvg:StrokeNumbers_0898b-Kaisho" style="font-size:8;fill:#808080">        </g> </svg> 