<?xml version="1.0" encoding="UTF-8"?>  <!DOCTYPE svg PUBLIC "-//W3C//DTD SVG 1.0//EN" "http://www.w3.org/TR/2001/REC-SVG-20010904/DTD/svg10.dtd"  <!ATTLIST g xmlns:kvg CDATA #FIXED "http://kanjivg.tagaini.net" kvg:element CDATA #IMPLIED kvg:variant CDATA #IMPLIED kvg:partial CDATA #IMPLIED kvg:original CDATA #IMPLIED kvg:part CDATA #IMPLIED kvg:number CDATA #IMPLIED kvg:tradForm CDATA #IMPLIED kvg:radicalForm CDATA #IMPLIED kvg:position CDATA #IMPLIED kvg:radical CDATA #IMPLIED kvg:phon CDATA #IMPLIED > <!ATTLIST path xmlns:kvg CDATA #FIXED "http://kanjivg.tagaini.net" kvg:type CDATA #IMPLIED >  <svg xmlns="http://www.w3.org/2000/svg" width="109" height="109" viewBox="0 0 109 109"> <g id="kvg:StrokePaths_08983-Kaisho" style="fill:none;stroke:#000000;stroke-width:3;stroke-linecap:round;stroke-linejoin:round;"> <g id="kvg:08983-Kaisho" kvg:element="覃"> <g id="kvg:08983-Kaisho-g1" kvg:element="襾" kvg:position="top" kvg:radical="general"> <g id="kvg:08983-Kaisho-g2" kvg:element="西" kvg:variant="true"> <!--<path id="kvg:08983-Kaisho-s1" kvg:type="㇐" d="M21.64,16.16c1.44,0.45,4.07,0.51,5.52,0.45c12.08-0.57,43.09-3.11,51.29-4.03c2.38-0.27,3.84-0.29,5.04-0.07"/>--> <!--<path id="kvg:08983-Kaisho-s2" kvg:type="㇑" d="M19.5,24.74c0.5,0.84,1.13,1.53,1.24,2.6C21,30,22.5,35.5,22.75,39.75"/>--> <!--<path id="kvg:08983-Kaisho-s3" kvg:type="㇕" d="M20.63,26.72c10.3-1.36,58.32-4.46,63.63-4.92c1.94-0.17,2.83,1.66,2.83,2.68c0,2.76-1.59,8.26-2.27,12.33"/>--> <!--<path id="kvg:08983-Kaisho-s4" kvg:type="㇑" d="M40.05,17.01c0.32,0.25,0.54,1.11,0.58,1.62C41,23,42.02,29.24,42.23,33.98"/>--> <!--<path id="kvg:08983-Kaisho-s5" kvg:type="㇑" d="M62.9,14.08c0.32,0.25,0.46,1.14,0.46,2.28c-0.01,4.56-0.07,9.64-0.07,15.02"/>--> <!--<path id="kvg:08983-Kaisho-s6" kvg:type="㇐" d="M42.26,32.92C46,32.75,60.75,32,64.39,31.52"/>--> </g> </g> <g id="kvg:08983-Kaisho-g3" kvg:element="早" kvg:position="bottom"> <g id="kvg:08983-Kaisho-g4" kvg:element="日" kvg:position="top"> <!--<path id="kvg:08983-Kaisho-s7" kvg:type="㇑" d="M30.6,42.9c0.57,1.07,0.85,1.6,1.51,2.85c0.94,1.78,2.51,18.31,3.42,19.92"/>--> <!--<path id="kvg:08983-Kaisho-s8" kvg:type="㇕a" d="M31.45,44c3.22-0.17,41.28-3.44,44.18-3.02c1.16,0.17,2.26,1.49,1.82,3.19c-0.83,3.19-3.01,14.6-4.52,20.32"/>--> <!--<path id="kvg:08983-Kaisho-s9" kvg:type="㇐a" d="M34.03,53.57c6.68,0,13.46-0.94,20.1-1.49c2.25-0.19,4.5-0.37,6.66-0.55"/>--> <!--<path id="kvg:08983-Kaisho-s10" kvg:type="㇐a" d="M35.47,63.7c6.44,0,33.61-2.13,37.63-2.13"/>--> </g> <g id="kvg:08983-Kaisho-g5" kvg:element="十" kvg:position="bottom"> <!--<path id="kvg:08983-Kaisho-s11" kvg:type="㇐" d="M16.85,77.47c1.51,0.44,4.28,0.56,5.77,0.44c13.03-1.06,50.51-4.33,62.77-4.29c2.51,0.01,4.02,0.21,5.27,0.43"/>--> <!--<path id="kvg:08983-Kaisho-s12" kvg:type="㇑" d="M53.42,65.28c0.33,0.37,1.04,2.75,1.1,3.48c0.07,0.73-0.04,25.66-0.11,30.24"/>--> </g> </g> </g> </g> <g id="kvg:StrokeNumbers_08983-Kaisho" style="font-size:8;fill:#808080">             </g> </svg> 