<?xml version="1.0" encoding="UTF-8"?>  <!DOCTYPE svg PUBLIC "-//W3C//DTD SVG 1.0//EN" "http://www.w3.org/TR/2001/REC-SVG-20010904/DTD/svg10.dtd"  <!ATTLIST g xmlns:kvg CDATA #FIXED "http://kanjivg.tagaini.net" kvg:element CDATA #IMPLIED kvg:variant CDATA #IMPLIED kvg:partial CDATA #IMPLIED kvg:original CDATA #IMPLIED kvg:part CDATA #IMPLIED kvg:number CDATA #IMPLIED kvg:tradForm CDATA #IMPLIED kvg:radicalForm CDATA #IMPLIED kvg:position CDATA #IMPLIED kvg:radical CDATA #IMPLIED kvg:phon CDATA #IMPLIED > <!ATTLIST path xmlns:kvg CDATA #FIXED "http://kanjivg.tagaini.net" kvg:type CDATA #IMPLIED >  <svg xmlns="http://www.w3.org/2000/svg" width="109" height="109" viewBox="0 0 109 109"> <g id="kvg:StrokePaths_08a72-Kaisho" style="fill:none;stroke:#000000;stroke-width:3;stroke-linecap:round;stroke-linejoin:round;"> <g id="kvg:08a72-Kaisho" kvg:element="該"> <g id="kvg:08a72-Kaisho-g1" kvg:element="言" kvg:position="left" kvg:radical="general"> <!--<path id="kvg:08a72-Kaisho-s1" kvg:type="㇔" d="M23.55,13.75c2.52,1.5,6.5,6.17,7.13,8.5"/>--> <!--<path id="kvg:08a72-Kaisho-s2" kvg:type="㇐" d="M12.12,32.58c0.71,0.23,3.4,0.27,4.1,0.23c8.73-0.42,15.28-2.06,22.33-3.37c1.16-0.22,2.95,0.11,3.54,0.23"/>--> <!--<path id="kvg:08a72-Kaisho-s3" kvg:type="㇐" d="M18.18,45.56c0.43,0.12,3.04,0.13,3.47,0.12c4.44-0.14,8.86-1.93,13.34-2.55c0.7-0.1,3.68,0.06,4.04,0.12"/>--> <!--<path id="kvg:08a72-Kaisho-s4" kvg:type="㇐" d="M18.3,58.33c0.38,0.12,2.71,0.13,3.1,0.12c3.97-0.13,10.43-2.11,14.33-2.09c0.63,0,3.29,0.06,3.6,0.11"/>--> <g id="kvg:08a72-Kaisho-g2" kvg:element="口"> <!--<path id="kvg:08a72-Kaisho-s5" kvg:type="㇑" d="M17.01,70.4c0.39,0.36,0.83,1.15,0.96,1.63c1.11,4.21,2.52,12.54,3.64,18.71"/>--> <!--<path id="kvg:08a72-Kaisho-s6" kvg:type="㇕b" d="M18.44,71.87c7.2-0.89,11.9-2.1,18.55-3c1.67-0.22,2.68,1.04,2.44,2.06c-0.99,4.25-1.36,7.72-3.12,14.78"/>--> <!--<path id="kvg:08a72-Kaisho-s7" kvg:type="㇐b" d="M22.42,88.55c5.37-0.54,8.18-1.47,15.56-2.31"/>--> </g> </g> <g id="kvg:08a72-Kaisho-g3" kvg:element="亥" kvg:position="right"> <g id="kvg:08a72-Kaisho-g4" kvg:element="亠" kvg:position="top"> <!--<path id="kvg:08a72-Kaisho-s8" kvg:type="㇑a" d="M64.87,12.74c3.58,2.2,8.31,6.58,9.79,9.96"/>--> <!--<path id="kvg:08a72-Kaisho-s9" kvg:type="㇐" d="M48,30.31c0.9,0.06,2.95,0.44,3.83,0.35c7.06-0.73,31.26-2.91,41.33-3.42c1.48-0.07,2.24,0.03,3.34,0.44"/>--> </g> <!--<path id="kvg:08a72-Kaisho-s10" kvg:type="㇜" d="M67.98,32.37c0.48,1.23,0.23,2.61-0.74,3.97c-3.48,4.91-5.23,6.91-10.3,12.94c-0.74,0.88-0.95,2.83,0,3.07c5.06,1.23,7.1,3.27,11.43,5.52"/>--> <!--<path id="kvg:08a72-Kaisho-s11" kvg:type="㇒" d="M81.52,39.5c0.09,0.81,0.41,2.41-0.18,3.26C73.69,53.88,64.81,63.79,48.5,74"/>--> <g id="kvg:08a72-Kaisho-g5" kvg:element="人" kvg:position="bottom"> <!--<path id="kvg:08a72-Kaisho-s12" kvg:type="㇒" d="M84.99,58.5c0.1,0.88,0.49,2.6-0.21,3.52C75.74,74.02,63.9,87.28,46,95.75"/>--> <!--<path id="kvg:08a72-Kaisho-s13" kvg:type="㇔/㇏" d="M74.02,75.58c6.88,3.29,17.76,13.54,19.48,18.67"/>--> </g> </g> </g> </g> <g id="kvg:StrokeNumbers_08a72-Kaisho" style="font-size:8;fill:#808080">              </g> </svg> 