<?xml version="1.0" encoding="UTF-8"?>  <!DOCTYPE svg PUBLIC "-//W3C//DTD SVG 1.0//EN" "http://www.w3.org/TR/2001/REC-SVG-20010904/DTD/svg10.dtd"  <!ATTLIST g xmlns:kvg CDATA #FIXED "http://kanjivg.tagaini.net" kvg:element CDATA #IMPLIED kvg:variant CDATA #IMPLIED kvg:partial CDATA #IMPLIED kvg:original CDATA #IMPLIED kvg:part CDATA #IMPLIED kvg:number CDATA #IMPLIED kvg:tradForm CDATA #IMPLIED kvg:radicalForm CDATA #IMPLIED kvg:position CDATA #IMPLIED kvg:radical CDATA #IMPLIED kvg:phon CDATA #IMPLIED > <!ATTLIST path xmlns:kvg CDATA #FIXED "http://kanjivg.tagaini.net" kvg:type CDATA #IMPLIED >  <svg xmlns="http://www.w3.org/2000/svg" width="109" height="109" viewBox="0 0 109 109"> <g id="kvg:StrokePaths_08cac-KaishoVtLst" style="fill:none;stroke:#000000;stroke-width:3;stroke-linecap:round;stroke-linejoin:round;"> <g id="kvg:08cac-KaishoVtLst" kvg:element="責"> <g id="kvg:08cac-KaishoVtLst-g1" kvg:position="top"> <!--<path id="kvg:08cac-KaishoVtLst-s1" kvg:type="㇐" d="M29.55,21.38c0.82,0.33,2.33,0.4,3.16,0.33c5.95-0.47,34.67-5.37,39.8-5.88c1.37-0.14,1.94-0.08,2.66-0.02"/>--> <!--<path id="kvg:08cac-KaishoVtLst-s2" kvg:type="㇐" d="M31.59,31.43c0.83,0.24,2.33,0.29,3.16,0.24c5.94-0.35,31.66-5.02,36.79-5.39c1.37-0.1,2.38-0.05,3.1-0.01"/>--> <!--<path id="kvg:08cac-KaishoVtLst-s3" kvg:type="㇐" d="M16.63,42.8c1.29,0.26,3.65,0.39,4.93,0.26c11.94-1.17,53.19-6.81,65.15-7.45c2.13-0.11,3.79-0.36,5.29-0.08"/>--> <!--<path id="kvg:08cac-KaishoVtLst-s4" kvg:type="㇑" d="M51.67,8.88c0.67,0.22,2.21,2.14,2.21,2.6c0,6.27,0.31,20.75,0.37,27.79"/>--> </g> <g id="kvg:08cac-KaishoVtLst-g2" kvg:element="貝" kvg:position="bottom" kvg:radical="general"> <g id="kvg:08cac-KaishoVtLst-g3" kvg:element="目" kvg:position="top"> <!--<path id="kvg:08cac-KaishoVtLst-s5" kvg:type="㇑" d="M37.47,50.8c0.53,0.73,1.3,1.26,1.3,2.27c0,1-0.35,27.68-0.35,28.18c0,0.5,0.18,0.5,0.35,1.49"/>--> <!--<path id="kvg:08cac-KaishoVtLst-s6" kvg:type="㇕a" d="M39.65,51.52c2.99-0.26,25.74-3.85,28.46-4.12c2.27-0.23,3.86,1.01,3.86,1.97c0,6.39-0.89,18.02-0.88,29.08c0,1.14-0.18,1.64-0.18,2.4"/>--> <!--<path id="kvg:08cac-KaishoVtLst-s7" kvg:type="㇐a" d="M39.6,61.15c4.96-0.22,9.93-1.06,14.85-1.67c1.6-0.2,3.2-0.39,4.74-0.58"/>--> <!--<path id="kvg:08cac-KaishoVtLst-s8" kvg:type="㇐a" d="M39.84,70.89c4.96-0.22,9.92-1.01,14.84-1.62c1.51-0.19,3.04-0.38,4.54-0.55"/>--> <!--<path id="kvg:08cac-KaishoVtLst-s9" kvg:type="㇐a" d="M40.61,81.53c5.93-0.26,20.14-2.28,29.5-3.29"/>--> </g> <g id="kvg:08cac-KaishoVtLst-g4" kvg:position="bottom"> <!--<path id="kvg:08cac-KaishoVtLst-s10" kvg:type="㇒" d="M43.44,85.47c0.43,1.07,0.84,1.36,0,2.14c-2.55,2.35-10.42,8.11-15.52,10.89"/>--> <!--<path id="kvg:08cac-KaishoVtLst-s11" kvg:type="㇔" d="M66.92,87.38c7.09,3.04,15.47,8.55,17.41,11.21"/>--> </g> </g> </g> </g> <g id="kvg:StrokeNumbers_08cac-KaishoVtLst" style="font-size:8;fill:#808080">            </g> </svg> 