<?xml version="1.0" encoding="UTF-8"?>  <!DOCTYPE svg PUBLIC "-//W3C//DTD SVG 1.0//EN" "http://www.w3.org/TR/2001/REC-SVG-20010904/DTD/svg10.dtd"  <!ATTLIST g xmlns:kvg CDATA #FIXED "http://kanjivg.tagaini.net" kvg:element CDATA #IMPLIED kvg:variant CDATA #IMPLIED kvg:partial CDATA #IMPLIED kvg:original CDATA #IMPLIED kvg:part CDATA #IMPLIED kvg:number CDATA #IMPLIED kvg:tradForm CDATA #IMPLIED kvg:radicalForm CDATA #IMPLIED kvg:position CDATA #IMPLIED kvg:radical CDATA #IMPLIED kvg:phon CDATA #IMPLIED > <!ATTLIST path xmlns:kvg CDATA #FIXED "http://kanjivg.tagaini.net" kvg:type CDATA #IMPLIED >  <svg xmlns="http://www.w3.org/2000/svg" width="109" height="109" viewBox="0 0 109 109"> <g id="kvg:StrokePaths_08ca2-Kaisho" style="fill:none;stroke:#000000;stroke-width:3;stroke-linecap:round;stroke-linejoin:round;"> <g id="kvg:08ca2-Kaisho" kvg:element="貢"> <g id="kvg:08ca2-Kaisho-g1" kvg:element="工" kvg:position="top" kvg:radical="nelson"> <!--<path id="kvg:08ca2-Kaisho-s1" kvg:type="㇐" d="M34.5,16.91c0.78,0.43,3.33,0.56,4.12,0.44c3.68-0.58,26.9-2.91,33.08-3.36c1.21-0.09,2.3,0.09,3.3,0.44"/>--> <!--<path id="kvg:08ca2-Kaisho-s2" kvg:type="㇑a" d="M52.46,16.5c1.58,1.98,1.58,3.16,1.58,4.74c0,4.01-0.05,5.01-0.05,10.26"/>--> <!--<path id="kvg:08ca2-Kaisho-s3" kvg:type="㇐" d="M15,35.05c0.92,0.32,5.2,0.65,6.75,0.51c16.75-1.55,49-5.3,65.75-6.28c2.5-0.15,7,0.53,8.25,1.03"/>--> </g> <g id="kvg:08ca2-Kaisho-g2" kvg:element="貝" kvg:position="bottom" kvg:radical="tradit"> <g id="kvg:08ca2-Kaisho-g3" kvg:element="目" kvg:position="top"> <!--<path id="kvg:08ca2-Kaisho-s4" kvg:type="㇑" d="M33.64,42.94c0.65,0.82,1.61,2.93,1.61,4.03s0,28.51,0,32.78"/>--> <!--<path id="kvg:08ca2-Kaisho-s5" kvg:type="㇕a" d="M35.34,44.77c3.71-0.14,32.96-3.89,36.33-4.05c2.81-0.14,3.8,0.78,3.8,3.78c0,4.75-0.31,31.88-0.31,32.7"/>--> <!--<path id="kvg:08ca2-Kaisho-s6" kvg:type="㇐a" d="M36.27,54.83c6.46-0.58,12.92-1.24,19.38-1.83c2.01-0.18,4.01-0.36,5.94-0.53"/>--> <!--<path id="kvg:08ca2-Kaisho-s7" kvg:type="㇐a" d="M35.58,65.4c6.45-0.7,13.9-1.42,20.36-2.07c1.76-0.18,3.53-0.35,5.27-0.51"/>--> <!--<path id="kvg:08ca2-Kaisho-s8" kvg:type="㇐a" d="M35.53,76.52c8.97-0.52,30.08-2.64,39.62-2.64"/>--> </g> <g id="kvg:08ca2-Kaisho-g4" kvg:position="bottom"> <!--<path id="kvg:08ca2-Kaisho-s9" kvg:type="㇒" d="M39.94,82.79c0.5,1.23-0.01,2.56-1,3.46c-2.99,2.7-11.21,8.33-17.19,11.52"/>--> <!--<path id="kvg:08ca2-Kaisho-s10" kvg:type="㇔" d="M66.08,82.72c7.2,3.29,15.71,9.25,17.67,12.12"/>--> </g> </g> </g> </g> <g id="kvg:StrokeNumbers_08ca2-Kaisho" style="font-size:8;fill:#808080">           </g> </svg> 