<?xml version="1.0" encoding="UTF-8"?>  <!DOCTYPE svg PUBLIC "-//W3C//DTD SVG 1.0//EN" "http://www.w3.org/TR/2001/REC-SVG-20010904/DTD/svg10.dtd"  <!ATTLIST g xmlns:kvg CDATA #FIXED "http://kanjivg.tagaini.net" kvg:element CDATA #IMPLIED kvg:variant CDATA #IMPLIED kvg:partial CDATA #IMPLIED kvg:original CDATA #IMPLIED kvg:part CDATA #IMPLIED kvg:number CDATA #IMPLIED kvg:tradForm CDATA #IMPLIED kvg:radicalForm CDATA #IMPLIED kvg:position CDATA #IMPLIED kvg:radical CDATA #IMPLIED kvg:phon CDATA #IMPLIED > <!ATTLIST path xmlns:kvg CDATA #FIXED "http://kanjivg.tagaini.net" kvg:type CDATA #IMPLIED >  <svg xmlns="http://www.w3.org/2000/svg" width="109" height="109" viewBox="0 0 109 109"> <g id="kvg:StrokePaths_08cd3-Kaisho" style="fill:none;stroke:#000000;stroke-width:3;stroke-linecap:round;stroke-linejoin:round;"> <g id="kvg:08cd3-Kaisho" kvg:element="賓"> <g id="kvg:08cd3-Kaisho-g1" kvg:position="top"> <g id="kvg:08cd3-Kaisho-g2" kvg:element="宀" kvg:radical="nelson"> <!--<path id="kvg:08cd3-Kaisho-s1" kvg:type="㇑a" d="M52.93,9.05C55,10.5,57.25,13,58.35,15.51"/>--> <g id="kvg:08cd3-Kaisho-g3" kvg:element="冖"> <!--<path id="kvg:08cd3-Kaisho-s2" kvg:type="㇔" d="M26.03,21.29c0,2.98-3.1,12.17-4.28,14.16"/>--> <!--<path id="kvg:08cd3-Kaisho-s3" kvg:type="㇖b" d="M27.1,23.24c8.14-0.85,51.59-3.88,58.2-4.2c10.33-0.5,2.19,6.14-0.38,7.95"/>--> </g> </g> <!--<path id="kvg:08cd3-Kaisho-s4" kvg:type="㇐" d="M34.25,30.89c0.94,0.38,2.66,0.42,3.6,0.38c6.4-0.27,28.9-3.02,34.11-3.38c1.56-0.11,2.5,0.18,3.29,0.37"/>--> <g id="kvg:08cd3-Kaisho-g4" kvg:element="少"> <g id="kvg:08cd3-Kaisho-g5" kvg:element="小"> <!--<path id="kvg:08cd3-Kaisho-s5" kvg:type="㇚" d="M54.26,31.75c0.05,0.21,0.73,1.07,0.78,2.38c0.25,6.26-0.16,5.71-0.16,7.85c0,6.06-4.47,0.65-5.4,0.11"/>--> <!--<path id="kvg:08cd3-Kaisho-s6" kvg:type="㇒" d="M36.67,38.67c0.04,0.27,0.16,0.7-0.09,1.06c-1.75,2.65-9.15,7.75-15.17,10.2"/>--> <!--<path id="kvg:08cd3-Kaisho-s7" kvg:type="㇔" d="M71.5,35.75c4.05,1.38,9.49,4.94,10.5,7.09"/>--> </g> <g id="kvg:08cd3-Kaisho-g6" kvg:element="丿"> <!--<path id="kvg:08cd3-Kaisho-s8" kvg:type="㇒" d="M63.86,37.33c0.13,0.65,0.02,2.28-0.77,3.09C56,47.75,38.25,57.5,16,64.75"/>--> </g> </g> </g> <g id="kvg:08cd3-Kaisho-g7" kvg:element="貝" kvg:position="bottom" kvg:radical="tradit"> <g id="kvg:08cd3-Kaisho-g8" kvg:element="目" kvg:position="top"> <!--<path id="kvg:08cd3-Kaisho-s9" kvg:type="㇑" d="M38.75,52.59c1,1.16,1.51,1.98,1.51,3.87c0,4.29-0.45,19.04-0.45,31.44"/>--> <!--<path id="kvg:08cd3-Kaisho-s10" kvg:type="㇕a" d="M41.29,54.73c3.48-0.24,29.97-3.76,33.14-4.05c2.64-0.24,4.05,1.3,4.05,3.07c0,4.32-0.78,31.25-0.78,32.67"/>--> <!--<path id="kvg:08cd3-Kaisho-s11" kvg:type="㇐a" d="M40.33,64.42c6.33-0.36,12.66-0.93,18.99-1.41c1.95-0.15,3.9-0.29,5.76-0.43"/>--> <!--<path id="kvg:08cd3-Kaisho-s12" kvg:type="㇐a" d="M40.61,75.3c6.1-0.43,13.19-0.91,19.29-1.32c1.68-0.11,3.37-0.22,5.04-0.32"/>--> <!--<path id="kvg:08cd3-Kaisho-s13" kvg:type="㇐a" d="M40.16,85.75c9.81-0.51,28.54-1.88,37.48-1.88"/>--> </g> <g id="kvg:08cd3-Kaisho-g9" kvg:position="bottom"> <!--<path id="kvg:08cd3-Kaisho-s14" kvg:type="㇒" d="M46.9,88.49c0.49,0.99,0.97,1.26,0,1.98c-2.94,2.18-12.02,7.52-17.9,10.1"/>--> <!--<path id="kvg:08cd3-Kaisho-s15" kvg:type="㇔" d="M67.52,90.39c6.82,2.58,14.87,7.25,16.73,9.5"/>--> </g> </g> </g> </g> <g id="kvg:StrokeNumbers_08cd3-Kaisho" style="font-size:8;fill:#808080">                </g> </svg> 