<?xml version="1.0" encoding="UTF-8"?>  <!DOCTYPE svg PUBLIC "-//W3C//DTD SVG 1.0//EN" "http://www.w3.org/TR/2001/REC-SVG-20010904/DTD/svg10.dtd"  <!ATTLIST g xmlns:kvg CDATA #FIXED "http://kanjivg.tagaini.net" kvg:element CDATA #IMPLIED kvg:variant CDATA #IMPLIED kvg:partial CDATA #IMPLIED kvg:original CDATA #IMPLIED kvg:part CDATA #IMPLIED kvg:number CDATA #IMPLIED kvg:tradForm CDATA #IMPLIED kvg:radicalForm CDATA #IMPLIED kvg:position CDATA #IMPLIED kvg:radical CDATA #IMPLIED kvg:phon CDATA #IMPLIED > <!ATTLIST path xmlns:kvg CDATA #FIXED "http://kanjivg.tagaini.net" kvg:type CDATA #IMPLIED >  <svg xmlns="http://www.w3.org/2000/svg" width="109" height="109" viewBox="0 0 109 109"> <g id="kvg:StrokePaths_08ce6-KaishoHzFst" style="fill:none;stroke:#000000;stroke-width:3;stroke-linecap:round;stroke-linejoin:round;"> <g id="kvg:08ce6-KaishoHzFst" kvg:element="賦"> <g id="kvg:08ce6-KaishoHzFst-g1" kvg:element="貝" kvg:position="left" kvg:radical="general"> <g id="kvg:08ce6-KaishoHzFst-g2" kvg:element="目" kvg:position="top"> <!--<path id="kvg:08ce6-KaishoHzFst-s1" kvg:type="㇑" d="M14.49,25.56c0.33,1.11,0.81,1.94,0.81,3.43c0,1.49-0.11,44.9,0,46.38"/>--> <!--<path id="kvg:08ce6-KaishoHzFst-s2" kvg:type="㇕a" d="M15.85,27.03c1.86-0.19,16.05-2.56,17.75-2.79c1.41-0.19,2.53,1.04,2.41,2.42c-0.15,1.75-0.66,44.83-0.66,45.94"/>--> <!--<path id="kvg:08ce6-KaishoHzFst-s3" kvg:type="㇐a" d="M15.82,42.23c3.06,0,6.25-0.78,9.26-1.26c1-0.16,2-0.31,2.96-0.46"/>--> <!--<path id="kvg:08ce6-KaishoHzFst-s4" kvg:type="㇐a" d="M15.97,55.9c2.93,0,6.91-0.66,9.79-1.11c0.88-0.14,1.78-0.28,2.66-0.41"/>--> <!--<path id="kvg:08ce6-KaishoHzFst-s5" kvg:type="㇐a" d="M16.45,72.67c3.7,0,13.6-2.23,18.39-2.23"/>--> </g> <g id="kvg:08ce6-KaishoHzFst-g3" kvg:position="bottom"> <!--<path id="kvg:08ce6-KaishoHzFst-s6" kvg:type="㇒" d="M20.53,81.2c0.29,1.34,0.58,1.7,0,2.67c-1.76,2.94-7.18,10.16-10.69,13.63"/>--> <!--<path id="kvg:08ce6-KaishoHzFst-s7" kvg:type="㇔" d="M28.92,78.17c3.05,2.98,6.66,8.38,7.49,10.99"/>--> </g> </g> <g id="kvg:08ce6-KaishoHzFst-g4" kvg:element="武" kvg:position="right"> <g id="kvg:08ce6-KaishoHzFst-g5" kvg:element="一"> <!--<path id="kvg:08ce6-KaishoHzFst-s8" kvg:type="㇐" d="M44.12,29.39c0.71,0.38,2,0.48,2.7,0.38c3.86-0.52,11.01-2.91,13.8-3.02c1.17-0.05,0.39-0.03,1.14-0.02"/>--> </g> <g id="kvg:08ce6-KaishoHzFst-g6" kvg:element="弋" kvg:part="1"> <!--<path id="kvg:08ce6-KaishoHzFst-s9" kvg:type="㇐" d="M42.25,42.7c1.14,0.54,3.74,0.8,4.87,0.54c4.61-1.05,29.51-5.99,42.21-7.23c1.89-0.18,3.04,0.26,3.99,0.53"/>--> </g> <g id="kvg:08ce6-KaishoHzFst-g7" kvg:element="止"> <g id="kvg:08ce6-KaishoHzFst-g8" kvg:element="卜" kvg:original="ト"> <!--<path id="kvg:08ce6-KaishoHzFst-s10" kvg:type="㇐" d="M56.98,62.82c3.96-0.56,5-1.38,9.17-1.75c0.97-0.09,1.21-0.19,1.82,0"/>--> <!--<path id="kvg:08ce6-KaishoHzFst-s11" kvg:type="㇑" d="M55.58,49.93c0.61,0.37,0.97,1.67,1.09,2.41c0.16,0.96,0.36,24.73,0.24,29.41"/>--> </g> <!--<path id="kvg:08ce6-KaishoHzFst-s12" kvg:type="㇑" d="M45.63,62.59c0.61,0.37,0.97,1.67,1.09,2.41c0.12,0.74,0,18.31-0.12,22.95"/>--> <!--<path id="kvg:08ce6-KaishoHzFst-s13" kvg:type="㇐" d="M43.12,87.96c0.42,0.79,2.31,0.98,3.37,0.45c9.94-4.9,10.31-5.82,23.26-12.53"/>--> </g> <g id="kvg:08ce6-KaishoHzFst-g9" kvg:element="弋" kvg:part="2"> <!--<path id="kvg:08ce6-KaishoHzFst-s14" kvg:type="㇂" d="M69,11.5c1.16,1.84,1.81,2.34,1.89,6.31c0.58,28.42,7.22,64.72,21.74,78.32c4.92,4.61,4.42,0.79,3.84-7.36"/>--> <g id="kvg:08ce6-KaishoHzFst-g10" kvg:element="丶"> <!--<path id="kvg:08ce6-KaishoHzFst-s15" kvg:type="㇔" d="M82.31,17c2.69,1.85,6.99,6.08,8.25,9.25"/>--> </g> </g> </g> </g> </g> <g id="kvg:StrokeNumbers_08ce6-KaishoHzFst" style="font-size:8;fill:#808080">                </g> </svg> 