<?xml version="1.0" encoding="UTF-8"?>  <!DOCTYPE svg PUBLIC "-//W3C//DTD SVG 1.0//EN" "http://www.w3.org/TR/2001/REC-SVG-20010904/DTD/svg10.dtd"  <!ATTLIST g xmlns:kvg CDATA #FIXED "http://kanjivg.tagaini.net" kvg:element CDATA #IMPLIED kvg:variant CDATA #IMPLIED kvg:partial CDATA #IMPLIED kvg:original CDATA #IMPLIED kvg:part CDATA #IMPLIED kvg:number CDATA #IMPLIED kvg:tradForm CDATA #IMPLIED kvg:radicalForm CDATA #IMPLIED kvg:position CDATA #IMPLIED kvg:radical CDATA #IMPLIED kvg:phon CDATA #IMPLIED > <!ATTLIST path xmlns:kvg CDATA #FIXED "http://kanjivg.tagaini.net" kvg:type CDATA #IMPLIED >  <svg xmlns="http://www.w3.org/2000/svg" width="109" height="109" viewBox="0 0 109 109"> <g id="kvg:StrokePaths_08cea-Kaisho" style="fill:none;stroke:#000000;stroke-width:3;stroke-linecap:round;stroke-linejoin:round;"> <g id="kvg:08cea-Kaisho" kvg:element="質"> <g id="kvg:08cea-Kaisho-g1" kvg:position="top"> <g id="kvg:08cea-Kaisho-g2" kvg:element="斤" kvg:position="left"> <!--<path id="kvg:08cea-Kaisho-s1" kvg:type="㇒" d="M43.3,12.09c-0.05,1.04-0.57,1.92-1.2,2.53c-3,2.89-6.23,4.88-13.9,7.93"/>--> <!--<path id="kvg:08cea-Kaisho-s2" kvg:type="㇒" d="M26.21,21.87c0.8,0.88,1.29,2.21,1.29,3.16c0.01,15.46-2.62,20.34-8.18,25.21"/>--> <!--<path id="kvg:08cea-Kaisho-s3" kvg:type="㇐" d="M29.47,29.88c0.83-0.03,2.06-0.15,3.53-0.34c4.46-0.57,11.15-1.69,15.77-2.27c1.26-0.16,2.37-0.27,3.24-0.32"/>--> <!--<path id="kvg:08cea-Kaisho-s4" kvg:type="㇑" d="M39.66,28.8c0.73,0.73,1.22,2.31,1.22,3.3c0,0.79-0.12,2.42-0.08,10.4c0.01,2.12,0.04,3.54,0.08,3.75"/>--> </g> <g id="kvg:08cea-Kaisho-g3" kvg:element="斤" kvg:position="right"> <!--<path id="kvg:08cea-Kaisho-s5" kvg:type="㇒" d="M77.05,11.34c0.14,0.93-0.08,1.75-0.79,2.42c-3.76,3.49-6.88,5.99-13.3,8.79"/>--> <!--<path id="kvg:08cea-Kaisho-s6" kvg:type="㇒" d="M60.83,21.87c0.57,0.73,0.89,1.84,0.91,2.64C62,33.62,61.62,40,56.31,45.74"/>--> <!--<path id="kvg:08cea-Kaisho-s7" kvg:type="㇐" d="M63.72,28.13c0.65-0.02,1.71-0.12,3.04-0.26c5.56-0.61,15.93-2.13,21.98-2.83c1.47-0.17,2.68-0.29,3.51-0.34"/>--> <!--<path id="kvg:08cea-Kaisho-s8" kvg:type="㇑" d="M76.5,26.88c0.73,0.73,1.22,2.31,1.22,3.3c0,0.79-0.12,2.42-0.08,10.4c0.01,2.12,0.04,3.54,0.08,3.75"/>--> </g> </g> <g id="kvg:08cea-Kaisho-g4" kvg:element="貝" kvg:position="bottom" kvg:radical="general"> <g id="kvg:08cea-Kaisho-g5" kvg:element="目" kvg:position="top"> <!--<path id="kvg:08cea-Kaisho-s9" kvg:type="㇑" d="M34.87,52.3c0.6,0.75,1.47,1.81,1.47,2.8c0,0.73-0.11,16.18-0.09,24.77c0.01,3.13,0.03,5.36,0.09,5.62"/>--> <!--<path id="kvg:08cea-Kaisho-s10" kvg:type="㇕a" d="M37.33,53.11c3.38-0.12,29.1-2.72,32.18-2.87c2.56-0.12,4.49,0.01,4.37,3.12c-0.12,3.02-0.28,14.7-0.26,23.52c0.01,2.54,0.03,4.84,0.07,6.63"/>--> <!--<path id="kvg:08cea-Kaisho-s11" kvg:type="㇐a" d="M36.28,63.13c5.98-0.47,11.97-0.86,17.95-1.26c1.76-0.12,3.52-0.24,5.25-0.35"/>--> <!--<path id="kvg:08cea-Kaisho-s12" kvg:type="㇐a" d="M37.05,72.8c5.63-0.34,11.75-0.77,17.38-1.19c1.56-0.12,3.13-0.24,4.69-0.35"/>--> <!--<path id="kvg:08cea-Kaisho-s13" kvg:type="㇐a" d="M36.42,83.38c9.08-0.88,24.83-2.13,35.85-2.5"/>--> </g> <g id="kvg:08cea-Kaisho-g6" kvg:position="bottom"> <!--<path id="kvg:08cea-Kaisho-s14" kvg:type="㇒" d="M40.48,88c0.51,0.98,1.02,1.25,0,1.97c-3.08,2.16-12.58,7.48-18.73,10.03"/>--> <!--<path id="kvg:08cea-Kaisho-s15" kvg:type="㇔" d="M66.5,87.5c7.74,2.98,16.89,8.39,19,11"/>--> </g> </g> </g> </g> <g id="kvg:StrokeNumbers_08cea-Kaisho" style="font-size:8;fill:#808080">                </g> </svg> 