<?xml version="1.0" encoding="UTF-8"?>  <!DOCTYPE svg PUBLIC "-//W3C//DTD SVG 1.0//EN" "http://www.w3.org/TR/2001/REC-SVG-20010904/DTD/svg10.dtd"  <!ATTLIST g xmlns:kvg CDATA #FIXED "http://kanjivg.tagaini.net" kvg:element CDATA #IMPLIED kvg:variant CDATA #IMPLIED kvg:partial CDATA #IMPLIED kvg:original CDATA #IMPLIED kvg:part CDATA #IMPLIED kvg:number CDATA #IMPLIED kvg:tradForm CDATA #IMPLIED kvg:radicalForm CDATA #IMPLIED kvg:position CDATA #IMPLIED kvg:radical CDATA #IMPLIED kvg:phon CDATA #IMPLIED > <!ATTLIST path xmlns:kvg CDATA #FIXED "http://kanjivg.tagaini.net" kvg:type CDATA #IMPLIED >  <svg xmlns="http://www.w3.org/2000/svg" width="109" height="109" viewBox="0 0 109 109"> <g id="kvg:StrokePaths_08e09-Kaisho" style="fill:none;stroke:#000000;stroke-width:3;stroke-linecap:round;stroke-linejoin:round;"> <g id="kvg:08e09-Kaisho" kvg:element="踉"> <g id="kvg:08e09-Kaisho-g1" kvg:element="足" kvg:position="left" kvg:radical="general"> <g id="kvg:08e09-Kaisho-g2" kvg:element="口"> <!--<path id="kvg:08e09-Kaisho-s1" kvg:type="㇑" d="M13.78,21.71c0.37,0.32,0.75,0.58,0.91,0.97c1.28,3.13,2.35,15.2,3.23,20.82"/>--> <!--<path id="kvg:08e09-Kaisho-s2" kvg:type="㇕b" d="M15.61,23.4c8.76-1.68,18.29-3,22.63-3.41c1.58-0.15,2.54,0.89,2.31,1.77c-1.04,4.06-2.15,12.35-3.43,17"/>--> <!--<path id="kvg:08e09-Kaisho-s3" kvg:type="㇐b" d="M18.56,41.19c5.09-0.46,13.15-0.84,20.14-1.55"/>--> </g> <!--<path id="kvg:08e09-Kaisho-s4" kvg:type="㇑a" d="M26.87,42.24c1.09,0.5,1.96,2.23,1.96,3.25c0,5.51,0.28,28.01,0.28,38"/>--> <!--<path id="kvg:08e09-Kaisho-s5" kvg:type="㇐b" d="M29.38,58.74c3.37-0.49,7.87-1.74,11.35-2c1.74-0.13,2.18-0.25,3.26,0"/>--> <!--<path id="kvg:08e09-Kaisho-s6" kvg:type="㇒" d="M16.37,54.49c1.09,0.5,1.74,2.25,1.96,3.25c0.22,1,0.42,20.01,0.42,31.76"/>--> <!--<path id="kvg:08e09-Kaisho-s7" kvg:type="㇀/㇏" d="M12,90.57c0.35,0.8,2.99,1.85,3.86,1.4c8.56-4.47,16.94-9.47,26.39-14.48"/>--> </g> <g id="kvg:08e09-Kaisho-g3" kvg:element="良" kvg:position="right"> <!--<path id="kvg:08e09-Kaisho-s8" kvg:type="㇑a" d="M65.39,9.75c2.61,2,5.36,5.5,6.95,9.78"/>--> <g id="kvg:08e09-Kaisho-g4" kvg:element="艮"> <!--<path id="kvg:08e09-Kaisho-s9" kvg:type="㇕" d="M52,25.75c0.61,0.25,2.16,0.45,4.24,0.31c11.51-0.81,26.15-2.97,27.81-3.08c1.74-0.11,2.75,1.25,2.73,1.93c-0.12,4.83-2.01,23.8-3.01,27.13"/>--> <!--<path id="kvg:08e09-Kaisho-s10" kvg:type="㇐a" d="M54.98,39.94c4.8-0.45,9.59-1.04,14.38-1.59c1.43-0.16,3.87-0.33,5.25-0.48"/>--> <!--<path id="kvg:08e09-Kaisho-s11" kvg:type="㇐a" d="M55.09,52.42c7.91-0.87,18.29-2.12,26.88-2.95"/>--> <!--<path id="kvg:08e09-Kaisho-s12" kvg:type="㇙" d="M54.51,26.23c0.24,1.27,0.09,2.39,0.35,3.45c0.26,1.06,0.55,59.38,0.26,62.02c-0.26,2.39-0.13,4.92,2.99,2.73c6.64-4.68,8.39-5.93,14.84-10.3"/>--> <!--<path id="kvg:08e09-Kaisho-s13" kvg:type="㇒" d="M89.19,57.05c0.3,1.43,0.5,2-0.54,3.15c-2.01,2.23-8.07,7.4-10.82,9.41"/>--> <!--<path id="kvg:08e09-Kaisho-s14" kvg:type="㇏" d="M61.88,57.23c5.08,4.13,18.49,23.42,26.21,30.46c4.12,3.75,6.21,4.74,8.47,5.45"/>--> </g> </g> </g> </g> <g id="kvg:StrokeNumbers_08e09-Kaisho" style="font-size:8;fill:#808080">               </g> </svg> 