<?xml version="1.0" encoding="UTF-8"?>  <!DOCTYPE svg PUBLIC "-//W3C//DTD SVG 1.0//EN" "http://www.w3.org/TR/2001/REC-SVG-20010904/DTD/svg10.dtd"  <!ATTLIST g xmlns:kvg CDATA #FIXED "http://kanjivg.tagaini.net" kvg:element CDATA #IMPLIED kvg:variant CDATA #IMPLIED kvg:partial CDATA #IMPLIED kvg:original CDATA #IMPLIED kvg:part CDATA #IMPLIED kvg:number CDATA #IMPLIED kvg:tradForm CDATA #IMPLIED kvg:radicalForm CDATA #IMPLIED kvg:position CDATA #IMPLIED kvg:radical CDATA #IMPLIED kvg:phon CDATA #IMPLIED > <!ATTLIST path xmlns:kvg CDATA #FIXED "http://kanjivg.tagaini.net" kvg:type CDATA #IMPLIED >  <svg xmlns="http://www.w3.org/2000/svg" width="109" height="109" viewBox="0 0 109 109"> <g id="kvg:StrokePaths_08eab-Kaisho" style="fill:none;stroke:#000000;stroke-width:3;stroke-linecap:round;stroke-linejoin:round;"> <g id="kvg:08eab-Kaisho" kvg:element="身" kvg:radical="general"> <!--<path id="kvg:08eab-Kaisho-s1" kvg:type="㇒" d="M52.53,9.14c0.03,0.34,0.55,1.89,0.45,2.38c-0.61,2.91-4.62,8.29-9.42,12.19"/>--> <!--<path id="kvg:08eab-Kaisho-s2" kvg:type="㇑a" d="M34.37,24.25c1.09,0.5,1.74,2.25,1.96,3.25c0.22,1,0.5,30.75,0.28,37"/>--> <!--<path id="kvg:08eab-Kaisho-s3" kvg:type="㇆a" d="M37.07,25.84c5.22-0.84,25.7-3.92,29.96-4.36C71.75,21,71.5,22.5,71.5,28.5c0,12.39-0.66,53.56-0.66,64.68c0,10.33-7.72,1.06-8.61,0.32"/>--> <!--<path id="kvg:08eab-Kaisho-s4" kvg:type="㇐a" d="M37.5,37.25c5.87-0.78,11.75-1.54,17.62-2.28c1.67-0.21,3.31-0.42,4.86-0.61"/>--> <!--<path id="kvg:08eab-Kaisho-s5" kvg:type="㇐a" d="M38.25,49.75c5.31-0.79,10.62-1.64,15.93-2.41c1.56-0.23,3.12-0.45,4.63-0.65"/>--> <!--<path id="kvg:08eab-Kaisho-s6" kvg:type="㇀" d="M16.5,66.75c1.75,2.75,4,3.5,10,1.75c9.41-2.75,38-11,43-13"/>--> <!--<path id="kvg:08eab-Kaisho-s7" kvg:type="㇒" d="M89.25,37.25c0.5,1.25,1.37,3.44,0,5.5C79.75,57,46.5,82,26.25,89.25"/>--> </g> </g> <g id="kvg:StrokeNumbers_08eab-Kaisho" style="font-size:8;fill:#808080">        </g> </svg> 