<?xml version="1.0" encoding="UTF-8"?>  <!DOCTYPE svg PUBLIC "-//W3C//DTD SVG 1.0//EN" "http://www.w3.org/TR/2001/REC-SVG-20010904/DTD/svg10.dtd"  <!ATTLIST g xmlns:kvg CDATA #FIXED "http://kanjivg.tagaini.net" kvg:element CDATA #IMPLIED kvg:variant CDATA #IMPLIED kvg:partial CDATA #IMPLIED kvg:original CDATA #IMPLIED kvg:part CDATA #IMPLIED kvg:number CDATA #IMPLIED kvg:tradForm CDATA #IMPLIED kvg:radicalForm CDATA #IMPLIED kvg:position CDATA #IMPLIED kvg:radical CDATA #IMPLIED kvg:phon CDATA #IMPLIED > <!ATTLIST path xmlns:kvg CDATA #FIXED "http://kanjivg.tagaini.net" kvg:type CDATA #IMPLIED >  <svg xmlns="http://www.w3.org/2000/svg" width="109" height="109" viewBox="0 0 109 109"> <g id="kvg:StrokePaths_08ecd-Kaisho" style="fill:none;stroke:#000000;stroke-width:3;stroke-linecap:round;stroke-linejoin:round;"> <g id="kvg:08ecd-Kaisho" kvg:element="軍"> <g id="kvg:08ecd-Kaisho-g1" kvg:element="冖" kvg:position="top" kvg:radical="nelson"> <!--<path id="kvg:08ecd-Kaisho-s1" kvg:type="㇔" d="M23.29,17.72c-0.14,4.1-3.57,14.84-4.79,17.28"/>--> <!--<path id="kvg:08ecd-Kaisho-s2" kvg:type="㇖b" d="M25.33,18.83c7.92-0.83,42.09-4.42,57.76-5.08c11.91-0.5,1.85,8.82,0.38,10.22"/>--> </g> <g id="kvg:08ecd-Kaisho-g2" kvg:element="車" kvg:position="bottom" kvg:radical="tradit"> <!--<path id="kvg:08ecd-Kaisho-s3" kvg:type="㇐" d="M33.14,31.2c0.97,0.37,2.75,0.46,3.72,0.37c9.39-0.82,22.89-2.82,33.85-3.29c1.62-0.07,2.59,0.18,3.4,0.36"/>--> <!--<path id="kvg:08ecd-Kaisho-s4" kvg:type="㇑" d="M28.32,40.89c0.76,0.49,1.72,0.87,1.87,1.52c1.03,4.71,2.27,16.33,3.71,25.25"/>--> <!--<path id="kvg:08ecd-Kaisho-s5" kvg:type="㇕a" d="M31.24,42.67c11.54-0.94,36.22-3.77,44.09-3.92c3.26-0.06,3.93,1.29,3.79,2.77c-0.48,5.08-1.65,13.4-4.24,21.73"/>--> <!--<path id="kvg:08ecd-Kaisho-s6" kvg:type="㇐a" d="M33.96,54.44c10.79-1.19,18.5-2.03,27.72-2.87c1.03-0.09,2.06-0.18,3.09-0.26"/>--> <!--<path id="kvg:08ecd-Kaisho-s7" kvg:type="㇐a" d="M33.96,66.19c10.11-0.98,27.75-3.92,40.92-3.92"/>--> <!--<path id="kvg:08ecd-Kaisho-s8" kvg:type="㇐" d="M16,78.79c1.5,0.66,4.22,0.76,5.73,0.66c25.27-1.69,41.02-4.19,66.03-4.95c2.49-0.08,3.99,0.31,5.24,0.64"/>--> <!--<path id="kvg:08ecd-Kaisho-s9" kvg:type="㇑" d="M51.42,18.63c0.71,0.58,2.22,4.38,2.36,5.54c0.14,1.17-0.09,67.65-0.24,74.96"/>--> </g> </g> </g> <g id="kvg:StrokeNumbers_08ecd-Kaisho" style="font-size:8;fill:#808080">          </g> </svg> 