<?xml version="1.0" encoding="UTF-8"?>  <!DOCTYPE svg PUBLIC "-//W3C//DTD SVG 1.0//EN" "http://www.w3.org/TR/2001/REC-SVG-20010904/DTD/svg10.dtd"  <!ATTLIST g xmlns:kvg CDATA #FIXED "http://kanjivg.tagaini.net" kvg:element CDATA #IMPLIED kvg:variant CDATA #IMPLIED kvg:partial CDATA #IMPLIED kvg:original CDATA #IMPLIED kvg:part CDATA #IMPLIED kvg:number CDATA #IMPLIED kvg:tradForm CDATA #IMPLIED kvg:radicalForm CDATA #IMPLIED kvg:position CDATA #IMPLIED kvg:radical CDATA #IMPLIED kvg:phon CDATA #IMPLIED > <!ATTLIST path xmlns:kvg CDATA #FIXED "http://kanjivg.tagaini.net" kvg:type CDATA #IMPLIED >  <svg xmlns="http://www.w3.org/2000/svg" width="109" height="109" viewBox="0 0 109 109"> <g id="kvg:StrokePaths_08edf-Kaisho" style="fill:none;stroke:#000000;stroke-width:3;stroke-linecap:round;stroke-linejoin:round;"> <g id="kvg:08edf-Kaisho" kvg:element="軟"> <g id="kvg:08edf-Kaisho-g1" kvg:element="車" kvg:position="left" kvg:radical="general"> <!--<path id="kvg:08edf-Kaisho-s1" kvg:type="㇐" d="M15.33,28.96c1.42,0.04,2.51,0.39,3.17,0.29c6.31-0.99,17.79-2.38,27.12-3.41c1.1-0.12,1.76,0.19,2.3,0.38"/>--> <!--<path id="kvg:08edf-Kaisho-s2" kvg:type="㇑" d="M13.06,39.79c0.56,0.5,1.28,0.88,1.38,1.53c0.76,4.75,2.86,16.44,3.93,25.42"/>--> <!--<path id="kvg:08edf-Kaisho-s3" kvg:type="㇕a" d="M14.73,41.72c8.55-0.95,26.81-4.43,32.65-4.58c2.41-0.06,2.91,1.3,2.8,2.79c-0.35,5.11-2.68,14.57-4.74,22.37"/>--> <!--<path id="kvg:08edf-Kaisho-s4" kvg:type="㇐a" d="M16.74,52.43c6.72-0.82,13.4-1.95,20.13-2.71c0.68-0.08,1.38-0.15,2.09-0.23"/>--> <!--<path id="kvg:08edf-Kaisho-s5" kvg:type="㇐a" d="M18.42,64.26c7.49-0.99,16.56-2.17,27.51-3.44"/>--> <!--<path id="kvg:08edf-Kaisho-s6" kvg:type="㇐" d="M10.28,79.15c1.18,0,2.99,0.13,4.05-0.04c11.12-1.74,26.02-4.78,34.45-4.94c1.76-0.03,2.82,0.27,3.7,0.56"/>--> <!--<path id="kvg:08edf-Kaisho-s7" kvg:type="㇑" d="M29.8,12.13c0.45,0.57,1.89,2.26,1.98,3.4c0.09,1.14-0.06,73.75-0.15,80.85"/>--> </g> <g id="kvg:08edf-Kaisho-g2" kvg:element="欠" kvg:position="right"> <g id="kvg:08edf-Kaisho-g3" kvg:position="top"> <!--<path id="kvg:08edf-Kaisho-s8" kvg:type="㇒" d="M66.93,16.25c0.04,0.83,0.08,2.13-0.08,3.31C65.87,26.55,60.72,42.37,53,51.75"/>--> <!--<path id="kvg:08edf-Kaisho-s9" kvg:type="㇖a" d="M63.1,39.49c0.89,0.36,2.57,0.93,3.92,0.61c1.64-0.39,19-4.85,20.5-5.29C92,33.5,93,36.5,85,45.5"/>--> </g> <g id="kvg:08edf-Kaisho-g4" kvg:position="bottom"> <!--<path id="kvg:08edf-Kaisho-s10" kvg:type="㇒" d="M68.46,48c0.04,1.25,0.54,2.88,0.38,4.52c-0.96,10.23-6.59,31.98-20.59,43.23"/>--> <!--<path id="kvg:08edf-Kaisho-s11" kvg:type="㇏" d="M67.5,61.75c4.13,5.91,18.6,23.64,26.02,29.95c1.56,1.33,2.75,2.13,4.23,2.55"/>--> </g> </g> </g> </g> <g id="kvg:StrokeNumbers_08edf-Kaisho" style="font-size:8;fill:#808080">            </g> </svg> 