<?xml version="1.0" encoding="UTF-8"?>  <!DOCTYPE svg PUBLIC "-//W3C//DTD SVG 1.0//EN" "http://www.w3.org/TR/2001/REC-SVG-20010904/DTD/svg10.dtd"  <!ATTLIST g xmlns:kvg CDATA #FIXED "http://kanjivg.tagaini.net" kvg:element CDATA #IMPLIED kvg:variant CDATA #IMPLIED kvg:partial CDATA #IMPLIED kvg:original CDATA #IMPLIED kvg:part CDATA #IMPLIED kvg:number CDATA #IMPLIED kvg:tradForm CDATA #IMPLIED kvg:radicalForm CDATA #IMPLIED kvg:position CDATA #IMPLIED kvg:radical CDATA #IMPLIED kvg:phon CDATA #IMPLIED > <!ATTLIST path xmlns:kvg CDATA #FIXED "http://kanjivg.tagaini.net" kvg:type CDATA #IMPLIED >  <svg xmlns="http://www.w3.org/2000/svg" width="109" height="109" viewBox="0 0 109 109"> <g id="kvg:StrokePaths_08f1d-Kaisho" style="fill:none;stroke:#000000;stroke-width:3;stroke-linecap:round;stroke-linejoin:round;"> <g id="kvg:08f1d-Kaisho" kvg:element="輝"> <g id="kvg:08f1d-Kaisho-g1" kvg:element="光" kvg:position="left"> <g id="kvg:08f1d-Kaisho-g2" kvg:element="⺌" kvg:variant="true" kvg:original="小" kvg:position="top" kvg:radical="nelson"> <!--<path id="kvg:08f1d-Kaisho-s1" kvg:type="㇑" d="M28.83,15.1c1.17,1.4,2.37,2.82,2.43,4.44c0.3,7.74-0.19,24.56-0.19,27.19"/>--> <!--<path id="kvg:08f1d-Kaisho-s2" kvg:type="㇔" d="M15,29.25c2.74,2.55,7.07,10.48,7.75,14.44"/>--> <!--<path id="kvg:08f1d-Kaisho-s3" kvg:type="㇒" d="M42.95,23.86c0.02,0.37,0.05,0.97-0.05,1.5c-0.59,3.17-4,10.13-8.65,14.38"/>--> </g> <g id="kvg:08f1d-Kaisho-g3" kvg:element="兀" kvg:variant="true" kvg:position="bottom"> <g id="kvg:08f1d-Kaisho-g4" kvg:element="一"> <!--<path id="kvg:08f1d-Kaisho-s4" kvg:type="㇐" d="M12.13,50.5c0.61,0.53,2.23,0.62,2.84,0.53C21.33,50.14,36.5,46,42.2,44.92c1-0.19,2.13-0.25,2.64,0.02"/>--> </g> <g id="kvg:08f1d-Kaisho-g5" kvg:element="儿" kvg:variant="true" kvg:original="八"> <g id="kvg:08f1d-Kaisho-g6" kvg:element="丿"> <!--<path id="kvg:08f1d-Kaisho-s5" kvg:type="㇒" d="M25.16,52.5c0.04,0.84,0.11,2.18-0.08,3.38c-1.64,10.17-6.48,26.07-14.28,32.38"/>--> </g> <!--<path id="kvg:08f1d-Kaisho-s6" kvg:type="㇙/㇟" d="M34.18,50.4c0.5,1.17,0.9,2.54,0.93,4.34c0.14,8.03,0.13,13.51-0.62,17.76c-0.6,3.42-0.29,3.99,3,1c5.5-5,6.88-6.34,7.75-7.25"/>--> </g> </g> </g> <g id="kvg:08f1d-Kaisho-g7" kvg:element="軍" kvg:position="right"> <g id="kvg:08f1d-Kaisho-g8" kvg:element="冖" kvg:position="top"> <!--<path id="kvg:08f1d-Kaisho-s7" kvg:type="㇔" d="M51.87,16.96c-0.09,2.83-2.27,10.25-3.05,11.94"/>--> <!--<path id="kvg:08f1d-Kaisho-s8" kvg:type="㇖b" d="M53.17,17.73c5.05-0.57,25.85-3.05,35.85-3.51c7.6-0.35,1.18,6.09,0.25,7.06"/>--> </g> <g id="kvg:08f1d-Kaisho-g9" kvg:element="車" kvg:position="bottom" kvg:radical="tradit"> <!--<path id="kvg:08f1d-Kaisho-s9" kvg:type="㇐" d="M53.12,33.39c0.84,0.37,2.38,0.45,3.22,0.37c8.12-0.81,19.8-3.27,29.28-3.74c1.4-0.07,2.24,0.17,2.94,0.36"/>--> <!--<path id="kvg:08f1d-Kaisho-s10" kvg:type="㇑" d="M51.23,42.35c0.58,0.47,1.32,1.82,1.43,2.44c0.87,4.93,1.8,14.94,2.84,22.92"/>--> <!--<path id="kvg:08f1d-Kaisho-s11" kvg:type="㇕a" d="M53.46,44.52c8.83-0.9,28.21-4.07,34.23-4.21c2.49-0.06,3,1.22,2.9,2.62c-0.37,4.81-2.27,13.2-4.24,21.08"/>--> <!--<path id="kvg:08f1d-Kaisho-s12" kvg:type="㇐a" d="M55.54,54.67c7.09-0.24,14.16-1.92,21.21-2.72c0.78-0.09,1.57-0.17,2.37-0.25"/>--> <!--<path id="kvg:08f1d-Kaisho-s13" kvg:type="㇐a" d="M55.54,65.8c7.74-0.93,21.23-3.71,31.3-3.71"/>--> <!--<path id="kvg:08f1d-Kaisho-s14" kvg:type="㇐" d="M46.18,77.14c1.06,0.64,2.99,0.74,4.07,0.64c17.93-1.66,27.11-3.62,44.86-4.37c1.77-0.07,2.83,0.31,3.72,0.63"/>--> <!--<path id="kvg:08f1d-Kaisho-s15" kvg:type="㇑" d="M69.17,20.55c0.54,0.57,1.68,4.3,1.79,5.45c0.11,1.15-0.07,64.46-0.18,71.64"/>--> </g> </g> </g> </g> <g id="kvg:StrokeNumbers_08f1d-Kaisho" style="font-size:8;fill:#808080">                </g> </svg> 