<?xml version="1.0" encoding="UTF-8"?>  <!DOCTYPE svg PUBLIC "-//W3C//DTD SVG 1.0//EN" "http://www.w3.org/TR/2001/REC-SVG-20010904/DTD/svg10.dtd"  <!ATTLIST g xmlns:kvg CDATA #FIXED "http://kanjivg.tagaini.net" kvg:element CDATA #IMPLIED kvg:variant CDATA #IMPLIED kvg:partial CDATA #IMPLIED kvg:original CDATA #IMPLIED kvg:part CDATA #IMPLIED kvg:number CDATA #IMPLIED kvg:tradForm CDATA #IMPLIED kvg:radicalForm CDATA #IMPLIED kvg:position CDATA #IMPLIED kvg:radical CDATA #IMPLIED kvg:phon CDATA #IMPLIED > <!ATTLIST path xmlns:kvg CDATA #FIXED "http://kanjivg.tagaini.net" kvg:type CDATA #IMPLIED >  <svg xmlns="http://www.w3.org/2000/svg" width="109" height="109" viewBox="0 0 109 109"> <g id="kvg:StrokePaths_08f29-KaishoMdFst" style="fill:none;stroke:#000000;stroke-width:3;stroke-linecap:round;stroke-linejoin:round;"> <g id="kvg:08f29-KaishoMdFst" kvg:element="輩"> <g id="kvg:08f29-KaishoMdFst-g1" kvg:element="非" kvg:position="top" kvg:radical="nelson"> <!--<path id="kvg:08f29-KaishoMdFst-s1" kvg:type="㇒" d="M40.12,12c1.09,0.5,1.96,2.23,1.96,3.25c0,16.5,0.92,26.25-15.58,35"/>--> <!--<path id="kvg:08f29-KaishoMdFst-s2" kvg:type="㇑" d="M62.37,10.75c1.09,0.5,1.74,2.25,1.96,3.25c0.22,1,0,21.75-0.22,28"/>--> <!--<path id="kvg:08f29-KaishoMdFst-s3" kvg:type="㇐" d="M21.5,23.5c1.33,0,2.88,0.25,4.21,0S37.45,21.75,39,21"/>--> <!--<path id="kvg:08f29-KaishoMdFst-s4" kvg:type="㇐" d="M20.75,33.25c1.36,0,2.94,0.25,4.3,0C26.41,33,36.38,31,40,30.25"/>--> <!--<path id="kvg:08f29-KaishoMdFst-s5" kvg:type="㇀" d="M15.5,42.07c1.32,0.88,2.25,1.18,3.8,0.87c1.3-0.26,14-2.91,19.45-4.44"/>--> <!--<path id="kvg:08f29-KaishoMdFst-s6" kvg:type="㇐" d="M65.25,21.25c4.5-0.38,14.62-2.12,18-2.75c1.23-0.23,0.38-0.12,2.5-0.12"/>--> <!--<path id="kvg:08f29-KaishoMdFst-s7" kvg:type="㇐" d="M65.62,29.5c4.5-0.38,12.62-1.62,16-2.25c1.23-0.23,0.38-0.12,2.5-0.12"/>--> <!--<path id="kvg:08f29-KaishoMdFst-s8" kvg:type="㇐" d="M65.5,36.88C70,36.5,84.62,35.25,88,34.62c1.23-0.23,0.38-0.12,2.5-0.12"/>--> </g> <g id="kvg:08f29-KaishoMdFst-g2" kvg:element="車" kvg:position="bottom" kvg:radical="tradit"> <!--<path id="kvg:08f29-KaishoMdFst-s9" kvg:type="㇐" d="M35.41,48.39c0.76,0.28,2.16,0.37,2.92,0.28c11.08-1.38,24.33-2.48,35.11-3.21c1.27-0.09,2.03,0.13,2.66,0.27"/>--> <!--<path id="kvg:08f29-KaishoMdFst-s10" kvg:type="㇑" d="M31.95,57.99c0.67,0.38,1.52,1.79,1.65,2.29c0.91,3.61,2.5,10.89,3.78,17.73"/>--> <!--<path id="kvg:08f29-KaishoMdFst-s11" kvg:type="㇕a" d="M34.53,58.85c10.2-0.72,32.01-3.5,38.97-3.5c2,0,3.64,1.17,3.35,3.12c-0.6,4.02-1.96,10.77-4.25,17.15"/>--> <!--<path id="kvg:08f29-KaishoMdFst-s12" kvg:type="㇐a" d="M36.94,67.38c8.18-0.2,16.35-1.56,24.5-2.2c0.91-0.07,1.82-0.14,2.73-0.2"/>--> <!--<path id="kvg:08f29-KaishoMdFst-s13" kvg:type="㇐a" d="M36.94,76.38c8.94-0.75,24.53-3,36.17-3"/>--> <!--<path id="kvg:08f29-KaishoMdFst-s14" kvg:type="㇐" d="M15.14,86.82c1.47,0.61,4.14,0.75,5.62,0.61c18.79-1.83,47.44-4.2,64.72-4.6c2.45-0.05,3.91,0.29,5.13,0.59"/>--> <!--<path id="kvg:08f29-KaishoMdFst-s15" kvg:type="㇑" d="M53.2,36.63c0.66,0.44,1.68,1.87,1.68,3.67c0,5.45-0.08,53.59-0.22,59.08"/>--> </g> </g> </g> <g id="kvg:StrokeNumbers_08f29-KaishoMdFst" style="font-size:8;fill:#808080">                </g> </svg> 