<?xml version="1.0" encoding="UTF-8"?>  <!DOCTYPE svg PUBLIC "-//W3C//DTD SVG 1.0//EN" "http://www.w3.org/TR/2001/REC-SVG-20010904/DTD/svg10.dtd"  <!ATTLIST g xmlns:kvg CDATA #FIXED "http://kanjivg.tagaini.net" kvg:element CDATA #IMPLIED kvg:variant CDATA #IMPLIED kvg:partial CDATA #IMPLIED kvg:original CDATA #IMPLIED kvg:part CDATA #IMPLIED kvg:number CDATA #IMPLIED kvg:tradForm CDATA #IMPLIED kvg:radicalForm CDATA #IMPLIED kvg:position CDATA #IMPLIED kvg:radical CDATA #IMPLIED kvg:phon CDATA #IMPLIED > <!ATTLIST path xmlns:kvg CDATA #FIXED "http://kanjivg.tagaini.net" kvg:type CDATA #IMPLIED >  <svg xmlns="http://www.w3.org/2000/svg" width="109" height="109" viewBox="0 0 109 109"> <g id="kvg:StrokePaths_08f38-Kaisho" style="fill:none;stroke:#000000;stroke-width:3;stroke-linecap:round;stroke-linejoin:round;"> <g id="kvg:08f38-Kaisho" kvg:element="輸"> <g id="kvg:08f38-Kaisho-g1" kvg:element="車" kvg:position="left" kvg:radical="general"> <!--<path id="kvg:08f38-Kaisho-s1" kvg:type="㇐" d="M11.08,27.3c1.17,0.45,3.72,0.42,4.34,0.36c7.09-0.67,15-2.73,23.63-3.68c1.01-0.11,1.62,0.17,2.13,0.35"/>--> <!--<path id="kvg:08f38-Kaisho-s2" kvg:type="㇑" d="M11.31,38.27c0.46,0.44,1.06,0.77,1.14,1.35c0.63,4.18,2.37,14.48,3.25,22.39"/>--> <!--<path id="kvg:08f38-Kaisho-s3" kvg:type="㇕a" d="M13.1,40.85c7.07-0.84,21.68-4.34,26.51-4.47c2-0.05,2.41,1.14,2.32,2.46c-0.29,4.5-1.51,11.88-3.1,19.26"/>--> <!--<path id="kvg:08f38-Kaisho-s4" kvg:type="㇐a" d="M14.77,50.28c4.99-0.65,9.94-1.53,14.92-2.18c0.54-0.07,2.6-0.14,3.16-0.21"/>--> <!--<path id="kvg:08f38-Kaisho-s5" kvg:type="㇐a" d="M15.75,60.71c6.2-0.87,14.03-2.35,23.08-3.47"/>--> <!--<path id="kvg:08f38-Kaisho-s6" kvg:type="㇐" d="M10.03,74.21c0.97,0,2.45,0.11,3.33-0.03c9.14-1.43,17.39-3.43,24.83-4.06c1.44-0.12,2.32-0.28,3.04-0.04"/>--> <!--<path id="kvg:08f38-Kaisho-s7" kvg:type="㇑" d="M24.3,12.13c0.45,0.57,1.89,2.26,1.98,3.4c0.09,1.14-0.06,72.25-0.15,79.35"/>--> </g> <g id="kvg:08f38-Kaisho-g2" kvg:element="兪" kvg:variant="true" kvg:position="right"> <g id="kvg:08f38-Kaisho-g3" kvg:element="入" kvg:original="人" kvg:position="top"> <!--<path id="kvg:08f38-Kaisho-s8" kvg:type="㇒" d="M64.07,11.75c0.06,0.8,0.23,2.11-0.12,3.2C61.84,21.53,54.58,36.6,43,45.6"/>--> <!--<path id="kvg:08f38-Kaisho-s9" kvg:type="㇏" d="M65.09,14.65c3.95,4.72,20.95,20.14,25.31,23.6c1.48,1.17,3.37,1.68,4.85,2.01"/>--> </g> <g id="kvg:08f38-Kaisho-g4" kvg:position="bottom"> <g id="kvg:08f38-Kaisho-g5" kvg:element="一"> <!--<path id="kvg:08f38-Kaisho-s10" kvg:type="㇐" d="M54.84,41.8c0.47,0.24,1.33,0.31,1.8,0.24c3-0.42,16.61-2.29,20.01-2.43c0.78-0.03,1.25,0.12,1.65,0.24"/>--> </g> <g id="kvg:08f38-Kaisho-g6" kvg:element="月"> <!--<path id="kvg:08f38-Kaisho-s11" kvg:type="㇒" d="M49.06,53.73c0.49,0.93,0.82,1.87,0.98,2.8c0.16,0.93,0.23,35.99,0.16,38.08"/>--> <!--<path id="kvg:08f38-Kaisho-s12" kvg:type="㇆" d="M51.02,55.11c1.09-0.13,10.61-2.38,11.42-2.52c1.46-0.27,2,1.73,1.82,2.52c-0.17,0.77-0.27,24.75-0.27,35.51c0,9.53-3.84,1.46-4.75,0.26"/>--> <!--<path id="kvg:08f38-Kaisho-s13" kvg:type="㇐/㇔" d="M50.81,65.79c2.19-0.34,4.38-0.69,6.58-1.04c0.61-0.09,1.22-0.19,1.81-0.28"/>--> <!--<path id="kvg:08f38-Kaisho-s14" kvg:type="㇐/㇔" d="M50.63,76.28c2.12-0.15,4.23-0.41,6.34-0.65c0.56-0.06,1.13-0.13,1.7-0.19"/>--> </g> <g id="kvg:08f38-Kaisho-g7" kvg:element="刂" kvg:variant="true" kvg:original="刀"> <!--<path id="kvg:08f38-Kaisho-s15" kvg:type="㇑" d="M74.78,54.21c0.62,0.58,1.06,1.26,1.11,3.18c0.25,9.22-0.01,22.2-0.01,25.34"/>--> <!--<path id="kvg:08f38-Kaisho-s16" kvg:type="㇚" d="M87.44,49.38c0.62,0.58,1.06,1.26,1.11,3.18c0.25,9.21-0.16,36.3-0.16,39.44c0,7.75-4.56,0.95-5.51,0.16"/>--> </g> </g> </g> </g> </g> <g id="kvg:StrokeNumbers_08f38-Kaisho" style="font-size:8;fill:#808080">                 </g> </svg> 