<?xml version="1.0" encoding="UTF-8"?>  <!DOCTYPE svg PUBLIC "-//W3C//DTD SVG 1.0//EN" "http://www.w3.org/TR/2001/REC-SVG-20010904/DTD/svg10.dtd"  <!ATTLIST g xmlns:kvg CDATA #FIXED "http://kanjivg.tagaini.net" kvg:element CDATA #IMPLIED kvg:variant CDATA #IMPLIED kvg:partial CDATA #IMPLIED kvg:original CDATA #IMPLIED kvg:part CDATA #IMPLIED kvg:number CDATA #IMPLIED kvg:tradForm CDATA #IMPLIED kvg:radicalForm CDATA #IMPLIED kvg:position CDATA #IMPLIED kvg:radical CDATA #IMPLIED kvg:phon CDATA #IMPLIED > <!ATTLIST path xmlns:kvg CDATA #FIXED "http://kanjivg.tagaini.net" kvg:type CDATA #IMPLIED >  <svg xmlns="http://www.w3.org/2000/svg" width="109" height="109" viewBox="0 0 109 109"> <g id="kvg:StrokePaths_08f9b-Kaisho" style="fill:none;stroke:#000000;stroke-width:3;stroke-linecap:round;stroke-linejoin:round;"> <g id="kvg:08f9b-Kaisho" kvg:element="辛" kvg:radical="general"> <g id="kvg:08f9b-Kaisho-g1" kvg:element="立" kvg:position="top"> <g id="kvg:08f9b-Kaisho-g2" kvg:element="亠" kvg:position="top"> <!--<path id="kvg:08f9b-Kaisho-s1" kvg:type="㇑a" d="M49.44,12.25c3.48,2.25,6.27,5.25,7.74,8.7"/>--> <!--<path id="kvg:08f9b-Kaisho-s2" kvg:type="㇐" d="M29,28.7c1.16,0.33,2.53,0.38,3.68,0.33c6.57-0.28,34.07-4.53,43.99-4.77c1.94-0.05,3.1,0.16,4.07,0.32"/>--> </g> <g id="kvg:08f9b-Kaisho-g3" kvg:position="bottom"> <!--<path id="kvg:08f9b-Kaisho-s3" kvg:type="㇔" d="M37.75,32.5c2.91,4.85,4.24,9.81,4.5,13"/>--> <!--<path id="kvg:08f9b-Kaisho-s4" kvg:type="㇒" d="M67.51,27.25c0.49,1.25,0.35,2.32,0.26,2.77C67.16,33.1,62.52,41.39,61,43.75"/>--> <!--<path id="kvg:08f9b-Kaisho-s5" kvg:type="㇐" d="M13.75,50.8c1.46,0.39,3.17,0.54,4.62,0.39c15.88-1.69,53.38-5.69,71.78-6.5c2.43-0.11,3.89,0.19,5.1,0.38"/>--> </g> </g> <g id="kvg:08f9b-Kaisho-g4" kvg:element="十" kvg:position="bottom"> <!--<path id="kvg:08f9b-Kaisho-s6" kvg:type="㇐" d="M24.89,69.45c1.32,0.47,3.73,0.59,5.04,0.47c16.73-1.53,34.56-4.42,50.07-5.4c2.19-0.14,3.51,0.22,4.61,0.46"/>--> <!--<path id="kvg:08f9b-Kaisho-s7" kvg:type="㇑" d="M52.14,48.63c0.66,0.52,2.05,3.92,2.18,4.96c0.76,6-0.19,42.74-0.22,44.29"/>--> </g> </g> </g> <g id="kvg:StrokeNumbers_08f9b-Kaisho" style="font-size:8;fill:#808080">        </g> </svg> 