<?xml version="1.0" encoding="UTF-8"?>  <!DOCTYPE svg PUBLIC "-//W3C//DTD SVG 1.0//EN" "http://www.w3.org/TR/2001/REC-SVG-20010904/DTD/svg10.dtd"  <!ATTLIST g xmlns:kvg CDATA #FIXED "http://kanjivg.tagaini.net" kvg:element CDATA #IMPLIED kvg:variant CDATA #IMPLIED kvg:partial CDATA #IMPLIED kvg:original CDATA #IMPLIED kvg:part CDATA #IMPLIED kvg:number CDATA #IMPLIED kvg:tradForm CDATA #IMPLIED kvg:radicalForm CDATA #IMPLIED kvg:position CDATA #IMPLIED kvg:radical CDATA #IMPLIED kvg:phon CDATA #IMPLIED > <!ATTLIST path xmlns:kvg CDATA #FIXED "http://kanjivg.tagaini.net" kvg:type CDATA #IMPLIED >  <svg xmlns="http://www.w3.org/2000/svg" width="109" height="109" viewBox="0 0 109 109"> <g id="kvg:StrokePaths_08fbb-Hyougai" style="fill:none;stroke:#000000;stroke-width:3;stroke-linecap:round;stroke-linejoin:round;"> <g id="kvg:08fbb-Hyougai" kvg:element="辻"> <g id="kvg:08fbb-Hyougai-g1" kvg:element="十"> <!--<path id="kvg:08fbb-Hyougai-s1" kvg:type="㇐" d="M42.32,43.34c1.15,0.41,3.26,0.54,4.4,0.41C58,42.5,78.83,39.69,88.91,39.53c1.91-0.03,3.06,0.2,4.02,0.4"/>--> <!--<path id="kvg:08fbb-Hyougai-s2" kvg:type="㇑" d="M65.78,13.88c0.57,0.46,1.79,3.42,1.9,4.33c0.12,0.91-0.07,55.21-0.19,60.92"/>--> </g> <g id="kvg:08fbb-Hyougai-g2" kvg:element="⻌" kvg:original="辶" kvg:position="nyo" kvg:radical="tradit"> <!--<path id="kvg:08fbb-Hyougai-s3" kvg:type="㇔" d="M21.21,19.25c3.63,1.74,9.38,7.17,10.29,9.88"/>--> <!--<path id="kvg:08fbb-Hyougai-s4" kvg:type="㇋" d="M13,50.75c2.25,1,3.75,0.5,4.75,0.25s9.5-3.5,11-4s3.75,1.25,2.75,2.75s-4,7.25-4.75,8.5s-0.5,3.5,1,5.25s2.75,3.75,3.5,5.25s0.75,2.75-0.75,4S21.5,81,20,81.5"/>--> <!--<path id="kvg:08fbb-Hyougai-s5" kvg:type="㇏a" d="M15.75,83.43c2.95-0.47,8.86-1.65,13.28-0.71c4.43,0.94,29.59,7.26,33.95,8.48c11.81,3.3,20.91,4.24,29.77,2.59"/>--> </g> </g> </g> <g id="kvg:StrokeNumbers_08fbb-Hyougai" style="font-size:8;fill:#808080">      </g> </svg> 