<?xml version="1.0" encoding="UTF-8"?>  <!DOCTYPE svg PUBLIC "-//W3C//DTD SVG 1.0//EN" "http://www.w3.org/TR/2001/REC-SVG-20010904/DTD/svg10.dtd"  <!ATTLIST g xmlns:kvg CDATA #FIXED "http://kanjivg.tagaini.net" kvg:element CDATA #IMPLIED kvg:variant CDATA #IMPLIED kvg:partial CDATA #IMPLIED kvg:original CDATA #IMPLIED kvg:part CDATA #IMPLIED kvg:number CDATA #IMPLIED kvg:tradForm CDATA #IMPLIED kvg:radicalForm CDATA #IMPLIED kvg:position CDATA #IMPLIED kvg:radical CDATA #IMPLIED kvg:phon CDATA #IMPLIED > <!ATTLIST path xmlns:kvg CDATA #FIXED "http://kanjivg.tagaini.net" kvg:type CDATA #IMPLIED >  <svg xmlns="http://www.w3.org/2000/svg" width="109" height="109" viewBox="0 0 109 109"> <g id="kvg:StrokePaths_09047-Kaisho" style="fill:none;stroke:#000000;stroke-width:3;stroke-linecap:round;stroke-linejoin:round;"> <g id="kvg:09047-Kaisho" kvg:element="遇"> <g id="kvg:09047-Kaisho-g1" kvg:element="禺"> <g id="kvg:09047-Kaisho-g2" kvg:element="日"> <g id="kvg:09047-Kaisho-g3" kvg:element="田" kvg:part="1" kvg:variant="true"> <!--<path id="kvg:09047-Kaisho-s1" kvg:type="㇑" d="M46.33,16.32c0.27,0.46,0.27,0.76,0.42,1.33c1.19,4.64,3.12,16.55,3.82,25.09"/>--> <!--<path id="kvg:09047-Kaisho-s2" kvg:type="㇕" d="M47.59,17.95c10.66-1.45,26.75-3.52,33.82-3.98c2.6-0.17,3.99,0.44,3.77,3.26c-0.34,4.58-3.07,13.09-4.6,22.03"/>--> <!--<path id="kvg:09047-Kaisho-s3" kvg:type="㇐" d="M48.92,29.34c7.62-0.56,15.23-1.6,22.83-2.4c0.92-0.1,1.81-0.19,2.66-0.27"/>--> <!--<path id="kvg:09047-Kaisho-s4" kvg:type="㇐" d="M50.71,40.69c9.67-1.12,20.55-2.88,29.96-3"/>--> </g> </g> <g id="kvg:09047-Kaisho-g4" kvg:element="禸"> <!--<path id="kvg:09047-Kaisho-s5" kvg:type="㇑" d="M42.05,49.97c1.25,0.58,2.13,2.17,2.22,3.21c0.43,5.12,2.43,21.61,3.13,27.31"/>--> <!--<path id="kvg:09047-Kaisho-s6" kvg:type="㇆" d="M44.24,52.85c6.17-0.81,42.12-4.2,43.33-4.48c2.6-0.61,4.32,1.49,4.22,3.28c-0.23,4.34-2.9,20.94-4.95,26.44c-2.55,6.87-3.49,4.22-5.78-0.05"/>--> <g id="kvg:09047-Kaisho-g5" kvg:element="田" kvg:part="2" kvg:variant="true"> <!--<path id="kvg:09047-Kaisho-s7" kvg:type="㇑" d="M64.44,17.82c0.54,1.04,1.4,2.07,1.4,3.9c-0.01,8.04,0.23,41.32,0.23,43.8"/>--> </g> <!--<path id="kvg:09047-Kaisho-s8" kvg:type="６" d="M54.34,68.11c1.07,1.06,2.26,1.64,3.21,1.27c2.68-1.06,13.67-5.92,19.27-7.82"/>--> <!--<path id="kvg:09047-Kaisho-s9" kvg:type="㇔" d="M73.45,56.34c2.5,2.25,6.47,9.26,7.1,12.76"/>--> </g> </g> <g id="kvg:09047-Kaisho-g6" kvg:element="⻌" kvg:original="辶" kvg:position="nyo" kvg:radical="tradit"> <!--<path id="kvg:09047-Kaisho-s10" kvg:type="㇔" d="M20.71,19.25c3.63,1.74,9.38,7.17,10.29,9.88"/>--> <!--<path id="kvg:09047-Kaisho-s11" kvg:type="㇋" d="M14,50.75c2.25,1,3.75,0.5,4.75,0.25s8-3.5,9.5-4S32,48.25,31,49.75s-4,7.25-4.75,8.5s-0.5,3.5,1,5.25s2.75,3.75,3.5,5.25s0.75,2.75-0.75,4S21,81,19.5,81.5"/>--> <!--<path id="kvg:09047-Kaisho-s12" kvg:type="㇏a" d="M15.25,83c3-0.5,9-1.75,13.5-0.75s30.07,7.71,34.5,9c12,3.5,21.25,4.5,30.25,2.75"/>--> </g> </g> </g> <g id="kvg:StrokeNumbers_09047-Kaisho" style="font-size:8;fill:#808080">             </g> </svg> 