<?xml version="1.0" encoding="UTF-8"?>  <!DOCTYPE svg PUBLIC "-//W3C//DTD SVG 1.0//EN" "http://www.w3.org/TR/2001/REC-SVG-20010904/DTD/svg10.dtd"  <!ATTLIST g xmlns:kvg CDATA #FIXED "http://kanjivg.tagaini.net" kvg:element CDATA #IMPLIED kvg:variant CDATA #IMPLIED kvg:partial CDATA #IMPLIED kvg:original CDATA #IMPLIED kvg:part CDATA #IMPLIED kvg:number CDATA #IMPLIED kvg:tradForm CDATA #IMPLIED kvg:radicalForm CDATA #IMPLIED kvg:position CDATA #IMPLIED kvg:radical CDATA #IMPLIED kvg:phon CDATA #IMPLIED > <!ATTLIST path xmlns:kvg CDATA #FIXED "http://kanjivg.tagaini.net" kvg:type CDATA #IMPLIED >  <svg xmlns="http://www.w3.org/2000/svg" width="109" height="109" viewBox="0 0 109 109"> <g id="kvg:StrokePaths_09053-Kaisho" style="fill:none;stroke:#000000;stroke-width:3;stroke-linecap:round;stroke-linejoin:round;"> <g id="kvg:09053-Kaisho" kvg:element="道"> <g id="kvg:09053-Kaisho-g1" kvg:element="首"> <!--<path id="kvg:09053-Kaisho-s1" kvg:type="㇔" d="M49.5,15.25c2.56,1.84,6.62,7.57,7.26,10.44"/>--> <!--<path id="kvg:09053-Kaisho-s2" kvg:type="㇒" d="M77.75,12.5c0.02,0.31,0.04,0.81-0.04,1.25c-0.51,2.64-3.44,8.45-7.45,12"/>--> <!--<path id="kvg:09053-Kaisho-s3" kvg:type="㇐" d="M42.31,33.35c1.15,0.45,3.27,0.52,4.42,0.45c12-0.75,21.92-3.57,40.19-3.95c1.92-0.04,3.07,0.21,4.03,0.44"/>--> <g id="kvg:09053-Kaisho-g2" kvg:element="自"> <!--<path id="kvg:09053-Kaisho-s4" kvg:type="㇒" d="M64.69,33.28c0.27,0.12-0.25,2.08-0.42,2.43c-1.11,2.3-2.25,5.43-4.87,8.45"/>--> <g id="kvg:09053-Kaisho-g3" kvg:element="目"> <!--<path id="kvg:09053-Kaisho-s5" kvg:type="㇑" d="M51.06,43.77c0.46,0.84,1.13,1.46,1.13,2.57c0,1.12-0.15,34.45,0,35.56"/>--> <!--<path id="kvg:09053-Kaisho-s6" kvg:type="㇕a" d="M52.95,45.62c2.59-0.14,22.3-2.75,24.66-2.91c1.96-0.14,3.51,0.78,3.35,1.81c-0.21,1.31-0.76,35.34-0.92,36.16"/>--> <!--<path id="kvg:09053-Kaisho-s7" kvg:type="㇐a" d="M52.9,55.9c4.57-0.17,9.13-0.7,13.68-1.12c1.38-0.12,2.74-0.25,4.06-0.36"/>--> <!--<path id="kvg:09053-Kaisho-s8" kvg:type="㇐a" d="M53.11,68.15c4.39-0.3,8.76-0.77,13.14-1.17c1.21-0.11,2.42-0.22,3.6-0.31"/>--> <!--<path id="kvg:09053-Kaisho-s9" kvg:type="㇐a" d="M53.36,79.25c5.14,0,18.66-1.07,25.31-1.07"/>--> </g> </g> </g> <g id="kvg:09053-Kaisho-g4" kvg:element="⻌" kvg:original="辶" kvg:position="nyo" kvg:radical="tradit"> <!--<path id="kvg:09053-Kaisho-s10" kvg:type="㇔" d="M19.75,20.5c3.63,1.64,8.59,6.2,9.5,8.75"/>--> <!--<path id="kvg:09053-Kaisho-s11" kvg:type="㇋" d="M14,51.38c2.25,0.94,3.75,0.47,4.75,0.24c1-0.24,8-3.29,9.5-3.76S32,49.02,31,50.43c-1,1.41-4,6.82-4.75,7.99c-0.75,1.17-0.5,3.29,1,4.94c1.5,1.65,2.75,3.53,3.5,4.94c0.75,1.41,0.75,2.59-0.75,3.76c-1.5,1.17-9,7.76-10.5,8.23"/>--> <!--<path id="kvg:09053-Kaisho-s12" kvg:type="㇏a" d="M15.25,81.71c3-0.47,9-1.65,13.5-0.71c4.5,0.94,30.07,8.25,34.5,9.46c12,3.29,21.25,5.23,30.25,3.59"/>--> </g> </g> </g> <g id="kvg:StrokeNumbers_09053-Kaisho" style="font-size:8;fill:#808080">             </g> </svg> 