<?xml version="1.0" encoding="UTF-8"?>  <!DOCTYPE svg PUBLIC "-//W3C//DTD SVG 1.0//EN" "http://www.w3.org/TR/2001/REC-SVG-20010904/DTD/svg10.dtd"  <!ATTLIST g xmlns:kvg CDATA #FIXED "http://kanjivg.tagaini.net" kvg:element CDATA #IMPLIED kvg:variant CDATA #IMPLIED kvg:partial CDATA #IMPLIED kvg:original CDATA #IMPLIED kvg:part CDATA #IMPLIED kvg:number CDATA #IMPLIED kvg:tradForm CDATA #IMPLIED kvg:radicalForm CDATA #IMPLIED kvg:position CDATA #IMPLIED kvg:radical CDATA #IMPLIED kvg:phon CDATA #IMPLIED > <!ATTLIST path xmlns:kvg CDATA #FIXED "http://kanjivg.tagaini.net" kvg:type CDATA #IMPLIED >  <svg xmlns="http://www.w3.org/2000/svg" width="109" height="109" viewBox="0 0 109 109"> <g id="kvg:StrokePaths_090ce-Kaisho" style="fill:none;stroke:#000000;stroke-width:3;stroke-linecap:round;stroke-linejoin:round;"> <g id="kvg:090ce-Kaisho" kvg:element="郎"> <g id="kvg:090ce-Kaisho-g1" kvg:element="良" kvg:partial="true" kvg:position="left"> <!--<path id="kvg:090ce-Kaisho-s1" kvg:type="㇑a" d="M29.74,11.26c3.01,1.99,7.26,6.99,8.66,10"/>--> <g id="kvg:090ce-Kaisho-g2" kvg:element="艮" kvg:partial="true"> <!--<path id="kvg:090ce-Kaisho-s2" kvg:type="㇕" d="M22.34,28.97c1.8-0.12,21.63-2.94,23.26-3.16c2.77-0.38,3.46,1.4,3.35,3.18c-0.45,7.51-1.2,19.26-2.16,26.87"/>--> <!--<path id="kvg:090ce-Kaisho-s3" kvg:type="㇐a" d="M22.66,40.98c3.75-0.39,7.5-0.82,11.26-1.21c1.16-0.12,2.33-0.24,3.5-0.35"/>--> <!--<path id="kvg:090ce-Kaisho-s4" kvg:type="㇐a" d="M22.55,54.46c4.97-0.52,15.45-1.71,24-2.59"/>--> <!--<path id="kvg:090ce-Kaisho-s5" kvg:type="㇙" d="M20.64,26.86c1.02,0.56,1.14,2.5,1.35,3.61c0.18,1.01-0.12,43.94-0.12,53.78c0,2.61,1.25,2.5,2.44,1.65c4.16-2.98,15.52-11.15,20.14-13.87"/>--> <!--<path id="kvg:090ce-Kaisho-s6" kvg:type="㇔" d="M40.73,63.58c3.1,2.76,7.97,10.14,9.74,15.98"/>--> </g> </g> <g id="kvg:090ce-Kaisho-g3" kvg:element="⻏" kvg:variant="true" kvg:original="邑" kvg:position="right" kvg:radical="general"> <!--<path id="kvg:090ce-Kaisho-s7" kvg:type="㇇" d="M61.41,20.21c1.59,0.29,2.55,0.59,3.84,0.52c8.25-0.47,16.46-1.68,20.01-2.74c4.15-1.24,6.29,1.74,4.45,4.64c-1.84,2.9-9.67,15.98-12.9,20.12"/>--> <!--<path id="kvg:090ce-Kaisho-s8" kvg:type="㇕va" d="M77.31,43.36C96.5,60.5,96,86,81.61,77.88"/>--> <!--<path id="kvg:090ce-Kaisho-s9" kvg:type="㇑" d="M65.12,21c0.38,1.75,0.74,2.75,0.96,3.75c0.22,1,0,66.75-0.22,73"/>--> </g> </g> </g> <g id="kvg:StrokeNumbers_090ce-Kaisho" style="font-size:8;fill:#808080">          </g> </svg> 