<?xml version="1.0" encoding="UTF-8"?>  <!DOCTYPE svg PUBLIC "-//W3C//DTD SVG 1.0//EN" "http://www.w3.org/TR/2001/REC-SVG-20010904/DTD/svg10.dtd"  <!ATTLIST g xmlns:kvg CDATA #FIXED "http://kanjivg.tagaini.net" kvg:element CDATA #IMPLIED kvg:variant CDATA #IMPLIED kvg:partial CDATA #IMPLIED kvg:original CDATA #IMPLIED kvg:part CDATA #IMPLIED kvg:number CDATA #IMPLIED kvg:tradForm CDATA #IMPLIED kvg:radicalForm CDATA #IMPLIED kvg:position CDATA #IMPLIED kvg:radical CDATA #IMPLIED kvg:phon CDATA #IMPLIED > <!ATTLIST path xmlns:kvg CDATA #FIXED "http://kanjivg.tagaini.net" kvg:type CDATA #IMPLIED >  <svg xmlns="http://www.w3.org/2000/svg" width="109" height="109" viewBox="0 0 109 109"> <g id="kvg:StrokePaths_090ed-Kaisho" style="fill:none;stroke:#000000;stroke-width:3;stroke-linecap:round;stroke-linejoin:round;"> <g id="kvg:090ed-Kaisho" kvg:element="郭"> <g id="kvg:090ed-Kaisho-g1" kvg:element="享" kvg:position="left"> <g id="kvg:090ed-Kaisho-g2" kvg:element="亠" kvg:position="top"> <!--<path id="kvg:090ed-Kaisho-s1" kvg:type="㇑a" d="M32.06,11.5c2.31,1.04,5.31,4,6.09,7.12"/>--> <!--<path id="kvg:090ed-Kaisho-s2" kvg:type="㇐" d="M15.3,25.42c0.79,0.06,2.6,0.38,3.36,0.31c6.21-0.64,25.75-3.5,34.6-3.94c1.3-0.06,1.97,0.03,2.94,0.39"/>--> </g> <g id="kvg:090ed-Kaisho-g3" kvg:position="bottom"> <g id="kvg:090ed-Kaisho-g4" kvg:element="口"> <!--<path id="kvg:090ed-Kaisho-s3" kvg:type="㇑" d="M22.34,33.18c0.29,0.24,0.58,0.44,0.7,0.75c0.99,2.4,2.52,8.22,3.2,12.53"/>--> <!--<path id="kvg:090ed-Kaisho-s4" kvg:type="㇕b" d="M24.12,34.01c7-1.01,20.36-3.15,23.97-3.49c1.32-0.12,2.11,1.25,1.92,1.99c-0.78,3.03-0.99,5.32-2.66,9.68"/>--> <!--<path id="kvg:090ed-Kaisho-s5" kvg:type="㇐b" d="M26.53,44.87c4.24-0.38,16.76-1.93,22.14-2.32"/>--> </g> <g id="kvg:090ed-Kaisho-g5" kvg:element="子" kvg:variant="true"> <!--<path id="kvg:090ed-Kaisho-s6" kvg:type="㇖" d="M23.32,55.12c0.87,0.21,2.52,0.53,3.83,0.35c1.6-0.22,19.39-4.22,20.91-4.22c1.52,0,2.32,1.11,0.8,2.34c-1.84,1.49-6.09,6.15-11.42,10.68"/>--> <!--<path id="kvg:090ed-Kaisho-s7" kvg:type="㇕v" d="M35.12,63.91C39.5,67.75,45.49,80.36,40,91.6c-3.25,6.65-6.18,1.12-7.75,0.56"/>--> <!--<path id="kvg:090ed-Kaisho-s8" kvg:type="㇀/㇐" d="M15.75,79.67c0.73,1.6,3.19,0.84,4.44,0.26C27.5,76.5,39.5,71,50.5,66"/>--> </g> </g> </g> <g id="kvg:090ed-Kaisho-g6" kvg:element="⻏" kvg:variant="true" kvg:original="邑" kvg:position="right" kvg:radical="general"> <!--<path id="kvg:090ed-Kaisho-s9" kvg:type="㇇" d="M65,26.25c1.75,0.25,2.49,0.57,3.76,0.33c6.99-1.33,14.65-3.55,17.58-4.4c3.57-1.04,5.14,2.04,3.56,4.47c-1.59,2.43-8.33,14.21-11.11,17.68"/>--> <!--<path id="kvg:090ed-Kaisho-s10" kvg:type="㇕va" d="M78.78,44.32C97,52.5,92.5,87.5,80.76,74.48"/>--> <!--<path id="kvg:090ed-Kaisho-s11" kvg:type="㇑" d="M67.37,26.75C68,28,67.61,29,67.83,30c0.22,1,0,62.25-0.22,68.5"/>--> </g> </g> </g> <g id="kvg:StrokeNumbers_090ed-Kaisho" style="font-size:8;fill:#808080">            </g> </svg> 