<?xml version="1.0" encoding="UTF-8"?>  <!DOCTYPE svg PUBLIC "-//W3C//DTD SVG 1.0//EN" "http://www.w3.org/TR/2001/REC-SVG-20010904/DTD/svg10.dtd"  <!ATTLIST g xmlns:kvg CDATA #FIXED "http://kanjivg.tagaini.net" kvg:element CDATA #IMPLIED kvg:variant CDATA #IMPLIED kvg:partial CDATA #IMPLIED kvg:original CDATA #IMPLIED kvg:part CDATA #IMPLIED kvg:number CDATA #IMPLIED kvg:tradForm CDATA #IMPLIED kvg:radicalForm CDATA #IMPLIED kvg:position CDATA #IMPLIED kvg:radical CDATA #IMPLIED kvg:phon CDATA #IMPLIED > <!ATTLIST path xmlns:kvg CDATA #FIXED "http://kanjivg.tagaini.net" kvg:type CDATA #IMPLIED >  <svg xmlns="http://www.w3.org/2000/svg" width="109" height="109" viewBox="0 0 109 109"> <g id="kvg:StrokePaths_090e8-Kaisho" style="fill:none;stroke:#000000;stroke-width:3;stroke-linecap:round;stroke-linejoin:round;"> <g id="kvg:090e8-Kaisho" kvg:element="部"> <g id="kvg:090e8-Kaisho-g1" kvg:position="left"> <g id="kvg:090e8-Kaisho-g2" kvg:element="立" kvg:position="top"> <g id="kvg:090e8-Kaisho-g3" kvg:element="亠" kvg:position="top"> <!--<path id="kvg:090e8-Kaisho-s1" kvg:type="㇑a" d="M31.66,12.75c3.28,1.78,6,4.05,8.64,8.65"/>--> <!--<path id="kvg:090e8-Kaisho-s2" kvg:type="㇐" d="M16.79,28.23c1.02,0.29,2.22,0.33,3.24,0.29c5.78-0.25,23-4.11,31.74-4.32c1.71-0.04,2.73,0.14,3.58,0.28"/>--> </g> <g id="kvg:090e8-Kaisho-g4" kvg:position="bottom"> <!--<path id="kvg:090e8-Kaisho-s3" kvg:type="㇔" d="M24.14,32.4c3.38,4.42,4.91,8.93,5.21,11.84"/>--> <!--<path id="kvg:090e8-Kaisho-s4" kvg:type="㇒" d="M47.25,28.75c0.58,0.55,0.65,0.83,0.58,1.29c-0.47,3.12-4.35,12.61-5.52,15"/>--> <!--<path id="kvg:090e8-Kaisho-s5" kvg:type="㇐" d="M12.67,50.64c1.28,0.34,2.79,0.48,4.06,0.34c13.98-1.49,22.42-3.19,38.61-3.9c2.14-0.09,3.42,0.16,4.49,0.34"/>--> </g> </g> <g id="kvg:090e8-Kaisho-g5" kvg:element="口" kvg:position="bottom"> <!--<path id="kvg:090e8-Kaisho-s6" kvg:type="㇑" d="M22.16,63.08c0.39,0.36,0.78,0.66,0.95,1.11c1.34,3.58,2.53,14.37,3.45,20.8"/>--> <!--<path id="kvg:090e8-Kaisho-s7" kvg:type="㇕b" d="M24.57,64.63c8.15-1.18,20.04-3.05,24.57-3.52c1.66-0.17,2.65,1.02,2.42,2.03c-0.98,4.18-2.59,12.07-4.05,17.85"/>--> <!--<path id="kvg:090e8-Kaisho-s8" kvg:type="㇐b" d="M26.75,83.78c5.33-0.53,15.61-1.45,22.92-2.27"/>--> </g> </g> <g id="kvg:090e8-Kaisho-g6" kvg:element="⻏" kvg:variant="true" kvg:original="邑" kvg:position="right" kvg:radical="general"> <!--<path id="kvg:090e8-Kaisho-s9" kvg:type="㇇" d="M66.27,20.14c1.15,0.25,2.53,0.53,3.99,0.3c7.74-1.2,15.24-2.62,17.82-3.48c3.17-1.06,5.42,0.53,3.92,4.53c-1,2.66-7.5,14.25-11.35,18.98"/>--> <!--<path id="kvg:090e8-Kaisho-s10" kvg:type="㇕va" d="M80.65,40.48c17.18,9.69,20.11,36.67,4.65,31.63"/>--> <!--<path id="kvg:090e8-Kaisho-s11" kvg:type="㇑" d="M67.87,20.64c0.38,1.36,0.34,2.38,0.57,3.44c0.23,1.06,0,66.52-0.23,73.13"/>--> </g> </g> </g> <g id="kvg:StrokeNumbers_090e8-Kaisho" style="font-size:8;fill:#808080">            </g> </svg> 