<?xml version="1.0" encoding="UTF-8"?>  <!DOCTYPE svg PUBLIC "-//W3C//DTD SVG 1.0//EN" "http://www.w3.org/TR/2001/REC-SVG-20010904/DTD/svg10.dtd"  <!ATTLIST g xmlns:kvg CDATA #FIXED "http://kanjivg.tagaini.net" kvg:element CDATA #IMPLIED kvg:variant CDATA #IMPLIED kvg:partial CDATA #IMPLIED kvg:original CDATA #IMPLIED kvg:part CDATA #IMPLIED kvg:number CDATA #IMPLIED kvg:tradForm CDATA #IMPLIED kvg:radicalForm CDATA #IMPLIED kvg:position CDATA #IMPLIED kvg:radical CDATA #IMPLIED kvg:phon CDATA #IMPLIED > <!ATTLIST path xmlns:kvg CDATA #FIXED "http://kanjivg.tagaini.net" kvg:type CDATA #IMPLIED >  <svg xmlns="http://www.w3.org/2000/svg" width="109" height="109" viewBox="0 0 109 109"> <g id="kvg:StrokePaths_0916c-Kaisho" style="fill:none;stroke:#000000;stroke-width:3;stroke-linecap:round;stroke-linejoin:round;"> <g id="kvg:0916c-Kaisho" kvg:element="酬"> <g id="kvg:0916c-Kaisho-g1" kvg:element="酉" kvg:position="left" kvg:radical="general"> <g id="kvg:0916c-Kaisho-g2" kvg:element="西" kvg:part="1" kvg:original="襾"> <!--<path id="kvg:0916c-Kaisho-s1" kvg:type="㇐" d="M11.79,23.66c0.62,0.37,3.75,0.93,4.39,0.87C22.75,24,38.5,22,41.26,21.74c1.57-0.14,3.34-0.62,4.68-0.13"/>--> <!--<path id="kvg:0916c-Kaisho-s2" kvg:type="㇑" d="M14.13,36.32c0.4,0.66,0.55,2.23,0.55,3.11s-0.27,48.84-0.27,49.27"/>--> <!--<path id="kvg:0916c-Kaisho-s3" kvg:type="㇕a" d="M14.87,38.68c2.27-0.11,23.28-3.34,25.33-3.62c2.13-0.28,3.4,1.05,3.4,3.52c0,1.38-0.21,38.97-0.2,48.58"/>--> <!--<path id="kvg:0916c-Kaisho-s4" kvg:type="㇒" d="M22.84,26.24c0.5,1.08,0.33,2.06,0.34,3.54c0.06,14.5-0.32,21.79-4.66,31.92"/>--> <!--<path id="kvg:0916c-Kaisho-s5" kvg:type="㇟a" d="M30.88,24.91c0.42,1.12,0.76,2.43,0.79,4.15c0.08,5.47-0.19,14.23-0.22,20.98c-0.03,5.86,1.31,7.07,4.29,7.07c3.02,0,4.6-0.2,4.89-0.86"/>--> </g> <g id="kvg:0916c-Kaisho-g3" kvg:element="一"> <!--<path id="kvg:0916c-Kaisho-s6" kvg:type="㇐a" d="M20.46,70.94c0.63-0.07,1.29-0.14,1.98-0.21c4.49-0.5,8.98-1.03,13.47-1.51c0.7-0.08,1.37-0.15,2.01-0.21"/>--> </g> <g id="kvg:0916c-Kaisho-g4" kvg:element="西" kvg:part="2" kvg:original="襾"> <!--<path id="kvg:0916c-Kaisho-s7" kvg:type="㇐a" d="M15.13,85.06c6.25-0.47,20.42-1.72,28.2-2.12"/>--> </g> </g> <g id="kvg:0916c-Kaisho-g5" kvg:element="州" kvg:position="right"> <g id="kvg:0916c-Kaisho-g6" kvg:element="丶"> <!--<path id="kvg:0916c-Kaisho-s8" kvg:type="㇔" d="M52.6,47.75c-0.01,5.58-0.51,9.58-2.29,14.13"/>--> </g> <g id="kvg:0916c-Kaisho-g7" kvg:element="川" kvg:part="1" kvg:variant="true" kvg:original="巛"> <!--<path id="kvg:0916c-Kaisho-s9" kvg:type="㇒" d="M57.27,23.93c0.92,1.9,1.76,4.62,1.78,6.62c0.11,12.96,2.02,45.8-11.75,60.19"/>--> </g> <g id="kvg:0916c-Kaisho-g8" kvg:element="丶"> <!--<path id="kvg:0916c-Kaisho-s10" kvg:type="㇔" d="M64.52,43.17c1.46,1.69,3.76,6.93,4.13,9.55"/>--> </g> <g id="kvg:0916c-Kaisho-g9" kvg:element="川" kvg:part="2" kvg:variant="true" kvg:original="巛"> <!--<path id="kvg:0916c-Kaisho-s11" kvg:type="㇑" d="M73.75,20.63c0.43,0.36,1.33,2.69,1.41,3.4c0.09,0.72-0.05,58.36-0.14,62.85"/>--> </g> <g id="kvg:0916c-Kaisho-g10" kvg:element="丶"> <!--<path id="kvg:0916c-Kaisho-s12" kvg:type="㇔" d="M82.01,41.17c1.63,1.95,4.22,8.02,4.63,11.05"/>--> </g> <g id="kvg:0916c-Kaisho-g11" kvg:element="川" kvg:variant="true" kvg:original="巛"> <!--<path id="kvg:0916c-Kaisho-s13" kvg:type="㇑" d="M90.31,17.13c0.76,0.45,2.36,3.35,2.51,4.25c0.15,0.9-0.1,68.15-0.25,73.75"/>--> </g> </g> </g> </g> <g id="kvg:StrokeNumbers_0916c-Kaisho" style="font-size:8;fill:#808080">              </g> </svg> 