<?xml version="1.0" encoding="UTF-8"?>  <!DOCTYPE svg PUBLIC "-//W3C//DTD SVG 1.0//EN" "http://www.w3.org/TR/2001/REC-SVG-20010904/DTD/svg10.dtd"  <!ATTLIST g xmlns:kvg CDATA #FIXED "http://kanjivg.tagaini.net" kvg:element CDATA #IMPLIED kvg:variant CDATA #IMPLIED kvg:partial CDATA #IMPLIED kvg:original CDATA #IMPLIED kvg:part CDATA #IMPLIED kvg:number CDATA #IMPLIED kvg:tradForm CDATA #IMPLIED kvg:radicalForm CDATA #IMPLIED kvg:position CDATA #IMPLIED kvg:radical CDATA #IMPLIED kvg:phon CDATA #IMPLIED > <!ATTLIST path xmlns:kvg CDATA #FIXED "http://kanjivg.tagaini.net" kvg:type CDATA #IMPLIED >  <svg xmlns="http://www.w3.org/2000/svg" width="109" height="109" viewBox="0 0 109 109"> <g id="kvg:StrokePaths_092e4-Kaisho" style="fill:none;stroke:#000000;stroke-width:3;stroke-linecap:round;stroke-linejoin:round;"> <g id="kvg:092e4-Kaisho" kvg:element="鋤"> <g id="kvg:092e4-Kaisho-g1" kvg:element="金" kvg:position="left" kvg:radical="general"> <!--<path id="kvg:092e4-Kaisho-s1" kvg:type="㇒" d="M30.75,13.99c0,0.78,0.05,1.4-0.15,2.33c-1.04,4.87-9.85,21.67-19.38,28.3"/>--> <!--<path id="kvg:092e4-Kaisho-s2" kvg:type="㇔/㇏" d="M31.39,18.96C35.5,20.75,40.75,25.5,42.75,30"/>--> <!--<path id="kvg:092e4-Kaisho-s3" kvg:type="㇐" d="M21,38.66c1.38,0,2.01,0.12,2.46,0.07c4-0.41,8.61-2.04,13.31-2.34c0.68-0.04,0.83-0.07,1.98-0.07"/>--> <!--<path id="kvg:092e4-Kaisho-s4" kvg:type="㇐" d="M13.09,51.81c0.59,0.33,2.56,0.48,3.17,0.43c5.49-0.49,15.24-2.24,22.78-3.17c0.74-0.09,1.88-0.13,2.99,0.15"/>--> <!--<path id="kvg:092e4-Kaisho-s5" kvg:type="㇑a" d="M27.45,41.69c1.24,0.78,1.24,2.52,1.24,3.14C28.69,49.18,29,73,29,80.81"/>--> <!--<path id="kvg:092e4-Kaisho-s6" kvg:type="㇔" d="M14.39,61.51c3.78,5.13,5.63,10.69,6.4,13.69"/>--> <!--<path id="kvg:092e4-Kaisho-s7" kvg:type="㇒" d="M39.67,56.05c0.33,0.76,0.5,1.86,0.37,2.5c-0.33,1.64-2.93,4.65-6.62,9.48"/>--> <!--<path id="kvg:092e4-Kaisho-s8" kvg:type="㇀/㇐" d="M13.5,87.87c1.5,0.38,2.9,0.69,3.93,0.12c4.07-2.24,9.32-5.74,22.32-13.24"/>--> </g> <g id="kvg:092e4-Kaisho-g2" kvg:element="助" kvg:position="right"> <g id="kvg:092e4-Kaisho-g3" kvg:element="且" kvg:variant="true" kvg:position="left"> <g id="kvg:092e4-Kaisho-g4" kvg:element="月" kvg:variant="true"> <!--<path id="kvg:092e4-Kaisho-s9" kvg:type="㇑a" d="M48.49,22.04c0.27,0.92,0.44,1.82,0.53,2.72c0.09,0.9,0.19,54.19,0.16,56.17"/>--> <!--<path id="kvg:092e4-Kaisho-s10" kvg:type="㇕b" d="M49.55,23.05c1.06-0.09,10.74-2.65,11.52-2.8c1.41-0.27,1.94,3.11,1.77,4.42c-0.17,1.25-0.08,31.41-0.13,49.31"/>--> <!--<path id="kvg:092e4-Kaisho-s11" kvg:type="㇐a" d="M49.59,40.33c2.04-0.25,4.06-0.7,6.08-1.05c0.61-0.11,1.24-0.21,1.86-0.31"/>--> <!--<path id="kvg:092e4-Kaisho-s12" kvg:type="㇐a" d="M49.8,58.82c2.09-0.21,4.16-0.6,6.23-0.97c0.58-0.11,1.16-0.21,1.73-0.32"/>--> </g> <g id="kvg:092e4-Kaisho-g5" kvg:element="一"> <!--<path id="kvg:092e4-Kaisho-s13" kvg:type="㇀/㇐" d="M40,84.31c1.5,0.69,2.57,1.03,4.28,0.25C45.5,84,60.7,76.21,65.82,73.14"/>--> </g> </g> <g id="kvg:092e4-Kaisho-g6" kvg:element="力" kvg:position="right"> <!--<path id="kvg:092e4-Kaisho-s14" kvg:type="㇆" d="M69.13,39.07c0.67,0.69,3.01,1.02,3.64,0.87c5.23-1.19,15.57-4.41,18.36-4.78c3.12-0.41,4.11,1.58,3.97,4.82c-0.6,14.26-5.35,40.76-10.4,51.27c-3.33,6.94-5.99-0.68-6.68-1.69"/>--> <!--<path id="kvg:092e4-Kaisho-s15" kvg:type="㇒" d="M81.17,16.17c0.32,0.6,0.84,1.74,0.87,4.16c0.26,19.27-7.68,57.01-20.16,71.95"/>--> </g> </g> </g> </g> <g id="kvg:StrokeNumbers_092e4-Kaisho" style="font-size:8;fill:#808080">                </g> </svg> 