<?xml version="1.0" encoding="UTF-8"?>  <!DOCTYPE svg PUBLIC "-//W3C//DTD SVG 1.0//EN" "http://www.w3.org/TR/2001/REC-SVG-20010904/DTD/svg10.dtd"  <!ATTLIST g xmlns:kvg CDATA #FIXED "http://kanjivg.tagaini.net" kvg:element CDATA #IMPLIED kvg:variant CDATA #IMPLIED kvg:partial CDATA #IMPLIED kvg:original CDATA #IMPLIED kvg:part CDATA #IMPLIED kvg:number CDATA #IMPLIED kvg:tradForm CDATA #IMPLIED kvg:radicalForm CDATA #IMPLIED kvg:position CDATA #IMPLIED kvg:radical CDATA #IMPLIED kvg:phon CDATA #IMPLIED > <!ATTLIST path xmlns:kvg CDATA #FIXED "http://kanjivg.tagaini.net" kvg:type CDATA #IMPLIED >  <svg xmlns="http://www.w3.org/2000/svg" width="109" height="109" viewBox="0 0 109 109"> <g id="kvg:StrokePaths_0958f-Kaisho" style="fill:none;stroke:#000000;stroke-width:3;stroke-linecap:round;stroke-linejoin:round;"> <g id="kvg:0958f-Kaisho" kvg:element="閏"> <g id="kvg:0958f-Kaisho-g1" kvg:element="門" kvg:position="kamae" kvg:radical="general"> <g id="kvg:0958f-Kaisho-g2" kvg:position="left"> <!--<path id="kvg:0958f-Kaisho-s1" kvg:type="㇑" d="M16.14,16.22c0.76,0.45,2.36,3.35,2.51,4.25c0.15,0.9-0.1,70.15-0.25,75.75"/>--> <!--<path id="kvg:0958f-Kaisho-s2" kvg:type="㇕a" d="M18.86,19.32c2.52-0.12,17.94-2.47,20.23-2.61c1.91-0.12,2.9,1.04,3,1.96c0.14,1.41-0.09,14.58-0.44,24.02c-0.04,1.04-0.15,1.5-0.15,2.19"/>--> <!--<path id="kvg:0958f-Kaisho-s3" kvg:type="㇐a" d="M19.31,32.68c3.73-0.41,7.45-0.99,11.16-1.56c1-0.15,2.01-0.31,2.99-0.46"/>--> <!--<path id="kvg:0958f-Kaisho-s4" kvg:type="㇐a" d="M18.86,46.07c8.39-1.32,13.89-2.32,21.3-2.92"/>--> </g> <g id="kvg:0958f-Kaisho-g3" kvg:position="right"> <!--<path id="kvg:0958f-Kaisho-s5" kvg:type="㇑" d="M64.96,14.37c0.46,0.65,0.92,2.05,0.92,2.92c0,0.87-0.3,23.97-0.3,24.4s0.15,0.44,0.3,1.31"/>--> <!--<path id="kvg:0958f-Kaisho-s6" kvg:type="㇆a" d="M66.63,15.55c7.12-1.3,18.2-3.43,20.55-3.56c1.96-0.11,3.08,1.19,3.07,1.85c-0.51,20.07-0.51,63.38-0.51,77.94c0,7.09-3.24,5.49-5.49,3.35c-1.84-1.75-3.25-2.67-4.75-4.01"/>--> <!--<path id="kvg:0958f-Kaisho-s7" kvg:type="㇐a" d="M67.09,28.19c3.54-0.52,7.06-1.11,10.59-1.66c0.93-0.14,1.86-0.29,2.79-0.42"/>--> <!--<path id="kvg:0958f-Kaisho-s8" kvg:type="㇐a" d="M66.63,41.81C75,41,80.75,39.5,88.29,38.9"/>--> </g> </g> <g id="kvg:0958f-Kaisho-g4" kvg:element="王" kvg:original="玉" kvg:partial="true"> <!--<path id="kvg:0958f-Kaisho-s9" kvg:type="㇐" d="M35.76,55.06c0.64,0.32,2.71,0.11,3.36,0.02c2.99-0.43,22.14-2.29,29.35-2.63c0.98-0.05,1.88,0.06,2.69,0.33"/>--> <!--<path id="kvg:0958f-Kaisho-s10" kvg:type="㇑a" d="M52.76,55.04c1.17,1.47,1.17,2.34,1.17,3.52c0,4.44-0.01,18.94-0.01,24.37"/>--> <!--<path id="kvg:0958f-Kaisho-s11" kvg:type="㇐" d="M36.6,69.23c0.63,0.35,2.71,0.21,3.36,0.15c6.71-0.61,18.62-1.84,26.51-2.46c0.79-0.06,2.52-0.14,3.69,0.16"/>--> <!--<path id="kvg:0958f-Kaisho-s12" kvg:type="㇐" d="M29.11,84.57c0.56,0.19,3.49,0.6,4.44,0.5c13.31-1.38,26.23-2.56,40.46-3.04c1.53-0.05,3.37,0.32,4.13,0.63"/>--> </g> </g> </g> <g id="kvg:StrokeNumbers_0958f-Kaisho" style="font-size:8;fill:#808080">             </g> </svg> 