<?xml version="1.0" encoding="UTF-8"?>  <!DOCTYPE svg PUBLIC "-//W3C//DTD SVG 1.0//EN" "http://www.w3.org/TR/2001/REC-SVG-20010904/DTD/svg10.dtd"  <!ATTLIST g xmlns:kvg CDATA #FIXED "http://kanjivg.tagaini.net" kvg:element CDATA #IMPLIED kvg:variant CDATA #IMPLIED kvg:partial CDATA #IMPLIED kvg:original CDATA #IMPLIED kvg:part CDATA #IMPLIED kvg:number CDATA #IMPLIED kvg:tradForm CDATA #IMPLIED kvg:radicalForm CDATA #IMPLIED kvg:position CDATA #IMPLIED kvg:radical CDATA #IMPLIED kvg:phon CDATA #IMPLIED > <!ATTLIST path xmlns:kvg CDATA #FIXED "http://kanjivg.tagaini.net" kvg:type CDATA #IMPLIED >  <svg xmlns="http://www.w3.org/2000/svg" width="109" height="109" viewBox="0 0 109 109"> <g id="kvg:StrokePaths_09580-Kaisho" style="fill:none;stroke:#000000;stroke-width:3;stroke-linecap:round;stroke-linejoin:round;"> <g id="kvg:09580-Kaisho" kvg:element="門" kvg:radical="general"> <g id="kvg:09580-Kaisho-g1" kvg:position="left"> <!--<path id="kvg:09580-Kaisho-s1" kvg:type="㇑" d="M16.14,14.22c0.76,0.45,2.36,3.35,2.51,4.25c0.15,0.9-0.1,68.15-0.25,73.75"/>--> <!--<path id="kvg:09580-Kaisho-s2" kvg:type="㇕a" d="M18.86,17.32c2.52-0.12,19.94-2.47,22.23-2.61c1.91-0.12,2.9,1.04,3,1.96c0.14,1.41-1.59,25.52-1.59,26.21"/>--> <!--<path id="kvg:09580-Kaisho-s3" kvg:type="㇐a" d="M19.31,29.68C25.5,29,36.5,27.25,42.46,26.52"/>--> <!--<path id="kvg:09580-Kaisho-s4" kvg:type="㇐a" d="M18.86,44.07c8.39-1.32,14.89-2.32,22.3-2.92"/>--> </g> <g id="kvg:09580-Kaisho-g2" kvg:position="right"> <!--<path id="kvg:09580-Kaisho-s5" kvg:type="㇑" d="M61.96,13.47c0.46,0.61,0.92,1.92,0.92,2.73c0,0.81-0.15,23.23,0,24.05"/>--> <!--<path id="kvg:09580-Kaisho-s6" kvg:type="㇆a" d="M63.63,14.57c2.58-0.1,22.2-2.21,24.55-2.33c1.96-0.1,3.08,1.11,3.07,1.73C90.75,32.75,90.74,76,90.74,89.62c0.01,11.13-5.99,3.13-10.24-0.62"/>--> <!--<path id="kvg:09580-Kaisho-s7" kvg:type="㇐a" d="M64.09,26.39c3.49,0,21.55-1.92,25.5-1.92"/>--> <!--<path id="kvg:09580-Kaisho-s8" kvg:type="㇐a" d="M63.63,39.13c5.16,0,18.97-1.72,25.65-1.72"/>--> </g> </g> </g> <g id="kvg:StrokeNumbers_09580-Kaisho" style="font-size:8;fill:#808080">         </g> </svg> 