<?xml version="1.0" encoding="UTF-8"?>  <!DOCTYPE svg PUBLIC "-//W3C//DTD SVG 1.0//EN" "http://www.w3.org/TR/2001/REC-SVG-20010904/DTD/svg10.dtd"  <!ATTLIST g xmlns:kvg CDATA #FIXED "http://kanjivg.tagaini.net" kvg:element CDATA #IMPLIED kvg:variant CDATA #IMPLIED kvg:partial CDATA #IMPLIED kvg:original CDATA #IMPLIED kvg:part CDATA #IMPLIED kvg:number CDATA #IMPLIED kvg:tradForm CDATA #IMPLIED kvg:radicalForm CDATA #IMPLIED kvg:position CDATA #IMPLIED kvg:radical CDATA #IMPLIED kvg:phon CDATA #IMPLIED > <!ATTLIST path xmlns:kvg CDATA #FIXED "http://kanjivg.tagaini.net" kvg:type CDATA #IMPLIED >  <svg xmlns="http://www.w3.org/2000/svg" width="109" height="109" viewBox="0 0 109 109"> <g id="kvg:StrokePaths_09591-Kaisho" style="fill:none;stroke:#000000;stroke-width:3;stroke-linecap:round;stroke-linejoin:round;"> <g id="kvg:09591-Kaisho" kvg:element="閑"> <g id="kvg:09591-Kaisho-g1" kvg:element="門" kvg:position="kamae" kvg:radical="general"> <g id="kvg:09591-Kaisho-g2" kvg:position="left"> <!--<path id="kvg:09591-Kaisho-s1" kvg:type="㇑" d="M18.89,14.79c0.73,0.46,0.78,2.48,0.93,3.4c0.15,0.93-0.09,72.14-0.24,77.94"/>--> <!--<path id="kvg:09591-Kaisho-s2" kvg:type="㇕a" d="M20.02,16.58c2.44-0.1,19.77-2.16,21.99-2.28c1.85-0.1,2.81,0.91,2.9,1.71c0.14,1.23-1.06,12.76-1.39,21.01c-0.04,0.91-0.14,1.31-0.14,1.91"/>--> <!--<path id="kvg:09591-Kaisho-s3" kvg:type="㇐a" d="M20.45,27.39c3.85-0.38,7.69-0.88,11.52-1.36c1.06-0.13,2.12-0.27,3.16-0.4"/>--> <!--<path id="kvg:09591-Kaisho-s4" kvg:type="㇐a" d="M20.02,38.98c8.11-1.15,14.89-2.03,22.06-2.56"/>--> </g> <g id="kvg:09591-Kaisho-g3" kvg:position="right"> <!--<path id="kvg:09591-Kaisho-s5" kvg:type="㇑" d="M63.94,13.51c0.44,0.55,0.88,1.74,0.88,2.48c0,0.74-0.29,20.31-0.29,20.67s0.14,0.37,0.29,1.11"/>--> <!--<path id="kvg:09591-Kaisho-s6" kvg:type="㇆a" d="M65.55,14.66c2.49-0.11,19.71-2.79,21.99-2.92c1.9-0.11,2.98,1.15,2.97,1.8c-0.49,19.46-0.5,64.29-0.5,78.4c0,11.31-5.95,2.16-7.4,0.86"/>--> <!--<path id="kvg:09591-Kaisho-s7" kvg:type="㇐a" d="M65.99,25.22c3.75,0,7.57-0.69,11.29-1.12c1.21-0.14,2.42-0.28,3.58-0.41"/>--> <!--<path id="kvg:09591-Kaisho-s8" kvg:type="㇐a" d="M65.55,36.26c4.99,0,16.59-1.56,23.05-1.56"/>--> </g> </g> <g id="kvg:09591-Kaisho-g4" kvg:element="木"> <!--<path id="kvg:09591-Kaisho-s9" kvg:type="㇐" d="M33.74,57.83c0.44,0.15,1.62,0.39,2.79,0.44c3.24,0.15,26.07-3.71,34.16-4.44c1.17-0.11,1.47-0.15,2.21,0"/>--> <!--<path id="kvg:09591-Kaisho-s10" kvg:type="㇑" d="M51.66,42c0.91,0.36,1.63,1.46,1.63,2.35c0,4.4,0.17,43.73,0.17,42.4c0,11.75-5.21,2.75-6.71,1.25"/>--> <!--<path id="kvg:09591-Kaisho-s11" kvg:type="㇒" d="M51.28,56.86c-4.01,8.85-14.44,21.38-22.78,26.39"/>--> <!--<path id="kvg:09591-Kaisho-s12" kvg:type="㇏" d="M54,57c3.49,3.19,18.79,18.29,22.58,21.43c1.29,1.06,2.38,1.52,3.67,1.82"/>--> </g> </g> </g> <g id="kvg:StrokeNumbers_09591-Kaisho" style="font-size:8;fill:#808080">             </g> </svg> 