<?xml version="1.0" encoding="UTF-8"?>  <!DOCTYPE svg PUBLIC "-//W3C//DTD SVG 1.0//EN" "http://www.w3.org/TR/2001/REC-SVG-20010904/DTD/svg10.dtd"  <!ATTLIST g xmlns:kvg CDATA #FIXED "http://kanjivg.tagaini.net" kvg:element CDATA #IMPLIED kvg:variant CDATA #IMPLIED kvg:partial CDATA #IMPLIED kvg:original CDATA #IMPLIED kvg:part CDATA #IMPLIED kvg:number CDATA #IMPLIED kvg:tradForm CDATA #IMPLIED kvg:radicalForm CDATA #IMPLIED kvg:position CDATA #IMPLIED kvg:radical CDATA #IMPLIED kvg:phon CDATA #IMPLIED > <!ATTLIST path xmlns:kvg CDATA #FIXED "http://kanjivg.tagaini.net" kvg:type CDATA #IMPLIED >  <svg xmlns="http://www.w3.org/2000/svg" width="109" height="109" viewBox="0 0 109 109"> <g id="kvg:StrokePaths_09593-Kaisho" style="fill:none;stroke:#000000;stroke-width:3;stroke-linecap:round;stroke-linejoin:round;"> <g id="kvg:09593-Kaisho" kvg:element="間"> <g id="kvg:09593-Kaisho-g1" kvg:element="門" kvg:position="kamae" kvg:radical="general"> <g id="kvg:09593-Kaisho-g2" kvg:position="left"> <!--<path id="kvg:09593-Kaisho-s1" kvg:type="㇑" d="M18.39,14.8c0.73,0.47,1.28,2.5,1.43,3.43c0.15,0.94-0.09,71.08-0.24,76.92"/>--> <!--<path id="kvg:09593-Kaisho-s2" kvg:type="㇕a" d="M20.02,16.34c2.44-0.1,19.77-2.24,21.99-2.36c1.85-0.1,2.81,0.94,2.9,1.77c0.14,1.27-1.54,22.09-1.54,22.71"/>--> <!--<path id="kvg:09593-Kaisho-s3" kvg:type="㇐a" d="M20.45,27.52c3.85-0.39,7.69-0.91,11.52-1.41c1.06-0.14,2.12-0.28,3.16-0.41"/>--> <!--<path id="kvg:09593-Kaisho-s4" kvg:type="㇐a" d="M20.02,39.54c8.11-1.19,14.89-2.1,22.06-2.64"/>--> </g> <g id="kvg:09593-Kaisho-g3" kvg:position="right"> <!--<path id="kvg:09593-Kaisho-s5" kvg:type="㇑" d="M63.69,12.85c0.42,0.55,0.84,1.73,0.84,2.47c0,0.74-0.14,22.02,0,22.76"/>--> <!--<path id="kvg:09593-Kaisho-s6" kvg:type="㇆a" d="M65.22,14.35c2.36-0.09,20.33-2.5,22.48-2.61c1.8-0.09,2.82,1.01,2.81,1.57c-0.46,16.99-0.47,67.12-0.47,79.44c0,10.5-6.6,1.36-7.97,0.23"/>--> <!--<path id="kvg:09593-Kaisho-s7" kvg:type="㇐a" d="M65.63,24.54c3.83,0,7.71-0.54,11.52-0.87c1.25-0.11,2.5-0.22,3.7-0.32"/>--> <!--<path id="kvg:09593-Kaisho-s8" kvg:type="㇐a" d="M65.22,36.07c4.72,0,17.37-1.56,23.49-1.56"/>--> </g> </g> <g id="kvg:09593-Kaisho-g4" kvg:element="日"> <!--<path id="kvg:09593-Kaisho-s9" kvg:type="㇑" d="M41.06,51.2c0.39,0.79,0.79,1.68,0.79,2.74c0,1.05-0.13,30.01,0,31.06"/>--> <!--<path id="kvg:09593-Kaisho-s10" kvg:type="㇕a" d="M42.5,51.84c2.21-0.13,19.05-1.68,21.07-1.84c1.68-0.13,2.76,1.46,2.63,2.24c-0.26,1.58-0.52,31.45-0.52,32.24"/>--> <!--<path id="kvg:09593-Kaisho-s11" kvg:type="㇐a" d="M42.89,67.1c4.36-0.6,18.35-2.32,21.88-2.32"/>--> <!--<path id="kvg:09593-Kaisho-s12" kvg:type="㇐a" d="M42.5,82.55c4.43,0,16.75-1.55,22.01-2.05"/>--> </g> </g> </g> <g id="kvg:StrokeNumbers_09593-Kaisho" style="font-size:8;fill:#808080">             </g> </svg> 