<?xml version="1.0" encoding="UTF-8"?>  <!DOCTYPE svg PUBLIC "-//W3C//DTD SVG 1.0//EN" "http://www.w3.org/TR/2001/REC-SVG-20010904/DTD/svg10.dtd"  <!ATTLIST g xmlns:kvg CDATA #FIXED "http://kanjivg.tagaini.net" kvg:element CDATA #IMPLIED kvg:variant CDATA #IMPLIED kvg:partial CDATA #IMPLIED kvg:original CDATA #IMPLIED kvg:part CDATA #IMPLIED kvg:number CDATA #IMPLIED kvg:tradForm CDATA #IMPLIED kvg:radicalForm CDATA #IMPLIED kvg:position CDATA #IMPLIED kvg:radical CDATA #IMPLIED kvg:phon CDATA #IMPLIED > <!ATTLIST path xmlns:kvg CDATA #FIXED "http://kanjivg.tagaini.net" kvg:type CDATA #IMPLIED >  <svg xmlns="http://www.w3.org/2000/svg" width="109" height="109" viewBox="0 0 109 109"> <g id="kvg:StrokePaths_095a4-Kaisho" style="fill:none;stroke:#000000;stroke-width:3;stroke-linecap:round;stroke-linejoin:round;"> <g id="kvg:095a4-Kaisho" kvg:element="閤"> <g id="kvg:095a4-Kaisho-g1" kvg:element="門" kvg:position="kamae" kvg:radical="general"> <g id="kvg:095a4-Kaisho-g2" kvg:position="left"> <!--<path id="kvg:095a4-Kaisho-s1" kvg:type="㇑" d="M18.39,17.79c0.73,0.46,1.78,2.98,1.93,3.9c0.15,0.93-0.09,67.64-0.24,73.44"/>--> <!--<path id="kvg:095a4-Kaisho-s2" kvg:type="㇕a" d="M20.52,19.08c2.44-0.1,18.27-3.16,20.49-3.28c1.85-0.1,2.81,0.91,2.9,1.71c0.14,1.23-1.54,22.32-1.54,22.92"/>--> <!--<path id="kvg:095a4-Kaisho-s3" kvg:type="㇐a" d="M20.95,30.39c3.59-0.35,7.18-0.73,10.77-1.11c0.97-0.1,1.94-0.21,2.89-0.31"/>--> <!--<path id="kvg:095a4-Kaisho-s4" kvg:type="㇐a" d="M20.52,41.48c8.11-1.15,13.39-2.03,20.56-2.56"/>--> </g> <g id="kvg:095a4-Kaisho-g3" kvg:position="right"> <!--<path id="kvg:095a4-Kaisho-s5" kvg:type="㇑" d="M63.94,15.01c0.44,0.55,0.88,1.74,0.88,2.48c0,0.74-0.15,20.54,0,21.28"/>--> <!--<path id="kvg:095a4-Kaisho-s6" kvg:type="㇆a" d="M65.05,17.16c2.49-0.11,19.71-2.79,21.99-2.92c1.9-0.11,2.98,1.15,2.97,1.8c-0.49,19.46-0.5,60.29-0.5,74.4c0,11.06-6.45,1.16-7.9-0.14"/>--> <!--<path id="kvg:095a4-Kaisho-s7" kvg:type="㇐a" d="M65.49,26.22c3.75,0,7.57-0.69,11.29-1.12c1.21-0.14,2.42-0.28,3.58-0.41"/>--> <!--<path id="kvg:095a4-Kaisho-s8" kvg:type="㇐a" d="M65.55,36.26c4.99,0,16.59-1.56,23.05-1.56"/>--> </g> </g> <g id="kvg:095a4-Kaisho-g4" kvg:element="合"> <g id="kvg:095a4-Kaisho-g5" kvg:position="top"> <g id="kvg:095a4-Kaisho-g6" kvg:element="人"> <!--<path id="kvg:095a4-Kaisho-s9" kvg:type="㇒" d="M53.26,38.25c0.06,0.66,0.31,1.76-0.13,2.66C50.1,47.09,43.5,58.6,30.6,66.33"/>--> <!--<path id="kvg:095a4-Kaisho-s10" kvg:type="㇏" d="M54.33,41.8c3.32,3.62,17.6,15.45,21.25,18.11c1.24,0.9,2.83,1.29,4.07,1.54"/>--> </g> <g id="kvg:095a4-Kaisho-g7" kvg:element="一"> <!--<path id="kvg:095a4-Kaisho-s11" kvg:type="㇐" d="M44.25,62.27c0.43,0.13,2.45,0.15,2.89,0.13c4.52-0.15,10.02-1.98,16.48-2c0.72,0,1.77,0.06,2.13,0.13"/>--> </g> </g> <g id="kvg:095a4-Kaisho-g8" kvg:element="口" kvg:position="bottom"> <!--<path id="kvg:095a4-Kaisho-s12" kvg:type="㇑" d="M40.52,71.42c0.42,0.33,0.93,1.12,1.04,1.55c1.42,5.65,1.69,10.78,2.48,16.31"/>--> <!--<path id="kvg:095a4-Kaisho-s13" kvg:type="㇕b" d="M42.04,73.6c8.62-1.7,20.62-3.02,25.56-3.44c1.8-0.16,2.89,0.93,2.63,1.85c-1.07,3.82-1.71,6.91-3.91,12.25"/>--> <!--<path id="kvg:095a4-Kaisho-s14" kvg:type="㇐b" d="M44.44,86.76c6.67-0.37,17.18-1.17,25.68-1.53"/>--> </g> </g> </g> </g> <g id="kvg:StrokeNumbers_095a4-Kaisho" style="font-size:8;fill:#808080">               </g> </svg> 