<?xml version="1.0" encoding="UTF-8"?>  <!DOCTYPE svg PUBLIC "-//W3C//DTD SVG 1.0//EN" "http://www.w3.org/TR/2001/REC-SVG-20010904/DTD/svg10.dtd"  <!ATTLIST g xmlns:kvg CDATA #FIXED "http://kanjivg.tagaini.net" kvg:element CDATA #IMPLIED kvg:variant CDATA #IMPLIED kvg:partial CDATA #IMPLIED kvg:original CDATA #IMPLIED kvg:part CDATA #IMPLIED kvg:number CDATA #IMPLIED kvg:tradForm CDATA #IMPLIED kvg:radicalForm CDATA #IMPLIED kvg:position CDATA #IMPLIED kvg:radical CDATA #IMPLIED kvg:phon CDATA #IMPLIED > <!ATTLIST path xmlns:kvg CDATA #FIXED "http://kanjivg.tagaini.net" kvg:type CDATA #IMPLIED >  <svg xmlns="http://www.w3.org/2000/svg" width="109" height="109" viewBox="0 0 109 109"> <g id="kvg:StrokePaths_09685-Kaisho" style="fill:none;stroke:#000000;stroke-width:3;stroke-linecap:round;stroke-linejoin:round;"> <g id="kvg:09685-Kaisho" kvg:element="隅"> <g id="kvg:09685-Kaisho-g1" kvg:element="⻖" kvg:variant="true" kvg:original="阜" kvg:position="left" kvg:radical="general"> <!--<path id="kvg:09685-Kaisho-s1" kvg:type="㇇" d="M12.67,19.67c1.18,0.11,2.41,0.26,3.6,0.03c5.98-1.19,11.46-2.21,13.9-3.03c3-1,6,1,4.67,3.33c-1.33,2.33-6.5,12.67-8.83,16"/>--> <!--<path id="kvg:09685-Kaisho-s2" kvg:type="㇕va" d="M26,36.5c12.25,9.25,9.67,32.83-2.33,28.5"/>--> <!--<path id="kvg:09685-Kaisho-s3" kvg:type="㇑" d="M15.87,20.75c0.38,1,0.24,2.25,0.46,3.25c0.22,1,0,66.25-0.22,72.5"/>--> </g> <g id="kvg:09685-Kaisho-g2" kvg:element="禺" kvg:position="right"> <g id="kvg:09685-Kaisho-g3" kvg:element="日"> <g id="kvg:09685-Kaisho-g4" kvg:element="田" kvg:part="1" kvg:variant="true"> <!--<path id="kvg:09685-Kaisho-s4" kvg:type="㇑" d="M45.08,18.98c0.3,0.5,1.3,2.83,1.46,3.44c1.32,5.02,2.96,14.09,4.69,24.21"/>--> <!--<path id="kvg:09685-Kaisho-s5" kvg:type="㇕" d="M46.48,20.2c12.77-1.95,30.25-4.23,38.11-4.72c2.89-0.18,3.93,0.98,3.7,4.03C87.9,24.46,86.5,35,84.33,42.94"/>--> <!--<path id="kvg:09685-Kaisho-s6" kvg:type="㇐" d="M48.96,32.07c8.5-0.6,16.99-1.7,25.47-2.54c1.02-0.1,2.02-0.2,2.97-0.29"/>--> <!--<path id="kvg:09685-Kaisho-s7" kvg:type="㇐" d="M51.39,44.4c12.61-1.65,20.36-2.65,33.03-3.67"/>--> </g> </g> <g id="kvg:09685-Kaisho-g5" kvg:element="禸"> <!--<path id="kvg:09685-Kaisho-s8" kvg:type="㇑" d="M40.32,55.49c1.39,0.63,2.37,2.35,2.47,3.48c0.48,5.54,2.76,28.85,3.54,35.03"/>--> <!--<path id="kvg:09685-Kaisho-s9" kvg:type="㇆" d="M42.76,58.11c6.86-0.88,46.72-5.04,48.07-5.35c2.89-0.66,4.8,1.61,4.7,3.55c-0.25,4.69-2.28,24.19-4.5,32.29c-2.11,7.67-3.88,5.08-6.43,0.45"/>--> <g id="kvg:09685-Kaisho-g6" kvg:element="田" kvg:part="2" kvg:variant="true"> <!--<path id="kvg:09685-Kaisho-s10" kvg:type="㇑" d="M65.45,19.21c0.45,0.87,1.15,1.74,1.15,3.28c-0.01,6.76,0.19,48.91,0.19,50.99"/>--> </g> <!--<path id="kvg:09685-Kaisho-s11" kvg:type="６" d="M52.99,77.57c1.19,1.2,2.51,1.87,3.57,1.44c2.98-1.2,17.7-7.24,23.93-9.4"/>--> <!--<path id="kvg:09685-Kaisho-s12" kvg:type="㇔" d="M75.74,63.35c3.45,2.57,8.92,10.58,9.78,14.58"/>--> </g> </g> </g> </g> <g id="kvg:StrokeNumbers_09685-Kaisho" style="font-size:8;fill:#808080">             </g> </svg> 