<?xml version="1.0" encoding="UTF-8"?>  <!DOCTYPE svg PUBLIC "-//W3C//DTD SVG 1.0//EN" "http://www.w3.org/TR/2001/REC-SVG-20010904/DTD/svg10.dtd"  <!ATTLIST g xmlns:kvg CDATA #FIXED "http://kanjivg.tagaini.net" kvg:element CDATA #IMPLIED kvg:variant CDATA #IMPLIED kvg:partial CDATA #IMPLIED kvg:original CDATA #IMPLIED kvg:part CDATA #IMPLIED kvg:number CDATA #IMPLIED kvg:tradForm CDATA #IMPLIED kvg:radicalForm CDATA #IMPLIED kvg:position CDATA #IMPLIED kvg:radical CDATA #IMPLIED kvg:phon CDATA #IMPLIED > <!ATTLIST path xmlns:kvg CDATA #FIXED "http://kanjivg.tagaini.net" kvg:type CDATA #IMPLIED >  <svg xmlns="http://www.w3.org/2000/svg" width="109" height="109" viewBox="0 0 109 109"> <g id="kvg:StrokePaths_096dc-Kaisho" style="fill:none;stroke:#000000;stroke-width:3;stroke-linecap:round;stroke-linejoin:round;"> <g id="kvg:096dc-Kaisho" kvg:element="雜"> <g id="kvg:096dc-Kaisho-g1" kvg:position="left"> <g id="kvg:096dc-Kaisho-g2" kvg:element="亠"> <!--<path id="kvg:096dc-Kaisho-s1" kvg:type="㇑a" d="M28.2,13c3.05,1.3,6.55,5.57,8.06,8.88"/>--> <!--<path id="kvg:096dc-Kaisho-s2" kvg:type="㇐" d="M13.85,28.01c0.85,0.05,2.78,0.33,3.6,0.26c6.65-0.55,21.61-2.83,30.06-2.97c1.4-0.02,2.11,0.02,3.15,0.34"/>--> </g> <g id="kvg:096dc-Kaisho-g3" kvg:element="从"> <g id="kvg:096dc-Kaisho-g4" kvg:element="人" kvg:position="left"> <!--<path id="kvg:096dc-Kaisho-s3" kvg:type="㇒" d="M25.91,32.49c0,0.49,0.03,0.87-0.08,1.46c-0.57,3.04-6.02,13.18-10.69,17.68"/>--> <!--<path id="kvg:096dc-Kaisho-s4" kvg:type="㇏" d="M25.54,38.46c2.57,1.06,5.85,3.87,7.1,6.54"/>--> </g> <g id="kvg:096dc-Kaisho-g5" kvg:element="人" kvg:position="right"> <!--<path id="kvg:096dc-Kaisho-s5" kvg:type="㇒" d="M42.86,29.99c0,0.47,0.02,0.84-0.07,1.4c-0.47,2.92-4.99,12.66-8.85,16.98"/>--> <!--<path id="kvg:096dc-Kaisho-s6" kvg:type="㇏" d="M41.41,36.96c2.19,1.1,4.98,4.02,6.04,6.79"/>--> </g> </g> <g id="kvg:096dc-Kaisho-g6" kvg:element="木"> <!--<path id="kvg:096dc-Kaisho-s7" kvg:type="㇐" d="M13.62,62.6c0.37,0.21,1.36,0.55,2.35,0.62c2.72,0.21,25.6-2.61,32.41-3.64c0.99-0.15,1.24-0.21,1.86,0"/>--> <!--<path id="kvg:096dc-Kaisho-s8" kvg:type="㇑" d="M33.33,52.91c0.37,0.41,0.58,1.86,0.66,2.69c0.07,0.83-0.07,30.72-0.07,35.9c0,11.25-4.54,4.12-5.91,2.75"/>--> <!--<path id="kvg:096dc-Kaisho-s9" kvg:type="㇒" d="M26.43,71.47c-1.86,4.27-4.97,9.54-9.18,13.03"/>--> <!--<path id="kvg:096dc-Kaisho-s10" kvg:type="㇏" d="M40,69c3.77,2.68,6.97,8.05,9,11.5"/>--> </g> </g> <g id="kvg:096dc-Kaisho-g7" kvg:element="隹" kvg:position="right" kvg:radical="tradit"> <g id="kvg:096dc-Kaisho-g8" kvg:element="亻" kvg:variant="true" kvg:original="人"> <!--<path id="kvg:096dc-Kaisho-s11" kvg:type="㇒" d="M63.14,15.5c0.14,1.69-0.04,3.91-0.48,5.36c-2.83,9.24-6.42,17.07-12.9,28.32"/>--> <!--<path id="kvg:096dc-Kaisho-s12" kvg:type="㇑" d="M58.69,39.15c0.63,0.88,1.11,2.8,1.15,4.16c0.37,12.12-0.51,46.13-0.2,52.44"/>--> </g> <!--<path id="kvg:096dc-Kaisho-s13" kvg:type="㇒" d="M80.7,15.5c0.05,0.93-0.01,2.15-0.18,2.94c-1.07,5.07-2.43,8.99-4.88,15.17"/>--> <!--<path id="kvg:096dc-Kaisho-s14" kvg:type="㇐b" d="M58.66,36.41c8.84-1.16,32.09-3.46,35.22-4.09"/>--> <!--<path id="kvg:096dc-Kaisho-s15" kvg:type="㇑a" d="M75.48,37.33c0.35,0.45,0.63,1.06,0.63,1.83c0,7.86,0.04,35-0.17,47.38"/>--> <!--<path id="kvg:096dc-Kaisho-s16" kvg:type="㇐b" d="M60.14,53.32c6.89-0.94,28.5-2.69,31.45-3.21"/>--> <!--<path id="kvg:096dc-Kaisho-s17" kvg:type="㇐b" d="M60.3,69.79c7.27-0.8,29.15-2.41,32.27-2.85"/>--> <!--<path id="kvg:096dc-Kaisho-s18" kvg:type="㇐b" d="M59.8,88.18c7.3-1.14,34.06-2.82,37.2-3.45"/>--> </g> </g> </g> <g id="kvg:StrokeNumbers_096dc-Kaisho" style="font-size:8;fill:#808080">                   </g> </svg> 