<?xml version="1.0" encoding="UTF-8"?>  <!DOCTYPE svg PUBLIC "-//W3C//DTD SVG 1.0//EN" "http://www.w3.org/TR/2001/REC-SVG-20010904/DTD/svg10.dtd"  <!ATTLIST g xmlns:kvg CDATA #FIXED "http://kanjivg.tagaini.net" kvg:element CDATA #IMPLIED kvg:variant CDATA #IMPLIED kvg:partial CDATA #IMPLIED kvg:original CDATA #IMPLIED kvg:part CDATA #IMPLIED kvg:number CDATA #IMPLIED kvg:tradForm CDATA #IMPLIED kvg:radicalForm CDATA #IMPLIED kvg:position CDATA #IMPLIED kvg:radical CDATA #IMPLIED kvg:phon CDATA #IMPLIED > <!ATTLIST path xmlns:kvg CDATA #FIXED "http://kanjivg.tagaini.net" kvg:type CDATA #IMPLIED >  <svg xmlns="http://www.w3.org/2000/svg" width="109" height="109" viewBox="0 0 109 109"> <g id="kvg:StrokePaths_0975e-MdFst" style="fill:none;stroke:#000000;stroke-width:3;stroke-linecap:round;stroke-linejoin:round;"> <g id="kvg:0975e-MdFst" kvg:element="非" kvg:radical="general"> <!--<path id="kvg:0975e-MdFst-s1" kvg:type="㇒" d="M41.62,14c1.09,0.5,1.74,2.25,1.96,3.25c0.09,0.43,0.11,14.28,0.07,30.5c-0.04,21.81-0.65,37.5-14.15,51"/>--> <!--<path id="kvg:0975e-MdFst-s2" kvg:type="㇑" d="M63.87,12.75c1.09,0.5,1.74,2.25,1.96,3.25c0.22,1,0,75.75-0.22,82"/>--> <!--<path id="kvg:0975e-MdFst-s3" kvg:type="㇐" d="M20.75,36c1.5,0,3.25,0.25,4.75,0s13.25-1.75,15-2.5"/>--> <!--<path id="kvg:0975e-MdFst-s4" kvg:type="㇐" d="M20.25,52.25c1.5,0,3.25,0.25,4.75,0s12.5-2.25,16.5-3"/>--> <!--<path id="kvg:0975e-MdFst-s5" kvg:type="㇀" d="M13.75,71.52c1.5,1.73,3.55,2.78,6.04,1.71c1.46-0.63,14.25-5.71,20.46-8.73"/>--> <!--<path id="kvg:0975e-MdFst-s6" kvg:type="㇐" d="M68.75,29.75c4.5-0.38,15.62-3.12,19-3.75c1.23-0.23,0.38-0.12,2.5-0.12"/>--> <!--<path id="kvg:0975e-MdFst-s7" kvg:type="㇐" d="M69.12,47c4.5-0.38,16.12-2.62,19.5-3.25c1.23-0.23,0.38-0.12,2.5-0.12"/>--> <!--<path id="kvg:0975e-MdFst-s8" kvg:type="㇐" d="M69,67.88c4.5-0.38,20.12-2.62,23.5-3.25c1.23-0.23,0.38-0.12,2.5-0.12"/>--> </g> </g> <g id="kvg:StrokeNumbers_0975e-MdFst" style="font-size:8;fill:#808080">         </g> </svg> 