<?xml version="1.0" encoding="UTF-8"?>  <!DOCTYPE svg PUBLIC "-//W3C//DTD SVG 1.0//EN" "http://www.w3.org/TR/2001/REC-SVG-20010904/DTD/svg10.dtd"  <!ATTLIST g xmlns:kvg CDATA #FIXED "http://kanjivg.tagaini.net" kvg:element CDATA #IMPLIED kvg:variant CDATA #IMPLIED kvg:partial CDATA #IMPLIED kvg:original CDATA #IMPLIED kvg:part CDATA #IMPLIED kvg:number CDATA #IMPLIED kvg:tradForm CDATA #IMPLIED kvg:radicalForm CDATA #IMPLIED kvg:position CDATA #IMPLIED kvg:radical CDATA #IMPLIED kvg:phon CDATA #IMPLIED > <!ATTLIST path xmlns:kvg CDATA #FIXED "http://kanjivg.tagaini.net" kvg:type CDATA #IMPLIED >  <svg xmlns="http://www.w3.org/2000/svg" width="109" height="109" viewBox="0 0 109 109"> <g id="kvg:StrokePaths_09756-Kaisho" style="fill:none;stroke:#000000;stroke-width:3;stroke-linecap:round;stroke-linejoin:round;"> <g id="kvg:09756-Kaisho" kvg:element="靖"> <g id="kvg:09756-Kaisho-g1" kvg:element="立" kvg:position="left" kvg:radical="nelson"> <g id="kvg:09756-Kaisho-g2" kvg:element="亠" kvg:position="top"> <!--<path id="kvg:09756-Kaisho-s1" kvg:type="㇑a" d="M23.62,20.75c2.1,1.88,5.54,4.71,7.23,8.58"/>--> <!--<path id="kvg:09756-Kaisho-s2" kvg:type="㇐" d="M11.75,39.25c1.12,0.32,2.43,0.37,3.55,0.32c6.32-0.28,18.83-3.82,24.53-4.72c1.85-0.29,2.99,0.15,3.92,0.32"/>--> </g> <g id="kvg:09756-Kaisho-g3" kvg:position="bottom"> <!--<path id="kvg:09756-Kaisho-s3" kvg:type="㇔" d="M16.03,46.95c4.08,7.12,5.93,14.41,6.3,19.1"/>--> <!--<path id="kvg:09756-Kaisho-s4" kvg:type="㇒" d="M38.31,39.26c0.71,0.99,0.4,3.06,0.25,3.85c-1.57,8.14-4.88,21.19-6.28,25.42"/>--> <!--<path id="kvg:09756-Kaisho-s5" kvg:type="㇐" d="M13.49,75.76c0.91,0.97,2.95,0.95,3.85,0.57c9.92-4.23,18.05-8.13,26.85-11.62"/>--> </g> </g> <g id="kvg:09756-Kaisho-g4" kvg:element="青" kvg:position="right" kvg:radical="tradit"> <g id="kvg:09756-Kaisho-g5" kvg:position="top"> <!--<path id="kvg:09756-Kaisho-s6" kvg:type="㇐" d="M52.42,21.14c0.74,0.37,3.59,0.45,4.33,0.37c5.32-0.54,20.75-3.24,25.34-3.81c1.22-0.15,2.71-0.08,3.36-0.02"/>--> <!--<path id="kvg:09756-Kaisho-s7" kvg:type="㇑a" d="M66.79,9.13c0.59,0.25,1.85,1.87,1.97,2.37s0.28,22.05,0.33,30.02"/>--> <!--<path id="kvg:09756-Kaisho-s8" kvg:type="㇐" d="M53.8,32.02c0.74,0.27,3.09,0.33,3.83,0.27c5.32-0.39,21.19-3.62,25.78-4.04c1.22-0.11,2.7-0.06,3.35-0.02"/>--> <!--<path id="kvg:09756-Kaisho-s9" kvg:type="㇐" d="M46.38,43.95c1.15,0.3,3.26,0.35,4.41,0.3c8.3-0.42,31.21-4,40.14-4.68c2.32-0.18,4.31-0.76,6.07-0.04"/>--> </g> <g id="kvg:09756-Kaisho-g6" kvg:element="月" kvg:position="bottom"> <!--<path id="kvg:09756-Kaisho-s10" kvg:type="㇑/㇒" d="M54.87,52.22c0.58,0.6,0.97,1.19,1.16,1.79c0.19,0.59,1.06,31.34,0.2,43.98"/>--> <!--<path id="kvg:09756-Kaisho-s11" kvg:type="㇆a" d="M57.18,52.81c2.32-0.15,23.58-2.66,25.3-2.83c3.09-0.3,4.25,1.94,3.86,2.83c-0.37,0.86-0.58,28.27-0.58,40.33c0,9.11-5.79,2.08-6.57,1.34"/>--> <!--<path id="kvg:09756-Kaisho-s12" kvg:type="㇐a" d="M57.18,65.28c4.29,0,9.17-0.84,13.42-1.34c1.42-0.17,2.85-0.33,4.26-0.49"/>--> <!--<path id="kvg:09756-Kaisho-s13" kvg:type="㇐a" d="M57.76,77.52c4.37,0,8.8-0.79,13.13-1.29c1.38-0.16,2.79-0.32,4.16-0.47"/>--> </g> </g> </g> </g> <g id="kvg:StrokeNumbers_09756-Kaisho" style="font-size:8;fill:#808080">              </g> </svg> 