<?xml version="1.0" encoding="UTF-8"?>  <!DOCTYPE svg PUBLIC "-//W3C//DTD SVG 1.0//EN" "http://www.w3.org/TR/2001/REC-SVG-20010904/DTD/svg10.dtd"  <!ATTLIST g xmlns:kvg CDATA #FIXED "http://kanjivg.tagaini.net" kvg:element CDATA #IMPLIED kvg:variant CDATA #IMPLIED kvg:partial CDATA #IMPLIED kvg:original CDATA #IMPLIED kvg:part CDATA #IMPLIED kvg:number CDATA #IMPLIED kvg:tradForm CDATA #IMPLIED kvg:radicalForm CDATA #IMPLIED kvg:position CDATA #IMPLIED kvg:radical CDATA #IMPLIED kvg:phon CDATA #IMPLIED > <!ATTLIST path xmlns:kvg CDATA #FIXED "http://kanjivg.tagaini.net" kvg:type CDATA #IMPLIED >  <svg xmlns="http://www.w3.org/2000/svg" width="109" height="109" viewBox="0 0 109 109"> <g id="kvg:StrokePaths_09808-Kaisho" style="fill:none;stroke:#000000;stroke-width:3;stroke-linecap:round;stroke-linejoin:round;"> <g id="kvg:09808-Kaisho" kvg:element="須"> <g id="kvg:09808-Kaisho-g1" kvg:element="彡" kvg:position="left" kvg:radical="nelson"> <g id="kvg:09808-Kaisho-g2" kvg:element="丿"> <!--<path id="kvg:09808-Kaisho-s1" kvg:type="㇒" d="M38.1,16.75c0.06,0.43,0.23,1.16-0.13,1.72c-2.34,3.67-9.28,11.44-21.79,15.83"/>--> </g> <g id="kvg:09808-Kaisho-g3" kvg:element="丿"> <!--<path id="kvg:09808-Kaisho-s2" kvg:type="㇒" d="M38.27,39.12c0.06,0.45-0.21,1.79-0.61,2.32C34,46.25,28.5,52.25,18.6,58.35"/>--> </g> <g id="kvg:09808-Kaisho-g4" kvg:element="丿"> <!--<path id="kvg:09808-Kaisho-s3" kvg:type="㇒" d="M39.01,66.48c0.07,0.58,0.15,1.48-0.14,2.3c-1.69,4.84-11.37,15.46-24.62,21.97"/>--> </g> </g> <g id="kvg:09808-Kaisho-g5" kvg:element="頁" kvg:position="right" kvg:radical="tradit"> <g id="kvg:09808-Kaisho-g6" kvg:position="top"> <!--<path id="kvg:09808-Kaisho-s4" kvg:type="㇐" d="M50.63,17.92c1.13,0.57,3.21,0.8,4.33,0.69c12.5-1.29,21.63-3.14,32.46-3.45c1.88-0.05,3.01,0.36,3.95,0.66"/>--> <!--<path id="kvg:09808-Kaisho-s5" kvg:type="㇒" d="M69.77,20.66c0.01,0.26,0.03,0.66-0.02,1.02c-0.31,2.15-2.47,7.26-4.89,10.08"/>--> </g> <g id="kvg:09808-Kaisho-g7" kvg:element="貝" kvg:position="bottom"> <g id="kvg:09808-Kaisho-g8" kvg:element="目" kvg:position="top"> <!--<path id="kvg:09808-Kaisho-s6" kvg:type="㇑" d="M53.69,32.61c0.51,1.09,1.25,1.91,1.25,3.34c0,1.43-0.34,41.21-0.34,41.92"/>--> <!--<path id="kvg:09808-Kaisho-s7" kvg:type="㇕a" d="M55.8,34.1c5.2-0.6,26.7-3.96,29.33-4.08c2.19-0.1,2.61,1.33,2.61,3.39c0,1.71-0.64,41.53-0.64,42.6"/>--> <!--<path id="kvg:09808-Kaisho-s8" kvg:type="㇐a" d="M55.75,46.68c5.06-0.61,9.64-1.07,14.71-1.54c1.61-0.15,3.22-0.29,4.79-0.42"/>--> <!--<path id="kvg:09808-Kaisho-s9" kvg:type="㇐a" d="M55.61,60.29c5.03-0.5,10.05-1.12,15.07-1.66c1.49-0.16,2.99-0.31,4.46-0.46"/>--> <!--<path id="kvg:09808-Kaisho-s10" kvg:type="㇐a" d="M55.24,74.43c8.76-0.93,22.69-1.74,31.07-1.97"/>--> </g> <g id="kvg:09808-Kaisho-g9" kvg:position="bottom"> <!--<path id="kvg:09808-Kaisho-s11" kvg:type="㇒" d="M60.42,82.2c0.45,1.17,0.34,1.78-0.41,2.72c-2.46,3.1-9.01,7.76-15.76,10.94"/>--> <!--<path id="kvg:09808-Kaisho-s12" kvg:type="㇔" d="M79.8,82.72c4.77,3.34,10.79,10.79,12.09,13.61"/>--> </g> </g> </g> </g> </g> <g id="kvg:StrokeNumbers_09808-Kaisho" style="font-size:8;fill:#808080">             </g> </svg> 