<?xml version="1.0" encoding="UTF-8"?>  <!DOCTYPE svg PUBLIC "-//W3C//DTD SVG 1.0//EN" "http://www.w3.org/TR/2001/REC-SVG-20010904/DTD/svg10.dtd"  <!ATTLIST g xmlns:kvg CDATA #FIXED "http://kanjivg.tagaini.net" kvg:element CDATA #IMPLIED kvg:variant CDATA #IMPLIED kvg:partial CDATA #IMPLIED kvg:original CDATA #IMPLIED kvg:part CDATA #IMPLIED kvg:number CDATA #IMPLIED kvg:tradForm CDATA #IMPLIED kvg:radicalForm CDATA #IMPLIED kvg:position CDATA #IMPLIED kvg:radical CDATA #IMPLIED kvg:phon CDATA #IMPLIED > <!ATTLIST path xmlns:kvg CDATA #FIXED "http://kanjivg.tagaini.net" kvg:type CDATA #IMPLIED >  <svg xmlns="http://www.w3.org/2000/svg" width="109" height="109" viewBox="0 0 109 109"> <g id="kvg:StrokePaths_098af-Kaisho" style="fill:none;stroke:#000000;stroke-width:3;stroke-linecap:round;stroke-linejoin:round;"> <g id="kvg:098af-Kaisho" kvg:element="颯"> <g id="kvg:098af-Kaisho-g1" kvg:element="立" kvg:position="left" kvg:radical="nelson"> <g id="kvg:098af-Kaisho-g2" kvg:element="亠" kvg:position="top"> <!--<path id="kvg:098af-Kaisho-s1" kvg:type="㇑a" d="M17.88,16.5c3.62,3,6.62,6.75,8.66,11.58"/>--> <!--<path id="kvg:098af-Kaisho-s2" kvg:type="㇐" d="M7.75,36.25c1.16,0.32,2.53,0.37,3.68,0.32c6.57-0.28,18.07-2.32,23.99-3.22c1.92-0.29,3.1,0.15,4.07,0.32"/>--> </g> <g id="kvg:098af-Kaisho-g3" kvg:position="bottom"> <!--<path id="kvg:098af-Kaisho-s3" kvg:type="㇔" d="M13.5,43.45c4.04,9.92,5.88,20.06,6.25,26.6"/>--> <!--<path id="kvg:098af-Kaisho-s4" kvg:type="㇒" d="M33.77,37.26c0.74,1.07,0.42,3.32,0.26,4.18c-1.63,8.83-5.07,23-6.53,27.59"/>--> <!--<path id="kvg:098af-Kaisho-s5" kvg:type="㇐" d="M10,77.07c0.95,1.2,3.06,1.18,4,0.7c10.31-5.21,14.75-6.52,23.9-10.81"/>--> </g> </g> <g id="kvg:098af-Kaisho-g4" kvg:element="風" kvg:position="right" kvg:radical="tradit"> <g id="kvg:098af-Kaisho-g5" kvg:element="几"> <g id="kvg:098af-Kaisho-g6" kvg:element="丿"> <!--<path id="kvg:098af-Kaisho-s6" kvg:type="㇒" d="M44.18,17.86c1.07,1.14,1.63,3.55,1.63,6.04c0,22.7,2.19,49.85-12.56,68.85"/>--> </g> <!--<path id="kvg:098af-Kaisho-s7" kvg:type="㇈a" d="M46.42,19.97c10.08-1.72,31.05-4.72,33.98-4.72c2.93,0,4.3,1.05,4.03,5.11C83,41.75,82.82,70.99,94.35,87.93c5.31,7.8,4.21,3.76,4.4-3.23"/>--> </g> <!--<path id="kvg:098af-Kaisho-s8" kvg:type="㇒" d="M73.85,22.09c0.06,0.34,0.12,0.87-0.12,1.35c-1.42,2.84-9.59,9.08-20.76,12.9"/>--> <g id="kvg:098af-Kaisho-g7" kvg:element="虫"> <g id="kvg:098af-Kaisho-g8" kvg:element="中"> <g id="kvg:098af-Kaisho-g9" kvg:element="口"> <!--<path id="kvg:098af-Kaisho-s9" kvg:type="㇑" d="M50.49,47.41c0.39,0.38,0.88,0.68,0.96,1.18c0.53,3.67,1.57,10.01,2.31,16.95"/>--> <!--<path id="kvg:098af-Kaisho-s10" kvg:type="㇕b" d="M51.73,48.22c5.92-0.73,19.95-3.17,24.23-3.45c1.67-0.11,2.44,1.04,2.23,2.14c-0.71,3.76-1.83,7.81-2.99,14.07"/>--> <!--<path id="kvg:098af-Kaisho-s11" kvg:type="㇐b" d="M53.97,63.56c4.76-0.74,15.83-1.53,22.5-2.21"/>--> </g> <g id="kvg:098af-Kaisho-g10" kvg:element="丨"> <!--<path id="kvg:098af-Kaisho-s12" kvg:type="㇑a" d="M63.09,33.22c0.48,0.28,1.36,2.28,1.36,3.82c0,0.57,0,41.5-0.1,45"/>--> </g> </g> <!--<path id="kvg:098af-Kaisho-s13" kvg:type="㇀" d="M48.54,86.17c0.54,0.66,1.87,0.98,2.41,0.82c0.54-0.16,24.82-8.41,26.45-9.23"/>--> <!--<path id="kvg:098af-Kaisho-s14" kvg:type="㇔" d="M73.01,69.98c2.6,3.14,7.94,12,8.82,16.09"/>--> </g> </g> </g> </g> <g id="kvg:StrokeNumbers_098af-Kaisho" style="font-size:8;fill:#808080">               </g> </svg> 