<?xml version="1.0" encoding="UTF-8"?>  <!DOCTYPE svg PUBLIC "-//W3C//DTD SVG 1.0//EN" "http://www.w3.org/TR/2001/REC-SVG-20010904/DTD/svg10.dtd"  <!ATTLIST g xmlns:kvg CDATA #FIXED "http://kanjivg.tagaini.net" kvg:element CDATA #IMPLIED kvg:variant CDATA #IMPLIED kvg:partial CDATA #IMPLIED kvg:original CDATA #IMPLIED kvg:part CDATA #IMPLIED kvg:number CDATA #IMPLIED kvg:tradForm CDATA #IMPLIED kvg:radicalForm CDATA #IMPLIED kvg:position CDATA #IMPLIED kvg:radical CDATA #IMPLIED kvg:phon CDATA #IMPLIED > <!ATTLIST path xmlns:kvg CDATA #FIXED "http://kanjivg.tagaini.net" kvg:type CDATA #IMPLIED >  <svg xmlns="http://www.w3.org/2000/svg" width="109" height="109" viewBox="0 0 109 109"> <g id="kvg:StrokePaths_098df-Kaisho" style="fill:none;stroke:#000000;stroke-width:3;stroke-linecap:round;stroke-linejoin:round;"> <g id="kvg:098df-Kaisho" kvg:element="食" kvg:radical="general"> <!--<path id="kvg:098df-Kaisho-s1" kvg:type="㇒" d="M52.5,10.25c0.11,0.97,0.44,2.59-0.22,3.9C46.89,24.98,30.83,42.17,14,51.5"/>--> <!--<path id="kvg:098df-Kaisho-s2" kvg:type="㇏" d="M52.75,16.25c5.53,5.21,29.35,22.22,35.46,26.03c2.07,1.29,4.73,1.85,6.79,2.22"/>--> <!--<path id="kvg:098df-Kaisho-s3" kvg:type="㇑a" d="M49.75,28.75c2.75,2,4.75,4.25,6,6"/>--> <!--<path id="kvg:098df-Kaisho-s4" kvg:type="㇕" d="M39.69,40.41c2.2-0.1,23.41-2.54,25.42-2.66c1.67-0.1,2.74,1.16,2.61,1.78C67.46,40.77,66.5,55,66.34,62.65c-0.02,0.95-0.13,1.36-0.13,1.99"/>--> <!--<path id="kvg:098df-Kaisho-s5" kvg:type="㇐a" d="M40.08,51.73c4.42,0,8.92-0.7,13.31-1.12c1.48-0.14,2.97-0.28,4.39-0.41"/>--> <!--<path id="kvg:098df-Kaisho-s6" kvg:type="㇐a" d="M39.94,63.9c6.06-0.45,17.81-1.65,25.35-2.04"/>--> <!--<path id="kvg:098df-Kaisho-s7" kvg:type="㇙" d="M37,38.5c1.25,0.5,2,2.25,2.25,3.25s0.53,47.27,0.25,49.75c-0.25,2.25-0.75,5.5,2.25,3.75s10.5-7,13-9.25"/>--> <!--<path id="kvg:098df-Kaisho-s8" kvg:type="㇒" d="M73.75,64c0.25,1.25,0.5,1.5,0.5,2.75s-5.5,6-7.75,7.75"/>--> <!--<path id="kvg:098df-Kaisho-s9" kvg:type="㇔/㇏" d="M52,71c7.35,2.78,27.04,19.17,31.5,25"/>--> </g> </g> <g id="kvg:StrokeNumbers_098df-Kaisho" style="font-size:8;fill:#808080">          </g> </svg> 