<?xml version="1.0" encoding="UTF-8"?>  <!DOCTYPE svg PUBLIC "-//W3C//DTD SVG 1.0//EN" "http://www.w3.org/TR/2001/REC-SVG-20010904/DTD/svg10.dtd"  <!ATTLIST g xmlns:kvg CDATA #FIXED "http://kanjivg.tagaini.net" kvg:element CDATA #IMPLIED kvg:variant CDATA #IMPLIED kvg:partial CDATA #IMPLIED kvg:original CDATA #IMPLIED kvg:part CDATA #IMPLIED kvg:number CDATA #IMPLIED kvg:tradForm CDATA #IMPLIED kvg:radicalForm CDATA #IMPLIED kvg:position CDATA #IMPLIED kvg:radical CDATA #IMPLIED kvg:phon CDATA #IMPLIED > <!ATTLIST path xmlns:kvg CDATA #FIXED "http://kanjivg.tagaini.net" kvg:type CDATA #IMPLIED >  <svg xmlns="http://www.w3.org/2000/svg" width="109" height="109" viewBox="0 0 109 109"> <g id="kvg:StrokePaths_0990a-KaishoVtLst" style="fill:none;stroke:#000000;stroke-width:3;stroke-linecap:round;stroke-linejoin:round;"> <g id="kvg:0990a-KaishoVtLst" kvg:element="養"> <g id="kvg:0990a-KaishoVtLst-g1" kvg:element="羊" kvg:variant="true" kvg:position="top" kvg:radical="nelson"> <!--<path id="kvg:0990a-KaishoVtLst-s1" kvg:type="㇔" d="M37.91,9.91c2.44,1.41,6.29,5.79,6.9,7.98"/>--> <!--<path id="kvg:0990a-KaishoVtLst-s2" kvg:type="㇒" d="M63.95,9.39c0.02,0.24,0.03,0.63-0.03,0.98c-0.39,2.07-2.62,6.6-5.67,9.38"/>--> <!--<path id="kvg:0990a-KaishoVtLst-s3" kvg:type="㇐" d="M31.4,24.33c0.81,0.33,2.28,0.42,3.09,0.33c7.77-0.91,31.02-3.41,39.41-4.55c1.33-0.18,2.15,0.16,2.82,0.32"/>--> <!--<path id="kvg:0990a-KaishoVtLst-s4" kvg:type="㇐" d="M32.33,34.77c0.81,0.33,2.29,0.44,3.09,0.33c6.09-0.85,28.59-3.35,37.48-4.33c1.33-0.15,2.15,0.16,2.82,0.32"/>--> <!--<path id="kvg:0990a-KaishoVtLst-s5" kvg:type="㇐" d="M17.03,46.26c1.3,0.46,3.7,0.64,4.99,0.46c9.23-1.23,49.48-5.48,64.14-6.49c2.16-0.15,3.47,0.22,4.56,0.45"/>--> <!--<path id="kvg:0990a-KaishoVtLst-s6" kvg:type="㇑" d="M52.43,24.71c0.94,0.43,1.5,1.93,1.69,2.79c0.19,0.86,0,10.39-0.19,15.75"/>--> </g> <g id="kvg:0990a-KaishoVtLst-g2" kvg:element="食" kvg:position="bottom" kvg:radical="tradit"> <!--<path id="kvg:0990a-KaishoVtLst-s7" kvg:type="㇒" d="M40.37,46.25c0.08,0.57,0.33,1.53-0.16,2.31c-4.04,6.4-16.09,16.56-28.71,22.07"/>--> <!--<path id="kvg:0990a-KaishoVtLst-s8" kvg:type="㇏" d="M64.58,43.6C69.5,47,86.21,61.66,90.61,64.75c1.49,1.05,3.4,1.5,4.89,1.8"/>--> <!--<path id="kvg:0990a-KaishoVtLst-s9" kvg:type="㇑a" d="M49.99,48.26c2.39,0.92,4.33,3.3,4.81,5.13"/>--> <!--<path id="kvg:0990a-KaishoVtLst-s10" kvg:type="㇕" d="M41.08,59.09c2.1-0.08,21.9-2.84,23.82-2.93c1.59-0.08,2.6,0.59,2.5,2.29c-0.21,3.57-1.17,10.21-1.33,15.75c-0.02,0.69-0.12,0.98-0.12,1.44"/>--> <!--<path id="kvg:0990a-KaishoVtLst-s11" kvg:type="㇐a" d="M41.45,67.29c4.14,0,8.39-0.83,12.49-1.31c1.39-0.16,2.78-0.33,4.11-0.48"/>--> <!--<path id="kvg:0990a-KaishoVtLst-s12" kvg:type="㇐a" d="M41.32,76.11c5.79-0.33,16.54-2.19,23.75-2.47"/>--> <!--<path id="kvg:0990a-KaishoVtLst-s13" kvg:type="㇙" d="M39.51,58.21c0.99,0.79,0.91,1.63,1.15,2.35c0.24,0.72,0.5,31.23,0.24,33.03c-0.24,1.63,0.72,0.72-0.72,2.54c-1.44,1.81-1.44,2.17,1.44,0.91c2.87-1.27,11.48-5.79,13.87-7.42"/>--> <!--<path id="kvg:0990a-KaishoVtLst-s14" kvg:type="㇒" d="M75.17,76.18c0.24,0.91,0.48,1.09,0.48,1.99s-5.26,4.35-7.41,5.61"/>--> <!--<path id="kvg:0990a-KaishoVtLst-s15" kvg:type="㇏" d="M53.61,80.25c3.84,0,23.99,15.79,27.14,16.96c4.52,1.7,5.2,1.7,7.46,2.07"/>--> </g> </g> </g> <g id="kvg:StrokeNumbers_0990a-KaishoVtLst" style="font-size:8;fill:#808080">                </g> </svg> 