<?xml version="1.0" encoding="UTF-8"?>  <!DOCTYPE svg PUBLIC "-//W3C//DTD SVG 1.0//EN" "http://www.w3.org/TR/2001/REC-SVG-20010904/DTD/svg10.dtd"  <!ATTLIST g xmlns:kvg CDATA #FIXED "http://kanjivg.tagaini.net" kvg:element CDATA #IMPLIED kvg:variant CDATA #IMPLIED kvg:partial CDATA #IMPLIED kvg:original CDATA #IMPLIED kvg:part CDATA #IMPLIED kvg:number CDATA #IMPLIED kvg:tradForm CDATA #IMPLIED kvg:radicalForm CDATA #IMPLIED kvg:position CDATA #IMPLIED kvg:radical CDATA #IMPLIED kvg:phon CDATA #IMPLIED > <!ATTLIST path xmlns:kvg CDATA #FIXED "http://kanjivg.tagaini.net" kvg:type CDATA #IMPLIED >  <svg xmlns="http://www.w3.org/2000/svg" width="109" height="109" viewBox="0 0 109 109"> <g id="kvg:StrokePaths_099c8-Vt6" style="fill:none;stroke:#000000;stroke-width:3;stroke-linecap:round;stroke-linejoin:round;"> <g id="kvg:099c8-Vt6" kvg:element="駈"> <g id="kvg:099c8-Vt6-g1" kvg:element="馬" kvg:position="left" kvg:radical="general"> <!--<path id="kvg:099c8-Vt6-s1" kvg:type="㇑" d="M15.59,19.52c-0.02,5.01-0.21,38-0.97,40.91"/>--> <!--<path id="kvg:099c8-Vt6-s2" kvg:type="㇐b" d="M13.38,19.31c0.78-0.02,2.69-0.06,3.71-0.13c7.66-0.51,19.98-2.26,22.3-2.6c0.92-0.13,2.47-0.24,2.94-0.02"/>--> <!--<path id="kvg:099c8-Vt6-s3" kvg:type="㇐b" d="M16,32.61c6.13-0.57,18.85-2.55,21.48-2.93c0.92-0.13,2.48-0.24,2.94-0.02"/>--> <!--<path id="kvg:099c8-Vt6-s4" kvg:type="㇐b" d="M16.1,45.27c6.13-0.57,18.84-2.54,21.47-2.92c0.92-0.13,2.47-0.24,2.94-0.03"/>--> <!--<path id="kvg:099c8-Vt6-s5" kvg:type="㇆a" d="M15.34,59.85c6.05-1.37,21.59-3.92,24.91-4.5c4.24-0.74,4.1,2.73,3.87,6.27c-0.66,10.05-3.37,22.7-6.5,29.21c-2.69,5.58-5.71,0.4-6.59-0.84"/>--> <!--<path id="kvg:099c8-Vt6-s6" kvg:type="㇑a" d="M27.9,19.24c0.25,0.37,0.94,0.85,0.93,1.44c-0.02,5.99-0.06,27.15-0.25,36.57"/>--> <g id="kvg:099c8-Vt6-g2" kvg:element="灬" kvg:variant="true" kvg:original="火"> <!--<path id="kvg:099c8-Vt6-s7" kvg:type="㇔" d="M11.67,72.3C12.05,78.53,10.9,84,10.5,85.24"/>--> <!--<path id="kvg:099c8-Vt6-s8" kvg:type="㇔" d="M18.31,71.85c1.06,2.04,1.96,4.61,2.2,8.25"/>--> <!--<path id="kvg:099c8-Vt6-s9" kvg:type="㇔" d="M25.16,68.68c0.62,1,2.82,4.29,3.09,7.55"/>--> <!--<path id="kvg:099c8-Vt6-s10" kvg:type="㇔" d="M31.74,65.79c1.22,1.95,3.23,3.97,3.67,6.55"/>--> </g> </g> <g id="kvg:099c8-Vt6-g3" kvg:element="丘" kvg:position="right"> <g id="kvg:099c8-Vt6-g4" kvg:element="斤"> <!--<path id="kvg:099c8-Vt6-s11" kvg:type="㇒" d="M80.22,16.5c0.08,0.44,0.29,1.26-0.15,1.75C74.66,24.4,66.67,30.04,52.57,35"/>--> <!--<path id="kvg:099c8-Vt6-s12" kvg:type="㇑" d="M51.37,34.13c1.38,0.87,1.85,2.67,1.98,5.26c0.46,9.6,3.12,41.81,3.67,51.11"/>--> <!--<path id="kvg:099c8-Vt6-s13" kvg:type="㇐" d="M54.03,51.31c7.21-0.96,25.21-2.79,33.96-4c1.31-0.18,3.6-0.15,4.42,0"/>--> <!--<path id="kvg:099c8-Vt6-s14" kvg:type="㇑" d="M79.43,49.3c0.87,0.66,1.6,2.92,1.56,4.26C80.57,67,79.62,78.25,78.71,88.75"/>--> </g> <g id="kvg:099c8-Vt6-g5" kvg:element="一"> <!--<path id="kvg:099c8-Vt6-s15" kvg:type="㇐" d="M46,91c0.97,0.29,2.76,0.33,3.73,0.29C57,91,83.97,89.28,94.34,88.75c1.62-0.08,2.59,0.14,3.41,0.28"/>--> </g> </g> </g> </g> <g id="kvg:StrokeNumbers_099c8-Vt6" style="font-size:8;fill:#808080">                </g> </svg> 