<?xml version="1.0" encoding="UTF-8"?>  <!DOCTYPE svg PUBLIC "-//W3C//DTD SVG 1.0//EN" "http://www.w3.org/TR/2001/REC-SVG-20010904/DTD/svg10.dtd"  <!ATTLIST g xmlns:kvg CDATA #FIXED "http://kanjivg.tagaini.net" kvg:element CDATA #IMPLIED kvg:variant CDATA #IMPLIED kvg:partial CDATA #IMPLIED kvg:original CDATA #IMPLIED kvg:part CDATA #IMPLIED kvg:number CDATA #IMPLIED kvg:tradForm CDATA #IMPLIED kvg:radicalForm CDATA #IMPLIED kvg:position CDATA #IMPLIED kvg:radical CDATA #IMPLIED kvg:phon CDATA #IMPLIED > <!ATTLIST path xmlns:kvg CDATA #FIXED "http://kanjivg.tagaini.net" kvg:type CDATA #IMPLIED >  <svg xmlns="http://www.w3.org/2000/svg" width="109" height="109" viewBox="0 0 109 109"> <g id="kvg:StrokePaths_09b5a-Kaisho" style="fill:none;stroke:#000000;stroke-width:3;stroke-linecap:round;stroke-linejoin:round;"> <g id="kvg:09b5a-Kaisho" kvg:element="魚" kvg:radical="general"> <g id="kvg:09b5a-Kaisho-g1" kvg:element="𠂊" kvg:variant="true" kvg:original="勹" kvg:position="top"> <!--<path id="kvg:09b5a-Kaisho-s1" kvg:type="㇒" d="M48,13c0.06,0.54,0.13,1.4-0.12,2.18C46.4,19.77,37.9,29.84,26.25,36"/>--> <!--<path id="kvg:09b5a-Kaisho-s2" kvg:type="㇇" d="M49,19.38c2.84,0,14.95-1.87,17.94-2.15C69.5,17,70.82,19.81,69.75,21c-4.5,5-9.5,10.5-14.25,17.25"/>--> </g> <g id="kvg:09b5a-Kaisho-g2" kvg:position="bottom"> <g id="kvg:09b5a-Kaisho-g3" kvg:element="田"> <!--<path id="kvg:09b5a-Kaisho-s3" kvg:type="㇑" d="M27.99,41.48c0.4,0.5,0.41,0.85,0.63,1.48c1.8,5.19,3.5,18.31,4.61,28"/>--> <!--<path id="kvg:09b5a-Kaisho-s4" kvg:type="㇕a" d="M29.86,42.17c13.96-1.31,37.88-3.53,48.3-4.63c3.83-0.4,5.79,1.02,5.59,2.45c-0.72,5.24-2.5,19.5-4.25,28.25"/>--> <!--<path id="kvg:09b5a-Kaisho-s5" kvg:type="㇑a" d="M55,40.75c0.5,6.75,0.25,21.5,0.25,26"/>--> <!--<path id="kvg:09b5a-Kaisho-s6" kvg:type="㇐a" d="M32.47,55.61c10.82-1.23,21.68-2.1,32.52-3.1c1.3-0.12,2.57-0.23,3.78-0.34"/>--> <!--<path id="kvg:09b5a-Kaisho-s7" kvg:type="㇐a" d="M33.95,69.54C44,68.99,65.62,66.66,79.5,65.75"/>--> </g> <g id="kvg:09b5a-Kaisho-g4" kvg:element="灬" kvg:variant="true" kvg:original="火"> <!--<path id="kvg:09b5a-Kaisho-s8" kvg:type="㇔" d="M26.25,81c0,5.25-5.75,13-7.25,14.5"/>--> <!--<path id="kvg:09b5a-Kaisho-s9" kvg:type="㇔" d="M42.52,79.08c3.15,2.76,6.15,10.34,6.94,14.63"/>--> <!--<path id="kvg:09b5a-Kaisho-s10" kvg:type="㇔" d="M62.37,77.83c3.15,2.76,8.15,11.34,8.93,15.63"/>--> <!--<path id="kvg:09b5a-Kaisho-s11" kvg:type="㇔" d="M84.27,78.58c4.16,2.63,10.75,10.8,11.79,14.88"/>--> </g> </g> </g> </g> <g id="kvg:StrokeNumbers_09b5a-Kaisho" style="font-size:8;fill:#808080">            </g> </svg> 