<?xml version="1.0" encoding="UTF-8"?>  <!DOCTYPE svg PUBLIC "-//W3C//DTD SVG 1.0//EN" "http://www.w3.org/TR/2001/REC-SVG-20010904/DTD/svg10.dtd"  <!ATTLIST g xmlns:kvg CDATA #FIXED "http://kanjivg.tagaini.net" kvg:element CDATA #IMPLIED kvg:variant CDATA #IMPLIED kvg:partial CDATA #IMPLIED kvg:original CDATA #IMPLIED kvg:part CDATA #IMPLIED kvg:number CDATA #IMPLIED kvg:tradForm CDATA #IMPLIED kvg:radicalForm CDATA #IMPLIED kvg:position CDATA #IMPLIED kvg:radical CDATA #IMPLIED kvg:phon CDATA #IMPLIED > <!ATTLIST path xmlns:kvg CDATA #FIXED "http://kanjivg.tagaini.net" kvg:type CDATA #IMPLIED >  <svg xmlns="http://www.w3.org/2000/svg" width="109" height="109" viewBox="0 0 109 109"> <g id="kvg:StrokePaths_09c1b-Kaisho" style="fill:none;stroke:#000000;stroke-width:3;stroke-linecap:round;stroke-linejoin:round;"> <g id="kvg:09c1b-Kaisho" kvg:element="鰛"> <g id="kvg:09c1b-Kaisho-g1" kvg:element="魚" kvg:position="left" kvg:radical="tradit"> <g id="kvg:09c1b-Kaisho-g2" kvg:element="𠂊" kvg:variant="true" kvg:original="勹" kvg:position="top"> <!--<path id="kvg:09c1b-Kaisho-s1" kvg:type="㇒" d="M24.19,12.25c0.04,0.56,0.19,1.48-0.08,2.26C22.25,19.75,16.5,31.5,9.23,39.62"/>--> <!--<path id="kvg:09c1b-Kaisho-s2" kvg:type="㇇" d="M20.64,23.38c1.82,0,14.57-2.94,16.48-3.23c1.64-0.25,2.69,1.78,1.83,2.9c-3.2,4.2-5.7,10.2-9.7,18.2"/>--> </g> <g id="kvg:09c1b-Kaisho-g3" kvg:position="bottom"> <g id="kvg:09c1b-Kaisho-g4" kvg:element="田"> <!--<path id="kvg:09c1b-Kaisho-s3" kvg:type="㇑" d="M11.69,42.65c0.22,0.5,0.23,0.83,0.36,1.45c1.03,5.08,2.71,19.36,3.4,28.78"/>--> <!--<path id="kvg:09c1b-Kaisho-s4" kvg:type="㇕a" d="M12.73,44.45c7.63-0.85,21.67-3.33,27.36-4.08c2.09-0.28,3.18,1.16,3.08,2.54c-0.35,5.05-2.05,17.29-3.64,26.69"/>--> <!--<path id="kvg:09c1b-Kaisho-s5" kvg:type="㇑a" d="M25.99,42.73c0.87,0.68,1.55,2.76,1.59,4.38c0.18,7.18,0.19,17.32,0.22,20.88"/>--> <!--<path id="kvg:09c1b-Kaisho-s6" kvg:type="㇐a" d="M14.75,56.99c5.91-0.86,11.84-1.61,17.77-2.37c0.71-0.09,1.4-0.18,2.06-0.26"/>--> <!--<path id="kvg:09c1b-Kaisho-s7" kvg:type="㇐a" d="M15.82,70.48c5.49-0.24,16.45-2.87,24.03-3.34"/>--> </g> <g id="kvg:09c1b-Kaisho-g5" kvg:element="灬" kvg:variant="true" kvg:original="火"> <!--<path id="kvg:09c1b-Kaisho-s8" kvg:type="㇔" d="M13.12,80.82c0,4.95-1.41,12.27-1.78,13.68"/>--> <!--<path id="kvg:09c1b-Kaisho-s9" kvg:type="㇔" d="M21.84,79.58c1.02,2.69,1.98,10.1,2.24,14.29"/>--> <!--<path id="kvg:09c1b-Kaisho-s10" kvg:type="㇔" d="M29.42,77.44c1.45,2.33,3.76,9.59,4.12,13.21"/>--> <!--<path id="kvg:09c1b-Kaisho-s11" kvg:type="㇔" d="M38.72,75.87c1.57,1.9,4.05,7.82,4.44,10.78"/>--> </g> </g> </g> <g id="kvg:09c1b-Kaisho-g6" kvg:position="right"> <g id="kvg:09c1b-Kaisho-g7" kvg:element="日" kvg:position="top"> <!--<path id="kvg:09c1b-Kaisho-s12" kvg:type="㇑" d="M51.67,17.63C52.58,18.54,52.85,19,53,20.2c0.5,3.8,3.28,25.77,3.28,26.38"/>--> <!--<path id="kvg:09c1b-Kaisho-s13" kvg:type="㇕a" d="M53,19.75c5-1,31.62-3.87,34.05-4.01c2.02-0.12,3.33,1.81,3.17,2.51c-0.32,1.42-1.97,19.25-3.28,26.83"/>--> <!--<path id="kvg:09c1b-Kaisho-s14" kvg:type="㇐a" d="M54.97,31.67c5.74-0.71,11.5-1.36,17.25-2.01c1.66-0.19,3.32-0.38,4.91-0.55"/>--> <!--<path id="kvg:09c1b-Kaisho-s15" kvg:type="㇐a" d="M56.84,45.35c7.35-0.51,20.43-2.86,29.58-3.3"/>--> </g> <g id="kvg:09c1b-Kaisho-g8" kvg:element="皿" kvg:position="bottom"> <!--<path id="kvg:09c1b-Kaisho-s16" kvg:type="㇑a" d="M51.64,60.55c0.46,0.84,1.06,1.03,1.16,1.76c0.78,5.81,1.95,20.39,2.49,30.86"/>--> <!--<path id="kvg:09c1b-Kaisho-s17" kvg:type="㇕b" d="M53.17,62.29c8.33-1.04,32.25-3.49,35.33-3.36c1.5,0.06,3.46,2.03,3.12,4.12c-0.55,3.38-2.12,21.2-2.85,28.87"/>--> <!--<path id="kvg:09c1b-Kaisho-s18" kvg:type="㇑a" d="M63.71,62.72c0.19,0.55,0.89,1.5,0.98,2.19c0.67,5.48,0.98,18.36,1.44,28.24"/>--> <!--<path id="kvg:09c1b-Kaisho-s19" kvg:type="㇑a" d="M75.42,61.49c0.58,1.01,1.05,2.22,1.07,3.25c0.11,6.49,0,17.3-0.71,27.99"/>--> <!--<path id="kvg:09c1b-Kaisho-s20" kvg:type="㇐" d="M42.63,94.37c1.1,0.27,3.11,0.25,4.2,0.17c11.4-0.87,26.72-1.78,47.71-2.53c1.83-0.07,2.92,0.05,3.84,0.17"/>--> </g> </g> </g> </g> <g id="kvg:StrokeNumbers_09c1b-Kaisho" style="font-size:8;fill:#808080">                     </g> </svg> 