<?xml version="1.0" encoding="UTF-8"?>  <!DOCTYPE svg PUBLIC "-//W3C//DTD SVG 1.0//EN" "http://www.w3.org/TR/2001/REC-SVG-20010904/DTD/svg10.dtd"  <!ATTLIST g xmlns:kvg CDATA #FIXED "http://kanjivg.tagaini.net" kvg:element CDATA #IMPLIED kvg:variant CDATA #IMPLIED kvg:partial CDATA #IMPLIED kvg:original CDATA #IMPLIED kvg:part CDATA #IMPLIED kvg:number CDATA #IMPLIED kvg:tradForm CDATA #IMPLIED kvg:radicalForm CDATA #IMPLIED kvg:position CDATA #IMPLIED kvg:radical CDATA #IMPLIED kvg:phon CDATA #IMPLIED > <!ATTLIST path xmlns:kvg CDATA #FIXED "http://kanjivg.tagaini.net" kvg:type CDATA #IMPLIED >  <svg xmlns="http://www.w3.org/2000/svg" width="109" height="109" viewBox="0 0 109 109"> <g id="kvg:StrokePaths_09cf6-Kaisho" style="fill:none;stroke:#000000;stroke-width:3;stroke-linecap:round;stroke-linejoin:round;"> <g id="kvg:09cf6-Kaisho" kvg:element="鳶"> <g id="kvg:09cf6-Kaisho-g1" kvg:element="弋" kvg:radical="nelson"> <!--<path id="kvg:09cf6-Kaisho-s1" kvg:type="㇐" d="M18.25,27.01c1.58,0.45,4.48,0.6,6.04,0.45c9.71-0.96,39.16-4.93,55.96-5.34c2.62-0.06,4.2,0.21,5.51,0.44"/>--> <!--<path id="kvg:09cf6-Kaisho-s2" kvg:type="㇂" d="M48.52,10.5c2.01,0.86,2.83,1.33,3.77,2.94C60,26.75,67.75,39.75,88.72,50.13c7.2,3.56,6.79,0.87,5.78-2.92"/>--> <g id="kvg:09cf6-Kaisho-g2" kvg:element="丶"> <!--<path id="kvg:09cf6-Kaisho-s3" kvg:type="㇔" d="M65.17,8.83c3.32,1.25,8.63,4.12,10.18,6.27"/>--> </g> </g> <g id="kvg:09cf6-Kaisho-g3" kvg:element="鳥" kvg:radical="tradit"> <!--<path id="kvg:09cf6-Kaisho-s4" kvg:type="㇒" d="M49.73,34.18c0.02,0.27,0.04,0.69-0.04,1.07c-0.44,2.25-2.97,7.18-6.44,10.19"/>--> <!--<path id="kvg:09cf6-Kaisho-s5" kvg:type="㇑" d="M33.63,46.67c0.46,0.28,0.82,2.17,0.82,2.65c0,4.95-0.45,22.97-0.73,30.76"/>--> <!--<path id="kvg:09cf6-Kaisho-s6" kvg:type="㇕a" d="M35.02,48.02c2.13-0.07,29.73-3.77,33.17-3.65c2.07,0.07,3.57,1.81,3.29,3.1c-0.17,0.79-1.25,7.74-3.23,13.82"/>--> <!--<path id="kvg:09cf6-Kaisho-s7" kvg:type="㇐a" d="M35.36,55.09c5.57,0,11.27-0.93,16.81-1.45c1.94-0.18,3.89-0.36,5.74-0.53"/>--> <!--<path id="kvg:09cf6-Kaisho-s8" kvg:type="㇐a" d="M34.74,62.99c5.31-0.28,26.87-2.52,33.48-2.76"/>--> <!--<path id="kvg:09cf6-Kaisho-s9" kvg:type="㇐b" d="M34.53,71.02c11.22-0.97,42.9-3.61,47.72-4.14c1.68-0.18,4.53-0.4,5.38-0.26"/>--> <!--<path id="kvg:09cf6-Kaisho-s10" kvg:type="㇆a" d="M33.73,79.73c12.48-1.56,40.84-4.33,47.77-4.78c3.25-0.21,4.31,1.74,3.5,4.29c-2.25,7.09-5.32,13.14-9,17.65c-3.5,4.29-5,2.86-6.5-0.31"/>--> <g id="kvg:09cf6-Kaisho-g4" kvg:element="灬" kvg:variant="true" kvg:original="火"> <!--<path id="kvg:09cf6-Kaisho-s11" kvg:type="㇔" d="M23,84.75c-0.5,2.5-3.25,8.5-5.83,11.5"/>--> <!--<path id="kvg:09cf6-Kaisho-s12" kvg:type="㇔" d="M33.18,86.51c0.82,1.8,1.61,6.75,1.81,9.56"/>--> <!--<path id="kvg:09cf6-Kaisho-s13" kvg:type="㇔" d="M46.75,84.21c1.59,1.58,4.1,6.5,4.5,8.97"/>--> <!--<path id="kvg:09cf6-Kaisho-s14" kvg:type="㇔" d="M60.75,82.48c1.59,1.51,4.1,6.19,4.5,8.53"/>--> </g> </g> </g> </g> <g id="kvg:StrokeNumbers_09cf6-Kaisho" style="font-size:8;fill:#808080">               </g> </svg> 