<?xml version="1.0" encoding="UTF-8"?>  <!DOCTYPE svg PUBLIC "-//W3C//DTD SVG 1.0//EN" "http://www.w3.org/TR/2001/REC-SVG-20010904/DTD/svg10.dtd"  <!ATTLIST g xmlns:kvg CDATA #FIXED "http://kanjivg.tagaini.net" kvg:element CDATA #IMPLIED kvg:variant CDATA #IMPLIED kvg:partial CDATA #IMPLIED kvg:original CDATA #IMPLIED kvg:part CDATA #IMPLIED kvg:number CDATA #IMPLIED kvg:tradForm CDATA #IMPLIED kvg:radicalForm CDATA #IMPLIED kvg:position CDATA #IMPLIED kvg:radical CDATA #IMPLIED kvg:phon CDATA #IMPLIED > <!ATTLIST path xmlns:kvg CDATA #FIXED "http://kanjivg.tagaini.net" kvg:type CDATA #IMPLIED >  <svg xmlns="http://www.w3.org/2000/svg" width="109" height="109" viewBox="0 0 109 109"> <g id="kvg:StrokePaths_09d15-Kaisho" style="fill:none;stroke:#000000;stroke-width:3;stroke-linecap:round;stroke-linejoin:round;"> <g id="kvg:09d15-Kaisho" kvg:element="鴕"> <g id="kvg:09d15-Kaisho-g1" kvg:element="鳥" kvg:position="left" kvg:radical="general"> <!--<path id="kvg:09d15-Kaisho-s1" kvg:type="㇒" d="M27.54,10.66c0.02,0.31,0.04,0.8-0.04,1.24c-0.48,2.58-3.2,8.09-6.92,11.3"/>--> <!--<path id="kvg:09d15-Kaisho-s2" kvg:type="㇑" d="M14.3,22.92c0.33,0.43,0.6,1.02,0.6,1.73c0,7.23,0.04,31.01-0.17,42.38"/>--> <!--<path id="kvg:09d15-Kaisho-s3" kvg:type="㇕a" d="M15.31,25.25c1.55,0,20.5-3.17,22.01-3.06c2.24,0.16,3.33,2.15,3.13,4.02c-0.12,1.15-1.64,11.69-3.08,20.46"/>--> <!--<path id="kvg:09d15-Kaisho-s4" kvg:type="㇐a" d="M15.56,35.08c3.7,0.27,7.89-0.83,11.53-1.3c1.33-0.17,2.66-0.34,3.92-0.5"/>--> <!--<path id="kvg:09d15-Kaisho-s5" kvg:type="㇐a" d="M15.47,46.62c3.88-0.14,17.05-2.48,21.88-2.5"/>--> <!--<path id="kvg:09d15-Kaisho-s6" kvg:type="㇐b" d="M15.69,56.36c8.18-0.84,26.79-2.86,30.3-3.38c1.22-0.19,3.3-0.35,3.92-0.11"/>--> <!--<path id="kvg:09d15-Kaisho-s7" kvg:type="㇆a" d="M14.74,67.25c9.1-1.63,26.63-3.42,31.67-3.9c3.28-0.31,4.97,0.89,4.38,4.57c-1.64,10.24-4.65,18.96-7.5,25.25c-2.86,6.33-5.97,1.04-7.3-0.24"/>--> <g id="kvg:09d15-Kaisho-g2" kvg:element="灬" kvg:variant="true" kvg:original="火"> <!--<path id="kvg:09d15-Kaisho-s8" kvg:type="㇔" d="M12.77,79.73c0.4,3.71-0.29,8.16-1.46,10.44"/>--> <!--<path id="kvg:09d15-Kaisho-s9" kvg:type="㇔" d="M19.82,77.49c1.84,1.84,3.58,6.67,4.04,9.37"/>--> <!--<path id="kvg:09d15-Kaisho-s10" kvg:type="㇔" d="M28.7,75.79c1.34,1.42,3.46,5.68,3.8,7.76"/>--> <!--<path id="kvg:09d15-Kaisho-s11" kvg:type="㇔" d="M36.16,72.48c1.71,1.35,4.43,5.41,4.86,7.39"/>--> </g> </g> <g id="kvg:09d15-Kaisho-g3" kvg:element="它" kvg:position="right"> <g id="kvg:09d15-Kaisho-g4" kvg:element="宀" kvg:position="top"> <!--<path id="kvg:09d15-Kaisho-s12" kvg:type="㇑a" d="M67.41,12.49c3.84,1.51,7.67,7.08,8.63,10.44"/>--> <g id="kvg:09d15-Kaisho-g5" kvg:element="冖"> <!--<path id="kvg:09d15-Kaisho-s13" kvg:type="㇔" d="M54.63,29.24c0,3.62-1.85,11.09-2.92,13.51"/>--> <!--<path id="kvg:09d15-Kaisho-s14" kvg:type="㇖b" d="M54.67,30.11c12.83-1.86,33.46-3.56,38.79-3.34c7.04,0.29-0.51,6.19-2.26,7.87"/>--> </g> </g> <g id="kvg:09d15-Kaisho-g6" kvg:element="匕" kvg:position="bottom"> <!--<path id="kvg:09d15-Kaisho-s15" kvg:type="㇒" d="M90.52,44.51c0.19,0.42,0.31,1.63-0.18,2.27c-3.2,4.15-14.19,15.59-24.54,19.84"/>--> <!--<path id="kvg:09d15-Kaisho-s16" kvg:type="㇟" d="M63,39.38c0.7,1.02,0.75,1.7,0.98,3.05c0.23,1.36-0.09,39.13-0.09,43.38c0,9.19,1.61,11.71,16.65,11.71c6.17,0,10.66-1.08,12.99-4.13c2.33-3.05,2.04-6.6,2.27-9.65"/>--> </g> </g> </g> </g> <g id="kvg:StrokeNumbers_09d15-Kaisho" style="font-size:8;fill:#808080">                 </g> </svg> 