<?xml version="1.0" encoding="UTF-8"?>  <!DOCTYPE svg PUBLIC "-//W3C//DTD SVG 1.0//EN" "http://www.w3.org/TR/2001/REC-SVG-20010904/DTD/svg10.dtd"  <!ATTLIST g xmlns:kvg CDATA #FIXED "http://kanjivg.tagaini.net" kvg:element CDATA #IMPLIED kvg:variant CDATA #IMPLIED kvg:partial CDATA #IMPLIED kvg:original CDATA #IMPLIED kvg:part CDATA #IMPLIED kvg:number CDATA #IMPLIED kvg:tradForm CDATA #IMPLIED kvg:radicalForm CDATA #IMPLIED kvg:position CDATA #IMPLIED kvg:radical CDATA #IMPLIED kvg:phon CDATA #IMPLIED > <!ATTLIST path xmlns:kvg CDATA #FIXED "http://kanjivg.tagaini.net" kvg:type CDATA #IMPLIED >  <svg xmlns="http://www.w3.org/2000/svg" width="109" height="109" viewBox="0 0 109 109"> <g id="kvg:StrokePaths_09d1b-Kaisho" style="fill:none;stroke:#000000;stroke-width:3;stroke-linecap:round;stroke-linejoin:round;"> <g id="kvg:09d1b-Kaisho" kvg:element="鴛"> <g id="kvg:09d1b-Kaisho-g1" kvg:position="top"> <g id="kvg:09d1b-Kaisho-g2" kvg:element="夕" kvg:position="left"> <!--<path id="kvg:09d1b-Kaisho-s1" kvg:type="㇒" d="M34.52,7.89c0.17,0.39,0.61,1.58,0.32,2.34c-1.99,5.19-7.96,13.52-16,20.75"/>--> <!--<path id="kvg:09d1b-Kaisho-s2" kvg:type="㇇" d="M33.05,19.17c0.27,0.03,1.4,0,2.16-0.08c2.49-0.27,7.79-2.45,10.94-2.58c2.61-0.11,3.14,0.65,2.51,2.21c-3.42,8.53-18.16,27.4-33.41,31.79"/>--> <!--<path id="kvg:09d1b-Kaisho-s3" kvg:type="㇔" d="M26.36,26.24c2.45,1.55,6.32,6.37,6.93,8.78"/>--> </g> <g id="kvg:09d1b-Kaisho-g3" kvg:element="卩" kvg:position="right"> <!--<path id="kvg:09d1b-Kaisho-s4" kvg:type="㇆" d="M61,16.14c0.62,0.09,1.89,0.14,3.1-0.13c3.4-0.75,14.57-2.53,16.23-2.82c2.51-0.44,4.13,0.78,4.03,2.55c-0.17,3.01-3.11,10.26-5.9,16.01c-1.85,3.81-4.54,0.42-5,0.25"/>--> <!--<path id="kvg:09d1b-Kaisho-s5" kvg:type="㇟/㇑" d="M60.24,15.73c0.67,0.79,1.25,1.72,1.25,2.94c0,7.28-0.31,10.51-0.31,14.22c0,7.44,1.87,8.72,16.05,8.67C94,41.5,94.39,38.93,94.39,33.49"/>--> </g> </g> <g id="kvg:09d1b-Kaisho-g4" kvg:element="鳥" kvg:position="bottom" kvg:radical="general"> <!--<path id="kvg:09d1b-Kaisho-s6" kvg:type="㇒" d="M51.73,38.18c0.02,0.23,0.04,0.6-0.04,0.93c-0.48,1.96-3.2,6.27-6.94,8.9"/>--> <!--<path id="kvg:09d1b-Kaisho-s7" kvg:type="㇑" d="M34.63,48.54c0.46,0.25,0.82,1.59,0.82,2.03c0,4.39,0.05,21.28-0.23,28.2"/>--> <!--<path id="kvg:09d1b-Kaisho-s8" kvg:type="㇕a" d="M36.02,50.31c2.13-0.06,34.09-2.8,36.17-2.8c3.07,0,3.32,1.24,2.79,3.81c-0.14,0.71-0.98,6.44-2.23,11.77"/>--> <!--<path id="kvg:09d1b-Kaisho-s9" kvg:type="㇐a" d="M36.36,57.08c5.99,0,12.09-0.83,18.06-1.28c2.1-0.16,4.2-0.32,6.2-0.47"/>--> <!--<path id="kvg:09d1b-Kaisho-s10" kvg:type="㇐a" d="M36.24,64.09c5.31-0.25,29.87-1.74,36.48-1.95"/>--> <!--<path id="kvg:09d1b-Kaisho-s11" kvg:type="㇐b" d="M36.53,71.22c11.22-0.86,42.4-3.21,47.22-3.68c1.68-0.16,4.03-0.35,4.88-0.23"/>--> <!--<path id="kvg:09d1b-Kaisho-s12" kvg:type="㇆a" d="M35.23,78.9c12.48-1.38,43.33-3.24,50.27-3.24c2.75,0,4.17,1.5,3.5,3.81c-1.75,6.03-4.75,13.28-8,18.05c-2.91,4.27-5.5,1.48-7.5-0.83"/>--> <g id="kvg:09d1b-Kaisho-g5" kvg:element="灬" kvg:variant="true" kvg:original="火"> <!--<path id="kvg:09d1b-Kaisho-s13" kvg:type="㇔" d="M25.57,85.49C25.5,91,23.94,95.83,21.33,98.75"/>--> <!--<path id="kvg:09d1b-Kaisho-s14" kvg:type="㇔" d="M35.75,85.83c1.89,1.87,3.69,7,4.16,9.9"/>--> <!--<path id="kvg:09d1b-Kaisho-s15" kvg:type="㇔" d="M50,83.76c1.5,1.82,3.87,7.47,4.25,10.3"/>--> <!--<path id="kvg:09d1b-Kaisho-s16" kvg:type="㇔" d="M63.25,82.03c1.76,1.51,4.56,6.2,5,8.54"/>--> </g> </g> </g> </g> <g id="kvg:StrokeNumbers_09d1b-Kaisho" style="font-size:8;fill:#808080">                 </g> </svg> 