<?xml version="1.0" encoding="UTF-8"?>  <!DOCTYPE svg PUBLIC "-//W3C//DTD SVG 1.0//EN" "http://www.w3.org/TR/2001/REC-SVG-20010904/DTD/svg10.dtd"  <!ATTLIST g xmlns:kvg CDATA #FIXED "http://kanjivg.tagaini.net" kvg:element CDATA #IMPLIED kvg:variant CDATA #IMPLIED kvg:partial CDATA #IMPLIED kvg:original CDATA #IMPLIED kvg:part CDATA #IMPLIED kvg:number CDATA #IMPLIED kvg:tradForm CDATA #IMPLIED kvg:radicalForm CDATA #IMPLIED kvg:position CDATA #IMPLIED kvg:radical CDATA #IMPLIED kvg:phon CDATA #IMPLIED > <!ATTLIST path xmlns:kvg CDATA #FIXED "http://kanjivg.tagaini.net" kvg:type CDATA #IMPLIED >  <svg xmlns="http://www.w3.org/2000/svg" width="109" height="109" viewBox="0 0 109 109"> <g id="kvg:StrokePaths_09d2c-Kaisho" style="fill:none;stroke:#000000;stroke-width:3;stroke-linecap:round;stroke-linejoin:round;"> <g id="kvg:09d2c-Kaisho" kvg:element="鴬"> <g id="kvg:09d2c-Kaisho-g1" kvg:position="top"> <g id="kvg:09d2c-Kaisho-g2" kvg:element="⺍" kvg:original="つ"> <!--<path id="kvg:09d2c-Kaisho-s1" kvg:type="㇔" d="M29,16.25c3.5,3,7.25,8.25,7.75,9.75"/>--> <!--<path id="kvg:09d2c-Kaisho-s2" kvg:type="㇔" d="M48,11c1.71,2.1,5.82,7.6,6.5,11"/>--> <!--<path id="kvg:09d2c-Kaisho-s3" kvg:type="㇒" d="M77.29,9.75c0.63,0.74,0.59,2.5-0.05,3.45c-1.74,2.55-6.27,7.85-8.49,10.05"/>--> </g> <g id="kvg:09d2c-Kaisho-g3" kvg:element="冖"> <!--<path id="kvg:09d2c-Kaisho-s4" kvg:type="㇔" d="M22.75,31.75c0,3-2.25,11.75-3.5,13.75"/>--> <!--<path id="kvg:09d2c-Kaisho-s5" kvg:type="㇖b" d="M24.25,34.25c11.25-1,53.25-5.5,60.25-5.5s8.5,2.75,0.5,9"/>--> </g> </g> <g id="kvg:09d2c-Kaisho-g4" kvg:element="鳥" kvg:position="bottom" kvg:radical="general"> <!--<path id="kvg:09d2c-Kaisho-s6" kvg:type="㇒" d="M49.48,34.51c0.02,0.23,0.03,0.58-0.03,0.91c-0.39,1.91-2.63,6.1-5.7,8.67"/>--> <!--<path id="kvg:09d2c-Kaisho-s7" kvg:type="㇑" d="M35.63,45.16c0.46,0.27,0.82,1.71,0.82,2.18c0,4.73,0.05,22.89-0.23,30.33"/>--> <!--<path id="kvg:09d2c-Kaisho-s8" kvg:type="㇕a" d="M37.02,47.06c2.13-0.07,30.09-3.51,32.17-3.51c3.07,0,3.32,1.34,2.79,4.1c-0.14,0.76-1.48,6.92-2.73,12.66"/>--> <!--<path id="kvg:09d2c-Kaisho-s9" kvg:type="㇐a" d="M37.36,54.34c5.31,0,10.8-1.05,16.06-1.63c1.85-0.2,3.7-0.41,5.46-0.6"/>--> <!--<path id="kvg:09d2c-Kaisho-s10" kvg:type="㇐a" d="M37.24,61.89c5.31-0.27,25.37-2.37,31.98-2.6"/>--> <!--<path id="kvg:09d2c-Kaisho-s11" kvg:type="㇐b" d="M37.53,69.56c11.22-0.93,39.9-3.95,44.72-4.45c1.68-0.18,4.03-0.38,4.88-0.25"/>--> <!--<path id="kvg:09d2c-Kaisho-s12" kvg:type="㇆a" d="M36.23,77.82c12.48-1.49,40.83-3.99,47.77-3.99c2.75,0,4.17,1.61,3.5,4.1c-1.75,6.49-6.25,13.79-9.5,18.92c-2.91,4.6-5.5,1.59-7.5-0.9"/>--> <g id="kvg:09d2c-Kaisho-g5" kvg:element="灬" kvg:variant="true" kvg:original="火"> <!--<path id="kvg:09d2c-Kaisho-s13" kvg:type="㇔" d="M24.57,84.16c-0.07,5.2-1.64,9.75-4.25,12.51"/>--> <!--<path id="kvg:09d2c-Kaisho-s14" kvg:type="㇔" d="M34.5,83.78c1.32,2.01,2.58,7.53,2.91,10.65"/>--> <!--<path id="kvg:09d2c-Kaisho-s15" kvg:type="㇔" d="M48,83.05c1.68,1.6,4.33,6.59,4.75,9.08"/>--> <!--<path id="kvg:09d2c-Kaisho-s16" kvg:type="㇔" d="M62.75,81.68c1.24,1.45,3.19,5.94,3.5,8.19"/>--> </g> </g> </g> </g> <g id="kvg:StrokeNumbers_09d2c-Kaisho" style="font-size:8;fill:#808080">                 </g> </svg> 