<?xml version="1.0" encoding="UTF-8"?>  <!DOCTYPE svg PUBLIC "-//W3C//DTD SVG 1.0//EN" "http://www.w3.org/TR/2001/REC-SVG-20010904/DTD/svg10.dtd"  <!ATTLIST g xmlns:kvg CDATA #FIXED "http://kanjivg.tagaini.net" kvg:element CDATA #IMPLIED kvg:variant CDATA #IMPLIED kvg:partial CDATA #IMPLIED kvg:original CDATA #IMPLIED kvg:part CDATA #IMPLIED kvg:number CDATA #IMPLIED kvg:tradForm CDATA #IMPLIED kvg:radicalForm CDATA #IMPLIED kvg:position CDATA #IMPLIED kvg:radical CDATA #IMPLIED kvg:phon CDATA #IMPLIED > <!ATTLIST path xmlns:kvg CDATA #FIXED "http://kanjivg.tagaini.net" kvg:type CDATA #IMPLIED >  <svg xmlns="http://www.w3.org/2000/svg" width="109" height="109" viewBox="0 0 109 109"> <g id="kvg:StrokePaths_09ea6-VtLst" style="fill:none;stroke:#000000;stroke-width:3;stroke-linecap:round;stroke-linejoin:round;"> <g id="kvg:09ea6-VtLst" kvg:element="麦" kvg:variant="true" kvg:original="麥" kvg:radical="general"> <g id="kvg:09ea6-VtLst-g1" kvg:position="top"> <!--<path id="kvg:09ea6-VtLst-s1" kvg:type="㇐" d="M29.63,27.39c0.94,0.23,2.66,0.26,3.6,0.23C43,27.36,68,24.32,76.59,23.98c1.56-0.06,2.5,0.11,3.29,0.22"/>--> <!--<path id="kvg:09ea6-VtLst-s2" kvg:type="㇐" d="M29.63,40.14c0.94,0.23,2.66,0.26,3.6,0.23C43,40.11,68,37.07,76.59,36.73c1.56-0.06,2.5,0.11,3.29,0.22"/>--> <!--<path id="kvg:09ea6-VtLst-s3" kvg:type="㇐" d="M21.88,54.89c0.94,0.23,2.66,0.33,3.6,0.23c12.27-1.3,45.52-6.05,60.36-6.64c1.56-0.06,2.5,0.11,3.29,0.22"/>--> <!--<path id="kvg:09ea6-VtLst-s4" kvg:type="㇑a" d="M52.25,11.82c1.25,0.5,2,2.25,2.25,3.25s-0.25,24-0.25,35"/>--> </g> <g id="kvg:09ea6-VtLst-g2" kvg:element="夂" kvg:position="bottom"> <!--<path id="kvg:09ea6-VtLst-s5" kvg:type="㇒" d="M45.51,55.32c0.07,0.6,0.14,1.55-0.13,2.41c-1.62,5.09-10.91,16.25-23.62,23.09"/>--> <!--<path id="kvg:09ea6-VtLst-s6" kvg:type="㇇" d="M47.25,63.07c3.32-0.3,14.43-2.43,19.18-3.36c3.04-0.6,3.7,1.08,2.35,3.47c-5.19,9.2-28.54,31.86-48.86,36.77"/>--> <!--<path id="kvg:09ea6-VtLst-s7" kvg:type="㇏" d="M38.75,67.32c8.2,4.6,35.98,23.93,46.1,28.87c3.02,1.47,5.46,2.19,8.4,2.63"/>--> </g> </g> </g> <g id="kvg:StrokeNumbers_09ea6-VtLst" style="font-size:8;fill:#808080">        </g> </svg> 